<svg version="1.1" viewBox="0.0 0.0 285.78740157480314 480.1076115485564" fill="none" stroke="none" stroke-linecap="square" stroke-miterlimit="10" xmlns:xlink="http://www.w3.org/1999/xlink" xmlns="http://www.w3.org/2000/svg"><clipPath id="p.0"><path d="m0 0l285.7874 0l0 480.1076l-285.7874 0l0 -480.1076z" clip-rule="nonzero"/></clipPath><g clip-path="url(#p.0)"><path fill="#000000" fill-opacity="0.0" d="m0 0l285.7874 0l0 480.1076l-285.7874 0z" fill-rule="evenodd"/><path fill="#ffffff" d="m-0.002624672 -0.0131233595l285.7953 0l0 480.09448l-285.7953 0z" fill-rule="evenodd"/><path stroke="#000000" stroke-width="1.0" stroke-linejoin="round" stroke-linecap="butt" d="m-0.002624672 -0.0131233595l285.7953 0l0 480.09448l-285.7953 0z" fill-rule="evenodd"/><path fill="#fff2cc" d="m43.438847 10.715633l231.49606 0l0 458.67715l-231.49606 0z" fill-rule="evenodd"/><path stroke="#000000" stroke-width="2.0" stroke-linejoin="round" stroke-linecap="butt" d="m43.438847 10.715633l231.49606 0l0 458.67715l-231.49606 0z" fill-rule="evenodd"/><path fill="#000000" d="m156.62828 38.915634l-0.234375 -7.218752l-0.09375 -2.875l-0.609375 1.953125l-1.421875 4.343752l-1.5 0l-1.28125 -4.343752l-0.53125 -1.953125l-0.0625 2.8125l-0.21875 7.281252l-2.046875 0l0.625 -12.765627l2.71875 0l1.125 3.625l0.53125 2.046875l0.546875 -1.9375l1.171875 -3.734375l2.765625 0l0.640625 12.765627l-2.125 0zm12.730469 -8.703127q0 1.0 -0.328125 1.8437519q-0.328125 0.84375 -0.984375 1.46875q-0.65625 0.609375 -1.640625 0.953125q-0.96875 0.328125 -2.25 0.328125l-1.234375 0l0 4.109375l-2.421875 0l0 -12.765627l3.75 0q1.234375 0 2.1875 0.265625q0.953125 0.265625 1.59375 0.796875q0.65625 0.515625 0.984375 1.28125q0.34375 0.75 0.34375 1.71875zm-2.515625 0.171875q0 -0.515625 -0.171875 -0.921875q-0.15625 -0.421875 -0.484375 -0.703125q-0.3125 -0.296875 -0.8125 -0.453125q-0.5 -0.15625 -1.1875 -0.15625l-1.265625 0l0 4.671877l1.34375 0q0.625 0 1.09375 -0.171875q0.484375 -0.171875 0.8125 -0.484375q0.328125 -0.3281269 0.5 -0.7812519q0.171875 -0.453125 0.171875 -1.0z" fill-rule="nonzero"/><path fill="#f4cccc" d="m63.96589 171.33977l41.291336 0l0 41.16536l-41.291336 0z" fill-rule="evenodd"/><path stroke="#000000" stroke-width="2.0" stroke-linejoin="round" stroke-linecap="butt" d="m63.96589 171.33977l41.291336 0l0 41.16536l-41.291336 0z" fill-rule="evenodd"/><path fill="#000000" d="m83.58421 195.26308q0 1.046875 -0.390625 1.828125q-0.390625 0.765625 -1.09375 1.265625q-0.6875 0.5 -1.640625 0.75q-0.953125 0.234375 -2.09375 0.234375q-1.0 0 -1.9375 -0.125q-0.9375 -0.109375 -1.859375 -0.375l0 -2.375q0.453125 0.15625 0.9375 0.296875q0.5 0.125 0.984375 0.234375q0.5 0.109375 0.984375 0.171875q0.484375 0.046875 0.953125 0.046875q0.671875 0 1.15625 -0.109375q0.484375 -0.125 0.78125 -0.328125q0.296875 -0.203125 0.4375 -0.484375q0.140625 -0.28125 0.140625 -0.625q0 -0.46875 -0.28125 -0.78125q-0.265625 -0.328125 -0.703125 -0.5625q-0.4375 -0.25 -1.0 -0.4375q-0.5625 -0.203125 -1.140625 -0.421875q-0.578125 -0.234375 -1.140625 -0.515625q-0.5625 -0.28125 -1.0 -0.703125q-0.4375 -0.421875 -0.71875 -1.0q-0.265625 -0.578125 -0.265625 -1.40625q0 -0.75 0.265625 -1.421875q0.28125 -0.671875 0.859375 -1.171875q0.59375 -0.515625 1.515625 -0.8125q0.921875 -0.296875 2.21875 -0.296875q0.375 0 0.796875 0.046875q0.421875 0.03125 0.8125 0.09375q0.40625 0.046875 0.78125 0.125q0.390625 0.0625 0.703125 0.140625l0 2.203125q-0.3125 -0.125 -0.6875 -0.21875q-0.375 -0.09375 -0.78125 -0.171875q-0.390625 -0.078125 -0.796875 -0.109375q-0.390625 -0.046875 -0.75 -0.046875q-0.640625 0 -1.078125 0.109375q-0.4375 0.09375 -0.71875 0.28125q-0.28125 0.171875 -0.40625 0.4375q-0.125 0.265625 -0.125 0.59375q0 0.390625 0.265625 0.6875q0.265625 0.28125 0.703125 0.515625q0.453125 0.234375 1.015625 0.4375q0.5625 0.1875 1.140625 0.421875q0.59375 0.234375 1.15625 0.53125q0.5625 0.28125 1.0 0.703125q0.453125 0.421875 0.71875 1.0q0.28125 0.5625 0.28125 1.34375zm11.199219 -4.84375q0 1.0 -0.328125 1.84375q-0.328125 0.84375 -0.984375 1.46875q-0.65625 0.609375 -1.640625 0.953125q-0.96875 0.328125 -2.25 0.328125l-1.234375 0l0 4.109375l-2.421875 0l0 -12.765625l3.75 0q1.234375 0 2.1875 0.265625q0.953125 0.265625 1.59375 0.796875q0.65625 0.515625 0.984375 1.28125q0.34375 0.75 0.34375 1.71875zm-2.515625 0.171875q0 -0.515625 -0.171875 -0.921875q-0.15625 -0.421875 -0.484375 -0.703125q-0.3125 -0.296875 -0.8125 -0.453125q-0.5 -0.15625 -1.1875 -0.15625l-1.265625 0l0 4.671875l1.34375 0q0.625 0 1.09375 -0.171875q0.484375 -0.171875 0.8125 -0.484375q0.328125 -0.328125 0.5 -0.78125q0.171875 -0.453125 0.171875 -1.0z" fill-rule="nonzero"/><path fill="#f4cccc" d="m113.67605 171.33977l41.291344 0l0 41.16536l-41.291344 0z" fill-rule="evenodd"/><path stroke="#000000" stroke-width="2.0" stroke-linejoin="round" stroke-linecap="butt" d="m113.67605 171.33977l41.291344 0l0 41.16536l-41.291344 0z" fill-rule="evenodd"/><path fill="#000000" d="m133.29437 195.26308q0 1.046875 -0.390625 1.828125q-0.390625 0.765625 -1.09375 1.265625q-0.6875 0.5 -1.640625 0.75q-0.953125 0.234375 -2.09375 0.234375q-1.0 0 -1.9375 -0.125q-0.9375 -0.109375 -1.859375 -0.375l0 -2.375q0.453125 0.15625 0.9375 0.296875q0.5 0.125 0.984375 0.234375q0.5 0.109375 0.984375 0.171875q0.484375 0.046875 0.953125 0.046875q0.671875 0 1.15625 -0.109375q0.484375 -0.125 0.78125 -0.328125q0.296875 -0.203125 0.4375 -0.484375q0.140625 -0.28125 0.140625 -0.625q0 -0.46875 -0.28125 -0.78125q-0.265625 -0.328125 -0.703125 -0.5625q-0.4375 -0.25 -1.0 -0.4375q-0.5625 -0.203125 -1.140625 -0.421875q-0.578125 -0.234375 -1.140625 -0.515625q-0.5625 -0.28125 -1.0 -0.703125q-0.4375 -0.421875 -0.71875 -1.0q-0.265625 -0.578125 -0.265625 -1.40625q0 -0.75 0.265625 -1.421875q0.28125 -0.671875 0.859375 -1.171875q0.59375 -0.515625 1.515625 -0.8125q0.921875 -0.296875 2.21875 -0.296875q0.375 0 0.796875 0.046875q0.421875 0.03125 0.8125 0.09375q0.40625 0.046875 0.78125 0.125q0.390625 0.0625 0.703125 0.140625l0 2.203125q-0.3125 -0.125 -0.6875 -0.21875q-0.375 -0.09375 -0.78125 -0.171875q-0.390625 -0.078125 -0.796875 -0.109375q-0.390625 -0.046875 -0.75 -0.046875q-0.640625 0 -1.078125 0.109375q-0.4375 0.09375 -0.71875 0.28125q-0.28125 0.171875 -0.40625 0.4375q-0.125 0.265625 -0.125 0.59375q0 0.390625 0.265625 0.6875q0.265625 0.28125 0.703125 0.515625q0.453125 0.234375 1.015625 0.4375q0.5625 0.1875 1.140625 0.421875q0.59375 0.234375 1.15625 0.53125q0.5625 0.28125 1.0 0.703125q0.453125 0.421875 0.71875 1.0q0.28125 0.5625 0.28125 1.34375zm11.199219 -4.84375q0 1.0 -0.328125 1.84375q-0.328125 0.84375 -0.984375 1.46875q-0.65625 0.609375 -1.640625 0.953125q-0.96875 0.328125 -2.25 0.328125l-1.234375 0l0 4.109375l-2.421875 0l0 -12.765625l3.75 0q1.234375 0 2.1875 0.265625q0.953125 0.265625 1.59375 0.796875q0.65625 0.515625 0.984375 1.28125q0.34375 0.75 0.34375 1.71875zm-2.515625 0.171875q0 -0.515625 -0.171875 -0.921875q-0.15625 -0.421875 -0.484375 -0.703125q-0.3125 -0.296875 -0.8125 -0.453125q-0.5 -0.15625 -1.1875 -0.15625l-1.265625 0l0 4.671875l1.34375 0q0.625 0 1.09375 -0.171875q0.484375 -0.171875 0.8125 -0.484375q0.328125 -0.328125 0.5 -0.78125q0.171875 -0.453125 0.171875 -1.0z" fill-rule="nonzero"/><path fill="#f4cccc" d="m63.963894 222.44691l41.29134 0l0 41.16536l-41.29134 0z" fill-rule="evenodd"/><path stroke="#000000" stroke-width="2.0" stroke-linejoin="round" stroke-linecap="butt" d="m63.963894 222.44691l41.29134 0l0 41.16536l-41.29134 0z" fill-rule="evenodd"/><path fill="#000000" d="m83.58222 246.37021q0 1.046875 -0.390625 1.828125q-0.390625 0.765625 -1.09375 1.265625q-0.6875 0.5 -1.640625 0.75q-0.953125 0.234375 -2.09375 0.234375q-1.0 0 -1.9375 -0.125q-0.9375 -0.109375 -1.859375 -0.375l0 -2.375q0.453125 0.15625 0.9375 0.296875q0.5 0.125 0.984375 0.234375q0.5 0.109375 0.984375 0.171875q0.484375 0.046875 0.953125 0.046875q0.671875 0 1.15625 -0.109375q0.484375 -0.125 0.78125 -0.328125q0.296875 -0.203125 0.4375 -0.484375q0.140625 -0.28125 0.140625 -0.625q0 -0.46875 -0.28125 -0.78125q-0.265625 -0.328125 -0.703125 -0.5625q-0.4375 -0.25 -1.0 -0.4375q-0.5625 -0.203125 -1.140625 -0.421875q-0.578125 -0.234375 -1.140625 -0.515625q-0.5625 -0.28125 -1.0 -0.703125q-0.4375 -0.421875 -0.71875 -1.0q-0.265625 -0.578125 -0.265625 -1.40625q0 -0.75 0.265625 -1.421875q0.28125 -0.671875 0.859375 -1.171875q0.59375 -0.515625 1.515625 -0.8125q0.921875 -0.296875 2.21875 -0.296875q0.375 0 0.796875 0.046875q0.421875 0.03125 0.8125 0.09375q0.40625 0.046875 0.78125 0.125q0.390625 0.0625 0.703125 0.140625l0 2.203125q-0.3125 -0.125 -0.6875 -0.21875q-0.375 -0.09375 -0.78125 -0.171875q-0.390625 -0.078125 -0.796875 -0.109375q-0.390625 -0.046875 -0.75 -0.046875q-0.640625 0 -1.078125 0.109375q-0.4375 0.09375 -0.71875 0.28125q-0.28125 0.171875 -0.40625 0.4375q-0.125 0.265625 -0.125 0.59375q0 0.390625 0.265625 0.6875q0.265625 0.28125 0.703125 0.515625q0.453125 0.234375 1.015625 0.4375q0.5625 0.1875 1.140625 0.421875q0.59375 0.234375 1.15625 0.53125q0.5625 0.28125 1.0 0.703125q0.453125 0.421875 0.71875 1.0q0.28125 0.5625 0.28125 1.34375zm11.199219 -4.84375q0 1.0 -0.328125 1.84375q-0.328125 0.84375 -0.984375 1.46875q-0.65625 0.609375 -1.640625 0.953125q-0.96875 0.328125 -2.25 0.328125l-1.234375 0l0 4.109375l-2.421875 0l0 -12.765625l3.75 0q1.234375 0 2.1875 0.265625q0.953125 0.265625 1.59375 0.796875q0.65625 0.515625 0.984375 1.28125q0.34375 0.75 0.34375 1.71875zm-2.515625 0.171875q0 -0.515625 -0.171875 -0.921875q-0.15625 -0.421875 -0.484375 -0.703125q-0.3125 -0.296875 -0.8125 -0.453125q-0.5 -0.15625 -1.1875 -0.15625l-1.265625 0l0 4.671875l1.34375 0q0.625 0 1.09375 -0.171875q0.484375 -0.171875 0.8125 -0.484375q0.328125 -0.328125 0.5 -0.78125q0.171875 -0.453125 0.171875 -1.0z" fill-rule="nonzero"/><path fill="#f4cccc" d="m113.67605 222.44691l41.291344 0l0 41.16536l-41.291344 0z" fill-rule="evenodd"/><path stroke="#000000" stroke-width="2.0" stroke-linejoin="round" stroke-linecap="butt" d="m113.67605 222.44691l41.291344 0l0 41.16536l-41.291344 0z" fill-rule="evenodd"/><path fill="#000000" d="m133.29437 246.37021q0 1.046875 -0.390625 1.828125q-0.390625 0.765625 -1.09375 1.265625q-0.6875 0.5 -1.640625 0.75q-0.953125 0.234375 -2.09375 0.234375q-1.0 0 -1.9375 -0.125q-0.9375 -0.109375 -1.859375 -0.375l0 -2.375q0.453125 0.15625 0.9375 0.296875q0.5 0.125 0.984375 0.234375q0.5 0.109375 0.984375 0.171875q0.484375 0.046875 0.953125 0.046875q0.671875 0 1.15625 -0.109375q0.484375 -0.125 0.78125 -0.328125q0.296875 -0.203125 0.4375 -0.484375q0.140625 -0.28125 0.140625 -0.625q0 -0.46875 -0.28125 -0.78125q-0.265625 -0.328125 -0.703125 -0.5625q-0.4375 -0.25 -1.0 -0.4375q-0.5625 -0.203125 -1.140625 -0.421875q-0.578125 -0.234375 -1.140625 -0.515625q-0.5625 -0.28125 -1.0 -0.703125q-0.4375 -0.421875 -0.71875 -1.0q-0.265625 -0.578125 -0.265625 -1.40625q0 -0.75 0.265625 -1.421875q0.28125 -0.671875 0.859375 -1.171875q0.59375 -0.515625 1.515625 -0.8125q0.921875 -0.296875 2.21875 -0.296875q0.375 0 0.796875 0.046875q0.421875 0.03125 0.8125 0.09375q0.40625 0.046875 0.78125 0.125q0.390625 0.0625 0.703125 0.140625l0 2.203125q-0.3125 -0.125 -0.6875 -0.21875q-0.375 -0.09375 -0.78125 -0.171875q-0.390625 -0.078125 -0.796875 -0.109375q-0.390625 -0.046875 -0.75 -0.046875q-0.640625 0 -1.078125 0.109375q-0.4375 0.09375 -0.71875 0.28125q-0.28125 0.171875 -0.40625 0.4375q-0.125 0.265625 -0.125 0.59375q0 0.390625 0.265625 0.6875q0.265625 0.28125 0.703125 0.515625q0.453125 0.234375 1.015625 0.4375q0.5625 0.1875 1.140625 0.421875q0.59375 0.234375 1.15625 0.53125q0.5625 0.28125 1.0 0.703125q0.453125 0.421875 0.71875 1.0q0.28125 0.5625 0.28125 1.34375zm11.199219 -4.84375q0 1.0 -0.328125 1.84375q-0.328125 0.84375 -0.984375 1.46875q-0.65625 0.609375 -1.640625 0.953125q-0.96875 0.328125 -2.25 0.328125l-1.234375 0l0 4.109375l-2.421875 0l0 -12.765625l3.75 0q1.234375 0 2.1875 0.265625q0.953125 0.265625 1.59375 0.796875q0.65625 0.515625 0.984375 1.28125q0.34375 0.75 0.34375 1.71875zm-2.515625 0.171875q0 -0.515625 -0.171875 -0.921875q-0.15625 -0.421875 -0.484375 -0.703125q-0.3125 -0.296875 -0.8125 -0.453125q-0.5 -0.15625 -1.1875 -0.15625l-1.265625 0l0 4.671875l1.34375 0q0.625 0 1.09375 -0.171875q0.484375 -0.171875 0.8125 -0.484375q0.328125 -0.328125 0.5 -0.78125q0.171875 -0.453125 0.171875 -1.0z" fill-rule="nonzero"/><path fill="#f4cccc" d="m163.3902 171.33977l41.291336 0l0 41.16536l-41.291336 0z" fill-rule="evenodd"/><path stroke="#000000" stroke-width="2.0" stroke-linejoin="round" stroke-linecap="butt" d="m163.3902 171.33977l41.291336 0l0 41.16536l-41.291336 0z" fill-rule="evenodd"/><path fill="#000000" d="m183.00853 195.26308q0 1.046875 -0.390625 1.828125q-0.390625 0.765625 -1.09375 1.265625q-0.6875 0.5 -1.640625 0.75q-0.953125 0.234375 -2.09375 0.234375q-1.0 0 -1.9375 -0.125q-0.9375 -0.109375 -1.859375 -0.375l0 -2.375q0.453125 0.15625 0.9375 0.296875q0.5 0.125 0.984375 0.234375q0.5 0.109375 0.984375 0.171875q0.484375 0.046875 0.953125 0.046875q0.671875 0 1.15625 -0.109375q0.484375 -0.125 0.78125 -0.328125q0.296875 -0.203125 0.4375 -0.484375q0.140625 -0.28125 0.140625 -0.625q0 -0.46875 -0.28125 -0.78125q-0.265625 -0.328125 -0.703125 -0.5625q-0.4375 -0.25 -1.0 -0.4375q-0.5625 -0.203125 -1.140625 -0.421875q-0.578125 -0.234375 -1.140625 -0.515625q-0.5625 -0.28125 -1.0 -0.703125q-0.4375 -0.421875 -0.71875 -1.0q-0.265625 -0.578125 -0.265625 -1.40625q0 -0.75 0.265625 -1.421875q0.28125 -0.671875 0.859375 -1.171875q0.59375 -0.515625 1.515625 -0.8125q0.921875 -0.296875 2.21875 -0.296875q0.375 0 0.796875 0.046875q0.421875 0.03125 0.8125 0.09375q0.40625 0.046875 0.78125 0.125q0.390625 0.0625 0.703125 0.140625l0 2.203125q-0.3125 -0.125 -0.6875 -0.21875q-0.375 -0.09375 -0.78125 -0.171875q-0.390625 -0.078125 -0.796875 -0.109375q-0.390625 -0.046875 -0.75 -0.046875q-0.640625 0 -1.078125 0.109375q-0.4375 0.09375 -0.71875 0.28125q-0.28125 0.171875 -0.40625 0.4375q-0.125 0.265625 -0.125 0.59375q0 0.390625 0.265625 0.6875q0.265625 0.28125 0.703125 0.515625q0.453125 0.234375 1.015625 0.4375q0.5625 0.1875 1.140625 0.421875q0.59375 0.234375 1.15625 0.53125q0.5625 0.28125 1.0 0.703125q0.453125 0.421875 0.71875 1.0q0.28125 0.5625 0.28125 1.34375zm11.199219 -4.84375q0 1.0 -0.328125 1.84375q-0.328125 0.84375 -0.984375 1.46875q-0.65625 0.609375 -1.640625 0.953125q-0.96875 0.328125 -2.25 0.328125l-1.234375 0l0 4.109375l-2.421875 0l0 -12.765625l3.75 0q1.234375 0 2.1875 0.265625q0.953125 0.265625 1.59375 0.796875q0.65625 0.515625 0.984375 1.28125q0.34375 0.75 0.34375 1.71875zm-2.515625 0.171875q0 -0.515625 -0.171875 -0.921875q-0.15625 -0.421875 -0.484375 -0.703125q-0.3125 -0.296875 -0.8125 -0.453125q-0.5 -0.15625 -1.1875 -0.15625l-1.265625 0l0 4.671875l1.34375 0q0.625 0 1.09375 -0.171875q0.484375 -0.171875 0.8125 -0.484375q0.328125 -0.328125 0.5 -0.78125q0.171875 -0.453125 0.171875 -1.0z" fill-rule="nonzero"/><path fill="#f4cccc" d="m213.10036 171.33977l41.291336 0l0 41.16536l-41.291336 0z" fill-rule="evenodd"/><path stroke="#000000" stroke-width="2.0" stroke-linejoin="round" stroke-linecap="butt" d="m213.10036 171.33977l41.291336 0l0 41.16536l-41.291336 0z" fill-rule="evenodd"/><path fill="#000000" d="m232.71869 195.26308q0 1.046875 -0.390625 1.828125q-0.390625 0.765625 -1.09375 1.265625q-0.6875 0.5 -1.640625 0.75q-0.953125 0.234375 -2.09375 0.234375q-1.0 0 -1.9375 -0.125q-0.9375 -0.109375 -1.859375 -0.375l0 -2.375q0.453125 0.15625 0.9375 0.296875q0.5 0.125 0.984375 0.234375q0.5 0.109375 0.984375 0.171875q0.484375 0.046875 0.953125 0.046875q0.671875 0 1.15625 -0.109375q0.484375 -0.125 0.78125 -0.328125q0.296875 -0.203125 0.4375 -0.484375q0.140625 -0.28125 0.140625 -0.625q0 -0.46875 -0.28125 -0.78125q-0.265625 -0.328125 -0.703125 -0.5625q-0.4375 -0.25 -1.0 -0.4375q-0.5625 -0.203125 -1.140625 -0.421875q-0.578125 -0.234375 -1.140625 -0.515625q-0.5625 -0.28125 -1.0 -0.703125q-0.4375 -0.421875 -0.71875 -1.0q-0.265625 -0.578125 -0.265625 -1.40625q0 -0.75 0.265625 -1.421875q0.28125 -0.671875 0.859375 -1.171875q0.59375 -0.515625 1.515625 -0.8125q0.921875 -0.296875 2.21875 -0.296875q0.375 0 0.796875 0.046875q0.421875 0.03125 0.8125 0.09375q0.40625 0.046875 0.78125 0.125q0.390625 0.0625 0.703125 0.140625l0 2.203125q-0.3125 -0.125 -0.6875 -0.21875q-0.375 -0.09375 -0.78125 -0.171875q-0.390625 -0.078125 -0.796875 -0.109375q-0.390625 -0.046875 -0.75 -0.046875q-0.640625 0 -1.078125 0.109375q-0.4375 0.09375 -0.71875 0.28125q-0.28125 0.171875 -0.40625 0.4375q-0.125 0.265625 -0.125 0.59375q0 0.390625 0.265625 0.6875q0.265625 0.28125 0.703125 0.515625q0.453125 0.234375 1.015625 0.4375q0.5625 0.1875 1.140625 0.421875q0.59375 0.234375 1.15625 0.53125q0.5625 0.28125 1.0 0.703125q0.453125 0.421875 0.71875 1.0q0.28125 0.5625 0.28125 1.34375zm11.199219 -4.84375q0 1.0 -0.328125 1.84375q-0.328125 0.84375 -0.984375 1.46875q-0.65625 0.609375 -1.640625 0.953125q-0.96875 0.328125 -2.25 0.328125l-1.234375 0l0 4.109375l-2.421875 0l0 -12.765625l3.75 0q1.234375 0 2.1875 0.265625q0.953125 0.265625 1.59375 0.796875q0.65625 0.515625 0.984375 1.28125q0.34375 0.75 0.34375 1.71875zm-2.515625 0.171875q0 -0.515625 -0.171875 -0.921875q-0.15625 -0.421875 -0.484375 -0.703125q-0.3125 -0.296875 -0.8125 -0.453125q-0.5 -0.15625 -1.1875 -0.15625l-1.265625 0l0 4.671875l1.34375 0q0.625 0 1.09375 -0.171875q0.484375 -0.171875 0.8125 -0.484375q0.328125 -0.328125 0.5 -0.78125q0.171875 -0.453125 0.171875 -1.0z" fill-rule="nonzero"/><path fill="#f4cccc" d="m163.3882 222.44691l41.29135 0l0 41.16536l-41.29135 0z" fill-rule="evenodd"/><path stroke="#000000" stroke-width="2.0" stroke-linejoin="round" stroke-linecap="butt" d="m163.3882 222.44691l41.29135 0l0 41.16536l-41.29135 0z" fill-rule="evenodd"/><path fill="#000000" d="m183.08124 246.12709q0 0.953125 -0.359375 1.671875q-0.359375 0.71875 -1.0 1.1875q-0.640625 0.453125 -1.53125 0.6875q-0.875 0.21875 -1.921875 0.21875q-0.9375 0 -1.8125 -0.109375q-0.859375 -0.109375 -1.703125 -0.359375l0 -2.1875q0.40625 0.140625 0.859375 0.265625q0.453125 0.125 0.90625 0.21875q0.453125 0.09375 0.90625 0.15625q0.453125 0.046875 0.875 0.046875q0.640625 0 1.078125 -0.109375q0.453125 -0.109375 0.71875 -0.296875q0.28125 -0.1875 0.40625 -0.4375q0.140625 -0.265625 0.140625 -0.59375q0 -0.421875 -0.25 -0.71875q-0.25 -0.296875 -0.65625 -0.515625q-0.40625 -0.234375 -0.9375 -0.40625q-0.515625 -0.1875 -1.0625 -0.390625q-0.53125 -0.21875 -1.046875 -0.46875q-0.515625 -0.265625 -0.921875 -0.65625q-0.40625 -0.390625 -0.65625 -0.921875q-0.25 -0.546875 -0.25 -1.296875q0 -0.703125 0.25 -1.328125q0.265625 -0.625 0.796875 -1.078125q0.546875 -0.46875 1.390625 -0.734375q0.859375 -0.28125 2.0625 -0.28125q0.34375 0 0.71875 0.03125q0.390625 0.03125 0.765625 0.078125q0.375 0.046875 0.71875 0.125q0.359375 0.0625 0.640625 0.125l0 2.03125q-0.28125 -0.09375 -0.625 -0.1875q-0.34375 -0.09375 -0.71875 -0.15625q-0.359375 -0.078125 -0.734375 -0.109375q-0.359375 -0.03125 -0.703125 -0.03125q-0.578125 0 -0.984375 0.09375q-0.40625 0.09375 -0.671875 0.265625q-0.265625 0.15625 -0.390625 0.40625q-0.109375 0.234375 -0.109375 0.53125q0 0.375 0.25 0.640625q0.25 0.265625 0.65625 0.484375q0.40625 0.203125 0.921875 0.390625q0.53125 0.1875 1.078125 0.40625q0.546875 0.203125 1.0625 0.484375q0.515625 0.265625 0.921875 0.65625q0.421875 0.390625 0.671875 0.921875q0.25 0.515625 0.25 1.25zm10.358887 -4.484375q0 0.921875 -0.3125 1.703125q-0.296875 0.78125 -0.90625 1.359375q-0.59375 0.5625 -1.5 0.875q-0.90625 0.3125 -2.09375 0.3125l-1.140625 0l0 3.796875l-2.234375 0l0 -11.8125l3.453125 0q1.15625 0 2.03125 0.25q0.890625 0.25 1.484375 0.734375q0.609375 0.46875 0.90625 1.171875q0.3125 0.703125 0.3125 1.609375zm-2.328125 0.15625q0 -0.46875 -0.15625 -0.84375q-0.140625 -0.390625 -0.453125 -0.65625q-0.296875 -0.28125 -0.765625 -0.421875q-0.453125 -0.15625 -1.078125 -0.15625l-1.171875 0l0 4.328125l1.25 0q0.578125 0 1.015625 -0.15625q0.4375 -0.15625 0.734375 -0.453125q0.3125 -0.296875 0.46875 -0.703125q0.15625 -0.421875 0.15625 -0.9375z" fill-rule="nonzero"/><path fill="#f4cccc" d="m213.10036 222.44691l41.291336 0l0 41.16536l-41.291336 0z" fill-rule="evenodd"/><path stroke="#000000" stroke-width="2.0" stroke-linejoin="round" stroke-linecap="butt" d="m213.10036 222.44691l41.291336 0l0 41.16536l-41.291336 0z" fill-rule="evenodd"/><path fill="#000000" d="m232.71869 246.37021q0 1.046875 -0.390625 1.828125q-0.390625 0.765625 -1.09375 1.265625q-0.6875 0.5 -1.640625 0.75q-0.953125 0.234375 -2.09375 0.234375q-1.0 0 -1.9375 -0.125q-0.9375 -0.109375 -1.859375 -0.375l0 -2.375q0.453125 0.15625 0.9375 0.296875q0.5 0.125 0.984375 0.234375q0.5 0.109375 0.984375 0.171875q0.484375 0.046875 0.953125 0.046875q0.671875 0 1.15625 -0.109375q0.484375 -0.125 0.78125 -0.328125q0.296875 -0.203125 0.4375 -0.484375q0.140625 -0.28125 0.140625 -0.625q0 -0.46875 -0.28125 -0.78125q-0.265625 -0.328125 -0.703125 -0.5625q-0.4375 -0.25 -1.0 -0.4375q-0.5625 -0.203125 -1.140625 -0.421875q-0.578125 -0.234375 -1.140625 -0.515625q-0.5625 -0.28125 -1.0 -0.703125q-0.4375 -0.421875 -0.71875 -1.0q-0.265625 -0.578125 -0.265625 -1.40625q0 -0.75 0.265625 -1.421875q0.28125 -0.671875 0.859375 -1.171875q0.59375 -0.515625 1.515625 -0.8125q0.921875 -0.296875 2.21875 -0.296875q0.375 0 0.796875 0.046875q0.421875 0.03125 0.8125 0.09375q0.40625 0.046875 0.78125 0.125q0.390625 0.0625 0.703125 0.140625l0 2.203125q-0.3125 -0.125 -0.6875 -0.21875q-0.375 -0.09375 -0.78125 -0.171875q-0.390625 -0.078125 -0.796875 -0.109375q-0.390625 -0.046875 -0.75 -0.046875q-0.640625 0 -1.078125 0.109375q-0.4375 0.09375 -0.71875 0.28125q-0.28125 0.171875 -0.40625 0.4375q-0.125 0.265625 -0.125 0.59375q0 0.390625 0.265625 0.6875q0.265625 0.28125 0.703125 0.515625q0.453125 0.234375 1.015625 0.4375q0.5625 0.1875 1.140625 0.421875q0.59375 0.234375 1.15625 0.53125q0.5625 0.28125 1.0 0.703125q0.453125 0.421875 0.71875 1.0q0.28125 0.5625 0.28125 1.34375zm11.199219 -4.84375q0 1.0 -0.328125 1.84375q-0.328125 0.84375 -0.984375 1.46875q-0.65625 0.609375 -1.640625 0.953125q-0.96875 0.328125 -2.25 0.328125l-1.234375 0l0 4.109375l-2.421875 0l0 -12.765625l3.75 0q1.234375 0 2.1875 0.265625q0.953125 0.265625 1.59375 0.796875q0.65625 0.515625 0.984375 1.28125q0.34375 0.75 0.34375 1.71875zm-2.515625 0.171875q0 -0.515625 -0.171875 -0.921875q-0.15625 -0.421875 -0.484375 -0.703125q-0.3125 -0.296875 -0.8125 -0.453125q-0.5 -0.15625 -1.1875 -0.15625l-1.265625 0l0 4.671875l1.34375 0q0.625 0 1.09375 -0.171875q0.484375 -0.171875 0.8125 -0.484375q0.328125 -0.328125 0.5 -0.78125q0.171875 -0.453125 0.171875 -1.0z" fill-rule="nonzero"/><path fill="#f4cccc" d="m63.96589 273.55405l41.291336 0l0 41.165344l-41.291336 0z" fill-rule="evenodd"/><path stroke="#000000" stroke-width="2.0" stroke-linejoin="round" stroke-linecap="butt" d="m63.96589 273.55405l41.291336 0l0 41.165344l-41.291336 0z" fill-rule="evenodd"/><path fill="#000000" d="m83.58421 297.47736q0 1.046875 -0.390625 1.828125q-0.390625 0.765625 -1.09375 1.265625q-0.6875 0.5 -1.640625 0.75q-0.953125 0.234375 -2.09375 0.234375q-1.0 0 -1.9375 -0.125q-0.9375 -0.109375 -1.859375 -0.375l0 -2.375q0.453125 0.15625 0.9375 0.296875q0.5 0.125 0.984375 0.234375q0.5 0.109375 0.984375 0.171875q0.484375 0.046875 0.953125 0.046875q0.671875 0 1.15625 -0.109375q0.484375 -0.125 0.78125 -0.328125q0.296875 -0.203125 0.4375 -0.484375q0.140625 -0.28125 0.140625 -0.625q0 -0.46875 -0.28125 -0.78125q-0.265625 -0.328125 -0.703125 -0.5625q-0.4375 -0.25 -1.0 -0.4375q-0.5625 -0.203125 -1.140625 -0.421875q-0.578125 -0.234375 -1.140625 -0.515625q-0.5625 -0.28125 -1.0 -0.703125q-0.4375 -0.421875 -0.71875 -1.0q-0.265625 -0.578125 -0.265625 -1.40625q0 -0.75 0.265625 -1.421875q0.28125 -0.671875 0.859375 -1.171875q0.59375 -0.515625 1.515625 -0.8125q0.921875 -0.296875 2.21875 -0.296875q0.375 0 0.796875 0.046875q0.421875 0.03125 0.8125 0.09375q0.40625 0.046875 0.78125 0.125q0.390625 0.0625 0.703125 0.140625l0 2.203125q-0.3125 -0.125 -0.6875 -0.21875q-0.375 -0.09375 -0.78125 -0.171875q-0.390625 -0.078125 -0.796875 -0.109375q-0.390625 -0.046875 -0.75 -0.046875q-0.640625 0 -1.078125 0.109375q-0.4375 0.09375 -0.71875 0.28125q-0.28125 0.171875 -0.40625 0.4375q-0.125 0.265625 -0.125 0.59375q0 0.390625 0.265625 0.6875q0.265625 0.28125 0.703125 0.515625q0.453125 0.234375 1.015625 0.4375q0.5625 0.1875 1.140625 0.421875q0.59375 0.234375 1.15625 0.53125q0.5625 0.28125 1.0 0.703125q0.453125 0.421875 0.71875 1.0q0.28125 0.5625 0.28125 1.34375zm11.199219 -4.84375q0 1.0 -0.328125 1.84375q-0.328125 0.84375 -0.984375 1.46875q-0.65625 0.609375 -1.640625 0.953125q-0.96875 0.328125 -2.25 0.328125l-1.234375 0l0 4.109375l-2.421875 0l0 -12.765625l3.75 0q1.234375 0 2.1875 0.265625q0.953125 0.265625 1.59375 0.796875q0.65625 0.515625 0.984375 1.28125q0.34375 0.75 0.34375 1.71875zm-2.515625 0.171875q0 -0.515625 -0.171875 -0.921875q-0.15625 -0.421875 -0.484375 -0.703125q-0.3125 -0.296875 -0.8125 -0.453125q-0.5 -0.15625 -1.1875 -0.15625l-1.265625 0l0 4.671875l1.34375 0q0.625 0 1.09375 -0.171875q0.484375 -0.171875 0.8125 -0.484375q0.328125 -0.328125 0.5 -0.78125q0.171875 -0.453125 0.171875 -1.0z" fill-rule="nonzero"/><path fill="#f4cccc" d="m113.67605 273.55405l41.291344 0l0 41.165344l-41.291344 0z" fill-rule="evenodd"/><path stroke="#000000" stroke-width="2.0" stroke-linejoin="round" stroke-linecap="butt" d="m113.67605 273.55405l41.291344 0l0 41.165344l-41.291344 0z" fill-rule="evenodd"/><path fill="#000000" d="m133.29437 297.47736q0 1.046875 -0.390625 1.828125q-0.390625 0.765625 -1.09375 1.265625q-0.6875 0.5 -1.640625 0.75q-0.953125 0.234375 -2.09375 0.234375q-1.0 0 -1.9375 -0.125q-0.9375 -0.109375 -1.859375 -0.375l0 -2.375q0.453125 0.15625 0.9375 0.296875q0.5 0.125 0.984375 0.234375q0.5 0.109375 0.984375 0.171875q0.484375 0.046875 0.953125 0.046875q0.671875 0 1.15625 -0.109375q0.484375 -0.125 0.78125 -0.328125q0.296875 -0.203125 0.4375 -0.484375q0.140625 -0.28125 0.140625 -0.625q0 -0.46875 -0.28125 -0.78125q-0.265625 -0.328125 -0.703125 -0.5625q-0.4375 -0.25 -1.0 -0.4375q-0.5625 -0.203125 -1.140625 -0.421875q-0.578125 -0.234375 -1.140625 -0.515625q-0.5625 -0.28125 -1.0 -0.703125q-0.4375 -0.421875 -0.71875 -1.0q-0.265625 -0.578125 -0.265625 -1.40625q0 -0.75 0.265625 -1.421875q0.28125 -0.671875 0.859375 -1.171875q0.59375 -0.515625 1.515625 -0.8125q0.921875 -0.296875 2.21875 -0.296875q0.375 0 0.796875 0.046875q0.421875 0.03125 0.8125 0.09375q0.40625 0.046875 0.78125 0.125q0.390625 0.0625 0.703125 0.140625l0 2.203125q-0.3125 -0.125 -0.6875 -0.21875q-0.375 -0.09375 -0.78125 -0.171875q-0.390625 -0.078125 -0.796875 -0.109375q-0.390625 -0.046875 -0.75 -0.046875q-0.640625 0 -1.078125 0.109375q-0.4375 0.09375 -0.71875 0.28125q-0.28125 0.171875 -0.40625 0.4375q-0.125 0.265625 -0.125 0.59375q0 0.390625 0.265625 0.6875q0.265625 0.28125 0.703125 0.515625q0.453125 0.234375 1.015625 0.4375q0.5625 0.1875 1.140625 0.421875q0.59375 0.234375 1.15625 0.53125q0.5625 0.28125 1.0 0.703125q0.453125 0.421875 0.71875 1.0q0.28125 0.5625 0.28125 1.34375zm11.199219 -4.84375q0 1.0 -0.328125 1.84375q-0.328125 0.84375 -0.984375 1.46875q-0.65625 0.609375 -1.640625 0.953125q-0.96875 0.328125 -2.25 0.328125l-1.234375 0l0 4.109375l-2.421875 0l0 -12.765625l3.75 0q1.234375 0 2.1875 0.265625q0.953125 0.265625 1.59375 0.796875q0.65625 0.515625 0.984375 1.28125q0.34375 0.75 0.34375 1.71875zm-2.515625 0.171875q0 -0.515625 -0.171875 -0.921875q-0.15625 -0.421875 -0.484375 -0.703125q-0.3125 -0.296875 -0.8125 -0.453125q-0.5 -0.15625 -1.1875 -0.15625l-1.265625 0l0 4.671875l1.34375 0q0.625 0 1.09375 -0.171875q0.484375 -0.171875 0.8125 -0.484375q0.328125 -0.328125 0.5 -0.78125q0.171875 -0.453125 0.171875 -1.0z" fill-rule="nonzero"/><path fill="#f4cccc" d="m63.963894 324.6612l41.29134 0l0 41.165344l-41.29134 0z" fill-rule="evenodd"/><path stroke="#000000" stroke-width="2.0" stroke-linejoin="round" stroke-linecap="butt" d="m63.963894 324.6612l41.29134 0l0 41.165344l-41.29134 0z" fill-rule="evenodd"/><path fill="#000000" d="m83.58222 348.58447q0 1.046875 -0.390625 1.828125q-0.390625 0.765625 -1.09375 1.265625q-0.6875 0.5 -1.640625 0.75q-0.953125 0.234375 -2.09375 0.234375q-1.0 0 -1.9375 -0.125q-0.9375 -0.109375 -1.859375 -0.375l0 -2.375q0.453125 0.15625 0.9375 0.296875q0.5 0.125 0.984375 0.234375q0.5 0.109375 0.984375 0.171875q0.484375 0.046875 0.953125 0.046875q0.671875 0 1.15625 -0.109375q0.484375 -0.125 0.78125 -0.328125q0.296875 -0.203125 0.4375 -0.484375q0.140625 -0.28125 0.140625 -0.625q0 -0.46875 -0.28125 -0.78125q-0.265625 -0.328125 -0.703125 -0.5625q-0.4375 -0.25 -1.0 -0.4375q-0.5625 -0.203125 -1.140625 -0.421875q-0.578125 -0.234375 -1.140625 -0.515625q-0.5625 -0.28125 -1.0 -0.703125q-0.4375 -0.421875 -0.71875 -1.0q-0.265625 -0.578125 -0.265625 -1.40625q0 -0.75 0.265625 -1.421875q0.28125 -0.671875 0.859375 -1.171875q0.59375 -0.515625 1.515625 -0.8125q0.921875 -0.296875 2.21875 -0.296875q0.375 0 0.796875 0.046875q0.421875 0.03125 0.8125 0.09375q0.40625 0.046875 0.78125 0.125q0.390625 0.0625 0.703125 0.140625l0 2.203125q-0.3125 -0.125 -0.6875 -0.21875q-0.375 -0.09375 -0.78125 -0.171875q-0.390625 -0.078125 -0.796875 -0.109375q-0.390625 -0.046875 -0.75 -0.046875q-0.640625 0 -1.078125 0.109375q-0.4375 0.09375 -0.71875 0.28125q-0.28125 0.171875 -0.40625 0.4375q-0.125 0.265625 -0.125 0.59375q0 0.390625 0.265625 0.6875q0.265625 0.28125 0.703125 0.515625q0.453125 0.234375 1.015625 0.4375q0.5625 0.1875 1.140625 0.421875q0.59375 0.234375 1.15625 0.53125q0.5625 0.28125 1.0 0.703125q0.453125 0.421875 0.71875 1.0q0.28125 0.5625 0.28125 1.34375zm11.199219 -4.84375q0 1.0 -0.328125 1.84375q-0.328125 0.84375 -0.984375 1.46875q-0.65625 0.609375 -1.640625 0.953125q-0.96875 0.328125 -2.25 0.328125l-1.234375 0l0 4.109375l-2.421875 0l0 -12.765625l3.75 0q1.234375 0 2.1875 0.265625q0.953125 0.265625 1.59375 0.796875q0.65625 0.515625 0.984375 1.28125q0.34375 0.75 0.34375 1.71875zm-2.515625 0.171875q0 -0.515625 -0.171875 -0.921875q-0.15625 -0.421875 -0.484375 -0.703125q-0.3125 -0.296875 -0.8125 -0.453125q-0.5 -0.15625 -1.1875 -0.15625l-1.265625 0l0 4.671875l1.34375 0q0.625 0 1.09375 -0.171875q0.484375 -0.171875 0.8125 -0.484375q0.328125 -0.328125 0.5 -0.78125q0.171875 -0.453125 0.171875 -1.0z" fill-rule="nonzero"/><path fill="#f4cccc" d="m113.67605 324.6612l41.291344 0l0 41.165344l-41.291344 0z" fill-rule="evenodd"/><path stroke="#000000" stroke-width="2.0" stroke-linejoin="round" stroke-linecap="butt" d="m113.67605 324.6612l41.291344 0l0 41.165344l-41.291344 0z" fill-rule="evenodd"/><path fill="#000000" d="m133.29437 348.58447q0 1.046875 -0.390625 1.828125q-0.390625 0.765625 -1.09375 1.265625q-0.6875 0.5 -1.640625 0.75q-0.953125 0.234375 -2.09375 0.234375q-1.0 0 -1.9375 -0.125q-0.9375 -0.109375 -1.859375 -0.375l0 -2.375q0.453125 0.15625 0.9375 0.296875q0.5 0.125 0.984375 0.234375q0.5 0.109375 0.984375 0.171875q0.484375 0.046875 0.953125 0.046875q0.671875 0 1.15625 -0.109375q0.484375 -0.125 0.78125 -0.328125q0.296875 -0.203125 0.4375 -0.484375q0.140625 -0.28125 0.140625 -0.625q0 -0.46875 -0.28125 -0.78125q-0.265625 -0.328125 -0.703125 -0.5625q-0.4375 -0.25 -1.0 -0.4375q-0.5625 -0.203125 -1.140625 -0.421875q-0.578125 -0.234375 -1.140625 -0.515625q-0.5625 -0.28125 -1.0 -0.703125q-0.4375 -0.421875 -0.71875 -1.0q-0.265625 -0.578125 -0.265625 -1.40625q0 -0.75 0.265625 -1.421875q0.28125 -0.671875 0.859375 -1.171875q0.59375 -0.515625 1.515625 -0.8125q0.921875 -0.296875 2.21875 -0.296875q0.375 0 0.796875 0.046875q0.421875 0.03125 0.8125 0.09375q0.40625 0.046875 0.78125 0.125q0.390625 0.0625 0.703125 0.140625l0 2.203125q-0.3125 -0.125 -0.6875 -0.21875q-0.375 -0.09375 -0.78125 -0.171875q-0.390625 -0.078125 -0.796875 -0.109375q-0.390625 -0.046875 -0.75 -0.046875q-0.640625 0 -1.078125 0.109375q-0.4375 0.09375 -0.71875 0.28125q-0.28125 0.171875 -0.40625 0.4375q-0.125 0.265625 -0.125 0.59375q0 0.390625 0.265625 0.6875q0.265625 0.28125 0.703125 0.515625q0.453125 0.234375 1.015625 0.4375q0.5625 0.1875 1.140625 0.421875q0.59375 0.234375 1.15625 0.53125q0.5625 0.28125 1.0 0.703125q0.453125 0.421875 0.71875 1.0q0.28125 0.5625 0.28125 1.34375zm11.199219 -4.84375q0 1.0 -0.328125 1.84375q-0.328125 0.84375 -0.984375 1.46875q-0.65625 0.609375 -1.640625 0.953125q-0.96875 0.328125 -2.25 0.328125l-1.234375 0l0 4.109375l-2.421875 0l0 -12.765625l3.75 0q1.234375 0 2.1875 0.265625q0.953125 0.265625 1.59375 0.796875q0.65625 0.515625 0.984375 1.28125q0.34375 0.75 0.34375 1.71875zm-2.515625 0.171875q0 -0.515625 -0.171875 -0.921875q-0.15625 -0.421875 -0.484375 -0.703125q-0.3125 -0.296875 -0.8125 -0.453125q-0.5 -0.15625 -1.1875 -0.15625l-1.265625 0l0 4.671875l1.34375 0q0.625 0 1.09375 -0.171875q0.484375 -0.171875 0.8125 -0.484375q0.328125 -0.328125 0.5 -0.78125q0.171875 -0.453125 0.171875 -1.0z" fill-rule="nonzero"/><path fill="#f4cccc" d="m163.3902 273.55405l41.291336 0l0 41.165344l-41.291336 0z" fill-rule="evenodd"/><path stroke="#000000" stroke-width="2.0" stroke-linejoin="round" stroke-linecap="butt" d="m163.3902 273.55405l41.291336 0l0 41.165344l-41.291336 0z" fill-rule="evenodd"/><path fill="#000000" d="m183.00853 297.47736q0 1.046875 -0.390625 1.828125q-0.390625 0.765625 -1.09375 1.265625q-0.6875 0.5 -1.640625 0.75q-0.953125 0.234375 -2.09375 0.234375q-1.0 0 -1.9375 -0.125q-0.9375 -0.109375 -1.859375 -0.375l0 -2.375q0.453125 0.15625 0.9375 0.296875q0.5 0.125 0.984375 0.234375q0.5 0.109375 0.984375 0.171875q0.484375 0.046875 0.953125 0.046875q0.671875 0 1.15625 -0.109375q0.484375 -0.125 0.78125 -0.328125q0.296875 -0.203125 0.4375 -0.484375q0.140625 -0.28125 0.140625 -0.625q0 -0.46875 -0.28125 -0.78125q-0.265625 -0.328125 -0.703125 -0.5625q-0.4375 -0.25 -1.0 -0.4375q-0.5625 -0.203125 -1.140625 -0.421875q-0.578125 -0.234375 -1.140625 -0.515625q-0.5625 -0.28125 -1.0 -0.703125q-0.4375 -0.421875 -0.71875 -1.0q-0.265625 -0.578125 -0.265625 -1.40625q0 -0.75 0.265625 -1.421875q0.28125 -0.671875 0.859375 -1.171875q0.59375 -0.515625 1.515625 -0.8125q0.921875 -0.296875 2.21875 -0.296875q0.375 0 0.796875 0.046875q0.421875 0.03125 0.8125 0.09375q0.40625 0.046875 0.78125 0.125q0.390625 0.0625 0.703125 0.140625l0 2.203125q-0.3125 -0.125 -0.6875 -0.21875q-0.375 -0.09375 -0.78125 -0.171875q-0.390625 -0.078125 -0.796875 -0.109375q-0.390625 -0.046875 -0.75 -0.046875q-0.640625 0 -1.078125 0.109375q-0.4375 0.09375 -0.71875 0.28125q-0.28125 0.171875 -0.40625 0.4375q-0.125 0.265625 -0.125 0.59375q0 0.390625 0.265625 0.6875q0.265625 0.28125 0.703125 0.515625q0.453125 0.234375 1.015625 0.4375q0.5625 0.1875 1.140625 0.421875q0.59375 0.234375 1.15625 0.53125q0.5625 0.28125 1.0 0.703125q0.453125 0.421875 0.71875 1.0q0.28125 0.5625 0.28125 1.34375zm11.199219 -4.84375q0 1.0 -0.328125 1.84375q-0.328125 0.84375 -0.984375 1.46875q-0.65625 0.609375 -1.640625 0.953125q-0.96875 0.328125 -2.25 0.328125l-1.234375 0l0 4.109375l-2.421875 0l0 -12.765625l3.75 0q1.234375 0 2.1875 0.265625q0.953125 0.265625 1.59375 0.796875q0.65625 0.515625 0.984375 1.28125q0.34375 0.75 0.34375 1.71875zm-2.515625 0.171875q0 -0.515625 -0.171875 -0.921875q-0.15625 -0.421875 -0.484375 -0.703125q-0.3125 -0.296875 -0.8125 -0.453125q-0.5 -0.15625 -1.1875 -0.15625l-1.265625 0l0 4.671875l1.34375 0q0.625 0 1.09375 -0.171875q0.484375 -0.171875 0.8125 -0.484375q0.328125 -0.328125 0.5 -0.78125q0.171875 -0.453125 0.171875 -1.0z" fill-rule="nonzero"/><path fill="#f4cccc" d="m213.10036 273.55405l41.291336 0l0 41.165344l-41.291336 0z" fill-rule="evenodd"/><path stroke="#000000" stroke-width="2.0" stroke-linejoin="round" stroke-linecap="butt" d="m213.10036 273.55405l41.291336 0l0 41.165344l-41.291336 0z" fill-rule="evenodd"/><path fill="#000000" d="m232.71869 297.47736q0 1.046875 -0.390625 1.828125q-0.390625 0.765625 -1.09375 1.265625q-0.6875 0.5 -1.640625 0.75q-0.953125 0.234375 -2.09375 0.234375q-1.0 0 -1.9375 -0.125q-0.9375 -0.109375 -1.859375 -0.375l0 -2.375q0.453125 0.15625 0.9375 0.296875q0.5 0.125 0.984375 0.234375q0.5 0.109375 0.984375 0.171875q0.484375 0.046875 0.953125 0.046875q0.671875 0 1.15625 -0.109375q0.484375 -0.125 0.78125 -0.328125q0.296875 -0.203125 0.4375 -0.484375q0.140625 -0.28125 0.140625 -0.625q0 -0.46875 -0.28125 -0.78125q-0.265625 -0.328125 -0.703125 -0.5625q-0.4375 -0.25 -1.0 -0.4375q-0.5625 -0.203125 -1.140625 -0.421875q-0.578125 -0.234375 -1.140625 -0.515625q-0.5625 -0.28125 -1.0 -0.703125q-0.4375 -0.421875 -0.71875 -1.0q-0.265625 -0.578125 -0.265625 -1.40625q0 -0.75 0.265625 -1.421875q0.28125 -0.671875 0.859375 -1.171875q0.59375 -0.515625 1.515625 -0.8125q0.921875 -0.296875 2.21875 -0.296875q0.375 0 0.796875 0.046875q0.421875 0.03125 0.8125 0.09375q0.40625 0.046875 0.78125 0.125q0.390625 0.0625 0.703125 0.140625l0 2.203125q-0.3125 -0.125 -0.6875 -0.21875q-0.375 -0.09375 -0.78125 -0.171875q-0.390625 -0.078125 -0.796875 -0.109375q-0.390625 -0.046875 -0.75 -0.046875q-0.640625 0 -1.078125 0.109375q-0.4375 0.09375 -0.71875 0.28125q-0.28125 0.171875 -0.40625 0.4375q-0.125 0.265625 -0.125 0.59375q0 0.390625 0.265625 0.6875q0.265625 0.28125 0.703125 0.515625q0.453125 0.234375 1.015625 0.4375q0.5625 0.1875 1.140625 0.421875q0.59375 0.234375 1.15625 0.53125q0.5625 0.28125 1.0 0.703125q0.453125 0.421875 0.71875 1.0q0.28125 0.5625 0.28125 1.34375zm11.199219 -4.84375q0 1.0 -0.328125 1.84375q-0.328125 0.84375 -0.984375 1.46875q-0.65625 0.609375 -1.640625 0.953125q-0.96875 0.328125 -2.25 0.328125l-1.234375 0l0 4.109375l-2.421875 0l0 -12.765625l3.75 0q1.234375 0 2.1875 0.265625q0.953125 0.265625 1.59375 0.796875q0.65625 0.515625 0.984375 1.28125q0.34375 0.75 0.34375 1.71875zm-2.515625 0.171875q0 -0.515625 -0.171875 -0.921875q-0.15625 -0.421875 -0.484375 -0.703125q-0.3125 -0.296875 -0.8125 -0.453125q-0.5 -0.15625 -1.1875 -0.15625l-1.265625 0l0 4.671875l1.34375 0q0.625 0 1.09375 -0.171875q0.484375 -0.171875 0.8125 -0.484375q0.328125 -0.328125 0.5 -0.78125q0.171875 -0.453125 0.171875 -1.0z" fill-rule="nonzero"/><path fill="#f4cccc" d="m163.3882 324.6612l41.29135 0l0 41.165344l-41.29135 0z" fill-rule="evenodd"/><path stroke="#000000" stroke-width="2.0" stroke-linejoin="round" stroke-linecap="butt" d="m163.3882 324.6612l41.29135 0l0 41.165344l-41.29135 0z" fill-rule="evenodd"/><path fill="#000000" d="m183.00653 348.58447q0 1.046875 -0.390625 1.828125q-0.390625 0.765625 -1.09375 1.265625q-0.6875 0.5 -1.640625 0.75q-0.953125 0.234375 -2.09375 0.234375q-1.0 0 -1.9375 -0.125q-0.9375 -0.109375 -1.859375 -0.375l0 -2.375q0.453125 0.15625 0.9375 0.296875q0.5 0.125 0.984375 0.234375q0.5 0.109375 0.984375 0.171875q0.484375 0.046875 0.953125 0.046875q0.671875 0 1.15625 -0.109375q0.484375 -0.125 0.78125 -0.328125q0.296875 -0.203125 0.4375 -0.484375q0.140625 -0.28125 0.140625 -0.625q0 -0.46875 -0.28125 -0.78125q-0.265625 -0.328125 -0.703125 -0.5625q-0.4375 -0.25 -1.0 -0.4375q-0.5625 -0.203125 -1.140625 -0.421875q-0.578125 -0.234375 -1.140625 -0.515625q-0.5625 -0.28125 -1.0 -0.703125q-0.4375 -0.421875 -0.71875 -1.0q-0.265625 -0.578125 -0.265625 -1.40625q0 -0.75 0.265625 -1.421875q0.28125 -0.671875 0.859375 -1.171875q0.59375 -0.515625 1.515625 -0.8125q0.921875 -0.296875 2.21875 -0.296875q0.375 0 0.796875 0.046875q0.421875 0.03125 0.8125 0.09375q0.40625 0.046875 0.78125 0.125q0.390625 0.0625 0.703125 0.140625l0 2.203125q-0.3125 -0.125 -0.6875 -0.21875q-0.375 -0.09375 -0.78125 -0.171875q-0.390625 -0.078125 -0.796875 -0.109375q-0.390625 -0.046875 -0.75 -0.046875q-0.640625 0 -1.078125 0.109375q-0.4375 0.09375 -0.71875 0.28125q-0.28125 0.171875 -0.40625 0.4375q-0.125 0.265625 -0.125 0.59375q0 0.390625 0.265625 0.6875q0.265625 0.28125 0.703125 0.515625q0.453125 0.234375 1.015625 0.4375q0.5625 0.1875 1.140625 0.421875q0.59375 0.234375 1.15625 0.53125q0.5625 0.28125 1.0 0.703125q0.453125 0.421875 0.71875 1.0q0.28125 0.5625 0.28125 1.34375zm11.199219 -4.84375q0 1.0 -0.328125 1.84375q-0.328125 0.84375 -0.984375 1.46875q-0.65625 0.609375 -1.640625 0.953125q-0.96875 0.328125 -2.25 0.328125l-1.234375 0l0 4.109375l-2.421875 0l0 -12.765625l3.75 0q1.234375 0 2.1875 0.265625q0.953125 0.265625 1.59375 0.796875q0.65625 0.515625 0.984375 1.28125q0.34375 0.75 0.34375 1.71875zm-2.515625 0.171875q0 -0.515625 -0.171875 -0.921875q-0.15625 -0.421875 -0.484375 -0.703125q-0.3125 -0.296875 -0.8125 -0.453125q-0.5 -0.15625 -1.1875 -0.15625l-1.265625 0l0 4.671875l1.34375 0q0.625 0 1.09375 -0.171875q0.484375 -0.171875 0.8125 -0.484375q0.328125 -0.328125 0.5 -0.78125q0.171875 -0.453125 0.171875 -1.0z" fill-rule="nonzero"/><path fill="#f4cccc" d="m213.10036 324.6612l41.291336 0l0 41.165344l-41.291336 0z" fill-rule="evenodd"/><path stroke="#000000" stroke-width="2.0" stroke-linejoin="round" stroke-linecap="butt" d="m213.10036 324.6612l41.291336 0l0 41.165344l-41.291336 0z" fill-rule="evenodd"/><path fill="#000000" d="m232.71869 348.58447q0 1.046875 -0.390625 1.828125q-0.390625 0.765625 -1.09375 1.265625q-0.6875 0.5 -1.640625 0.75q-0.953125 0.234375 -2.09375 0.234375q-1.0 0 -1.9375 -0.125q-0.9375 -0.109375 -1.859375 -0.375l0 -2.375q0.453125 0.15625 0.9375 0.296875q0.5 0.125 0.984375 0.234375q0.5 0.109375 0.984375 0.171875q0.484375 0.046875 0.953125 0.046875q0.671875 0 1.15625 -0.109375q0.484375 -0.125 0.78125 -0.328125q0.296875 -0.203125 0.4375 -0.484375q0.140625 -0.28125 0.140625 -0.625q0 -0.46875 -0.28125 -0.78125q-0.265625 -0.328125 -0.703125 -0.5625q-0.4375 -0.25 -1.0 -0.4375q-0.5625 -0.203125 -1.140625 -0.421875q-0.578125 -0.234375 -1.140625 -0.515625q-0.5625 -0.28125 -1.0 -0.703125q-0.4375 -0.421875 -0.71875 -1.0q-0.265625 -0.578125 -0.265625 -1.40625q0 -0.75 0.265625 -1.421875q0.28125 -0.671875 0.859375 -1.171875q0.59375 -0.515625 1.515625 -0.8125q0.921875 -0.296875 2.21875 -0.296875q0.375 0 0.796875 0.046875q0.421875 0.03125 0.8125 0.09375q0.40625 0.046875 0.78125 0.125q0.390625 0.0625 0.703125 0.140625l0 2.203125q-0.3125 -0.125 -0.6875 -0.21875q-0.375 -0.09375 -0.78125 -0.171875q-0.390625 -0.078125 -0.796875 -0.109375q-0.390625 -0.046875 -0.75 -0.046875q-0.640625 0 -1.078125 0.109375q-0.4375 0.09375 -0.71875 0.28125q-0.28125 0.171875 -0.40625 0.4375q-0.125 0.265625 -0.125 0.59375q0 0.390625 0.265625 0.6875q0.265625 0.28125 0.703125 0.515625q0.453125 0.234375 1.015625 0.4375q0.5625 0.1875 1.140625 0.421875q0.59375 0.234375 1.15625 0.53125q0.5625 0.28125 1.0 0.703125q0.453125 0.421875 0.71875 1.0q0.28125 0.5625 0.28125 1.34375zm11.199219 -4.84375q0 1.0 -0.328125 1.84375q-0.328125 0.84375 -0.984375 1.46875q-0.65625 0.609375 -1.640625 0.953125q-0.96875 0.328125 -2.25 0.328125l-1.234375 0l0 4.109375l-2.421875 0l0 -12.765625l3.75 0q1.234375 0 2.1875 0.265625q0.953125 0.265625 1.59375 0.796875q0.65625 0.515625 0.984375 1.28125q0.34375 0.75 0.34375 1.71875zm-2.515625 0.171875q0 -0.515625 -0.171875 -0.921875q-0.15625 -0.421875 -0.484375 -0.703125q-0.3125 -0.296875 -0.8125 -0.453125q-0.5 -0.15625 -1.1875 -0.15625l-1.265625 0l0 4.671875l1.34375 0q0.625 0 1.09375 -0.171875q0.484375 -0.171875 0.8125 -0.484375q0.328125 -0.328125 0.5 -0.78125q0.171875 -0.453125 0.171875 -1.0z" fill-rule="nonzero"/><path fill="#fff2cc" d="m63.959908 375.7683l190.4567 0l0 73.63779l-190.4567 0z" fill-rule="evenodd"/><path stroke="#000000" stroke-width="2.0" stroke-linejoin="round" stroke-linecap="butt" stroke-dasharray="8.0,6.0" d="m63.959908 375.7683l190.4567 0l0 73.63779l-190.4567 0z" fill-rule="evenodd"/><path fill="#000000" d="m110.11257 408.14722l0 -11.8125l2.25 0l0 9.90625l5.0 0l0 1.90625l-7.25 0zm9.765137 0l0 -1.953125l3.0 0l0 -7.59375l-2.609375 1.4375l-0.734375 -1.796875l3.75 -1.96875l1.859375 0l0 9.921875l2.59375 0l0 1.953125l-7.859375 0zm28.030281 -0.453125q-0.78125 0.3125 -1.515625 0.453125q-0.734375 0.15625 -1.53125 0.15625q-1.265625 0 -2.25 -0.375q-0.984375 -0.375 -1.65625 -1.109375q-0.671875 -0.734375 -1.03125 -1.828125q-0.34375 -1.109375 -0.34375 -2.5625q0 -1.484375 0.375 -2.640625q0.390625 -1.171875 1.09375 -1.96875q0.703125 -0.796875 1.703125 -1.21875q1.015625 -0.421875 2.265625 -0.421875q0.40625 0 0.765625 0.015625q0.359375 0.015625 0.703125 0.078125q0.34375 0.046875 0.6875 0.125q0.359375 0.078125 0.734375 0.203125l0 2.203125q-0.765625 -0.359375 -1.46875 -0.515625q-0.6875 -0.15625 -1.25 -0.15625q-0.84375 0 -1.4375 0.3125q-0.59375 0.296875 -0.984375 0.84375q-0.375 0.546875 -0.5625 1.3125q-0.171875 0.75 -0.171875 1.640625q0 0.96875 0.171875 1.71875q0.1875 0.75 0.578125 1.28125q0.390625 0.515625 0.984375 0.796875q0.609375 0.28125 1.453125 0.28125q0.296875 0 0.640625 -0.0625q0.34375 -0.0625 0.703125 -0.15625q0.359375 -0.09375 0.703125 -0.21875q0.34375 -0.140625 0.640625 -0.265625l0 2.078125zm8.780762 0.453125l-0.640625 -2.328125l-4.125 0l-0.671875 2.328125l-2.203125 0l3.5 -11.8125l3.109375 0l3.5 11.8125l-2.46875 0zm-2.671875 -9.640625l-1.5625 5.5l3.09375 0l-1.53125 -5.5zm14.233887 9.1875q-0.78125 0.3125 -1.515625 0.453125q-0.734375 0.15625 -1.53125 0.15625q-1.265625 0 -2.25 -0.375q-0.984375 -0.375 -1.65625 -1.109375q-0.671875 -0.734375 -1.03125 -1.828125q-0.34375 -1.109375 -0.34375 -2.5625q0 -1.484375 0.375 -2.640625q0.390625 -1.171875 1.09375 -1.96875q0.703125 -0.796875 1.703125 -1.21875q1.015625 -0.421875 2.265625 -0.421875q0.40625 0 0.765625 0.015625q0.359375 0.015625 0.703125 0.078125q0.34375 0.046875 0.6875 0.125q0.359375 0.078125 0.734375 0.203125l0 2.203125q-0.765625 -0.359375 -1.46875 -0.515625q-0.6875 -0.15625 -1.25 -0.15625q-0.84375 0 -1.4375 0.3125q-0.59375 0.296875 -0.984375 0.84375q-0.375 0.546875 -0.5625 1.3125q-0.171875 0.75 -0.171875 1.640625q0 0.96875 0.171875 1.71875q0.1875 0.75 0.578125 1.28125q0.390625 0.515625 0.984375 0.796875q0.609375 0.28125 1.453125 0.28125q0.296875 0 0.640625 -0.0625q0.34375 -0.0625 0.703125 -0.15625q0.359375 -0.09375 0.703125 -0.21875q0.34375 -0.140625 0.640625 -0.265625l0 2.078125zm8.202637 0.453125l0 -5.140625l-4.015625 0l0 5.140625l-2.21875 0l0 -11.8125l2.21875 0l0 4.75l4.015625 0l0 -4.75l2.21875 0l0 11.8125l-2.21875 0zm4.7338867 0l0 -11.8125l7.109375 0l0 1.890625l-4.84375 0l0 2.9375l4.625 0l0 1.828125l-4.625 0l0 3.28125l4.84375 0l0 1.875l-7.109375 0zm21.483398 1.9375l-2.140625 0l6.296875 -14.703125l2.15625 0l-6.3125 14.703125z" fill-rule="nonzero"/><path fill="#000000" d="m102.29299 426.7847q0 0.953125 -0.359375 1.671875q-0.359375 0.71875 -1.0 1.1875q-0.640625 0.453125 -1.53125 0.6875q-0.875 0.21875 -1.921875 0.21875q-0.9375 0 -1.8125 -0.109375q-0.859375 -0.109375 -1.703125 -0.359375l0 -2.1875q0.40625 0.140625 0.859375 0.265625q0.453125 0.125 0.90625 0.21875q0.453125 0.09375 0.90625 0.15625q0.453125 0.046875 0.875 0.046875q0.640625 0 1.078125 -0.109375q0.453125 -0.109375 0.71875 -0.296875q0.28125 -0.1875 0.40625 -0.4375q0.140625 -0.265625 0.140625 -0.59375q0 -0.421875 -0.25 -0.71875q-0.25 -0.296875 -0.65625 -0.515625q-0.40625 -0.234375 -0.9375 -0.40625q-0.515625 -0.1875 -1.0625 -0.390625q-0.53125 -0.21875 -1.046875 -0.46875q-0.515625 -0.265625 -0.921875 -0.65625q-0.40625 -0.390625 -0.65625 -0.921875q-0.25 -0.546875 -0.25 -1.296875q0 -0.703125 0.25 -1.328125q0.265625 -0.625 0.796875 -1.078125q0.546875 -0.46875 1.390625 -0.734375q0.859375 -0.28125 2.0625 -0.28125q0.34375 0 0.71875 0.03125q0.390625 0.03125 0.765625 0.078125q0.375 0.046875 0.71875 0.125q0.359375 0.0625 0.640625 0.125l0 2.03125q-0.28125 -0.09375 -0.625 -0.1875q-0.34375 -0.09375 -0.71875 -0.15625q-0.359375 -0.078125 -0.734375 -0.109375q-0.359375 -0.03125 -0.703125 -0.03125q-0.578125 0 -0.984375 0.09375q-0.40625 0.09375 -0.671875 0.265625q-0.265625 0.15625 -0.390625 0.40625q-0.109375 0.234375 -0.109375 0.53125q0 0.375 0.25 0.640625q0.25 0.265625 0.65625 0.484375q0.40625 0.203125 0.921875 0.390625q0.53125 0.1875 1.078125 0.40625q0.546875 0.203125 1.0625 0.484375q0.515625 0.265625 0.921875 0.65625q0.421875 0.390625 0.671875 0.921875q0.25 0.515625 0.25 1.25zm8.046387 3.5625l0 -5.140625l-4.015625 0l0 5.140625l-2.21875 0l0 -11.8125l2.21875 0l0 4.75l4.015625 0l0 -4.75l2.21875 0l0 11.8125l-2.21875 0zm10.749512 0l-0.640625 -2.328125l-4.125 0l-0.671875 2.328125l-2.203125 0l3.5 -11.8125l3.109375 0l3.5 11.8125l-2.46875 0zm-2.671875 -9.640625l-1.5625 5.5l3.09375 0l-1.53125 -5.5zm12.296394 9.640625l-1.671875 -3.796875q-0.234375 -0.546875 -0.65625 -0.8125q-0.42188263 -0.28125 -0.9843826 -0.28125l-0.421875 0l0 4.890625l-2.21875 0l0 -11.8125l3.4375076 0q0.96875 0 1.765625 0.171875q0.796875 0.171875 1.359375 0.5625q0.5625 0.375 0.859375 1.0q0.296875 0.625 0.296875 1.53125q0 0.65625 -0.1875 1.15625q-0.1875 0.5 -0.53125 0.875q-0.34375 0.359375 -0.8125 0.59375q-0.46875 0.21875 -1.03125 0.3125q0.421875 0.09375 0.78125 0.5q0.375 0.390625 0.734375 1.15625l1.890625 3.953125l-2.609375 0zm-0.5625 -8.328125q0 -0.875 -0.546875 -1.25q-0.546875 -0.375 -1.6562576 -0.375l-0.96875 0l0 3.328125l0.90625 0q0.5156326 0 0.9218826 -0.109375q0.421875 -0.109375 0.71875 -0.3125q0.296875 -0.21875 0.453125 -0.53125q0.171875 -0.328125 0.171875 -0.75zm5.2651367 8.328125l0 -11.8125l7.109375 0l0 1.890625l-4.84375 0l0 2.9375l4.625 0l0 1.828125l-4.625 0l0 3.28125l4.84375 0l0 1.875l-7.109375 0zm18.202637 -6.046875q0 1.375 -0.34375 2.5q-0.328125 1.109375 -1.046875 1.90625q-0.71875 0.78125 -1.84375 1.21875q-1.109375 0.421875 -2.671875 0.421875l-3.0 0l0 -11.8125l3.484375 0q1.359375 0 2.375 0.34375q1.015625 0.34375 1.6875 1.046875q0.6875 0.703125 1.015625 1.796875q0.34375 1.078125 0.34375 2.578125zm-2.375 0.140625q0 -0.953125 -0.15625 -1.703125q-0.15625 -0.75 -0.53125 -1.265625q-0.359375 -0.53125 -0.96875 -0.796875q-0.609375 -0.28125 -1.53125 -0.28125l-1.125 0l0 8.09375l0.96875 0q1.640625 0 2.484375 -0.96875q0.859375 -0.984375 0.859375 -3.078125zm20.842773 5.90625l-0.21875 -6.671875l-0.09375 -2.671875l-0.5625 1.8125l-1.3125 4.015625l-1.390625 0l-1.1875 -4.015625l-0.484375 -1.8125l-0.0625 2.609375l-0.203125 6.734375l-1.890625 0l0.578125 -11.8125l2.515625 0l1.03125 3.359375l0.5 1.890625l0.5 -1.78125l1.09375 -3.46875l2.546875 0l0.59375 11.8125l-1.953125 0zm4.0151367 0l0 -11.8125l7.109375 0l0 1.890625l-4.84375 0l0 2.9375l4.625 0l0 1.828125l-4.625 0l0 3.28125l4.84375 0l0 1.875l-7.109375 0zm16.327637 0l-0.21875 -6.671875l-0.09375 -2.671875l-0.5625 1.8125l-1.3125 4.015625l-1.390625 0l-1.1875 -4.015625l-0.484375 -1.8125l-0.0625 2.609375l-0.203125 6.734375l-1.890625 0l0.578125 -11.8125l2.515625 0l1.03125 3.359375l0.5 1.890625l0.5 -1.78125l1.09375 -3.46875l2.546875 0l0.59375 11.8125l-1.953125 0zm12.202637 -5.953125q0 1.609375 -0.375 2.78125q-0.375 1.15625 -1.03125 1.90625q-0.65625 0.75 -1.546875 1.109375q-0.875 0.359375 -1.875 0.359375q-2.328125 0 -3.515625 -1.546875q-1.171875 -1.546875 -1.171875 -4.5q0 -1.609375 0.375 -2.765625q0.375 -1.171875 1.03125 -1.921875q0.65625 -0.75 1.53125 -1.109375q0.890625 -0.359375 1.890625 -0.359375q2.328125 0 3.5 1.546875q1.1875 1.53125 1.1875 4.5zm-2.359375 0.109375q0 -2.09375 -0.5625 -3.125q-0.546875 -1.03125 -1.84375 -1.03125q-0.640625 0 -1.09375 0.265625q-0.4375 0.265625 -0.734375 0.78125q-0.296875 0.515625 -0.4375 1.28125q-0.125 0.75 -0.125 1.71875q0 2.09375 0.5625 3.125q0.5625 1.03125 1.828125 1.03125q0.65625 0 1.109375 -0.265625q0.453125 -0.265625 0.734375 -0.78125q0.296875 -0.515625 0.421875 -1.265625q0.140625 -0.765625 0.140625 -1.734375zm9.812012 5.84375l-1.671875 -3.796875q-0.234375 -0.546875 -0.65625 -0.8125q-0.421875 -0.28125 -0.984375 -0.28125l-0.421875 0l0 4.890625l-2.21875 0l0 -11.8125l3.4375 0q0.96875 0 1.765625 0.171875q0.796875 0.171875 1.359375 0.5625q0.5625 0.375 0.859375 1.0q0.296875 0.625 0.296875 1.53125q0 0.65625 -0.1875 1.15625q-0.1875 0.5 -0.53125 0.875q-0.34375 0.359375 -0.8125 0.59375q-0.46875 0.21875 -1.03125 0.3125q0.421875 0.09375 0.78125 0.5q0.375 0.390625 0.734375 1.15625l1.890625 3.953125l-2.609375 0zm-0.5625 -8.328125q0 -0.875 -0.546875 -1.25q-0.546875 -0.375 -1.65625 -0.375l-0.96875 0l0 3.328125l0.90625 0q0.515625 0 0.921875 -0.109375q0.421875 -0.109375 0.71875 -0.3125q0.296875 -0.21875 0.453125 -0.53125q0.171875 -0.328125 0.171875 -0.75zm9.796387 4.140625l0 4.1875l-2.265625 0l0 -4.171875l-3.828125 -7.640625l2.46875 0l1.734375 3.65625l0.78125 1.78125l0.796875 -1.84375l1.828125 -3.59375l2.359375 0l-3.875 7.625z" fill-rule="nonzero"/><path fill="#f4cccc" d="m63.959908 124.59033l190.4567 0l0 36.818893l-190.4567 0z" fill-rule="evenodd"/><path stroke="#000000" stroke-width="2.0" stroke-linejoin="round" stroke-linecap="butt" stroke-dasharray="8.0,6.0" d="m63.959908 124.59033l190.4567 0l0 36.818893l-190.4567 0z" fill-rule="evenodd"/><path fill="#000000" d="m117.40896 150.19978l-1.796875 -4.109375q-0.265625 -0.578125 -0.71875 -0.875q-0.453125 -0.296875 -1.0625 -0.296875l-0.46875 0l0 5.28125l-2.390625 0l0 -12.765625l3.71875 0q1.046875 0 1.90625 0.1875q0.859375 0.171875 1.46875 0.59375q0.609375 0.421875 0.9375 1.09375q0.328125 0.671875 0.328125 1.65625q0 0.703125 -0.21875 1.25q-0.203125 0.546875 -0.578125 0.9375q-0.359375 0.390625 -0.875 0.640625q-0.515625 0.25 -1.109375 0.34375q0.46875 0.09375 0.859375 0.53125q0.390625 0.4375 0.78125 1.25l2.03125 4.28125l-2.8125 0zm-0.609375 -9.0q0 -0.9375 -0.59375 -1.34375q-0.59375 -0.421875 -1.78125 -0.421875l-1.0625 0l0 3.609375l0.984375 0q0.5625 0 1.015625 -0.109375q0.453125 -0.125 0.765625 -0.359375q0.328125 -0.234375 0.5 -0.578125q0.171875 -0.359375 0.171875 -0.796875zm5.6992188 9.0l0 -12.765625l7.6875076 0l0 2.03125l-5.2500076 0l0 3.171875l5.0000076 0l0 1.984375l-5.0000076 0l0 3.546875l5.2500076 0l0 2.03125l-7.6875076 0zm14.761726 -5.40625l0 -1.984375l4.53125 0l0 6.8125q-0.875 0.40625 -1.828125 0.59375q-0.953125 0.203125 -2.078125 0.203125q-1.328125 0 -2.390625 -0.40625q-1.0625 -0.40625 -1.8125 -1.21875q-0.734375 -0.8125 -1.140625 -2.015625q-0.390625 -1.203125 -0.390625 -2.78125q0 -1.59375 0.421875 -2.84375q0.421875 -1.265625 1.203125 -2.140625q0.796875 -0.875 1.953125 -1.328125q1.171875 -0.46875 2.65625 -0.46875q0.875 0 1.703125 0.15625q0.84375 0.15625 1.671875 0.40625l0 2.375q-0.71875 -0.34375 -1.59375 -0.5625q-0.875 -0.21875 -1.765625 -0.21875q-0.90625 0 -1.59375 0.3125q-0.6875 0.3125 -1.15625 0.890625q-0.453125 0.578125 -0.703125 1.421875q-0.234375 0.828125 -0.234375 1.890625q0 1.015625 0.1875 1.828125q0.1875 0.8125 0.59375 1.390625q0.421875 0.5625 1.078125 0.875q0.65625 0.296875 1.59375 0.296875q0.21875 0 0.375 -0.015625q0.171875 -0.015625 0.3125 -0.046875q0.15625 -0.03125 0.28125 -0.0625q0.140625 -0.046875 0.28125 -0.09375l0 -3.265625l-2.15625 0zm6.9023438 -5.390625l0 -1.96875l8.0625 0l0 1.96875l-2.8125 0l0 8.8125l2.8125 0l0 1.984375l-8.0625 0l0 -1.984375l2.8125 0l0 -8.8125l-2.8125 0zm19.496094 6.9375q0 1.046875 -0.390625 1.828125q-0.390625 0.765625 -1.09375 1.265625q-0.6875 0.5 -1.640625 0.75q-0.953125 0.234375 -2.09375 0.234375q-1.0 0 -1.9375 -0.125q-0.9375 -0.109375 -1.859375 -0.375l0 -2.375q0.453125 0.15625 0.9375 0.296875q0.5 0.125 0.984375 0.234375q0.5 0.109375 0.984375 0.171875q0.484375 0.046875 0.953125 0.046875q0.671875 0 1.15625 -0.109375q0.484375 -0.125 0.78125 -0.328125q0.296875 -0.203125 0.4375 -0.484375q0.140625 -0.28125 0.140625 -0.625q0 -0.46875 -0.28125 -0.78125q-0.265625 -0.328125 -0.703125 -0.5625q-0.4375 -0.25 -1.0 -0.4375q-0.5625 -0.203125 -1.140625 -0.421875q-0.578125 -0.234375 -1.140625 -0.515625q-0.5625 -0.28125 -1.0 -0.703125q-0.4375 -0.421875 -0.71875 -1.0q-0.265625 -0.578125 -0.265625 -1.40625q0 -0.75 0.265625 -1.421875q0.28125 -0.671875 0.859375 -1.171875q0.59375 -0.515625 1.515625 -0.8125q0.921875 -0.296875 2.21875 -0.296875q0.375 0 0.796875 0.046875q0.421875 0.03125 0.8125 0.09375q0.40625 0.046875 0.78125 0.125q0.390625 0.0625 0.703125 0.140625l0 2.203125q-0.3125 -0.125 -0.6875 -0.21875q-0.375 -0.09375 -0.78125 -0.171875q-0.390625 -0.078125 -0.796875 -0.109375q-0.390625 -0.046875 -0.75 -0.046875q-0.640625 0 -1.078125 0.109375q-0.4375 0.09375 -0.71875 0.28125q-0.28125 0.171875 -0.40625 0.4375q-0.125 0.265625 -0.125 0.59375q0 0.390625 0.265625 0.6875q0.265625 0.28125 0.703125 0.515625q0.453125 0.234375 1.015625 0.4375q0.5625 0.1875 1.140625 0.421875q0.59375 0.234375 1.15625 0.53125q0.5625 0.28125 1.0 0.703125q0.453125 0.421875 0.71875 1.0q0.28125 0.5625 0.28125 1.34375zm7.7617188 -6.90625l0 10.765625l-2.46875 0l0 -10.765625l-3.5 0l0 -2.0l9.453125 0l0 2.0l-3.484375 0zm6.0585938 10.765625l0 -12.765625l7.6875 0l0 2.03125l-5.25 0l0 3.171875l5.0 0l0 1.984375l-5.0 0l0 3.546875l5.25 0l0 2.03125l-7.6875 0zm16.902344 0l-1.796875 -4.109375q-0.265625 -0.578125 -0.71875 -0.875q-0.453125 -0.296875 -1.0625 -0.296875l-0.46875 0l0 5.28125l-2.390625 0l0 -12.765625l3.71875 0q1.046875 0 1.90625 0.1875q0.859375 0.171875 1.46875 0.59375q0.609375 0.421875 0.9375 1.09375q0.328125 0.671875 0.328125 1.65625q0 0.703125 -0.21875 1.25q-0.203125 0.546875 -0.578125 0.9375q-0.359375 0.390625 -0.875 0.640625q-0.515625 0.25 -1.109375 0.34375q0.46875 0.09375 0.859375 0.53125q0.390625 0.4375 0.78125 1.25l2.03125 4.28125l-2.8125 0zm-0.609375 -9.0q0 -0.9375 -0.59375 -1.34375q-0.59375 -0.421875 -1.78125 -0.421875l-1.0625 0l0 3.609375l0.984375 0q0.5625 0 1.015625 -0.109375q0.453125 -0.125 0.765625 -0.359375q0.328125 -0.234375 0.5 -0.578125q0.171875 -0.359375 0.171875 -0.796875zm13.871094 5.140625q0 1.046875 -0.390625 1.828125q-0.390625 0.765625 -1.09375 1.265625q-0.6875 0.5 -1.640625 0.75q-0.953125 0.234375 -2.09375 0.234375q-1.0 0 -1.9375 -0.125q-0.9375 -0.109375 -1.859375 -0.375l0 -2.375q0.453125 0.15625 0.9375 0.296875q0.5 0.125 0.984375 0.234375q0.5 0.109375 0.984375 0.171875q0.484375 0.046875 0.953125 0.046875q0.671875 0 1.15625 -0.109375q0.484375 -0.125 0.78125 -0.328125q0.296875 -0.203125 0.4375 -0.484375q0.140625 -0.28125 0.140625 -0.625q0 -0.46875 -0.28125 -0.78125q-0.265625 -0.328125 -0.703125 -0.5625q-0.4375 -0.25 -1.0 -0.4375q-0.5625 -0.203125 -1.140625 -0.421875q-0.578125 -0.234375 -1.140625 -0.515625q-0.5625 -0.28125 -1.0 -0.703125q-0.4375 -0.421875 -0.71875 -1.0q-0.265625 -0.578125 -0.265625 -1.40625q0 -0.75 0.265625 -1.421875q0.28125 -0.671875 0.859375 -1.171875q0.59375 -0.515625 1.515625 -0.8125q0.921875 -0.296875 2.21875 -0.296875q0.375 0 0.796875 0.046875q0.421875 0.03125 0.8125 0.09375q0.40625 0.046875 0.78125 0.125q0.390625 0.0625 0.703125 0.140625l0 2.203125q-0.3125 -0.125 -0.6875 -0.21875q-0.375 -0.09375 -0.78125 -0.171875q-0.390625 -0.078125 -0.796875 -0.109375q-0.390625 -0.046875 -0.75 -0.046875q-0.640625 0 -1.078125 0.109375q-0.4375 0.09375 -0.71875 0.28125q-0.28125 0.171875 -0.40625 0.4375q-0.125 0.265625 -0.125 0.59375q0 0.390625 0.265625 0.6875q0.265625 0.28125 0.703125 0.515625q0.453125 0.234375 1.015625 0.4375q0.5625 0.1875 1.140625 0.421875q0.59375 0.234375 1.15625 0.53125q0.5625 0.28125 1.0 0.703125q0.453125 0.421875 0.71875 1.0q0.28125 0.5625 0.28125 1.34375z" fill-rule="nonzero"/><path fill="#fff2cc" d="m63.959908 62.94013l190.4567 0l0 51.748028l-190.4567 0z" fill-rule="evenodd"/><path stroke="#000000" stroke-width="2.0" stroke-linejoin="round" stroke-linecap="butt" d="m63.959908 62.94013l190.4567 0l0 51.748028l-190.4567 0z" fill-rule="evenodd"/><path fill="#000000" d="m101.18044 85.74214l-2.25 0l-1.015625 -3.15625l-0.359375 -1.28125l-0.359375 1.3125l-0.984375 3.125l-2.171875 0l-0.5625 -10.21875l1.6875 0l0.25 6.546875l0.0625 1.796875l0.453125 -1.59375l1.125 -3.640625l1.21875 0l1.1875 3.859375l0.375 1.359375l0.03125 -1.59375l0.265625 -6.734375l1.625 0l-0.578125 10.21875zm7.46875 0l-0.5625 -2.015625l-3.5625 0l-0.578125 2.015625l-1.90625 0l3.03125 -10.21875l2.6875 0l3.015625 10.21875l-2.125 0zm-2.3125 -8.34375l-1.34375 4.75l2.671875 0l-1.328125 -4.75zm10.625 8.34375l-1.4375 -3.28125q-0.203125 -0.46875 -0.5625 -0.703125q-0.359375 -0.25 -0.859375 -0.25l-0.359375 0l0 4.234375l-1.921875 0l0 -10.21875l2.96875 0q0.84375 0 1.53125 0.15625q0.6875 0.140625 1.171875 0.484375q0.484375 0.328125 0.75 0.875q0.265625 0.53125 0.265625 1.3125q0 0.5625 -0.171875 1.0q-0.15625 0.4375 -0.453125 0.75q-0.296875 0.3125 -0.71875 0.515625q-0.40625 0.1875 -0.890625 0.265625q0.375 0.078125 0.6875 0.4375q0.3125 0.34375 0.625 1.0l1.640625 3.421875l-2.265625 0zm-0.46875 -7.203125q0 -0.75 -0.484375 -1.078125q-0.46875 -0.328125 -1.421875 -0.328125l-0.84375 0l0 2.875l0.78125 0q0.4375 0 0.796875 -0.09375q0.375 -0.09375 0.625 -0.28125q0.265625 -0.1875 0.40625 -0.453125q0.140625 -0.28125 0.140625 -0.640625zm11.25 0.234375q0 0.796875 -0.265625 1.484375q-0.265625 0.671875 -0.796875 1.171875q-0.515625 0.484375 -1.296875 0.765625q-0.78125 0.265625 -1.8125 0.265625l-0.96875 0l0 3.28125l-1.9375 0l0 -10.21875l2.984375 0q1.0 0 1.75 0.21875q0.765625 0.21875 1.28125 0.640625q0.53125 0.40625 0.796875 1.015625q0.265625 0.59375 0.265625 1.375zm-2.015625 0.140625q0 -0.40625 -0.125 -0.734375q-0.125 -0.34375 -0.390625 -0.578125q-0.265625 -0.234375 -0.671875 -0.359375q-0.390625 -0.125 -0.9375 -0.125l-1.0 0l0 3.75l1.0625 0q0.5 0 0.875 -0.140625q0.390625 -0.140625 0.65625 -0.390625q0.265625 -0.265625 0.390625 -0.625q0.140625 -0.359375 0.140625 -0.796875zm19.437508 3.734375q0 0.84375 -0.3125 1.46875q-0.296875 0.609375 -0.859375 1.015625q-0.546875 0.390625 -1.3125 0.59375q-0.765625 0.203125 -1.671875 0.203125q-0.8125 0 -1.5625 -0.109375q-0.75 -0.09375 -1.484375 -0.3125l0 -1.890625q0.359375 0.125 0.75 0.234375q0.390625 0.109375 0.78125 0.1875q0.40625 0.078125 0.796875 0.125q0.390625 0.046875 0.75 0.046875q0.546875 0 0.921875 -0.09375q0.390625 -0.09375 0.625 -0.25q0.25 -0.171875 0.359375 -0.390625q0.109375 -0.234375 0.109375 -0.5q0 -0.375 -0.21875 -0.625q-0.203125 -0.265625 -0.5625 -0.453125q-0.34375 -0.203125 -0.796875 -0.359375q-0.453125 -0.15625 -0.921875 -0.328125q-0.453125 -0.1875 -0.90625 -0.40625q-0.453125 -0.234375 -0.8125 -0.5625q-0.34375 -0.34375 -0.5625 -0.796875q-0.203125 -0.46875 -0.203125 -1.125q0 -0.609375 0.21875 -1.140625q0.21875 -0.546875 0.6875 -0.9375q0.46875 -0.40625 1.203125 -0.640625q0.734375 -0.25 1.765625 -0.25q0.3125 0 0.640625 0.03125q0.328125 0.03125 0.65625 0.078125q0.328125 0.03125 0.625 0.09375q0.296875 0.0625 0.546875 0.125l0 1.75q-0.25 -0.09375 -0.546875 -0.171875q-0.296875 -0.078125 -0.609375 -0.125q-0.3125 -0.0625 -0.640625 -0.09375q-0.3125 -0.03125 -0.609375 -0.03125q-0.5 0 -0.859375 0.078125q-0.34375 0.078125 -0.578125 0.234375q-0.21875 0.140625 -0.328125 0.359375q-0.09375 0.203125 -0.09375 0.453125q0 0.328125 0.203125 0.5625q0.21875 0.21875 0.578125 0.40625q0.359375 0.1875 0.796875 0.34375q0.453125 0.15625 0.921875 0.34375q0.484375 0.1875 0.921875 0.421875q0.453125 0.234375 0.8125 0.578125q0.359375 0.328125 0.5625 0.78125q0.21875 0.453125 0.21875 1.078125zm8.671875 2.6875q-0.671875 0.28125 -1.3125 0.40625q-0.640625 0.140625 -1.328125 0.140625q-1.09375 0 -1.953125 -0.328125q-0.84375 -0.328125 -1.421875 -0.96875q-0.578125 -0.640625 -0.890625 -1.578125q-0.296875 -0.953125 -0.296875 -2.21875q0 -1.28125 0.328125 -2.28125q0.328125 -1.015625 0.9375 -1.703125q0.609375 -0.6875 1.484375 -1.046875q0.875 -0.375 1.953125 -0.375q0.359375 0 0.65625 0.015625q0.3125 0.015625 0.609375 0.0625q0.296875 0.046875 0.59375 0.125q0.3125 0.0625 0.640625 0.171875l0 1.90625q-0.65625 -0.3125 -1.265625 -0.4375q-0.59375 -0.140625 -1.09375 -0.140625q-0.71875 0 -1.234375 0.265625q-0.515625 0.25 -0.859375 0.734375q-0.328125 0.46875 -0.484375 1.125q-0.15625 0.640625 -0.15625 1.421875q0 0.828125 0.15625 1.484375q0.171875 0.65625 0.5 1.109375q0.34375 0.453125 0.859375 0.6875q0.53125 0.234375 1.25 0.234375q0.25 0 0.546875 -0.046875q0.3125 -0.046875 0.609375 -0.125q0.3125 -0.09375 0.609375 -0.203125q0.3125 -0.109375 0.5625 -0.234375l0 1.796875zm7.09375 0.40625l0 -4.453125l-3.46875 0l0 4.453125l-1.921875 0l0 -10.21875l1.921875 0l0 4.109375l3.46875 0l0 -4.109375l1.921875 0l0 10.21875l-1.921875 0zm4.09375 0l0 -10.21875l6.15625 0l0 1.625l-4.203125 0l0 2.546875l4.0 0l0 1.578125l-4.0 0l0 2.84375l4.203125 0l0 1.625l-6.15625 0zm15.75 -5.234375q0 1.1875 -0.296875 2.15625q-0.296875 0.96875 -0.921875 1.65625q-0.609375 0.671875 -1.578125 1.046875q-0.96875 0.375 -2.328125 0.375l-2.59375 0l0 -10.21875l3.03125 0q1.171875 0 2.046875 0.296875q0.875 0.296875 1.453125 0.90625q0.59375 0.609375 0.890625 1.546875q0.296875 0.9375 0.296875 2.234375zm-2.0625 0.125q0 -0.828125 -0.140625 -1.46875q-0.125 -0.65625 -0.453125 -1.109375q-0.3125 -0.453125 -0.84375 -0.6875q-0.53125 -0.234375 -1.3125 -0.234375l-0.984375 0l0 7.0l0.84375 0q1.421875 0 2.15625 -0.84375q0.734375 -0.84375 0.734375 -2.65625zm10.59375 1.34375q0 0.984375 -0.265625 1.71875q-0.265625 0.734375 -0.75 1.234375q-0.484375 0.484375 -1.1875 0.75q-0.703125 0.25 -1.578125 0.25q-0.984375 0 -1.6875 -0.25q-0.703125 -0.265625 -1.140625 -0.734375q-0.4375 -0.46875 -0.640625 -1.140625q-0.1875 -0.671875 -0.1875 -1.5l0 -6.78125l1.921875 0l0 6.65625q0 0.515625 0.078125 0.921875q0.09375 0.390625 0.3125 0.671875q0.234375 0.28125 0.5625 0.421875q0.34375 0.140625 0.84375 0.140625q0.484375 0 0.8125 -0.125q0.328125 -0.125 0.546875 -0.390625q0.21875 -0.265625 0.328125 -0.6875q0.109375 -0.421875 0.109375 -1.03125l0 -6.578125l1.921875 0l0 6.453125zm2.21875 3.765625l0 -10.21875l1.953125 0l0 8.5625l4.3125 0l0 1.65625l-6.265625 0zm8.6875 0l0 -10.21875l6.15625 0l0 1.625l-4.203125 0l0 2.546875l4.0 0l0 1.578125l-4.0 0l0 2.84375l4.203125 0l0 1.625l-6.15625 0zm13.515625 0l-1.4375 -3.28125q-0.203125 -0.46875 -0.5625 -0.703125q-0.359375 -0.25 -0.859375 -0.25l-0.359375 0l0 4.234375l-1.921875 0l0 -10.21875l2.96875 0q0.84375 0 1.53125 0.15625q0.6875 0.140625 1.171875 0.484375q0.484375 0.328125 0.75 0.875q0.265625 0.53125 0.265625 1.3125q0 0.5625 -0.171875 1.0q-0.15625 0.4375 -0.453125 0.75q-0.296875 0.3125 -0.71875 0.515625q-0.40625 0.1875 -0.890625 0.265625q0.375 0.078125 0.6875 0.4375q0.3125 0.34375 0.625 1.0l1.640625 3.421875l-2.265625 0zm-0.46875 -7.203125q0 -0.75 -0.484375 -1.078125q-0.46875 -0.328125 -1.421875 -0.328125l-0.84375 0l0 2.875l0.78125 0q0.4375 0 0.796875 -0.09375q0.375 -0.09375 0.625 -0.28125q0.265625 -0.1875 0.40625 -0.453125q0.140625 -0.28125 0.140625 -0.640625zm11.078125 4.109375q0 0.84375 -0.3125 1.46875q-0.296875 0.609375 -0.859375 1.015625q-0.546875 0.390625 -1.3125 0.59375q-0.765625 0.203125 -1.671875 0.203125q-0.8125 0 -1.5625 -0.109375q-0.75 -0.09375 -1.484375 -0.3125l0 -1.890625q0.359375 0.125 0.75 0.234375q0.390625 0.109375 0.78125 0.1875q0.40625 0.078125 0.796875 0.125q0.390625 0.046875 0.75 0.046875q0.546875 0 0.921875 -0.09375q0.390625 -0.09375 0.625 -0.25q0.25 -0.171875 0.359375 -0.390625q0.109375 -0.234375 0.109375 -0.5q0 -0.375 -0.21875 -0.625q-0.203125 -0.265625 -0.5625 -0.453125q-0.34375 -0.203125 -0.796875 -0.359375q-0.453125 -0.15625 -0.921875 -0.328125q-0.453125 -0.1875 -0.90625 -0.40625q-0.453125 -0.234375 -0.8125 -0.5625q-0.34375 -0.34375 -0.5625 -0.796875q-0.203125 -0.46875 -0.203125 -1.125q0 -0.609375 0.21875 -1.140625q0.21875 -0.546875 0.6875 -0.9375q0.46875 -0.40625 1.203125 -0.640625q0.734375 -0.25 1.765625 -0.25q0.3125 0 0.640625 0.03125q0.328125 0.03125 0.65625 0.078125q0.328125 0.03125 0.625 0.09375q0.296875 0.0625 0.546875 0.125l0 1.75q-0.25 -0.09375 -0.546875 -0.171875q-0.296875 -0.078125 -0.609375 -0.125q-0.3125 -0.0625 -0.640625 -0.09375q-0.3125 -0.03125 -0.609375 -0.03125q-0.5 0 -0.859375 0.078125q-0.34375 0.078125 -0.578125 0.234375q-0.21875 0.140625 -0.328125 0.359375q-0.09375 0.203125 -0.09375 0.453125q0 0.328125 0.203125 0.5625q0.21875 0.21875 0.578125 0.40625q0.359375 0.1875 0.796875 0.34375q0.453125 0.15625 0.921875 0.34375q0.484375 0.1875 0.921875 0.421875q0.453125 0.234375 0.8125 0.578125q0.359375 0.328125 0.5625 0.78125q0.21875 0.453125 0.21875 1.078125z" fill-rule="nonzero"/><path fill="#000000" d="m96.969505 95.77402q0 0.984375 -0.203125 1.8125q-0.203125 0.828125 -0.59375 1.5l1.671875 2.015625l-2.265625 0l-0.546875 -0.671875q-0.53125 0.421875 -1.1875 0.640625q-0.640625 0.21875 -1.375 0.21875q-0.8125 0 -1.453125 -0.203125q-0.625 -0.21875 -1.0625 -0.59375q-0.4375 -0.390625 -0.671875 -0.9375q-0.21875 -0.546875 -0.21875 -1.203125q0 -0.5625 0.140625 -1.015625q0.15625 -0.453125 0.40625 -0.8125q0.25 -0.375 0.578125 -0.65625q0.328125 -0.28125 0.6875 -0.53125l-0.15625 -0.203125q-0.4375 -0.546875 -0.671875 -1.109375q-0.234375 -0.5625 -0.234375 -1.109375q0 -0.546875 0.1875 -1.046875q0.203125 -0.5 0.578125 -0.890625q0.375 -0.390625 0.921875 -0.625q0.5625 -0.234375 1.28125 -0.234375q0.6875 0 1.21875 0.203125q0.53125 0.1875 0.890625 0.515625q0.375 0.3125 0.5625 0.75q0.1875 0.4375 0.1875 0.9375q0 0.609375 -0.203125 1.0625q-0.203125 0.453125 -0.53125 0.8125q-0.328125 0.34375 -0.765625 0.609375q-0.421875 0.265625 -0.859375 0.515625l1.71875 2.125q0.109375 -0.40625 0.15625 -0.875q0.0625 -0.46875 0.046875 -1.0l1.765625 0zm-6.03125 2.40625q0 0.34375 0.109375 0.640625q0.125 0.28125 0.34375 0.484375q0.21875 0.203125 0.515625 0.328125q0.3125 0.109375 0.6875 0.109375q0.40625 0 0.78125 -0.125q0.375 -0.125 0.671875 -0.390625l-2.234375 -2.75q-0.390625 0.328125 -0.640625 0.734375q-0.234375 0.390625 -0.234375 0.96875zm2.90625 -5.5q0 -0.203125 -0.078125 -0.390625q-0.078125 -0.203125 -0.21875 -0.359375q-0.140625 -0.15625 -0.34375 -0.25q-0.203125 -0.09375 -0.46875 -0.09375q-0.265625 0 -0.484375 0.109375q-0.203125 0.09375 -0.34375 0.265625q-0.140625 0.15625 -0.21875 0.375q-0.078125 0.21875 -0.078125 0.453125q0 0.421875 0.203125 0.8125q0.203125 0.375 0.5625 0.8125l0.015625 0.03125q0.296875 -0.1875 0.5625 -0.359375q0.265625 -0.1875 0.453125 -0.390625q0.203125 -0.21875 0.3125 -0.46875q0.125 -0.25 0.125 -0.546875zm20.953125 3.1875q0 1.1875 -0.296875 2.15625q-0.296875 0.96875 -0.921875 1.65625q-0.609375 0.671875 -1.578125 1.046875q-0.96875 0.375 -2.328125 0.375l-2.59375 0l0 -10.21875l3.03125 0q1.171875 0 2.046875 0.296875q0.875 0.296875 1.453125 0.90625q0.59375 0.609375 0.890625 1.546875q0.296875 0.9375 0.296875 2.234375zm-2.0625 0.125q0 -0.828125 -0.140625 -1.46875q-0.125 -0.65625 -0.453125 -1.109375q-0.3125 -0.453125 -0.84375 -0.6875q-0.53125 -0.234375 -1.3125 -0.234375l-0.984375 0l0 7.0l0.84375 0q1.421875 0 2.15625 -0.84375q0.734375 -0.84375 0.734375 -2.65625zm3.640625 -3.53125l0 -1.578125l6.453125 0l0 1.578125l-2.25 0l0 7.046875l2.25 0l0 1.59375l-6.453125 0l0 -1.59375l2.25 0l0 -7.046875l-2.25 0zm15.593758 5.546875q0 0.84375 -0.3125 1.46875q-0.296875 0.609375 -0.859375 1.015625q-0.546875 0.390625 -1.3125 0.59375q-0.765625 0.203125 -1.6718826 0.203125q-0.8125 0 -1.5625 -0.109375q-0.75 -0.09375 -1.484375 -0.3125l0 -1.890625q0.359375 0.125 0.75 0.234375q0.390625 0.109375 0.78125 0.1875q0.40625 0.078125 0.796875 0.125q0.390625 0.046875 0.75 0.046875q0.5468826 0 0.9218826 -0.09375q0.390625 -0.09375 0.625 -0.25q0.25 -0.171875 0.359375 -0.390625q0.109375 -0.234375 0.109375 -0.5q0 -0.375 -0.21875 -0.625q-0.203125 -0.265625 -0.5625 -0.453125q-0.34375 -0.203125 -0.796875 -0.359375q-0.45313263 -0.15625 -0.9218826 -0.328125q-0.453125 -0.1875 -0.90625 -0.40625q-0.453125 -0.234375 -0.8125 -0.5625q-0.34375 -0.34375 -0.5625 -0.796875q-0.203125 -0.46875 -0.203125 -1.125q0 -0.609375 0.21875 -1.140625q0.21875 -0.546875 0.6875 -0.9375q0.46875 -0.40625 1.203125 -0.640625q0.734375 -0.25 1.7656326 -0.25q0.3125 0 0.640625 0.03125q0.328125 0.03125 0.65625 0.078125q0.328125 0.03125 0.625 0.09375q0.296875 0.0625 0.546875 0.125l0 1.75q-0.25 -0.09375 -0.546875 -0.171875q-0.296875 -0.078125 -0.609375 -0.125q-0.3125 -0.0625 -0.640625 -0.09375q-0.3125 -0.03125 -0.609375 -0.03125q-0.5 0 -0.8593826 0.078125q-0.34375 0.078125 -0.578125 0.234375q-0.21875 0.140625 -0.328125 0.359375q-0.09375 0.203125 -0.09375 0.453125q0 0.328125 0.203125 0.5625q0.21875 0.21875 0.578125 0.40625q0.35938263 0.1875 0.7968826 0.34375q0.453125 0.15625 0.921875 0.34375q0.484375 0.1875 0.921875 0.421875q0.453125 0.234375 0.8125 0.578125q0.359375 0.328125 0.5625 0.78125q0.21875 0.453125 0.21875 1.078125zm8.96875 -3.875q0 0.796875 -0.265625 1.484375q-0.265625 0.671875 -0.796875 1.171875q-0.515625 0.484375 -1.296875 0.765625q-0.78125 0.265625 -1.8125 0.265625l-0.96875 0l0 3.28125l-1.9375 0l0 -10.21875l2.984375 0q1.0 0 1.75 0.21875q0.765625 0.21875 1.28125 0.640625q0.53125 0.40625 0.796875 1.015625q0.265625 0.59375 0.265625 1.375zm-2.015625 0.140625q0 -0.40625 -0.125 -0.734375q-0.125 -0.34375 -0.390625 -0.578125q-0.265625 -0.234375 -0.671875 -0.359375q-0.390625 -0.125 -0.9375 -0.125l-1.0 0l0 3.75l1.0625 0q0.5 0 0.875 -0.140625q0.390625 -0.140625 0.65625 -0.390625q0.265625 -0.265625 0.390625 -0.625q0.140625 -0.359375 0.140625 -0.796875zm9.3125 6.828125l-0.5625 -2.015625l-3.5625 0l-0.578125 2.015625l-1.90625 0l3.03125 -10.21875l2.6875 0l3.015625 10.21875l-2.125 0zm-2.3125 -8.34375l-1.34375 4.75l2.671875 0l-1.328125 -4.75zm9.859375 -0.265625l0 8.609375l-1.96875 0l0 -8.609375l-2.796875 0l0 -1.609375l7.5625 0l0 1.609375l-2.796875 0zm11.25 8.203125q-0.671875 0.28125 -1.3125 0.40625q-0.640625 0.140625 -1.328125 0.140625q-1.09375 0 -1.953125 -0.328125q-0.84375 -0.328125 -1.421875 -0.96875q-0.578125 -0.640625 -0.890625 -1.578125q-0.296875 -0.953125 -0.296875 -2.21875q0 -1.28125 0.328125 -2.28125q0.328125 -1.015625 0.9375 -1.703125q0.609375 -0.6875 1.484375 -1.046875q0.875 -0.375 1.953125 -0.375q0.359375 0 0.65625 0.015625q0.3125 0.015625 0.609375 0.0625q0.296875 0.046875 0.59375 0.125q0.3125 0.0625 0.640625 0.171875l0 1.90625q-0.65625 -0.3125 -1.265625 -0.4375q-0.59375 -0.140625 -1.09375 -0.140625q-0.71875 0 -1.234375 0.265625q-0.515625 0.25 -0.859375 0.734375q-0.328125 0.46875 -0.484375 1.125q-0.15625 0.640625 -0.15625 1.421875q0 0.828125 0.15625 1.484375q0.171875 0.65625 0.5 1.109375q0.34375 0.453125 0.859375 0.6875q0.53125 0.234375 1.25 0.234375q0.25 0 0.546875 -0.046875q0.3125 -0.046875 0.609375 -0.125q0.3125 -0.09375 0.609375 -0.203125q0.3125 -0.109375 0.5625 -0.234375l0 1.796875zm7.09375 0.40625l0 -4.453125l-3.46875 0l0 4.453125l-1.921875 0l0 -10.21875l1.921875 0l0 4.109375l3.46875 0l0 -4.109375l1.921875 0l0 10.21875l-1.921875 0zm19.578125 -3.765625q0 0.984375 -0.265625 1.71875q-0.265625 0.734375 -0.75 1.234375q-0.484375 0.484375 -1.1875 0.75q-0.703125 0.25 -1.578125 0.25q-0.984375 0 -1.6875 -0.25q-0.703125 -0.265625 -1.140625 -0.734375q-0.4375 -0.46875 -0.640625 -1.140625q-0.1875 -0.671875 -0.1875 -1.5l0 -6.78125l1.921875 0l0 6.65625q0 0.515625 0.078125 0.921875q0.09375 0.390625 0.3125 0.671875q0.234375 0.28125 0.5625 0.421875q0.34375 0.140625 0.84375 0.140625q0.484375 0 0.8125 -0.125q0.328125 -0.125 0.546875 -0.390625q0.21875 -0.265625 0.328125 -0.6875q0.109375 -0.421875 0.109375 -1.03125l0 -6.578125l1.921875 0l0 6.453125zm6.453125 3.765625l-2.734375 -6.09375l-0.5625 -1.3125l0 4.234375l0 3.171875l-1.75 0l0 -10.21875l2.359375 0l2.796875 6.140625l0.484375 1.1875l0 -4.5l0 -2.828125l1.75 0l0 10.21875l-2.34375 0zm4.1875 -8.640625l0 -1.578125l6.453125 0l0 1.578125l-2.25 0l0 7.046875l2.25 0l0 1.59375l-6.453125 0l0 -1.59375l2.25 0l0 -7.046875l-2.25 0zm13.015625 0.03125l0 8.609375l-1.96875 0l0 -8.609375l-2.796875 0l0 -1.609375l7.5625 0l0 1.609375l-2.796875 0zm11.375 5.515625q0 0.84375 -0.3125 1.46875q-0.296875 0.609375 -0.859375 1.015625q-0.546875 0.390625 -1.3125 0.59375q-0.765625 0.203125 -1.671875 0.203125q-0.8125 0 -1.5625 -0.109375q-0.75 -0.09375 -1.484375 -0.3125l0 -1.890625q0.359375 0.125 0.75 0.234375q0.390625 0.109375 0.78125 0.1875q0.40625 0.078125 0.796875 0.125q0.390625 0.046875 0.75 0.046875q0.546875 0 0.921875 -0.09375q0.390625 -0.09375 0.625 -0.25q0.25 -0.171875 0.359375 -0.390625q0.109375 -0.234375 0.109375 -0.5q0 -0.375 -0.21875 -0.625q-0.203125 -0.265625 -0.5625 -0.453125q-0.34375 -0.203125 -0.796875 -0.359375q-0.453125 -0.15625 -0.921875 -0.328125q-0.453125 -0.1875 -0.90625 -0.40625q-0.453125 -0.234375 -0.8125 -0.5625q-0.34375 -0.34375 -0.5625 -0.796875q-0.203125 -0.46875 -0.203125 -1.125q0 -0.609375 0.21875 -1.140625q0.21875 -0.546875 0.6875 -0.9375q0.46875 -0.40625 1.203125 -0.640625q0.734375 -0.25 1.765625 -0.25q0.3125 0 0.640625 0.03125q0.328125 0.03125 0.65625 0.078125q0.328125 0.03125 0.625 0.09375q0.296875 0.0625 0.546875 0.125l0 1.75q-0.25 -0.09375 -0.546875 -0.171875q-0.296875 -0.078125 -0.609375 -0.125q-0.3125 -0.0625 -0.640625 -0.09375q-0.3125 -0.03125 -0.609375 -0.03125q-0.5 0 -0.859375 0.078125q-0.34375 0.078125 -0.578125 0.234375q-0.21875 0.140625 -0.328125 0.359375q-0.09375 0.203125 -0.09375 0.453125q0 0.328125 0.203125 0.5625q0.21875 0.21875 0.578125 0.40625q0.359375 0.1875 0.796875 0.34375q0.453125 0.15625 0.921875 0.34375q0.484375 0.1875 0.921875 0.421875q0.453125 0.234375 0.8125 0.578125q0.359375 0.328125 0.5625 0.78125q0.21875 0.453125 0.21875 1.078125z" fill-rule="nonzero"/><path fill="#000000" fill-opacity="0.0" d="m63.959908 88.81414l-53.108135 0l0 178.99213l25.013649 0" fill-rule="evenodd"/><path stroke="#000000" stroke-width="3.0" stroke-linejoin="round" stroke-linecap="butt" d="m63.959908 88.81414l-53.10813 0l0 178.99213l7.013645 0" fill-rule="evenodd"/><path fill="#000000" stroke="#000000" stroke-width="3.0" stroke-linecap="butt" d="m17.86542 272.76147l13.614292 -4.9552l-13.614292 -4.9552z" fill-rule="evenodd"/><path fill="#000000" fill-opacity="0.0" d="m63.946194 365.8281c-7.7580795 0 -14.047245 -6.2891846 -14.047245 -14.047241l0 -69.923676c0 -7.758087 -6.2891655 -14.047241 -14.047241 -14.047241l0 0c7.7580757 0 14.047241 -6.2891846 14.047241 -14.047256l0 -68.375534l0 0c0 -7.758087 6.2891655 -14.047256 14.047245 -14.047256z" fill-rule="evenodd"/><path fill="#000000" fill-opacity="0.0" d="m63.946194 365.8281c-7.7580795 0 -14.047245 -6.2891846 -14.047245 -14.047241l0 -69.923676c0 -7.758087 -6.2891655 -14.047241 -14.047241 -14.047241l0 0c7.7580757 0 14.047241 -6.2891846 14.047241 -14.047256l0 -68.375534l0 0c0 -7.758087 6.2891655 -14.047256 14.047245 -14.047256" fill-rule="evenodd"/><path stroke="#000000" stroke-width="3.0" stroke-linejoin="round" stroke-linecap="butt" d="m63.946194 365.8281c-7.7580795 0 -14.047245 -6.2891846 -14.047245 -14.047241l0 -69.923676c0 -7.758087 -6.2891655 -14.047241 -14.047241 -14.047241l0 0c7.7580757 0 14.047241 -6.2891846 14.047241 -14.047256l0 -68.375534l0 0c0 -7.758087 6.2891655 -14.047256 14.047245 -14.047256" fill-rule="evenodd"/></g></svg>