<svg version="1.1" viewBox="0.0 0.0 617.8503937007874 308.59317585301835" fill="none" stroke="none" stroke-linecap="square" stroke-miterlimit="10" xmlns:xlink="http://www.w3.org/1999/xlink" xmlns="http://www.w3.org/2000/svg"><clipPath id="p.0"><path d="m0 0l617.8504 0l0 308.59317l-617.8504 0l0 -308.59317z" clip-rule="nonzero"/></clipPath><g clip-path="url(#p.0)"><path fill="#000000" fill-opacity="0.0" d="m0 0l617.8504 0l0 308.59317l-617.8504 0z" fill-rule="evenodd"/><path fill="#ffffff" d="m0 0l617.8583 0l0 308.59842l-617.8583 0z" fill-rule="evenodd"/><path stroke="#000000" stroke-width="1.0" stroke-linejoin="round" stroke-linecap="butt" d="m0 0l617.8583 0l0 308.59842l-617.8583 0z" fill-rule="evenodd"/><path fill="#f4cccc" d="m116.6063 30.923885l0 0c0 -13.254835 10.745163 -24.0 23.999992 -24.0l0 0c6.365204 0 12.469696 2.5285645 16.970566 7.029437c4.5008698 4.5008736 7.029434 10.605368 7.029434 16.970564l0 0c0 13.254833 -10.745163 24.0 -24.0 24.0l0 0c-13.254829 0 -23.999992 -10.745167 -23.999992 -24.0z" fill-rule="evenodd"/><path stroke="#000000" stroke-width="2.0" stroke-linejoin="round" stroke-linecap="butt" d="m116.6063 30.923885l0 0c0 -13.254835 10.745163 -24.0 23.999992 -24.0l0 0c6.365204 0 12.469696 2.5285645 16.970566 7.029437c4.5008698 4.5008736 7.029434 10.605368 7.029434 16.970564l0 0c0 13.254833 -10.745163 24.0 -24.0 24.0l0 0c-13.254829 0 -23.999992 -10.745167 -23.999992 -24.0z" fill-rule="evenodd"/><path fill="#000000" d="m145.64952 37.843884l-1.765625 0l-0.84375 -2.59375l-4.953125 0l-0.828125 2.59375l-1.6875 0l3.953125 -11.906252l2.21875 0l3.90625 11.906252zm-3.0625 -4.046875l-2.015625 -6.359377l-2.015625 6.359377l4.03125 0z" fill-rule="nonzero"/><path fill="#fff2cc" d="m116.6063 151.51706l0 0c0 -13.254837 10.745163 -24.0 23.999992 -24.0l0 0c6.365204 0 12.469696 2.5285645 16.970566 7.029434c4.5008698 4.5008698 7.029434 10.605377 7.029434 16.970566l0 0c0 13.254837 -10.745163 24.0 -24.0 24.0l0 0c-13.254829 0 -23.999992 -10.745163 -23.999992 -24.0z" fill-rule="evenodd"/><path stroke="#000000" stroke-width="2.0" stroke-linejoin="round" stroke-linecap="butt" d="m116.6063 151.51706l0 0c0 -13.254837 10.745163 -24.0 23.999992 -24.0l0 0c6.365204 0 12.469696 2.5285645 16.970566 7.029434c4.5008698 4.5008698 7.029434 10.605377 7.029434 16.970566l0 0c0 13.254837 -10.745163 24.0 -24.0 24.0l0 0c-13.254829 0 -23.999992 -10.745163 -23.999992 -24.0z" fill-rule="evenodd"/><path fill="#000000" d="m144.72765 154.87456q0 0.859375 -0.328125 1.515625q-0.328125 0.65625 -0.953125 1.125q-0.609375 0.453125 -1.484375 0.6875q-0.859375 0.234375 -1.921875 0.234375l-3.125 0l0 -11.90625l3.40625 0q3.984375 0 3.984375 2.890625q0 0.96875 -0.46875 1.671875q-0.453125 0.6875 -1.484375 1.015625q0.46875 0.09375 0.90625 0.3125q0.4375 0.21875 0.765625 0.578125q0.328125 0.34375 0.515625 0.8125q0.1875 0.46875 0.1875 1.0625zm-2.109375 -5.234375q0 -0.359375 -0.109375 -0.671875q-0.109375 -0.328125 -0.390625 -0.5625q-0.265625 -0.234375 -0.734375 -0.375q-0.453125 -0.140625 -1.171875 -0.140625l-1.671875 0l0 3.734375l1.625 0q0.546875 0 1.0 -0.109375q0.453125 -0.125 0.765625 -0.375q0.328125 -0.25 0.5 -0.609375q0.1875 -0.375 0.1875 -0.890625zm0.390625 5.296875q0 -0.46875 -0.1875 -0.828125q-0.1875 -0.359375 -0.5625 -0.609375q-0.359375 -0.25 -0.890625 -0.390625q-0.515625 -0.140625 -1.171875 -0.140625l-1.65625 0l0 4.109375l1.703125 0q1.40625 0 2.078125 -0.515625q0.6875 -0.53125 0.6875 -1.625z" fill-rule="nonzero"/><path fill="#c9daf8" d="m116.60499 272.11023l0 0c0 -13.254822 10.745163 -24.0 23.999992 -24.0l0 0c6.365204 0 12.469696 2.5285645 16.970566 7.0294495c4.5008698 4.5008545 7.029434 10.605347 7.029434 16.97055l0 0c0 13.254852 -10.745163 24.0 -24.0 24.0l0 0c-13.254829 0 -23.999992 -10.745148 -23.999992 -24.0z" fill-rule="evenodd"/><path stroke="#000000" stroke-width="2.0" stroke-linejoin="round" stroke-linecap="butt" d="m116.60499 272.11023l0 0c0 -13.254822 10.745163 -24.0 23.999992 -24.0l0 0c6.365204 0 12.469696 2.5285645 16.970566 7.0294495c4.5008698 4.5008545 7.029434 10.605347 7.029434 16.97055l0 0c0 13.254852 -10.745163 24.0 -24.0 24.0l0 0c-13.254829 0 -23.999992 -10.745148 -23.999992 -24.0z" fill-rule="evenodd"/><path fill="#000000" d="m144.53883 278.57712q-1.421875 0.59375 -3.0 0.59375q-2.515625 0 -3.875 -1.5q-1.34375 -1.515625 -1.34375 -4.46875q0 -1.421875 0.359375 -2.578125q0.375 -1.15625 1.0625 -1.953125q0.703125 -0.8125 1.6875 -1.25q0.984375 -0.4375 2.203125 -0.4375q0.828125 0 1.53125 0.140625q0.71875 0.140625 1.375 0.421875l0 1.59375q-0.640625 -0.34375 -1.34375 -0.53125q-0.6875 -0.1875 -1.5 -0.1875q-0.84375 0 -1.53125 0.3125q-0.671875 0.3125 -1.15625 0.90625q-0.46875 0.59375 -0.71875 1.46875q-0.25 0.859375 -0.25 1.953125q0 2.3125 0.9375 3.5q0.9375 1.171875 2.75 1.171875q0.765625 0 1.46875 -0.171875q0.703125 -0.1875 1.34375 -0.515625l0 1.53125z" fill-rule="nonzero"/><path fill="#000000" fill-opacity="0.0" d="m140.6063 54.923885l0 72.59842" fill-rule="evenodd"/><path stroke="#000000" stroke-width="2.0" stroke-linejoin="round" stroke-linecap="butt" d="m140.6063 54.923885l0 60.598423" fill-rule="evenodd"/><path fill="#000000" stroke="#000000" stroke-width="2.0" stroke-linecap="butt" d="m137.30284 115.52231l3.3034515 9.076195l3.3034668 -9.076195z" fill-rule="evenodd"/><path fill="#000000" fill-opacity="0.0" d="m140.6063 175.51706l0 72.59842" fill-rule="evenodd"/><path stroke="#000000" stroke-width="2.0" stroke-linejoin="round" stroke-linecap="butt" d="m140.6063 175.51706l0 60.59842" fill-rule="evenodd"/><path fill="#000000" stroke="#000000" stroke-width="2.0" stroke-linecap="butt" d="m137.30284 236.11548l3.3034515 9.076202l3.3034668 -9.076202z" fill-rule="evenodd"/><path fill="#000000" fill-opacity="0.0" d="m157.57686 134.5465c0 -16.014748 7.707657 -31.025955 16.01471 -32.029495c8.307053 -1.0035477 17.213501 12.00058 16.014694 24.502937c-1.1988068 12.5023575 -12.502884 24.502937 -25.005783 24.502937" fill-rule="evenodd"/><path stroke="#000000" stroke-width="2.0" stroke-linejoin="round" stroke-linecap="butt" d="m157.57686 134.5465c0 -16.014748 7.707657 -31.025955 16.014694 -32.029495c8.307068 -1.0035477 17.213531 12.000587 16.01471 24.50293c-0.599411 6.251175 -3.7251282 12.376923 -8.26387 16.939865c-1.1346741 1.1407166 -2.357666 2.183792 -3.651596 3.10672c-0.32347107 0.23072815 -0.65138245 0.45394897 -0.9834442 0.6693115c-0.16603088 0.10769653 -0.33311462 0.21340942 -0.5011902 0.31710815l-0.1002655 0.060302734" fill-rule="evenodd"/><path fill="#000000" stroke="#000000" stroke-width="2.0" stroke-linecap="butt" d="m175.16725 144.94592l-7.7634735 5.7461853l9.640747 0.58843994z" fill-rule="evenodd"/><path fill="#000000" fill-opacity="0.0" d="m299.28873 5.469816l170.92911 0l0 292.09448l-170.92911 0z" fill-rule="evenodd"/><path stroke="#000000" stroke-width="2.0" stroke-linejoin="round" stroke-linecap="butt" d="m299.28873 5.469816l170.92911 0l0 292.09448l-170.92911 0z" fill-rule="evenodd"/><path fill="#f4cccc" d="m308.28873 14.469817l35.1875 0l0 19.199997l-35.1875 0l0 -19.199997z" fill-rule="nonzero"/><path fill="#000000" fill-opacity="0.0" d="m308.28873 17.947004l35.1875 0l0 18.734377l-35.1875 0l0 -18.734377z" fill-rule="nonzero"/><path fill="#595959" d="m317.00748 29.829817l-1.515625 0l-0.703125 -2.234375l-4.25 0l-0.71875 2.234375l-1.453125 0l3.390625 -10.21875l1.90625 0l3.34375 10.21875zm-2.625 -3.46875l-1.71875 -5.46875l-1.734375 5.46875l3.453125 0zm8.65625 6.750002q-3.609375 -3.343752 -3.609375 -7.375002q0 -0.953125 0.1875 -1.890625q0.203125 -0.9375 0.625 -1.875q0.421875 -0.953125 1.125 -1.890625q0.703125 -0.953125 1.703125 -1.890625l0.78125 0.8125q-3.03125 2.984375 -3.03125 6.625q0 1.8125 0.765625 3.5q0.765625 1.671875 2.265625 3.156252l-0.8125 0.828125zm11.171875 -3.281252l-1.8125 0l-2.109375 -3.0l-2.09375 3.0l-1.765625 0l3.046875 -3.9375l-2.90625 -3.90625l1.75 0l2.0625 3.015625l2.015625 -3.015625l1.6875 0l-2.953125 3.9375l3.078125 3.90625zm3.328125 -11.640625q3.59375 3.34375 3.59375 7.421875q0 0.84375 -0.171875 1.75q-0.171875 0.90625 -0.59375 1.859375q-0.40625 0.953125 -1.109375 1.921875q-0.6875 0.9843769 -1.75 1.9687519l-0.796875 -0.796875q1.53125 -1.5156269 2.28125 -3.156252q0.75 -1.640625 0.75 -3.4375q0 -3.71875 -3.03125 -6.6875l0.828125 -0.84375z" fill-rule="nonzero"/><path fill="#000000" fill-opacity="0.0" d="m343.47623 17.947004l0 0l0 18.734377l0 0l0 -18.734377z" fill-rule="nonzero"/><path fill="#fff2cc" d="m361.06998 52.86982l43.984375 0l0 19.199997l-43.984375 0l0 -19.199997z" fill-rule="nonzero"/><path fill="#595959" d="m316.80435 60.38607l-1.140625 7.84375l-1.640625 0l-1.140625 -3.28125l-0.21875 -0.796875l-0.265625 0.84375l-1.078125 3.234375l-1.609375 0l-1.125 -7.84375l1.328125 0l0.65625 5.328125l0.140625 1.1875l0.328125 -1.046875l1.140625 -3.515625l0.984375 0l1.21875 3.46875l0.359375 1.046875l0.109375 -1.109375l0.609375 -5.359375l1.34375 0zm7.84375 7.84375l-1.359375 0l0 -5.015625q0 -0.90625 -0.34375 -1.34375q-0.34375 -0.453125 -0.96875 -0.453125q-0.28125 0 -0.515625 0.078125q-0.234375 0.0625 -0.5 0.25q-0.25 0.1875 -0.5625 0.5q-0.296875 0.3125 -0.703125 0.78125l0 5.203125l-1.359375 0l0 -11.046875l1.359375 0l0 3.203125l-0.046875 1.234375q0.328125 -0.390625 0.625 -0.640625q0.3125 -0.265625 0.625 -0.421875q0.3125 -0.171875 0.625 -0.234375q0.328125 -0.078125 0.671875 -0.078125q1.171875 0 1.8125 0.71875q0.640625 0.703125 0.640625 2.140625l0 5.125zm5.15625 -6.71875l-2.3125 0l0 -1.125l3.6875 0l0 6.703125l2.34375 0l0 1.140625l-6.296875 0l0 -1.140625l2.578125 0l0 -5.578125zm0.484375 -4.421875q0.21875 0 0.40625 0.09375q0.203125 0.078125 0.34375 0.234375q0.15625 0.140625 0.234375 0.328125q0.078125 0.1875 0.078125 0.421875q0 0.21875 -0.078125 0.421875q-0.078125 0.1875 -0.234375 0.34375q-0.140625 0.140625 -0.34375 0.21875q-0.1875 0.078125 -0.40625 0.078125q-0.234375 0 -0.4375 -0.078125q-0.1875 -0.078125 -0.328125 -0.21875q-0.140625 -0.15625 -0.234375 -0.34375q-0.078125 -0.203125 -0.078125 -0.421875q0 -0.234375 0.078125 -0.421875q0.09375 -0.1875 0.234375 -0.328125q0.140625 -0.15625 0.328125 -0.234375q0.203125 -0.09375 0.4375 -0.09375zm8.3125 1.21875l-2.3125 0l0 -1.125l3.6875 0l0 9.90625l2.34375 0l0 1.140625l-6.296875 0l0 -1.140625l2.578125 0l0 -8.78125zm12.75 5.578125q0 0.296875 -0.015625 0.5q0 0.1875 -0.015625 0.359375l-5.5 0q0 1.203125 0.671875 1.84375q0.671875 0.640625 1.9375 0.640625q0.34375 0 0.6875 -0.015625q0.34375 -0.03125 0.65625 -0.078125q0.328125 -0.046875 0.609375 -0.109375q0.296875 -0.0625 0.546875 -0.125l0 1.109375q-0.546875 0.15625 -1.25 0.25q-0.703125 0.109375 -1.453125 0.109375q-1.0 0 -1.734375 -0.265625q-0.71875 -0.28125 -1.1875 -0.796875q-0.46875 -0.53125 -0.6875 -1.28125q-0.21875 -0.75 -0.21875 -1.703125q0 -0.828125 0.234375 -1.5625q0.234375 -0.75 0.6875 -1.296875q0.46875 -0.5625 1.125 -0.890625q0.671875 -0.328125 1.515625 -0.328125q0.8125 0 1.4375 0.265625q0.640625 0.25 1.078125 0.71875q0.4375 0.46875 0.65625 1.15625q0.21875 0.671875 0.21875 1.5zm-1.40625 -0.1875q0.015625 -0.53125 -0.109375 -0.953125q-0.125 -0.4375 -0.390625 -0.75q-0.25 -0.3125 -0.640625 -0.484375q-0.390625 -0.1875 -0.90625 -0.1875q-0.453125 0 -0.828125 0.171875q-0.359375 0.171875 -0.625 0.484375q-0.265625 0.3125 -0.4375 0.75q-0.15625 0.4375 -0.1875 0.96875l4.125 0zm8.28125 7.8125q-3.609375 -3.34375 -3.609375 -7.375q0 -0.953125 0.1875 -1.890625q0.203125 -0.9375 0.625 -1.875q0.421875 -0.953125 1.125 -1.890625q0.703125 -0.953125 1.703125 -1.890625l0.78125 0.8125q-3.03125 2.984375 -3.03125 6.625q0 1.8125 0.765625 3.5q0.765625 1.671875 2.265625 3.15625l-0.8125 0.828125z" fill-rule="nonzero"/><path fill="#010000" fill-opacity="0.0" d="m361.06998 56.347008l43.984375 0l0 18.734375l-43.984375 0l0 -18.734375z" fill-rule="nonzero"/><path fill="#595959" d="m369.00748 65.16732q0 0.734375 -0.28125 1.3125q-0.28125 0.5625 -0.8125 0.953125q-0.53125 0.390625 -1.28125 0.59375q-0.734375 0.203125 -1.65625 0.203125l-2.671875 0l0 -10.21875l2.921875 0q3.421875 0 3.421875 2.484375q0 0.828125 -0.40625 1.421875q-0.390625 0.59375 -1.28125 0.890625q0.421875 0.078125 0.78125 0.265625q0.375 0.1875 0.65625 0.484375q0.28125 0.296875 0.4375 0.703125q0.171875 0.40625 0.171875 0.90625zm-1.8125 -4.484375q0 -0.3125 -0.09375 -0.578125q-0.09375 -0.28125 -0.328125 -0.484375q-0.234375 -0.203125 -0.640625 -0.3125q-0.390625 -0.125 -1.0 -0.125l-1.4375 0l0 3.203125l1.390625 0q0.484375 0 0.859375 -0.09375q0.390625 -0.109375 0.671875 -0.3125q0.28125 -0.21875 0.421875 -0.53125q0.15625 -0.328125 0.15625 -0.765625zm0.34375 4.53125q0 -0.390625 -0.171875 -0.703125q-0.15625 -0.3125 -0.46875 -0.515625q-0.3125 -0.21875 -0.765625 -0.328125q-0.453125 -0.125 -1.015625 -0.125l-1.421875 0l0 3.515625l1.46875 0q1.203125 0 1.78125 -0.4375q0.59375 -0.453125 0.59375 -1.40625zm10.125 3.015625l-6.421875 0l0 -1.265625l2.625 0l0 -7.453125l-2.4375 1.328125l-0.5 -1.15625l3.25 -1.71875l1.203125 0l0 9.0l2.28125 0l0 1.265625zm6.953125 3.28125q-3.609375 -3.34375 -3.609375 -7.375q0 -0.953125 0.1875 -1.890625q0.203125 -0.9375 0.625 -1.875q0.421875 -0.953125 1.125 -1.890625q0.703125 -0.953125 1.703125 -1.890625l0.78125 0.8125q-3.03125 2.984375 -3.03125 6.625q0 1.8125 0.765625 3.5q0.765625 1.671875 2.265625 3.15625l-0.8125 0.828125zm11.171875 -3.28125l-1.8125 0l-2.109375 -3.0l-2.09375 3.0l-1.765625 0l3.046875 -3.9375l-2.90625 -3.90625l1.75 0l2.0625 3.015625l2.015625 -3.015625l1.6875 0l-2.953125 3.9375l3.078125 3.90625zm3.328125 -11.640625q3.59375 3.34375 3.59375 7.421875q0 0.84375 -0.171875 1.75q-0.171875 0.90625 -0.59375 1.859375q-0.40625 0.953125 -1.109375 1.921875q-0.6875 0.984375 -1.75 1.96875l-0.796875 -0.796875q1.53125 -1.515625 2.28125 -3.15625q0.75 -1.640625 0.75 -3.4375q0 -3.71875 -3.03125 -6.6875l0.828125 -0.84375z" fill-rule="nonzero"/><path fill="#595959" d="m407.91373 56.589195q3.59375 3.34375 3.59375 7.421875q0 0.84375 -0.171875 1.75q-0.171875 0.90625 -0.59375 1.859375q-0.40625 0.953125 -1.109375 1.921875q-0.6875 0.984375 -1.75 1.96875l-0.796875 -0.796875q1.53125 -1.515625 2.28125 -3.15625q0.75 -1.640625 0.75 -3.4375q0 -3.71875 -3.03125 -6.6875l0.828125 -0.84375zm12.953125 14.84375l-0.578125 0q-1.515625 0 -2.25 -0.703125q-0.734375 -0.703125 -0.734375 -2.140625l0 -2.703125q0 -0.375 -0.09375 -0.671875q-0.078125 -0.3125 -0.296875 -0.515625q-0.203125 -0.203125 -0.5625 -0.3125q-0.359375 -0.109375 -0.890625 -0.109375l-0.34375 0l0 -1.09375l0.34375 0q0.5625 0 0.921875 -0.09375q0.359375 -0.09375 0.5625 -0.28125q0.203125 -0.1875 0.28125 -0.484375q0.078125 -0.296875 0.078125 -0.703125l0 -1.859375q0 -0.65625 0.15625 -1.171875q0.15625 -0.53125 0.515625 -0.90625q0.359375 -0.375 0.921875 -0.5625q0.5625 -0.203125 1.390625 -0.203125l0.578125 0l0 1.09375l-0.46875 0q-1.8125 0 -1.8125 1.75l0 1.828125q0 1.90625 -1.640625 2.140625q1.65625 0.171875 1.65625 2.140625l0 2.6875q0 1.78125 1.796875 1.78125l0.46875 0l0 1.09375z" fill-rule="nonzero"/><path fill="#fff2cc" d="m356.28873 129.6698l43.984375 0l0 19.199997l-43.984375 0l0 -19.199997z" fill-rule="nonzero"/><path fill="#000000" fill-opacity="0.0" d="m356.28873 133.14699l43.984375 0l0 18.734375l-43.984375 0l0 -18.734375z" fill-rule="nonzero"/><path fill="#595959" d="m364.22623 141.9673q0 0.734375 -0.28125 1.3125q-0.28125 0.5625 -0.8125 0.953125q-0.53125 0.390625 -1.28125 0.59375q-0.734375 0.203125 -1.65625 0.203125l-2.671875 0l0 -10.21875l2.921875 0q3.421875 0 3.421875 2.484375q0 0.828125 -0.40625 1.421875q-0.390625 0.59375 -1.28125 0.890625q0.421875 0.078125 0.78125 0.265625q0.375 0.1875 0.65625 0.484375q0.28125 0.296875 0.4375 0.703125q0.171875 0.40625 0.171875 0.90625zm-1.8125 -4.484375q0 -0.3125 -0.09375 -0.578125q-0.09375 -0.28125 -0.328125 -0.484375q-0.234375 -0.203125 -0.640625 -0.3125q-0.390625 -0.125 -1.0 -0.125l-1.4375 0l0 3.203125l1.390625 0q0.484375 0 0.859375 -0.09375q0.390625 -0.109375 0.671875 -0.3125q0.28125 -0.21875 0.421875 -0.53125q0.15625 -0.328125 0.15625 -0.765625zm0.34375 4.53125q0 -0.390625 -0.171875 -0.703125q-0.15625 -0.3125 -0.46875 -0.515625q-0.3125 -0.21875 -0.765625 -0.328125q-0.453125 -0.125 -1.015625 -0.125l-1.421875 0l0 3.515625l1.46875 0q1.203125 0 1.78125 -0.4375q0.59375 -0.453125 0.59375 -1.40625zm10.203125 3.015625l-6.71875 0l0 -1.21875l2.640625 -2.625q0.640625 -0.640625 1.046875 -1.109375q0.40625 -0.46875 0.625 -0.859375q0.234375 -0.390625 0.3125 -0.734375q0.078125 -0.34375 0.078125 -0.734375q0 -0.375 -0.109375 -0.71875q-0.09375 -0.34375 -0.3125 -0.59375q-0.203125 -0.265625 -0.546875 -0.40625q-0.328125 -0.15625 -0.796875 -0.15625q-0.640625 0 -1.171875 0.296875q-0.53125 0.28125 -0.984375 0.75l-0.75 -0.90625q0.578125 -0.609375 1.328125 -0.96875q0.765625 -0.375 1.765625 -0.375q0.671875 0 1.234375 0.203125q0.5625 0.203125 0.96875 0.59375q0.40625 0.375 0.625 0.9375q0.21875 0.546875 0.21875 1.25q0 0.578125 -0.15625 1.078125q-0.15625 0.5 -0.46875 1.0q-0.3125 0.5 -0.796875 1.03125q-0.484375 0.53125 -1.140625 1.15625l-1.84375 1.8125l4.953125 0l0 1.296875zm6.875 3.28125q-3.609375 -3.34375 -3.609375 -7.375q0 -0.953125 0.1875 -1.890625q0.203125 -0.9375 0.625 -1.875q0.421875 -0.953125 1.125 -1.890625q0.703125 -0.953125 1.703125 -1.890625l0.78125 0.8125q-3.03125 2.984375 -3.03125 6.625q0 1.8125 0.765625 3.5q0.765625 1.671875 2.265625 3.15625l-0.8125 0.828125zm11.171875 -3.28125l-1.8125 0l-2.109375 -3.0l-2.09375 3.0l-1.765625 0l3.046875 -3.9375l-2.90625 -3.90625l1.75 0l2.0625 3.015625l2.015625 -3.015625l1.6875 0l-2.953125 3.9375l3.078125 3.90625zm3.328125 -11.640625q3.59375 3.34375 3.59375 7.421875q0 0.84375 -0.171875 1.75q-0.171875 0.90625 -0.59375 1.859375q-0.40625 0.953125 -1.109375 1.921875q-0.6875 0.984375 -1.75 1.96875l-0.796875 -0.796875q1.53125 -1.515625 2.28125 -3.15625q0.75 -1.640625 0.75 -3.4375q0 -3.71875 -3.03125 -6.6875l0.828125 -0.84375z" fill-rule="nonzero"/><path fill="#595959" d="m310.0856 229.71729l0.578125 0q1.5 0 2.234375 0.703125q0.734375 0.703125 0.734375 2.140625l0 1.8125q0 0.375 0.078125 0.6875q0.09375 0.296875 0.3125 0.5q0.21875 0.203125 0.578125 0.3125q0.359375 0.109375 0.890625 0.109375l0.34375 0l0 1.09375l-0.34375 0q-0.5625 0 -0.9375 0.09375q-0.359375 0.09375 -0.5625 0.28125q-0.203125 0.1875 -0.28125 0.484375q-0.078125 0.296875 -0.078125 0.703125l0 2.75q0 0.65625 -0.15625 1.171875q-0.15625 0.53125 -0.515625 0.90625q-0.34375 0.375 -0.921875 0.5625q-0.5625 0.203125 -1.375 0.203125l-0.578125 0l0 -1.09375l0.46875 0q1.796875 0 1.796875 -1.75l0 -2.71875q0 -1.90625 1.65625 -2.140625q-1.671875 -0.171875 -1.671875 -2.140625l0 -1.796875q0 -1.78125 -1.78125 -1.78125l-0.46875 0l0 -1.09375z" fill-rule="nonzero"/><path fill="#c9daf8" d="m308.28873 264.06976l43.984375 0l0 19.200012l-43.984375 0l0 -19.200012z" fill-rule="nonzero"/><path fill="#000000" fill-opacity="0.0" d="m308.28873 267.54697l43.984375 0l0 18.734375l-43.984375 0l0 -18.734375z" fill-rule="nonzero"/><path fill="#595959" d="m316.06998 279.03915q-1.234375 0.515625 -2.578125 0.515625q-2.15625 0 -3.328125 -1.296875q-1.15625 -1.296875 -1.15625 -3.828125q0 -1.21875 0.3125 -2.203125q0.328125 -1.0 0.921875 -1.6875q0.59375 -0.703125 1.4375 -1.078125q0.84375 -0.375 1.890625 -0.375q0.71875 0 1.328125 0.125q0.609375 0.125 1.171875 0.375l0 1.359375q-0.5625 -0.296875 -1.15625 -0.453125q-0.59375 -0.171875 -1.296875 -0.171875q-0.71875 0 -1.296875 0.28125q-0.578125 0.265625 -0.984375 0.78125q-0.40625 0.5 -0.625 1.25q-0.21875 0.734375 -0.21875 1.671875q0 1.984375 0.796875 3.0q0.8125 1.0 2.359375 1.0q0.65625 0 1.25 -0.140625q0.609375 -0.15625 1.171875 -0.4375l0 1.3125zm6.96875 3.671875q-3.609375 -3.34375 -3.609375 -7.375q0 -0.953125 0.1875 -1.890625q0.203125 -0.9375 0.625 -1.875q0.421875 -0.953125 1.125 -1.890625q0.703125 -0.953125 1.703125 -1.890625l0.78125 0.8125q-3.03125 2.984375 -3.03125 6.625q0 1.8125 0.765625 3.5q0.765625 1.671875 2.265625 3.15625l-0.8125 0.828125zm11.171875 -3.28125l-1.8125 0l-2.109375 -3.0l-2.09375 3.0l-1.765625 0l3.046875 -3.9375l-2.90625 -3.90625l1.75 0l2.0625 3.015625l2.015625 -3.015625l1.6875 0l-2.953125 3.9375l3.078125 3.90625zm3.328125 -11.640625q3.59375 3.34375 3.59375 7.421875q0 0.84375 -0.171875 1.75q-0.171875 0.90625 -0.59375 1.859375q-0.40625 0.953125 -1.109375 1.921875q-0.6875 0.984375 -1.75 1.96875l-0.796875 -0.796875q1.53125 -1.515625 2.28125 -3.15625q0.75 -1.640625 0.75 -3.4375q0 -3.71875 -3.03125 -6.6875l0.828125 -0.84375zm7.890625 13.25q0.40625 0.015625 0.78125 -0.078125q0.375 -0.078125 0.65625 -0.25q0.28125 -0.171875 0.453125 -0.421875q0.171875 -0.25 0.171875 -0.5625q0 -0.34375 -0.109375 -0.546875q-0.109375 -0.203125 -0.25 -0.375q-0.140625 -0.171875 -0.265625 -0.359375q-0.109375 -0.203125 -0.109375 -0.53125q0 -0.15625 0.0625 -0.328125q0.0625 -0.1875 0.1875 -0.328125q0.140625 -0.15625 0.328125 -0.25q0.203125 -0.09375 0.484375 -0.09375q0.265625 0 0.515625 0.109375q0.265625 0.109375 0.453125 0.34375q0.1875 0.234375 0.296875 0.59375q0.125 0.34375 0.125 0.828125q0 0.65625 -0.25 1.25q-0.234375 0.59375 -0.703125 1.046875q-0.46875 0.46875 -1.1875 0.734375q-0.703125 0.28125 -1.640625 0.28125l0 -1.0625zm2.453125 -9.59375q0.234375 0 0.453125 0.09375q0.21875 0.09375 0.375 0.265625q0.171875 0.15625 0.265625 0.375q0.109375 0.21875 0.109375 0.46875q0 0.25 -0.109375 0.46875q-0.09375 0.203125 -0.265625 0.375q-0.15625 0.15625 -0.375 0.25q-0.21875 0.09375 -0.453125 0.09375q-0.25 0 -0.46875 -0.09375q-0.21875 -0.09375 -0.390625 -0.25q-0.15625 -0.171875 -0.25 -0.375q-0.09375 -0.21875 -0.09375 -0.46875q0 -0.25 0.09375 -0.46875q0.09375 -0.21875 0.25 -0.375q0.171875 -0.171875 0.390625 -0.265625q0.21875 -0.09375 0.46875 -0.09375z" fill-rule="nonzero"/><path fill="#000000" fill-opacity="0.0" d="m352.2731 267.54697l0 0l0 18.734375l0 0l0 -18.734375z" fill-rule="nonzero"/><path fill="#f4cccc" d="m493.39633 19.031496l14.393707 0l0 11.514961l-7.196869 2.8787403l-7.1968384 -2.8787403z" fill-rule="evenodd"/><path stroke="#000000" stroke-width="2.0" stroke-linejoin="round" stroke-linecap="butt" d="m493.39633 19.031496l14.393707 0l0 11.514961l-7.196869 2.8787403l-7.1968384 -2.8787403z" fill-rule="evenodd"/><path fill="#f4cccc" d="m507.79535 19.031496l14.393677 0l0 11.514961l-7.1968384 2.8787403l-7.1968384 -2.8787403z" fill-rule="evenodd"/><path stroke="#000000" stroke-width="2.0" stroke-linejoin="round" stroke-linecap="butt" d="m507.79535 19.031496l14.393677 0l0 11.514961l-7.1968384 2.8787403l-7.1968384 -2.8787403z" fill-rule="evenodd"/><path fill="#f4cccc" d="m522.19434 19.031496l14.393738 0l0 11.514961l-7.1968384 2.8787403l-7.1968994 -2.8787403z" fill-rule="evenodd"/><path stroke="#000000" stroke-width="2.0" stroke-linejoin="round" stroke-linecap="butt" d="m522.19434 19.031496l14.393738 0l0 11.514961l-7.1968384 2.8787403l-7.1968994 -2.8787403z" fill-rule="evenodd"/><path fill="#f4cccc" d="m536.5934 19.031496l14.393677 0l0 11.514961l-7.1968384 2.8787403l-7.1968384 -2.8787403z" fill-rule="evenodd"/><path stroke="#000000" stroke-width="2.0" stroke-linejoin="round" stroke-linecap="butt" d="m536.5934 19.031496l14.393677 0l0 11.514961l-7.1968384 2.8787403l-7.1968384 -2.8787403z" fill-rule="evenodd"/><path fill="#f4cccc" d="m550.9908 19.031496l14.393738 0l0 11.514961l-7.1968384 2.8787403l-7.1968994 -2.8787403z" fill-rule="evenodd"/><path stroke="#000000" stroke-width="2.0" stroke-linejoin="round" stroke-linecap="butt" d="m550.9908 19.031496l14.393738 0l0 11.514961l-7.1968384 2.8787403l-7.1968994 -2.8787403z" fill-rule="evenodd"/><path fill="#f4cccc" d="m565.38983 19.031496l14.393677 0l0 11.514961l-7.1968384 2.8787403l-7.1968384 -2.8787403z" fill-rule="evenodd"/><path stroke="#000000" stroke-width="2.0" stroke-linejoin="round" stroke-linecap="butt" d="m565.38983 19.031496l14.393677 0l0 11.514961l-7.1968384 2.8787403l-7.1968384 -2.8787403z" fill-rule="evenodd"/><path fill="#f4cccc" d="m579.7888 19.031496l14.393738 0l0 11.514961l-7.1968384 2.8787403l-7.1968994 -2.8787403z" fill-rule="evenodd"/><path stroke="#000000" stroke-width="2.0" stroke-linejoin="round" stroke-linecap="butt" d="m579.7888 19.031496l14.393738 0l0 11.514961l-7.1968384 2.8787403l-7.1968994 -2.8787403z" fill-rule="evenodd"/><path fill="#f4cccc" d="m594.18787 19.031496l14.393677 0l0 11.514961l-7.1968384 2.8787403l-7.1968384 -2.8787403z" fill-rule="evenodd"/><path stroke="#000000" stroke-width="2.0" stroke-linejoin="round" stroke-linecap="butt" d="m594.18787 19.031496l14.393677 0l0 11.514961l-7.1968384 2.8787403l-7.1968384 -2.8787403z" fill-rule="evenodd"/><path fill="#c9daf8" d="m493.39633 270.62204l14.393707 0l0 11.514954l-7.196869 2.8787537l-7.1968384 -2.8787537z" fill-rule="evenodd"/><path stroke="#000000" stroke-width="2.0" stroke-linejoin="round" stroke-linecap="butt" d="m493.39633 270.62204l14.393707 0l0 11.514954l-7.196869 2.8787537l-7.1968384 -2.8787537z" fill-rule="evenodd"/><path fill="#c9daf8" d="m507.79535 270.62204l14.393677 0l0 11.514954l-7.1968384 2.8787537l-7.1968384 -2.8787537z" fill-rule="evenodd"/><path stroke="#000000" stroke-width="2.0" stroke-linejoin="round" stroke-linecap="butt" d="m507.79535 270.62204l14.393677 0l0 11.514954l-7.1968384 2.8787537l-7.1968384 -2.8787537z" fill-rule="evenodd"/><path fill="#c9daf8" d="m522.19434 270.62204l14.393738 0l0 11.514954l-7.1968384 2.8787537l-7.1968994 -2.8787537z" fill-rule="evenodd"/><path stroke="#000000" stroke-width="2.0" stroke-linejoin="round" stroke-linecap="butt" d="m522.19434 270.62204l14.393738 0l0 11.514954l-7.1968384 2.8787537l-7.1968994 -2.8787537z" fill-rule="evenodd"/><path fill="#c9daf8" d="m536.5934 270.62204l14.393677 0l0 11.514954l-7.1968384 2.8787537l-7.1968384 -2.8787537z" fill-rule="evenodd"/><path stroke="#000000" stroke-width="2.0" stroke-linejoin="round" stroke-linecap="butt" d="m536.5934 270.62204l14.393677 0l0 11.514954l-7.1968384 2.8787537l-7.1968384 -2.8787537z" fill-rule="evenodd"/><path fill="#c9daf8" d="m550.9908 270.62204l14.393738 0l0 11.514954l-7.1968384 2.8787537l-7.1968994 -2.8787537z" fill-rule="evenodd"/><path stroke="#000000" stroke-width="2.0" stroke-linejoin="round" stroke-linecap="butt" d="m550.9908 270.62204l14.393738 0l0 11.514954l-7.1968384 2.8787537l-7.1968994 -2.8787537z" fill-rule="evenodd"/><path fill="#c9daf8" d="m565.38983 270.62204l14.393677 0l0 11.514954l-7.1968384 2.8787537l-7.1968384 -2.8787537z" fill-rule="evenodd"/><path stroke="#000000" stroke-width="2.0" stroke-linejoin="round" stroke-linecap="butt" d="m565.38983 270.62204l14.393677 0l0 11.514954l-7.1968384 2.8787537l-7.1968384 -2.8787537z" fill-rule="evenodd"/><path fill="#c9daf8" d="m579.7888 270.62204l14.393738 0l0 11.514954l-7.1968384 2.8787537l-7.1968994 -2.8787537z" fill-rule="evenodd"/><path stroke="#000000" stroke-width="2.0" stroke-linejoin="round" stroke-linecap="butt" d="m579.7888 270.62204l14.393738 0l0 11.514954l-7.1968384 2.8787537l-7.1968994 -2.8787537z" fill-rule="evenodd"/><path fill="#c9daf8" d="m594.18787 270.62204l14.393677 0l0 11.514954l-7.1968384 2.8787537l-7.1968384 -2.8787537z" fill-rule="evenodd"/><path stroke="#000000" stroke-width="2.0" stroke-linejoin="round" stroke-linecap="butt" d="m594.18787 270.62204l14.393677 0l0 11.514954l-7.1968384 2.8787537l-7.1968384 -2.8787537z" fill-rule="evenodd"/><path fill="#fff2cc" d="m493.39633 66.83202l14.393707 0l0 11.514961l-7.196869 2.8787384l-7.1968384 -2.8787384z" fill-rule="evenodd"/><path stroke="#000000" stroke-width="2.0" stroke-linejoin="round" stroke-linecap="butt" d="m493.39633 66.83202l14.393707 0l0 11.514961l-7.196869 2.8787384l-7.1968384 -2.8787384z" fill-rule="evenodd"/><path fill="#fff2cc" d="m507.79535 66.83202l14.393677 0l0 11.514961l-7.1968384 2.8787384l-7.1968384 -2.8787384z" fill-rule="evenodd"/><path stroke="#000000" stroke-width="2.0" stroke-linejoin="round" stroke-linecap="butt" d="m507.79535 66.83202l14.393677 0l0 11.514961l-7.1968384 2.8787384l-7.1968384 -2.8787384z" fill-rule="evenodd"/><path fill="#fff2cc" d="m522.19434 66.83202l14.393738 0l0 11.514961l-7.1968384 2.8787384l-7.1968994 -2.8787384z" fill-rule="evenodd"/><path stroke="#000000" stroke-width="2.0" stroke-linejoin="round" stroke-linecap="butt" d="m522.19434 66.83202l14.393738 0l0 11.514961l-7.1968384 2.8787384l-7.1968994 -2.8787384z" fill-rule="evenodd"/><path fill="#fff2cc" d="m536.5934 66.83202l14.393677 0l0 11.514961l-7.1968384 2.8787384l-7.1968384 -2.8787384z" fill-rule="evenodd"/><path stroke="#000000" stroke-width="2.0" stroke-linejoin="round" stroke-linecap="butt" d="m536.5934 66.83202l14.393677 0l0 11.514961l-7.1968384 2.8787384l-7.1968384 -2.8787384z" fill-rule="evenodd"/><path fill="#fff2cc" d="m550.9908 66.83202l14.393738 0l0 11.514961l-7.1968384 2.8787384l-7.1968994 -2.8787384z" fill-rule="evenodd"/><path stroke="#000000" stroke-width="2.0" stroke-linejoin="round" stroke-linecap="butt" d="m550.9908 66.83202l14.393738 0l0 11.514961l-7.1968384 2.8787384l-7.1968994 -2.8787384z" fill-rule="evenodd"/><path fill="#fff2cc" d="m579.7888 66.83202l14.393738 0l0 11.514961l-7.1968384 2.8787384l-7.1968994 -2.8787384z" fill-rule="evenodd"/><path stroke="#000000" stroke-width="2.0" stroke-linejoin="round" stroke-linecap="butt" d="m579.7888 66.83202l14.393738 0l0 11.514961l-7.1968384 2.8787384l-7.1968994 -2.8787384z" fill-rule="evenodd"/><path fill="#fff2cc" d="m594.18787 66.83202l14.393677 0l0 11.514961l-7.1968384 2.8787384l-7.1968384 -2.8787384z" fill-rule="evenodd"/><path stroke="#000000" stroke-width="2.0" stroke-linejoin="round" stroke-linecap="butt" d="m594.18787 66.83202l14.393677 0l0 11.514961l-7.1968384 2.8787384l-7.1968384 -2.8787384z" fill-rule="evenodd"/><path fill="#fff2cc" d="m493.39633 105.8294l14.393707 0l0 11.514961l-7.196869 2.8787384l-7.1968384 -2.8787384z" fill-rule="evenodd"/><path stroke="#000000" stroke-width="2.0" stroke-linejoin="round" stroke-linecap="butt" d="m493.39633 105.8294l14.393707 0l0 11.514961l-7.196869 2.8787384l-7.1968384 -2.8787384z" fill-rule="evenodd"/><path fill="#fff2cc" d="m522.19434 105.8294l14.393738 0l0 11.514961l-7.1968384 2.8787384l-7.1968994 -2.8787384z" fill-rule="evenodd"/><path stroke="#000000" stroke-width="2.0" stroke-linejoin="round" stroke-linecap="butt" d="m522.19434 105.8294l14.393738 0l0 11.514961l-7.1968384 2.8787384l-7.1968994 -2.8787384z" fill-rule="evenodd"/><path fill="#fff2cc" d="m536.5934 105.8294l14.393677 0l0 11.514961l-7.1968384 2.8787384l-7.1968384 -2.8787384z" fill-rule="evenodd"/><path stroke="#000000" stroke-width="2.0" stroke-linejoin="round" stroke-linecap="butt" d="m536.5934 105.8294l14.393677 0l0 11.514961l-7.1968384 2.8787384l-7.1968384 -2.8787384z" fill-rule="evenodd"/><path fill="#fff2cc" d="m550.9908 105.8294l14.393738 0l0 11.514961l-7.1968384 2.8787384l-7.1968994 -2.8787384z" fill-rule="evenodd"/><path stroke="#000000" stroke-width="2.0" stroke-linejoin="round" stroke-linecap="butt" d="m550.9908 105.8294l14.393738 0l0 11.514961l-7.1968384 2.8787384l-7.1968994 -2.8787384z" fill-rule="evenodd"/><path fill="#fff2cc" d="m579.7888 105.8294l14.393738 0l0 11.514961l-7.1968384 2.8787384l-7.1968994 -2.8787384z" fill-rule="evenodd"/><path stroke="#000000" stroke-width="2.0" stroke-linejoin="round" stroke-linecap="butt" d="m579.7888 105.8294l14.393738 0l0 11.514961l-7.1968384 2.8787384l-7.1968994 -2.8787384z" fill-rule="evenodd"/><path fill="#fff2cc" d="m594.18787 105.8294l14.393677 0l0 11.514961l-7.1968384 2.8787384l-7.1968384 -2.8787384z" fill-rule="evenodd"/><path stroke="#000000" stroke-width="2.0" stroke-linejoin="round" stroke-linecap="butt" d="m594.18787 105.8294l14.393677 0l0 11.514961l-7.1968384 2.8787384l-7.1968384 -2.8787384z" fill-rule="evenodd"/><path fill="#fff2cc" d="m493.39633 144.82677l14.393707 0l0 11.514969l-7.196869 2.8787384l-7.1968384 -2.8787384z" fill-rule="evenodd"/><path stroke="#000000" stroke-width="2.0" stroke-linejoin="round" stroke-linecap="butt" d="m493.39633 144.82677l14.393707 0l0 11.514969l-7.196869 2.8787384l-7.1968384 -2.8787384z" fill-rule="evenodd"/><path fill="#fff2cc" d="m522.19434 144.82677l14.393738 0l0 11.514969l-7.1968384 2.8787384l-7.1968994 -2.8787384z" fill-rule="evenodd"/><path stroke="#000000" stroke-width="2.0" stroke-linejoin="round" stroke-linecap="butt" d="m522.19434 144.82677l14.393738 0l0 11.514969l-7.1968384 2.8787384l-7.1968994 -2.8787384z" fill-rule="evenodd"/><path fill="#fff2cc" d="m536.5934 144.82677l14.393677 0l0 11.514969l-7.1968384 2.8787384l-7.1968384 -2.8787384z" fill-rule="evenodd"/><path stroke="#000000" stroke-width="2.0" stroke-linejoin="round" stroke-linecap="butt" d="m536.5934 144.82677l14.393677 0l0 11.514969l-7.1968384 2.8787384l-7.1968384 -2.8787384z" fill-rule="evenodd"/><path fill="#fff2cc" d="m550.9908 144.82677l14.393738 0l0 11.514969l-7.1968384 2.8787384l-7.1968994 -2.8787384z" fill-rule="evenodd"/><path stroke="#000000" stroke-width="2.0" stroke-linejoin="round" stroke-linecap="butt" d="m550.9908 144.82677l14.393738 0l0 11.514969l-7.1968384 2.8787384l-7.1968994 -2.8787384z" fill-rule="evenodd"/><path fill="#fff2cc" d="m579.7888 144.82677l14.393738 0l0 11.514969l-7.1968384 2.8787384l-7.1968994 -2.8787384z" fill-rule="evenodd"/><path stroke="#000000" stroke-width="2.0" stroke-linejoin="round" stroke-linecap="butt" d="m579.7888 144.82677l14.393738 0l0 11.514969l-7.1968384 2.8787384l-7.1968994 -2.8787384z" fill-rule="evenodd"/><path fill="#fff2cc" d="m536.5934 183.82414l14.393677 0l0 11.514969l-7.1968384 2.8787384l-7.1968384 -2.8787384z" fill-rule="evenodd"/><path stroke="#000000" stroke-width="2.0" stroke-linejoin="round" stroke-linecap="butt" d="m536.5934 183.82414l14.393677 0l0 11.514969l-7.1968384 2.8787384l-7.1968384 -2.8787384z" fill-rule="evenodd"/><path fill="#fff2cc" d="m579.7888 183.82414l14.393738 0l0 11.514969l-7.1968384 2.8787384l-7.1968994 -2.8787384z" fill-rule="evenodd"/><path stroke="#000000" stroke-width="2.0" stroke-linejoin="round" stroke-linecap="butt" d="m579.7888 183.82414l14.393738 0l0 11.514969l-7.1968384 2.8787384l-7.1968994 -2.8787384z" fill-rule="evenodd"/><path fill="#fff2cc" d="m536.5934 222.82152l14.393677 0l0 11.514969l-7.1968384 2.8787384l-7.1968384 -2.8787384z" fill-rule="evenodd"/><path stroke="#000000" stroke-width="2.0" stroke-linejoin="round" stroke-linecap="butt" d="m536.5934 222.82152l14.393677 0l0 11.514969l-7.1968384 2.8787384l-7.1968384 -2.8787384z" fill-rule="evenodd"/><path fill="#fff2cc" d="m565.3898 66.83202l14.393677 0l0 11.514961l-7.1968384 2.8787384l-7.1968384 -2.8787384z" fill-rule="evenodd"/><path stroke="#000000" stroke-width="2.0" stroke-linejoin="round" stroke-linecap="butt" d="m565.3898 66.83202l14.393677 0l0 11.514961l-7.1968384 2.8787384l-7.1968384 -2.8787384z" fill-rule="evenodd"/><path fill="#000000" fill-opacity="0.0" d="m529.39124 81.22572l0 24.598427" fill-rule="evenodd"/><path stroke="#000000" stroke-width="1.0" stroke-linejoin="round" stroke-linecap="butt" d="m529.3912 81.22572l0 18.598427" fill-rule="evenodd"/><path fill="#000000" stroke="#000000" stroke-width="1.0" stroke-linecap="butt" d="m527.73944 99.82415l1.6517334 4.5380936l1.6517334 -4.5380936z" fill-rule="evenodd"/><path fill="#000000" fill-opacity="0.0" d="m500.59317 81.22572l0 24.598427" fill-rule="evenodd"/><path stroke="#000000" stroke-width="1.0" stroke-linejoin="round" stroke-linecap="butt" d="m500.59317 81.22572l0 18.598427" fill-rule="evenodd"/><path fill="#000000" stroke="#000000" stroke-width="1.0" stroke-linecap="butt" d="m498.94144 99.82415l1.6517334 4.5380936l1.6517334 -4.5380936z" fill-rule="evenodd"/><path fill="#000000" fill-opacity="0.0" d="m543.7902 81.22572l0 24.598427" fill-rule="evenodd"/><path stroke="#000000" stroke-width="1.0" stroke-linejoin="round" stroke-linecap="butt" d="m543.7902 81.22572l0 18.598427" fill-rule="evenodd"/><path fill="#000000" stroke="#000000" stroke-width="1.0" stroke-linecap="butt" d="m542.1385 99.82415l1.6517334 4.5380936l1.6517334 -4.5380936z" fill-rule="evenodd"/><path fill="#000000" fill-opacity="0.0" d="m558.1877 81.22572l0 24.598427" fill-rule="evenodd"/><path stroke="#000000" stroke-width="1.0" stroke-linejoin="round" stroke-linecap="butt" d="m558.1877 81.22572l0 18.598427" fill-rule="evenodd"/><path fill="#000000" stroke="#000000" stroke-width="1.0" stroke-linecap="butt" d="m556.53595 99.82415l1.6517334 4.5380936l1.6517334 -4.5380936z" fill-rule="evenodd"/><path fill="#000000" fill-opacity="0.0" d="m514.9922 81.23622l0 189.38582" fill-rule="evenodd"/><path stroke="#000000" stroke-width="1.0" stroke-linejoin="round" stroke-linecap="butt" stroke-dasharray="4.0,3.0" d="m514.9922 81.23622l0 183.38582" fill-rule="evenodd"/><path fill="#000000" stroke="#000000" stroke-width="1.0" stroke-linecap="butt" d="m513.34045 264.62204l1.6517334 4.5381165l1.6517334 -4.5381165z" fill-rule="evenodd"/><path fill="#000000" fill-opacity="0.0" d="m572.5866 81.22572l0 189.38582" fill-rule="evenodd"/><path stroke="#000000" stroke-width="1.0" stroke-linejoin="round" stroke-linecap="butt" stroke-dasharray="4.0,3.0" d="m572.5866 81.22572l0 183.38582" fill-rule="evenodd"/><path fill="#000000" stroke="#000000" stroke-width="1.0" stroke-linecap="butt" d="m570.9349 264.61154l1.6517334 4.5381165l1.6517334 -4.5381165z" fill-rule="evenodd"/><path fill="#000000" fill-opacity="0.0" d="m586.9857 81.22572l0 24.598427" fill-rule="evenodd"/><path stroke="#000000" stroke-width="1.0" stroke-linejoin="round" stroke-linecap="butt" d="m586.9857 81.22572l0 18.598427" fill-rule="evenodd"/><path fill="#000000" stroke="#000000" stroke-width="1.0" stroke-linecap="butt" d="m585.334 99.82415l1.6517334 4.5380936l1.6516724 -4.5380936z" fill-rule="evenodd"/><path fill="#000000" fill-opacity="0.0" d="m601.3847 81.22572l0 24.598427" fill-rule="evenodd"/><path stroke="#000000" stroke-width="1.0" stroke-linejoin="round" stroke-linecap="butt" d="m601.3847 81.22572l0 18.598427" fill-rule="evenodd"/><path fill="#000000" stroke="#000000" stroke-width="1.0" stroke-linecap="butt" d="m599.733 99.82415l1.6517334 4.5380936l1.6517334 -4.5380936z" fill-rule="evenodd"/><path fill="#000000" fill-opacity="0.0" d="m500.59317 120.22835l0 24.59842" fill-rule="evenodd"/><path stroke="#000000" stroke-width="1.0" stroke-linejoin="round" stroke-linecap="butt" d="m500.59317 120.22835l0 18.59842" fill-rule="evenodd"/><path fill="#000000" stroke="#000000" stroke-width="1.0" stroke-linecap="butt" d="m498.94144 138.82677l1.6517334 4.538101l1.6517334 -4.538101z" fill-rule="evenodd"/><path fill="#000000" fill-opacity="0.0" d="m529.39124 120.2231l0 24.59842" fill-rule="evenodd"/><path stroke="#000000" stroke-width="1.0" stroke-linejoin="round" stroke-linecap="butt" d="m529.3912 120.2231l0 18.59842" fill-rule="evenodd"/><path fill="#000000" stroke="#000000" stroke-width="1.0" stroke-linecap="butt" d="m527.73944 138.82152l1.6517334 4.538101l1.6517334 -4.538101z" fill-rule="evenodd"/><path fill="#000000" fill-opacity="0.0" d="m543.7902 120.2231l0 24.59842" fill-rule="evenodd"/><path stroke="#000000" stroke-width="1.0" stroke-linejoin="round" stroke-linecap="butt" d="m543.7902 120.2231l0 18.59842" fill-rule="evenodd"/><path fill="#000000" stroke="#000000" stroke-width="1.0" stroke-linecap="butt" d="m542.1385 138.82152l1.6517334 4.538101l1.6517334 -4.538101z" fill-rule="evenodd"/><path fill="#000000" fill-opacity="0.0" d="m558.1877 120.2231l0 24.59842" fill-rule="evenodd"/><path stroke="#000000" stroke-width="1.0" stroke-linejoin="round" stroke-linecap="butt" d="m558.1877 120.2231l0 18.59842" fill-rule="evenodd"/><path fill="#000000" stroke="#000000" stroke-width="1.0" stroke-linecap="butt" d="m556.53595 138.82152l1.6517334 4.538101l1.6517334 -4.538101z" fill-rule="evenodd"/><path fill="#000000" fill-opacity="0.0" d="m586.9857 120.2231l0 24.59842" fill-rule="evenodd"/><path stroke="#000000" stroke-width="1.0" stroke-linejoin="round" stroke-linecap="butt" d="m586.9857 120.2231l0 18.59842" fill-rule="evenodd"/><path fill="#000000" stroke="#000000" stroke-width="1.0" stroke-linecap="butt" d="m585.334 138.82152l1.6517334 4.538101l1.6516724 -4.538101z" fill-rule="evenodd"/><path fill="#000000" fill-opacity="0.0" d="m543.7902 159.22047l0 24.59842" fill-rule="evenodd"/><path stroke="#000000" stroke-width="1.0" stroke-linejoin="round" stroke-linecap="butt" d="m543.7902 159.22047l0 18.59842" fill-rule="evenodd"/><path fill="#000000" stroke="#000000" stroke-width="1.0" stroke-linecap="butt" d="m542.1385 177.8189l1.6517334 4.538101l1.6517334 -4.538101z" fill-rule="evenodd"/><path fill="#000000" fill-opacity="0.0" d="m586.9857 159.22047l0 24.59842" fill-rule="evenodd"/><path stroke="#000000" stroke-width="1.0" stroke-linejoin="round" stroke-linecap="butt" d="m586.9857 159.22047l0 18.59842" fill-rule="evenodd"/><path fill="#000000" stroke="#000000" stroke-width="1.0" stroke-linecap="butt" d="m585.334 177.8189l1.6517334 4.538101l1.6516724 -4.538101z" fill-rule="evenodd"/><path fill="#000000" fill-opacity="0.0" d="m543.7902 198.21785l0 24.59842" fill-rule="evenodd"/><path stroke="#000000" stroke-width="1.0" stroke-linejoin="round" stroke-linecap="butt" d="m543.7902 198.21785l0 18.59842" fill-rule="evenodd"/><path fill="#000000" stroke="#000000" stroke-width="1.0" stroke-linecap="butt" d="m542.1385 216.81627l1.6517334 4.538101l1.6517334 -4.538101z" fill-rule="evenodd"/><path fill="#000000" fill-opacity="0.0" d="m500.59317 159.22047l0 111.401566" fill-rule="evenodd"/><path stroke="#000000" stroke-width="1.0" stroke-linejoin="round" stroke-linecap="butt" stroke-dasharray="4.0,3.0" d="m500.59317 159.22047l0 105.401566" fill-rule="evenodd"/><path fill="#000000" stroke="#000000" stroke-width="1.0" stroke-linecap="butt" d="m498.94144 264.62204l1.6517334 4.5381165l1.6517334 -4.5381165z" fill-rule="evenodd"/><path fill="#000000" fill-opacity="0.0" d="m529.39124 159.22047l0 111.401566" fill-rule="evenodd"/><path stroke="#000000" stroke-width="1.0" stroke-linejoin="round" stroke-linecap="butt" stroke-dasharray="4.0,3.0" d="m529.3912 159.22047l0 105.401566" fill-rule="evenodd"/><path fill="#000000" stroke="#000000" stroke-width="1.0" stroke-linecap="butt" d="m527.73944 264.62204l1.6517334 4.5381165l1.6517334 -4.5381165z" fill-rule="evenodd"/><path fill="#000000" fill-opacity="0.0" d="m543.7902 237.20473l0 33.417313" fill-rule="evenodd"/><path stroke="#000000" stroke-width="1.0" stroke-linejoin="round" stroke-linecap="butt" d="m543.7902 237.20473l0 27.417313" fill-rule="evenodd"/><path fill="#000000" stroke="#000000" stroke-width="1.0" stroke-linecap="butt" d="m542.1385 264.62204l1.6517334 4.5381165l1.6517334 -4.5381165z" fill-rule="evenodd"/><path fill="#000000" fill-opacity="0.0" d="m558.1877 159.22047l0 111.401566" fill-rule="evenodd"/><path stroke="#000000" stroke-width="1.0" stroke-linejoin="round" stroke-linecap="butt" stroke-dasharray="4.0,3.0" d="m558.1877 159.22047l0 105.401566" fill-rule="evenodd"/><path fill="#000000" stroke="#000000" stroke-width="1.0" stroke-linecap="butt" d="m556.53595 264.62204l1.6517334 4.5381165l1.6517334 -4.5381165z" fill-rule="evenodd"/><path fill="#000000" fill-opacity="0.0" d="m586.9857 198.2126l0 72.40944" fill-rule="evenodd"/><path stroke="#000000" stroke-width="1.0" stroke-linejoin="round" stroke-linecap="butt" stroke-dasharray="4.0,3.0" d="m586.9857 198.2126l0 66.40944" fill-rule="evenodd"/><path fill="#000000" stroke="#000000" stroke-width="1.0" stroke-linecap="butt" d="m585.334 264.62204l1.6517334 4.5381165l1.6516724 -4.5381165z" fill-rule="evenodd"/><path fill="#000000" fill-opacity="0.0" d="m601.3847 120.22835l0 150.39369" fill-rule="evenodd"/><path stroke="#000000" stroke-width="1.0" stroke-linejoin="round" stroke-linecap="butt" stroke-dasharray="4.0,3.0" d="m601.3847 120.22835l0 144.39369" fill-rule="evenodd"/><path fill="#000000" stroke="#000000" stroke-width="1.0" stroke-linecap="butt" d="m599.733 264.62204l1.6517334 4.5381165l1.6517334 -4.5381165z" fill-rule="evenodd"/><path fill="#000000" fill-opacity="0.0" d="m500.59317 33.425198l0 33.417324" fill-rule="evenodd"/><path stroke="#000000" stroke-width="1.0" stroke-linejoin="round" stroke-linecap="butt" d="m500.59317 33.425198l0 27.41732" fill-rule="evenodd"/><path fill="#000000" stroke="#000000" stroke-width="1.0" stroke-linecap="butt" d="m498.94144 60.84252l1.6517334 4.5380936l1.6517334 -4.5380936z" fill-rule="evenodd"/><path fill="#000000" fill-opacity="0.0" d="m514.9922 33.425198l0 33.417324" fill-rule="evenodd"/><path stroke="#000000" stroke-width="1.0" stroke-linejoin="round" stroke-linecap="butt" d="m514.9922 33.425198l0 27.41732" fill-rule="evenodd"/><path fill="#000000" stroke="#000000" stroke-width="1.0" stroke-linecap="butt" d="m513.34045 60.84252l1.6517334 4.5380936l1.6517334 -4.5380936z" fill-rule="evenodd"/><path fill="#000000" fill-opacity="0.0" d="m529.39124 33.425198l0 33.417324" fill-rule="evenodd"/><path stroke="#000000" stroke-width="1.0" stroke-linejoin="round" stroke-linecap="butt" d="m529.3912 33.425198l0 27.41732" fill-rule="evenodd"/><path fill="#000000" stroke="#000000" stroke-width="1.0" stroke-linecap="butt" d="m527.73944 60.84252l1.6517334 4.5380936l1.6517334 -4.5380936z" fill-rule="evenodd"/><path fill="#000000" fill-opacity="0.0" d="m543.7902 33.425198l0 33.417324" fill-rule="evenodd"/><path stroke="#000000" stroke-width="1.0" stroke-linejoin="round" stroke-linecap="butt" d="m543.7902 33.425198l0 27.41732" fill-rule="evenodd"/><path fill="#000000" stroke="#000000" stroke-width="1.0" stroke-linecap="butt" d="m542.1385 60.84252l1.6517334 4.5380936l1.6517334 -4.5380936z" fill-rule="evenodd"/><path fill="#000000" fill-opacity="0.0" d="m558.1877 33.425198l0 33.417324" fill-rule="evenodd"/><path stroke="#000000" stroke-width="1.0" stroke-linejoin="round" stroke-linecap="butt" d="m558.1877 33.425198l0 27.41732" fill-rule="evenodd"/><path fill="#000000" stroke="#000000" stroke-width="1.0" stroke-linecap="butt" d="m556.53595 60.84252l1.6517334 4.5380936l1.6517334 -4.5380936z" fill-rule="evenodd"/><path fill="#000000" fill-opacity="0.0" d="m572.5867 33.425198l0 33.417324" fill-rule="evenodd"/><path stroke="#000000" stroke-width="1.0" stroke-linejoin="round" stroke-linecap="butt" d="m572.5867 33.425198l0 27.41732" fill-rule="evenodd"/><path fill="#000000" stroke="#000000" stroke-width="1.0" stroke-linecap="butt" d="m570.93494 60.84252l1.6517334 4.5380936l1.6517334 -4.5380936z" fill-rule="evenodd"/><path fill="#000000" fill-opacity="0.0" d="m586.9857 33.425198l0 33.417324" fill-rule="evenodd"/><path stroke="#000000" stroke-width="1.0" stroke-linejoin="round" stroke-linecap="butt" d="m586.9857 33.425198l0 27.41732" fill-rule="evenodd"/><path fill="#000000" stroke="#000000" stroke-width="1.0" stroke-linecap="butt" d="m585.334 60.84252l1.6517334 4.5380936l1.6516724 -4.5380936z" fill-rule="evenodd"/><path fill="#000000" fill-opacity="0.0" d="m601.3847 33.425198l0 33.417324" fill-rule="evenodd"/><path stroke="#000000" stroke-width="1.0" stroke-linejoin="round" stroke-linecap="butt" d="m601.3847 33.425198l0 27.41732" fill-rule="evenodd"/><path fill="#000000" stroke="#000000" stroke-width="1.0" stroke-linecap="butt" d="m599.733 60.84252l1.6517334 4.5380936l1.6517334 -4.5380936z" fill-rule="evenodd"/></g></svg>