<svg version="1.1" viewBox="0.0 0.0 531.1811023622047 499.257217847769" fill="none" stroke="none" stroke-linecap="square" stroke-miterlimit="10" xmlns:xlink="http://www.w3.org/1999/xlink" xmlns="http://www.w3.org/2000/svg"><clipPath id="p.0"><path d="m0 0l531.1811 0l0 499.25723l-531.1811 0l0 -499.25723z" clip-rule="nonzero"/></clipPath><g clip-path="url(#p.0)"><path fill="#000000" fill-opacity="0.0" d="m0 0l531.1811 0l0 499.25723l-531.1811 0z" fill-rule="evenodd"/><path fill="#ffffff" d="m0 0l531.1811 0l0 499.24408l-531.1811 0z" fill-rule="evenodd"/><path stroke="#000000" stroke-width="1.0" stroke-linejoin="round" stroke-linecap="butt" d="m0 0l531.1811 0l0 499.24408l-531.1811 0z" fill-rule="evenodd"/><path fill="#c9daf8" d="m108.36483 6.7227297l412.78738 0l0 278.3937l-412.78738 0z" fill-rule="evenodd"/><path stroke="#000000" stroke-width="2.0" stroke-linejoin="round" stroke-linecap="butt" d="m108.36483 6.7227297l412.78738 0l0 278.3937l-412.78738 0z" fill-rule="evenodd"/><path fill="#000000" d="m347.3095 272.03644l-2.03125 0l-4.453125 -5.84375l0 5.84375l-1.625 0l0 -11.90625l1.625 0l0 5.53125l4.359375 -5.53125l1.921875 0l-4.703125 5.65625l4.90625 6.25zm9.319794 0l-6.765625 0l0 -11.90625l6.765625 0l0 1.359375l-5.140625 0l0 3.703125l4.953125 0l0 1.359375l-4.953125 0l0 4.09375l5.140625 0l0 1.390625zm11.241669 0l-1.828125 0l-1.78125 -3.8125q-0.203125 -0.4375 -0.421875 -0.71875q-0.203125 -0.28125 -0.453125 -0.453125q-0.234375 -0.171875 -0.515625 -0.234375q-0.28125 -0.078125 -0.640625 -0.078125l-0.765625 0l0 5.296875l-1.625 0l0 -11.90625l3.1875 0q1.046875 0 1.78125 0.234375q0.75 0.21875 1.21875 0.640625q0.484375 0.40625 0.703125 0.984375q0.234375 0.578125 0.234375 1.28125q0 0.546875 -0.171875 1.046875q-0.15625 0.5 -0.484375 0.90625q-0.3125 0.40625 -0.796875 0.703125q-0.484375 0.28125 -1.09375 0.4375q0.5 0.171875 0.84375 0.609375q0.359375 0.421875 0.71875 1.140625l1.890625 3.921875zm-2.59375 -8.640625q0 -0.953125 -0.609375 -1.421875q-0.59375 -0.484375 -1.671875 -0.484375l-1.53125 0l0 3.9375l1.3125 0q0.578125 0 1.03125 -0.125q0.453125 -0.140625 0.78125 -0.390625q0.328125 -0.265625 0.5 -0.640625q0.1875 -0.375 0.1875 -0.875zm12.460419 8.640625l-2.125 0l-3.46875 -7.421875l-1.0 -2.390625l0 6.0l0 3.8125l-1.515625 0l0 -11.90625l2.09375 0l3.3125 7.03125l1.1875 2.71875l0 -6.375l0 -3.375l1.515625 0l0 11.90625zm9.663544 0l-6.765625 0l0 -11.90625l6.765625 0l0 1.359375l-5.140625 0l0 3.703125l4.953125 0l0 1.359375l-4.953125 0l0 4.09375l5.140625 0l0 1.390625zm10.632294 0l-6.84375 0l0 -11.90625l1.640625 0l0 10.515625l5.203125 0l0 1.390625zm21.139587 -6.078125q0 0.84375 -0.140625 1.640625q-0.125 0.78125 -0.421875 1.453125q-0.28125 0.671875 -0.75 1.21875q-0.46875 0.546875 -1.140625 0.953125q-0.671875 0.390625 -1.5625 0.609375q-0.890625 0.203125 -2.03125 0.203125l-2.546875 0l0 -11.90625l3.0625 0q2.78125 0 4.15625 1.4375q1.375 1.4375 1.375 4.390625zm-1.703125 0.109375q0 -1.265625 -0.234375 -2.140625q-0.234375 -0.875 -0.71875 -1.40625q-0.484375 -0.546875 -1.21875 -0.78125q-0.734375 -0.25 -1.703125 -0.25l-1.40625 0l0 9.140625l1.21875 0q4.0625 0 4.0625 -4.5625zm6.6791687 -4.578125l-2.75 0l0 -1.359375l7.125 0l0 1.359375l-2.734375 0l0 9.15625l2.734375 0l0 1.390625l-7.125 0l0 -1.390625l2.75 0l0 -9.15625zm15.022919 7.328125q0 0.84375 -0.34375 1.484375q-0.34375 0.625 -0.96875 1.0625q-0.609375 0.421875 -1.484375 0.625q-0.875 0.203125 -1.921875 0.203125q-0.46875 0 -0.9375 -0.03125q-0.46875 -0.03125 -0.90625 -0.09375q-0.421875 -0.046875 -0.8125 -0.109375q-0.375 -0.078125 -0.6875 -0.171875l0 -1.5625q0.671875 0.25 1.515625 0.40625q0.859375 0.140625 1.953125 0.140625q0.78125 0 1.328125 -0.125q0.5625 -0.125 0.90625 -0.359375q0.34375 -0.25 0.5 -0.59375q0.171875 -0.34375 0.171875 -0.796875q0 -0.46875 -0.28125 -0.8125q-0.265625 -0.34375 -0.703125 -0.609375q-0.4375 -0.28125 -1.0 -0.5q-0.546875 -0.21875 -1.140625 -0.453125q-0.578125 -0.234375 -1.140625 -0.515625q-0.5625 -0.28125 -1.0 -0.65625q-0.4375 -0.375 -0.703125 -0.890625q-0.265625 -0.515625 -0.265625 -1.21875q0 -0.609375 0.25 -1.1875q0.265625 -0.59375 0.796875 -1.046875q0.53125 -0.46875 1.375 -0.75q0.84375 -0.28125 2.015625 -0.28125q0.296875 0 0.640625 0.03125q0.359375 0.015625 0.71875 0.0625q0.359375 0.046875 0.703125 0.125q0.359375 0.0625 0.65625 0.125l0 1.46875q-0.703125 -0.203125 -1.40625 -0.3125q-0.6875 -0.109375 -1.34375 -0.109375q-1.40625 0 -2.0625 0.46875q-0.65625 0.46875 -0.65625 1.25q0 0.484375 0.265625 0.828125q0.28125 0.34375 0.71875 0.625q0.4375 0.265625 1.0 0.5q0.5625 0.21875 1.140625 0.453125q0.578125 0.234375 1.140625 0.515625q0.5625 0.28125 1.0 0.671875q0.4375 0.390625 0.703125 0.90625q0.265625 0.515625 0.265625 1.234375zm10.429169 -5.046875q0 0.734375 -0.28125 1.453125q-0.265625 0.703125 -0.84375 1.28125q-0.5625 0.5625 -1.453125 0.921875q-0.890625 0.34375 -2.140625 0.34375l-1.46875 0l0 4.265625l-1.625 0l0 -11.90625l3.359375 0q0.875 0 1.6875 0.203125q0.8125 0.1875 1.421875 0.625q0.625 0.4375 0.984375 1.140625q0.359375 0.6875 0.359375 1.671875zm-1.6875 0.078125q0 -1.15625 -0.75 -1.765625q-0.75 -0.609375 -2.09375 -0.609375l-1.65625 0l0 4.90625l1.515625 0q1.4375 0 2.203125 -0.625q0.78125 -0.640625 0.78125 -1.90625zm12.866669 8.1875l-1.765625 0l-0.84375 -2.59375l-4.953125 0l-0.828125 2.59375l-1.6875 0l3.953125 -11.90625l2.21875 0l3.90625 11.90625zm-3.0625 -4.046875l-2.015625 -6.359375l-2.015625 6.359375l4.03125 0zm12.616669 -6.46875l-3.515625 0l0 10.515625l-1.640625 0l0 -10.515625l-3.53125 0l0 -1.390625l8.6875 0l0 1.390625zm9.851044 10.0625q-1.421875 0.59375 -3.0 0.59375q-2.515625 0 -3.875 -1.5q-1.34375 -1.515625 -1.34375 -4.46875q0 -1.421875 0.359375 -2.578125q0.375 -1.15625 1.0625 -1.953125q0.703125 -0.8125 1.6875 -1.25q0.984375 -0.4375 2.203125 -0.4375q0.828125 0 1.53125 0.140625q0.71875 0.140625 1.375 0.421875l0 1.59375q-0.640625 -0.34375 -1.34375 -0.53125q-0.6875 -0.1875 -1.5 -0.1875q-0.84375 0 -1.53125 0.3125q-0.671875 0.3125 -1.15625 0.90625q-0.46875 0.59375 -0.71875 1.46875q-0.25 0.859375 -0.25 1.953125q0 2.3125 0.9375 3.5q0.9375 1.171875 2.75 1.171875q0.765625 0 1.46875 -0.171875q0.703125 -0.1875 1.34375 -0.515625l0 1.53125zm10.444794 0.453125l-1.609375 0l0 -5.46875l-5.015625 0l0 5.46875l-1.609375 0l0 -11.90625l1.609375 0l0 5.03125l5.015625 0l0 -5.03125l1.609375 0l0 11.90625zm20.452087 0l-2.125 0l-3.46875 -7.421875l-1.0 -2.390625l0 6.0l0 3.8125l-1.515625 0l0 -11.90625l2.09375 0l3.3125 7.03125l1.1875 2.71875l0 -6.375l0 -3.375l1.515625 0l0 11.90625z" fill-rule="nonzero"/><path fill="#ffe599" d="m117.96378 16.32273l124.78739 0l0 153.60631l-124.78739 0z" fill-rule="evenodd"/><path stroke="#000000" stroke-width="2.0" stroke-linejoin="round" stroke-linecap="butt" d="m117.96378 16.32273l124.78739 0l0 153.60631l-124.78739 0z" fill-rule="evenodd"/><path fill="#fff2cc" d="m7.7952676 6.7217846l81.24936 0l0 24.679878l38.530174 0l0 10.249254l-119.77953 0z" fill-rule="evenodd"/><path stroke="#000000" stroke-width="2.0" stroke-linejoin="round" stroke-linecap="butt" stroke-dasharray="2.0,6.0" d="m7.7952676 6.7217846l81.24936 0l0 24.679878l38.530174 0l0 10.249254l-119.77953 0z" fill-rule="evenodd"/><path fill="#000000" d="m26.639017 20.54004l-0.796875 11.90625l-2.109375 0l-1.46875 -4.234375l-0.40625 -1.359375l-0.4375 1.46875l-1.359375 4.125l-2.03125 0l-0.828125 -11.90625l1.53125 0l0.46875 8.09375l0.140625 2.234375l0.5625 -1.890625l1.453125 -4.421875l1.109375 0l1.65625 4.734375l0.5625 1.578125l0.03125 -1.640625l0.484375 -8.6875l1.4375 0zm10.585421 11.90625l-1.765625 0l-0.84375 -2.59375l-4.953127 0l-0.828125 2.59375l-1.6875 0l3.953125 -11.90625l2.218752 0l3.90625 11.90625zm-3.0625 -4.046875l-2.015625 -6.359375l-2.015627 6.359375l4.031252 0zm12.726044 4.046875l-1.828125 0l-1.78125 -3.8125q-0.203125 -0.4375 -0.421875 -0.71875q-0.203125 -0.28125 -0.453125 -0.453125q-0.234375 -0.171875 -0.515625 -0.234375q-0.28125 -0.078125 -0.640625 -0.078125l-0.765625 0l0 5.296875l-1.625 0l0 -11.90625l3.1875 0q1.046875 0 1.78125 0.234375q0.75 0.21875 1.21875 0.640625q0.484375 0.40625 0.703125 0.984375q0.234375 0.578125 0.234375 1.28125q0 0.546875 -0.171875 1.046875q-0.15625 0.5 -0.484375 0.90625q-0.3125 0.40625 -0.796875 0.703125q-0.484375 0.28125 -1.09375 0.4375q0.5 0.171875 0.84375 0.609375q0.359375 0.421875 0.71875 1.140625l1.890625 3.921875zm-2.59375 -8.640625q0 -0.953125 -0.609375 -1.421875q-0.59375 -0.484375 -1.671875 -0.484375l-1.53125 0l0 3.9375l1.3125 0q0.578125 0 1.03125 -0.125q0.453125 -0.140625 0.78125 -0.390625q0.328125 -0.265625 0.5 -0.640625q0.1875 -0.375 0.1875 -0.875zm12.522919 0.375q0 0.734375 -0.28125 1.453125q-0.265625 0.703125 -0.84375 1.28125q-0.5625 0.5625 -1.453125 0.921875q-0.890625 0.34375 -2.140625 0.34375l-1.46875 0l0 4.265625l-1.625 0l0 -11.90625l3.359375 0q0.875 0 1.6875 0.203125q0.8125 0.1875 1.421875 0.625q0.625 0.4375 0.984375 1.140625q0.359375 0.6875 0.359375 1.671875zm-1.6875 0.078125q0 -1.15625 -0.75 -1.765625q-0.75 -0.609375 -2.09375 -0.609375l-1.65625 0l0 4.90625l1.515625 0q1.4375 0 2.203125 -0.625q0.78125 -0.640625 0.78125 -1.90625z" fill-rule="nonzero"/><path fill="#fff2cc" d="m127.570885 24.306982l48.000008 0l0 134.3937l-48.000008 0z" fill-rule="evenodd"/><path stroke="#000000" stroke-width="2.0" stroke-linejoin="round" stroke-linecap="butt" stroke-dasharray="2.0,6.0" d="m127.570885 24.306982l48.000008 0l0 134.3937l-48.000008 0z" fill-rule="evenodd"/><path fill="#fff2cc" d="m108.12861 32.26509l43.212593 0l0 8.377953l-43.212593 0z" fill-rule="evenodd"/><path fill="#f4cccc" d="m146.77089 86.40462l-2.4015808 0l0 -50.88189l-4.8031464 0l0 50.88189l-2.4015808 0l4.8031616 4.803154z" fill-rule="evenodd"/><path stroke="#000000" stroke-width="1.0" stroke-linejoin="round" stroke-linecap="butt" d="m146.77089 86.40462l-2.4015808 0l0 -50.88189l-4.8031464 0l0 50.88189l-2.4015808 0l4.8031616 4.803154z" fill-rule="evenodd"/><path fill="#f4cccc" d="m156.37088 86.40462l-2.4015656 0l0 -50.88189l-4.8031464 0l0 50.88189l-2.4015808 0l4.8031464 4.803154z" fill-rule="evenodd"/><path stroke="#000000" stroke-width="1.0" stroke-linejoin="round" stroke-linecap="butt" d="m156.37088 86.40462l-2.4015656 0l0 -50.88189l-4.8031464 0l0 50.88189l-2.4015808 0l4.8031464 4.803154z" fill-rule="evenodd"/><path fill="#f4cccc" d="m165.97089 86.40462l-2.4015808 0l0 -50.88189l-4.8031464 0l0 50.88189l-2.4015656 0l4.8031464 4.803154z" fill-rule="evenodd"/><path stroke="#000000" stroke-width="1.0" stroke-linejoin="round" stroke-linecap="butt" d="m165.97089 86.40462l-2.4015808 0l0 -50.88189l-4.8031464 0l0 50.88189l-2.4015656 0l4.8031464 4.803154z" fill-rule="evenodd"/><path fill="#fff2cc" d="m185.16458 24.306982l48.0 0l0 134.3937l-48.0 0z" fill-rule="evenodd"/><path stroke="#000000" stroke-width="2.0" stroke-linejoin="round" stroke-linecap="butt" stroke-dasharray="2.0,6.0" d="m185.16458 24.306982l48.0 0l0 134.3937l-48.0 0z" fill-rule="evenodd"/><path fill="#000000" fill-opacity="0.0" d="m127.56483 93.28021l105.6063 0l0 -0.15748596l-105.6063 0z" fill-rule="evenodd"/><path stroke="#bf9000" stroke-width="2.0" stroke-linejoin="round" stroke-linecap="butt" d="m127.56483 93.28021l105.6063 0l0 -0.15748596l-105.6063 0z" fill-rule="evenodd"/><path fill="#000000" fill-opacity="0.0" d="m188.0294 64.48021l43.212585 0l0 -0.15747833l-43.212585 0z" fill-rule="evenodd"/><path stroke="#990000" stroke-width="2.0" stroke-linejoin="round" stroke-linecap="butt" d="m188.0294 64.48021l43.212585 0l0 -0.15747833l-43.212585 0z" fill-rule="evenodd"/><path fill="#f4cccc" d="m204.3646 57.58572l-2.4015808 0l0 -22.062992l-4.8031464 0l0 22.062992l-2.4015808 0l4.8031464 4.80315z" fill-rule="evenodd"/><path stroke="#000000" stroke-width="1.0" stroke-linejoin="round" stroke-linecap="butt" d="m204.3646 57.58572l-2.4015808 0l0 -22.062992l-4.8031464 0l0 22.062992l-2.4015808 0l4.8031464 4.80315z" fill-rule="evenodd"/><path fill="#f4cccc" d="m213.96458 57.58572l-2.4015656 0l0 -22.062992l-4.8031616 0l0 22.062992l-2.4015656 0l4.8031464 4.80315z" fill-rule="evenodd"/><path stroke="#000000" stroke-width="1.0" stroke-linejoin="round" stroke-linecap="butt" d="m213.96458 57.58572l-2.4015656 0l0 -22.062992l-4.8031616 0l0 22.062992l-2.4015656 0l4.8031464 4.80315z" fill-rule="evenodd"/><path fill="#f4cccc" d="m223.56459 57.58572l-2.4015808 0l0 -22.062992l-4.8031464 0l0 22.062992l-2.4015808 0l4.8031616 4.80315z" fill-rule="evenodd"/><path stroke="#000000" stroke-width="1.0" stroke-linejoin="round" stroke-linecap="butt" d="m223.56459 57.58572l-2.4015808 0l0 -22.062992l-4.8031464 0l0 22.062992l-2.4015808 0l4.8031616 4.80315z" fill-rule="evenodd"/><path fill="#ffe599" d="m252.36482 16.323847l124.7874 0l0 96.0l-124.7874 0z" fill-rule="evenodd"/><path stroke="#000000" stroke-width="2.0" stroke-linejoin="round" stroke-linecap="butt" d="m252.36482 16.323847l124.7874 0l0 96.0l-124.7874 0z" fill-rule="evenodd"/><path fill="#fff2cc" d="m261.96484 24.307625l48.0 0l0 76.7874l-48.0 0z" fill-rule="evenodd"/><path stroke="#000000" stroke-width="2.0" stroke-linejoin="round" stroke-linecap="butt" stroke-dasharray="2.0,6.0" d="m261.96484 24.307625l48.0 0l0 76.7874l-48.0 0z" fill-rule="evenodd"/><path fill="#f4cccc" d="m281.17114 88.32588l-2.4015808 0l0 -52.803154l-4.8031616 0l0 52.803154l-2.4015808 0l4.8031616 4.8031464z" fill-rule="evenodd"/><path stroke="#000000" stroke-width="1.0" stroke-linejoin="round" stroke-linecap="butt" d="m281.17114 88.32588l-2.4015808 0l0 -52.803154l-4.8031616 0l0 52.803154l-2.4015808 0l4.8031616 4.8031464z" fill-rule="evenodd"/><path fill="#f4cccc" d="m290.77112 88.32588l-2.4015503 0l0 -52.803154l-4.8031616 0l0 52.803154l-2.4015808 0l4.8031616 4.8031464z" fill-rule="evenodd"/><path stroke="#000000" stroke-width="1.0" stroke-linejoin="round" stroke-linecap="butt" d="m290.77112 88.32588l-2.4015503 0l0 -52.803154l-4.8031616 0l0 52.803154l-2.4015808 0l4.8031616 4.8031464z" fill-rule="evenodd"/><path fill="#f4cccc" d="m300.37112 88.32588l-2.4015808 0l0 -52.803154l-4.803131 0l0 52.803154l-2.4015808 0l4.8031616 4.8031464z" fill-rule="evenodd"/><path stroke="#000000" stroke-width="1.0" stroke-linejoin="round" stroke-linecap="butt" d="m300.37112 88.32588l-2.4015808 0l0 -52.803154l-4.803131 0l0 52.803154l-2.4015808 0l4.8031616 4.8031464z" fill-rule="evenodd"/><path fill="#fff2cc" d="m319.56482 24.307632l48.0 0l0 76.7874l-48.0 0z" fill-rule="evenodd"/><path stroke="#000000" stroke-width="2.0" stroke-linejoin="round" stroke-linecap="butt" stroke-dasharray="2.0,6.0" d="m319.56482 24.307632l48.0 0l0 76.7874l-48.0 0z" fill-rule="evenodd"/><path fill="#ffe599" d="m386.76483 16.32273l124.787415 0l0 124.78741l-124.787415 0z" fill-rule="evenodd"/><path stroke="#000000" stroke-width="2.0" stroke-linejoin="round" stroke-linecap="butt" d="m386.76483 16.32273l124.787415 0l0 124.78741l-124.787415 0z" fill-rule="evenodd"/><path fill="#fff2cc" d="m396.36484 25.92273l48.0 0l0 105.60629l-48.0 0z" fill-rule="evenodd"/><path stroke="#000000" stroke-width="2.0" stroke-linejoin="round" stroke-linecap="butt" stroke-dasharray="2.0,6.0" d="m396.36484 25.92273l48.0 0l0 105.60629l-48.0 0z" fill-rule="evenodd"/><path fill="#fff2cc" d="m453.96484 25.92273l48.0 0l0 105.60629l-48.0 0z" fill-rule="evenodd"/><path stroke="#000000" stroke-width="2.0" stroke-linejoin="round" stroke-linecap="butt" stroke-dasharray="2.0,6.0" d="m453.96484 25.92273l48.0 0l0 105.60629l-48.0 0z" fill-rule="evenodd"/><path fill="#000000" fill-opacity="0.0" d="m396.36484 93.28021l105.60629 0l0 -0.15748596l-105.60629 0z" fill-rule="evenodd"/><path stroke="#bf9000" stroke-width="2.0" stroke-linejoin="round" stroke-linecap="butt" d="m396.36484 93.28021l105.60629 0l0 -0.15748596l-105.60629 0z" fill-rule="evenodd"/><path fill="#f4cccc" d="m473.17114 86.40462l-2.4015808 0l0 -50.88189l-4.8031616 0l0 50.88189l-2.4015808 0l4.8031616 4.803154z" fill-rule="evenodd"/><path stroke="#000000" stroke-width="1.0" stroke-linejoin="round" stroke-linecap="butt" d="m473.17114 86.40462l-2.4015808 0l0 -50.88189l-4.8031616 0l0 50.88189l-2.4015808 0l4.8031616 4.803154z" fill-rule="evenodd"/><path fill="#f4cccc" d="m482.77112 86.40462l-2.4015503 0l0 -50.88189l-4.8031616 0l0 50.88189l-2.4015808 0l4.8031616 4.803154z" fill-rule="evenodd"/><path stroke="#000000" stroke-width="1.0" stroke-linejoin="round" stroke-linecap="butt" d="m482.77112 86.40462l-2.4015503 0l0 -50.88189l-4.8031616 0l0 50.88189l-2.4015808 0l4.8031616 4.803154z" fill-rule="evenodd"/><path fill="#f4cccc" d="m492.37112 86.40462l-2.4015808 0l0 -50.88189l-4.803131 0l0 50.88189l-2.4015808 0l4.8031616 4.803154z" fill-rule="evenodd"/><path stroke="#000000" stroke-width="1.0" stroke-linejoin="round" stroke-linecap="butt" d="m492.37112 86.40462l-2.4015808 0l0 -50.88189l-4.803131 0l0 50.88189l-2.4015808 0l4.8031616 4.803154z" fill-rule="evenodd"/><path fill="#f4cccc" d="m204.11842 86.38446l-2.4015656 0l0 -20.141731l-4.8031616 0l0 20.141731l-2.4015656 0l4.8031464 4.803154z" fill-rule="evenodd"/><path stroke="#000000" stroke-width="1.0" stroke-linejoin="round" stroke-linecap="butt" d="m204.11842 86.38446l-2.4015656 0l0 -20.141731l-4.8031616 0l0 20.141731l-2.4015656 0l4.8031464 4.803154z" fill-rule="evenodd"/><path fill="#f4cccc" d="m213.71843 86.38446l-2.4015808 0l0 -20.141731l-4.8031464 0l0 20.141731l-2.4015808 0l4.8031616 4.803154z" fill-rule="evenodd"/><path stroke="#000000" stroke-width="1.0" stroke-linejoin="round" stroke-linecap="butt" d="m213.71843 86.38446l-2.4015808 0l0 -20.141731l-4.8031464 0l0 20.141731l-2.4015808 0l4.8031616 4.803154z" fill-rule="evenodd"/><path fill="#f4cccc" d="m223.31842 86.38446l-2.4015656 0l0 -20.141731l-4.8031616 0l0 20.141731l-2.4015656 0l4.8031464 4.803154z" fill-rule="evenodd"/><path stroke="#000000" stroke-width="1.0" stroke-linejoin="round" stroke-linecap="butt" d="m223.31842 86.38446l-2.4015656 0l0 -20.141731l-4.8031616 0l0 20.141731l-2.4015656 0l4.8031464 4.803154z" fill-rule="evenodd"/><path fill="#f4cccc" d="m204.37112 145.92462l-2.4015656 0l0 -50.88189l-4.8031616 0l0 50.88189l-2.4015656 0l4.8031464 4.8031464z" fill-rule="evenodd"/><path stroke="#000000" stroke-width="1.0" stroke-linejoin="round" stroke-linecap="butt" d="m204.37112 145.92462l-2.4015656 0l0 -50.88189l-4.8031616 0l0 50.88189l-2.4015656 0l4.8031464 4.8031464z" fill-rule="evenodd"/><path fill="#f4cccc" d="m213.97113 145.92462l-2.4015808 0l0 -50.88189l-4.8031464 0l0 50.88189l-2.4015808 0l4.8031616 4.8031464z" fill-rule="evenodd"/><path stroke="#000000" stroke-width="1.0" stroke-linejoin="round" stroke-linecap="butt" d="m213.97113 145.92462l-2.4015808 0l0 -50.88189l-4.8031464 0l0 50.88189l-2.4015808 0l4.8031616 4.8031464z" fill-rule="evenodd"/><path fill="#f4cccc" d="m223.57112 145.92462l-2.4015656 0l0 -50.88189l-4.8031464 0l0 50.88189l-2.4015808 0l4.8031464 4.8031464z" fill-rule="evenodd"/><path stroke="#000000" stroke-width="1.0" stroke-linejoin="round" stroke-linecap="butt" d="m223.57112 145.92462l-2.4015656 0l0 -50.88189l-4.8031464 0l0 50.88189l-2.4015808 0l4.8031464 4.8031464z" fill-rule="evenodd"/><path fill="#f4cccc" d="m146.77113 115.18446l-2.4015808 0l0 -20.141731l-4.8031464 0l0 20.141731l-2.4015808 0l4.8031464 4.8031464z" fill-rule="evenodd"/><path stroke="#000000" stroke-width="1.0" stroke-linejoin="round" stroke-linecap="butt" d="m146.77113 115.18446l-2.4015808 0l0 -20.141731l-4.8031464 0l0 20.141731l-2.4015808 0l4.8031464 4.8031464z" fill-rule="evenodd"/><path fill="#f4cccc" d="m156.37112 115.18446l-2.4015656 0l0 -20.141731l-4.8031616 0l0 20.141731l-2.4015656 0l4.8031464 4.8031464z" fill-rule="evenodd"/><path stroke="#000000" stroke-width="1.0" stroke-linejoin="round" stroke-linecap="butt" d="m156.37112 115.18446l-2.4015656 0l0 -20.141731l-4.8031616 0l0 20.141731l-2.4015656 0l4.8031464 4.8031464z" fill-rule="evenodd"/><path fill="#f4cccc" d="m165.97113 115.18446l-2.4015808 0l0 -20.141731l-4.8031464 0l0 20.141731l-2.4015808 0l4.8031616 4.8031464z" fill-rule="evenodd"/><path stroke="#000000" stroke-width="1.0" stroke-linejoin="round" stroke-linecap="butt" d="m165.97113 115.18446l-2.4015808 0l0 -20.141731l-4.8031464 0l0 20.141731l-2.4015808 0l4.8031616 4.8031464z" fill-rule="evenodd"/><path fill="#000000" fill-opacity="0.0" d="m319.56482 64.48021l48.0 0l0 -0.15747833l-48.0 0z" fill-rule="evenodd"/><path stroke="#990000" stroke-width="2.0" stroke-linejoin="round" stroke-linecap="butt" d="m319.56482 64.48021l48.0 0l0 -0.15747833l-48.0 0z" fill-rule="evenodd"/><path fill="#f4cccc" d="m415.57114 86.40462l-2.4015808 0l0 -50.88189l-4.8031616 0l0 50.88189l-2.4015503 0l4.803131 4.803154z" fill-rule="evenodd"/><path stroke="#000000" stroke-width="1.0" stroke-linejoin="round" stroke-linecap="butt" d="m415.57114 86.40462l-2.4015808 0l0 -50.88189l-4.8031616 0l0 50.88189l-2.4015503 0l4.803131 4.803154z" fill-rule="evenodd"/><path fill="#f4cccc" d="m425.17114 86.40462l-2.4015808 0l0 -50.88189l-4.8031616 0l0 50.88189l-2.4015808 0l4.8031616 4.803154z" fill-rule="evenodd"/><path stroke="#000000" stroke-width="1.0" stroke-linejoin="round" stroke-linecap="butt" d="m425.17114 86.40462l-2.4015808 0l0 -50.88189l-4.8031616 0l0 50.88189l-2.4015808 0l4.8031616 4.803154z" fill-rule="evenodd"/><path fill="#f4cccc" d="m434.77112 86.40462l-2.4015503 0l0 -50.88189l-4.8031616 0l0 50.88189l-2.4015808 0l4.8031616 4.803154z" fill-rule="evenodd"/><path stroke="#000000" stroke-width="1.0" stroke-linejoin="round" stroke-linecap="butt" d="m434.77112 86.40462l-2.4015503 0l0 -50.88189l-4.8031616 0l0 50.88189l-2.4015808 0l4.8031616 4.803154z" fill-rule="evenodd"/><path fill="#f4cccc" d="m339.0173 57.58572l-2.4015808 0l0 -22.062992l-4.8031616 0l0 22.062992l-2.4015808 0l4.8031616 4.80315z" fill-rule="evenodd"/><path stroke="#000000" stroke-width="1.0" stroke-linejoin="round" stroke-linecap="butt" d="m339.0173 57.58572l-2.4015808 0l0 -22.062992l-4.8031616 0l0 22.062992l-2.4015808 0l4.8031616 4.80315z" fill-rule="evenodd"/><path fill="#f4cccc" d="m348.61728 57.58572l-2.4015503 0l0 -22.062992l-4.8031616 0l0 22.062992l-2.4015808 0l4.8031616 4.80315z" fill-rule="evenodd"/><path stroke="#000000" stroke-width="1.0" stroke-linejoin="round" stroke-linecap="butt" d="m348.61728 57.58572l-2.4015503 0l0 -22.062992l-4.8031616 0l0 22.062992l-2.4015808 0l4.8031616 4.80315z" fill-rule="evenodd"/><path fill="#f4cccc" d="m358.2173 57.58572l-2.4015808 0l0 -22.062992l-4.803131 0l0 22.062992l-2.4015808 0l4.8031616 4.80315z" fill-rule="evenodd"/><path stroke="#000000" stroke-width="1.0" stroke-linejoin="round" stroke-linecap="butt" d="m358.2173 57.58572l-2.4015808 0l0 -22.062992l-4.803131 0l0 22.062992l-2.4015808 0l4.8031616 4.80315z" fill-rule="evenodd"/><path fill="#f4cccc" d="m338.77112 88.305725l-2.4015503 0l0 -22.062996l-4.8031616 0l0 22.062996l-2.4015808 0l4.8031616 4.8031464z" fill-rule="evenodd"/><path stroke="#000000" stroke-width="1.0" stroke-linejoin="round" stroke-linecap="butt" d="m338.77112 88.305725l-2.4015503 0l0 -22.062996l-4.8031616 0l0 22.062996l-2.4015808 0l4.8031616 4.8031464z" fill-rule="evenodd"/><path fill="#f4cccc" d="m348.37112 88.305725l-2.4015808 0l0 -22.062996l-4.803131 0l0 22.062996l-2.4015808 0l4.8031616 4.8031464z" fill-rule="evenodd"/><path stroke="#000000" stroke-width="1.0" stroke-linejoin="round" stroke-linecap="butt" d="m348.37112 88.305725l-2.4015808 0l0 -22.062996l-4.803131 0l0 22.062996l-2.4015808 0l4.8031616 4.8031464z" fill-rule="evenodd"/><path fill="#f4cccc" d="m357.97113 88.305725l-2.4015808 0l0 -22.062996l-4.803131 0l0 22.062996l-2.4015808 0l4.803131 4.8031464z" fill-rule="evenodd"/><path stroke="#000000" stroke-width="1.0" stroke-linejoin="round" stroke-linecap="butt" d="m357.97113 88.305725l-2.4015808 0l0 -22.062996l-4.803131 0l0 22.062996l-2.4015808 0l4.803131 4.8031464z" fill-rule="evenodd"/><path fill="#000000" fill-opacity="0.0" d="m127.56483 122.08021l48.000008 0l0 -0.15747833l-48.000008 0z" fill-rule="evenodd"/><path stroke="#990000" stroke-width="2.0" stroke-linejoin="round" stroke-linecap="butt" d="m127.56483 122.08021l48.000008 0l0 -0.15747833l-48.000008 0z" fill-rule="evenodd"/><path fill="#f4cccc" d="m146.77113 143.98447l-2.4015808 0l0 -20.141739l-4.8031464 0l0 20.141739l-2.4015808 0l4.8031464 4.8031464z" fill-rule="evenodd"/><path stroke="#000000" stroke-width="1.0" stroke-linejoin="round" stroke-linecap="butt" d="m146.77113 143.98447l-2.4015808 0l0 -20.141739l-4.8031464 0l0 20.141739l-2.4015808 0l4.8031464 4.8031464z" fill-rule="evenodd"/><path fill="#f4cccc" d="m156.37112 143.98447l-2.4015656 0l0 -20.141739l-4.8031616 0l0 20.141739l-2.4015656 0l4.8031464 4.8031464z" fill-rule="evenodd"/><path stroke="#000000" stroke-width="1.0" stroke-linejoin="round" stroke-linecap="butt" d="m156.37112 143.98447l-2.4015656 0l0 -20.141739l-4.8031616 0l0 20.141739l-2.4015656 0l4.8031464 4.8031464z" fill-rule="evenodd"/><path fill="#f4cccc" d="m165.97113 143.98447l-2.4015808 0l0 -20.141739l-4.8031464 0l0 20.141739l-2.4015808 0l4.8031616 4.8031464z" fill-rule="evenodd"/><path stroke="#000000" stroke-width="1.0" stroke-linejoin="round" stroke-linecap="butt" d="m165.97113 143.98447l-2.4015808 0l0 -20.141739l-4.8031464 0l0 20.141739l-2.4015808 0l4.8031616 4.8031464z" fill-rule="evenodd"/><path fill="#f4cccc" d="m415.57114 117.10572l-2.4015808 0l0 -22.062988l-4.8031616 0l0 22.062988l-2.4015503 0l4.803131 4.803154z" fill-rule="evenodd"/><path stroke="#000000" stroke-width="1.0" stroke-linejoin="round" stroke-linecap="butt" d="m415.57114 117.10572l-2.4015808 0l0 -22.062988l-4.8031616 0l0 22.062988l-2.4015503 0l4.803131 4.803154z" fill-rule="evenodd"/><path fill="#f4cccc" d="m425.17114 117.10572l-2.4015808 0l0 -22.062988l-4.8031616 0l0 22.062988l-2.4015808 0l4.8031616 4.803154z" fill-rule="evenodd"/><path stroke="#000000" stroke-width="1.0" stroke-linejoin="round" stroke-linecap="butt" d="m425.17114 117.10572l-2.4015808 0l0 -22.062988l-4.8031616 0l0 22.062988l-2.4015808 0l4.8031616 4.803154z" fill-rule="evenodd"/><path fill="#f4cccc" d="m434.77112 117.10572l-2.4015503 0l0 -22.062988l-4.8031616 0l0 22.062988l-2.4015808 0l4.8031616 4.803154z" fill-rule="evenodd"/><path stroke="#000000" stroke-width="1.0" stroke-linejoin="round" stroke-linecap="butt" d="m434.77112 117.10572l-2.4015503 0l0 -22.062988l-4.8031616 0l0 22.062988l-2.4015808 0l4.8031616 4.803154z" fill-rule="evenodd"/><path fill="#f4cccc" d="m473.17114 117.10572l-2.4015808 0l0 -22.062988l-4.8031616 0l0 22.062988l-2.4015808 0l4.8031616 4.803154z" fill-rule="evenodd"/><path stroke="#000000" stroke-width="1.0" stroke-linejoin="round" stroke-linecap="butt" d="m473.17114 117.10572l-2.4015808 0l0 -22.062988l-4.8031616 0l0 22.062988l-2.4015808 0l4.8031616 4.803154z" fill-rule="evenodd"/><path fill="#f4cccc" d="m482.77112 117.10572l-2.4015503 0l0 -22.062988l-4.8031616 0l0 22.062988l-2.4015808 0l4.8031616 4.803154z" fill-rule="evenodd"/><path stroke="#000000" stroke-width="1.0" stroke-linejoin="round" stroke-linecap="butt" d="m482.77112 117.10572l-2.4015503 0l0 -22.062988l-4.8031616 0l0 22.062988l-2.4015808 0l4.8031616 4.803154z" fill-rule="evenodd"/><path fill="#f4cccc" d="m492.37112 117.10572l-2.4015808 0l0 -22.062988l-4.803131 0l0 22.062988l-2.4015808 0l4.8031616 4.803154z" fill-rule="evenodd"/><path stroke="#000000" stroke-width="1.0" stroke-linejoin="round" stroke-linecap="butt" d="m492.37112 117.10572l-2.4015808 0l0 -22.062988l-4.803131 0l0 22.062988l-2.4015808 0l4.8031616 4.803154z" fill-rule="evenodd"/><path fill="#ffe599" d="m117.96588 179.52274l124.7874 0l0 96.0l-124.7874 0z" fill-rule="evenodd"/><path stroke="#000000" stroke-width="2.0" stroke-linejoin="round" stroke-linecap="butt" d="m117.96588 179.52274l124.7874 0l0 96.0l-124.7874 0z" fill-rule="evenodd"/><path fill="#fff2cc" d="m127.56588 187.50652l47.999992 0l0 76.7874l-47.999992 0z" fill-rule="evenodd"/><path stroke="#000000" stroke-width="2.0" stroke-linejoin="round" stroke-linecap="butt" stroke-dasharray="2.0,6.0" d="m127.56588 187.50652l47.999992 0l0 76.7874l-47.999992 0z" fill-rule="evenodd"/><path fill="#f4cccc" d="m146.77217 251.52477l-2.4015656 0l0 -52.803146l-4.8031464 0l0 52.803146l-2.4015808 0l4.8031464 4.8031464z" fill-rule="evenodd"/><path stroke="#000000" stroke-width="1.0" stroke-linejoin="round" stroke-linecap="butt" d="m146.77217 251.52477l-2.4015656 0l0 -52.803146l-4.8031464 0l0 52.803146l-2.4015808 0l4.8031464 4.8031464z" fill-rule="evenodd"/><path fill="#f4cccc" d="m156.37218 251.52477l-2.4015808 0l0 -52.803146l-4.8031464 0l0 52.803146l-2.4015656 0l4.8031464 4.8031464z" fill-rule="evenodd"/><path stroke="#000000" stroke-width="1.0" stroke-linejoin="round" stroke-linecap="butt" d="m156.37218 251.52477l-2.4015808 0l0 -52.803146l-4.8031464 0l0 52.803146l-2.4015656 0l4.8031464 4.8031464z" fill-rule="evenodd"/><path fill="#f4cccc" d="m165.97218 251.52477l-2.4015808 0l0 -52.803146l-4.8031464 0l0 52.803146l-2.4015808 0l4.8031464 4.8031464z" fill-rule="evenodd"/><path stroke="#000000" stroke-width="1.0" stroke-linejoin="round" stroke-linecap="butt" d="m165.97218 251.52477l-2.4015808 0l0 -52.803146l-4.8031464 0l0 52.803146l-2.4015808 0l4.8031464 4.8031464z" fill-rule="evenodd"/><path fill="#fff2cc" d="m185.16588 187.50652l48.0 0l0 76.7874l-48.0 0z" fill-rule="evenodd"/><path stroke="#000000" stroke-width="2.0" stroke-linejoin="round" stroke-linecap="butt" stroke-dasharray="2.0,6.0" d="m185.16588 187.50652l48.0 0l0 76.7874l-48.0 0z" fill-rule="evenodd"/><path fill="#000000" fill-opacity="0.0" d="m185.16588 227.6791l48.0 0l0 -0.15748596l-48.0 0z" fill-rule="evenodd"/><path stroke="#990000" stroke-width="2.0" stroke-linejoin="round" stroke-linecap="butt" d="m185.16588 227.6791l48.0 0l0 -0.15748596l-48.0 0z" fill-rule="evenodd"/><path fill="#f4cccc" d="m204.61835 220.7846l-2.4015808 0l0 -22.062988l-4.8031464 0l0 22.062988l-2.4015808 0l4.8031464 4.8031464z" fill-rule="evenodd"/><path stroke="#000000" stroke-width="1.0" stroke-linejoin="round" stroke-linecap="butt" d="m204.61835 220.7846l-2.4015808 0l0 -22.062988l-4.8031464 0l0 22.062988l-2.4015808 0l4.8031464 4.8031464z" fill-rule="evenodd"/><path fill="#f4cccc" d="m214.21834 220.7846l-2.4015656 0l0 -22.062988l-4.8031616 0l0 22.062988l-2.4015656 0l4.8031464 4.8031464z" fill-rule="evenodd"/><path stroke="#000000" stroke-width="1.0" stroke-linejoin="round" stroke-linecap="butt" d="m214.21834 220.7846l-2.4015656 0l0 -22.062988l-4.8031616 0l0 22.062988l-2.4015656 0l4.8031464 4.8031464z" fill-rule="evenodd"/><path fill="#f4cccc" d="m223.81834 220.7846l-2.4015808 0l0 -22.062988l-4.8031464 0l0 22.062988l-2.4015808 0l4.8031616 4.8031464z" fill-rule="evenodd"/><path stroke="#000000" stroke-width="1.0" stroke-linejoin="round" stroke-linecap="butt" d="m223.81834 220.7846l-2.4015808 0l0 -22.062988l-4.8031464 0l0 22.062988l-2.4015808 0l4.8031616 4.8031464z" fill-rule="evenodd"/><path fill="#f4cccc" d="m204.37218 251.50572l-2.4015808 0l0 -22.062988l-4.8031464 0l0 22.062988l-2.4015656 0l4.8031464 4.8031464z" fill-rule="evenodd"/><path stroke="#000000" stroke-width="1.0" stroke-linejoin="round" stroke-linecap="butt" d="m204.37218 251.50572l-2.4015808 0l0 -22.062988l-4.8031464 0l0 22.062988l-2.4015656 0l4.8031464 4.8031464z" fill-rule="evenodd"/><path fill="#f4cccc" d="m213.97218 251.50572l-2.4015808 0l0 -22.062988l-4.8031464 0l0 22.062988l-2.4015808 0l4.8031464 4.8031464z" fill-rule="evenodd"/><path stroke="#000000" stroke-width="1.0" stroke-linejoin="round" stroke-linecap="butt" d="m213.97218 251.50572l-2.4015808 0l0 -22.062988l-4.8031464 0l0 22.062988l-2.4015808 0l4.8031464 4.8031464z" fill-rule="evenodd"/><path fill="#f4cccc" d="m223.57217 251.50572l-2.4015656 0l0 -22.062988l-4.8031616 0l0 22.062988l-2.4015656 0l4.8031464 4.8031464z" fill-rule="evenodd"/><path stroke="#000000" stroke-width="1.0" stroke-linejoin="round" stroke-linecap="butt" d="m223.57217 251.50572l-2.4015656 0l0 -22.062988l-4.8031616 0l0 22.062988l-2.4015656 0l4.8031464 4.8031464z" fill-rule="evenodd"/><path fill="#ffe599" d="m252.36588 121.89753l124.787415 0l0 124.78741l-124.787415 0z" fill-rule="evenodd"/><path stroke="#000000" stroke-width="2.0" stroke-linejoin="round" stroke-linecap="butt" d="m252.36588 121.89753l124.787415 0l0 124.78741l-124.787415 0z" fill-rule="evenodd"/><path fill="#fff2cc" d="m261.96588 131.49753l48.0 0l0 105.60631l-48.0 0z" fill-rule="evenodd"/><path stroke="#000000" stroke-width="2.0" stroke-linejoin="round" stroke-linecap="butt" stroke-dasharray="2.0,6.0" d="m261.96588 131.49753l48.0 0l0 105.60631l-48.0 0z" fill-rule="evenodd"/><path fill="#fff2cc" d="m319.5659 131.49753l48.0 0l0 105.60631l-48.0 0z" fill-rule="evenodd"/><path stroke="#000000" stroke-width="2.0" stroke-linejoin="round" stroke-linecap="butt" stroke-dasharray="2.0,6.0" d="m319.5659 131.49753l48.0 0l0 105.60631l-48.0 0z" fill-rule="evenodd"/><path fill="#000000" fill-opacity="0.0" d="m261.96588 170.08022l105.60629 0l0 -0.15748596l-105.60629 0z" fill-rule="evenodd"/><path stroke="#bf9000" stroke-width="2.0" stroke-linejoin="round" stroke-linecap="butt" d="m261.96588 170.08022l105.60629 0l0 -0.15748596l-105.60629 0z" fill-rule="evenodd"/><path fill="#f4cccc" d="m338.7722 163.16052l-2.4015808 0l0 -22.062988l-4.8031616 0l0 22.062988l-2.4015503 0l4.803131 4.8031464z" fill-rule="evenodd"/><path stroke="#000000" stroke-width="1.0" stroke-linejoin="round" stroke-linecap="butt" d="m338.7722 163.16052l-2.4015808 0l0 -22.062988l-4.8031616 0l0 22.062988l-2.4015503 0l4.803131 4.8031464z" fill-rule="evenodd"/><path fill="#f4cccc" d="m348.3722 163.16052l-2.4015808 0l0 -22.062988l-4.8031616 0l0 22.062988l-2.4015808 0l4.8031616 4.8031464z" fill-rule="evenodd"/><path stroke="#000000" stroke-width="1.0" stroke-linejoin="round" stroke-linecap="butt" d="m348.3722 163.16052l-2.4015808 0l0 -22.062988l-4.8031616 0l0 22.062988l-2.4015808 0l4.8031616 4.8031464z" fill-rule="evenodd"/><path fill="#f4cccc" d="m357.97217 163.16052l-2.4015503 0l0 -22.062988l-4.8031616 0l0 22.062988l-2.4015808 0l4.8031616 4.8031464z" fill-rule="evenodd"/><path stroke="#000000" stroke-width="1.0" stroke-linejoin="round" stroke-linecap="butt" d="m357.97217 163.16052l-2.4015503 0l0 -22.062988l-4.8031616 0l0 22.062988l-2.4015808 0l4.8031616 4.8031464z" fill-rule="evenodd"/><path fill="#f4cccc" d="m281.17218 163.16052l-2.4015808 0l0 -22.062988l-4.803131 0l0 22.062988l-2.4015808 0l4.803131 4.8031464z" fill-rule="evenodd"/><path stroke="#000000" stroke-width="1.0" stroke-linejoin="round" stroke-linecap="butt" d="m281.17218 163.16052l-2.4015808 0l0 -22.062988l-4.803131 0l0 22.062988l-2.4015808 0l4.803131 4.8031464z" fill-rule="evenodd"/><path fill="#f4cccc" d="m290.7722 163.16052l-2.4015808 0l0 -22.062988l-4.8031616 0l0 22.062988l-2.4015503 0l4.803131 4.8031464z" fill-rule="evenodd"/><path stroke="#000000" stroke-width="1.0" stroke-linejoin="round" stroke-linecap="butt" d="m290.7722 163.16052l-2.4015808 0l0 -22.062988l-4.8031616 0l0 22.062988l-2.4015503 0l4.803131 4.8031464z" fill-rule="evenodd"/><path fill="#f4cccc" d="m300.3722 163.16052l-2.4015808 0l0 -22.062988l-4.8031616 0l0 22.062988l-2.4015808 0l4.8031616 4.8031464z" fill-rule="evenodd"/><path stroke="#000000" stroke-width="1.0" stroke-linejoin="round" stroke-linecap="butt" d="m300.3722 163.16052l-2.4015808 0l0 -22.062988l-4.8031616 0l0 22.062988l-2.4015808 0l4.8031616 4.8031464z" fill-rule="evenodd"/><path fill="#f4cccc" d="m281.17218 222.72462l-2.4015808 0l0 -50.881897l-4.803131 0l0 50.881897l-2.4015808 0l4.803131 4.8031464z" fill-rule="evenodd"/><path stroke="#000000" stroke-width="1.0" stroke-linejoin="round" stroke-linecap="butt" d="m281.17218 222.72462l-2.4015808 0l0 -50.881897l-4.803131 0l0 50.881897l-2.4015808 0l4.803131 4.8031464z" fill-rule="evenodd"/><path fill="#f4cccc" d="m290.7722 222.72462l-2.4015808 0l0 -50.881897l-4.8031616 0l0 50.881897l-2.4015503 0l4.803131 4.8031464z" fill-rule="evenodd"/><path stroke="#000000" stroke-width="1.0" stroke-linejoin="round" stroke-linecap="butt" d="m290.7722 222.72462l-2.4015808 0l0 -50.881897l-4.8031616 0l0 50.881897l-2.4015503 0l4.803131 4.8031464z" fill-rule="evenodd"/><path fill="#f4cccc" d="m300.3722 222.72462l-2.4015808 0l0 -50.881897l-4.8031616 0l0 50.881897l-2.4015808 0l4.8031616 4.8031464z" fill-rule="evenodd"/><path stroke="#000000" stroke-width="1.0" stroke-linejoin="round" stroke-linecap="butt" d="m300.3722 222.72462l-2.4015808 0l0 -50.881897l-4.8031616 0l0 50.881897l-2.4015808 0l4.8031616 4.8031464z" fill-rule="evenodd"/><path fill="#f4cccc" d="m338.7722 222.72462l-2.4015808 0l0 -50.881897l-4.8031616 0l0 50.881897l-2.4015503 0l4.803131 4.8031464z" fill-rule="evenodd"/><path stroke="#000000" stroke-width="1.0" stroke-linejoin="round" stroke-linecap="butt" d="m338.7722 222.72462l-2.4015808 0l0 -50.881897l-4.8031616 0l0 50.881897l-2.4015503 0l4.803131 4.8031464z" fill-rule="evenodd"/><path fill="#f4cccc" d="m348.3722 222.72462l-2.4015808 0l0 -50.881897l-4.8031616 0l0 50.881897l-2.4015808 0l4.8031616 4.8031464z" fill-rule="evenodd"/><path stroke="#000000" stroke-width="1.0" stroke-linejoin="round" stroke-linecap="butt" d="m348.3722 222.72462l-2.4015808 0l0 -50.881897l-4.8031616 0l0 50.881897l-2.4015808 0l4.8031616 4.8031464z" fill-rule="evenodd"/><path fill="#f4cccc" d="m357.97217 222.72462l-2.4015503 0l0 -50.881897l-4.8031616 0l0 50.881897l-2.4015808 0l4.8031616 4.8031464z" fill-rule="evenodd"/><path stroke="#000000" stroke-width="1.0" stroke-linejoin="round" stroke-linecap="butt" d="m357.97217 222.72462l-2.4015503 0l0 -50.881897l-4.8031616 0l0 50.881897l-2.4015808 0l4.8031616 4.8031464z" fill-rule="evenodd"/><path fill="#ffe599" d="m386.7638 150.72273l124.787384 0l0 67.2126l-124.787384 0z" fill-rule="evenodd"/><path stroke="#000000" stroke-width="2.0" stroke-linejoin="round" stroke-linecap="butt" d="m386.7638 150.72273l124.787384 0l0 67.2126l-124.787384 0z" fill-rule="evenodd"/><path fill="#fff2cc" d="m453.96378 160.32272l48.0 0l0 48.0l-48.0 0z" fill-rule="evenodd"/><path stroke="#000000" stroke-width="2.0" stroke-linejoin="round" stroke-linecap="butt" stroke-dasharray="2.0,6.0" d="m453.96378 160.32272l48.0 0l0 48.0l-48.0 0z" fill-rule="evenodd"/><path fill="#f4cccc" d="m473.41623 193.60081l-2.4015503 0l0 -22.062988l-4.8031616 0l0 22.062988l-2.4015808 0l4.8031616 4.8031616z" fill-rule="evenodd"/><path stroke="#000000" stroke-width="1.0" stroke-linejoin="round" stroke-linecap="butt" d="m473.41623 193.60081l-2.4015503 0l0 -22.062988l-4.8031616 0l0 22.062988l-2.4015808 0l4.8031616 4.8031616z" fill-rule="evenodd"/><path fill="#f4cccc" d="m483.01624 193.60081l-2.4015808 0l0 -22.062988l-4.803131 0l0 22.062988l-2.4015808 0l4.8031616 4.8031616z" fill-rule="evenodd"/><path stroke="#000000" stroke-width="1.0" stroke-linejoin="round" stroke-linecap="butt" d="m483.01624 193.60081l-2.4015808 0l0 -22.062988l-4.803131 0l0 22.062988l-2.4015808 0l4.8031616 4.8031616z" fill-rule="evenodd"/><path fill="#f4cccc" d="m492.61624 193.60081l-2.4015808 0l0 -22.062988l-4.803131 0l0 22.062988l-2.4015808 0l4.803131 4.8031616z" fill-rule="evenodd"/><path stroke="#000000" stroke-width="1.0" stroke-linejoin="round" stroke-linecap="butt" d="m492.61624 193.60081l-2.4015808 0l0 -22.062988l-4.803131 0l0 22.062988l-2.4015808 0l4.803131 4.8031616z" fill-rule="evenodd"/><path fill="#fff2cc" d="m396.36484 160.32272l48.0 0l0 48.0l-48.0 0z" fill-rule="evenodd"/><path stroke="#000000" stroke-width="2.0" stroke-linejoin="round" stroke-linecap="butt" stroke-dasharray="2.0,6.0" d="m396.36484 160.32272l48.0 0l0 48.0l-48.0 0z" fill-rule="evenodd"/><path fill="#f4cccc" d="m415.8173 193.60081l-2.4015808 0l0 -22.062988l-4.803131 0l0 22.062988l-2.4015808 0l4.803131 4.8031616z" fill-rule="evenodd"/><path stroke="#000000" stroke-width="1.0" stroke-linejoin="round" stroke-linecap="butt" d="m415.8173 193.60081l-2.4015808 0l0 -22.062988l-4.803131 0l0 22.062988l-2.4015808 0l4.803131 4.8031616z" fill-rule="evenodd"/><path fill="#f4cccc" d="m425.4173 193.60081l-2.4015808 0l0 -22.062988l-4.8031616 0l0 22.062988l-2.4015503 0l4.803131 4.8031616z" fill-rule="evenodd"/><path stroke="#000000" stroke-width="1.0" stroke-linejoin="round" stroke-linecap="butt" d="m425.4173 193.60081l-2.4015808 0l0 -22.062988l-4.8031616 0l0 22.062988l-2.4015503 0l4.803131 4.8031616z" fill-rule="evenodd"/><path fill="#f4cccc" d="m435.0173 193.60081l-2.4015808 0l0 -22.062988l-4.8031616 0l0 22.062988l-2.4015808 0l4.8031616 4.8031616z" fill-rule="evenodd"/><path stroke="#000000" stroke-width="1.0" stroke-linejoin="round" stroke-linecap="butt" d="m435.0173 193.60081l-2.4015808 0l0 -22.062988l-4.8031616 0l0 22.062988l-2.4015808 0l4.8031616 4.8031616z" fill-rule="evenodd"/><path fill="#c9daf8" d="m108.36483 294.7219l412.78738 0l0 196.62991l-412.78738 0z" fill-rule="evenodd"/><path stroke="#000000" stroke-width="2.0" stroke-linejoin="round" stroke-linecap="butt" d="m108.36483 294.7219l412.78738 0l0 196.62991l-412.78738 0z" fill-rule="evenodd"/><path fill="#000000" d="m126.89608 478.27182l-2.03125 0l-4.453125 -5.84375l0 5.84375l-1.625 0l0 -11.90625l1.625 0l0 5.53125l4.359375 -5.53125l1.921875 0l-4.703125 5.65625l4.90625 6.25zm9.319786 0l-6.765625 0l0 -11.90625l6.765625 0l0 1.359375l-5.140625 0l0 3.703125l4.953125 0l0 1.359375l-4.953125 0l0 4.09375l5.140625 0l0 1.390625zm11.241669 0l-1.828125 0l-1.78125 -3.8125q-0.203125 -0.4375 -0.421875 -0.71875q-0.203125 -0.28125 -0.453125 -0.453125q-0.234375 -0.171875 -0.515625 -0.234375q-0.28125 -0.078125 -0.640625 -0.078125l-0.765625 0l0 5.296875l-1.625 0l0 -11.90625l3.1875 0q1.046875 0 1.78125 0.234375q0.75 0.21875 1.21875 0.640625q0.484375 0.40625 0.703125 0.984375q0.234375 0.578125 0.234375 1.28125q0 0.546875 -0.171875 1.046875q-0.15625 0.5 -0.484375 0.90625q-0.3125 0.40625 -0.796875 0.703125q-0.484375 0.28125 -1.09375 0.4375q0.5 0.171875 0.84375 0.609375q0.359375 0.421875 0.71875 1.140625l1.890625 3.921875zm-2.59375 -8.640625q0 -0.953125 -0.609375 -1.421875q-0.59375 -0.484375 -1.671875 -0.484375l-1.53125 0l0 3.9375l1.3125 0q0.578125 0 1.03125 -0.125q0.453125 -0.140625 0.78125 -0.390625q0.328125 -0.265625 0.5 -0.640625q0.1875 -0.375 0.1875 -0.875zm12.460419 8.640625l-2.125 0l-3.46875 -7.421875l-1.0 -2.390625l0 6.0l0 3.8125l-1.515625 0l0 -11.90625l2.09375 0l3.3125 7.03125l1.1875 2.71875l0 -6.375l0 -3.375l1.515625 0l0 11.90625zm9.663544 0l-6.765625 0l0 -11.90625l6.765625 0l0 1.359375l-5.140625 0l0 3.703125l4.953125 0l0 1.359375l-4.953125 0l0 4.09375l5.140625 0l0 1.390625zm10.632294 0l-6.84375 0l0 -11.90625l1.640625 0l0 10.515625l5.203125 0l0 1.390625zm21.139587 -6.078125q0 0.84375 -0.140625 1.640625q-0.125 0.78125 -0.421875 1.453125q-0.28125 0.671875 -0.75 1.21875q-0.46875 0.546875 -1.140625 0.953125q-0.671875 0.390625 -1.5625 0.609375q-0.890625 0.203125 -2.03125 0.203125l-2.546875 0l0 -11.90625l3.0625 0q2.78125 0 4.15625 1.4375q1.375 1.4375 1.375 4.390625zm-1.703125 0.109375q0 -1.265625 -0.234375 -2.140625q-0.234375 -0.875 -0.71875 -1.40625q-0.484375 -0.546875 -1.21875 -0.78125q-0.734375 -0.25 -1.703125 -0.25l-1.40625 0l0 9.140625l1.21875 0q4.0625 0 4.0625 -4.5625zm6.6791687 -4.578125l-2.75 0l0 -1.359375l7.125 0l0 1.359375l-2.734375 0l0 9.15625l2.734375 0l0 1.390625l-7.125 0l0 -1.390625l2.75 0l0 -9.15625zm15.022919 7.328125q0 0.84375 -0.34375 1.484375q-0.34375 0.625 -0.96875 1.0625q-0.609375 0.421875 -1.484375 0.625q-0.875 0.203125 -1.921875 0.203125q-0.46875 0 -0.9375 -0.03125q-0.46875 -0.03125 -0.90625 -0.09375q-0.421875 -0.046875 -0.8125 -0.109375q-0.375 -0.078125 -0.6875 -0.171875l0 -1.5625q0.671875 0.25 1.515625 0.40625q0.859375 0.140625 1.953125 0.140625q0.78125 0 1.328125 -0.125q0.5625 -0.125 0.90625 -0.359375q0.34375 -0.25 0.5 -0.59375q0.171875 -0.34375 0.171875 -0.796875q0 -0.46875 -0.28125 -0.8125q-0.265625 -0.34375 -0.703125 -0.609375q-0.4375 -0.28125 -1.0 -0.5q-0.546875 -0.21875 -1.140625 -0.453125q-0.578125 -0.234375 -1.140625 -0.515625q-0.5625 -0.28125 -1.0 -0.65625q-0.4375 -0.375 -0.703125 -0.890625q-0.265625 -0.515625 -0.265625 -1.21875q0 -0.609375 0.25 -1.1875q0.265625 -0.59375 0.796875 -1.046875q0.53125 -0.46875 1.375 -0.75q0.84375 -0.28125 2.015625 -0.28125q0.296875 0 0.640625 0.03125q0.359375 0.015625 0.71875 0.0625q0.359375 0.046875 0.703125 0.125q0.359375 0.0625 0.65625 0.125l0 1.46875q-0.703125 -0.203125 -1.40625 -0.3125q-0.6875 -0.109375 -1.34375 -0.109375q-1.40625 0 -2.0625 0.46875q-0.65625 0.46875 -0.65625 1.25q0 0.484375 0.265625 0.828125q0.28125 0.34375 0.71875 0.625q0.4375 0.265625 1.0 0.5q0.5625 0.21875 1.140625 0.453125q0.578125 0.234375 1.140625 0.515625q0.5625 0.28125 1.0 0.671875q0.4375 0.390625 0.703125 0.90625q0.265625 0.515625 0.265625 1.234375zm10.429169 -5.046875q0 0.734375 -0.28125 1.453125q-0.265625 0.703125 -0.84375 1.28125q-0.5625 0.5625 -1.453125 0.921875q-0.890625 0.34375 -2.140625 0.34375l-1.46875 0l0 4.265625l-1.625 0l0 -11.90625l3.359375 0q0.875 0 1.6875 0.203125q0.8125 0.1875 1.421875 0.625q0.625 0.4375 0.984375 1.140625q0.359375 0.6875 0.359375 1.671875zm-1.6875 0.078125q0 -1.15625 -0.75 -1.765625q-0.75 -0.609375 -2.09375 -0.609375l-1.65625 0l0 4.90625l1.515625 0q1.4375 0 2.203125 -0.625q0.78125 -0.640625 0.78125 -1.90625zm12.866669 8.1875l-1.765625 0l-0.84375 -2.59375l-4.953125 0l-0.828125 2.59375l-1.6875 0l3.953125 -11.90625l2.21875 0l3.90625 11.90625zm-3.0625 -4.046875l-2.015625 -6.359375l-2.015625 6.359375l4.03125 0zm12.616669 -6.46875l-3.515625 0l0 10.515625l-1.640625 0l0 -10.515625l-3.53125 0l0 -1.390625l8.6875 0l0 1.390625zm9.851059 10.0625q-1.421875 0.59375 -3.0 0.59375q-2.5156403 0 -3.8750153 -1.5q-1.34375 -1.515625 -1.34375 -4.46875q0 -1.421875 0.359375 -2.578125q0.375 -1.15625 1.0625 -1.953125q0.703125 -0.8125 1.6875 -1.25q0.984375 -0.4375 2.2031403 -0.4375q0.828125 0 1.53125 0.140625q0.71875 0.140625 1.375 0.421875l0 1.59375q-0.640625 -0.34375 -1.34375 -0.53125q-0.6875 -0.1875 -1.5 -0.1875q-0.84375 0 -1.5312653 0.3125q-0.671875 0.3125 -1.15625 0.90625q-0.46875 0.59375 -0.71875 1.46875q-0.25 0.859375 -0.25 1.953125q0 2.3125 0.9375 3.5q0.9375 1.171875 2.7500153 1.171875q0.765625 0 1.46875 -0.171875q0.703125 -0.1875 1.34375 -0.515625l0 1.53125zm10.444794 0.453125l-1.609375 0l0 -5.46875l-5.015625 0l0 5.46875l-1.609375 0l0 -11.90625l1.609375 0l0 5.03125l5.015625 0l0 -5.03125l1.609375 0l0 11.90625zm20.452087 0l-2.125 0l-3.46875 -7.421875l-1.0 -2.390625l0 6.0l0 3.8125l-1.515625 0l0 -11.90625l2.09375 0l3.3125 7.03125l1.1875 2.71875l0 -6.375l0 -3.375l1.515625 0l0 11.90625zm10.554169 -4.265625l-3.578125 0l0 3.703125l-1.5625 0l0 -3.703125l-3.578125 0l0 -1.390625l3.578125 0l0 -3.6875l1.5625 0l0 3.6875l3.578125 0l0 1.390625zm9.851044 4.265625l-7.46875 0l0 -1.46875l3.0625 0l0 -8.703125l-2.859375 1.546875l-0.578125 -1.34375l3.78125 -1.984375l1.40625 0l0 10.484375l2.65625 0l0 1.46875z" fill-rule="nonzero"/><path fill="#ffe599" d="m242.75117 304.32272l-124.78739 0l0 153.6063l124.78739 0z" fill-rule="evenodd"/><path stroke="#000000" stroke-width="2.0" stroke-linejoin="round" stroke-linecap="butt" d="m242.75117 304.32272l-124.78739 0l0 153.6063l124.78739 0z" fill-rule="evenodd"/><path fill="#fff2cc" d="m233.14407 312.30698l-48.0 0l0 134.3937l48.0 0z" fill-rule="evenodd"/><path stroke="#000000" stroke-width="2.0" stroke-linejoin="round" stroke-linecap="butt" stroke-dasharray="2.0,6.0" d="m233.14407 312.30698l-48.0 0l0 134.3937l48.0 0z" fill-rule="evenodd"/><path fill="#f4cccc" d="m213.94408 374.40463l2.4015656 0l0 -50.881897l4.8031616 0l0 50.881897l2.4015656 0l-4.8031464 4.803131z" fill-rule="evenodd"/><path stroke="#000000" stroke-width="1.0" stroke-linejoin="round" stroke-linecap="butt" d="m213.94408 374.40463l2.4015656 0l0 -50.881897l4.8031616 0l0 50.881897l2.4015656 0l-4.8031464 4.803131z" fill-rule="evenodd"/><path fill="#f4cccc" d="m204.34407 374.40463l2.4015808 0l0 -50.881897l4.8031464 0l0 50.881897l2.4015808 0l-4.8031616 4.803131z" fill-rule="evenodd"/><path stroke="#000000" stroke-width="1.0" stroke-linejoin="round" stroke-linecap="butt" d="m204.34407 374.40463l2.4015808 0l0 -50.881897l4.8031464 0l0 50.881897l2.4015808 0l-4.8031616 4.803131z" fill-rule="evenodd"/><path fill="#f4cccc" d="m194.74408 374.40463l2.4015656 0l0 -50.881897l4.8031464 0l0 50.881897l2.4015808 0l-4.8031464 4.803131z" fill-rule="evenodd"/><path stroke="#000000" stroke-width="1.0" stroke-linejoin="round" stroke-linecap="butt" d="m194.74408 374.40463l2.4015656 0l0 -50.881897l4.8031464 0l0 50.881897l2.4015808 0l-4.8031464 4.803131z" fill-rule="evenodd"/><path fill="#fff2cc" d="m175.55037 312.30698l-48.0 0l0 134.3937l48.0 0z" fill-rule="evenodd"/><path stroke="#000000" stroke-width="2.0" stroke-linejoin="round" stroke-linecap="butt" stroke-dasharray="2.0,6.0" d="m175.55037 312.30698l-48.0 0l0 134.3937l48.0 0z" fill-rule="evenodd"/><path fill="#000000" fill-opacity="0.0" d="m233.15013 381.2802l-105.6063 0l0 -0.1574707l105.6063 0z" fill-rule="evenodd"/><path stroke="#bf9000" stroke-width="2.0" stroke-linejoin="round" stroke-linecap="butt" d="m233.15013 381.2802l-105.6063 0l0 -0.1574707l105.6063 0z" fill-rule="evenodd"/><path fill="#000000" fill-opacity="0.0" d="m172.68556 352.48022l-43.2126 0l0 -0.15750122l43.2126 0z" fill-rule="evenodd"/><path stroke="#990000" stroke-width="2.0" stroke-linejoin="round" stroke-linecap="butt" d="m172.68556 352.48022l-43.2126 0l0 -0.15750122l43.2126 0z" fill-rule="evenodd"/><path fill="#f4cccc" d="m156.35037 345.58572l2.4015808 0l0 -22.062988l4.8031464 0l0 22.062988l2.4015656 0l-4.8031464 4.8031616z" fill-rule="evenodd"/><path stroke="#000000" stroke-width="1.0" stroke-linejoin="round" stroke-linecap="butt" d="m156.35037 345.58572l2.4015808 0l0 -22.062988l4.8031464 0l0 22.062988l2.4015656 0l-4.8031464 4.8031616z" fill-rule="evenodd"/><path fill="#f4cccc" d="m146.75037 345.58572l2.4015808 0l0 -22.062988l4.8031464 0l0 22.062988l2.4015808 0l-4.8031464 4.8031616z" fill-rule="evenodd"/><path stroke="#000000" stroke-width="1.0" stroke-linejoin="round" stroke-linecap="butt" d="m146.75037 345.58572l2.4015808 0l0 -22.062988l4.8031464 0l0 22.062988l2.4015808 0l-4.8031464 4.8031616z" fill-rule="evenodd"/><path fill="#f4cccc" d="m137.15038 345.58572l2.4015656 0l0 -22.062988l4.8031616 0l0 22.062988l2.4015656 0l-4.8031464 4.8031616z" fill-rule="evenodd"/><path stroke="#000000" stroke-width="1.0" stroke-linejoin="round" stroke-linecap="butt" d="m137.15038 345.58572l2.4015656 0l0 -22.062988l4.8031616 0l0 22.062988l2.4015656 0l-4.8031464 4.8031616z" fill-rule="evenodd"/><path fill="#ffe599" d="m377.15222 304.32385l-124.7874 0l0 96.0l124.7874 0z" fill-rule="evenodd"/><path stroke="#000000" stroke-width="2.0" stroke-linejoin="round" stroke-linecap="butt" d="m377.15222 304.32385l-124.7874 0l0 96.0l124.7874 0z" fill-rule="evenodd"/><path fill="#fff2cc" d="m367.55225 312.30762l-48.0 0l0 76.787415l48.0 0z" fill-rule="evenodd"/><path stroke="#000000" stroke-width="2.0" stroke-linejoin="round" stroke-linecap="butt" stroke-dasharray="2.0,6.0" d="m367.55225 312.30762l-48.0 0l0 76.787415l48.0 0z" fill-rule="evenodd"/><path fill="#f4cccc" d="m348.34592 376.32587l2.4015808 0l0 -52.80313l4.8031616 0l0 52.80313l2.4015808 0l-4.8031616 4.8031616z" fill-rule="evenodd"/><path stroke="#000000" stroke-width="1.0" stroke-linejoin="round" stroke-linecap="butt" d="m348.34592 376.32587l2.4015808 0l0 -52.80313l4.8031616 0l0 52.80313l2.4015808 0l-4.8031616 4.8031616z" fill-rule="evenodd"/><path fill="#f4cccc" d="m338.74594 376.32587l2.4015503 0l0 -52.80313l4.8031616 0l0 52.80313l2.4015808 0l-4.8031616 4.8031616z" fill-rule="evenodd"/><path stroke="#000000" stroke-width="1.0" stroke-linejoin="round" stroke-linecap="butt" d="m338.74594 376.32587l2.4015503 0l0 -52.80313l4.8031616 0l0 52.80313l2.4015808 0l-4.8031616 4.8031616z" fill-rule="evenodd"/><path fill="#f4cccc" d="m329.14594 376.32587l2.4015808 0l0 -52.80313l4.803131 0l0 52.80313l2.4015808 0l-4.8031616 4.8031616z" fill-rule="evenodd"/><path stroke="#000000" stroke-width="1.0" stroke-linejoin="round" stroke-linecap="butt" d="m329.14594 376.32587l2.4015808 0l0 -52.80313l4.803131 0l0 52.80313l2.4015808 0l-4.8031616 4.8031616z" fill-rule="evenodd"/><path fill="#fff2cc" d="m309.95224 312.30762l-48.0 0l0 76.787415l48.0 0z" fill-rule="evenodd"/><path stroke="#000000" stroke-width="2.0" stroke-linejoin="round" stroke-linecap="butt" stroke-dasharray="2.0,6.0" d="m309.95224 312.30762l-48.0 0l0 76.787415l48.0 0z" fill-rule="evenodd"/><path fill="#f4cccc" d="m156.59654 374.38446l2.4015656 0l0 -20.141724l4.8031464 0l0 20.141724l2.4015808 0l-4.8031464 4.8031616z" fill-rule="evenodd"/><path stroke="#000000" stroke-width="1.0" stroke-linejoin="round" stroke-linecap="butt" d="m156.59654 374.38446l2.4015656 0l0 -20.141724l4.8031464 0l0 20.141724l2.4015808 0l-4.8031464 4.8031616z" fill-rule="evenodd"/><path fill="#f4cccc" d="m146.99654 374.38446l2.4015808 0l0 -20.141724l4.8031464 0l0 20.141724l2.4015656 0l-4.8031464 4.8031616z" fill-rule="evenodd"/><path stroke="#000000" stroke-width="1.0" stroke-linejoin="round" stroke-linecap="butt" d="m146.99654 374.38446l2.4015808 0l0 -20.141724l4.8031464 0l0 20.141724l2.4015656 0l-4.8031464 4.8031616z" fill-rule="evenodd"/><path fill="#f4cccc" d="m137.39653 374.38446l2.4015808 0l0 -20.141724l4.8031464 0l0 20.141724l2.4015808 0l-4.8031464 4.8031616z" fill-rule="evenodd"/><path stroke="#000000" stroke-width="1.0" stroke-linejoin="round" stroke-linecap="butt" d="m137.39653 374.38446l2.4015808 0l0 -20.141724l4.8031464 0l0 20.141724l2.4015808 0l-4.8031464 4.8031616z" fill-rule="evenodd"/><path fill="#f4cccc" d="m156.34383 433.92462l2.4015808 0l0 -50.881897l4.8031464 0l0 50.881897l2.4015808 0l-4.8031464 4.8031616z" fill-rule="evenodd"/><path stroke="#000000" stroke-width="1.0" stroke-linejoin="round" stroke-linecap="butt" d="m156.34383 433.92462l2.4015808 0l0 -50.881897l4.8031464 0l0 50.881897l2.4015808 0l-4.8031464 4.8031616z" fill-rule="evenodd"/><path fill="#f4cccc" d="m146.74384 433.92462l2.4015656 0l0 -50.881897l4.8031616 0l0 50.881897l2.4015656 0l-4.8031464 4.8031616z" fill-rule="evenodd"/><path stroke="#000000" stroke-width="1.0" stroke-linejoin="round" stroke-linecap="butt" d="m146.74384 433.92462l2.4015656 0l0 -50.881897l4.8031616 0l0 50.881897l2.4015656 0l-4.8031464 4.8031616z" fill-rule="evenodd"/><path fill="#f4cccc" d="m137.14383 433.92462l2.4015808 0l0 -50.881897l4.8031464 0l0 50.881897l2.4015808 0l-4.8031616 4.8031616z" fill-rule="evenodd"/><path stroke="#000000" stroke-width="1.0" stroke-linejoin="round" stroke-linecap="butt" d="m137.14383 433.92462l2.4015808 0l0 -50.881897l4.8031464 0l0 50.881897l2.4015808 0l-4.8031616 4.8031616z" fill-rule="evenodd"/><path fill="#f4cccc" d="m213.94383 403.18445l2.4015808 0l0 -20.141724l4.8031464 0l0 20.141724l2.4015656 0l-4.8031464 4.8031616z" fill-rule="evenodd"/><path stroke="#000000" stroke-width="1.0" stroke-linejoin="round" stroke-linecap="butt" d="m213.94383 403.18445l2.4015808 0l0 -20.141724l4.8031464 0l0 20.141724l2.4015656 0l-4.8031464 4.8031616z" fill-rule="evenodd"/><path fill="#f4cccc" d="m204.34383 403.18445l2.4015808 0l0 -20.141724l4.8031464 0l0 20.141724l2.4015808 0l-4.8031464 4.8031616z" fill-rule="evenodd"/><path stroke="#000000" stroke-width="1.0" stroke-linejoin="round" stroke-linecap="butt" d="m204.34383 403.18445l2.4015808 0l0 -20.141724l4.8031464 0l0 20.141724l2.4015808 0l-4.8031464 4.8031616z" fill-rule="evenodd"/><path fill="#f4cccc" d="m194.74384 403.18445l2.4015656 0l0 -20.141724l4.8031616 0l0 20.141724l2.4015656 0l-4.8031464 4.8031616z" fill-rule="evenodd"/><path stroke="#000000" stroke-width="1.0" stroke-linejoin="round" stroke-linecap="butt" d="m194.74384 403.18445l2.4015656 0l0 -20.141724l4.8031616 0l0 20.141724l2.4015656 0l-4.8031464 4.8031616z" fill-rule="evenodd"/><path fill="#000000" fill-opacity="0.0" d="m309.95224 352.48022l-48.0 0l0 -0.15750122l48.0 0z" fill-rule="evenodd"/><path stroke="#990000" stroke-width="2.0" stroke-linejoin="round" stroke-linecap="butt" d="m309.95224 352.48022l-48.0 0l0 -0.15750122l48.0 0z" fill-rule="evenodd"/><path fill="#f4cccc" d="m290.49976 345.58572l2.4015808 0l0 -22.062988l4.8031616 0l0 22.062988l2.4015808 0l-4.8031616 4.8031616z" fill-rule="evenodd"/><path stroke="#000000" stroke-width="1.0" stroke-linejoin="round" stroke-linecap="butt" d="m290.49976 345.58572l2.4015808 0l0 -22.062988l4.8031616 0l0 22.062988l2.4015808 0l-4.8031616 4.8031616z" fill-rule="evenodd"/><path fill="#f4cccc" d="m280.89978 345.58572l2.4015503 0l0 -22.062988l4.8031616 0l0 22.062988l2.4015808 0l-4.8031616 4.8031616z" fill-rule="evenodd"/><path stroke="#000000" stroke-width="1.0" stroke-linejoin="round" stroke-linecap="butt" d="m280.89978 345.58572l2.4015503 0l0 -22.062988l4.8031616 0l0 22.062988l2.4015808 0l-4.8031616 4.8031616z" fill-rule="evenodd"/><path fill="#f4cccc" d="m271.29977 345.58572l2.4015808 0l0 -22.062988l4.803131 0l0 22.062988l2.4015808 0l-4.8031616 4.8031616z" fill-rule="evenodd"/><path stroke="#000000" stroke-width="1.0" stroke-linejoin="round" stroke-linecap="butt" d="m271.29977 345.58572l2.4015808 0l0 -22.062988l4.803131 0l0 22.062988l2.4015808 0l-4.8031616 4.8031616z" fill-rule="evenodd"/><path fill="#f4cccc" d="m290.74594 376.30573l2.4015503 0l0 -22.062988l4.8031616 0l0 22.062988l2.4015808 0l-4.8031616 4.803131z" fill-rule="evenodd"/><path stroke="#000000" stroke-width="1.0" stroke-linejoin="round" stroke-linecap="butt" d="m290.74594 376.30573l2.4015503 0l0 -22.062988l4.8031616 0l0 22.062988l2.4015808 0l-4.8031616 4.803131z" fill-rule="evenodd"/><path fill="#f4cccc" d="m281.14594 376.30573l2.4015808 0l0 -22.062988l4.803131 0l0 22.062988l2.4015808 0l-4.8031616 4.803131z" fill-rule="evenodd"/><path stroke="#000000" stroke-width="1.0" stroke-linejoin="round" stroke-linecap="butt" d="m281.14594 376.30573l2.4015808 0l0 -22.062988l4.803131 0l0 22.062988l2.4015808 0l-4.8031616 4.803131z" fill-rule="evenodd"/><path fill="#f4cccc" d="m271.54593 376.30573l2.4015808 0l0 -22.062988l4.8031616 0l0 22.062988l2.4015503 0l-4.803131 4.803131z" fill-rule="evenodd"/><path stroke="#000000" stroke-width="1.0" stroke-linejoin="round" stroke-linecap="butt" d="m271.54593 376.30573l2.4015808 0l0 -22.062988l4.8031616 0l0 22.062988l2.4015503 0l-4.803131 4.803131z" fill-rule="evenodd"/><path fill="#000000" fill-opacity="0.0" d="m233.15013 410.0802l-48.0 0l0 -0.1574707l48.0 0z" fill-rule="evenodd"/><path stroke="#990000" stroke-width="2.0" stroke-linejoin="round" stroke-linecap="butt" d="m233.15013 410.0802l-48.0 0l0 -0.1574707l48.0 0z" fill-rule="evenodd"/><path fill="#f4cccc" d="m213.94383 431.98447l2.4015808 0l0 -20.141724l4.8031464 0l0 20.141724l2.4015656 0l-4.8031464 4.803131z" fill-rule="evenodd"/><path stroke="#000000" stroke-width="1.0" stroke-linejoin="round" stroke-linecap="butt" d="m213.94383 431.98447l2.4015808 0l0 -20.141724l4.8031464 0l0 20.141724l2.4015656 0l-4.8031464 4.803131z" fill-rule="evenodd"/><path fill="#f4cccc" d="m204.34383 431.98447l2.4015808 0l0 -20.141724l4.8031464 0l0 20.141724l2.4015808 0l-4.8031464 4.803131z" fill-rule="evenodd"/><path stroke="#000000" stroke-width="1.0" stroke-linejoin="round" stroke-linecap="butt" d="m204.34383 431.98447l2.4015808 0l0 -20.141724l4.8031464 0l0 20.141724l2.4015808 0l-4.8031464 4.803131z" fill-rule="evenodd"/><path fill="#f4cccc" d="m194.74384 431.98447l2.4015656 0l0 -20.141724l4.8031616 0l0 20.141724l2.4015656 0l-4.8031464 4.803131z" fill-rule="evenodd"/><path stroke="#000000" stroke-width="1.0" stroke-linejoin="round" stroke-linecap="butt" d="m194.74384 431.98447l2.4015656 0l0 -20.141724l4.8031616 0l0 20.141724l2.4015656 0l-4.8031464 4.803131z" fill-rule="evenodd"/><path fill="#ffe599" d="m386.7638 381.12323l124.787384 0l0 96.0l-124.787384 0z" fill-rule="evenodd"/><path stroke="#000000" stroke-width="2.0" stroke-linejoin="round" stroke-linecap="butt" d="m386.7638 381.12323l124.787384 0l0 96.0l-124.787384 0z" fill-rule="evenodd"/><path fill="#fff2cc" d="m396.36484 390.72202l48.0 0l0 76.787415l-48.0 0z" fill-rule="evenodd"/><path stroke="#000000" stroke-width="2.0" stroke-linejoin="round" stroke-linecap="butt" stroke-dasharray="2.0,6.0" d="m396.36484 390.72202l48.0 0l0 76.787415l-48.0 0z" fill-rule="evenodd"/><path fill="#fff2cc" d="m453.9654 390.72202l48.0 0l0 76.787415l-48.0 0z" fill-rule="evenodd"/><path stroke="#000000" stroke-width="2.0" stroke-linejoin="round" stroke-linecap="butt" stroke-dasharray="2.0,6.0" d="m453.9654 390.72202l48.0 0l0 76.787415l-48.0 0z" fill-rule="evenodd"/><path fill="#000000" fill-opacity="0.0" d="m396.36484 429.30542l105.60629 0l0 -0.15750122l-105.60629 0z" fill-rule="evenodd"/><path stroke="#bf9000" stroke-width="2.0" stroke-linejoin="round" stroke-linecap="butt" d="m396.36484 429.30542l105.60629 0l0 -0.15750122l-105.60629 0z" fill-rule="evenodd"/><path fill="#f4cccc" d="m473.17114 422.3857l-2.4015808 0l0 -22.062988l-4.8031616 0l0 22.062988l-2.4015808 0l4.8031616 4.8031616z" fill-rule="evenodd"/><path stroke="#000000" stroke-width="1.0" stroke-linejoin="round" stroke-linecap="butt" d="m473.17114 422.3857l-2.4015808 0l0 -22.062988l-4.8031616 0l0 22.062988l-2.4015808 0l4.8031616 4.8031616z" fill-rule="evenodd"/><path fill="#f4cccc" d="m482.77112 422.3857l-2.4015503 0l0 -22.062988l-4.8031616 0l0 22.062988l-2.4015808 0l4.8031616 4.8031616z" fill-rule="evenodd"/><path stroke="#000000" stroke-width="1.0" stroke-linejoin="round" stroke-linecap="butt" d="m482.77112 422.3857l-2.4015503 0l0 -22.062988l-4.8031616 0l0 22.062988l-2.4015808 0l4.8031616 4.8031616z" fill-rule="evenodd"/><path fill="#f4cccc" d="m492.37112 422.3857l-2.4015808 0l0 -22.062988l-4.803131 0l0 22.062988l-2.4015808 0l4.8031616 4.8031616z" fill-rule="evenodd"/><path stroke="#000000" stroke-width="1.0" stroke-linejoin="round" stroke-linecap="butt" d="m492.37112 422.3857l-2.4015808 0l0 -22.062988l-4.803131 0l0 22.062988l-2.4015808 0l4.8031616 4.8031616z" fill-rule="evenodd"/><path fill="#f4cccc" d="m415.57114 422.3857l-2.4015808 0l0 -22.062988l-4.8031616 0l0 22.062988l-2.4015503 0l4.803131 4.8031616z" fill-rule="evenodd"/><path stroke="#000000" stroke-width="1.0" stroke-linejoin="round" stroke-linecap="butt" d="m415.57114 422.3857l-2.4015808 0l0 -22.062988l-4.8031616 0l0 22.062988l-2.4015503 0l4.803131 4.8031616z" fill-rule="evenodd"/><path fill="#f4cccc" d="m425.17114 422.3857l-2.4015808 0l0 -22.062988l-4.8031616 0l0 22.062988l-2.4015808 0l4.8031616 4.8031616z" fill-rule="evenodd"/><path stroke="#000000" stroke-width="1.0" stroke-linejoin="round" stroke-linecap="butt" d="m425.17114 422.3857l-2.4015808 0l0 -22.062988l-4.8031616 0l0 22.062988l-2.4015808 0l4.8031616 4.8031616z" fill-rule="evenodd"/><path fill="#f4cccc" d="m434.77112 422.3857l-2.4015503 0l0 -22.062988l-4.8031616 0l0 22.062988l-2.4015808 0l4.8031616 4.8031616z" fill-rule="evenodd"/><path stroke="#000000" stroke-width="1.0" stroke-linejoin="round" stroke-linecap="butt" d="m434.77112 422.3857l-2.4015503 0l0 -22.062988l-4.8031616 0l0 22.062988l-2.4015808 0l4.8031616 4.8031616z" fill-rule="evenodd"/><path fill="#f4cccc" d="m415.57214 453.13123l-2.4015808 0l0 -22.063019l-4.803131 0l0 22.063019l-2.4015808 0l4.8031616 4.803131z" fill-rule="evenodd"/><path stroke="#000000" stroke-width="1.0" stroke-linejoin="round" stroke-linecap="butt" d="m415.57214 453.13123l-2.4015808 0l0 -22.063019l-4.803131 0l0 22.063019l-2.4015808 0l4.8031616 4.803131z" fill-rule="evenodd"/><path fill="#f4cccc" d="m425.1719 453.13123l-2.4015808 0l0 -22.063019l-4.8031616 0l0 22.063019l-2.4015808 0l4.8031616 4.803131z" fill-rule="evenodd"/><path stroke="#000000" stroke-width="1.0" stroke-linejoin="round" stroke-linecap="butt" d="m425.1719 453.13123l-2.4015808 0l0 -22.063019l-4.8031616 0l0 22.063019l-2.4015808 0l4.8031616 4.803131z" fill-rule="evenodd"/><path fill="#f4cccc" d="m434.77164 453.13123l-2.4015808 0l0 -22.063019l-4.8031616 0l0 22.063019l-2.4015503 0l4.803131 4.803131z" fill-rule="evenodd"/><path stroke="#000000" stroke-width="1.0" stroke-linejoin="round" stroke-linecap="butt" d="m434.77164 453.13123l-2.4015808 0l0 -22.063019l-4.8031616 0l0 22.063019l-2.4015503 0l4.803131 4.803131z" fill-rule="evenodd"/><path fill="#f4cccc" d="m473.1706 453.13123l-2.4015808 0l0 -22.063019l-4.803131 0l0 22.063019l-2.4015808 0l4.8031616 4.803131z" fill-rule="evenodd"/><path stroke="#000000" stroke-width="1.0" stroke-linejoin="round" stroke-linecap="butt" d="m473.1706 453.13123l-2.4015808 0l0 -22.063019l-4.803131 0l0 22.063019l-2.4015808 0l4.8031616 4.803131z" fill-rule="evenodd"/><path fill="#f4cccc" d="m482.77032 453.13123l-2.4015503 0l0 -22.063019l-4.8031616 0l0 22.063019l-2.4015808 0l4.8031616 4.803131z" fill-rule="evenodd"/><path stroke="#000000" stroke-width="1.0" stroke-linejoin="round" stroke-linecap="butt" d="m482.77032 453.13123l-2.4015503 0l0 -22.063019l-4.8031616 0l0 22.063019l-2.4015808 0l4.8031616 4.803131z" fill-rule="evenodd"/><path fill="#f4cccc" d="m492.3701 453.13123l-2.4015808 0l0 -22.063019l-4.8031616 0l0 22.063019l-2.4015503 0l4.803131 4.803131z" fill-rule="evenodd"/><path stroke="#000000" stroke-width="1.0" stroke-linejoin="round" stroke-linecap="butt" d="m492.3701 453.13123l-2.4015808 0l0 -22.063019l-4.8031616 0l0 22.063019l-2.4015503 0l4.803131 4.803131z" fill-rule="evenodd"/><path fill="#ffe599" d="m386.7638 304.32272l124.787384 0l0 67.212616l-124.787384 0z" fill-rule="evenodd"/><path stroke="#000000" stroke-width="2.0" stroke-linejoin="round" stroke-linecap="butt" d="m386.7638 304.32272l124.787384 0l0 67.212616l-124.787384 0z" fill-rule="evenodd"/><path fill="#fff2cc" d="m453.96378 313.92273l48.0 0l0 48.0l-48.0 0z" fill-rule="evenodd"/><path stroke="#000000" stroke-width="2.0" stroke-linejoin="round" stroke-linecap="butt" stroke-dasharray="2.0,6.0" d="m453.96378 313.92273l48.0 0l0 48.0l-48.0 0z" fill-rule="evenodd"/><path fill="#f4cccc" d="m473.41623 347.2008l-2.4015503 0l0 -22.062988l-4.8031616 0l0 22.062988l-2.4015808 0l4.8031616 4.8031616z" fill-rule="evenodd"/><path stroke="#000000" stroke-width="1.0" stroke-linejoin="round" stroke-linecap="butt" d="m473.41623 347.2008l-2.4015503 0l0 -22.062988l-4.8031616 0l0 22.062988l-2.4015808 0l4.8031616 4.8031616z" fill-rule="evenodd"/><path fill="#f4cccc" d="m483.01624 347.2008l-2.4015808 0l0 -22.062988l-4.803131 0l0 22.062988l-2.4015808 0l4.8031616 4.8031616z" fill-rule="evenodd"/><path stroke="#000000" stroke-width="1.0" stroke-linejoin="round" stroke-linecap="butt" d="m483.01624 347.2008l-2.4015808 0l0 -22.062988l-4.803131 0l0 22.062988l-2.4015808 0l4.8031616 4.8031616z" fill-rule="evenodd"/><path fill="#f4cccc" d="m492.61624 347.2008l-2.4015808 0l0 -22.062988l-4.803131 0l0 22.062988l-2.4015808 0l4.803131 4.8031616z" fill-rule="evenodd"/><path stroke="#000000" stroke-width="1.0" stroke-linejoin="round" stroke-linecap="butt" d="m492.61624 347.2008l-2.4015808 0l0 -22.062988l-4.803131 0l0 22.062988l-2.4015808 0l4.803131 4.8031616z" fill-rule="evenodd"/><path fill="#fff2cc" d="m396.36484 313.92273l48.0 0l0 48.0l-48.0 0z" fill-rule="evenodd"/><path stroke="#000000" stroke-width="2.0" stroke-linejoin="round" stroke-linecap="butt" stroke-dasharray="2.0,6.0" d="m396.36484 313.92273l48.0 0l0 48.0l-48.0 0z" fill-rule="evenodd"/><path fill="#f4cccc" d="m415.8173 347.2008l-2.4015808 0l0 -22.062988l-4.803131 0l0 22.062988l-2.4015808 0l4.803131 4.8031616z" fill-rule="evenodd"/><path stroke="#000000" stroke-width="1.0" stroke-linejoin="round" stroke-linecap="butt" d="m415.8173 347.2008l-2.4015808 0l0 -22.062988l-4.803131 0l0 22.062988l-2.4015808 0l4.803131 4.8031616z" fill-rule="evenodd"/><path fill="#f4cccc" d="m425.4173 347.2008l-2.4015808 0l0 -22.062988l-4.8031616 0l0 22.062988l-2.4015503 0l4.803131 4.8031616z" fill-rule="evenodd"/><path stroke="#000000" stroke-width="1.0" stroke-linejoin="round" stroke-linecap="butt" d="m425.4173 347.2008l-2.4015808 0l0 -22.062988l-4.8031616 0l0 22.062988l-2.4015503 0l4.803131 4.8031616z" fill-rule="evenodd"/><path fill="#f4cccc" d="m435.0173 347.2008l-2.4015808 0l0 -22.062988l-4.8031616 0l0 22.062988l-2.4015808 0l4.8031616 4.8031616z" fill-rule="evenodd"/><path stroke="#000000" stroke-width="1.0" stroke-linejoin="round" stroke-linecap="butt" d="m435.0173 347.2008l-2.4015808 0l0 -22.062988l-4.8031616 0l0 22.062988l-2.4015808 0l4.8031616 4.8031616z" fill-rule="evenodd"/><path fill="#000000" fill-opacity="0.0" d="m24.003937 121.91905l57.6063 0l0 48.0l-57.6063 0z" fill-rule="evenodd"/><path stroke="#000000" stroke-width="1.0" stroke-linejoin="round" stroke-linecap="butt" d="m24.003937 121.91905l57.6063 0l0 48.0l-57.6063 0z" fill-rule="evenodd"/><path fill="#000000" d="m36.413853 137.87656q0 0.859375 -0.328125 1.515625q-0.328125 0.65625 -0.953125 1.125q-0.609375 0.453125 -1.484375 0.6875q-0.859375 0.234375 -1.921875 0.234375l-3.125 0l0 -11.90625l3.40625 0q3.984375 0 3.984375 2.890625q0 0.96875 -0.46875 1.671875q-0.453125 0.6875 -1.484375 1.015625q0.46875 0.09375 0.90625 0.3125q0.4375 0.21875 0.765625 0.578125q0.328125 0.34375 0.515625 0.8125q0.1875 0.46875 0.1875 1.0625zm-2.109375 -5.234375q0 -0.359375 -0.109375 -0.671875q-0.109375 -0.328125 -0.390625 -0.5625q-0.265625 -0.234375 -0.734375 -0.375q-0.453125 -0.140625 -1.171875 -0.140625l-1.671875 0l0 3.734375l1.625 0q0.546875 0 1.0 -0.109375q0.453125 -0.125 0.765625 -0.375q0.328125 -0.25 0.5 -0.609375q0.1875 -0.375 0.1875 -0.890625zm0.390625 5.296875q0 -0.46875 -0.1875 -0.828125q-0.1875 -0.359375 -0.5625 -0.609375q-0.359375 -0.25 -0.890625 -0.390625q-0.515625 -0.140625 -1.171875 -0.140625l-1.65625 0l0 4.109375l1.703125 0q1.40625 0 2.078125 -0.515625q0.6875 -0.53125 0.6875 -1.625zm11.694794 3.5l-6.84375 0l0 -11.90625l1.640625 0l0 10.515625l5.203125 0l0 1.390625zm11.038544 -6.03125q0 1.609375 -0.375 2.78125q-0.375 1.15625 -1.015625 1.921875q-0.640625 0.75 -1.5 1.125q-0.859375 0.359375 -1.828125 0.359375q-1.140625 0 -2.0 -0.40625q-0.84375 -0.421875 -1.40625 -1.203125q-0.5625 -0.78125 -0.84375 -1.90625q-0.265625 -1.125 -0.265625 -2.53125q0 -1.59375 0.375 -2.75q0.375 -1.171875 1.015625 -1.921875q0.640625 -0.765625 1.5 -1.125q0.859375 -0.375 1.8125 -0.375q1.15625 0 2.0 0.421875q0.859375 0.40625 1.421875 1.1875q0.5625 0.78125 0.828125 1.90625q0.28125 1.109375 0.28125 2.515625zm-1.671875 0.125q0 -1.046875 -0.171875 -1.921875q-0.15625 -0.875 -0.515625 -1.5q-0.34375 -0.625 -0.90625 -0.96875q-0.5625 -0.359375 -1.359375 -0.359375q-0.765625 0 -1.3125 0.375q-0.546875 0.375 -0.90625 1.015625q-0.359375 0.625 -0.53125 1.484375q-0.171875 0.84375 -0.171875 1.796875q0 1.0625 0.15625 1.9375q0.171875 0.859375 0.515625 1.484375q0.359375 0.625 0.90625 0.96875q0.5625 0.34375 1.34375 0.34375q0.765625 0 1.3125 -0.359375q0.5625 -0.375 0.921875 -1.0q0.359375 -0.640625 0.53125 -1.484375q0.1875 -0.859375 0.1875 -1.8125zm11.2416725 5.453125q-1.421875 0.59375 -3.0000038 0.59375q-2.515625 0 -3.875 -1.5q-1.34375 -1.515625 -1.34375 -4.46875q0 -1.421875 0.359375 -2.578125q0.375 -1.15625 1.0625 -1.953125q0.703125 -0.8125 1.6875 -1.25q0.984375 -0.4375 2.2031288 -0.4375q0.828125 0 1.53125 0.140625q0.71875 0.140625 1.375 0.421875l0 1.59375q-0.640625 -0.34375 -1.34375 -0.53125q-0.6875 -0.1875 -1.5 -0.1875q-0.8437538 0 -1.5312538 0.3125q-0.671875 0.3125 -1.15625 0.90625q-0.46875 0.59375 -0.71875 1.46875q-0.25 0.859375 -0.25 1.953125q0 2.3125 0.9375 3.5q0.9375 1.171875 2.7500038 1.171875q0.765625 0 1.46875 -0.171875q0.703125 -0.1875 1.34375 -0.515625l0 1.53125zm10.726044 0.453125l-2.03125 0l-4.453125 -5.84375l0 5.84375l-1.625 0l0 -11.90625l1.625 0l0 5.53125l4.359375 -5.53125l1.921875 0l-4.703125 5.65625l4.90625 6.25z" fill-rule="nonzero"/><path fill="#000000" d="m41.370625 160.6203q0 0.84375 -0.34375 1.484375q-0.34375 0.625 -0.96875 1.0625q-0.609375 0.421875 -1.484375 0.625q-0.875 0.203125 -1.921875 0.203125q-0.46875 0 -0.9375 -0.03125q-0.46875 -0.03125 -0.90625 -0.09375q-0.421875 -0.046875 -0.8125 -0.109375q-0.375 -0.078125 -0.6875 -0.171875l0 -1.5625q0.671875 0.25 1.515625 0.40625q0.859375 0.140625 1.953125 0.140625q0.78125 0 1.328125 -0.125q0.5625 -0.125 0.90625 -0.359375q0.34375 -0.25 0.5 -0.59375q0.171875 -0.34375 0.171875 -0.796875q0 -0.46875 -0.28125 -0.8125q-0.265625 -0.34375 -0.703125 -0.609375q-0.4375 -0.28125 -1.0 -0.5q-0.546875 -0.21875 -1.140625 -0.453125q-0.578125 -0.234375 -1.140625 -0.515625q-0.5625 -0.28125 -1.0 -0.65625q-0.4375 -0.375 -0.703125 -0.890625q-0.265625 -0.515625 -0.265625 -1.21875q0 -0.609375 0.25 -1.1875q0.265625 -0.59375 0.796875 -1.046875q0.53125 -0.46875 1.375 -0.75q0.84375 -0.28125 2.015625 -0.28125q0.296875 0 0.640625 0.03125q0.359375 0.015625 0.71875 0.0625q0.359375 0.046875 0.703125 0.125q0.359375 0.0625 0.65625 0.125l0 1.46875q-0.703125 -0.203125 -1.40625 -0.3125q-0.6875 -0.109375 -1.34375 -0.109375q-1.40625 0 -2.0625 0.46875q-0.65625 0.46875 -0.65625 1.25q0 0.484375 0.265625 0.828125q0.28125 0.34375 0.71875 0.625q0.4375 0.265625 1.0 0.5q0.5625 0.21875 1.140625 0.453125q0.578125 0.234375 1.140625 0.515625q0.5625 0.28125 1.0 0.671875q0.4375 0.390625 0.703125 0.90625q0.265625 0.515625 0.265625 1.234375zm11.429169 -8.6875l-4.296875 7.65625l0 4.25l-1.640625 0l0 -4.296875l-4.3125 -7.609375l1.953125 0l2.375 4.359375l0.875 1.75l0.796875 -1.59375l2.40625 -4.515625l1.84375 0zm9.194794 11.90625l-2.125 0l-3.46875 -7.421875l-1.0 -2.390625l0 6.0l0 3.8125l-1.515625 0l0 -11.90625l2.09375 0l3.3125 7.03125l1.1875 2.71875l0 -6.375l0 -3.375l1.515625 0l0 11.90625zm10.1322975 -0.453125q-1.421875 0.59375 -3.0 0.59375q-2.515625 0 -3.875 -1.5q-1.3437538 -1.515625 -1.3437538 -4.46875q0 -1.421875 0.3593788 -2.578125q0.375 -1.15625 1.0625 -1.953125q0.703125 -0.8125 1.6875 -1.25q0.984375 -0.4375 2.203125 -0.4375q0.828125 0 1.53125 0.140625q0.71875 0.140625 1.375 0.421875l0 1.59375q-0.640625 -0.34375 -1.34375 -0.53125q-0.6875 -0.1875 -1.5 -0.1875q-0.84375 0 -1.53125 0.3125q-0.671875 0.3125 -1.15625 0.90625q-0.46875 0.59375 -0.71875 1.46875q-0.25 0.859375 -0.25 1.953125q0 2.3125 0.9375 3.5q0.9375 1.171875 2.75 1.171875q0.765625 0 1.46875 -0.171875q0.703125 -0.1875 1.34375 -0.515625l0 1.53125z" fill-rule="nonzero"/><path fill="#000000" fill-opacity="0.0" d="m81.61024 145.91905l45.95276 -52.724403" fill-rule="evenodd"/><path stroke="#bf9000" stroke-width="2.0" stroke-linejoin="round" stroke-linecap="butt" d="m81.61024 145.91905l45.95276 -52.724403" fill-rule="evenodd"/><path fill="#000000" fill-opacity="0.0" d="m31.553806 179.52274l47.999996 0l0 48.0l-47.999996 0z" fill-rule="evenodd"/><path stroke="#000000" stroke-width="1.0" stroke-linejoin="round" stroke-linecap="butt" d="m31.553806 179.52274l47.999996 0l0 48.0l-47.999996 0z" fill-rule="evenodd"/><path fill="#000000" d="m44.88297 187.13647l-0.796875 11.90625l-2.109375 0l-1.46875 -4.234375l-0.40625 -1.359375l-0.4375 1.46875l-1.359375 4.125l-2.03125 0l-0.828125 -11.90625l1.53125 0l0.46875 8.09375l0.140625 2.234375l0.5625 -1.890625l1.453125 -4.421875l1.109375 0l1.65625 4.734375l0.5625 1.578125l0.03125 -1.640625l0.484375 -8.6875l1.4375 0zm10.585419 11.90625l-1.765625 0l-0.84375 -2.59375l-4.953125 0l-0.828125 2.59375l-1.6875 0l3.953125 -11.90625l2.21875 0l3.90625 11.90625zm-3.0625 -4.046875l-2.015625 -6.359375l-2.015625 6.359375l4.03125 0zm12.72604 4.046875l-1.8281212 0l-1.78125 -3.8125q-0.203125 -0.4375 -0.421875 -0.71875q-0.203125 -0.28125 -0.453125 -0.453125q-0.234375 -0.171875 -0.515625 -0.234375q-0.28125 -0.078125 -0.640625 -0.078125l-0.765625 0l0 5.296875l-1.625 0l0 -11.90625l3.1875 0q1.046875 0 1.78125 0.234375q0.75 0.21875 1.21875 0.640625q0.484375 0.40625 0.703125 0.984375q0.23437119 0.578125 0.23437119 1.28125q0 0.546875 -0.171875 1.046875q-0.15624619 0.5 -0.4843712 0.90625q-0.3125 0.40625 -0.796875 0.703125q-0.484375 0.28125 -1.09375 0.4375q0.5 0.171875 0.84375 0.609375q0.359375 0.421875 0.71875 1.140625l1.8906212 3.921875zm-2.5937462 -8.640625q0 -0.953125 -0.609375 -1.421875q-0.59375 -0.484375 -1.671875 -0.484375l-1.53125 0l0 3.9375l1.3125 0q0.578125 0 1.03125 -0.125q0.453125 -0.140625 0.78125 -0.390625q0.328125 -0.265625 0.5 -0.640625q0.1875 -0.375 0.1875 -0.875zm12.522915 0.375q0 0.734375 -0.28125 1.453125q-0.265625 0.703125 -0.84375 1.28125q-0.5625 0.5625 -1.453125 0.921875q-0.890625 0.34375 -2.140625 0.34375l-1.46875 0l0 4.265625l-1.625 0l0 -11.90625l3.359375 0q0.875 0 1.6875 0.203125q0.8125 0.1875 1.421875 0.625q0.625 0.4375 0.984375 1.140625q0.359375 0.6875 0.359375 1.671875zm-1.6875 0.078125q0 -1.15625 -0.75 -1.765625q-0.75 -0.609375 -2.09375 -0.609375l-1.65625 0l0 4.90625l1.515625 0q1.4375 0 2.203125 -0.625q0.78125 -0.640625 0.78125 -1.90625z" fill-rule="nonzero"/><path fill="#000000" d="m44.117344 218.22398q0 0.84375 -0.34375 1.484375q-0.34375 0.625 -0.96875 1.0625q-0.609375 0.421875 -1.484375 0.625q-0.875 0.203125 -1.921875 0.203125q-0.46875 0 -0.9375 -0.03125q-0.46875 -0.03125 -0.90625 -0.09375q-0.421875 -0.046875 -0.8125 -0.109375q-0.375 -0.078125 -0.6875 -0.171875l0 -1.5625q0.671875 0.25 1.515625 0.40625q0.859375 0.140625 1.953125 0.140625q0.78125 0 1.328125 -0.125q0.5625 -0.125 0.90625 -0.359375q0.34375 -0.25 0.5 -0.59375q0.171875 -0.34375 0.171875 -0.796875q0 -0.46875 -0.28125 -0.8125q-0.265625 -0.34375 -0.703125 -0.609375q-0.4375 -0.28125 -1.0 -0.5q-0.546875 -0.21875 -1.140625 -0.453125q-0.578125 -0.234375 -1.140625 -0.515625q-0.5625 -0.28125 -1.0 -0.65625q-0.4375 -0.375 -0.703125 -0.890625q-0.265625 -0.515625 -0.265625 -1.21875q0 -0.609375 0.25 -1.1875q0.265625 -0.59375 0.796875 -1.046875q0.53125 -0.46875 1.375 -0.75q0.84375 -0.28125 2.015625 -0.28125q0.296875 0 0.640625 0.03125q0.359375 0.015625 0.71875 0.0625q0.359375 0.046875 0.703125 0.125q0.359375 0.0625 0.65625 0.125l0 1.46875q-0.703125 -0.203125 -1.40625 -0.3125q-0.6875 -0.109375 -1.34375 -0.109375q-1.40625 0 -2.0625 0.46875q-0.65625 0.46875 -0.65625 1.25q0 0.484375 0.265625 0.828125q0.28125 0.34375 0.71875 0.625q0.4375 0.265625 1.0 0.5q0.5625 0.21875 1.140625 0.453125q0.578125 0.234375 1.140625 0.515625q0.5625 0.28125 1.0 0.671875q0.4375 0.390625 0.703125 0.90625q0.265625 0.515625 0.265625 1.234375zm11.429169 -8.6875l-4.296875 7.65625l0 4.25l-1.640625 0l0 -4.296875l-4.3125 -7.609375l1.953125 0l2.375 4.359375l0.875 1.75l0.796875 -1.59375l2.40625 -4.515625l1.84375 0zm9.19479 11.90625l-2.1249962 0l-3.46875 -7.421875l-1.0 -2.390625l0 6.0l0 3.8125l-1.515625 0l0 -11.90625l2.09375 0l3.3125 7.03125l1.1875 2.71875l0 -6.375l0 -3.375l1.5156212 0l0 11.90625zm10.132294 -0.453125q-1.421875 0.59375 -3.0 0.59375q-2.515625 0 -3.875 -1.5q-1.34375 -1.515625 -1.34375 -4.46875q0 -1.421875 0.359375 -2.578125q0.375 -1.15625 1.0625 -1.953125q0.703125 -0.8125 1.6875 -1.25q0.984375 -0.4375 2.203125 -0.4375q0.828125 0 1.53125 0.140625q0.71875 0.140625 1.375 0.421875l0 1.59375q-0.640625 -0.34375 -1.34375 -0.53125q-0.6875 -0.1875 -1.5 -0.1875q-0.84375 0 -1.53125 0.3125q-0.671875 0.3125 -1.15625 0.90625q-0.46875 0.59375 -0.71875 1.46875q-0.25 0.859375 -0.25 1.953125q0 2.3125 0.9375 3.5q0.9375 1.171875 2.75 1.171875q0.765625 0 1.46875 -0.171875q0.703125 -0.1875 1.34375 -0.515625l0 1.53125z" fill-rule="nonzero"/><path fill="#000000" fill-opacity="0.0" d="m79.5538 203.52274l48.0 -81.51182" fill-rule="evenodd"/><path stroke="#990000" stroke-width="2.0" stroke-linejoin="round" stroke-linecap="butt" d="m79.5538 203.52274l48.0 -81.51182" fill-rule="evenodd"/><path fill="#ffe599" d="m7.7952757 53.09449l81.24912 0l0 39.507355l27.979225 0l0 8.492645l-109.22835 0z" fill-rule="evenodd"/><path stroke="#000000" stroke-width="2.0" stroke-linejoin="round" stroke-linecap="butt" d="m7.7952757 53.09449l81.24912 0l0 39.507355l27.979225 0l0 8.492645l-109.22835 0z" fill-rule="evenodd"/><path fill="#000000" d="m26.045275 78.205666q0 0.859375 -0.328125 1.515625q-0.328125 0.65625 -0.953125 1.125q-0.609375 0.453125 -1.484375 0.6875q-0.859375 0.234375 -1.921875 0.234375l-3.125 0l0 -11.90625l3.40625 0q3.984375 0 3.984375 2.890625q0 0.96875 -0.46875 1.671875q-0.453125 0.6875 -1.484375 1.015625q0.46875 0.09375 0.90625 0.3125q0.4375 0.21875 0.765625 0.578125q0.328125 0.34375 0.515625 0.8125q0.1875 0.46875 0.1875 1.0625zm-2.109375 -5.234375q0 -0.359375 -0.109375 -0.671875q-0.109375 -0.328125 -0.390625 -0.5625q-0.265625 -0.234375 -0.734375 -0.375q-0.453125 -0.140625 -1.171875 -0.140625l-1.671875 0l0 3.734375l1.625 0q0.546875 0 1.0 -0.109375q0.453125 -0.125 0.765625 -0.375q0.328125 -0.25 0.5 -0.609375q0.1875 -0.375 0.1875 -0.890625zm0.390625 5.296875q0 -0.46875 -0.1875 -0.828125q-0.1875 -0.359375 -0.5625 -0.609375q-0.359375 -0.25 -0.890625 -0.390625q-0.515625 -0.140625 -1.171875 -0.140625l-1.65625 0l0 4.109375l1.703125 0q1.40625 0 2.078125 -0.515625q0.6875 -0.53125 0.6875 -1.625zm7.3041687 -8.0625l-2.703125 0l0 -1.3125l4.296877 0l0 11.546875l2.734375 0l0 1.328125l-7.343752 0l0 -1.328125l3.015625 0l0 -10.234375zm15.101046 6.921875q0 1.0625 -0.3125 1.953125q-0.296875 0.890625 -0.859375 1.53125q-0.5625 0.625 -1.375 0.96875q-0.8125 0.34375 -1.84375 0.34375q-0.984375 0 -1.765625 -0.296875q-0.765625 -0.3125 -1.3125 -0.890625q-0.546875 -0.59375 -0.828125 -1.46875q-0.28125 -0.875 -0.28125 -2.015625q0 -1.0625 0.296875 -1.9375q0.296875 -0.890625 0.859375 -1.515625q0.5625 -0.640625 1.375 -0.984375q0.8125 -0.359375 1.84375 -0.359375q0.984375 0 1.765625 0.3125q0.78125 0.296875 1.3125 0.890625q0.546875 0.578125 0.828125 1.453125q0.296875 0.875 0.296875 2.015625zm-1.625 0.0625q0 -0.84375 -0.1875 -1.46875q-0.1875 -0.640625 -0.53125 -1.0625q-0.34375 -0.421875 -0.84375 -0.640625q-0.5 -0.21875 -1.109375 -0.21875q-0.703125 0 -1.21875 0.28125q-0.5 0.28125 -0.828125 0.75q-0.3125 0.453125 -0.46875 1.078125q-0.15625 0.609375 -0.15625 1.28125q0 0.859375 0.1875 1.5q0.1875 0.625 0.53125 1.046875q0.359375 0.421875 0.84375 0.640625q0.5 0.21875 1.109375 0.21875q0.71875 0 1.21875 -0.28125q0.5 -0.28125 0.828125 -0.734375q0.328125 -0.46875 0.46875 -1.078125q0.15625 -0.625 0.15625 -1.3125zm11.022919 4.234375q-0.625 0.25 -1.28125 0.359375q-0.640625 0.109375 -1.328125 0.109375q-2.171875 0 -3.34375 -1.171875q-1.171875 -1.171875 -1.171875 -3.4375q0 -1.078125 0.328125 -1.953125q0.34375 -0.890625 0.953125 -1.515625q0.609375 -0.640625 1.453125 -0.984375q0.859375 -0.34375 1.875 -0.34375q0.71875 0 1.328125 0.109375q0.625 0.09375 1.1875 0.328125l0 1.515625q-0.59375 -0.3125 -1.21875 -0.453125q-0.609375 -0.140625 -1.265625 -0.140625q-0.609375 0 -1.15625 0.234375q-0.53125 0.234375 -0.9375 0.671875q-0.40625 0.421875 -0.65625 1.0625q-0.234375 0.625 -0.234375 1.421875q0 1.65625 0.796875 2.484375q0.8125 0.8125 2.25 0.8125q0.640625 0 1.25 -0.140625q0.609375 -0.140625 1.171875 -0.4375l0 1.46875zm11.38229 0.34375l-2.1875 0l-4.249996 -4.90625l0 4.90625l-1.59375 0l0 -12.875l1.59375 0l0 7.90625l4.093746 -4.171875l2.109375 0l-4.296871 4.21875l4.531246 4.921875z" fill-rule="nonzero"/><path fill="#ffe599" d="m113.13648 93.63517l6.3622055 0l0 6.3936996l-6.3622055 0z" fill-rule="evenodd"/></g></svg>