<svg version="1.1" viewBox="0.0 0.0 1068.275590551181 287.5853018372703" fill="none" stroke="none" stroke-linecap="square" stroke-miterlimit="10" xmlns:xlink="http://www.w3.org/1999/xlink" xmlns="http://www.w3.org/2000/svg"><clipPath id="p.0"><path d="m0 0l1068.2756 0l0 287.5853l-1068.2756 0l0 -287.5853z" clip-rule="nonzero"/></clipPath><g clip-path="url(#p.0)"><path fill="#000000" fill-opacity="0.0" d="m0 0l1068.2756 0l0 287.5853l-1068.2756 0z" fill-rule="evenodd"/><path fill="#ffffff" d="m1068.3386 0l-1068.2834 0l0 287.59055l1068.2834 0z" fill-rule="evenodd"/><path fill="#efefef" d="m429.521 84.86482l38.015747 0l0 24.913383l-38.015747 0z" fill-rule="evenodd"/><path stroke="#000000" stroke-width="4.0" stroke-linejoin="round" stroke-linecap="butt" d="m429.521 84.86482l38.015747 0l0 24.913383l-38.015747 0z" fill-rule="evenodd"/><path fill="#000000" d="m442.34918 99.01214l1.875 -0.171875q0.171875 0.9375 0.6875 1.390625q0.515625 0.4375 1.390625 0.4375q0.9375 0 1.40625 -0.390625q0.46875 -0.40625 0.46875 -0.921875q0 -0.34375 -0.203125 -0.578125q-0.1875 -0.234375 -0.6875 -0.421875q-0.34375 -0.109375 -1.546875 -0.40625q-1.546875 -0.390625 -2.171875 -0.953125q-0.875 -0.78125 -0.875 -1.921875q0 -0.71875 0.40625 -1.359375q0.421875 -0.640625 1.1875 -0.96875q0.78125 -0.328125 1.890625 -0.328125q1.796875 0 2.703125 0.796875q0.90625 0.78125 0.953125 2.09375l-1.921875 0.078125q-0.125 -0.734375 -0.53125 -1.046875q-0.40625 -0.328125 -1.234375 -0.328125q-0.828125 0 -1.3125 0.34375q-0.296875 0.21875 -0.296875 0.59375q0 0.34375 0.28125 0.578125q0.359375 0.3125 1.765625 0.640625q1.40625 0.328125 2.078125 0.6875q0.6875 0.359375 1.0625 0.96875q0.375 0.609375 0.375 1.515625q0 0.828125 -0.453125 1.546875q-0.453125 0.703125 -1.296875 1.0625q-0.828125 0.34375 -2.0625 0.34375q-1.8125 0 -2.78125 -0.828125q-0.96875 -0.84375 -1.15625 -2.453125zm12.5303955 -3.796875l0 1.453125l-1.25 0l0 2.78125q0 0.84375 0.03125 0.984375q0.046875 0.140625 0.171875 0.234375q0.125 0.09375 0.3125 0.09375q0.25 0 0.734375 -0.171875l0.15625 1.421875q-0.640625 0.265625 -1.453125 0.265625q-0.484375 0 -0.890625 -0.15625q-0.390625 -0.171875 -0.578125 -0.4375q-0.1875 -0.265625 -0.265625 -0.71875q-0.046875 -0.3125 -0.046875 -1.28125l0 -3.015625l-0.84375 0l0 -1.453125l0.84375 0l0 -1.375l1.828125 -1.078125l0 2.453125l1.25 0z" fill-rule="nonzero"/><path fill="#cfe2f3" d="m467.54987 84.86483l53.700806 0l0 24.913383l-53.700806 0z" fill-rule="evenodd"/><path stroke="#000000" stroke-width="4.0" stroke-linejoin="round" stroke-linecap="butt" d="m467.54987 84.86483l53.700806 0l0 24.913383l-53.700806 0z" fill-rule="evenodd"/><path fill="#000000" d="m487.3495 103.18152l-2.1875 0l0 -8.28125q-1.203125 1.125 -2.84375 1.671875l0 -2.0q0.859375 -0.28125 1.859375 -1.0625q1.015625 -0.78125 1.390625 -1.828125l1.78125 0l0 11.5zm6.9921875 -11.5q1.671875 0 2.609375 1.1875q1.109375 1.40625 1.109375 4.65625q0 3.25 -1.125 4.671875q-0.921875 1.1875 -2.59375 1.1875q-1.671875 0 -2.703125 -1.28125q-1.015625 -1.296875 -1.015625 -4.59375q0 -3.234375 1.125 -4.65625q0.9375 -1.171875 2.59375 -1.171875zm0 1.8125q-0.390625 0 -0.703125 0.265625q-0.3125 0.25 -0.484375 0.90625q-0.234375 0.84375 -0.234375 2.859375q0 2.015625 0.203125 2.78125q0.203125 0.75 0.515625 1.0q0.3125 0.25 0.703125 0.25q0.40625 0 0.71875 -0.25q0.3125 -0.265625 0.484375 -0.921875q0.21875 -0.84375 0.21875 -2.859375q0 -2.015625 -0.203125 -2.765625q-0.203125 -0.75 -0.515625 -1.0q-0.296875 -0.265625 -0.703125 -0.265625zm12.6015625 7.640625l0 2.046875l-7.6875 0q0.125 -1.15625 0.75 -2.1875q0.625 -1.046875 2.46875 -2.75q1.484375 -1.390625 1.8125 -1.875q0.453125 -0.6875 0.453125 -1.34375q0 -0.734375 -0.390625 -1.125q-0.390625 -0.40625 -1.09375 -0.40625q-0.6875 0 -1.09375 0.421875q-0.40625 0.40625 -0.46875 1.375l-2.1875 -0.21875q0.203125 -1.8125 1.234375 -2.59375q1.03125 -0.796875 2.578125 -0.796875q1.6875 0 2.65625 0.921875q0.96875 0.90625 0.96875 2.265625q0 0.765625 -0.28125 1.46875q-0.265625 0.703125 -0.875 1.46875q-0.390625 0.5 -1.4375 1.453125q-1.03125 0.953125 -1.3125 1.265625q-0.28125 0.3125 -0.453125 0.609375l4.359375 0z" fill-rule="nonzero"/><path fill="#efefef" d="m429.521 109.77427l38.015747 0l0 24.913383l-38.015747 0z" fill-rule="evenodd"/><path stroke="#000000" stroke-width="4.0" stroke-linejoin="round" stroke-linecap="butt" d="m429.521 109.77427l38.015747 0l0 24.913383l-38.015747 0z" fill-rule="evenodd"/><path fill="#000000" d="m440.24017 127.03096l0 -9.546875l3.09375 0q1.75 0 2.296875 0.15625q0.8125 0.203125 1.359375 0.921875q0.5625 0.71875 0.5625 1.859375q0 0.875 -0.328125 1.484375q-0.3125 0.59375 -0.8125 0.9375q-0.484375 0.34375 -0.984375 0.453125q-0.703125 0.140625 -2.0 0.140625l-1.265625 0l0 3.59375l-1.921875 0zm1.921875 -7.921875l0 2.703125l1.0625 0q1.140625 0 1.515625 -0.140625q0.390625 -0.15625 0.609375 -0.46875q0.21875 -0.328125 0.21875 -0.75q0 -0.515625 -0.3125 -0.859375q-0.296875 -0.34375 -0.765625 -0.421875q-0.34375 -0.0625 -1.390625 -0.0625l-0.9375 0zm13.07724 4.421875l1.859375 0.578125q-0.421875 1.5625 -1.421875 2.328125q-1.0 0.75 -2.53125 0.75q-1.90625 0 -3.140625 -1.296875q-1.21875 -1.296875 -1.21875 -3.546875q0 -2.375 1.234375 -3.6875q1.234375 -1.328125 3.234375 -1.328125q1.75 0 2.84375 1.03125q0.65625 0.609375 0.984375 1.765625l-1.90625 0.453125q-0.171875 -0.75 -0.71875 -1.171875q-0.53125 -0.4375 -1.296875 -0.4375q-1.0625 0 -1.734375 0.765625q-0.65625 0.765625 -0.65625 2.46875q0 1.8125 0.65625 2.578125q0.65625 0.765625 1.6875 0.765625q0.78125 0 1.328125 -0.484375q0.546875 -0.484375 0.796875 -1.53125z" fill-rule="nonzero"/><path fill="#fff2cc" d="m467.54987 109.77428l53.700806 0l0 24.913391l-53.700806 0z" fill-rule="evenodd"/><path stroke="#000000" stroke-width="4.0" stroke-linejoin="round" stroke-linecap="butt" d="m467.54987 109.77428l53.700806 0l0 24.913391l-53.700806 0z" fill-rule="evenodd"/><path fill="#000000" d="m491.7987 128.09097l-2.1875 0l0 -8.28125q-1.203125 1.125 -2.84375 1.671875l0 -2.0q0.859375 -0.28125 1.859375 -1.0625q1.015625 -0.78125 1.390625 -1.828125l1.78125 0l0 11.5zm3.3203125 -2.953125l2.1875 -0.21875q0.09375 0.734375 0.546875 1.171875q0.46875 0.4375 1.0625 0.4375q0.6875 0 1.15625 -0.5625q0.484375 -0.5625 0.484375 -1.6875q0 -1.046875 -0.46875 -1.578125q-0.46875 -0.53125 -1.234375 -0.53125q-0.9375 0 -1.6875 0.84375l-1.78125 -0.265625l1.125 -5.953125l5.796875 0l0 2.046875l-4.140625 0l-0.34375 1.953125q0.734375 -0.375 1.5 -0.375q1.46875 0 2.484375 1.0625q1.015625 1.0625 1.015625 2.765625q0 1.40625 -0.828125 2.515625q-1.109375 1.53125 -3.09375 1.53125q-1.59375 0 -2.59375 -0.859375q-1.0 -0.859375 -1.1875 -2.296875z" fill-rule="nonzero"/><path fill="#efefef" d="m429.521 10.136483l38.015747 0l0 24.913387l-38.015747 0z" fill-rule="evenodd"/><path stroke="#000000" stroke-width="4.0" stroke-linejoin="round" stroke-linecap="butt" d="m429.521 10.136483l38.015747 0l0 24.913387l-38.015747 0z" fill-rule="evenodd"/><path fill="#000000" d="m454.25153 28.453175l-2.515625 0l-1.0 -2.609375l-4.578125 0l-0.953125 2.609375l-2.453125 0l4.46875 -11.453125l2.4375 0l4.59375 11.453125zm-4.265625 -4.53125l-1.578125 -4.25l-1.546875 4.25l3.125 0z" fill-rule="nonzero"/><path fill="#efefef" d="m429.521 35.04593l38.015747 0l0 24.913387l-38.015747 0z" fill-rule="evenodd"/><path stroke="#000000" stroke-width="4.0" stroke-linejoin="round" stroke-linecap="butt" d="m429.521 35.04593l38.015747 0l0 24.913387l-38.015747 0z" fill-rule="evenodd"/><path fill="#000000" d="m443.9234 41.909496l4.578125 0q1.359375 0 2.03125 0.109375q0.671875 0.109375 1.1875 0.46875q0.53125 0.359375 0.875 0.96875q0.359375 0.59375 0.359375 1.328125q0 0.8125 -0.4375 1.484375q-0.421875 0.671875 -1.171875 1.0q1.046875 0.3125 1.609375 1.046875q0.5625 0.734375 0.5625 1.71875q0 0.78125 -0.359375 1.53125q-0.359375 0.734375 -1.0 1.171875q-0.625 0.4375 -1.546875 0.546875q-0.578125 0.0625 -2.78125 0.078125l-3.90625 0l0 -11.453125zm2.3125 1.90625l0 2.640625l1.515625 0q1.359375 0 1.6875 -0.03125q0.59375 -0.078125 0.921875 -0.40625q0.34375 -0.34375 0.34375 -0.90625q0 -0.53125 -0.296875 -0.859375q-0.28125 -0.328125 -0.859375 -0.40625q-0.34375 -0.03125 -1.984375 -0.03125l-1.328125 0zm0 4.546875l0 3.0625l2.140625 0q1.25 0 1.59375 -0.0625q0.515625 -0.09375 0.828125 -0.453125q0.328125 -0.375 0.328125 -0.984375q0 -0.515625 -0.25 -0.875q-0.25 -0.359375 -0.71875 -0.515625q-0.46875 -0.171875 -2.046875 -0.171875l-1.875 0z" fill-rule="nonzero"/><path fill="#efefef" d="m429.521 59.955376l38.015747 0l0 24.913383l-38.015747 0z" fill-rule="evenodd"/><path stroke="#000000" stroke-width="4.0" stroke-linejoin="round" stroke-linecap="butt" d="m429.521 59.955376l38.015747 0l0 24.913383l-38.015747 0z" fill-rule="evenodd"/><path fill="#000000" d="m451.25153 74.05332l2.234375 0.71875q-0.515625 1.875 -1.71875 2.796875q-1.1875 0.90625 -3.03125 0.90625q-2.28125 0 -3.75 -1.5625q-1.46875 -1.5625 -1.46875 -4.265625q0 -2.859375 1.46875 -4.4375q1.484375 -1.59375 3.890625 -1.59375q2.09375 0 3.40625 1.25q0.78125 0.734375 1.171875 2.109375l-2.28125 0.546875q-0.203125 -0.890625 -0.859375 -1.40625q-0.640625 -0.515625 -1.5625 -0.515625q-1.265625 0 -2.0625 0.921875q-0.796875 0.90625 -0.796875 2.953125q0 2.171875 0.78125 3.09375q0.78125 0.921875 2.03125 0.921875q0.921875 0 1.578125 -0.578125q0.671875 -0.59375 0.96875 -1.859375z" fill-rule="nonzero"/><path fill="#ffffff" d="m467.54987 10.136483l53.700806 0l0 24.913387l-53.700806 0z" fill-rule="evenodd"/><path stroke="#000000" stroke-width="4.0" stroke-linejoin="round" stroke-linecap="butt" d="m467.54987 10.136483l53.700806 0l0 24.913387l-53.700806 0z" fill-rule="evenodd"/><path fill="#000000" d="m489.14636 26.4063l0 2.046875l-7.6875 0q0.125 -1.15625 0.75 -2.1875q0.625 -1.046875 2.46875 -2.75q1.484375 -1.390625 1.8125 -1.875q0.453125 -0.6875 0.453125 -1.34375q0 -0.734375 -0.390625 -1.125q-0.390625 -0.40625 -1.09375 -0.40625q-0.6875 0 -1.09375 0.421875q-0.40625 0.40625 -0.46875 1.375l-2.1875 -0.21875q0.203125 -1.8125 1.234375 -2.59375q1.03125 -0.796875 2.578125 -0.796875q1.6875 0 2.65625 0.921875q0.96875 0.90625 0.96875 2.265625q0 0.765625 -0.28125 1.46875q-0.265625 0.703125 -0.875 1.46875q-0.390625 0.5 -1.4375 1.453125q-1.03125 0.953125 -1.3125 1.265625q-0.28125 0.3125 -0.453125 0.609375l4.359375 0zm5.7890625 2.046875l0 -2.3125l-4.6875 0l0 -1.921875l4.96875 -7.265625l1.84375 0l0 7.265625l1.421875 0l0 1.921875l-1.421875 0l0 2.3125l-2.125 0zm0 -4.234375l0 -3.921875l-2.625 3.921875l2.625 0zm4.5234375 1.1875l2.125 -0.25q0.09375 0.8125 0.53125 1.25q0.453125 0.421875 1.09375 0.421875q0.671875 0 1.140625 -0.515625q0.46875 -0.515625 0.46875 -1.390625q0 -0.828125 -0.453125 -1.3125q-0.4375 -0.484375 -1.078125 -0.484375q-0.421875 0 -1.015625 0.15625l0.25 -1.78125q0.890625 0.015625 1.359375 -0.390625q0.46875 -0.40625 0.46875 -1.09375q0 -0.578125 -0.34375 -0.921875q-0.34375 -0.34375 -0.921875 -0.34375q-0.5625 0 -0.96875 0.390625q-0.390625 0.390625 -0.46875 1.140625l-2.03125 -0.34375q0.21875 -1.03125 0.640625 -1.65625q0.421875 -0.625 1.1875 -0.96875q0.765625 -0.359375 1.703125 -0.359375q1.625 0 2.59375 1.03125q0.8125 0.84375 0.8125 1.90625q0 1.5 -1.65625 2.40625q0.984375 0.203125 1.578125 0.9375q0.59375 0.734375 0.59375 1.78125q0 1.5 -1.109375 2.578125q-1.09375 1.0625 -2.734375 1.0625q-1.5625 0 -2.59375 -0.890625q-1.015625 -0.90625 -1.171875 -2.359375z" fill-rule="nonzero"/><path fill="#ffffff" d="m467.54987 35.045933l53.700806 0l0 24.913383l-53.700806 0z" fill-rule="evenodd"/><path stroke="#000000" stroke-width="4.0" stroke-linejoin="round" stroke-linecap="butt" d="m467.54987 35.045933l53.700806 0l0 24.913383l-53.700806 0z" fill-rule="evenodd"/><path fill="#000000" d="m489.14636 51.31575l0 2.046875l-7.6875 0q0.125 -1.15625 0.75 -2.1875q0.625 -1.046875 2.46875 -2.75q1.484375 -1.390625 1.8125 -1.875q0.453125 -0.6875 0.453125 -1.34375q0 -0.734375 -0.390625 -1.125q-0.390625 -0.40625 -1.09375 -0.40625q-0.6875 0 -1.09375 0.421875q-0.40625 0.40625 -0.46875 1.375l-2.1875 -0.21875q0.203125 -1.8125 1.234375 -2.59375q1.03125 -0.796875 2.578125 -0.796875q1.6875 0 2.65625 0.921875q0.96875 0.90625 0.96875 2.265625q0 0.765625 -0.28125 1.46875q-0.265625 0.703125 -0.875 1.46875q-0.390625 0.5 -1.4375 1.453125q-1.03125 0.953125 -1.3125 1.265625q-0.28125 0.3125 -0.453125 0.609375l4.359375 0zm5.7890625 2.046875l0 -2.3125l-4.6875 0l0 -1.921875l4.96875 -7.265625l1.84375 0l0 7.265625l1.421875 0l0 1.921875l-1.421875 0l0 2.3125l-2.125 0zm0 -4.234375l0 -3.921875l-2.625 3.921875l2.625 0zm8.8984375 4.234375l0 -2.3125l-4.6875 0l0 -1.921875l4.96875 -7.265625l1.84375 0l0 7.265625l1.421875 0l0 1.921875l-1.421875 0l0 2.3125l-2.125 0zm0 -4.234375l0 -3.921875l-2.625 3.921875l2.625 0z" fill-rule="nonzero"/><path fill="#ffffff" d="m467.54987 59.95538l53.700806 0l0 24.913387l-53.700806 0z" fill-rule="evenodd"/><path stroke="#000000" stroke-width="4.0" stroke-linejoin="round" stroke-linecap="butt" d="m467.54987 59.95538l53.700806 0l0 24.913387l-53.700806 0z" fill-rule="evenodd"/><path fill="#000000" d="m493.62683 69.61582l-2.125 0.234375q-0.078125 -0.65625 -0.40625 -0.96875q-0.328125 -0.3125 -0.859375 -0.3125q-0.6875 0 -1.171875 0.625q-0.484375 0.625 -0.609375 2.609375q0.828125 -0.96875 2.046875 -0.96875q1.375 0 2.34375 1.046875q0.984375 1.046875 0.984375 2.703125q0 1.75 -1.03125 2.828125q-1.03125 1.0625 -2.640625 1.0625q-1.734375 0 -2.859375 -1.34375q-1.109375 -1.359375 -1.109375 -4.4375q0 -3.140625 1.15625 -4.53125q1.171875 -1.390625 3.03125 -1.390625q1.296875 0 2.15625 0.734375q0.859375 0.71875 1.09375 2.109375zm-4.984375 4.796875q0 1.0625 0.484375 1.65625q0.5 0.578125 1.140625 0.578125q0.609375 0 1.015625 -0.46875q0.40625 -0.484375 0.40625 -1.578125q0 -1.109375 -0.4375 -1.625q-0.4375 -0.53125 -1.09375 -0.53125q-0.640625 0 -1.078125 0.5q-0.4375 0.5 -0.4375 1.46875zm6.4765625 0.90625l2.1875 -0.21875q0.09375 0.734375 0.546875 1.171875q0.46875 0.4375 1.0625 0.4375q0.6875 0 1.15625 -0.5625q0.484375 -0.5625 0.484375 -1.6875q0 -1.046875 -0.46875 -1.578125q-0.46875 -0.53125 -1.234375 -0.53125q-0.9375 0 -1.6875 0.84375l-1.78125 -0.265625l1.125 -5.953125l5.796875 0l0 2.046875l-4.140625 0l-0.34375 1.953125q0.734375 -0.375 1.5 -0.375q1.46875 0 2.484375 1.0625q1.015625 1.0625 1.015625 2.765625q0 1.40625 -0.828125 2.515625q-1.109375 1.53125 -3.09375 1.53125q-1.59375 0 -2.59375 -0.859375q-1.0 -0.859375 -1.1875 -2.296875z" fill-rule="nonzero"/><path fill="#efefef" d="m662.2139 84.86482l38.015747 0l0 24.913383l-38.015747 0z" fill-rule="evenodd"/><path stroke="#000000" stroke-width="4.0" stroke-linejoin="round" stroke-linecap="butt" d="m662.2139 84.86482l38.015747 0l0 24.913383l-38.015747 0z" fill-rule="evenodd"/><path fill="#000000" d="m675.0421 99.01214l1.875 -0.171875q0.171875 0.9375 0.6875 1.390625q0.515625 0.4375 1.390625 0.4375q0.9375 0 1.40625 -0.390625q0.46875 -0.40625 0.46875 -0.921875q0 -0.34375 -0.203125 -0.578125q-0.1875 -0.234375 -0.6875 -0.421875q-0.34375 -0.109375 -1.546875 -0.40625q-1.546875 -0.390625 -2.171875 -0.953125q-0.875 -0.78125 -0.875 -1.921875q0 -0.71875 0.40625 -1.359375q0.421875 -0.640625 1.1875 -0.96875q0.78125 -0.328125 1.890625 -0.328125q1.796875 0 2.703125 0.796875q0.90625 0.78125 0.953125 2.09375l-1.921875 0.078125q-0.125 -0.734375 -0.53125 -1.046875q-0.40625 -0.328125 -1.234375 -0.328125q-0.828125 0 -1.3125 0.34375q-0.296875 0.21875 -0.296875 0.59375q0 0.34375 0.28125 0.578125q0.359375 0.3125 1.765625 0.640625q1.40625 0.328125 2.078125 0.6875q0.6875 0.359375 1.0625 0.96875q0.375 0.609375 0.375 1.515625q0 0.828125 -0.453125 1.546875q-0.453125 0.703125 -1.296875 1.0625q-0.828125 0.34375 -2.0625 0.34375q-1.8125 0 -2.78125 -0.828125q-0.96875 -0.84375 -1.15625 -2.453125zm12.530334 -3.796875l0 1.453125l-1.25 0l0 2.78125q0 0.84375 0.03125 0.984375q0.046875 0.140625 0.171875 0.234375q0.125 0.09375 0.3125 0.09375q0.25 0 0.734375 -0.171875l0.15625 1.421875q-0.640625 0.265625 -1.453125 0.265625q-0.484375 0 -0.890625 -0.15625q-0.390625 -0.171875 -0.578125 -0.4375q-0.1875 -0.265625 -0.265625 -0.71875q-0.046875 -0.3125 -0.046875 -1.28125l0 -3.015625l-0.84375 0l0 -1.453125l0.84375 0l0 -1.375l1.828125 -1.078125l0 2.453125l1.25 0z" fill-rule="nonzero"/><path fill="#cfe2f3" d="m700.2428 84.86483l53.700745 0l0 24.913383l-53.700745 0z" fill-rule="evenodd"/><path stroke="#000000" stroke-width="4.0" stroke-linejoin="round" stroke-linecap="butt" d="m700.2428 84.86483l53.700745 0l0 24.913383l-53.700745 0z" fill-rule="evenodd"/><path fill="#000000" d="m726.31976 94.52527l-2.125 0.234375q-0.078125 -0.65625 -0.40625 -0.96875q-0.328125 -0.3125 -0.859375 -0.3125q-0.6875 0 -1.171875 0.625q-0.484375 0.625 -0.609375 2.609375q0.828125 -0.96875 2.046875 -0.96875q1.375 0 2.34375 1.046875q0.984375 1.046875 0.984375 2.703125q0 1.75 -1.03125 2.828125q-1.03125 1.0625 -2.640625 1.0625q-1.734375 0 -2.859375 -1.34375q-1.109375 -1.359375 -1.109375 -4.4375q0 -3.140625 1.15625 -4.53125q1.171875 -1.390625 3.03125 -1.390625q1.296875 0 2.15625 0.734375q0.859375 0.71875 1.09375 2.109375zm-4.984375 4.796875q0 1.0625 0.484375 1.65625q0.5 0.578125 1.140625 0.578125q0.609375 0 1.015625 -0.46875q0.40625 -0.484375 0.40625 -1.578125q0 -1.109375 -0.4375 -1.625q-0.4375 -0.53125 -1.09375 -0.53125q-0.640625 0 -1.078125 0.5q-0.4375 0.5 -0.4375 1.46875zm8.3203125 -2.328125q-0.84375 -0.359375 -1.234375 -0.984375q-0.390625 -0.625 -0.390625 -1.375q0 -1.28125 0.890625 -2.109375q0.90625 -0.84375 2.546875 -0.84375q1.640625 0 2.53125 0.84375q0.90625 0.828125 0.90625 2.109375q0 0.796875 -0.421875 1.421875q-0.40625 0.609375 -1.15625 0.9375q0.953125 0.390625 1.453125 1.125q0.5 0.734375 0.5 1.6875q0 1.59375 -1.015625 2.59375q-1.015625 0.984375 -2.6875 0.984375q-1.5625 0 -2.609375 -0.828125q-1.21875 -0.96875 -1.21875 -2.65625q0 -0.921875 0.453125 -1.703125q0.46875 -0.78125 1.453125 -1.203125zm0.453125 -2.203125q0 0.65625 0.375 1.03125q0.375 0.359375 0.984375 0.359375q0.625 0 1.0 -0.375q0.375 -0.375 0.375 -1.03125q0 -0.609375 -0.375 -0.984375q-0.359375 -0.375 -0.96875 -0.375q-0.640625 0 -1.015625 0.375q-0.375 0.375 -0.375 1.0zm-0.203125 4.90625q0 0.90625 0.46875 1.421875q0.46875 0.5 1.15625 0.5q0.6875 0 1.125 -0.484375q0.453125 -0.5 0.453125 -1.421875q0 -0.796875 -0.453125 -1.28125q-0.453125 -0.5 -1.15625 -0.5q-0.796875 0 -1.203125 0.5625q-0.390625 0.546875 -0.390625 1.203125z" fill-rule="nonzero"/><path fill="#efefef" d="m662.2139 109.77427l38.015747 0l0 24.913383l-38.015747 0z" fill-rule="evenodd"/><path stroke="#000000" stroke-width="4.0" stroke-linejoin="round" stroke-linecap="butt" d="m662.2139 109.77427l38.015747 0l0 24.913383l-38.015747 0z" fill-rule="evenodd"/><path fill="#000000" d="m672.9331 127.03096l0 -9.546875l3.09375 0q1.75 0 2.296875 0.15625q0.8125 0.203125 1.359375 0.921875q0.5625 0.71875 0.5625 1.859375q0 0.875 -0.328125 1.484375q-0.3125 0.59375 -0.8125 0.9375q-0.484375 0.34375 -0.984375 0.453125q-0.703125 0.140625 -2.0 0.140625l-1.265625 0l0 3.59375l-1.921875 0zm1.921875 -7.921875l0 2.703125l1.0625 0q1.140625 0 1.515625 -0.140625q0.390625 -0.15625 0.609375 -0.46875q0.21875 -0.328125 0.21875 -0.75q0 -0.515625 -0.3125 -0.859375q-0.296875 -0.34375 -0.765625 -0.421875q-0.34375 -0.0625 -1.390625 -0.0625l-0.9375 0zm13.077209 4.421875l1.859375 0.578125q-0.421875 1.5625 -1.421875 2.328125q-1.0 0.75 -2.53125 0.75q-1.90625 0 -3.140625 -1.296875q-1.21875 -1.296875 -1.21875 -3.546875q0 -2.375 1.234375 -3.6875q1.234375 -1.328125 3.234375 -1.328125q1.75 0 2.84375 1.03125q0.65625 0.609375 0.984375 1.765625l-1.90625 0.453125q-0.171875 -0.75 -0.71875 -1.171875q-0.53125 -0.4375 -1.296875 -0.4375q-1.0625 0 -1.734375 0.765625q-0.65625 0.765625 -0.65625 2.46875q0 1.8125 0.65625 2.578125q0.65625 0.765625 1.6875 0.765625q0.78125 0 1.328125 -0.484375q0.546875 -0.484375 0.796875 -1.53125z" fill-rule="nonzero"/><path fill="#fff2cc" d="m700.2428 109.77428l53.700745 0l0 24.913391l-53.700745 0z" fill-rule="evenodd"/><path stroke="#000000" stroke-width="4.0" stroke-linejoin="round" stroke-linecap="butt" d="m700.2428 109.77428l53.700745 0l0 24.913391l-53.700745 0z" fill-rule="evenodd"/><path fill="#000000" d="m726.31976 119.43472l-2.125 0.234375q-0.078125 -0.65625 -0.40625 -0.96875q-0.328125 -0.3125 -0.859375 -0.3125q-0.6875 0 -1.171875 0.625q-0.484375 0.625 -0.609375 2.609375q0.828125 -0.96875 2.046875 -0.96875q1.375 0 2.34375 1.046875q0.984375 1.046875 0.984375 2.703125q0 1.75 -1.03125 2.828125q-1.03125 1.0625 -2.640625 1.0625q-1.734375 0 -2.859375 -1.34375q-1.109375 -1.359375 -1.109375 -4.4375q0 -3.140625 1.15625 -4.53125q1.171875 -1.390625 3.03125 -1.390625q1.296875 0 2.15625 0.734375q0.859375 0.71875 1.09375 2.109375zm-4.984375 4.796875q0 1.0625 0.484375 1.65625q0.5 0.578125 1.140625 0.578125q0.609375 0 1.015625 -0.46875q0.40625 -0.484375 0.40625 -1.578125q0 -1.109375 -0.4375 -1.625q-0.4375 -0.53125 -1.09375 -0.53125q-0.640625 0 -1.078125 0.5q-0.4375 0.5 -0.4375 1.46875zm6.4453125 -5.40625l0 -2.03125l7.5 0l0 1.59375q-0.921875 0.90625 -1.890625 2.625q-0.953125 1.703125 -1.46875 3.640625q-0.5 1.921875 -0.484375 3.4375l-2.125 0q0.0625 -2.375 0.984375 -4.84375q0.921875 -2.46875 2.46875 -4.421875l-4.984375 0z" fill-rule="nonzero"/><path fill="#efefef" d="m662.2139 10.136483l38.015747 0l0 24.913387l-38.015747 0z" fill-rule="evenodd"/><path stroke="#000000" stroke-width="4.0" stroke-linejoin="round" stroke-linecap="butt" d="m662.2139 10.136483l38.015747 0l0 24.913387l-38.015747 0z" fill-rule="evenodd"/><path fill="#000000" d="m686.94446 28.453175l-2.515625 0l-1.0 -2.609375l-4.578125 0l-0.953125 2.609375l-2.453125 0l4.46875 -11.453125l2.4375 0l4.59375 11.453125zm-4.265625 -4.53125l-1.578125 -4.25l-1.546875 4.25l3.125 0z" fill-rule="nonzero"/><path fill="#efefef" d="m662.2139 35.04593l38.015747 0l0 24.913387l-38.015747 0z" fill-rule="evenodd"/><path stroke="#000000" stroke-width="4.0" stroke-linejoin="round" stroke-linecap="butt" d="m662.2139 35.04593l38.015747 0l0 24.913387l-38.015747 0z" fill-rule="evenodd"/><path fill="#000000" d="m676.61633 41.909496l4.578125 0q1.359375 0 2.03125 0.109375q0.671875 0.109375 1.1875 0.46875q0.53125 0.359375 0.875 0.96875q0.359375 0.59375 0.359375 1.328125q0 0.8125 -0.4375 1.484375q-0.421875 0.671875 -1.171875 1.0q1.046875 0.3125 1.609375 1.046875q0.5625 0.734375 0.5625 1.71875q0 0.78125 -0.359375 1.53125q-0.359375 0.734375 -1.0 1.171875q-0.625 0.4375 -1.546875 0.546875q-0.578125 0.0625 -2.78125 0.078125l-3.90625 0l0 -11.453125zm2.3125 1.90625l0 2.640625l1.515625 0q1.359375 0 1.6875 -0.03125q0.59375 -0.078125 0.921875 -0.40625q0.34375 -0.34375 0.34375 -0.90625q0 -0.53125 -0.296875 -0.859375q-0.28125 -0.328125 -0.859375 -0.40625q-0.34375 -0.03125 -1.984375 -0.03125l-1.328125 0zm0 4.546875l0 3.0625l2.140625 0q1.25 0 1.59375 -0.0625q0.515625 -0.09375 0.828125 -0.453125q0.328125 -0.375 0.328125 -0.984375q0 -0.515625 -0.25 -0.875q-0.25 -0.359375 -0.71875 -0.515625q-0.46875 -0.171875 -2.046875 -0.171875l-1.875 0z" fill-rule="nonzero"/><path fill="#efefef" d="m662.2139 59.955376l38.015747 0l0 24.913383l-38.015747 0z" fill-rule="evenodd"/><path stroke="#000000" stroke-width="4.0" stroke-linejoin="round" stroke-linecap="butt" d="m662.2139 59.955376l38.015747 0l0 24.913383l-38.015747 0z" fill-rule="evenodd"/><path fill="#000000" d="m683.94446 74.05332l2.234375 0.71875q-0.515625 1.875 -1.71875 2.796875q-1.1875 0.90625 -3.03125 0.90625q-2.28125 0 -3.75 -1.5625q-1.46875 -1.5625 -1.46875 -4.265625q0 -2.859375 1.46875 -4.4375q1.484375 -1.59375 3.890625 -1.59375q2.09375 0 3.40625 1.25q0.78125 0.734375 1.171875 2.109375l-2.28125 0.546875q-0.203125 -0.890625 -0.859375 -1.40625q-0.640625 -0.515625 -1.5625 -0.515625q-1.265625 0 -2.0625 0.921875q-0.796875 0.90625 -0.796875 2.953125q0 2.171875 0.78125 3.09375q0.78125 0.921875 2.03125 0.921875q0.921875 0 1.578125 -0.578125q0.671875 -0.59375 0.96875 -1.859375z" fill-rule="nonzero"/><path fill="#ffffff" d="m700.2428 10.136483l53.700745 0l0 24.913387l-53.700745 0z" fill-rule="evenodd"/><path stroke="#000000" stroke-width="4.0" stroke-linejoin="round" stroke-linecap="butt" d="m700.2428 10.136483l53.700745 0l0 24.913387l-53.700745 0z" fill-rule="evenodd"/><path fill="#000000" d="m724.49164 28.453175l-2.1875 0l0 -8.28125q-1.203125 1.125 -2.84375 1.671875l0 -2.0q0.859375 -0.28125 1.859375 -1.0625q1.015625 -0.78125 1.390625 -1.828125l1.78125 0l0 11.5zm3.2109375 -3.046875l2.125 -0.25q0.09375 0.8125 0.53125 1.25q0.453125 0.421875 1.09375 0.421875q0.671875 0 1.140625 -0.515625q0.46875 -0.515625 0.46875 -1.390625q0 -0.828125 -0.453125 -1.3125q-0.4375 -0.484375 -1.078125 -0.484375q-0.421875 0 -1.015625 0.15625l0.25 -1.78125q0.890625 0.015625 1.359375 -0.390625q0.46875 -0.40625 0.46875 -1.09375q0 -0.578125 -0.34375 -0.921875q-0.34375 -0.34375 -0.921875 -0.34375q-0.5625 0 -0.96875 0.390625q-0.390625 0.390625 -0.46875 1.140625l-2.03125 -0.34375q0.21875 -1.03125 0.640625 -1.65625q0.421875 -0.625 1.1875 -0.96875q0.765625 -0.359375 1.703125 -0.359375q1.625 0 2.59375 1.03125q0.8125 0.84375 0.8125 1.90625q0 1.5 -1.65625 2.40625q0.984375 0.203125 1.578125 0.9375q0.59375 0.734375 0.59375 1.78125q0 1.5 -1.109375 2.578125q-1.09375 1.0625 -2.734375 1.0625q-1.5625 0 -2.59375 -0.890625q-1.015625 -0.90625 -1.171875 -2.359375z" fill-rule="nonzero"/><path fill="#ffffff" d="m700.2428 35.045933l53.700745 0l0 24.913383l-53.700745 0z" fill-rule="evenodd"/><path stroke="#000000" stroke-width="4.0" stroke-linejoin="round" stroke-linecap="butt" d="m700.2428 35.045933l53.700745 0l0 24.913383l-53.700745 0z" fill-rule="evenodd"/><path fill="#000000" d="m724.93304 53.362625l-2.1875 0l0 -8.28125q-1.203125 1.125 -2.84375 1.671875l0 -2.0q0.859375 -0.28125 1.859375 -1.0625q1.015625 -0.78125 1.390625 -1.828125l1.78125 0l0 11.5zm8.015625 0l-2.1875 0l0 -8.28125q-1.203125 1.125 -2.84375 1.671875l0 -2.0q0.859375 -0.28125 1.859375 -1.0625q1.015625 -0.78125 1.390625 -1.828125l1.78125 0l0 11.5z" fill-rule="nonzero"/><path fill="#ffffff" d="m700.2428 59.95538l53.700745 0l0 24.913387l-53.700745 0z" fill-rule="evenodd"/><path stroke="#000000" stroke-width="4.0" stroke-linejoin="round" stroke-linecap="butt" d="m700.2428 59.95538l53.700745 0l0 24.913387l-53.700745 0z" fill-rule="evenodd"/><path fill="#000000" d="m718.88226 69.00645l0 -2.03125l7.5 0l0 1.59375q-0.921875 0.90625 -1.890625 2.625q-0.953125 1.703125 -1.46875 3.640625q-0.5 1.921875 -0.484375 3.4375l-2.125 0q0.0625 -2.375 0.984375 -4.84375q0.921875 -2.46875 2.46875 -4.421875l-4.984375 0zm14.5078125 9.265625l-2.1875 0l0 -8.28125q-1.203125 1.125 -2.84375 1.671875l0 -2.0q0.859375 -0.28125 1.859375 -1.0625q1.015625 -0.78125 1.390625 -1.828125l1.78125 0l0 11.5z" fill-rule="nonzero"/><path fill="#efefef" d="m875.7126 84.86482l38.015747 0l0 24.913383l-38.015747 0z" fill-rule="evenodd"/><path stroke="#000000" stroke-width="4.0" stroke-linejoin="round" stroke-linecap="butt" d="m875.7126 84.86482l38.015747 0l0 24.913383l-38.015747 0z" fill-rule="evenodd"/><path fill="#000000" d="m888.5408 99.01214l1.875 -0.171875q0.171875 0.9375 0.6875 1.390625q0.515625 0.4375 1.390625 0.4375q0.9375 0 1.40625 -0.390625q0.46875 -0.40625 0.46875 -0.921875q0 -0.34375 -0.203125 -0.578125q-0.1875 -0.234375 -0.6875 -0.421875q-0.34375 -0.109375 -1.546875 -0.40625q-1.546875 -0.390625 -2.171875 -0.953125q-0.875 -0.78125 -0.875 -1.921875q0 -0.71875 0.40625 -1.359375q0.421875 -0.640625 1.1875 -0.96875q0.78125 -0.328125 1.890625 -0.328125q1.796875 0 2.703125 0.796875q0.90625 0.78125 0.953125 2.09375l-1.921875 0.078125q-0.125 -0.734375 -0.53125 -1.046875q-0.40625 -0.328125 -1.234375 -0.328125q-0.828125 0 -1.3125 0.34375q-0.296875 0.21875 -0.296875 0.59375q0 0.34375 0.28125 0.578125q0.359375 0.3125 1.765625 0.640625q1.40625 0.328125 2.078125 0.6875q0.6875 0.359375 1.0625 0.96875q0.375 0.609375 0.375 1.515625q0 0.828125 -0.453125 1.546875q-0.453125 0.703125 -1.296875 1.0625q-0.828125 0.34375 -2.0625 0.34375q-1.8125 0 -2.78125 -0.828125q-0.96875 -0.84375 -1.15625 -2.453125zm12.5303955 -3.796875l0 1.453125l-1.25 0l0 2.78125q0 0.84375 0.03125 0.984375q0.046875 0.140625 0.171875 0.234375q0.125 0.09375 0.3125 0.09375q0.25 0 0.734375 -0.171875l0.15625 1.421875q-0.640625 0.265625 -1.453125 0.265625q-0.484375 0 -0.890625 -0.15625q-0.390625 -0.171875 -0.578125 -0.4375q-0.1875 -0.265625 -0.265625 -0.71875q-0.046875 -0.3125 -0.046875 -1.28125l0 -3.015625l-0.84375 0l0 -1.453125l0.84375 0l0 -1.375l1.828125 -1.078125l0 2.453125l1.25 0z" fill-rule="nonzero"/><path fill="#cfe2f3" d="m913.74146 84.86483l53.700806 0l0 24.913383l-53.700806 0z" fill-rule="evenodd"/><path stroke="#000000" stroke-width="4.0" stroke-linejoin="round" stroke-linecap="butt" d="m913.74146 84.86483l53.700806 0l0 24.913383l-53.700806 0z" fill-rule="evenodd"/><path fill="#000000" d="m944.26764 94.52527l-2.125 0.234375q-0.078125 -0.65625 -0.40625 -0.96875q-0.328125 -0.3125 -0.859375 -0.3125q-0.6875 0 -1.171875 0.625q-0.484375 0.625 -0.609375 2.609375q0.828125 -0.96875 2.046875 -0.96875q1.375 0 2.34375 1.046875q0.984375 1.046875 0.984375 2.703125q0 1.75 -1.03125 2.828125q-1.03125 1.0625 -2.640625 1.0625q-1.734375 0 -2.859375 -1.34375q-1.109375 -1.359375 -1.109375 -4.4375q0 -3.140625 1.15625 -4.53125q1.171875 -1.390625 3.03125 -1.390625q1.296875 0 2.15625 0.734375q0.859375 0.71875 1.09375 2.109375zm-4.984375 4.796875q0 1.0625 0.484375 1.65625q0.5 0.578125 1.140625 0.578125q0.609375 0 1.015625 -0.46875q0.40625 -0.484375 0.40625 -1.578125q0 -1.109375 -0.4375 -1.625q-0.4375 -0.53125 -1.09375 -0.53125q-0.640625 0 -1.078125 0.5q-0.4375 0.5 -0.4375 1.46875z" fill-rule="nonzero"/><path fill="#efefef" d="m875.7126 109.77427l38.015747 0l0 24.913383l-38.015747 0z" fill-rule="evenodd"/><path stroke="#000000" stroke-width="4.0" stroke-linejoin="round" stroke-linecap="butt" d="m875.7126 109.77427l38.015747 0l0 24.913383l-38.015747 0z" fill-rule="evenodd"/><path fill="#000000" d="m886.43176 127.03096l0 -9.546875l3.09375 0q1.75 0 2.296875 0.15625q0.8125 0.203125 1.359375 0.921875q0.5625 0.71875 0.5625 1.859375q0 0.875 -0.328125 1.484375q-0.3125 0.59375 -0.8125 0.9375q-0.484375 0.34375 -0.984375 0.453125q-0.703125 0.140625 -2.0 0.140625l-1.265625 0l0 3.59375l-1.921875 0zm1.921875 -7.921875l0 2.703125l1.0625 0q1.140625 0 1.515625 -0.140625q0.390625 -0.15625 0.609375 -0.46875q0.21875 -0.328125 0.21875 -0.75q0 -0.515625 -0.3125 -0.859375q-0.296875 -0.34375 -0.765625 -0.421875q-0.34375 -0.0625 -1.390625 -0.0625l-0.9375 0zm13.0772705 4.421875l1.859375 0.578125q-0.421875 1.5625 -1.421875 2.328125q-1.0 0.75 -2.53125 0.75q-1.90625 0 -3.140625 -1.296875q-1.21875 -1.296875 -1.21875 -3.546875q0 -2.375 1.234375 -3.6875q1.234375 -1.328125 3.234375 -1.328125q1.75 0 2.84375 1.03125q0.65625 0.609375 0.984375 1.765625l-1.90625 0.453125q-0.171875 -0.75 -0.71875 -1.171875q-0.53125 -0.4375 -1.296875 -0.4375q-1.0625 0 -1.734375 0.765625q-0.65625 0.765625 -0.65625 2.46875q0 1.8125 0.65625 2.578125q0.65625 0.765625 1.6875 0.765625q0.78125 0 1.328125 -0.484375q0.546875 -0.484375 0.796875 -1.53125z" fill-rule="nonzero"/><path fill="#fff2cc" d="m913.74146 109.77428l53.700806 0l0 24.913391l-53.700806 0z" fill-rule="evenodd"/><path stroke="#000000" stroke-width="4.0" stroke-linejoin="round" stroke-linecap="butt" d="m913.74146 109.77428l53.700806 0l0 24.913391l-53.700806 0z" fill-rule="evenodd"/><path fill="#000000" d="m933.5411 128.09097l-2.1875 0l0 -8.28125q-1.203125 1.125 -2.84375 1.671875l0 -2.0q0.859375 -0.28125 1.859375 -1.0625q1.015625 -0.78125 1.390625 -1.828125l1.78125 0l0 11.5zm3.3359375 -2.65625l2.125 -0.234375q0.078125 0.65625 0.40625 0.96875q0.328125 0.3125 0.859375 0.3125q0.6875 0 1.15625 -0.625q0.484375 -0.625 0.609375 -2.59375q-0.828125 0.953125 -2.0625 0.953125q-1.359375 0 -2.34375 -1.03125q-0.96875 -1.046875 -0.96875 -2.71875q0 -1.75 1.03125 -2.8125q1.03125 -1.0625 2.640625 -1.0625q1.734375 0 2.84375 1.34375q1.125 1.34375 1.125 4.4375q0 3.140625 -1.171875 4.53125q-1.15625 1.390625 -3.015625 1.390625q-1.34375 0 -2.171875 -0.71875q-0.828125 -0.71875 -1.0625 -2.140625zm4.96875 -4.796875q0 -1.0625 -0.5 -1.640625q-0.484375 -0.59375 -1.125 -0.59375q-0.609375 0 -1.015625 0.484375q-0.390625 0.484375 -0.390625 1.578125q0 1.109375 0.4375 1.625q0.4375 0.515625 1.09375 0.515625q0.625 0 1.0625 -0.5q0.4375 -0.5 0.4375 -1.46875zm3.8828125 -1.8125l0 -2.03125l7.5 0l0 1.59375q-0.921875 0.90625 -1.890625 2.625q-0.953125 1.703125 -1.46875 3.640625q-0.5 1.921875 -0.484375 3.4375l-2.125 0q0.0625 -2.375 0.984375 -4.84375q0.921875 -2.46875 2.46875 -4.421875l-4.984375 0z" fill-rule="nonzero"/><path fill="#efefef" d="m875.7126 10.136483l38.015747 0l0 24.913387l-38.015747 0z" fill-rule="evenodd"/><path stroke="#000000" stroke-width="4.0" stroke-linejoin="round" stroke-linecap="butt" d="m875.7126 10.136483l38.015747 0l0 24.913387l-38.015747 0z" fill-rule="evenodd"/><path fill="#000000" d="m900.4431 28.453175l-2.515625 0l-1.0 -2.609375l-4.578125 0l-0.953125 2.609375l-2.453125 0l4.46875 -11.453125l2.4375 0l4.59375 11.453125zm-4.265625 -4.53125l-1.578125 -4.25l-1.546875 4.25l3.125 0z" fill-rule="nonzero"/><path fill="#efefef" d="m875.7126 35.04593l38.015747 0l0 24.913387l-38.015747 0z" fill-rule="evenodd"/><path stroke="#000000" stroke-width="4.0" stroke-linejoin="round" stroke-linecap="butt" d="m875.7126 35.04593l38.015747 0l0 24.913387l-38.015747 0z" fill-rule="evenodd"/><path fill="#000000" d="m890.115 41.909496l4.578125 0q1.359375 0 2.03125 0.109375q0.671875 0.109375 1.1875 0.46875q0.53125 0.359375 0.875 0.96875q0.359375 0.59375 0.359375 1.328125q0 0.8125 -0.4375 1.484375q-0.421875 0.671875 -1.171875 1.0q1.046875 0.3125 1.609375 1.046875q0.5625 0.734375 0.5625 1.71875q0 0.78125 -0.359375 1.53125q-0.359375 0.734375 -1.0 1.171875q-0.625 0.4375 -1.546875 0.546875q-0.578125 0.0625 -2.78125 0.078125l-3.90625 0l0 -11.453125zm2.3125 1.90625l0 2.640625l1.515625 0q1.359375 0 1.6875 -0.03125q0.59375 -0.078125 0.921875 -0.40625q0.34375 -0.34375 0.34375 -0.90625q0 -0.53125 -0.296875 -0.859375q-0.28125 -0.328125 -0.859375 -0.40625q-0.34375 -0.03125 -1.984375 -0.03125l-1.328125 0zm0 4.546875l0 3.0625l2.140625 0q1.25 0 1.59375 -0.0625q0.515625 -0.09375 0.828125 -0.453125q0.328125 -0.375 0.328125 -0.984375q0 -0.515625 -0.25 -0.875q-0.25 -0.359375 -0.71875 -0.515625q-0.46875 -0.171875 -2.046875 -0.171875l-1.875 0z" fill-rule="nonzero"/><path fill="#efefef" d="m875.7126 59.955376l38.015747 0l0 24.913383l-38.015747 0z" fill-rule="evenodd"/><path stroke="#000000" stroke-width="4.0" stroke-linejoin="round" stroke-linecap="butt" d="m875.7126 59.955376l38.015747 0l0 24.913383l-38.015747 0z" fill-rule="evenodd"/><path fill="#000000" d="m897.4431 74.05332l2.234375 0.71875q-0.515625 1.875 -1.71875 2.796875q-1.1875 0.90625 -3.03125 0.90625q-2.28125 0 -3.75 -1.5625q-1.46875 -1.5625 -1.46875 -4.265625q0 -2.859375 1.46875 -4.4375q1.484375 -1.59375 3.890625 -1.59375q2.09375 0 3.40625 1.25q0.78125 0.734375 1.171875 2.109375l-2.28125 0.546875q-0.203125 -0.890625 -0.859375 -1.40625q-0.640625 -0.515625 -1.5625 -0.515625q-1.265625 0 -2.0625 0.921875q-0.796875 0.90625 -0.796875 2.953125q0 2.171875 0.78125 3.09375q0.78125 0.921875 2.03125 0.921875q0.921875 0 1.578125 -0.578125q0.671875 -0.59375 0.96875 -1.859375z" fill-rule="nonzero"/><path fill="#ffffff" d="m913.74146 10.136483l53.700806 0l0 24.913387l-53.700806 0z" fill-rule="evenodd"/><path stroke="#000000" stroke-width="4.0" stroke-linejoin="round" stroke-linecap="butt" d="m913.74146 10.136483l53.700806 0l0 24.913387l-53.700806 0z" fill-rule="evenodd"/><path fill="#000000" d="m936.6778 28.453175l0 -2.3125l-4.6875 0l0 -1.921875l4.96875 -7.265625l1.84375 0l0 7.265625l1.421875 0l0 1.921875l-1.421875 0l0 2.3125l-2.125 0zm0 -4.234375l0 -3.921875l-2.625 3.921875l2.625 0zm10.2109375 4.234375l-2.1875 0l0 -8.28125q-1.203125 1.125 -2.84375 1.671875l0 -2.0q0.859375 -0.28125 1.859375 -1.0625q1.015625 -0.78125 1.390625 -1.828125l1.78125 0l0 11.5z" fill-rule="nonzero"/><path fill="#ffffff" d="m913.74146 35.045933l53.700806 0l0 24.913383l-53.700806 0z" fill-rule="evenodd"/><path stroke="#000000" stroke-width="4.0" stroke-linejoin="round" stroke-linecap="butt" d="m913.74146 35.045933l53.700806 0l0 24.913383l-53.700806 0z" fill-rule="evenodd"/><path fill="#000000" d="m944.2364 51.31575l0 2.046875l-7.6875 0q0.125 -1.15625 0.75 -2.1875q0.625 -1.046875 2.46875 -2.75q1.484375 -1.390625 1.8125 -1.875q0.453125 -0.6875 0.453125 -1.34375q0 -0.734375 -0.390625 -1.125q-0.390625 -0.40625 -1.09375 -0.40625q-0.6875 0 -1.09375 0.421875q-0.40625 0.40625 -0.46875 1.375l-2.1875 -0.21875q0.203125 -1.8125 1.234375 -2.59375q1.03125 -0.796875 2.578125 -0.796875q1.6875 0 2.65625 0.921875q0.96875 0.90625 0.96875 2.265625q0 0.765625 -0.28125 1.46875q-0.265625 0.703125 -0.875 1.46875q-0.390625 0.5 -1.4375 1.453125q-1.03125 0.953125 -1.3125 1.265625q-0.28125 0.3125 -0.453125 0.609375l4.359375 0z" fill-rule="nonzero"/><path fill="#ffffff" d="m913.74146 59.95538l53.700806 0l0 24.913387l-53.700806 0z" fill-rule="evenodd"/><path stroke="#000000" stroke-width="4.0" stroke-linejoin="round" stroke-linecap="butt" d="m913.74146 59.95538l53.700806 0l0 24.913387l-53.700806 0z" fill-rule="evenodd"/><path fill="#000000" d="m940.53326 66.77207q1.671875 0 2.609375 1.1875q1.109375 1.40625 1.109375 4.65625q0 3.25 -1.125 4.671875q-0.921875 1.1875 -2.59375 1.1875q-1.671875 0 -2.703125 -1.28125q-1.015625 -1.296875 -1.015625 -4.59375q0 -3.234375 1.125 -4.65625q0.9375 -1.171875 2.59375 -1.171875zm0 1.8125q-0.390625 0 -0.703125 0.265625q-0.3125 0.25 -0.484375 0.90625q-0.234375 0.84375 -0.234375 2.859375q0 2.015625 0.203125 2.78125q0.203125 0.75 0.515625 1.0q0.3125 0.25 0.703125 0.25q0.40625 0 0.71875 -0.25q0.3125 -0.265625 0.484375 -0.921875q0.21875 -0.84375 0.21875 -2.859375q0 -2.015625 -0.203125 -2.765625q-0.203125 -0.75 -0.515625 -1.0q-0.296875 -0.265625 -0.703125 -0.265625z" fill-rule="nonzero"/><path fill="#efefef" d="m143.11679 84.86482l38.015762 0l0 24.913383l-38.015762 0z" fill-rule="evenodd"/><path stroke="#000000" stroke-width="4.0" stroke-linejoin="round" stroke-linecap="butt" d="m143.11679 84.86482l38.015762 0l0 24.913383l-38.015762 0z" fill-rule="evenodd"/><path fill="#000000" d="m155.94499 99.01214l1.875 -0.171875q0.171875 0.9375 0.6875 1.390625q0.515625 0.4375 1.3906097 0.4375q0.9375 0 1.40625 -0.390625q0.46875 -0.40625 0.46875 -0.921875q0 -0.34375 -0.203125 -0.578125q-0.1875 -0.234375 -0.6875 -0.421875q-0.34375 -0.109375 -1.546875 -0.40625q-1.5468597 -0.390625 -2.1718597 -0.953125q-0.875 -0.78125 -0.875 -1.921875q0 -0.71875 0.40625 -1.359375q0.421875 -0.640625 1.1875 -0.96875q0.78125 -0.328125 1.8906097 -0.328125q1.796875 0 2.703125 0.796875q0.90625 0.78125 0.953125 2.09375l-1.921875 0.078125q-0.125 -0.734375 -0.53125 -1.046875q-0.40625 -0.328125 -1.234375 -0.328125q-0.82810974 0 -1.3124847 0.34375q-0.296875 0.21875 -0.296875 0.59375q0 0.34375 0.28125 0.578125q0.359375 0.3125 1.7656097 0.640625q1.40625 0.328125 2.078125 0.6875q0.6875 0.359375 1.0625 0.96875q0.375 0.609375 0.375 1.515625q0 0.828125 -0.453125 1.546875q-0.453125 0.703125 -1.296875 1.0625q-0.828125 0.34375 -2.0625 0.34375q-1.8124847 0 -2.7812347 -0.828125q-0.96875 -0.84375 -1.15625 -2.453125zm12.530365 -3.796875l0 1.453125l-1.25 0l0 2.78125q0 0.84375 0.03125 0.984375q0.046875 0.140625 0.171875 0.234375q0.125 0.09375 0.3125 0.09375q0.25 0 0.734375 -0.171875l0.15625 1.421875q-0.640625 0.265625 -1.453125 0.265625q-0.484375 0 -0.890625 -0.15625q-0.390625 -0.171875 -0.578125 -0.4375q-0.1875 -0.265625 -0.265625 -0.71875q-0.046875 -0.3125 -0.046875 -1.28125l0 -3.015625l-0.84375 0l0 -1.453125l0.84375 0l0 -1.375l1.828125 -1.078125l0 2.453125l1.25 0z" fill-rule="nonzero"/><path fill="#cfe2f3" d="m181.14568 84.86483l53.700775 0l0 24.913383l-53.700775 0z" fill-rule="evenodd"/><path stroke="#000000" stroke-width="4.0" stroke-linejoin="round" stroke-linecap="butt" d="m181.14568 84.86483l53.700775 0l0 24.913383l-53.700775 0z" fill-rule="evenodd"/><path fill="#000000" d="m205.3945 103.18152l-2.1875 0l0 -8.28125q-1.203125 1.125 -2.84375 1.671875l0 -2.0q0.859375 -0.28125 1.859375 -1.0625q1.015625 -0.78125 1.390625 -1.828125l1.78125 0l0 11.5zm3.3203125 -2.953125l2.1875 -0.21875q0.09375 0.734375 0.546875 1.171875q0.46875 0.4375 1.0625 0.4375q0.6875 0 1.15625 -0.5625q0.484375 -0.5625 0.484375 -1.6875q0 -1.046875 -0.46875 -1.578125q-0.46875 -0.53125 -1.234375 -0.53125q-0.9375 0 -1.6875 0.84375l-1.78125 -0.265625l1.125 -5.953125l5.796875 0l0 2.046875l-4.140625 0l-0.34375 1.953125q0.734375 -0.375 1.5 -0.375q1.46875 0 2.484375 1.0625q1.015625 1.0625 1.015625 2.765625q0 1.40625 -0.828125 2.515625q-1.109375 1.53125 -3.09375 1.53125q-1.59375 0 -2.59375 -0.859375q-1.0 -0.859375 -1.1875 -2.296875z" fill-rule="nonzero"/><path fill="#efefef" d="m143.11679 109.77427l38.015762 0l0 24.913383l-38.015762 0z" fill-rule="evenodd"/><path stroke="#000000" stroke-width="4.0" stroke-linejoin="round" stroke-linecap="butt" d="m143.11679 109.77427l38.015762 0l0 24.913383l-38.015762 0z" fill-rule="evenodd"/><path fill="#000000" d="m153.83597 127.03096l0 -9.546875l3.09375 0q1.75 0 2.296875 0.15625q0.8125 0.203125 1.359375 0.921875q0.5625 0.71875 0.5625 1.859375q0 0.875 -0.328125 1.484375q-0.3125 0.59375 -0.8125 0.9375q-0.484375 0.34375 -0.984375 0.453125q-0.703125 0.140625 -2.0 0.140625l-1.265625 0l0 3.59375l-1.921875 0zm1.921875 -7.921875l0 2.703125l1.0625 0q1.140625 0 1.515625 -0.140625q0.390625 -0.15625 0.609375 -0.46875q0.21875 -0.328125 0.21875 -0.75q0 -0.515625 -0.3125 -0.859375q-0.296875 -0.34375 -0.765625 -0.421875q-0.34375 -0.0625 -1.390625 -0.0625l-0.9375 0zm13.077255 4.421875l1.859375 0.578125q-0.421875 1.5625 -1.421875 2.328125q-1.0 0.75 -2.53125 0.75q-1.90625 0 -3.140625 -1.296875q-1.21875 -1.296875 -1.21875 -3.546875q0 -2.375 1.234375 -3.6875q1.234375 -1.328125 3.234375 -1.328125q1.75 0 2.84375 1.03125q0.65625 0.609375 0.984375 1.765625l-1.90625 0.453125q-0.171875 -0.75 -0.71875 -1.171875q-0.53125 -0.4375 -1.296875 -0.4375q-1.0625 0 -1.734375 0.765625q-0.65625 0.765625 -0.65625 2.46875q0 1.8125 0.65625 2.578125q0.65625 0.765625 1.6875 0.765625q0.78125 0 1.328125 -0.484375q0.546875 -0.484375 0.796875 -1.53125z" fill-rule="nonzero"/><path fill="#fff2cc" d="m181.14568 109.77428l53.700775 0l0 24.913391l-53.700775 0z" fill-rule="evenodd"/><path stroke="#000000" stroke-width="4.0" stroke-linejoin="round" stroke-linecap="butt" d="m181.14568 109.77428l53.700775 0l0 24.913391l-53.700775 0z" fill-rule="evenodd"/><path fill="#000000" d="m199.81638 125.13785l2.1875 -0.21875q0.09375 0.734375 0.546875 1.171875q0.46875 0.4375 1.0625 0.4375q0.6875 0 1.15625 -0.5625q0.484375 -0.5625 0.484375 -1.6875q0 -1.046875 -0.46875 -1.578125q-0.46875 -0.53125 -1.234375 -0.53125q-0.9375 0 -1.6875 0.84375l-1.78125 -0.265625l1.125 -5.953125l5.796875 0l0 2.046875l-4.140625 0l-0.34375 1.953125q0.734375 -0.375 1.5 -0.375q1.46875 0 2.484375 1.0625q1.015625 1.0625 1.015625 2.765625q0 1.40625 -0.828125 2.515625q-1.109375 1.53125 -3.09375 1.53125q-1.59375 0 -2.59375 -0.859375q-1.0 -0.859375 -1.1875 -2.296875zm16.304688 -5.703125l-2.125 0.234375q-0.078125 -0.65625 -0.40625 -0.96875q-0.328125 -0.3125 -0.859375 -0.3125q-0.6875 0 -1.171875 0.625q-0.484375 0.625 -0.609375 2.609375q0.828125 -0.96875 2.046875 -0.96875q1.375 0 2.34375 1.046875q0.984375 1.046875 0.984375 2.703125q0 1.75 -1.03125 2.828125q-1.03125 1.0625 -2.640625 1.0625q-1.734375 0 -2.859375 -1.34375q-1.109375 -1.359375 -1.109375 -4.4375q0 -3.140625 1.15625 -4.53125q1.171875 -1.390625 3.03125 -1.390625q1.296875 0 2.15625 0.734375q0.859375 0.71875 1.09375 2.109375zm-4.984375 4.796875q0 1.0625 0.484375 1.65625q0.5 0.578125 1.140625 0.578125q0.609375 0 1.015625 -0.46875q0.40625 -0.484375 0.40625 -1.578125q0 -1.109375 -0.4375 -1.625q-0.4375 -0.53125 -1.09375 -0.53125q-0.640625 0 -1.078125 0.5q-0.4375 0.5 -0.4375 1.46875z" fill-rule="nonzero"/><path fill="#efefef" d="m143.11679 10.136483l38.015762 0l0 24.913387l-38.015762 0z" fill-rule="evenodd"/><path stroke="#000000" stroke-width="4.0" stroke-linejoin="round" stroke-linecap="butt" d="m143.11679 10.136483l38.015762 0l0 24.913387l-38.015762 0z" fill-rule="evenodd"/><path fill="#000000" d="m167.84732 28.453175l-2.515625 0l-1.0 -2.609375l-4.578125 0l-0.95310974 2.609375l-2.453125 0l4.4687347 -11.453125l2.4375 0l4.59375 11.453125zm-4.265625 -4.53125l-1.578125 -4.25l-1.546875 4.25l3.125 0z" fill-rule="nonzero"/><path fill="#efefef" d="m143.11679 35.04593l38.015762 0l0 24.913387l-38.015762 0z" fill-rule="evenodd"/><path stroke="#000000" stroke-width="4.0" stroke-linejoin="round" stroke-linecap="butt" d="m143.11679 35.04593l38.015762 0l0 24.913387l-38.015762 0z" fill-rule="evenodd"/><path fill="#000000" d="m157.51921 41.909496l4.5781097 0q1.359375 0 2.03125 0.109375q0.671875 0.109375 1.1875 0.46875q0.53125 0.359375 0.875 0.96875q0.359375 0.59375 0.359375 1.328125q0 0.8125 -0.4375 1.484375q-0.421875 0.671875 -1.171875 1.0q1.046875 0.3125 1.609375 1.046875q0.5625 0.734375 0.5625 1.71875q0 0.78125 -0.359375 1.53125q-0.359375 0.734375 -1.0 1.171875q-0.625 0.4375 -1.546875 0.546875q-0.578125 0.0625 -2.78125 0.078125l-3.9062347 0l0 -11.453125zm2.3124847 1.90625l0 2.640625l1.515625 0q1.359375 0 1.6875 -0.03125q0.59375 -0.078125 0.921875 -0.40625q0.34375 -0.34375 0.34375 -0.90625q0 -0.53125 -0.296875 -0.859375q-0.28125 -0.328125 -0.859375 -0.40625q-0.34375 -0.03125 -1.984375 -0.03125l-1.328125 0zm0 4.546875l0 3.0625l2.140625 0q1.25 0 1.59375 -0.0625q0.515625 -0.09375 0.828125 -0.453125q0.328125 -0.375 0.328125 -0.984375q0 -0.515625 -0.25 -0.875q-0.25 -0.359375 -0.71875 -0.515625q-0.46875 -0.171875 -2.046875 -0.171875l-1.875 0z" fill-rule="nonzero"/><path fill="#efefef" d="m143.11679 59.955376l38.015762 0l0 24.913383l-38.015762 0z" fill-rule="evenodd"/><path stroke="#000000" stroke-width="4.0" stroke-linejoin="round" stroke-linecap="butt" d="m143.11679 59.955376l38.015762 0l0 24.913383l-38.015762 0z" fill-rule="evenodd"/><path fill="#000000" d="m164.84732 74.05332l2.234375 0.71875q-0.515625 1.875 -1.71875 2.796875q-1.1875 0.90625 -3.03125 0.90625q-2.28125 0 -3.7499847 -1.5625q-1.46875 -1.5625 -1.46875 -4.265625q0 -2.859375 1.46875 -4.4375q1.4843597 -1.59375 3.8906097 -1.59375q2.09375 0 3.40625 1.25q0.78125 0.734375 1.171875 2.109375l-2.28125 0.546875q-0.203125 -0.890625 -0.859375 -1.40625q-0.640625 -0.515625 -1.5625 -0.515625q-1.265625 0 -2.0625 0.921875q-0.796875 0.90625 -0.796875 2.953125q0 2.171875 0.78125 3.09375q0.78125 0.921875 2.03125 0.921875q0.921875 0 1.578125 -0.578125q0.671875 -0.59375 0.96875 -1.859375z" fill-rule="nonzero"/><path fill="#ffffff" d="m181.14568 10.136483l53.700775 0l0 24.913387l-53.700775 0z" fill-rule="evenodd"/><path stroke="#000000" stroke-width="4.0" stroke-linejoin="round" stroke-linecap="butt" d="m181.14568 10.136483l53.700775 0l0 24.913387l-53.700775 0z" fill-rule="evenodd"/><path fill="#000000" d="m199.707 25.4063l2.125 -0.25q0.09375 0.8125 0.53125 1.25q0.453125 0.421875 1.09375 0.421875q0.671875 0 1.140625 -0.515625q0.46875 -0.515625 0.46875 -1.390625q0 -0.828125 -0.453125 -1.3125q-0.4375 -0.484375 -1.078125 -0.484375q-0.421875 0 -1.015625 0.15625l0.25 -1.78125q0.890625 0.015625 1.359375 -0.390625q0.46875 -0.40625 0.46875 -1.09375q0 -0.578125 -0.34375 -0.921875q-0.34375 -0.34375 -0.921875 -0.34375q-0.5625 0 -0.96875 0.390625q-0.390625 0.390625 -0.46875 1.140625l-2.03125 -0.34375q0.21875 -1.03125 0.640625 -1.65625q0.421875 -0.625 1.1875 -0.96875q0.765625 -0.359375 1.703125 -0.359375q1.625 0 2.59375 1.03125q0.8125 0.84375 0.8125 1.90625q0 1.5 -1.65625 2.40625q0.984375 0.203125 1.578125 0.9375q0.59375 0.734375 0.59375 1.78125q0 1.5 -1.109375 2.578125q-1.09375 1.0625 -2.734375 1.0625q-1.5625 0 -2.59375 -0.890625q-1.015625 -0.90625 -1.171875 -2.359375zm9.0078125 0.09375l2.1875 -0.21875q0.09375 0.734375 0.546875 1.171875q0.46875 0.4375 1.0625 0.4375q0.6875 0 1.15625 -0.5625q0.484375 -0.5625 0.484375 -1.6875q0 -1.046875 -0.46875 -1.578125q-0.46875 -0.53125 -1.234375 -0.53125q-0.9375 0 -1.6875 0.84375l-1.78125 -0.265625l1.125 -5.953125l5.796875 0l0 2.046875l-4.140625 0l-0.34375 1.953125q0.734375 -0.375 1.5 -0.375q1.46875 0 2.484375 1.0625q1.015625 1.0625 1.015625 2.765625q0 1.40625 -0.828125 2.515625q-1.109375 1.53125 -3.09375 1.53125q-1.59375 0 -2.59375 -0.859375q-1.0 -0.859375 -1.1875 -2.296875z" fill-rule="nonzero"/><path fill="#ffffff" d="m181.14568 35.045933l53.700775 0l0 24.913383l-53.700775 0z" fill-rule="evenodd"/><path stroke="#000000" stroke-width="4.0" stroke-linejoin="round" stroke-linecap="butt" d="m181.14568 35.045933l53.700775 0l0 24.913383l-53.700775 0z" fill-rule="evenodd"/><path fill="#000000" d="m207.22263 44.706375l-2.125 0.234375q-0.078125 -0.65625 -0.40625 -0.96875q-0.328125 -0.3125 -0.859375 -0.3125q-0.6875 0 -1.171875 0.625q-0.484375 0.625 -0.609375 2.609375q0.828125 -0.96875 2.046875 -0.96875q1.375 0 2.34375 1.046875q0.984375 1.046875 0.984375 2.703125q0 1.75 -1.03125 2.828125q-1.03125 1.0625 -2.640625 1.0625q-1.734375 0 -2.859375 -1.34375q-1.109375 -1.359375 -1.109375 -4.4375q0 -3.140625 1.15625 -4.53125q1.171875 -1.390625 3.03125 -1.390625q1.296875 0 2.15625 0.734375q0.859375 0.71875 1.09375 2.109375zm-4.984375 4.796875q0 1.0625 0.484375 1.65625q0.5 0.578125 1.140625 0.578125q0.609375 0 1.015625 -0.46875q0.40625 -0.484375 0.40625 -1.578125q0 -1.109375 -0.4375 -1.625q-0.4375 -0.53125 -1.09375 -0.53125q-0.640625 0 -1.078125 0.5q-0.4375 0.5 -0.4375 1.46875zm10.7421875 3.859375l0 -2.3125l-4.6875 0l0 -1.921875l4.96875 -7.265625l1.84375 0l0 7.265625l1.421875 0l0 1.921875l-1.421875 0l0 2.3125l-2.125 0zm0 -4.234375l0 -3.921875l-2.625 3.921875l2.625 0z" fill-rule="nonzero"/><path fill="#ffffff" d="m181.14568 59.95538l53.700775 0l0 24.913387l-53.700775 0z" fill-rule="evenodd"/><path stroke="#000000" stroke-width="4.0" stroke-linejoin="round" stroke-linecap="butt" d="m181.14568 59.95538l53.700775 0l0 24.913387l-53.700775 0z" fill-rule="evenodd"/><path fill="#000000" d="m202.74216 76.2252l0 2.046875l-7.6875 0q0.125 -1.15625 0.75 -2.1875q0.625 -1.046875 2.46875 -2.75q1.484375 -1.390625 1.8125 -1.875q0.453125 -0.6875 0.453125 -1.34375q0 -0.734375 -0.390625 -1.125q-0.390625 -0.40625 -1.09375 -0.40625q-0.6875 0 -1.09375 0.421875q-0.40625 0.40625 -0.46875 1.375l-2.1875 -0.21875q0.203125 -1.8125 1.234375 -2.59375q1.03125 -0.796875 2.578125 -0.796875q1.6875 0 2.65625 0.921875q0.96875 0.90625 0.96875 2.265625q0 0.765625 -0.28125 1.46875q-0.265625 0.703125 -0.875 1.46875q-0.390625 0.5 -1.4375 1.453125q-1.03125 0.953125 -1.3125 1.265625q-0.28125 0.3125 -0.453125 0.609375l4.359375 0zm7.1015625 2.046875l-2.1875 0l0 -8.28125q-1.203125 1.125 -2.84375 1.671875l0 -2.0q0.859375 -0.28125 1.859375 -1.0625q1.015625 -0.78125 1.390625 -1.828125l1.78125 0l0 11.5zm5.1640625 -6.1875q-0.84375 -0.359375 -1.234375 -0.984375q-0.390625 -0.625 -0.390625 -1.375q0 -1.28125 0.890625 -2.109375q0.90625 -0.84375 2.546875 -0.84375q1.640625 0 2.53125 0.84375q0.90625 0.828125 0.90625 2.109375q0 0.796875 -0.421875 1.421875q-0.40625 0.609375 -1.15625 0.9375q0.953125 0.390625 1.453125 1.125q0.5 0.734375 0.5 1.6875q0 1.59375 -1.015625 2.59375q-1.015625 0.984375 -2.6875 0.984375q-1.5625 0 -2.609375 -0.828125q-1.21875 -0.96875 -1.21875 -2.65625q0 -0.921875 0.453125 -1.703125q0.46875 -0.78125 1.453125 -1.203125zm0.453125 -2.203125q0 0.65625 0.375 1.03125q0.375 0.359375 0.984375 0.359375q0.625 0 1.0 -0.375q0.375 -0.375 0.375 -1.03125q0 -0.609375 -0.375 -0.984375q-0.359375 -0.375 -0.96875 -0.375q-0.640625 0 -1.015625 0.375q-0.375 0.375 -0.375 1.0zm-0.203125 4.90625q0 0.90625 0.46875 1.421875q0.46875 0.5 1.15625 0.5q0.6875 0 1.125 -0.484375q0.453125 -0.5 0.453125 -1.421875q0 -0.796875 -0.453125 -1.28125q-0.453125 -0.5 -1.15625 -0.5q-0.796875 0 -1.203125 0.5625q-0.390625 0.546875 -0.390625 1.203125z" fill-rule="nonzero"/><path fill="#b7b7b7" d="m35.582676 144.0l997.22833 0l0 120.0l-997.22833 0z" fill-rule="evenodd"/><path stroke="#000000" stroke-width="3.0" stroke-linejoin="round" stroke-linecap="butt" d="m35.582676 144.0l997.22833 0l0 120.0l-997.22833 0z" fill-rule="evenodd"/><path fill="#000000" d="m493.89474 250.92l0 -13.359375l4.03125 0l2.421875 9.109375l2.390625 -9.109375l4.046875 0l0 13.359375l-2.5 0l0 -10.515625l-2.65625 10.515625l-2.59375 0l-2.640625 -10.515625l0 10.515625l-2.5 0zm15.572052 0l0 -13.359375l9.90625 0l0 2.265625l-7.21875 0l0 2.953125l6.71875 0l0 2.25l-6.71875 0l0 3.640625l7.46875 0l0 2.25l-10.15625 0zm12.4123535 0l0 -13.359375l4.03125 0l2.421875 9.109375l2.390625 -9.109375l4.046875 0l0 13.359375l-2.5 0l0 -10.515625l-2.65625 10.515625l-2.59375 0l-2.640625 -10.515625l0 10.515625l-2.5 0zm15.0251465 -6.59375q0 -2.046875 0.609375 -3.421875q0.453125 -1.03125 1.234375 -1.828125q0.796875 -0.8125 1.734375 -1.203125q1.25 -0.53125 2.875 -0.53125q2.953125 0 4.718811 1.828125q1.78125 1.828125 1.78125 5.09375q0 3.234375 -1.765625 5.0625q-1.750061 1.828125 -4.687561 1.828125q-2.984375 0 -4.75 -1.8125q-1.75 -1.828125 -1.75 -5.015625zm2.78125 -0.09375q0 2.265625 1.046875 3.4375q1.046875 1.171875 2.65625 1.171875q1.609375 0 2.640625 -1.15625q1.046875 -1.171875 1.046875 -3.484375q0 -2.296875 -1.015625 -3.421875q-1.0 -1.140625 -2.671875 -1.140625q-1.671875 0 -2.6875 1.15625q-1.015625 1.140625 -1.015625 3.4375zm12.2771 6.6875l0 -13.359375l5.6875 0q2.140625 0 3.109375 0.359375q0.96875 0.359375 1.546875 1.28125q0.578125 0.921875 0.578125 2.109375q0 1.5 -0.890625 2.484375q-0.875 0.96875 -2.625 1.234375q0.875 0.5 1.4375 1.125q0.578125 0.609375 1.53125 2.15625l1.640625 2.609375l-3.234375 0l-1.9375 -2.90625q-1.046875 -1.5625 -1.4375 -1.96875q-0.375 -0.40625 -0.8125 -0.546875q-0.421875 -0.15625 -1.34375 -0.15625l-0.546875 0l0 5.578125l-2.703125 0zm2.703125 -7.703125l2.0 0q1.9375 0 2.421875 -0.15625q0.484375 -0.171875 0.75 -0.578125q0.28125 -0.40625 0.28125 -1.0q0 -0.671875 -0.359375 -1.078125q-0.359375 -0.421875 -1.015625 -0.53125q-0.328125 -0.046875 -1.96875 -0.046875l-2.109375 0l0 3.390625zm13.577087 7.703125l0 -5.625l-4.890625 -7.734375l3.171875 0l3.140625 5.28125l3.078125 -5.28125l3.109375 0l-4.921875 7.75l0 5.609375l-2.6875 0z" fill-rule="nonzero"/><path fill="#d9d9d9" d="m35.587925 143.87665l317.82678 0l0 72.12598l-317.82678 0z" fill-rule="evenodd"/><path stroke="#000000" stroke-width="3.0" stroke-linejoin="round" stroke-linecap="butt" d="m35.587925 143.87665l317.82678 0l0 72.12598l-317.82678 0z" fill-rule="evenodd"/><path fill="#000000" d="m161.13074 202.92262l0 -13.359375l4.328125 0q2.453125 0 3.203125 0.203125q1.140625 0.296875 1.921875 1.3125q0.78125 1.0 0.78125 2.59375q0 1.234375 -0.453125 2.078125q-0.453125 0.828125 -1.140625 1.3125q-0.6875 0.46875 -1.390625 0.625q-0.96875 0.203125 -2.796875 0.203125l-1.765625 0l0 5.03125l-2.6875 0zm2.6875 -11.09375l0 3.78125l1.484375 0q1.59375 0 2.125 -0.203125q0.546875 -0.203125 0.84375 -0.65625q0.3125 -0.453125 0.3125 -1.03125q0 -0.734375 -0.4375 -1.203125q-0.421875 -0.484375 -1.078125 -0.59375q-0.484375 -0.09375 -1.9375 -0.09375l-1.3125 0zm9.756073 11.09375l0 -13.359375l5.6875 0q2.140625 0 3.109375 0.359375q0.96875 0.359375 1.546875 1.28125q0.578125 0.921875 0.578125 2.109375q0 1.5 -0.890625 2.484375q-0.875 0.96875 -2.625 1.234375q0.875 0.5 1.4375 1.125q0.578125 0.609375 1.53125 2.15625l1.640625 2.609375l-3.234375 0l-1.9375 -2.90625q-1.046875 -1.5625 -1.4375 -1.96875q-0.375 -0.40625 -0.8125 -0.546875q-0.421875 -0.15625 -1.34375 -0.15625l-0.546875 0l0 5.578125l-2.703125 0zm2.703125 -7.703125l2.0 0q1.9375 0 2.421875 -0.15625q0.484375 -0.171875 0.75 -0.578125q0.28125 -0.40625 0.28125 -1.0q0 -0.671875 -0.359375 -1.078125q-0.359375 -0.421875 -1.015625 -0.53125q-0.328125 -0.046875 -1.96875 -0.046875l-2.109375 0l0 3.390625zm10.222931 1.109375q0 -2.046875 0.609375 -3.421875q0.453125 -1.03125 1.234375 -1.828125q0.796875 -0.8125 1.734375 -1.203125q1.25 -0.53125 2.875 -0.53125q2.953125 0 4.71875 1.828125q1.78125 1.828125 1.78125 5.09375q0 3.234375 -1.765625 5.0625q-1.75 1.828125 -4.6875 1.828125q-2.984375 0 -4.75 -1.8125q-1.75 -1.828125 -1.75 -5.015625zm2.78125 -0.09375q0 2.265625 1.046875 3.4375q1.046875 1.171875 2.65625 1.171875q1.609375 0 2.640625 -1.15625q1.046875 -1.171875 1.046875 -3.484375q0 -2.296875 -1.015625 -3.421875q-1.0 -1.140625 -2.671875 -1.140625q-1.671875 0 -2.6875 1.15625q-1.015625 1.140625 -1.015625 3.4375zm20.823944 1.78125l2.609375 0.828125q-0.59375 2.1875 -2.0 3.25q-1.390625 1.0625 -3.546875 1.0625q-2.65625 0 -4.375 -1.8125q-1.703125 -1.828125 -1.703125 -4.984375q0 -3.328125 1.71875 -5.171875q1.71875 -1.84375 4.515625 -1.84375q2.453125 0 3.984375 1.4375q0.921875 0.859375 1.375 2.46875l-2.671875 0.640625q-0.234375 -1.046875 -0.984375 -1.640625q-0.75 -0.609375 -1.828125 -0.609375q-1.484375 0 -2.421875 1.078125q-0.921875 1.0625 -0.921875 3.4375q0 2.53125 0.90625 3.609375q0.921875 1.078125 2.375 1.078125q1.078125 0 1.84375 -0.671875q0.78125 -0.6875 1.125 -2.15625zm13.875 -8.5q1.9375 0 3.03125 1.375q1.296875 1.640625 1.296875 5.4375q0 3.796875 -1.3125 5.453125q-1.078125 1.375 -3.015625 1.375q-1.953125 0 -3.15625 -1.5q-1.1875 -1.5 -1.1875 -5.34375q0 -3.78125 1.3125 -5.4375q1.078125 -1.359375 3.03125 -1.359375zm0 2.125q-0.46875 0 -0.84375 0.296875q-0.359375 0.296875 -0.5625 1.0625q-0.25 0.984375 -0.25 3.328125q0 2.359375 0.234375 3.234375q0.234375 0.875 0.59375 1.171875q0.359375 0.296875 0.828125 0.296875q0.453125 0 0.8125 -0.296875q0.375 -0.296875 0.578125 -1.0625q0.265625 -0.984375 0.265625 -3.34375q0 -2.34375 -0.25 -3.21875q-0.234375 -0.875 -0.59375 -1.171875q-0.359375 -0.296875 -0.8125 -0.296875z" fill-rule="nonzero"/><path fill="#d9d9d9" d="m353.4147 143.87401l222.4567 0l0 72.12599l-222.4567 0z" fill-rule="evenodd"/><path stroke="#000000" stroke-width="3.0" stroke-linejoin="round" stroke-linecap="butt" d="m353.4147 143.87401l222.4567 0l0 72.12599l-222.4567 0z" fill-rule="evenodd"/><path fill="#000000" d="m431.27246 202.92l0 -13.359375l4.328125 0q2.453125 0 3.203125 0.203125q1.140625 0.296875 1.921875 1.3125q0.78125 1.0 0.78125 2.59375q0 1.234375 -0.453125 2.078125q-0.453125 0.828125 -1.140625 1.3125q-0.6875 0.46875 -1.390625 0.625q-0.96875 0.203125 -2.796875 0.203125l-1.765625 0l0 5.03125l-2.6875 0zm2.6875 -11.09375l0 3.78125l1.484375 0q1.59375 0 2.125 -0.203125q0.546875 -0.203125 0.84375 -0.65625q0.3125 -0.453125 0.3125 -1.03125q0 -0.734375 -0.4375 -1.203125q-0.421875 -0.484375 -1.078125 -0.59375q-0.484375 -0.09375 -1.9375 -0.09375l-1.3125 0zm9.756073 11.09375l0 -13.359375l5.6875 0q2.140625 0 3.109375 0.359375q0.96875 0.359375 1.546875 1.28125q0.578125 0.921875 0.578125 2.109375q0 1.5 -0.890625 2.484375q-0.875 0.96875 -2.625 1.234375q0.875 0.5 1.4375 1.125q0.578125 0.609375 1.53125 2.15625l1.640625 2.609375l-3.234375 0l-1.9375 -2.90625q-1.046875 -1.5625 -1.4375 -1.96875q-0.375 -0.40625 -0.8125 -0.546875q-0.421875 -0.15625 -1.34375 -0.15625l-0.546875 0l0 5.578125l-2.703125 0zm2.703125 -7.703125l2.0 0q1.9375 0 2.421875 -0.15625q0.484375 -0.171875 0.75 -0.578125q0.28125 -0.40625 0.28125 -1.0q0 -0.671875 -0.359375 -1.078125q-0.359375 -0.421875 -1.015625 -0.53125q-0.328125 -0.046875 -1.96875 -0.046875l-2.109375 0l0 3.390625zm10.222961 1.109375q0 -2.046875 0.609375 -3.421875q0.453125 -1.03125 1.234375 -1.828125q0.796875 -0.8125 1.734375 -1.203125q1.25 -0.53125 2.875 -0.53125q2.953125 0 4.71875 1.828125q1.78125 1.828125 1.78125 5.09375q0 3.234375 -1.765625 5.0625q-1.75 1.828125 -4.6875 1.828125q-2.984375 0 -4.75 -1.8125q-1.75 -1.828125 -1.75 -5.015625zm2.78125 -0.09375q0 2.265625 1.046875 3.4375q1.046875 1.171875 2.65625 1.171875q1.609375 0 2.640625 -1.15625q1.046875 -1.171875 1.046875 -3.484375q0 -2.296875 -1.015625 -3.421875q-1.0 -1.140625 -2.671875 -1.140625q-1.671875 0 -2.6875 1.15625q-1.015625 1.140625 -1.015625 3.4375zm20.823914 1.78125l2.609375 0.828125q-0.59375 2.1875 -2.0 3.25q-1.390625 1.0625 -3.546875 1.0625q-2.65625 0 -4.375 -1.8125q-1.703125 -1.828125 -1.703125 -4.984375q0 -3.328125 1.71875 -5.171875q1.71875 -1.84375 4.515625 -1.84375q2.453125 0 3.984375 1.4375q0.921875 0.859375 1.375 2.46875l-2.671875 0.640625q-0.234375 -1.046875 -0.984375 -1.640625q-0.75 -0.609375 -1.828125 -0.609375q-1.484375 0 -2.421875 1.078125q-0.921875 1.0625 -0.921875 3.4375q0 2.53125 0.90625 3.609375q0.921875 1.078125 2.375 1.078125q1.078125 0 1.84375 -0.671875q0.78125 -0.6875 1.125 -2.15625zm16.09375 4.90625l-2.5625 0l0 -9.640625q-1.40625 1.3125 -3.3125 1.9375l0 -2.328125q1.015625 -0.328125 2.1875 -1.234375q1.171875 -0.921875 1.609375 -2.140625l2.078125 0l0 13.40625z" fill-rule="nonzero"/><path fill="#d9d9d9" d="m575.86615 143.87946l234.48816 0l0 72.12599l-234.48816 0z" fill-rule="evenodd"/><path stroke="#000000" stroke-width="3.0" stroke-linejoin="round" stroke-linecap="butt" d="m575.86615 143.87946l234.48816 0l0 72.12599l-234.48816 0z" fill-rule="evenodd"/><path fill="#000000" d="m659.7396 202.92545l0 -13.359375l4.328125 0q2.453125 0 3.203125 0.203125q1.140625 0.296875 1.921875 1.3125q0.78125 1.0 0.78125 2.59375q0 1.234375 -0.453125 2.078125q-0.453125 0.828125 -1.140625 1.3125q-0.6875 0.46875 -1.390625 0.625q-0.96875 0.203125 -2.796875 0.203125l-1.765625 0l0 5.03125l-2.6875 0zm2.6875 -11.09375l0 3.78125l1.484375 0q1.59375 0 2.125 -0.203125q0.546875 -0.203125 0.84375 -0.65625q0.3125 -0.453125 0.3125 -1.03125q0 -0.734375 -0.4375 -1.203125q-0.421875 -0.484375 -1.078125 -0.59375q-0.484375 -0.09375 -1.9375 -0.09375l-1.3125 0zm9.7561035 11.09375l0 -13.359375l5.6875 0q2.140625 0 3.109375 0.359375q0.96875 0.359375 1.546875 1.28125q0.578125 0.921875 0.578125 2.109375q0 1.5 -0.890625 2.484375q-0.875 0.96875 -2.625 1.234375q0.875 0.5 1.4375 1.125q0.578125 0.609375 1.53125 2.15625l1.640625 2.609375l-3.234375 0l-1.9375 -2.90625q-1.046875 -1.5625 -1.4375 -1.96875q-0.375 -0.40625 -0.8125 -0.546875q-0.421875 -0.15625 -1.34375 -0.15625l-0.546875 0l0 5.578125l-2.703125 0zm2.703125 -7.703125l2.0 0q1.9375 0 2.421875 -0.15625q0.484375 -0.171875 0.75 -0.578125q0.28125 -0.40625 0.28125 -1.0q0 -0.671875 -0.359375 -1.078125q-0.359375 -0.421875 -1.015625 -0.53125q-0.328125 -0.046875 -1.96875 -0.046875l-2.109375 0l0 3.390625zm10.222961 1.109375q0 -2.046875 0.609375 -3.421875q0.453125 -1.03125 1.234375 -1.828125q0.796875 -0.8125 1.734375 -1.203125q1.25 -0.53125 2.875 -0.53125q2.953125 0 4.71875 1.828125q1.78125 1.828125 1.78125 5.09375q0 3.234375 -1.765625 5.0625q-1.75 1.828125 -4.6875 1.828125q-2.984375 0 -4.75 -1.8125q-1.75 -1.828125 -1.75 -5.015625zm2.78125 -0.09375q0 2.265625 1.046875 3.4375q1.046875 1.171875 2.65625 1.171875q1.609375 0 2.640625 -1.15625q1.046875 -1.171875 1.046875 -3.484375q0 -2.296875 -1.015625 -3.421875q-1.0 -1.140625 -2.671875 -1.140625q-1.671875 0 -2.6875 1.15625q-1.015625 1.140625 -1.015625 3.4375zm20.823914 1.78125l2.609375 0.828125q-0.59375 2.1875 -2.0 3.25q-1.390625 1.0625 -3.546875 1.0625q-2.65625 0 -4.375 -1.8125q-1.703125 -1.828125 -1.703125 -4.984375q0 -3.328125 1.71875 -5.171875q1.71875 -1.84375 4.515625 -1.84375q2.453125 0 3.984375 1.4375q0.921875 0.859375 1.375 2.46875l-2.671875 0.640625q-0.234375 -1.046875 -0.984375 -1.640625q-0.75 -0.609375 -1.828125 -0.609375q-1.484375 0 -2.421875 1.078125q-0.921875 1.0625 -0.921875 3.4375q0 2.53125 0.90625 3.609375q0.921875 1.078125 2.375 1.078125q1.078125 0 1.84375 -0.671875q0.78125 -0.6875 1.125 -2.15625zm18.1875 2.53125l0 2.375l-8.96875 0q0.140625 -1.34375 0.859375 -2.546875q0.734375 -1.21875 2.890625 -3.203125q1.734375 -1.625 2.125 -2.1875q0.53125 -0.796875 0.53125 -1.578125q0 -0.84375 -0.46875 -1.296875q-0.453125 -0.46875 -1.265625 -0.46875q-0.796875 0 -1.28125 0.484375q-0.46875 0.46875 -0.546875 1.59375l-2.546875 -0.25q0.234375 -2.109375 1.421875 -3.03125q1.203125 -0.921875 3.015625 -0.921875q1.96875 0 3.09375 1.0625q1.140625 1.0625 1.140625 2.65625q0 0.890625 -0.328125 1.71875q-0.3125 0.8125 -1.015625 1.703125q-0.46875 0.59375 -1.6875 1.703125q-1.203125 1.109375 -1.53125 1.484375q-0.3125 0.359375 -0.515625 0.703125l5.078125 0z" fill-rule="nonzero"/><path fill="#d9d9d9" d="m810.34906 143.87944l222.45673 0l0 72.12599l-222.45673 0z" fill-rule="evenodd"/><path stroke="#000000" stroke-width="3.0" stroke-linejoin="round" stroke-linecap="butt" d="m810.34906 143.87944l222.45673 0l0 72.12599l-222.45673 0z" fill-rule="evenodd"/><path fill="#000000" d="m888.20685 202.92543l0 -13.359375l4.328125 0q2.453125 0 3.203125 0.203125q1.140625 0.296875 1.921875 1.3125q0.78125 1.0 0.78125 2.59375q0 1.234375 -0.453125 2.078125q-0.453125 0.828125 -1.140625 1.3125q-0.6875 0.46875 -1.390625 0.625q-0.96875 0.203125 -2.796875 0.203125l-1.765625 0l0 5.03125l-2.6875 0zm2.6875 -11.09375l0 3.78125l1.484375 0q1.59375 0 2.125 -0.203125q0.546875 -0.203125 0.84375 -0.65625q0.3125 -0.453125 0.3125 -1.03125q0 -0.734375 -0.4375 -1.203125q-0.421875 -0.484375 -1.078125 -0.59375q-0.484375 -0.09375 -1.9375 -0.09375l-1.3125 0zm9.7560425 11.09375l0 -13.359375l5.6875 0q2.140625 0 3.109375 0.359375q0.96875 0.359375 1.546875 1.28125q0.578125 0.921875 0.578125 2.109375q0 1.5 -0.890625 2.484375q-0.875 0.96875 -2.625 1.234375q0.875 0.5 1.4375 1.125q0.578125 0.609375 1.53125 2.15625l1.640625 2.609375l-3.234375 0l-1.9375 -2.90625q-1.046875 -1.5625 -1.4375 -1.96875q-0.375 -0.40625 -0.8125 -0.546875q-0.421875 -0.15625 -1.34375 -0.15625l-0.546875 0l0 5.578125l-2.703125 0zm2.703125 -7.703125l2.0 0q1.9375 0 2.421875 -0.15625q0.484375 -0.171875 0.75 -0.578125q0.28125 -0.40625 0.28125 -1.0q0 -0.671875 -0.359375 -1.078125q-0.359375 -0.421875 -1.015625 -0.53125q-0.328125 -0.046875 -1.96875 -0.046875l-2.109375 0l0 3.390625zm10.222961 1.109375q0 -2.046875 0.609375 -3.421875q0.453125 -1.03125 1.234375 -1.828125q0.796875 -0.8125 1.734375 -1.203125q1.25 -0.53125 2.875 -0.53125q2.953125 0 4.71875 1.828125q1.78125 1.828125 1.78125 5.09375q0 3.234375 -1.765625 5.0625q-1.75 1.828125 -4.6875 1.828125q-2.984375 0 -4.75 -1.8125q-1.75 -1.828125 -1.75 -5.015625zm2.78125 -0.09375q0 2.265625 1.046875 3.4375q1.046875 1.171875 2.65625 1.171875q1.609375 0 2.640625 -1.15625q1.046875 -1.171875 1.046875 -3.484375q0 -2.296875 -1.015625 -3.421875q-1.0 -1.140625 -2.671875 -1.140625q-1.671875 0 -2.6875 1.15625q-1.015625 1.140625 -1.015625 3.4375zm20.823914 1.78125l2.609375 0.828125q-0.59375 2.1875 -2.0 3.25q-1.390625 1.0625 -3.546875 1.0625q-2.65625 0 -4.375 -1.8125q-1.703125 -1.828125 -1.703125 -4.984375q0 -3.328125 1.71875 -5.171875q1.71875 -1.84375 4.515625 -1.84375q2.453125 0 3.984375 1.4375q0.921875 0.859375 1.375 2.46875l-2.671875 0.640625q-0.234375 -1.046875 -0.984375 -1.640625q-0.75 -0.609375 -1.828125 -0.609375q-1.484375 0 -2.421875 1.078125q-0.921875 1.0625 -0.921875 3.4375q0 2.53125 0.90625 3.609375q0.921875 1.078125 2.375 1.078125q1.078125 0 1.84375 -0.671875q0.78125 -0.6875 1.125 -2.15625zm9.453125 1.359375l2.46875 -0.296875q0.125 0.953125 0.640625 1.453125q0.53125 0.5 1.265625 0.5q0.78125 0 1.328125 -0.59375q0.546875 -0.609375 0.546875 -1.640625q0 -0.953125 -0.53125 -1.515625q-0.515625 -0.578125 -1.25 -0.578125q-0.5 0 -1.1875 0.203125l0.28125 -2.09375q1.046875 0.03125 1.59375 -0.4375q0.546875 -0.484375 0.546875 -1.28125q0 -0.671875 -0.40625 -1.078125q-0.390625 -0.40625 -1.0625 -0.40625q-0.65625 0 -1.125 0.46875q-0.453125 0.453125 -0.5625 1.328125l-2.359375 -0.40625q0.25 -1.203125 0.734375 -1.921875q0.5 -0.734375 1.390625 -1.140625q0.890625 -0.421875 2.0 -0.421875q1.875 0 3.015625 1.203125q0.9375 0.984375 0.9375 2.21875q0 1.765625 -1.921875 2.8125q1.15625 0.234375 1.84375 1.09375q0.6875 0.859375 0.6875 2.0625q0 1.765625 -1.296875 3.015625q-1.28125 1.234375 -3.1875 1.234375q-1.8125 0 -3.015625 -1.046875q-1.1875 -1.046875 -1.375 -2.734375z" fill-rule="nonzero"/><path fill="#fff2cc" d="m978.19684 144.0l54.614197 0l0 32.409454l-54.614197 0z" fill-rule="evenodd"/><path stroke="#000000" stroke-width="3.0" stroke-linejoin="round" stroke-linecap="butt" d="m978.19684 144.0l54.614197 0l0 32.409454l-54.614197 0z" fill-rule="evenodd"/><path fill="#000000" d="m985.5373 167.12473l0 -13.359375l2.6875 0l0 13.359375l-2.6875 0zm5.2926636 0l0 -13.359375l2.625 0l5.453125 8.921875l0 -8.921875l2.515625 0l0 13.359375l-2.703125 0l-5.390625 -8.703125l0 8.703125l-2.5 0zm12.754211 -4.34375l2.625 -0.25q0.234375 1.3125 0.953125 1.9375q0.734375 0.609375 1.96875 0.609375q1.296875 0 1.953125 -0.546875q0.671875 -0.546875 0.671875 -1.28125q0 -0.484375 -0.28125 -0.8125q-0.28125 -0.328125 -0.96875 -0.578125q-0.484375 -0.15625 -2.171875 -0.578125q-2.15625 -0.546875 -3.03125 -1.328125q-1.234375 -1.09375 -1.234375 -2.6875q0 -1.015625 0.578125 -1.90625q0.578125 -0.890625 1.65625 -1.34375q1.09375 -0.46875 2.640625 -0.46875q2.515625 0 3.78125 1.109375q1.28125 1.09375 1.34375 2.9375l-2.703125 0.109375q-0.171875 -1.03125 -0.75 -1.46875q-0.5625 -0.453125 -1.703125 -0.453125q-1.171875 0 -1.84375 0.46875q-0.421875 0.3125 -0.421875 0.84375q0 0.46875 0.40625 0.796875q0.5 0.4375 2.46875 0.90625q1.96875 0.453125 2.90625 0.953125q0.953125 0.5 1.484375 1.359375q0.53125 0.859375 0.53125 2.125q0 1.15625 -0.640625 2.15625q-0.640625 1.0 -1.8125 1.484375q-1.15625 0.484375 -2.890625 0.484375q-2.53125 0 -3.890625 -1.171875q-1.359375 -1.171875 -1.625 -3.40625zm16.131042 4.34375l0 -11.09375l-3.953125 0l0 -2.265625l10.609375 0l0 2.265625l-3.953125 0l0 11.09375l-2.703125 0z" fill-rule="nonzero"/><path fill="#fff2cc" d="m738.979 144.0l70.04724 0l0 32.409454l-70.04724 0z" fill-rule="evenodd"/><path stroke="#000000" stroke-width="3.0" stroke-linejoin="round" stroke-linecap="butt" d="m738.979 144.0l70.04724 0l0 32.409454l-70.04724 0z" fill-rule="evenodd"/><path fill="#000000" d="m754.03595 167.12473l0 -13.359375l2.6875 0l0 13.359375l-2.6875 0zm5.2927246 0l0 -13.359375l2.625 0l5.453125 8.921875l0 -8.921875l2.515625 0l0 13.359375l-2.703125 0l-5.390625 -8.703125l0 8.703125l-2.5 0zm12.75415 -4.34375l2.625 -0.25q0.234375 1.3125 0.953125 1.9375q0.734375 0.609375 1.96875 0.609375q1.296875 0 1.953125 -0.546875q0.671875 -0.546875 0.671875 -1.28125q0 -0.484375 -0.28125 -0.8125q-0.28125 -0.328125 -0.96875 -0.578125q-0.484375 -0.15625 -2.171875 -0.578125q-2.15625 -0.546875 -3.03125 -1.328125q-1.234375 -1.09375 -1.234375 -2.6875q0 -1.015625 0.578125 -1.90625q0.578125 -0.890625 1.65625 -1.34375q1.09375 -0.46875 2.640625 -0.46875q2.515625 0 3.78125 1.109375q1.28125 1.09375 1.34375 2.9375l-2.703125 0.109375q-0.171875 -1.03125 -0.75 -1.46875q-0.5625 -0.453125 -1.703125 -0.453125q-1.171875 0 -1.84375 0.46875q-0.421875 0.3125 -0.421875 0.84375q0 0.46875 0.40625 0.796875q0.5 0.4375 2.46875 0.90625q1.96875 0.453125 2.90625 0.953125q0.953125 0.5 1.484375 1.359375q0.53125 0.859375 0.53125 2.125q0 1.15625 -0.640625 2.15625q-0.640625 1.0 -1.8125 1.484375q-1.15625 0.484375 -2.890625 0.484375q-2.53125 0 -3.890625 -1.171875q-1.359375 -1.171875 -1.625 -3.40625zm16.131104 4.34375l0 -11.09375l-3.953125 0l0 -2.265625l10.609375 0l0 2.265625l-3.953125 0l0 11.09375l-2.703125 0z" fill-rule="nonzero"/><path fill="#fff2cc" d="m521.24805 144.0l54.614136 0l0 32.409454l-54.614136 0z" fill-rule="evenodd"/><path stroke="#000000" stroke-width="3.0" stroke-linejoin="round" stroke-linecap="butt" d="m521.24805 144.0l54.614136 0l0 32.409454l-54.614136 0z" fill-rule="evenodd"/><path fill="#000000" d="m528.58844 167.12473l0 -13.359375l2.6875 0l0 13.359375l-2.6875 0zm5.2927246 0l0 -13.359375l2.625 0l5.453125 8.921875l0 -8.921875l2.515625 0l0 13.359375l-2.703125 0l-5.390625 -8.703125l0 8.703125l-2.5 0zm12.75415 -4.34375l2.625 -0.25q0.234375 1.3125 0.953125 1.9375q0.734375 0.609375 1.96875 0.609375q1.296875 0 1.953125 -0.546875q0.671875 -0.546875 0.671875 -1.28125q0 -0.484375 -0.28125 -0.8125q-0.28125 -0.328125 -0.96875 -0.578125q-0.484375 -0.15625 -2.171875 -0.578125q-2.15625 -0.546875 -3.03125 -1.328125q-1.234375 -1.09375 -1.234375 -2.6875q0 -1.015625 0.578125 -1.90625q0.578125 -0.890625 1.65625 -1.34375q1.09375 -0.46875 2.640625 -0.46875q2.515625 0 3.78125 1.109375q1.28125 1.09375 1.34375 2.9375l-2.703125 0.109375q-0.171875 -1.03125 -0.75 -1.46875q-0.5625 -0.453125 -1.703125 -0.453125q-1.171875 0 -1.84375 0.46875q-0.421875 0.3125 -0.421875 0.84375q0 0.46875 0.40625 0.796875q0.5 0.4375 2.46875 0.90625q1.96875 0.453125 2.90625 0.953125q0.953125 0.5 1.484375 1.359375q0.53125 0.859375 0.53125 2.125q0 1.15625 -0.640625 2.15625q-0.640625 1.0 -1.8125 1.484375q-1.15625 0.484375 -2.890625 0.484375q-2.53125 0 -3.890625 -1.171875q-1.359375 -1.171875 -1.625 -3.40625zm16.131104 4.34375l0 -11.09375l-3.953125 0l0 -2.265625l10.609375 0l0 2.265625l-3.953125 0l0 11.09375l-2.703125 0z" fill-rule="nonzero"/><path fill="#fff2cc" d="m295.8609 144.0l57.543304 0l0 32.409454l-57.543304 0z" fill-rule="evenodd"/><path stroke="#000000" stroke-width="3.0" stroke-linejoin="round" stroke-linecap="butt" d="m295.8609 144.0l57.543304 0l0 32.409454l-57.543304 0z" fill-rule="evenodd"/><path fill="#000000" d="m304.6659 167.12473l0 -13.359375l2.6875 0l0 13.359375l-2.6875 0zm5.292694 0l0 -13.359375l2.625 0l5.453125 8.921875l0 -8.921875l2.515625 0l0 13.359375l-2.703125 0l-5.390625 -8.703125l0 8.703125l-2.5 0zm12.754181 -4.34375l2.625 -0.25q0.234375 1.3125 0.953125 1.9375q0.734375 0.609375 1.96875 0.609375q1.296875 0 1.953125 -0.546875q0.671875 -0.546875 0.671875 -1.28125q0 -0.484375 -0.28125 -0.8125q-0.28125 -0.328125 -0.96875 -0.578125q-0.484375 -0.15625 -2.171875 -0.578125q-2.15625 -0.546875 -3.03125 -1.328125q-1.234375 -1.09375 -1.234375 -2.6875q0 -1.015625 0.578125 -1.90625q0.578125 -0.890625 1.65625 -1.34375q1.09375 -0.46875 2.640625 -0.46875q2.515625 0 3.78125 1.109375q1.28125 1.09375 1.34375 2.9375l-2.703125 0.109375q-0.171875 -1.03125 -0.75 -1.46875q-0.5625 -0.453125 -1.703125 -0.453125q-1.171875 0 -1.84375 0.46875q-0.421875 0.3125 -0.421875 0.84375q0 0.46875 0.40625 0.796875q0.5 0.4375 2.46875 0.90625q1.96875 0.453125 2.90625 0.953125q0.953125 0.5 1.484375 1.359375q0.53125 0.859375 0.53125 2.125q0 1.15625 -0.640625 2.15625q-0.640625 1.0 -1.8125 1.484375q-1.15625 0.484375 -2.890625 0.484375q-2.53125 0 -3.890625 -1.171875q-1.359375 -1.171875 -1.625 -3.40625zm16.131073 4.34375l0 -11.09375l-3.953125 0l0 -2.265625l10.609375 0l0 2.265625l-3.953125 0l0 11.09375l-2.703125 0z" fill-rule="nonzero"/><path fill="#cfe2f3" d="m463.69815 144.0l57.543304 0l0 32.409454l-57.543304 0z" fill-rule="evenodd"/><path stroke="#000000" stroke-width="3.0" stroke-linejoin="round" stroke-linecap="butt" d="m463.69815 144.0l57.543304 0l0 32.409454l-57.543304 0z" fill-rule="evenodd"/><path fill="#000000" d="m468.3048 161.87848l2.0625 -0.203125q0.1875 1.03125 0.75 1.515625q0.578125 0.484375 1.53125 0.484375q1.03125 0 1.546875 -0.421875q0.515625 -0.4375 0.515625 -1.015625q0 -0.375 -0.21875 -0.625q-0.21875 -0.265625 -0.75 -0.46875q-0.375 -0.125 -1.703125 -0.453125q-1.703125 -0.421875 -2.390625 -1.03125q-0.96875 -0.875 -0.96875 -2.125q0 -0.796875 0.453125 -1.484375q0.453125 -0.703125 1.3125 -1.0625q0.859375 -0.375 2.0625 -0.375q1.984375 0 2.96875 0.875q1.0 0.859375 1.0625 2.296875l-2.125 0.09375q-0.140625 -0.796875 -0.59375 -1.15625q-0.4375 -0.359375 -1.328125 -0.359375q-0.921875 0 -1.453125 0.390625q-0.328125 0.234375 -0.328125 0.640625q0 0.375 0.3125 0.640625q0.40625 0.34375 1.9375 0.703125q1.546875 0.359375 2.28125 0.75q0.75 0.390625 1.171875 1.078125q0.421875 0.671875 0.421875 1.65625q0 0.90625 -0.5 1.703125q-0.5 0.78125 -1.421875 1.171875q-0.921875 0.375 -2.28125 0.375q-1.984375 0 -3.0625 -0.921875q-1.0625 -0.921875 -1.265625 -2.671875zm12.666229 3.40625l0 -8.71875l-3.109375 0l0 -1.765625l8.34375 0l0 1.765625l-3.109375 0l0 8.71875l-2.125 0zm14.97345 0l-2.3125 0l-0.90625 -2.390625l-4.203125 0l-0.859375 2.390625l-2.25 0l4.09375 -10.484375l2.234375 0l4.203125 10.484375zm-3.90625 -4.15625l-1.4375 -3.890625l-1.421875 3.890625l2.859375 0zm11.74054 0.296875l2.046875 0.65625q-0.46875 1.71875 -1.578125 2.546875q-1.09375 0.828125 -2.78125 0.828125q-2.078125 0 -3.4375 -1.421875q-1.34375 -1.421875 -1.34375 -3.90625q0 -2.609375 1.359375 -4.0625q1.359375 -1.453125 3.5625 -1.453125q1.921875 0 3.125 1.140625q0.71875 0.671875 1.0625 1.9375l-2.09375 0.5q-0.1875 -0.828125 -0.78125 -1.296875q-0.578125 -0.46875 -1.421875 -0.46875q-1.171875 0 -1.90625 0.84375q-0.71875 0.828125 -0.71875 2.703125q0 1.984375 0.71875 2.84375q0.71875 0.84375 1.859375 0.84375q0.84375 0 1.453125 -0.53125q0.609375 -0.546875 0.875 -1.703125zm3.896759 3.859375l0 -10.484375l2.125 0l0 4.65625l4.28125 -4.65625l2.84375 0l-3.953125 4.078125l4.171875 6.40625l-2.75 0l-2.875 -4.921875l-1.71875 1.75l0 3.171875l-2.125 0z" fill-rule="nonzero"/><path fill="#cfe2f3" d="m241.25722 144.0l54.61418 0l0 32.409454l-54.61418 0z" fill-rule="evenodd"/><path stroke="#000000" stroke-width="3.0" stroke-linejoin="round" stroke-linecap="butt" d="m241.25722 144.0l54.61418 0l0 32.409454l-54.61418 0z" fill-rule="evenodd"/><path fill="#000000" d="m244.3993 161.87848l2.0625 -0.203125q0.1875 1.03125 0.75 1.515625q0.578125 0.484375 1.53125 0.484375q1.03125 0 1.546875 -0.421875q0.515625 -0.4375 0.515625 -1.015625q0 -0.375 -0.21875 -0.625q-0.21875 -0.265625 -0.75 -0.46875q-0.375 -0.125 -1.703125 -0.453125q-1.703125 -0.421875 -2.390625 -1.03125q-0.96875 -0.875 -0.96875 -2.125q0 -0.796875 0.453125 -1.484375q0.453125 -0.703125 1.3125 -1.0625q0.859375 -0.375 2.0625 -0.375q1.984375 0 2.96875 0.875q1.0 0.859375 1.0625 2.296875l-2.125 0.09375q-0.140625 -0.796875 -0.59375 -1.15625q-0.4375 -0.359375 -1.328125 -0.359375q-0.921875 0 -1.453125 0.390625q-0.328125 0.234375 -0.328125 0.640625q0 0.375 0.3125 0.640625q0.40625 0.34375 1.9375 0.703125q1.546875 0.359375 2.28125 0.75q0.75 0.390625 1.171875 1.078125q0.421875 0.671875 0.421875 1.65625q0 0.90625 -0.5 1.703125q-0.5 0.78125 -1.421875 1.171875q-0.921875 0.375 -2.28125 0.375q-1.984375 0 -3.0625 -0.921875q-1.0625 -0.921875 -1.265625 -2.671875zm12.666214 3.40625l0 -8.71875l-3.1093597 0l0 -1.765625l8.343735 0l0 1.765625l-3.109375 0l0 8.71875l-2.125 0zm14.97345 0l-2.3125 0l-0.90625 -2.390625l-4.203125 0l-0.859375 2.390625l-2.25 0l4.09375 -10.484375l2.234375 0l4.203125 10.484375zm-3.90625 -4.15625l-1.4375 -3.890625l-1.421875 3.890625l2.859375 0zm11.74054 0.296875l2.046875 0.65625q-0.46875 1.71875 -1.578125 2.546875q-1.09375 0.828125 -2.78125 0.828125q-2.078125 0 -3.4375 -1.421875q-1.34375 -1.421875 -1.34375 -3.90625q0 -2.609375 1.359375 -4.0625q1.359375 -1.453125 3.5625 -1.453125q1.921875 0 3.125 1.140625q0.71875 0.671875 1.0625 1.9375l-2.09375 0.5q-0.1875 -0.828125 -0.78125 -1.296875q-0.578125 -0.46875 -1.421875 -0.46875q-1.171875 0 -1.90625 0.84375q-0.71875 0.828125 -0.71875 2.703125q0 1.984375 0.71875 2.84375q0.71875 0.84375 1.859375 0.84375q0.84375 0 1.453125 -0.53125q0.609375 -0.546875 0.875 -1.703125zm3.896759 3.859375l0 -10.484375l2.125 0l0 4.65625l4.28125 -4.65625l2.84375 0l-3.953125 4.078125l4.171875 6.40625l-2.75 0l-2.875 -4.921875l-1.71875 1.75l0 3.171875l-2.125 0z" fill-rule="nonzero"/><path fill="#cfe2f3" d="m685.27313 144.0l53.700806 0l0 32.409454l-53.700806 0z" fill-rule="evenodd"/><path stroke="#000000" stroke-width="3.0" stroke-linejoin="round" stroke-linecap="butt" d="m685.27313 144.0l53.700806 0l0 32.409454l-53.700806 0z" fill-rule="evenodd"/><path fill="#000000" d="m687.95856 161.87848l2.0625 -0.203125q0.1875 1.03125 0.75 1.515625q0.578125 0.484375 1.53125 0.484375q1.03125 0 1.546875 -0.421875q0.515625 -0.4375 0.515625 -1.015625q0 -0.375 -0.21875 -0.625q-0.21875 -0.265625 -0.75 -0.46875q-0.375 -0.125 -1.703125 -0.453125q-1.703125 -0.421875 -2.390625 -1.03125q-0.96875 -0.875 -0.96875 -2.125q0 -0.796875 0.453125 -1.484375q0.453125 -0.703125 1.3125 -1.0625q0.859375 -0.375 2.0625 -0.375q1.984375 0 2.96875 0.875q1.0 0.859375 1.0625 2.296875l-2.125 0.09375q-0.140625 -0.796875 -0.59375 -1.15625q-0.4375 -0.359375 -1.328125 -0.359375q-0.921875 0 -1.453125 0.390625q-0.328125 0.234375 -0.328125 0.640625q0 0.375 0.3125 0.640625q0.40625 0.34375 1.9375 0.703125q1.546875 0.359375 2.28125 0.75q0.75 0.390625 1.171875 1.078125q0.421875 0.671875 0.421875 1.65625q0 0.90625 -0.5 1.703125q-0.5 0.78125 -1.421875 1.171875q-0.921875 0.375 -2.28125 0.375q-1.984375 0 -3.0625 -0.921875q-1.0625 -0.921875 -1.265625 -2.671875zm12.666199 3.40625l0 -8.71875l-3.109375 0l0 -1.765625l8.34375 0l0 1.765625l-3.109375 0l0 8.71875l-2.125 0zm14.97345 0l-2.3125 0l-0.90625 -2.390625l-4.203125 0l-0.859375 2.390625l-2.25 0l4.09375 -10.484375l2.234375 0l4.203125 10.484375zm-3.90625 -4.15625l-1.4375 -3.890625l-1.421875 3.890625l2.859375 0zm11.74054 0.296875l2.046875 0.65625q-0.46875 1.71875 -1.578125 2.546875q-1.09375 0.828125 -2.78125 0.828125q-2.078125 0 -3.4375 -1.421875q-1.34375 -1.421875 -1.34375 -3.90625q0 -2.609375 1.359375 -4.0625q1.359375 -1.453125 3.5625 -1.453125q1.921875 0 3.125 1.140625q0.71875 0.671875 1.0625 1.9375l-2.09375 0.5q-0.1875 -0.828125 -0.78125 -1.296875q-0.578125 -0.46875 -1.421875 -0.46875q-1.171875 0 -1.90625 0.84375q-0.71875 0.828125 -0.71875 2.703125q0 1.984375 0.71875 2.84375q0.71875 0.84375 1.859375 0.84375q0.84375 0 1.453125 -0.53125q0.609375 -0.546875 0.875 -1.703125zm3.8967896 3.859375l0 -10.484375l2.125 0l0 4.65625l4.28125 -4.65625l2.84375 0l-3.953125 4.078125l4.171875 6.40625l-2.75 0l-2.875 -4.921875l-1.71875 1.75l0 3.171875l-2.125 0z" fill-rule="nonzero"/><path fill="#cfe2f3" d="m920.64307 143.87665l57.543274 0l0 32.40944l-57.543274 0z" fill-rule="evenodd"/><path stroke="#000000" stroke-width="3.0" stroke-linejoin="round" stroke-linecap="butt" d="m920.64307 143.87665l57.543274 0l0 32.40944l-57.543274 0z" fill-rule="evenodd"/><path fill="#000000" d="m925.2497 161.75511l2.0625 -0.203125q0.1875 1.03125 0.75 1.515625q0.578125 0.484375 1.53125 0.484375q1.03125 0 1.546875 -0.421875q0.515625 -0.4375 0.515625 -1.015625q0 -0.375 -0.21875 -0.625q-0.21875 -0.265625 -0.75 -0.46875q-0.375 -0.125 -1.703125 -0.453125q-1.703125 -0.421875 -2.390625 -1.03125q-0.96875 -0.875 -0.96875 -2.125q0 -0.796875 0.453125 -1.484375q0.453125 -0.703125 1.3125 -1.0625q0.859375 -0.375 2.0625 -0.375q1.984375 0 2.96875 0.875q1.0 0.859375 1.0625 2.296875l-2.125 0.09375q-0.140625 -0.796875 -0.59375 -1.15625q-0.4375 -0.359375 -1.328125 -0.359375q-0.921875 0 -1.453125 0.390625q-0.328125 0.234375 -0.328125 0.640625q0 0.375 0.3125 0.640625q0.40625 0.34375 1.9375 0.703125q1.546875 0.359375 2.28125 0.75q0.75 0.390625 1.171875 1.078125q0.421875 0.671875 0.421875 1.65625q0 0.90625 -0.5 1.703125q-0.5 0.78125 -1.421875 1.171875q-0.921875 0.375 -2.28125 0.375q-1.984375 0 -3.0625 -0.921875q-1.0625 -0.921875 -1.265625 -2.671875zm12.66626 3.40625l0 -8.71875l-3.109375 0l0 -1.765625l8.34375 0l0 1.765625l-3.109375 0l0 8.71875l-2.125 0zm14.97345 0l-2.3125 0l-0.90625 -2.390625l-4.203125 0l-0.859375 2.390625l-2.25 0l4.09375 -10.484375l2.234375 0l4.203125 10.484375zm-3.90625 -4.15625l-1.4375 -3.890625l-1.421875 3.890625l2.859375 0zm11.7404785 0.296875l2.046875 0.65625q-0.46875 1.71875 -1.578125 2.546875q-1.09375 0.828125 -2.78125 0.828125q-2.078125 0 -3.4375 -1.421875q-1.34375 -1.421875 -1.34375 -3.90625q0 -2.609375 1.359375 -4.0625q1.359375 -1.453125 3.5625 -1.453125q1.921875 0 3.125 1.140625q0.71875 0.671875 1.0625 1.9375l-2.09375 0.5q-0.1875 -0.828125 -0.78125 -1.296875q-0.578125 -0.46875 -1.421875 -0.46875q-1.171875 0 -1.90625 0.84375q-0.71875 0.828125 -0.71875 2.703125q0 1.984375 0.71875 2.84375q0.71875 0.84375 1.859375 0.84375q0.84375 0 1.453125 -0.53125q0.609375 -0.546875 0.875 -1.703125zm3.8967896 3.859375l0 -10.484375l2.125 0l0 4.65625l4.28125 -4.65625l2.84375 0l-3.953125 4.078125l4.171875 6.40625l-2.75 0l-2.875 -4.921875l-1.71875 1.75l0 3.171875l-2.125 0z" fill-rule="nonzero"/><path fill="#d9d2e9" d="m35.582676 144.0l101.00787 0l0 32.409454l-101.00787 0z" fill-rule="evenodd"/><path stroke="#000000" stroke-width="3.0" stroke-linejoin="round" stroke-linecap="butt" d="m35.582676 144.0l101.00787 0l0 32.409454l-101.00787 0z" fill-rule="evenodd"/><path fill="#000000" d="m66.80486 165.28473l0 -10.484375l2.109375 0l0 4.125l4.15625 0l0 -4.125l2.109375 0l0 10.484375l-2.109375 0l0 -4.59375l-4.15625 0l0 4.59375l-2.109375 0zm10.568649 0l0 -10.484375l7.78125 0l0 1.765625l-5.65625 0l0 2.328125l5.265625 0l0 1.765625l-5.265625 0l0 2.859375l5.859375 0l0 1.765625l-7.984375 0zm19.244354 0l-2.3125 0l-0.90625 -2.390625l-4.203125 0l-0.859375 2.390625l-2.25 0l4.09375 -10.484375l2.234375 0l4.203125 10.484375zm-3.90625 -4.15625l-1.4375 -3.890625l-1.421875 3.890625l2.859375 0zm5.0217743 4.15625l0 -10.484375l3.40625 0q1.921875 0 2.515625 0.15625q0.90625 0.234375 1.515625 1.03125q0.609375 0.78125 0.609375 2.03125q0 0.96875 -0.359375 1.625q-0.34375 0.65625 -0.890625 1.03125q-0.53125 0.375 -1.09375 0.5q-0.765625 0.15625 -2.203125 0.15625l-1.375 0l0 3.953125l-2.125 0zm2.125 -8.71875l0 2.984375l1.15625 0q1.25 0 1.671875 -0.15625q0.421875 -0.171875 0.65625 -0.515625q0.25 -0.359375 0.25 -0.828125q0 -0.578125 -0.34375 -0.9375q-0.328125 -0.375 -0.84375 -0.46875q-0.375 -0.078125 -1.53125 -0.078125l-1.015625 0z" fill-rule="nonzero"/><path fill="#d9d2e9" d="m353.28 144.0l60.503937 0l0 32.409454l-60.503937 0z" fill-rule="evenodd"/><path stroke="#000000" stroke-width="3.0" stroke-linejoin="round" stroke-linecap="butt" d="m353.28 144.0l60.503937 0l0 32.409454l-60.503937 0z" fill-rule="evenodd"/><path fill="#000000" d="m364.2502 165.28473l0 -10.484375l2.109375 0l0 4.125l4.15625 0l0 -4.125l2.109375 0l0 10.484375l-2.109375 0l0 -4.59375l-4.15625 0l0 4.59375l-2.109375 0zm10.568665 0l0 -10.484375l7.78125 0l0 1.765625l-5.65625 0l0 2.328125l5.265625 0l0 1.765625l-5.265625 0l0 2.859375l5.859375 0l0 1.765625l-7.984375 0zm19.244354 0l-2.3125 0l-0.90625 -2.390625l-4.203125 0l-0.859375 2.390625l-2.25 0l4.09375 -10.484375l2.234375 0l4.203125 10.484375zm-3.90625 -4.15625l-1.4375 -3.890625l-1.421875 3.890625l2.859375 0zm5.021759 4.15625l0 -10.484375l3.40625 0q1.921875 0 2.515625 0.15625q0.90625 0.234375 1.515625 1.03125q0.609375 0.78125 0.609375 2.03125q0 0.96875 -0.359375 1.625q-0.34375 0.65625 -0.890625 1.03125q-0.53125 0.375 -1.09375 0.5q-0.765625 0.15625 -2.203125 0.15625l-1.375 0l0 3.953125l-2.125 0zm2.125 -8.71875l0 2.984375l1.15625 0q1.25 0 1.671875 -0.15625q0.421875 -0.171875 0.65625 -0.515625q0.25 -0.359375 0.25 -0.828125q0 -0.578125 -0.34375 -0.9375q-0.328125 -0.375 -0.84375 -0.46875q-0.375 -0.078125 -1.53125 -0.078125l-1.015625 0z" fill-rule="nonzero"/><path fill="#d9d2e9" d="m575.86615 144.0l60.503906 0l0 32.409454l-60.503906 0z" fill-rule="evenodd"/><path stroke="#000000" stroke-width="3.0" stroke-linejoin="round" stroke-linecap="butt" d="m575.86615 144.0l60.503906 0l0 32.409454l-60.503906 0z" fill-rule="evenodd"/><path fill="#000000" d="m586.83636 165.28473l0 -10.484375l2.109375 0l0 4.125l4.15625 0l0 -4.125l2.109375 0l0 10.484375l-2.109375 0l0 -4.59375l-4.15625 0l0 4.59375l-2.109375 0zm10.568665 0l0 -10.484375l7.78125 0l0 1.765625l-5.65625 0l0 2.328125l5.265625 0l0 1.765625l-5.265625 0l0 2.859375l5.859375 0l0 1.765625l-7.984375 0zm19.244324 0l-2.3125 0l-0.90625 -2.390625l-4.203125 0l-0.859375 2.390625l-2.25 0l4.09375 -10.484375l2.234375 0l4.203125 10.484375zm-3.90625 -4.15625l-1.4375 -3.890625l-1.421875 3.890625l2.859375 0zm5.0217896 4.15625l0 -10.484375l3.40625 0q1.921875 0 2.515625 0.15625q0.90625 0.234375 1.515625 1.03125q0.609375 0.78125 0.609375 2.03125q0 0.96875 -0.359375 1.625q-0.34375 0.65625 -0.890625 1.03125q-0.53125 0.375 -1.09375 0.5q-0.765625 0.15625 -2.203125 0.15625l-1.375 0l0 3.953125l-2.125 0zm2.125 -8.71875l0 2.984375l1.15625 0q1.25 0 1.671875 -0.15625q0.421875 -0.171875 0.65625 -0.515625q0.25 -0.359375 0.25 -0.828125q0 -0.578125 -0.34375 -0.9375q-0.328125 -0.375 -0.84375 -0.46875q-0.375 -0.078125 -1.53125 -0.078125l-1.015625 0z" fill-rule="nonzero"/><path fill="#d9d2e9" d="m809.02625 144.0l60.503967 0l0 32.409454l-60.503967 0z" fill-rule="evenodd"/><path stroke="#000000" stroke-width="3.0" stroke-linejoin="round" stroke-linecap="butt" d="m809.02625 144.0l60.503967 0l0 32.409454l-60.503967 0z" fill-rule="evenodd"/><path fill="#000000" d="m819.99646 165.28473l0 -10.484375l2.109375 0l0 4.125l4.15625 0l0 -4.125l2.109375 0l0 10.484375l-2.109375 0l0 -4.59375l-4.15625 0l0 4.59375l-2.109375 0zm10.568665 0l0 -10.484375l7.78125 0l0 1.765625l-5.65625 0l0 2.328125l5.265625 0l0 1.765625l-5.265625 0l0 2.859375l5.859375 0l0 1.765625l-7.984375 0zm19.244324 0l-2.3125 0l-0.90625 -2.390625l-4.203125 0l-0.859375 2.390625l-2.25 0l4.09375 -10.484375l2.234375 0l4.203125 10.484375zm-3.90625 -4.15625l-1.4375 -3.890625l-1.421875 3.890625l2.859375 0zm5.0217896 4.15625l0 -10.484375l3.40625 0q1.921875 0 2.515625 0.15625q0.90625 0.234375 1.515625 1.03125q0.609375 0.78125 0.609375 2.03125q0 0.96875 -0.359375 1.625q-0.34375 0.65625 -0.890625 1.03125q-0.53125 0.375 -1.09375 0.5q-0.765625 0.15625 -2.203125 0.15625l-1.375 0l0 3.953125l-2.125 0zm2.125 -8.71875l0 2.984375l1.15625 0q1.25 0 1.671875 -0.15625q0.421875 -0.171875 0.65625 -0.515625q0.25 -0.359375 0.25 -0.828125q0 -0.578125 -0.34375 -0.9375q-0.328125 -0.375 -0.84375 -0.46875q-0.375 -0.078125 -1.53125 -0.078125l-1.015625 0z" fill-rule="nonzero"/></g></svg>