<svg version="1.1" viewBox="0.0 0.0 456.9527559055118 213.70866141732284" fill="none" stroke="none" stroke-linecap="square" stroke-miterlimit="10" xmlns:xlink="http://www.w3.org/1999/xlink" xmlns="http://www.w3.org/2000/svg"><clipPath id="p.0"><path d="m0 0l456.95276 0l0 213.70866l-456.95276 0l0 -213.70866z" clip-rule="nonzero"/></clipPath><g clip-path="url(#p.0)"><path fill="#000000" fill-opacity="0.0" d="m0 0l456.95276 0l0 213.70866l-456.95276 0z" fill-rule="evenodd"/><path fill="#ffffff" d="m0.002624672 0l456.9449 0l0 213.70079l-456.9449 0z" fill-rule="evenodd"/><path stroke="#000000" stroke-width="1.0" stroke-linejoin="round" stroke-linecap="butt" d="m0.002624672 0l456.9449 0l0 213.70079l-456.9449 0z" fill-rule="evenodd"/><path fill="#d9d9d9" d="m127.043304 154.85564l202.86615 0l0 51.2126l-202.86615 0z" fill-rule="evenodd"/><path stroke="#000000" stroke-width="2.0" stroke-linejoin="round" stroke-linecap="butt" d="m127.043304 154.85564l202.86615 0l0 51.2126l-202.86615 0z" fill-rule="evenodd"/><path fill="#000000" d="m205.45761 196.67574q0 1.765625 -0.71875 3.015625q-0.703125 1.25 -1.84375 1.890625q-1.140625 0.625 -2.359375 0.625q-1.34375 0 -2.484375 -0.65625q-1.140625 -0.65625 -1.8125 -1.90625q-0.671875 -1.25 -0.671875 -2.9375q0 -1.53125 0.625 -2.8125q0.640625 -1.296875 1.765625 -2.03125q1.140625 -0.75 2.578125 -0.75q1.453125 0 2.578125 0.765625q1.125 0.765625 1.734375 2.03125q0.609375 1.265625 0.609375 2.765625zm-4.921875 3.84375q1.0 0 1.71875 -0.546875q0.734375 -0.5625 1.109375 -1.46875q0.390625 -0.90625 0.390625 -1.90625q0 -0.9375 -0.390625 -1.796875q-0.375 -0.875 -1.109375 -1.40625q-0.734375 -0.546875 -1.75 -0.546875q-0.90625 0 -1.640625 0.53125q-0.734375 0.53125 -1.140625 1.40625q-0.40625 0.859375 -0.40625 1.875q0 1.03125 0.390625 1.921875q0.390625 0.890625 1.125 1.421875q0.75 0.515625 1.703125 0.515625zm10.818756 -7.46875l-1.71875 0l0 5.34375q0 1.109375 0.53125 1.59375q0.53125 0.484375 1.65625 0.484375q1.25 0 1.765625 -0.546875q0.515625 -0.546875 0.515625 -1.859375l0 -5.015625l-1.75 0l0 -1.734375l4.890625 0l0 1.734375l-1.421875 0l0 5.40625q0 0.921875 -0.28125 1.671875q-0.28125 0.734375 -0.796875 1.1875q-0.515625 0.453125 -1.359375 0.671875q-0.828125 0.21875 -1.546875 0.21875q-1.0625 0 -1.78125 -0.25q-0.703125 -0.25 -1.21875 -0.765625q-0.921875 -0.859375 -0.921875 -2.9375l0 -5.203125l-1.453125 0l0 -1.734375l4.890625 0l0 1.734375zm16.428131 2.328125l-1.734375 0l0 -2.328125l-2.265625 0l0 7.203125l2.25 0l0 1.734375l-6.234375 0l0 -1.734375l2.234375 0l0 -7.203125l-2.265625 0l0 2.328125l-1.734375 0l0 -4.0625l9.75 0l0 4.0625zm10.865631 -0.46875q0 1.0 -0.484375 1.78125q-0.46875 0.78125 -1.296875 1.21875q-0.828125 0.4375 -1.828125 0.4375l-2.25 0l0 1.90625l2.265625 0l0 1.734375l-5.453125 0l0 -1.734375l1.46875 0l0 -7.203125l-1.453125 0l0 -1.734375l4.921875 0q1.9375 0 3.015625 0.953125q1.09375 0.953125 1.09375 2.640625zm-1.71875 -0.046875q0 -0.828125 -0.609375 -1.3125q-0.609375 -0.5 -1.78125 -0.5l-1.75 0l0 3.5625l1.9375 0q2.203125 0 2.203125 -1.75zm8.006256 -1.8125l-1.71875 0l0 5.34375q0 1.109375 0.53125 1.59375q0.53125 0.484375 1.65625 0.484375q1.25 0 1.765625 -0.546875q0.515625 -0.546875 0.515625 -1.859375l0 -5.015625l-1.75 0l0 -1.734375l4.890625 0l0 1.734375l-1.421875 0l0 5.40625q0 0.921875 -0.28125 1.671875q-0.28125 0.734375 -0.796875 1.1875q-0.515625 0.453125 -1.359375 0.671875q-0.828125 0.21875 -1.546875 0.21875q-1.0625 0 -1.78125 -0.25q-0.703125 -0.25 -1.21875 -0.765625q-0.921875 -0.859375 -0.921875 -2.9375l0 -5.203125l-1.453125 0l0 -1.734375l4.890625 0l0 1.734375zm16.428131 2.328125l-1.734375 0l0 -2.328125l-2.265625 0l0 7.203125l2.25 0l0 1.734375l-6.234375 0l0 -1.734375l2.234375 0l0 -7.203125l-2.265625 0l0 2.328125l-1.734375 0l0 -4.0625l9.75 0l0 4.0625z" fill-rule="nonzero"/><path fill="#d9d9d9" d="m244.36613 7.64042l202.86613 0l0 51.2126l-202.86613 0z" fill-rule="evenodd"/><path stroke="#000000" stroke-width="2.0" stroke-linejoin="round" stroke-linecap="butt" d="m244.36613 7.64042l202.86613 0l0 51.2126l-202.86613 0z" fill-rule="evenodd"/><path fill="#000000" d="m288.3554 18.029167q0 1.125 -0.640625 1.890625q-0.625 0.765625 -1.84375 1.0625l2.15625 2.84375l1.390625 0l0 1.734375l-2.5 0q-0.421875 -0.953125 -1.125 -1.921875l-1.671875 -2.3125l-1.4375 0l0 2.5l1.375 0l0 1.734375l-4.5625 0l0 -1.734375l1.46875 0l0 -7.203125l-1.390625 0l0 -1.734374l5.328125 0q1.78125 0 2.609375 0.921875q0.84375 0.90624905 0.84375 2.218749zm-1.703125 0.015625q0 -0.71875 -0.40625 -1.0625q-0.40625 -0.359375 -1.171875 -0.359375l-2.390625 0l0 2.96875l1.796875 0q1.09375 0 1.625 -0.375q0.546875 -0.390625 0.546875 -1.171875zm12.725006 -1.421875l-3.015625 0l0 7.203125l3.015625 0l0 1.734375l-7.875 0l0 -1.734375l3.078125 0l0 -7.203125l-3.078125 0l0 -1.734374l7.875 0l0 1.734374zm10.178131 -1.078124l0 -0.859375l1.734375 0l0 4.359374l-1.734375 0l0 -1.71875q-0.875 -0.546875 -1.453125 -0.734375q-0.5625 -0.203125 -1.21875 -0.203125q-0.9375 0 -1.703125 0.484375q-0.765625 0.484375 -1.203125 1.375q-0.4375 0.875 -0.4375 2.046875q0 1.78125 0.921875 2.78125q0.921875 0.984375 2.6875 0.984375q0.59375 0 0.96875 -0.03125q0.390625 -0.046875 1.28125 -0.28125l0 -1.65625l-2.640625 0l0 -1.734375l5.171875 0l0 1.734375l-0.828125 0l0 2.734375q-2.328125 0.953125 -3.953125 0.953125q-1.515625 0 -2.734375 -0.671875q-1.21875 -0.671875 -1.921875 -1.890625q-0.703125 -1.21875 -0.703125 -2.84375q0 -1.65625 0.65625 -2.953125q0.671875 -1.296875 1.828125 -2.015624q1.15625 -0.71875 2.59375 -0.71875q0.765625 0 1.359375 0.1875q0.59375 0.1875 1.328125 0.671875zm7.740631 1.078124l-1.484375 0l0 2.578125l4.078125 0l0 -2.578125l-1.453125 0l0 -1.734374l4.578125 0l0 1.734374l-1.40625 0l0 7.203125l1.40625 0l0 1.734375l-4.578125 0l0 -1.734375l1.453125 0l0 -2.890625l-4.078125 0l0 2.890625l1.484375 0l0 1.734375l-4.609375 0l0 -1.734375l1.421875 0l0 -7.203125l-1.421875 0l0 -1.734374l4.609375 0l0 1.734374zm16.615631 2.328125l-1.734375 0l0 -2.328125l-2.265625 0l0 7.203125l2.25 0l0 1.734375l-6.234375 0l0 -1.734375l2.234375 0l0 -7.203125l-2.265625 0l0 2.328125l-1.734375 0l0 -4.062499l9.75 0l0 4.062499zm16.465637 -2.328125l-1.4375 0l2.609375 6.6875l2.53125 -6.6875l-1.671875 0l0 -1.734374l4.609375 0l0 1.734374l-1.25 0l-3.390625 8.9375l-1.734375 0l-3.484375 -8.9375l-1.375 0l0 -1.734374l4.59375 0l0 1.734374zm16.693756 7.203125l1.046875 0l0 1.734375l-4.359375 0l0 -1.734375l1.5625 0l-0.546875 -1.265625l-4.328125 0l-0.546875 1.265625l1.609375 0l0 1.734375l-4.4375 0l0 -1.734375l1.09375 0l3.046875 -7.203125l-2.296875 0l0 -1.734374l4.5 0l3.65625 8.937499zm-2.984375 -3.0l-1.453125 -3.453125l-1.46875 3.453125l2.921875 0zm10.771912 -4.203125l-2.234375 0l0 7.203125l4.234375 0l0 -3.28125l1.734375 0l0 5.015625l-9.4531555 0l0 -1.734375l1.765625 0l0 -7.203125l-1.765625 0l0 -1.734374l5.7187805 0l0 1.734374zm9.787506 0l-1.71875 0l0 5.34375q0 1.109375 0.53125 1.59375q0.53125 0.484375 1.65625 0.484375q1.25 0 1.765625 -0.546875q0.515625 -0.546875 0.515625 -1.859375l0 -5.015625l-1.75 0l0 -1.734374l4.890625 0l0 1.734374l-1.421875 0l0 5.40625q0 0.921875 -0.28125 1.671875q-0.28125 0.734375 -0.796875 1.1875q-0.515625 0.453125 -1.359375 0.671875q-0.828125 0.21875 -1.546875 0.21875q-1.0625 0 -1.78125 -0.25q-0.703125 -0.25 -1.21875 -0.765625q-0.921875 -0.859375 -0.921875 -2.9375l0 -5.203125l-1.453125 0l0 -1.734374l4.890625 0l0 1.734374zm16.209381 2.21875l-1.734375 0l0 -2.21875l-4.46875 0l0 2.65625l1.984375 0l0 -1.234375l1.734375 0l0 4.171875l-1.734375 0l0 -1.234375l-1.984375 0l0 2.84375l4.46875 0l0 -2.171875l1.734375 0l0 3.90625l-9.390625 0l0 -1.734375l1.484375 0l0 -7.203125l-1.4375 0l0 -1.734374l9.34375 0l0 3.953124zm8.740631 -3.734374l0 -0.421875l1.71875 0l0 4.015624l-1.71875 0l0 -1.796875q-1.09375 -0.5 -2.03125 -0.5q-1.015625 0 -1.703125 0.5q-0.671875 0.5 -0.671875 1.1875q0 0.609375 0.390625 0.921875q0.390625 0.296875 0.953125 0.40625q0.5625 0.109375 1.5625 0.203125l0.71875 0.078125q1.34375 0.171875 2.109375 0.875q0.765625 0.6875 0.765625 1.921875q0 0.984375 -0.5625 1.734375q-0.546875 0.75 -1.515625 1.171875q-0.953125 0.40625 -2.15625 0.40625q-0.65625 0 -1.25 -0.15625q-0.59375 -0.15625 -1.34375 -0.515625l0 0.671875l-1.71875 0l0 -3.90625l1.71875 0l0 1.421875q1.265625 0.765625 2.609375 0.765625q1.21875 0 1.875 -0.40625q0.65625 -0.421875 0.65625 -1.1875q0 -0.65625 -0.515625 -0.953125q-0.515625 -0.296875 -1.765625 -0.3125q-2.09375 -0.03125 -3.1875 -0.890625q-1.09375 -0.859375 -1.09375 -2.25q0 -0.875 0.515625 -1.65625q0.515625 -0.79687405 1.4375 -1.265624q0.921875 -0.484375 2.109375 -0.484375q1.15625 0 2.09375 0.421875z" fill-rule="nonzero"/><path fill="#d9d9d9" d="m9.720472 7.64042l202.86613 0l0 51.2126l-202.86613 0z" fill-rule="evenodd"/><path stroke="#000000" stroke-width="2.0" stroke-linejoin="round" stroke-linecap="butt" d="m9.720472 7.64042l202.86613 0l0 51.2126l-202.86613 0z" fill-rule="evenodd"/><path fill="#000000" d="m56.259758 16.622917l-2.234375 0l0 7.203125l4.234375 0l0 -3.28125l1.734375 0l0 5.015625l-9.453125 0l0 -1.734375l1.765625 0l0 -7.203125l-1.765625 0l0 -1.734374l5.71875 0l0 1.734374zm14.803131 2.21875l-1.734375 0l0 -2.21875l-4.46875 0l0 2.65625l1.984375 0l0 -1.234375l1.734375 0l0 4.171875l-1.734375 0l0 -1.234375l-1.984375 0l0 2.84375l4.46875 0l0 -2.171875l1.734375 0l0 3.90625l-9.390625 0l0 -1.734375l1.484375 0l0 -7.203125l-1.4375 0l0 -1.734374l9.34375 0l0 3.953124zm11.318756 -0.015625l-1.734375 0l0 -2.203125l-4.375 0l0 2.671875l1.984375 0l0 -1.234375l1.71875 0l0 4.171875l-1.71875 0l0 -1.203125l-1.984375 0l0 2.796875l2.28125 0l0 1.734375l-5.40625 0l0 -1.734375l1.40625 0l0 -7.203125l-1.390625 0l0 -1.734374l9.21875 0l0 3.937499zm11.287506 0.125l-1.734375 0l0 -2.328125l-2.265625 0l0 7.203125l2.25 0l0 1.734375l-6.234375 0l0 -1.734375l2.234375 0l0 -7.203125l-2.265625 0l0 2.328125l-1.734375 0l0 -4.062499l9.75 0l0 4.062499zm16.465637 -2.328125l-1.4375 0l2.609375 6.6875l2.53125 -6.6875l-1.671875 0l0 -1.734374l4.609375 0l0 1.734374l-1.25 0l-3.390625 8.9375l-1.734375 0l-3.484375 -8.9375l-1.375 0l0 -1.734374l4.59375 0l0 1.734374zm16.693756 7.203125l1.046875 0l0 1.734375l-4.359375 0l0 -1.734375l1.5625 0l-0.546875 -1.265625l-4.328125 0l-0.546875 1.265625l1.609375 0l0 1.734375l-4.4375 0l0 -1.734375l1.09375 0l3.046875 -7.203125l-2.296875 0l0 -1.734374l4.5 0l3.65625 8.937499zm-2.984375 -3.0l-1.453125 -3.453125l-1.46875 3.453125l2.921875 0zm10.771873 -4.203125l-2.234375 0l0 7.203125l4.234375 0l0 -3.28125l1.734375 0l0 5.015625l-9.453125 0l0 -1.734375l1.765625 0l0 -7.203125l-1.765625 0l0 -1.734374l5.71875 0l0 1.734374zm9.787506 0l-1.71875 0l0 5.34375q0 1.109375 0.53125 1.59375q0.53125 0.484375 1.65625 0.484375q1.25 0 1.765625 -0.546875q0.515625 -0.546875 0.515625 -1.859375l0 -5.015625l-1.75 0l0 -1.734374l4.890625 0l0 1.734374l-1.421875 0l0 5.40625q0 0.921875 -0.28125 1.671875q-0.28125 0.734375 -0.796875 1.1875q-0.515625 0.453125 -1.359375 0.671875q-0.828125 0.21875 -1.546875 0.21875q-1.0625 0 -1.78125 -0.25q-0.703125 -0.25 -1.21875 -0.765625q-0.921875 -0.859375 -0.921875 -2.9375l0 -5.203125l-1.453125 0l0 -1.734374l4.890625 0l0 1.734374zm16.209381 2.21875l-1.734375 0l0 -2.21875l-4.46875 0l0 2.65625l1.984375 0l0 -1.234375l1.734375 0l0 4.171875l-1.734375 0l0 -1.234375l-1.984375 0l0 2.84375l4.46875 0l0 -2.171875l1.734375 0l0 3.90625l-9.390625 0l0 -1.734375l1.484375 0l0 -7.203125l-1.4375 0l0 -1.734374l9.34375 0l0 3.953124zm8.740631 -3.734374l0 -0.421875l1.71875 0l0 4.015624l-1.71875 0l0 -1.796875q-1.09375 -0.5 -2.03125 -0.5q-1.015625 0 -1.703125 0.5q-0.671875 0.5 -0.671875 1.1875q0 0.609375 0.390625 0.921875q0.390625 0.296875 0.953125 0.40625q0.5625 0.109375 1.5625 0.203125l0.71875 0.078125q1.34375 0.171875 2.109375 0.875q0.765625 0.6875 0.765625 1.921875q0 0.984375 -0.5625 1.734375q-0.546875 0.75 -1.515625 1.171875q-0.953125 0.40625 -2.15625 0.40625q-0.65625 0 -1.25 -0.15625q-0.59375 -0.15625 -1.34375 -0.515625l0 0.671875l-1.71875 0l0 -3.90625l1.71875 0l0 1.421875q1.265625 0.765625 2.609375 0.765625q1.21875 0 1.875 -0.40625q0.65625 -0.421875 0.65625 -1.1875q0 -0.65625 -0.515625 -0.953125q-0.515625 -0.296875 -1.765625 -0.3125q-2.09375 -0.03125 -3.1875 -0.890625q-1.09375 -0.859375 -1.09375 -2.25q0 -0.875 0.515625 -1.65625q0.515625 -0.79687405 1.4375 -1.265624q0.921875 -0.484375 2.109375 -0.484375q1.15625 0 2.09375 0.421875z" fill-rule="nonzero"/><path fill="#d9d2e9" d="m14.8044615 30.055119l47.937008 0l0 24.0l-47.937008 0z" fill-rule="evenodd"/><path stroke="#000000" stroke-width="2.0" stroke-linejoin="round" stroke-linecap="butt" d="m14.8044615 30.055119l47.937008 0l0 24.0l-47.937008 0z" fill-rule="evenodd"/><path fill="#000000" d="m43.25421 47.24074l1.046875 0l0 1.734375l-4.359375 0l0 -1.734375l1.5625 0l-0.546875 -1.265625l-4.328125 0l-0.546875 1.265625l1.609375 0l0 1.734375l-4.4375 0l0 -1.734375l1.09375 0l3.046875 -7.203125l-2.296875 0l0 -1.734375l4.5 0l3.65625 8.9375zm-2.984375 -3.0l-1.453125 -3.453125l-1.46875 3.453125l2.921875 0z" fill-rule="nonzero"/><path fill="#d9d2e9" d="m62.751896 30.055119l47.937008 0l0 24.0l-47.937008 0z" fill-rule="evenodd"/><path stroke="#000000" stroke-width="2.0" stroke-linejoin="round" stroke-linecap="butt" d="m62.751896 30.055119l47.937008 0l0 24.0l-47.937008 0z" fill-rule="evenodd"/><path fill="#000000" d="m90.84227 41.20949q0 0.640625 -0.28125 1.203125q-0.265625 0.5625 -0.78125 0.96875q0.984375 0.5625 1.34375 1.1875q0.359375 0.625 0.359375 1.390625q0 0.875 -0.46875 1.5625q-0.453125 0.6875 -1.234375 1.078125q-0.78125 0.375 -1.765625 0.375l-6.21875 0l0 -1.734375l1.453125 0l0 -7.203125l-1.453125 0l0 -1.734375l5.5 0q1.609375 0 2.578125 0.8125q0.96875 0.8125 0.96875 2.09375zm-1.703125 0.0625q0 -0.546875 -0.453125 -0.890625q-0.453125 -0.34375 -1.1875 -0.34375l-2.53125 0l0 2.5625l2.421875 0q0.71875 0 1.234375 -0.34375q0.515625 -0.359375 0.515625 -0.984375zm0.625 4.5625q0 -0.734375 -0.65625 -1.109375q-0.65625 -0.390625 -1.890625 -0.390625l-2.25 0l0 2.90625l3.09375 0q0.671875 0 1.1875 -0.375q0.515625 -0.375 0.515625 -1.03125z" fill-rule="nonzero"/><path fill="#d9d2e9" d="m110.699326 30.055119l47.93701 0l0 24.0l-47.93701 0z" fill-rule="evenodd"/><path stroke="#000000" stroke-width="2.0" stroke-linejoin="round" stroke-linecap="butt" d="m110.699326 30.055119l47.93701 0l0 24.0l-47.93701 0z" fill-rule="evenodd"/><path fill="#000000" d="m137.88345 38.881367l0 -0.78125l1.703125 0l0 4.34375l-1.703125 0l0 -1.765625q-1.390625 -0.875 -2.734375 -0.875q-0.890625 0 -1.671875 0.453125q-0.765625 0.453125 -1.234375 1.3125q-0.46875 0.859375 -0.46875 2.03125q0 1.75 0.90625 2.8125q0.90625 1.0625 2.515625 1.0625q0.796875 0 1.671875 -0.296875q0.890625 -0.3125 1.734375 -0.90625l1.046875 1.265625q-0.796875 0.75 -2.125 1.203125q-1.328125 0.453125 -2.296875 0.453125q-2.390625 0 -3.859375 -1.71875q-0.625 -0.703125 -0.984375 -1.796875q-0.34375 -1.09375 -0.34375 -2.09375q0 -1.5625 0.671875 -2.8125q0.671875 -1.25 1.828125 -1.953125q1.15625 -0.71875 2.59375 -0.71875q0.78125 0 1.5 0.21875q0.734375 0.203125 1.25 0.5625z" fill-rule="nonzero"/><path fill="#d9d2e9" d="m158.64676 30.055119l47.93701 0l0 24.0l-47.93701 0z" fill-rule="evenodd"/><path stroke="#000000" stroke-width="2.0" stroke-linejoin="round" stroke-linecap="butt" d="m158.64676 30.055119l47.93701 0l0 24.0l-47.93701 0z" fill-rule="evenodd"/><path fill="#000000" d="m187.51839 43.42824q0 2.75 -1.34375 4.15625q-1.34375 1.390625 -3.78125 1.390625l-4.890625 0l0 -1.734375l1.46875 0l0 -7.203125l-1.46875 0l0 -1.734375l5.375 0q1.484375 0 2.53125 0.671875q1.046875 0.65625 1.578125 1.8125q0.53125 1.15625 0.53125 2.640625zm-1.71875 0.078125q0 -1.65625 -0.78125 -2.5625q-0.78125 -0.90625 -2.140625 -0.90625l-2.1875 0l0 7.203125l2.0625 0q1.265625 0 2.15625 -0.875q0.890625 -0.875 0.890625 -2.859375z" fill-rule="nonzero"/><path fill="#d9d2e9" d="m249.76509 30.055119l47.936996 0l0 24.0l-47.936996 0z" fill-rule="evenodd"/><path stroke="#000000" stroke-width="2.0" stroke-linejoin="round" stroke-linecap="butt" d="m249.76509 30.055119l47.936996 0l0 24.0l-47.936996 0z" fill-rule="evenodd"/><path fill="#000000" d="m272.3711 40.037617l-1.71875 0l0.65625 5.34375l1.859375 -5.09375l1.234375 0l1.890625 5.046875l0.625 -5.296875l-1.734375 0l0 -1.734375l4.265625 0l0 1.734375l-0.890625 0l-1.203125 8.9375l-1.453125 0l-2.15625 -5.59375l-2.109375 5.59375l-1.46875 0l-1.1875 -8.9375l-0.875 0l0 -1.734375l4.265625 0l0 1.734375z" fill-rule="nonzero"/><path fill="#d9d2e9" d="m297.71252 30.055119l47.93701 0l0 24.0l-47.93701 0z" fill-rule="evenodd"/><path stroke="#000000" stroke-width="2.0" stroke-linejoin="round" stroke-linecap="butt" d="m297.71252 30.055119l47.93701 0l0 24.0l-47.93701 0z" fill-rule="evenodd"/><path fill="#000000" d="m321.1154 40.037617l-0.96875 0l1.59375 2.046875l1.546875 -2.046875l-0.828125 0l0 -1.734375l4.015625 0l0 1.734375l-1.234375 0l-2.546875 3.359375l2.921875 3.84375l1.203125 0l0 1.734375l-4.328125 0l0 -1.734375l1.109375 0l-1.921875 -2.5625l-1.96875 2.5625l1.4375 0l0 1.734375l-4.59375 0l0 -1.734375l1.1875 0l2.96875 -3.84375l-2.59375 -3.359375l-1.25 0l0 -1.734375l4.25 0l0 1.734375z" fill-rule="nonzero"/><path fill="#d9d2e9" d="m345.65994 30.055119l47.93701 0l0 24.0l-47.93701 0z" fill-rule="evenodd"/><path stroke="#000000" stroke-width="2.0" stroke-linejoin="round" stroke-linecap="butt" d="m345.65994 30.055119l47.93701 0l0 24.0l-47.93701 0z" fill-rule="evenodd"/><path fill="#000000" d="m368.81284 40.037617l-0.96875 0l1.875 3.15625l1.90625 -3.15625l-1.015625 0l0 -1.734375l4.296875 0l0 1.734375l-1.4375 0l-2.90625 4.8125l0 2.390625l2.21875 0l0 1.734375l-6.21875 0l0 -1.734375l2.265625 0l0 -2.390625l-2.90625 -4.8125l-1.40625 0l0 -1.734375l4.296875 0l0 1.734375z" fill-rule="nonzero"/><path fill="#d9d2e9" d="m393.6074 30.055119l47.93701 0l0 24.0l-47.93701 0z" fill-rule="evenodd"/><path stroke="#000000" stroke-width="2.0" stroke-linejoin="round" stroke-linecap="butt" d="m393.6074 30.055119l47.93701 0l0 24.0l-47.93701 0z" fill-rule="evenodd"/><path fill="#000000" d="m421.40088 39.537617l-5.6875 7.703125l4.375 0l0 -2.625l1.71875 0l0 4.359375l-8.40625 0l0 -1.328125l5.609375 -7.609375l-3.828125 0l0 2.359375l-1.703125 0l0 -4.09375l7.921875 0l0 1.234375z" fill-rule="nonzero"/><path fill="#d9d2e9" d="m132.28477 159.69817l47.93701 0l0 24.0l-47.93701 0z" fill-rule="evenodd"/><path stroke="#000000" stroke-width="2.0" stroke-linejoin="round" stroke-linecap="butt" d="m132.28477 159.69817l47.93701 0l0 24.0l-47.93701 0z" fill-rule="evenodd"/><path fill="#000000" d="m149.54077 176.88379l1.046875 0l0 1.734375l-4.359375 0l0 -1.734375l1.5625 0l-0.546875 -1.265625l-4.328125 0l-0.546875 1.265625l1.609375 0l0 1.734375l-4.4375 0l0 -1.734375l1.09375 0l3.046875 -7.203125l-2.296875 0l0 -1.734375l4.5 0l3.65625 8.9375zm-2.984375 -3.0l-1.453125 -3.453125l-1.46875 3.453125l2.921875 0zm10.568756 -0.25l3.171875 0l0 1.734375l-3.171875 0l0 3.1875l-1.734375 0l0 -3.1875l-3.171875 0l0 -1.734375l3.171875 0l0 -3.1875l1.734375 0l0 3.1875zm8.959381 -3.953125l-1.71875 0l0.65625 5.34375l1.859375 -5.09375l1.234375 0l1.890625 5.046875l0.625 -5.296875l-1.734375 0l0 -1.734375l4.265625 0l0 1.734375l-0.890625 0l-1.203125 8.9375l-1.453125 0l-2.15625 -5.59375l-2.109375 5.59375l-1.46875 0l-1.1875 -8.9375l-0.875 0l0 -1.734375l4.265625 0l0 1.734375z" fill-rule="nonzero"/><path fill="#d9d2e9" d="m180.23221 159.69817l47.93701 0l0 24.0l-47.93701 0z" fill-rule="evenodd"/><path stroke="#000000" stroke-width="2.0" stroke-linejoin="round" stroke-linecap="butt" d="m180.23221 159.69817l47.93701 0l0 24.0l-47.93701 0z" fill-rule="evenodd"/><path fill="#000000" d="m197.12883 170.85254q0 0.640625 -0.28125 1.203125q-0.265625 0.5625 -0.78125 0.96875q0.984375 0.5625 1.34375 1.1875q0.359375 0.625 0.359375 1.390625q0 0.875 -0.46875 1.5625q-0.453125 0.6875 -1.234375 1.078125q-0.78125 0.375 -1.765625 0.375l-6.21875 0l0 -1.734375l1.453125 0l0 -7.203125l-1.453125 0l0 -1.734375l5.5 0q1.609375 0 2.578125 0.8125q0.96875 0.8125 0.96875 2.09375zm-1.703125 0.0625q0 -0.546875 -0.453125 -0.890625q-0.453125 -0.34375 -1.1875 -0.34375l-2.53125 0l0 2.5625l2.421875 0q0.71875 0 1.234375 -0.34375q0.515625 -0.359375 0.515625 -0.984375zm0.625 4.5625q0 -0.734375 -0.65625 -1.109375q-0.65625 -0.390625 -1.890625 -0.390625l-2.25 0l0 2.90625l3.09375 0q0.671875 0 1.1875 -0.375q0.515625 -0.375 0.515625 -1.03125zm9.021881 -1.84375l3.171875 0l0 1.734375l-3.171875 0l0 3.1875l-1.734375 0l0 -3.1875l-3.171875 0l0 -1.734375l3.171875 0l0 -3.1875l1.734375 0l0 3.1875zm9.756256 -3.953125l-0.96875 0l1.59375 2.046875l1.546875 -2.046875l-0.828125 0l0 -1.734375l4.015625 0l0 1.734375l-1.234375 0l-2.546875 3.359375l2.921875 3.84375l1.203125 0l0 1.734375l-4.328125 0l0 -1.734375l1.109375 0l-1.921875 -2.5625l-1.96875 2.5625l1.4375 0l0 1.734375l-4.59375 0l0 -1.734375l1.1875 0l2.96875 -3.84375l-2.59375 -3.359375l-1.25 0l0 -1.734375l4.25 0l0 1.734375z" fill-rule="nonzero"/><path fill="#d9d2e9" d="m228.17964 159.69817l47.936996 0l0 24.0l-47.936996 0z" fill-rule="evenodd"/><path stroke="#000000" stroke-width="2.0" stroke-linejoin="round" stroke-linecap="butt" d="m228.17964 159.69817l47.936996 0l0 24.0l-47.936996 0z" fill-rule="evenodd"/><path fill="#000000" d="m244.17001 168.52441l0 -0.78125l1.703125 0l0 4.34375l-1.703125 0l0 -1.765625q-1.390625 -0.875 -2.734375 -0.875q-0.890625 0 -1.671875 0.453125q-0.765625 0.453125 -1.234375 1.3125q-0.46875 0.859375 -0.46875 2.03125q0 1.75 0.90625 2.8125q0.90625 1.0625 2.515625 1.0625q0.796875 0 1.671875 -0.296875q0.890625 -0.3125 1.734375 -0.90625l1.046875 1.265625q-0.796875 0.75 -2.125 1.203125q-1.328125 0.453125 -2.296875 0.453125q-2.390625 0 -3.859375 -1.71875q-0.625 -0.703125 -0.984375 -1.796875q-0.34375 -1.09375 -0.34375 -2.09375q0 -1.5625 0.671875 -2.8125q0.671875 -1.25 1.828125 -1.953125q1.15625 -0.71875 2.59375 -0.71875q0.78125 0 1.5 0.21875q0.734375 0.203125 1.25 0.5625zm8.850006 5.109375l3.171875 0l0 1.734375l-3.171875 0l0 3.1875l-1.734375 0l0 -3.1875l-3.171875 0l0 -1.734375l3.171875 0l0 -3.1875l1.734375 0l0 3.1875zm9.506256 -3.953125l-0.96875 0l1.875 3.15625l1.90625 -3.15625l-1.015625 0l0 -1.734375l4.296875 0l0 1.734375l-1.4375 0l-2.90625 4.8125l0 2.390625l2.21875 0l0 1.734375l-6.21875 0l0 -1.734375l2.265625 0l0 -2.390625l-2.90625 -4.8125l-1.40625 0l0 -1.734375l4.296875 0l0 1.734375z" fill-rule="nonzero"/><path fill="#d9d2e9" d="m276.12708 159.69817l47.93701 0l0 24.0l-47.93701 0z" fill-rule="evenodd"/><path stroke="#000000" stroke-width="2.0" stroke-linejoin="round" stroke-linecap="butt" d="m276.12708 159.69817l47.93701 0l0 24.0l-47.93701 0z" fill-rule="evenodd"/><path fill="#000000" d="m293.80493 173.07129q0 2.75 -1.34375 4.15625q-1.34375 1.390625 -3.78125 1.390625l-4.890625 0l0 -1.734375l1.46875 0l0 -7.203125l-1.46875 0l0 -1.734375l5.375 0q1.484375 0 2.53125 0.671875q1.046875 0.65625 1.578125 1.8125q0.53125 1.15625 0.53125 2.640625zm-1.71875 0.078125q0 -1.65625 -0.78125 -2.5625q-0.78125 -0.90625 -2.140625 -0.90625l-2.1875 0l0 7.203125l2.0625 0q1.265625 0 2.15625 -0.875q0.890625 -0.875 0.890625 -2.859375zm8.881256 0.484375l3.171875 0l0 1.734375l-3.171875 0l0 3.1875l-1.734375 0l0 -3.1875l-3.171875 0l0 -1.734375l3.171875 0l0 -3.1875l1.734375 0l0 3.1875zm14.146881 -4.453125l-5.6875 7.703125l4.375 0l0 -2.625l1.71875 0l0 4.359375l-8.40625 0l0 -1.328125l5.609375 -7.609375l-3.828125 0l0 2.359375l-1.703125 0l0 -4.09375l7.921875 0l0 1.234375z" fill-rule="nonzero"/><path fill="#d9d9d9" d="m144.25328 109.3937l24.0 0l0 23.04l-12.0 5.7599945l-12.0 -5.7599945z" fill-rule="evenodd"/><path stroke="#000000" stroke-width="2.0" stroke-linejoin="round" stroke-linecap="butt" d="m144.25328 109.3937l24.0 0l0 23.04l-12.0 5.7599945l-12.0 -5.7599945z" fill-rule="evenodd"/><path fill="#000000" d="m154.14673 129.4762l0 -6.203125l-6.234375 0l0 -4.265625l6.234375 0l0 -6.203125l4.171875 0l0 6.203125l6.265625 0l0 4.265625l-6.265625 0l0 6.203125l-4.171875 0z" fill-rule="nonzero"/><path fill="#000000" fill-opacity="0.0" d="m273.73358 54.05512c0 13.834644 -29.370071 20.751965 -58.740143 27.669292c-29.370087 6.9173203 -58.740158 13.8346405 -58.740158 27.669289" fill-rule="evenodd"/><path stroke="#000000" stroke-width="2.0" stroke-linejoin="round" stroke-linecap="butt" d="m273.73358 54.05512c0 13.834644 -29.370071 20.751965 -58.740143 27.669292c-14.685043 3.4586563 -29.370087 6.9173203 -40.383865 11.240646c-2.7534332 1.0808334 -5.2774353 2.2157059 -7.5146027 3.4181366c-1.1185913 0.60121155 -2.1654663 1.2193146 -3.133484 1.8559875c-0.2420044 0.15916443 -0.47906494 0.31949615 -0.7110901 0.48101044c-0.11602783 0.08076477 -0.23078918 0.16181946 -0.34425354 0.24317169l-0.32337952 0.23535156" fill-rule="evenodd"/><path fill="#000000" stroke="#000000" stroke-width="2.0" stroke-linecap="butt" d="m159.7762 97.45628l-1.9807434 9.453407l7.593872 -5.968544z" fill-rule="evenodd"/><path fill="#000000" fill-opacity="0.0" d="m38.772964 54.05512c0 13.834644 29.370079 20.751965 58.740158 27.669292c29.370079 6.9173203 58.740158 13.8346405 58.740158 27.669289" fill-rule="evenodd"/><path stroke="#000000" stroke-width="2.0" stroke-linejoin="round" stroke-linecap="butt" d="m38.772964 54.05512c0 13.834644 29.370079 20.751965 58.740158 27.669292c14.685043 3.4586563 29.370079 6.9173203 40.383865 11.240646c2.7534332 1.0808334 5.2774353 2.2157059 7.5146027 3.4181366c1.1185913 0.60121155 2.1654663 1.2193146 3.133484 1.8559875c0.2420044 0.15916443 0.47906494 0.31949615 0.7110901 0.48101044c0.11602783 0.08076477 0.23078918 0.16181946 0.34425354 0.24317169l0.32337952 0.23535156" fill-rule="evenodd"/><path fill="#000000" stroke="#000000" stroke-width="2.0" stroke-linecap="butt" d="m147.11723 100.94115l7.593872 5.968544l-1.9807434 -9.453407z" fill-rule="evenodd"/><path fill="#000000" fill-opacity="0.0" d="m156.25328 138.1937l0 21.51181" fill-rule="evenodd"/><path stroke="#000000" stroke-width="2.0" stroke-linejoin="round" stroke-linecap="butt" d="m156.25328 138.19371l0 9.51181" fill-rule="evenodd"/><path fill="#000000" stroke="#000000" stroke-width="2.0" stroke-linecap="butt" d="m152.94981 147.70552l3.3034668 9.076187l3.3034668 -9.076187z" fill-rule="evenodd"/><path fill="#d9d9d9" d="m192.20079 109.3937l24.0 0l0 23.04l-12.0 5.7599945l-12.0 -5.7599945z" fill-rule="evenodd"/><path stroke="#000000" stroke-width="2.0" stroke-linejoin="round" stroke-linecap="butt" d="m192.20079 109.3937l24.0 0l0 23.04l-12.0 5.7599945l-12.0 -5.7599945z" fill-rule="evenodd"/><path fill="#000000" d="m202.09424 129.4762l0 -6.203125l-6.234375 0l0 -4.265625l6.234375 0l0 -6.203125l4.171875 0l0 6.203125l6.265625 0l0 4.265625l-6.265625 0l0 6.203125l-4.171875 0z" fill-rule="nonzero"/><path fill="#d9d9d9" d="m240.1483 109.3937l23.999985 0l0 23.04l-11.999985 5.7599945l-12.0 -5.7599945z" fill-rule="evenodd"/><path stroke="#000000" stroke-width="2.0" stroke-linejoin="round" stroke-linecap="butt" d="m240.1483 109.3937l23.999985 0l0 23.04l-11.999985 5.7599945l-12.0 -5.7599945z" fill-rule="evenodd"/><path fill="#000000" d="m250.04175 129.4762l0 -6.203125l-6.234375 0l0 -4.265625l6.234375 0l0 -6.203125l4.171875 0l0 6.203125l6.265625 0l0 4.265625l-6.265625 0l0 6.203125l-4.171875 0z" fill-rule="nonzero"/><path fill="#d9d9d9" d="m288.0958 109.3937l24.0 0l0 23.04l-12.0 5.7599945l-12.0 -5.7599945z" fill-rule="evenodd"/><path stroke="#000000" stroke-width="2.0" stroke-linejoin="round" stroke-linecap="butt" d="m288.0958 109.3937l24.0 0l0 23.04l-12.0 5.7599945l-12.0 -5.7599945z" fill-rule="evenodd"/><path fill="#000000" d="m297.98926 129.4762l0 -6.203125l-6.234375 0l0 -4.265625l6.234375 0l0 -6.203125l4.171875 0l0 6.203125l6.265625 0l0 4.265625l-6.265625 0l0 6.203125l-4.171875 0z" fill-rule="nonzero"/><path fill="#000000" fill-opacity="0.0" d="m86.7204 54.05512c0 13.834644 29.370079 20.751965 58.740158 27.669292c29.370071 6.9173203 58.740158 13.8346405 58.740158 27.669289" fill-rule="evenodd"/><path stroke="#000000" stroke-width="2.0" stroke-linejoin="round" stroke-linecap="butt" d="m86.7204 54.05512c0 13.834644 29.370079 20.751965 58.740158 27.669292c14.685028 3.4586563 29.370071 6.9173203 40.38385 11.240646c2.7534485 1.0808334 5.2774353 2.2157059 7.514618 3.4181366c1.1185913 0.60121155 2.1654663 1.2193146 3.1334686 1.8559875c0.2420044 0.15916443 0.47906494 0.31949615 0.71110535 0.48101044c0.11601257 0.08076477 0.23075867 0.16181946 0.3442688 0.24317169l0.32336426 0.23535156" fill-rule="evenodd"/><path fill="#000000" stroke="#000000" stroke-width="2.0" stroke-linecap="butt" d="m195.06467 100.94115l7.593857 5.968544l-1.9807281 -9.453407z" fill-rule="evenodd"/><path fill="#000000" fill-opacity="0.0" d="m134.66783 54.05512c0 13.834644 29.370071 20.751965 58.740158 27.669292c29.370071 6.9173203 58.740158 13.8346405 58.740158 27.669289" fill-rule="evenodd"/><path stroke="#000000" stroke-width="2.0" stroke-linejoin="round" stroke-linecap="butt" d="m134.66783 54.05512c0 13.834644 29.370087 20.751965 58.740158 27.669292c14.685043 3.4586563 29.370087 6.9173203 40.383865 11.240646c2.7534485 1.0808334 5.2774353 2.2157059 7.514618 3.4181366c1.118576 0.60121155 2.165451 1.2193146 3.1334686 1.8559875c0.2420044 0.15916443 0.47906494 0.31949615 0.71110535 0.48101044c0.11601257 0.08076477 0.23075867 0.16181946 0.34425354 0.24317169l0.32336426 0.23535156" fill-rule="evenodd"/><path fill="#000000" stroke="#000000" stroke-width="2.0" stroke-linecap="butt" d="m243.01212 100.94115l7.593857 5.968544l-1.9807281 -9.453407z" fill-rule="evenodd"/><path fill="#000000" fill-opacity="0.0" d="m182.61526 54.05512c0 13.834644 29.370071 20.751965 58.740158 27.669292c29.370071 6.9173203 58.740158 13.8346405 58.740158 27.669289" fill-rule="evenodd"/><path stroke="#000000" stroke-width="2.0" stroke-linejoin="round" stroke-linecap="butt" d="m182.61526 54.05512c0 13.834644 29.370071 20.751965 58.740158 27.669292c14.685043 3.4586563 29.370071 6.9173203 40.383865 11.240646c2.753418 1.0808334 5.2774353 2.2157059 7.514618 3.4181366c1.1185608 0.60121155 2.1654358 1.2193146 3.1334534 1.8559875c0.2420044 0.15916443 0.47906494 0.31949615 0.7111206 0.48101044c0.115997314 0.08076477 0.23074341 0.16181946 0.34423828 0.24317169l0.32336426 0.23535156" fill-rule="evenodd"/><path fill="#000000" stroke="#000000" stroke-width="2.0" stroke-linecap="butt" d="m290.95953 100.94115l7.593872 5.968544l-1.9807434 -9.453407z" fill-rule="evenodd"/><path fill="#000000" fill-opacity="0.0" d="m321.68103 54.05512c0 13.834644 -29.370087 20.751965 -58.740173 27.669292c-29.370071 6.9173203 -58.740143 13.8346405 -58.740143 27.669289" fill-rule="evenodd"/><path stroke="#000000" stroke-width="2.0" stroke-linejoin="round" stroke-linecap="butt" d="m321.68103 54.05512c0 13.834644 -29.370087 20.751965 -58.740173 27.669292c-14.685028 3.4586563 -29.370071 6.9173203 -40.38385 11.240646c-2.7534485 1.0808334 -5.2774353 2.2157059 -7.5146027 3.4181366c-1.1186066 0.60121155 -2.1654816 1.2193146 -3.133484 1.8559875c-0.2420044 0.15916443 -0.47906494 0.31949615 -0.71110535 0.48101044c-0.11601257 0.08076477 -0.23077393 0.16181946 -0.3442688 0.24317169l-0.32336426 0.23535156" fill-rule="evenodd"/><path fill="#000000" stroke="#000000" stroke-width="2.0" stroke-linecap="butt" d="m207.72362 97.45628l-1.9807281 9.453407l7.593857 -5.968544z" fill-rule="evenodd"/><path fill="#000000" fill-opacity="0.0" d="m369.62845 54.05512c0 13.834644 -29.370056 20.751965 -58.740143 27.669292c-29.370087 6.9173203 -58.740158 13.8346405 -58.740158 27.669289" fill-rule="evenodd"/><path stroke="#000000" stroke-width="2.0" stroke-linejoin="round" stroke-linecap="butt" d="m369.62845 54.05512c0 13.834644 -29.370056 20.751965 -58.740143 27.669292c-14.685028 3.4586563 -29.370087 6.9173203 -40.38385 11.240646c-2.7534485 1.0808334 -5.2774353 2.2157059 -7.514618 3.4181366c-1.1185913 0.60121155 -2.1654663 1.2193146 -3.133484 1.8559875c-0.2420044 0.15916443 -0.47906494 0.31949615 -0.7110901 0.48101044c-0.11602783 0.08076477 -0.23077393 0.16181946 -0.3442688 0.24317169l-0.32336426 0.23535156" fill-rule="evenodd"/><path fill="#000000" stroke="#000000" stroke-width="2.0" stroke-linecap="butt" d="m255.67107 97.45628l-1.9807434 9.453407l7.593857 -5.968544z" fill-rule="evenodd"/><path fill="#000000" fill-opacity="0.0" d="m417.5759 54.05512c0 13.834644 -29.370087 20.751965 -58.740173 27.669292c-29.370056 6.9173203 -58.740143 13.8346405 -58.740143 27.669289" fill-rule="evenodd"/><path stroke="#000000" stroke-width="2.0" stroke-linejoin="round" stroke-linecap="butt" d="m417.5759 54.05512c0 13.834644 -29.370056 20.751965 -58.740143 27.669292c-14.685028 3.4586563 -29.370087 6.9173203 -40.38388 11.240646c-2.7534485 1.0808334 -5.2774353 2.2157059 -7.5145874 3.4181366c-1.1186218 0.60121155 -2.1654968 1.2193146 -3.1335144 1.8559875c-0.2420044 0.15916443 -0.47906494 0.31949615 -0.7110901 0.48101044c-0.11602783 0.08076477 -0.23077393 0.16181946 -0.34423828 0.24317169l-0.32339478 0.23535156" fill-rule="evenodd"/><path fill="#000000" stroke="#000000" stroke-width="2.0" stroke-linecap="butt" d="m303.6185 97.45628l-1.9807434 9.453407l7.593872 -5.968544z" fill-rule="evenodd"/><path fill="#000000" fill-opacity="0.0" d="m204.20079 138.1937l0 21.51181" fill-rule="evenodd"/><path stroke="#000000" stroke-width="2.0" stroke-linejoin="round" stroke-linecap="butt" d="m204.20079 138.19371l0 9.51181" fill-rule="evenodd"/><path fill="#000000" stroke="#000000" stroke-width="2.0" stroke-linecap="butt" d="m200.89732 147.70552l3.3034668 9.076187l3.3034668 -9.076187z" fill-rule="evenodd"/><path fill="#000000" fill-opacity="0.0" d="m252.1483 138.1937l0 21.51181" fill-rule="evenodd"/><path stroke="#000000" stroke-width="2.0" stroke-linejoin="round" stroke-linecap="butt" d="m252.1483 138.19371l0 9.51181" fill-rule="evenodd"/><path fill="#000000" stroke="#000000" stroke-width="2.0" stroke-linecap="butt" d="m248.84483 147.70552l3.3034668 9.076187l3.3034515 -9.076187z" fill-rule="evenodd"/><path fill="#000000" fill-opacity="0.0" d="m300.0958 138.1937l0 21.51181" fill-rule="evenodd"/><path stroke="#000000" stroke-width="2.0" stroke-linejoin="round" stroke-linecap="butt" d="m300.0958 138.19371l0 9.51181" fill-rule="evenodd"/><path fill="#000000" stroke="#000000" stroke-width="2.0" stroke-linecap="butt" d="m296.79233 147.70552l3.3034668 9.076187l3.3034668 -9.076187z" fill-rule="evenodd"/></g></svg>