<svg version="1.1" viewBox="0.0 0.0 447.88451443569556 254.0236220472441" fill="none" stroke="none" stroke-linecap="square" stroke-miterlimit="10" xmlns:xlink="http://www.w3.org/1999/xlink" xmlns="http://www.w3.org/2000/svg"><clipPath id="p.0"><path d="m0 0l447.88452 0l0 254.02362l-447.88452 0l0 -254.02362z" clip-rule="nonzero"/></clipPath><g clip-path="url(#p.0)"><path fill="#000000" fill-opacity="0.0" d="m0 0l447.88452 0l0 254.02362l-447.88452 0z" fill-rule="evenodd"/><path fill="#ffffff" d="m0 0l447.87402 0l0 254.01575l-447.87402 0z" fill-rule="evenodd"/><path stroke="#000000" stroke-width="1.0" stroke-linejoin="round" stroke-linecap="butt" d="m0 0l447.87402 0l0 254.01575l-447.87402 0z" fill-rule="evenodd"/><path fill="#d9d9d9" d="m5.608924 196.6588l437.5118 0l0 51.212585l-437.5118 0z" fill-rule="evenodd"/><path stroke="#000000" stroke-width="2.0" stroke-linejoin="round" stroke-linecap="butt" d="m5.608924 196.6588l437.5118 0l0 51.212585l-437.5118 0z" fill-rule="evenodd"/><path fill="#000000" d="m201.34605 238.4789q0 1.765625 -0.71875 3.015625q-0.703125 1.25 -1.84375 1.890625q-1.140625 0.625 -2.359375 0.625q-1.34375 0 -2.484375 -0.65625q-1.140625 -0.65625 -1.8125 -1.90625q-0.671875 -1.25 -0.671875 -2.9375q0 -1.53125 0.625 -2.8125q0.640625 -1.296875 1.765625 -2.03125q1.140625 -0.75 2.578125 -0.75q1.453125 0 2.578125 0.765625q1.125 0.765625 1.734375 2.03125q0.609375 1.265625 0.609375 2.765625zm-4.921875 3.84375q1.0 0 1.71875 -0.546875q0.734375 -0.5625 1.109375 -1.46875q0.390625 -0.90625 0.390625 -1.90625q0 -0.9375 -0.390625 -1.796875q-0.375 -0.875 -1.109375 -1.40625q-0.734375 -0.546875 -1.75 -0.546875q-0.90625 0 -1.640625 0.53125q-0.734375 0.53125 -1.140625 1.40625q-0.40625 0.859375 -0.40625 1.875q0 1.03125 0.390625 1.921875q0.390625 0.890625 1.125 1.421875q0.75 0.515625 1.703125 0.515625zm10.818756 -7.46875l-1.71875 0l0 5.34375q0 1.109375 0.53125 1.59375q0.53125 0.484375 1.65625 0.484375q1.25 0 1.765625 -0.546875q0.515625 -0.546875 0.515625 -1.859375l0 -5.015625l-1.75 0l0 -1.734375l4.890625 0l0 1.734375l-1.421875 0l0 5.40625q0 0.921875 -0.28125 1.671875q-0.28125 0.734375 -0.796875 1.1875q-0.515625 0.453125 -1.359375 0.671875q-0.828125 0.21875 -1.546875 0.21875q-1.0625 0 -1.78125 -0.25q-0.703125 -0.25 -1.21875 -0.765625q-0.921875 -0.859375 -0.921875 -2.9375l0 -5.203125l-1.453125 0l0 -1.734375l4.890625 0l0 1.734375zm16.428131 2.328125l-1.734375 0l0 -2.328125l-2.265625 0l0 7.203125l2.25 0l0 1.734375l-6.234375 0l0 -1.734375l2.234375 0l0 -7.203125l-2.265625 0l0 2.328125l-1.734375 0l0 -4.0625l9.75 0l0 4.0625zm10.865631 -0.46875q0 1.0 -0.484375 1.78125q-0.46875 0.78125 -1.296875 1.21875q-0.828125 0.4375 -1.828125 0.4375l-2.25 0l0 1.90625l2.265625 0l0 1.734375l-5.453125 0l0 -1.734375l1.46875 0l0 -7.203125l-1.453125 0l0 -1.734375l4.921875 0q1.9375 0 3.015625 0.953125q1.09375 0.953125 1.09375 2.640625zm-1.71875 -0.046875q0 -0.828125 -0.609375 -1.3125q-0.609375 -0.5 -1.78125 -0.5l-1.75 0l0 3.5625l1.9375 0q2.203125 0 2.203125 -1.75zm8.006256 -1.8125l-1.71875 0l0 5.34375q0 1.109375 0.53125 1.59375q0.53125 0.484375 1.65625 0.484375q1.25 0 1.765625 -0.546875q0.515625 -0.546875 0.515625 -1.859375l0 -5.015625l-1.75 0l0 -1.734375l4.890625 0l0 1.734375l-1.421875 0l0 5.40625q0 0.921875 -0.28125 1.671875q-0.28125 0.734375 -0.796875 1.1875q-0.515625 0.453125 -1.359375 0.671875q-0.828125 0.21875 -1.546875 0.21875q-1.0625 0 -1.78125 -0.25q-0.703125 -0.25 -1.21875 -0.765625q-0.921875 -0.859375 -0.921875 -2.9375l0 -5.203125l-1.453125 0l0 -1.734375l4.890625 0l0 1.734375zm16.428146 2.328125l-1.7343903 0l0 -2.328125l-2.265625 0l0 7.203125l2.25 0l0 1.734375l-6.234375 0l0 -1.734375l2.234375 0l0 -7.203125l-2.265625 0l0 2.328125l-1.734375 0l0 -4.0625l9.750015 0l0 4.0625z" fill-rule="nonzero"/><path fill="#d9d9d9" d="m240.2546 4.5249343l202.86613 0l0 51.2126l-202.86613 0z" fill-rule="evenodd"/><path stroke="#000000" stroke-width="2.0" stroke-linejoin="round" stroke-linecap="butt" d="m240.2546 4.5249343l202.86613 0l0 51.2126l-202.86613 0z" fill-rule="evenodd"/><path fill="#000000" d="m284.24387 14.913683q0 1.125 -0.640625 1.890625q-0.625 0.765625 -1.84375 1.0625l2.15625 2.84375l1.390625 0l0 1.734375l-2.5 0q-0.421875 -0.953125 -1.125 -1.921875l-1.671875 -2.3125l-1.4375 0l0 2.5l1.375 0l0 1.734375l-4.5625 0l0 -1.734375l1.46875 0l0 -7.203125l-1.390625 0l0 -1.734375l5.328125 0q1.78125 0 2.609375 0.921875q0.84375 0.90625 0.84375 2.21875zm-1.703125 0.015625q0 -0.71875 -0.40625 -1.0625q-0.40625 -0.359375 -1.171875 -0.359375l-2.390625 0l0 2.96875l1.796875 0q1.09375 0 1.625 -0.375q0.546875 -0.390625 0.546875 -1.171875zm12.725006 -1.421875l-3.015625 0l0 7.203125l3.015625 0l0 1.734375l-7.875 0l0 -1.734375l3.078125 0l0 -7.203125l-3.078125 0l0 -1.734375l7.875 0l0 1.734375zm10.178131 -1.078125l0 -0.859375l1.734375 0l0 4.359375l-1.734375 0l0 -1.71875q-0.875 -0.546875 -1.453125 -0.734375q-0.5625 -0.203125 -1.21875 -0.203125q-0.9375 0 -1.703125 0.484375q-0.765625 0.484375 -1.203125 1.375q-0.4375 0.875 -0.4375 2.046875q0 1.78125 0.921875 2.78125q0.921875 0.984375 2.6875 0.984375q0.59375 0 0.96875 -0.03125q0.390625 -0.046875 1.28125 -0.28125l0 -1.65625l-2.640625 0l0 -1.734375l5.171875 0l0 1.734375l-0.828125 0l0 2.734375q-2.328125 0.953125 -3.953125 0.953125q-1.515625 0 -2.734375 -0.671875q-1.21875 -0.671875 -1.921875 -1.890625q-0.703125 -1.21875 -0.703125 -2.84375q0 -1.65625 0.65625 -2.953125q0.671875 -1.296875 1.828125 -2.015625q1.15625 -0.71875 2.59375 -0.71875q0.765625 0 1.359375 0.1875q0.59375 0.1875 1.328125 0.671875zm7.740631 1.078125l-1.484375 0l0 2.578125l4.078125 0l0 -2.578125l-1.453125 0l0 -1.734375l4.578125 0l0 1.734375l-1.40625 0l0 7.203125l1.40625 0l0 1.734375l-4.578125 0l0 -1.734375l1.453125 0l0 -2.890625l-4.078125 0l0 2.890625l1.484375 0l0 1.734375l-4.609375 0l0 -1.734375l1.421875 0l0 -7.203125l-1.421875 0l0 -1.734375l4.609375 0l0 1.734375zm16.615631 2.328125l-1.734375 0l0 -2.328125l-2.265625 0l0 7.203125l2.25 0l0 1.734375l-6.234375 0l0 -1.734375l2.234375 0l0 -7.203125l-2.265625 0l0 2.328125l-1.734375 0l0 -4.0625l9.75 0l0 4.0625zm16.465637 -2.328125l-1.4375 0l2.609375 6.6875l2.53125 -6.6875l-1.671875 0l0 -1.734375l4.609375 0l0 1.734375l-1.25 0l-3.390625 8.9375l-1.734375 0l-3.484375 -8.9375l-1.375 0l0 -1.734375l4.59375 0l0 1.734375zm16.693756 7.203125l1.046875 0l0 1.734375l-4.359375 0l0 -1.734375l1.5625 0l-0.546875 -1.265625l-4.328125 0l-0.546875 1.265625l1.609375 0l0 1.734375l-4.4375 0l0 -1.734375l1.09375 0l3.046875 -7.203125l-2.296875 0l0 -1.734375l4.5 0l3.65625 8.9375zm-2.984375 -3.0l-1.453125 -3.453125l-1.46875 3.453125l2.921875 0zm10.771912 -4.203125l-2.234375 0l0 7.203125l4.234375 0l0 -3.28125l1.734375 0l0 5.015625l-9.4531555 0l0 -1.734375l1.765625 0l0 -7.203125l-1.765625 0l0 -1.734375l5.7187805 0l0 1.734375zm9.787506 0l-1.71875 0l0 5.34375q0 1.109375 0.53125 1.59375q0.53125 0.484375 1.65625 0.484375q1.25 0 1.765625 -0.546875q0.515625 -0.546875 0.515625 -1.859375l0 -5.015625l-1.75 0l0 -1.734375l4.890625 0l0 1.734375l-1.421875 0l0 5.40625q0 0.921875 -0.28125 1.671875q-0.28125 0.734375 -0.796875 1.1875q-0.515625 0.453125 -1.359375 0.671875q-0.828125 0.21875 -1.546875 0.21875q-1.0625 0 -1.78125 -0.25q-0.703125 -0.25 -1.21875 -0.765625q-0.921875 -0.859375 -0.921875 -2.9375l0 -5.203125l-1.453125 0l0 -1.734375l4.890625 0l0 1.734375zm16.209381 2.21875l-1.734375 0l0 -2.21875l-4.46875 0l0 2.65625l1.984375 0l0 -1.234375l1.734375 0l0 4.171875l-1.734375 0l0 -1.234375l-1.984375 0l0 2.84375l4.46875 0l0 -2.171875l1.734375 0l0 3.90625l-9.390625 0l0 -1.734375l1.484375 0l0 -7.203125l-1.4375 0l0 -1.734375l9.34375 0l0 3.953125zm8.740631 -3.734375l0 -0.421875l1.71875 0l0 4.015625l-1.71875 0l0 -1.796875q-1.09375 -0.5 -2.03125 -0.5q-1.015625 0 -1.703125 0.5q-0.671875 0.5 -0.671875 1.1875q0 0.609375 0.390625 0.921875q0.390625 0.296875 0.953125 0.40625q0.5625 0.109375 1.5625 0.203125l0.71875 0.078125q1.34375 0.171875 2.109375 0.875q0.765625 0.6875 0.765625 1.921875q0 0.984375 -0.5625 1.734375q-0.546875 0.75 -1.515625 1.171875q-0.953125 0.40625 -2.15625 0.40625q-0.65625 0 -1.25 -0.15625q-0.59375 -0.15625 -1.34375 -0.515625l0 0.671875l-1.71875 0l0 -3.90625l1.71875 0l0 1.421875q1.265625 0.765625 2.609375 0.765625q1.21875 0 1.875 -0.40625q0.65625 -0.421875 0.65625 -1.1875q0 -0.65625 -0.515625 -0.953125q-0.515625 -0.296875 -1.765625 -0.3125q-2.09375 -0.03125 -3.1875 -0.890625q-1.09375 -0.859375 -1.09375 -2.25q0 -0.875 0.515625 -1.65625q0.515625 -0.796875 1.4375 -1.265625q0.921875 -0.484375 2.109375 -0.484375q1.15625 0 2.09375 0.421875z" fill-rule="nonzero"/><path fill="#d9d9d9" d="m5.608924 4.5249343l202.86615 0l0 51.2126l-202.86615 0z" fill-rule="evenodd"/><path stroke="#000000" stroke-width="2.0" stroke-linejoin="round" stroke-linecap="butt" d="m5.608924 4.5249343l202.86615 0l0 51.2126l-202.86615 0z" fill-rule="evenodd"/><path fill="#000000" d="m52.14821 13.507433l-2.234375 0l0 7.203125l4.234375 0l0 -3.28125l1.734375 0l0 5.015625l-9.453125 0l0 -1.734375l1.765625 0l0 -7.203125l-1.765625 0l0 -1.734375l5.71875 0l0 1.734375zm14.803131 2.21875l-1.734375 0l0 -2.21875l-4.46875 0l0 2.65625l1.984375 0l0 -1.234375l1.734375 0l0 4.171875l-1.734375 0l0 -1.234375l-1.984375 0l0 2.84375l4.46875 0l0 -2.171875l1.734375 0l0 3.90625l-9.390625 0l0 -1.734375l1.484375 0l0 -7.203125l-1.4375 0l0 -1.734375l9.34375 0l0 3.953125zm11.318756 -0.015625l-1.734375 0l0 -2.203125l-4.375 0l0 2.671875l1.984375 0l0 -1.234375l1.71875 0l0 4.171875l-1.71875 0l0 -1.203125l-1.984375 0l0 2.796875l2.28125 0l0 1.734375l-5.40625 0l0 -1.734375l1.40625 0l0 -7.203125l-1.390625 0l0 -1.734375l9.21875 0l0 3.9375zm11.287506 0.125l-1.734375 0l0 -2.328125l-2.265625 0l0 7.203125l2.25 0l0 1.734375l-6.234375 0l0 -1.734375l2.234375 0l0 -7.203125l-2.265625 0l0 2.328125l-1.734375 0l0 -4.0625l9.75 0l0 4.0625zm16.465637 -2.328125l-1.4375 0l2.609375 6.6875l2.53125 -6.6875l-1.671875 0l0 -1.734375l4.609375 0l0 1.734375l-1.25 0l-3.390625 8.9375l-1.734375 0l-3.484375 -8.9375l-1.375 0l0 -1.734375l4.59375 0l0 1.734375zm16.693756 7.203125l1.046875 0l0 1.734375l-4.359375 0l0 -1.734375l1.5625 0l-0.546875 -1.265625l-4.328125 0l-0.546875 1.265625l1.609375 0l0 1.734375l-4.4375 0l0 -1.734375l1.09375 0l3.046875 -7.203125l-2.296875 0l0 -1.734375l4.5 0l3.65625 8.9375zm-2.984375 -3.0l-1.453125 -3.453125l-1.46875 3.453125l2.921875 0zm10.771881 -4.203125l-2.234375 0l0 7.203125l4.234375 0l0 -3.28125l1.7343597 0l0 5.015625l-9.45311 0l0 -1.734375l1.765625 0l0 -7.203125l-1.765625 0l0 -1.734375l5.71875 0l0 1.734375zm9.787491 0l-1.71875 0l0 5.34375q0 1.109375 0.53125 1.59375q0.53125 0.484375 1.65625 0.484375q1.25 0 1.765625 -0.546875q0.515625 -0.546875 0.515625 -1.859375l0 -5.015625l-1.75 0l0 -1.734375l4.890625 0l0 1.734375l-1.421875 0l0 5.40625q0 0.921875 -0.28125 1.671875q-0.28125 0.734375 -0.796875 1.1875q-0.515625 0.453125 -1.359375 0.671875q-0.828125 0.21875 -1.546875 0.21875q-1.0625 0 -1.78125 -0.25q-0.703125 -0.25 -1.21875 -0.765625q-0.921875 -0.859375 -0.921875 -2.9375l0 -5.203125l-1.453125 0l0 -1.734375l4.890625 0l0 1.734375zm16.209381 2.21875l-1.734375 0l0 -2.21875l-4.46875 0l0 2.65625l1.984375 0l0 -1.234375l1.734375 0l0 4.171875l-1.734375 0l0 -1.234375l-1.984375 0l0 2.84375l4.46875 0l0 -2.171875l1.734375 0l0 3.90625l-9.390625 0l0 -1.734375l1.484375 0l0 -7.203125l-1.4375 0l0 -1.734375l9.34375 0l0 3.953125zm8.740631 -3.734375l0 -0.421875l1.71875 0l0 4.015625l-1.71875 0l0 -1.796875q-1.09375 -0.5 -2.03125 -0.5q-1.015625 0 -1.703125 0.5q-0.671875 0.5 -0.671875 1.1875q0 0.609375 0.390625 0.921875q0.390625 0.296875 0.953125 0.40625q0.5625 0.109375 1.5625 0.203125l0.71875 0.078125q1.34375 0.171875 2.109375 0.875q0.765625 0.6875 0.765625 1.921875q0 0.984375 -0.5625 1.734375q-0.546875 0.75 -1.515625 1.171875q-0.953125 0.40625 -2.15625 0.40625q-0.65625 0 -1.25 -0.15625q-0.59375 -0.15625 -1.34375 -0.515625l0 0.671875l-1.71875 0l0 -3.90625l1.71875 0l0 1.421875q1.265625 0.765625 2.609375 0.765625q1.21875 0 1.875 -0.40625q0.65625 -0.421875 0.65625 -1.1875q0 -0.65625 -0.515625 -0.953125q-0.515625 -0.296875 -1.765625 -0.3125q-2.09375 -0.03125 -3.1875 -0.890625q-1.09375 -0.859375 -1.09375 -2.25q0 -0.875 0.515625 -1.65625q0.515625 -0.796875 1.4375 -1.265625q0.921875 -0.484375 2.109375 -0.484375q1.15625 0 2.09375 0.421875z" fill-rule="nonzero"/><path fill="#d9d2e9" d="m10.692913 26.939632l24.0 0l0 24.0l-24.0 0z" fill-rule="evenodd"/><path stroke="#000000" stroke-width="2.0" stroke-linejoin="round" stroke-linecap="butt" d="m10.692913 26.939632l24.0 0l0 24.0l-24.0 0z" fill-rule="evenodd"/><path fill="#000000" d="m27.17416 44.125256l1.046875 0l0 1.734375l-4.359375 0l0 -1.734375l1.5625 0l-0.546875 -1.265625l-4.328125 0l-0.546875 1.265625l1.609375 0l0 1.734375l-4.4375 0l0 -1.734375l1.09375 0l3.046875 -7.203125l-2.296875 0l0 -1.734375l4.5 0l3.65625 8.9375zm-2.984375 -3.0l-1.453125 -3.453125l-1.46875 3.453125l2.921875 0z" fill-rule="nonzero"/><path fill="#d9d2e9" d="m34.694218 26.939632l24.0 0l0 24.0l-24.0 0z" fill-rule="evenodd"/><path stroke="#000000" stroke-width="2.0" stroke-linejoin="round" stroke-linecap="butt" d="m34.694218 26.939632l24.0 0l0 24.0l-24.0 0z" fill-rule="evenodd"/><path fill="#000000" d="m50.81609 38.094006q0 0.640625 -0.28125 1.203125q-0.265625 0.5625 -0.78125 0.96875q0.984375 0.5625 1.34375 1.1875q0.359375 0.625 0.359375 1.390625q0 0.875 -0.46875 1.5625q-0.453125 0.6875 -1.234375 1.078125q-0.78125 0.375 -1.765625 0.375l-6.21875 0l0 -1.734375l1.453125 0l0 -7.203125l-1.453125 0l0 -1.734375l5.5 0q1.609375 0 2.578125 0.8125q0.96875 0.8125 0.96875 2.09375zm-1.703125 0.0625q0 -0.546875 -0.453125 -0.890625q-0.453125 -0.34375 -1.1875 -0.34375l-2.53125 0l0 2.5625l2.421875 0q0.71875 0 1.234375 -0.34375q0.515625 -0.359375 0.515625 -0.984375zm0.625 4.5625q0 -0.734375 -0.65625 -1.109375q-0.65625 -0.390625 -1.890625 -0.390625l-2.25 0l0 2.90625l3.09375 0q0.671875 0 1.1875 -0.375q0.515625 -0.375 0.515625 -1.03125z" fill-rule="nonzero"/><path fill="#d9d2e9" d="m58.695522 26.939632l24.000004 0l0 24.0l-24.000004 0z" fill-rule="evenodd"/><path stroke="#000000" stroke-width="2.0" stroke-linejoin="round" stroke-linecap="butt" d="m58.695522 26.939632l24.000004 0l0 24.0l-24.000004 0z" fill-rule="evenodd"/><path fill="#000000" d="m73.91115 35.76588l0 -0.78125l1.703125 0l0 4.34375l-1.703125 0l0 -1.765625q-1.390625 -0.875 -2.734375 -0.875q-0.890625 0 -1.671875 0.453125q-0.765625 0.453125 -1.234375 1.3125q-0.46875 0.859375 -0.46875 2.03125q0 1.75 0.90625 2.8125q0.90625 1.0625 2.515625 1.0625q0.796875 0 1.671875 -0.296875q0.890625 -0.3125 1.734375 -0.90625l1.046875 1.265625q-0.796875 0.75 -2.125 1.203125q-1.328125 0.453125 -2.296875 0.453125q-2.390625 0 -3.859375 -1.71875q-0.625 -0.703125 -0.984375 -1.796875q-0.34375 -1.09375 -0.34375 -2.09375q0 -1.5625 0.671875 -2.8125q0.671875 -1.25 1.828125 -1.953125q1.15625 -0.71875 2.59375 -0.71875q0.78125 0 1.5 0.21875q0.734375 0.203125 1.25 0.5625z" fill-rule="nonzero"/><path fill="#d9d2e9" d="m82.69683 26.939632l24.0 0l0 24.0l-24.0 0z" fill-rule="evenodd"/><path stroke="#000000" stroke-width="2.0" stroke-linejoin="round" stroke-linecap="butt" d="m82.69683 26.939632l24.0 0l0 24.0l-24.0 0z" fill-rule="evenodd"/><path fill="#000000" d="m99.59995 40.312756q0 2.75 -1.34375 4.15625q-1.34375 1.390625 -3.78125 1.390625l-4.890625 0l0 -1.734375l1.46875 0l0 -7.203125l-1.46875 0l0 -1.734375l5.375 0q1.484375 0 2.53125 0.671875q1.046875 0.65625 1.578125 1.8125q0.53125 1.15625 0.53125 2.640625zm-1.71875 0.078125q0 -1.65625 -0.78125 -2.5625q-0.78125 -0.90625 -2.140625 -0.90625l-2.1875 0l0 7.203125l2.0625 0q1.265625 0 2.15625 -0.875q0.890625 -0.875 0.890625 -2.859375z" fill-rule="nonzero"/><path fill="#d9d2e9" d="m245.65355 26.939632l23.999985 0l0 24.0l-23.999985 0z" fill-rule="evenodd"/><path stroke="#000000" stroke-width="2.0" stroke-linejoin="round" stroke-linecap="butt" d="m245.65355 26.939632l23.999985 0l0 24.0l-23.999985 0z" fill-rule="evenodd"/><path fill="#000000" d="m259.8848 35.406506l0 -0.421875l1.71875 0l0 4.015625l-1.71875 0l0 -1.796875q-1.09375 -0.5 -2.03125 -0.5q-1.015625 0 -1.703125 0.5q-0.671875 0.5 -0.671875 1.1875q0 0.609375 0.390625 0.921875q0.390625 0.296875 0.953125 0.40625q0.5625 0.109375 1.5625 0.203125l0.71875 0.078125q1.34375 0.171875 2.109375 0.875q0.765625 0.6875 0.765625 1.921875q0 0.984375 -0.5625 1.734375q-0.546875 0.75 -1.515625 1.171875q-0.953125 0.40625 -2.15625 0.40625q-0.65625 0 -1.25 -0.15625q-0.59375 -0.15625 -1.34375 -0.515625l0 0.671875l-1.71875 0l0 -3.90625l1.71875 0l0 1.421875q1.265625 0.765625 2.609375 0.765625q1.21875 0 1.875 -0.40625q0.65625 -0.421875 0.65625 -1.1875q0 -0.65625 -0.515625 -0.953125q-0.515625 -0.296875 -1.765625 -0.3125q-2.09375 -0.03125 -3.1875 -0.890625q-1.09375 -0.859375 -1.09375 -2.25q0 -0.875 0.515625 -1.65625q0.515625 -0.796875 1.4375 -1.265625q0.921875 -0.484375 2.109375 -0.484375q1.15625 0 2.09375 0.421875z" fill-rule="nonzero"/><path fill="#d9d2e9" d="m269.65485 26.939632l24.0 0l0 24.0l-24.0 0z" fill-rule="evenodd"/><path stroke="#000000" stroke-width="2.0" stroke-linejoin="round" stroke-linecap="butt" d="m269.65485 26.939632l24.0 0l0 24.0l-24.0 0z" fill-rule="evenodd"/><path fill="#000000" d="m286.55798 39.250256l-1.734375 0l0 -2.328125l-2.265625 0l0 7.203125l2.25 0l0 1.734375l-6.234375 0l0 -1.734375l2.234375 0l0 -7.203125l-2.265625 0l0 2.328125l-1.734375 0l0 -4.0625l9.75 0l0 4.0625z" fill-rule="nonzero"/><path fill="#d9d2e9" d="m293.65616 26.939632l24.0 0l0 24.0l-24.0 0z" fill-rule="evenodd"/><path stroke="#000000" stroke-width="2.0" stroke-linejoin="round" stroke-linecap="butt" d="m293.65616 26.939632l24.0 0l0 24.0l-24.0 0z" fill-rule="evenodd"/><path fill="#000000" d="m305.3249 36.92213l-1.71875 0l0 5.34375q0 1.109375 0.53125 1.59375q0.53125 0.484375 1.65625 0.484375q1.25 0 1.765625 -0.546875q0.515625 -0.546875 0.515625 -1.859375l0 -5.015625l-1.75 0l0 -1.734375l4.890625 0l0 1.734375l-1.421875 0l0 5.40625q0 0.921875 -0.28125 1.671875q-0.28125 0.734375 -0.796875 1.1875q-0.515625 0.453125 -1.359375 0.671875q-0.828125 0.21875 -1.546875 0.21875q-1.0625 0 -1.78125 -0.25q-0.703125 -0.25 -1.21875 -0.765625q-0.921875 -0.859375 -0.921875 -2.9375l0 -5.203125l-1.453125 0l0 -1.734375l4.890625 0l0 1.734375z" fill-rule="nonzero"/><path fill="#d9d2e9" d="m317.65747 26.939632l24.0 0l0 24.0l-24.0 0z" fill-rule="evenodd"/><path stroke="#000000" stroke-width="2.0" stroke-linejoin="round" stroke-linecap="butt" d="m317.65747 26.939632l24.0 0l0 24.0l-24.0 0z" fill-rule="evenodd"/><path fill="#000000" d="m328.6387 36.92213l-1.4375 0l2.609375 6.6875l2.53125 -6.6875l-1.671875 0l0 -1.734375l4.609375 0l0 1.734375l-1.25 0l-3.390625 8.9375l-1.734375 0l-3.484375 -8.9375l-1.375 0l0 -1.734375l4.59375 0l0 1.734375z" fill-rule="nonzero"/><path fill="#d9d2e9" d="m35.5853 196.67192l96.0 0l0 24.0l-96.0 0z" fill-rule="evenodd"/><path stroke="#000000" stroke-width="2.0" stroke-linejoin="round" stroke-linecap="butt" d="m35.5853 196.67192l96.0 0l0 24.0l-96.0 0z" fill-rule="evenodd"/><path fill="#000000" d="m54.48528 213.85754l1.046875 0l0 1.734375l-4.359375 0l0 -1.734375l1.5625 0l-0.546875 -1.265625l-4.328125 0l-0.546875 1.265625l1.609375 0l0 1.734375l-4.4375 0l0 -1.734375l1.09375 0l3.046875 -7.203125l-2.296875 0l0 -1.734375l4.5 0l3.65625 8.9375zm-2.984375 -3.0l-1.453125 -3.453125l-1.46875 3.453125l2.921875 0zm10.568756 -3.40625l2.2812538 -0.90625l0.640625 1.859375l-2.3437538 0.640625l1.4375038 1.953125l-1.5468788 1.140625l-1.375 -2.0625l-1.40625 2.078125l-1.546875 -1.140625l1.453125 -1.96875l-2.390625 -0.609375l0.65625 -1.890625l2.3125 0.90625l-0.109375 -2.5l2.046875 0l-0.109375 2.5zm12.553135 -2.3125l0 -0.421875l1.71875 0l0 4.015625l-1.71875 0l0 -1.796875q-1.09375 -0.5 -2.03125 -0.5q-1.015625 0 -1.703125 0.5q-0.671875 0.5 -0.671875 1.1875q0 0.609375 0.390625 0.921875q0.390625 0.296875 0.953125 0.40625q0.5625 0.109375 1.5625 0.203125l0.71875 0.078125q1.34375 0.171875 2.109375 0.875q0.765625 0.6875 0.765625 1.921875q0 0.984375 -0.5625 1.734375q-0.546875 0.75 -1.515625 1.171875q-0.953125 0.40625 -2.15625 0.40625q-0.65625 0 -1.25 -0.15625q-0.59375 -0.15625 -1.34375 -0.515625l0 0.671875l-1.71875 0l0 -3.90625l1.71875 0l0 1.421875q1.265625 0.765625 2.609375 0.765625q1.21875 0 1.875 -0.40625q0.65625 -0.421875 0.65625 -1.1875q0 -0.65625 -0.515625 -0.953125q-0.515625 -0.296875 -1.765625 -0.3125q-2.09375 -0.03125 -3.1875 -0.890625q-1.09375 -0.859375 -1.09375 -2.25q0 -0.875 0.515625 -1.65625q0.515625 -0.796875 1.4375 -1.265625q0.921875 -0.484375 2.109375 -0.484375q1.15625 0 2.09375 0.421875zm9.834381 5.46875l3.171875 0l0 1.734375l-3.171875 0l0 3.1875l-1.734375 0l0 -3.1875l-3.171875 0l0 -1.734375l3.171875 0l0 -3.1875l1.734375 0l0 3.1875zm14.443756 -2.78125q0 0.640625 -0.28125 1.203125q-0.265625 0.5625 -0.78125 0.96875q0.984375 0.5625 1.34375 1.1875q0.359375 0.625 0.359375 1.390625q0 0.875 -0.46875 1.5625q-0.453125 0.6875 -1.234375 1.078125q-0.78125 0.375 -1.765625 0.375l-6.21875 0l0 -1.734375l1.453125 0l0 -7.203125l-1.453125 0l0 -1.734375l5.5 0q1.609375 0 2.578125 0.8125q0.96875 0.8125 0.96875 2.09375zm-1.703125 0.0625q0 -0.546875 -0.453125 -0.890625q-0.453125 -0.34375 -1.1875 -0.34375l-2.53125 0l0 2.5625l2.421875 0q0.71875 0 1.234375 -0.34375q0.515625 -0.359375 0.515625 -0.984375zm0.625 4.5625q0 -0.734375 -0.65625 -1.109375q-0.65625 -0.390625 -1.890625 -0.390625l-2.25 0l0 2.90625l3.09375 0q0.671875 0 1.1875 -0.375q0.515625 -0.375 0.515625 -1.03125zm9.021881 -5.0l2.28125 -0.90625l0.640625 1.859375l-2.34375 0.640625l1.4375 1.953125l-1.546875 1.140625l-1.375 -2.0625l-1.40625 2.078125l-1.546875 -1.140625l1.453125 -1.96875l-2.390625 -0.609375l0.65625 -1.890625l2.3125 0.90625l-0.109375 -2.5l2.046875 0l-0.109375 2.5zm15.225006 1.53125l-1.734375 0l0 -2.328125l-2.265625 0l0 7.203125l2.25 0l0 1.734375l-6.234375 0l0 -1.734375l2.234375 0l0 -7.203125l-2.265625 0l0 2.328125l-1.734375 0l0 -4.0625l9.75 0l0 4.0625z" fill-rule="nonzero"/><path fill="#d9d2e9" d="m131.5853 196.67192l96.0 0l0 24.0l-96.0 0z" fill-rule="evenodd"/><path stroke="#000000" stroke-width="2.0" stroke-linejoin="round" stroke-linecap="butt" d="m131.5853 196.67192l96.0 0l0 24.0l-96.0 0z" fill-rule="evenodd"/><path fill="#000000" d="m149.21965 205.49817l0 -0.78125l1.703125 0l0 4.34375l-1.703125 0l0 -1.765625q-1.390625 -0.875 -2.734375 -0.875q-0.890625 0 -1.671875 0.453125q-0.765625 0.453125 -1.234375 1.3125q-0.46875 0.859375 -0.46875 2.03125q0 1.75 0.90625 2.8125q0.90625 1.0625 2.515625 1.0625q0.796875 0 1.671875 -0.296875q0.890625 -0.3125 1.734375 -0.90625l1.046875 1.265625q-0.796875 0.75 -2.125 1.203125q-1.328125 0.453125 -2.296875 0.453125q-2.390625 0 -3.859375 -1.71875q-0.625 -0.703125 -0.984375 -1.796875q-0.34375 -1.09375 -0.34375 -2.09375q0 -1.5625 0.671875 -2.8125q0.671875 -1.25 1.828125 -1.953125q1.15625 -0.71875 2.59375 -0.71875q0.78125 0 1.5 0.21875q0.734375 0.203125 1.25 0.5625zm8.850006 1.953125l2.28125 -0.90625l0.640625 1.859375l-2.34375 0.640625l1.4375 1.953125l-1.546875 1.140625l-1.375 -2.0625l-1.40625 2.078125l-1.546875 -1.140625l1.453125 -1.96875l-2.390625 -0.609375l0.65625 -1.890625l2.3125 0.90625l-0.109375 -2.5l2.046875 0l-0.109375 2.5zm9.990631 -0.796875l-1.71875 0l0 5.34375q0 1.109375 0.53125 1.59375q0.53125 0.484375 1.65625 0.484375q1.25 0 1.765625 -0.546875q0.515625 -0.546875 0.515625 -1.859375l0 -5.015625l-1.75 0l0 -1.734375l4.890625 0l0 1.734375l-1.421875 0l0 5.40625q0 0.921875 -0.28125 1.671875q-0.28125 0.734375 -0.796875 1.1875q-0.515625 0.453125 -1.359375 0.671875q-0.828125 0.21875 -1.546875 0.21875q-1.0625 0 -1.78125 -0.25q-0.703125 -0.25 -1.21875 -0.765625q-0.921875 -0.859375 -0.921875 -2.9375l0 -5.203125l-1.453125 0l0 -1.734375l4.890625 0l0 1.734375zm12.396881 3.953125l3.171875 0l0 1.734375l-3.171875 0l0 3.1875l-1.734375 0l0 -3.1875l-3.171875 0l0 -1.734375l3.171875 0l0 -3.1875l1.734375 0l0 3.1875zm15.225006 -0.5625q0 2.75 -1.34375 4.15625q-1.34375 1.390625 -3.78125 1.390625l-4.890625 0l0 -1.734375l1.46875 0l0 -7.203125l-1.46875 0l0 -1.734375l5.375 0q1.484375 0 2.53125 0.671875q1.046875 0.65625 1.578125 1.8125q0.53125 1.15625 0.53125 2.640625zm-1.71875 0.078125q0 -1.65625 -0.78125 -2.5625q-0.78125 -0.90625 -2.140625 -0.90625l-2.1875 0l0 7.203125l2.0625 0q1.265625 0 2.15625 -0.875q0.890625 -0.875 0.890625 -2.859375zm8.881256 -2.671875l2.28125 -0.90625l0.640625 1.859375l-2.34375 0.640625l1.4375 1.953125l-1.546875 1.140625l-1.375 -2.0625l-1.40625 2.078125l-1.546875 -1.140625l1.453125 -1.96875l-2.390625 -0.609375l0.65625 -1.890625l2.3125 0.90625l-0.109375 -2.5l2.046875 0l-0.109375 2.5zm9.303131 -0.796875l-1.4375 0l2.609375 6.6875l2.53125 -6.6875l-1.671875 0l0 -1.734375l4.609375 0l0 1.734375l-1.25 0l-3.390625 8.9375l-1.734375 0l-3.484375 -8.9375l-1.375 0l0 -1.734375l4.59375 0l0 1.734375z" fill-rule="nonzero"/><path fill="#d9d2e9" d="m227.5853 196.67192l96.0 0l0 24.0l-96.0 0z" fill-rule="evenodd"/><path stroke="#000000" stroke-width="2.0" stroke-linejoin="round" stroke-linecap="butt" d="m227.5853 196.67192l96.0 0l0 24.0l-96.0 0z" fill-rule="evenodd"/><path fill="#000000" d="m246.6884 208.87317l-1.734375 0l0 -2.21875l-4.46875 0l0 2.65625l1.984375 0l0 -1.234375l1.734375 0l0 4.171875l-1.734375 0l0 -1.234375l-1.984375 0l0 2.84375l4.46875 0l0 -2.171875l1.734375 0l0 3.90625l-9.390625 0l0 -1.734375l1.484375 0l0 -7.203125l-1.4375 0l0 -1.734375l9.34375 0l0 3.953125zm7.381256 -1.421875l2.2812653 -0.90625l0.640625 1.859375l-2.3437653 0.640625l1.4375153 1.953125l-1.5468903 1.140625l-1.375 -2.0625l-1.40625 2.078125l-1.546875 -1.140625l1.453125 -1.96875l-2.390625 -0.609375l0.65625 -1.890625l2.3125 0.90625l-0.109375 -2.5l2.046875 0l-0.109375 2.5zm8.959396 -0.796875l-1.71875 0l0.65625 5.34375l1.859375 -5.09375l1.234375 0l1.890625 5.046875l0.625 -5.296875l-1.734375 0l0 -1.734375l4.265625 0l0 1.734375l-0.890625 0l-1.203125 8.9375l-1.453125 0l-2.15625 -5.59375l-2.109375 5.59375l-1.46875 0l-1.1875 -8.9375l-0.875 0l0 -1.734375l4.265625 0l0 1.734375zm13.428131 3.953125l3.171875 0l0 1.734375l-3.171875 0l0 3.1875l-1.734375 0l0 -3.1875l-3.171875 0l0 -1.734375l3.171875 0l0 -3.1875l1.734375 0l0 3.1875zm15.131256 -1.75l-1.734375 0l0 -2.203125l-4.375 0l0 2.671875l1.984375 0l0 -1.234375l1.71875 0l0 4.171875l-1.71875 0l0 -1.203125l-1.984375 0l0 2.796875l2.28125 0l0 1.734375l-5.40625 0l0 -1.734375l1.40625 0l0 -7.203125l-1.390625 0l0 -1.734375l9.21875 0l0 3.9375zm7.256256 -1.40625l2.28125 -0.90625l0.640625 1.859375l-2.34375 0.640625l1.4375 1.953125l-1.546875 1.140625l-1.375 -2.0625l-1.40625 2.078125l-1.546875 -1.140625l1.453125 -1.96875l-2.390625 -0.609375l0.65625 -1.890625l2.3125 0.90625l-0.109375 -2.5l2.046875 0l-0.109375 2.5zm9.756256 -0.796875l-0.96875 0l1.59375 2.046875l1.546875 -2.046875l-0.828125 0l0 -1.734375l4.015625 0l0 1.734375l-1.234375 0l-2.546875 3.359375l2.921875 3.84375l1.203125 0l0 1.734375l-4.328125 0l0 -1.734375l1.109375 0l-1.921875 -2.5625l-1.96875 2.5625l1.4375 0l0 1.734375l-4.59375 0l0 -1.734375l1.1875 0l2.96875 -3.84375l-2.59375 -3.359375l-1.25 0l0 -1.734375l4.25 0l0 1.734375z" fill-rule="nonzero"/><path fill="#d9d2e9" d="m323.5853 196.67192l96.0 0l0 24.0l-96.0 0z" fill-rule="evenodd"/><path stroke="#000000" stroke-width="2.0" stroke-linejoin="round" stroke-linecap="butt" d="m323.5853 196.67192l96.0 0l0 24.0l-96.0 0z" fill-rule="evenodd"/><path fill="#000000" d="m340.93842 205.5763l0 -0.859375l1.734375 0l0 4.359375l-1.734375 0l0 -1.71875q-0.875 -0.546875 -1.453125 -0.734375q-0.5625 -0.203125 -1.21875 -0.203125q-0.9375 0 -1.703125 0.484375q-0.765625 0.484375 -1.203125 1.375q-0.4375 0.875 -0.4375 2.046875q0 1.78125 0.921875 2.78125q0.921875 0.984375 2.6875 0.984375q0.59375 0 0.96875 -0.03125q0.390625 -0.046875 1.28125 -0.28125l0 -1.65625l-2.640625 0l0 -1.734375l5.171875 0l0 1.734375l-0.828125 0l0 2.734375q-2.328125 0.953125 -3.953125 0.953125q-1.515625 0 -2.734375 -0.671875q-1.21875 -0.671875 -1.921875 -1.890625q-0.703125 -1.21875 -0.703125 -2.84375q0 -1.65625 0.65625 -2.953125q0.671875 -1.296875 1.828125 -2.015625q1.15625 -0.71875 2.59375 -0.71875q0.765625 0 1.359375 0.1875q0.59375 0.1875 1.328125 0.671875zm9.131256 1.875l2.28125 -0.90625l0.640625 1.859375l-2.34375 0.640625l1.4375 1.953125l-1.546875 1.140625l-1.375 -2.0625l-1.40625 2.078125l-1.546875 -1.140625l1.453125 -1.96875l-2.390625 -0.609375l0.65625 -1.890625l2.3125 0.90625l-0.109375 -2.5l2.046875 0l-0.109375 2.5zm9.506256 -0.796875l-0.96875 0l1.875 3.15625l1.90625 -3.15625l-1.015625 0l0 -1.734375l4.296875 0l0 1.734375l-1.4375 0l-2.90625 4.8125l0 2.390625l2.21875 0l0 1.734375l-6.21875 0l0 -1.734375l2.265625 0l0 -2.390625l-2.90625 -4.8125l-1.40625 0l0 -1.734375l4.296875 0l0 1.734375zm12.881256 3.953125l3.171875 0l0 1.734375l-3.171875 0l0 3.1875l-1.734375 0l0 -3.1875l-3.171875 0l0 -1.734375l3.171875 0l0 -3.1875l1.734375 0l0 3.1875zm9.803131 -3.953125l-1.484375 0l0 2.578125l4.078125 0l0 -2.578125l-1.453125 0l0 -1.734375l4.578125 0l0 1.734375l-1.40625 0l0 7.203125l1.40625 0l0 1.734375l-4.578125 0l0 -1.734375l1.453125 0l0 -2.890625l-4.078125 0l0 2.890625l1.484375 0l0 1.734375l-4.609375 0l0 -1.734375l1.421875 0l0 -7.203125l-1.421875 0l0 -1.734375l4.609375 0l0 1.734375zm12.584381 0.796875l2.28125 -0.90625l0.640625 1.859375l-2.34375 0.640625l1.4375 1.953125l-1.546875 1.140625l-1.375 -2.0625l-1.40625 2.078125l-1.546875 -1.140625l1.453125 -1.96875l-2.390625 -0.609375l0.65625 -1.890625l2.3125 0.90625l-0.109375 -2.5l2.046875 0l-0.109375 2.5zm14.146881 -1.296875l-5.6875 7.703125l4.375 0l0 -2.625l1.71875 0l0 4.359375l-8.40625 0l0 -1.328125l5.609375 -7.609375l-3.828125 0l0 2.359375l-1.703125 0l0 -4.09375l7.921875 0l0 1.234375z" fill-rule="nonzero"/><path fill="#d9d9d9" d="m47.5853 92.01837l24.000004 0l0 23.04l-12.000004 5.760002l-12.0 -5.760002z" fill-rule="evenodd"/><path stroke="#000000" stroke-width="2.0" stroke-linejoin="round" stroke-linecap="butt" d="m47.5853 92.01837l24.000004 0l0 23.04l-12.000004 5.760002l-12.0 -5.760002z" fill-rule="evenodd"/><path fill="#000000" d="m52.175144 99.7465l0 -2.296875l2.296875 0l13.687504 13.671875l0 2.296875l-2.3125 0l-13.671879 -13.671875zm2.296875 13.671875l-2.296875 0l0 -2.296875l5.28125 -5.265625l2.28125 0l0 2.296875l-5.265625 5.265625zm8.40625 -8.390625l-2.296875 0l0 -2.3125l5.265629 -5.265625l2.3125 0l0 2.296875l-5.281254 5.28125z" fill-rule="nonzero"/><path fill="#000000" fill-opacity="0.0" d="m59.5853 120.818375l24.000004 20.440948" fill-rule="evenodd"/><path stroke="#000000" stroke-width="2.0" stroke-linejoin="round" stroke-linecap="butt" d="m59.5853 120.818375l14.864429 12.66011" fill-rule="evenodd"/><path fill="#000000" stroke="#000000" stroke-width="2.0" stroke-linecap="butt" d="m72.307755 135.99341l9.051659 3.3701172l-4.7677155 -8.399948z" fill-rule="evenodd"/><path fill="#d9d9d9" d="m95.585304 92.01837l24.0 0l0 23.04l-12.0 5.760002l-12.0 -5.760002z" fill-rule="evenodd"/><path stroke="#000000" stroke-width="2.0" stroke-linejoin="round" stroke-linecap="butt" d="m95.585304 92.01837l24.0 0l0 23.04l-12.0 5.760002l-12.0 -5.760002z" fill-rule="evenodd"/><path fill="#000000" d="m100.17515 99.7465l0 -2.296875l2.296875 0l13.6875 13.671875l0 2.296875l-2.3125 0l-13.671875 -13.671875zm2.296875 13.671875l-2.296875 0l0 -2.296875l5.28125 -5.265625l2.28125 0l0 2.296875l-5.265625 5.265625zm8.40625 -8.390625l-2.296875 0l0 -2.3125l5.265625 -5.265625l2.3125 0l0 2.296875l-5.28125 5.28125z" fill-rule="nonzero"/><path fill="#000000" fill-opacity="0.0" d="m83.585304 170.07034l0 26.614166" fill-rule="evenodd"/><path stroke="#000000" stroke-width="2.0" stroke-linejoin="round" stroke-linecap="butt" d="m83.585304 170.07034l0 14.614166" fill-rule="evenodd"/><path fill="#000000" stroke="#000000" stroke-width="2.0" stroke-linecap="butt" d="m80.28184 184.68451l3.3034668 9.076187l3.3034592 -9.076187z" fill-rule="evenodd"/><path fill="#d9d9d9" d="m71.585304 141.27034l24.0 0l0 23.040009l-12.0 5.7599945l-12.0 -5.7599945z" fill-rule="evenodd"/><path stroke="#000000" stroke-width="2.0" stroke-linejoin="round" stroke-linecap="butt" d="m71.585304 141.27034l24.0 0l0 23.040009l-12.0 5.7599945l-12.0 -5.7599945z" fill-rule="evenodd"/><path fill="#000000" d="m81.47875 161.35284l0 -6.203125l-6.234375 0l0 -4.265625l6.234375 0l0 -6.203125l4.171875 0l0 6.203125l6.265625 0l0 4.265625l-6.265625 0l0 6.203125l-4.171875 0z" fill-rule="nonzero"/><path fill="#000000" fill-opacity="0.0" d="m107.585304 120.818375l-24.0 20.440948" fill-rule="evenodd"/><path stroke="#000000" stroke-width="2.0" stroke-linejoin="round" stroke-linecap="butt" d="m107.585304 120.818375l-14.864418 12.66011" fill-rule="evenodd"/><path fill="#000000" stroke="#000000" stroke-width="2.0" stroke-linecap="butt" d="m90.5789 130.96358l-4.7677155 8.399948l9.051666 -3.3701172z" fill-rule="evenodd"/><path fill="#d9d2e9" d="m106.69685 26.939632l24.0 0l0 24.0l-24.0 0z" fill-rule="evenodd"/><path stroke="#000000" stroke-width="2.0" stroke-linejoin="round" stroke-linecap="butt" d="m106.69685 26.939632l24.0 0l0 24.0l-24.0 0z" fill-rule="evenodd"/><path fill="#000000" d="m123.381226 39.14088l-1.734375 0l0 -2.21875l-4.46875 0l0 2.65625l1.984375 0l0 -1.234375l1.734375 0l0 4.171875l-1.734375 0l0 -1.234375l-1.984375 0l0 2.84375l4.46875 0l0 -2.171875l1.734375 0l0 3.90625l-9.390625 0l0 -1.734375l1.484375 0l0 -7.203125l-1.4375 0l0 -1.734375l9.34375 0l0 3.953125z" fill-rule="nonzero"/><path fill="#d9d2e9" d="m130.69815 26.939632l24.0 0l0 24.0l-24.0 0z" fill-rule="evenodd"/><path stroke="#000000" stroke-width="2.0" stroke-linejoin="round" stroke-linecap="butt" d="m130.69815 26.939632l24.0 0l0 24.0l-24.0 0z" fill-rule="evenodd"/><path fill="#000000" d="m147.50752 39.125256l-1.734375 0l0 -2.203125l-4.375 0l0 2.671875l1.984375 0l0 -1.234375l1.71875 0l0 4.171875l-1.71875 0l0 -1.203125l-1.984375 0l0 2.796875l2.28125 0l0 1.734375l-5.40625 0l0 -1.734375l1.40625 0l0 -7.203125l-1.390625 0l0 -1.734375l9.21875 0l0 3.9375z" fill-rule="nonzero"/><path fill="#d9d2e9" d="m154.69946 26.939632l24.0 0l0 24.0l-24.0 0z" fill-rule="evenodd"/><path stroke="#000000" stroke-width="2.0" stroke-linejoin="round" stroke-linecap="butt" d="m154.69946 26.939632l24.0 0l0 24.0l-24.0 0z" fill-rule="evenodd"/><path fill="#000000" d="m169.63383 35.844006l0 -0.859375l1.734375 0l0 4.359375l-1.734375 0l0 -1.71875q-0.875 -0.546875 -1.453125 -0.734375q-0.5625 -0.203125 -1.21875 -0.203125q-0.9375 0 -1.703125 0.484375q-0.765625 0.484375 -1.203125 1.375q-0.4375 0.875 -0.4375 2.046875q0 1.78125 0.921875 2.78125q0.921875 0.984375 2.6875 0.984375q0.59375 0 0.96875 -0.03125q0.390625 -0.046875 1.28125 -0.28125l0 -1.65625l-2.640625 0l0 -1.734375l5.171875 0l0 1.734375l-0.828125 0l0 2.734375q-2.328125 0.953125 -3.953125 0.953125q-1.515625 0 -2.734375 -0.671875q-1.21875 -0.671875 -1.921875 -1.890625q-0.703125 -1.21875 -0.703125 -2.84375q0 -1.65625 0.65625 -2.953125q0.671875 -1.296875 1.828125 -2.015625q1.15625 -0.71875 2.59375 -0.71875q0.765625 0 1.359375 0.1875q0.59375 0.1875 1.328125 0.671875z" fill-rule="nonzero"/><path fill="#d9d2e9" d="m178.70076 26.939632l24.0 0l0 24.0l-24.0 0z" fill-rule="evenodd"/><path stroke="#000000" stroke-width="2.0" stroke-linejoin="round" stroke-linecap="butt" d="m178.70076 26.939632l24.0 0l0 24.0l-24.0 0z" fill-rule="evenodd"/><path fill="#000000" d="m190.182 36.92213l-1.484375 0l0 2.578125l4.078125 0l0 -2.578125l-1.453125 0l0 -1.734375l4.578125 0l0 1.734375l-1.40625 0l0 7.203125l1.40625 0l0 1.734375l-4.578125 0l0 -1.734375l1.453125 0l0 -2.890625l-4.078125 0l0 2.890625l1.484375 0l0 1.734375l-4.609375 0l0 -1.734375l1.421875 0l0 -7.203125l-1.421875 0l0 -1.734375l4.609375 0l0 1.734375z" fill-rule="nonzero"/><path fill="#d9d2e9" d="m341.65878 26.92651l24.0 0l0 24.0l-24.0 0z" fill-rule="evenodd"/><path stroke="#000000" stroke-width="2.0" stroke-linejoin="round" stroke-linecap="butt" d="m341.65878 26.92651l24.0 0l0 24.0l-24.0 0z" fill-rule="evenodd"/><path fill="#000000" d="m352.2963 36.909008l-1.71875 0l0.65625 5.34375l1.859375 -5.09375l1.234375 0l1.890625 5.046875l0.625 -5.296875l-1.734375 0l0 -1.734375l4.265625 0l0 1.734375l-0.890625 0l-1.203125 8.9375l-1.453125 0l-2.15625 -5.59375l-2.109375 5.59375l-1.46875 0l-1.1875 -8.9375l-0.875 0l0 -1.734375l4.265625 0l0 1.734375z" fill-rule="nonzero"/><path fill="#d9d2e9" d="m365.6601 26.92651l24.0 0l0 24.0l-24.0 0z" fill-rule="evenodd"/><path stroke="#000000" stroke-width="2.0" stroke-linejoin="round" stroke-linecap="butt" d="m365.6601 26.92651l24.0 0l0 24.0l-24.0 0z" fill-rule="evenodd"/><path fill="#000000" d="m377.09448 36.909008l-0.96875 0l1.59375 2.046875l1.546875 -2.046875l-0.828125 0l0 -1.734375l4.015625 0l0 1.734375l-1.234375 0l-2.546875 3.359375l2.921875 3.84375l1.203125 0l0 1.734375l-4.328125 0l0 -1.734375l1.109375 0l-1.921875 -2.5625l-1.96875 2.5625l1.4375 0l0 1.734375l-4.59375 0l0 -1.734375l1.1875 0l2.96875 -3.84375l-2.59375 -3.359375l-1.25 0l0 -1.734375l4.25 0l0 1.734375z" fill-rule="nonzero"/><path fill="#d9d2e9" d="m389.6614 26.92651l24.0 0l0 24.0l-24.0 0z" fill-rule="evenodd"/><path stroke="#000000" stroke-width="2.0" stroke-linejoin="round" stroke-linecap="butt" d="m389.6614 26.92651l24.0 0l0 24.0l-24.0 0z" fill-rule="evenodd"/><path fill="#000000" d="m400.84576 36.909008l-0.96875 0l1.875 3.15625l1.90625 -3.15625l-1.015625 0l0 -1.734375l4.296875 0l0 1.734375l-1.4375 0l-2.90625 4.8125l0 2.390625l2.21875 0l0 1.734375l-6.21875 0l0 -1.734375l2.265625 0l0 -2.390625l-2.90625 -4.8125l-1.40625 0l0 -1.734375l4.296875 0l0 1.734375z" fill-rule="nonzero"/><path fill="#d9d2e9" d="m413.66272 26.92651l24.0 0l0 24.0l-24.0 0z" fill-rule="evenodd"/><path stroke="#000000" stroke-width="2.0" stroke-linejoin="round" stroke-linecap="butt" d="m413.66272 26.92651l24.0 0l0 24.0l-24.0 0z" fill-rule="evenodd"/><path fill="#000000" d="m429.4877 36.409008l-5.6875 7.703125l4.375 0l0 -2.625l1.71875 0l0 4.359375l-8.40625 0l0 -1.328125l5.609375 -7.609375l-3.828125 0l0 2.359375l-1.703125 0l0 -4.09375l7.921875 0l0 1.234375z" fill-rule="nonzero"/><path fill="#d9d9d9" d="m143.5853 92.01837l24.0 0l0 23.04l-12.0 5.760002l-12.0 -5.760002z" fill-rule="evenodd"/><path stroke="#000000" stroke-width="2.0" stroke-linejoin="round" stroke-linecap="butt" d="m143.5853 92.01837l24.0 0l0 23.04l-12.0 5.760002l-12.0 -5.760002z" fill-rule="evenodd"/><path fill="#000000" d="m148.17514 99.7465l0 -2.296875l2.296875 0l13.6875 13.671875l0 2.296875l-2.3125 0l-13.671875 -13.671875zm2.296875 13.671875l-2.296875 0l0 -2.296875l5.28125 -5.265625l2.28125 0l0 2.296875l-5.265625 5.265625zm8.40625 -8.390625l-2.296875 0l0 -2.3125l5.265625 -5.265625l2.3125 0l0 2.296875l-5.28125 5.28125z" fill-rule="nonzero"/><path fill="#000000" fill-opacity="0.0" d="m155.5853 120.818375l24.0 20.440948" fill-rule="evenodd"/><path stroke="#000000" stroke-width="2.0" stroke-linejoin="round" stroke-linecap="butt" d="m155.5853 120.818375l14.864426 12.66011" fill-rule="evenodd"/><path fill="#000000" stroke="#000000" stroke-width="2.0" stroke-linecap="butt" d="m168.30775 135.99341l9.051666 3.3701172l-4.7677155 -8.399948z" fill-rule="evenodd"/><path fill="#d9d9d9" d="m191.5853 92.01837l24.0 0l0 23.04l-12.0 5.760002l-12.0 -5.760002z" fill-rule="evenodd"/><path stroke="#000000" stroke-width="2.0" stroke-linejoin="round" stroke-linecap="butt" d="m191.5853 92.01837l24.0 0l0 23.04l-12.0 5.760002l-12.0 -5.760002z" fill-rule="evenodd"/><path fill="#000000" d="m196.17514 99.7465l0 -2.296875l2.296875 0l13.6875 13.671875l0 2.296875l-2.3125 0l-13.671875 -13.671875zm2.296875 13.671875l-2.296875 0l0 -2.296875l5.28125 -5.265625l2.28125 0l0 2.296875l-5.265625 5.265625zm8.40625 -8.390625l-2.296875 0l0 -2.3125l5.265625 -5.265625l2.3125 0l0 2.296875l-5.28125 5.28125z" fill-rule="nonzero"/><path fill="#000000" fill-opacity="0.0" d="m179.5853 170.07034l0 26.614166" fill-rule="evenodd"/><path stroke="#000000" stroke-width="2.0" stroke-linejoin="round" stroke-linecap="butt" d="m179.5853 170.07034l0 14.614166" fill-rule="evenodd"/><path fill="#000000" stroke="#000000" stroke-width="2.0" stroke-linecap="butt" d="m176.28183 184.68451l3.3034668 9.076187l3.3034668 -9.076187z" fill-rule="evenodd"/><path fill="#d9d9d9" d="m167.5853 141.27034l24.0 0l0 23.040009l-12.0 5.7599945l-12.0 -5.7599945z" fill-rule="evenodd"/><path stroke="#000000" stroke-width="2.0" stroke-linejoin="round" stroke-linecap="butt" d="m167.5853 141.27034l24.0 0l0 23.040009l-12.0 5.7599945l-12.0 -5.7599945z" fill-rule="evenodd"/><path fill="#000000" d="m177.47874 161.35284l0 -6.203125l-6.234375 0l0 -4.265625l6.234375 0l0 -6.203125l4.171875 0l0 6.203125l6.265625 0l0 4.265625l-6.265625 0l0 6.203125l-4.171875 0z" fill-rule="nonzero"/><path fill="#000000" fill-opacity="0.0" d="m203.5853 120.818375l-24.0 20.440948" fill-rule="evenodd"/><path stroke="#000000" stroke-width="2.0" stroke-linejoin="round" stroke-linecap="butt" d="m203.5853 120.818375l-14.86441 12.66011" fill-rule="evenodd"/><path fill="#000000" stroke="#000000" stroke-width="2.0" stroke-linecap="butt" d="m186.5789 130.96358l-4.7677155 8.399948l9.051666 -3.3701172z" fill-rule="evenodd"/><path fill="#d9d9d9" d="m333.4042 92.01575l24.0 0l0 23.04l-12.0 5.760002l-12.0 -5.760002z" fill-rule="evenodd"/><path stroke="#000000" stroke-width="2.0" stroke-linejoin="round" stroke-linecap="butt" d="m333.4042 92.01575l24.0 0l0 23.04l-12.0 5.760002l-12.0 -5.760002z" fill-rule="evenodd"/><path fill="#000000" d="m337.99405 99.74387l0 -2.296875l2.296875 0l13.6875 13.671875l0 2.296875l-2.3125 0l-13.671875 -13.671875zm2.296875 13.671875l-2.296875 0l0 -2.296875l5.28125 -5.265625l2.28125 0l0 2.296875l-5.265625 5.265625zm8.40625 -8.390625l-2.296875 0l0 -2.3125l5.265625 -5.265625l2.3125 0l0 2.296875l-5.28125 5.28125z" fill-rule="nonzero"/><path fill="#000000" fill-opacity="0.0" d="m345.4042 120.81575l24.0 20.440948" fill-rule="evenodd"/><path stroke="#000000" stroke-width="2.0" stroke-linejoin="round" stroke-linecap="butt" d="m345.4042 120.81575l14.86441 12.66011" fill-rule="evenodd"/><path fill="#000000" stroke="#000000" stroke-width="2.0" stroke-linecap="butt" d="m358.12665 135.99078l9.051666 3.3701172l-4.7677307 -8.399948z" fill-rule="evenodd"/><path fill="#d9d9d9" d="m381.4042 92.01575l24.0 0l0 23.04l-12.0 5.760002l-12.0 -5.760002z" fill-rule="evenodd"/><path stroke="#000000" stroke-width="2.0" stroke-linejoin="round" stroke-linecap="butt" d="m381.4042 92.01575l24.0 0l0 23.04l-12.0 5.760002l-12.0 -5.760002z" fill-rule="evenodd"/><path fill="#000000" d="m385.99405 99.74387l0 -2.296875l2.296875 0l13.6875 13.671875l0 2.296875l-2.3125 0l-13.671875 -13.671875zm2.296875 13.671875l-2.296875 0l0 -2.296875l5.28125 -5.265625l2.28125 0l0 2.296875l-5.265625 5.265625zm8.40625 -8.390625l-2.296875 0l0 -2.3125l5.265625 -5.265625l2.3125 0l0 2.296875l-5.28125 5.28125z" fill-rule="nonzero"/><path fill="#000000" fill-opacity="0.0" d="m369.4042 170.06772l0 26.614166" fill-rule="evenodd"/><path stroke="#000000" stroke-width="2.0" stroke-linejoin="round" stroke-linecap="butt" d="m369.4042 170.06772l0 14.614166" fill-rule="evenodd"/><path fill="#000000" stroke="#000000" stroke-width="2.0" stroke-linecap="butt" d="m366.10074 184.68188l3.3034668 9.076187l3.3034668 -9.076187z" fill-rule="evenodd"/><path fill="#d9d9d9" d="m357.4042 141.26772l24.0 0l0 23.040009l-12.0 5.7599945l-12.0 -5.7599945z" fill-rule="evenodd"/><path stroke="#000000" stroke-width="2.0" stroke-linejoin="round" stroke-linecap="butt" d="m357.4042 141.26772l24.0 0l0 23.040009l-12.0 5.7599945l-12.0 -5.7599945z" fill-rule="evenodd"/><path fill="#000000" d="m367.29764 161.35022l0 -6.203125l-6.234375 0l0 -4.265625l6.234375 0l0 -6.203125l4.171875 0l0 6.203125l6.265625 0l0 4.265625l-6.265625 0l0 6.203125l-4.171875 0z" fill-rule="nonzero"/><path fill="#000000" fill-opacity="0.0" d="m393.4042 120.81575l-24.0 20.440948" fill-rule="evenodd"/><path stroke="#000000" stroke-width="2.0" stroke-linejoin="round" stroke-linecap="butt" d="m393.4042 120.81575l-14.86441 12.66011" fill-rule="evenodd"/><path fill="#000000" stroke="#000000" stroke-width="2.0" stroke-linecap="butt" d="m376.3978 130.96095l-4.7677 8.399948l9.051666 -3.3701172z" fill-rule="evenodd"/><path fill="#d9d9d9" d="m238.49475 92.01575l24.0 0l0 23.04l-12.0 5.760002l-12.0 -5.760002z" fill-rule="evenodd"/><path stroke="#000000" stroke-width="2.0" stroke-linejoin="round" stroke-linecap="butt" d="m238.49475 92.01575l24.0 0l0 23.04l-12.0 5.760002l-12.0 -5.760002z" fill-rule="evenodd"/><path fill="#000000" d="m243.0846 99.74387l0 -2.296875l2.296875 0l13.6875 13.671875l0 2.296875l-2.3125 0l-13.671875 -13.671875zm2.296875 13.671875l-2.296875 0l0 -2.296875l5.28125 -5.265625l2.28125 0l0 2.296875l-5.265625 5.265625zm8.40625 -8.390625l-2.296875 0l0 -2.3125l5.265625 -5.265625l2.3125 0l0 2.296875l-5.28125 5.28125z" fill-rule="nonzero"/><path fill="#000000" fill-opacity="0.0" d="m250.49475 120.81575l24.0 20.440948" fill-rule="evenodd"/><path stroke="#000000" stroke-width="2.0" stroke-linejoin="round" stroke-linecap="butt" d="m250.49475 120.81575l14.86441 12.66011" fill-rule="evenodd"/><path fill="#000000" stroke="#000000" stroke-width="2.0" stroke-linecap="butt" d="m263.2172 135.99078l9.051666 3.3701172l-4.7677 -8.399948z" fill-rule="evenodd"/><path fill="#d9d9d9" d="m286.49475 92.01575l24.0 0l0 23.04l-12.0 5.760002l-12.0 -5.760002z" fill-rule="evenodd"/><path stroke="#000000" stroke-width="2.0" stroke-linejoin="round" stroke-linecap="butt" d="m286.49475 92.01575l24.0 0l0 23.04l-12.0 5.760002l-12.0 -5.760002z" fill-rule="evenodd"/><path fill="#000000" d="m291.0846 99.74387l0 -2.296875l2.296875 0l13.6875 13.671875l0 2.296875l-2.3125 0l-13.671875 -13.671875zm2.296875 13.671875l-2.296875 0l0 -2.296875l5.28125 -5.265625l2.28125 0l0 2.296875l-5.265625 5.265625zm8.40625 -8.390625l-2.296875 0l0 -2.3125l5.265625 -5.265625l2.3125 0l0 2.296875l-5.28125 5.28125z" fill-rule="nonzero"/><path fill="#000000" fill-opacity="0.0" d="m274.49475 170.06772l0 26.614166" fill-rule="evenodd"/><path stroke="#000000" stroke-width="2.0" stroke-linejoin="round" stroke-linecap="butt" d="m274.49475 170.06772l0 14.614166" fill-rule="evenodd"/><path fill="#000000" stroke="#000000" stroke-width="2.0" stroke-linecap="butt" d="m271.19128 184.68188l3.3034668 9.076187l3.3034668 -9.076187z" fill-rule="evenodd"/><path fill="#d9d9d9" d="m262.49475 141.26772l24.0 0l0 23.040009l-12.0 5.7599945l-12.0 -5.7599945z" fill-rule="evenodd"/><path stroke="#000000" stroke-width="2.0" stroke-linejoin="round" stroke-linecap="butt" d="m262.49475 141.26772l24.0 0l0 23.040009l-12.0 5.7599945l-12.0 -5.7599945z" fill-rule="evenodd"/><path fill="#000000" d="m272.38818 161.35022l0 -6.203125l-6.234375 0l0 -4.265625l6.234375 0l0 -6.203125l4.171875 0l0 6.203125l6.265625 0l0 4.265625l-6.265625 0l0 6.203125l-4.171875 0z" fill-rule="nonzero"/><path fill="#000000" fill-opacity="0.0" d="m298.49475 120.81575l-24.0 20.440948" fill-rule="evenodd"/><path stroke="#000000" stroke-width="2.0" stroke-linejoin="round" stroke-linecap="butt" d="m298.49475 120.81575l-14.86441 12.66011" fill-rule="evenodd"/><path fill="#000000" stroke="#000000" stroke-width="2.0" stroke-linecap="butt" d="m281.48834 130.96095l-4.7677 8.399948l9.051666 -3.3701172z" fill-rule="evenodd"/><path fill="#000000" fill-opacity="0.0" d="m22.692913 50.939632l36.88189 41.070866" fill-rule="evenodd"/><path stroke="#000000" stroke-width="2.0" stroke-linejoin="round" stroke-linecap="butt" d="m22.692913 50.939632l28.864155 32.14249" fill-rule="evenodd"/><path fill="#000000" stroke="#000000" stroke-width="2.0" stroke-linecap="butt" d="m49.099186 85.289314l8.522091 4.545784l-3.606327 -8.960167z" fill-rule="evenodd"/><path fill="#000000" fill-opacity="0.0" d="m257.65353 50.939632l-198.07874 41.070866" fill-rule="evenodd"/><path stroke="#000000" stroke-width="2.0" stroke-linejoin="round" stroke-linecap="butt" d="m257.65353 50.939632l-186.32864 38.634533" fill-rule="evenodd"/><path fill="#000000" stroke="#000000" stroke-width="2.0" stroke-linecap="butt" d="m70.65418 86.3395l-8.216469 5.077385l9.557861 1.3919449z" fill-rule="evenodd"/><path fill="#000000" fill-opacity="0.0" d="m46.694218 50.939632l60.881893 41.070866" fill-rule="evenodd"/><path stroke="#000000" stroke-width="2.0" stroke-linejoin="round" stroke-linecap="butt" d="m46.694214 50.939632l50.93386 34.359936" fill-rule="evenodd"/><path fill="#000000" stroke="#000000" stroke-width="2.0" stroke-linecap="butt" d="m95.780624 88.03815l9.371635 2.3372269l-5.6767426 -7.814392z" fill-rule="evenodd"/><path fill="#000000" fill-opacity="0.0" d="m281.65485 50.939632l-174.07874 41.070866" fill-rule="evenodd"/><path stroke="#000000" stroke-width="2.0" stroke-linejoin="round" stroke-linecap="butt" d="m281.65485 50.939632l-162.3994 38.315327" fill-rule="evenodd"/><path fill="#000000" stroke="#000000" stroke-width="2.0" stroke-linecap="butt" d="m118.49688 86.03977l-8.075096 5.2993393l9.592232 1.1310425z" fill-rule="evenodd"/><path fill="#000000" fill-opacity="0.0" d="m70.695526 50.939632l84.88188 41.070866" fill-rule="evenodd"/><path stroke="#000000" stroke-width="2.0" stroke-linejoin="round" stroke-linecap="butt" d="m70.695526 50.939632l74.079926 35.844242" fill-rule="evenodd"/><path fill="#000000" stroke="#000000" stroke-width="2.0" stroke-linecap="butt" d="m143.33661 89.75753l9.608902 0.9794998l-6.7312317 -6.926819z" fill-rule="evenodd"/><path fill="#000000" fill-opacity="0.0" d="m305.65616 50.939632l-150.07875 41.070866" fill-rule="evenodd"/><path stroke="#000000" stroke-width="2.0" stroke-linejoin="round" stroke-linecap="butt" d="m305.65616 50.939632l-138.50433 37.903393" fill-rule="evenodd"/><path fill="#000000" stroke="#000000" stroke-width="2.0" stroke-linecap="butt" d="m166.27985 85.656715l-7.882324 5.5820236l9.6262665 0.7905884z" fill-rule="evenodd"/><path fill="#000000" fill-opacity="0.0" d="m94.69683 50.939632l108.88189 41.070866" fill-rule="evenodd"/><path stroke="#000000" stroke-width="2.0" stroke-linejoin="round" stroke-linecap="butt" d="m94.69683 50.939632l97.65409 36.835682" fill-rule="evenodd"/><path fill="#000000" stroke="#000000" stroke-width="2.0" stroke-linecap="butt" d="m191.18503 90.866196l9.658035 0.11239624l-7.326233 -6.294159z" fill-rule="evenodd"/><path fill="#000000" fill-opacity="0.0" d="m329.65747 50.939632l-126.07875 41.070866" fill-rule="evenodd"/><path stroke="#000000" stroke-width="2.0" stroke-linejoin="round" stroke-linecap="butt" d="m329.65747 50.939632l-114.66887 37.35403" fill-rule="evenodd"/><path fill="#000000" stroke="#000000" stroke-width="2.0" stroke-linecap="butt" d="m213.9654 85.15266l-7.606659 5.9522324l9.653061 0.3297882z" fill-rule="evenodd"/><path fill="#000000" fill-opacity="0.0" d="m118.69685 50.939632l131.81102 41.070866" fill-rule="evenodd"/><path stroke="#000000" stroke-width="2.0" stroke-linejoin="round" stroke-linecap="butt" d="m118.69685 50.939632l120.354294 37.50108" fill-rule="evenodd"/><path fill="#000000" stroke="#000000" stroke-width="2.0" stroke-linecap="butt" d="m238.06842 91.59462l9.64801 -0.4539032l-7.682556 -5.8539124z" fill-rule="evenodd"/><path fill="#000000" fill-opacity="0.0" d="m353.65878 50.92651l-103.1496 41.10236" fill-rule="evenodd"/><path stroke="#000000" stroke-width="2.0" stroke-linejoin="round" stroke-linecap="butt" d="m353.65878 50.92651l-92.002014 36.66035" fill-rule="evenodd"/><path fill="#000000" stroke="#000000" stroke-width="2.0" stroke-linecap="butt" d="m260.43393 84.51806l-7.2086334 6.4285126l9.654312 -0.2909088z" fill-rule="evenodd"/><path fill="#000000" fill-opacity="0.0" d="m377.6601 50.92651l-79.1496 41.10236" fill-rule="evenodd"/><path stroke="#000000" stroke-width="2.0" stroke-linejoin="round" stroke-linecap="butt" d="m377.6601 50.92651l-68.49994 35.572002" fill-rule="evenodd"/><path fill="#000000" stroke="#000000" stroke-width="2.0" stroke-linecap="butt" d="m307.6377 83.56678l-6.5324097 7.1146164l9.577301 -1.2511597z" fill-rule="evenodd"/><path fill="#000000" fill-opacity="0.0" d="m401.6614 50.92651l-56.251984 41.10236" fill-rule="evenodd"/><path stroke="#000000" stroke-width="2.0" stroke-linejoin="round" stroke-linecap="butt" d="m401.6614 50.92651l-46.562866 34.02271" fill-rule="evenodd"/><path fill="#000000" stroke="#000000" stroke-width="2.0" stroke-linecap="butt" d="m353.1496 82.28192l-5.3793945 8.021988l9.277283 -2.6873932z" fill-rule="evenodd"/><path fill="#000000" fill-opacity="0.0" d="m425.66272 50.92651l-32.251984 41.10236" fill-rule="evenodd"/><path stroke="#000000" stroke-width="2.0" stroke-linejoin="round" stroke-linecap="butt" d="m425.6627 50.92651l-24.844208 31.661777" fill-rule="evenodd"/><path fill="#000000" stroke="#000000" stroke-width="2.0" stroke-linecap="butt" d="m398.2196 80.549l-3.0039673 9.179665l8.201752 -5.1011047z" fill-rule="evenodd"/><path fill="#000000" fill-opacity="0.0" d="m142.69815 50.939632l155.81104 41.070866" fill-rule="evenodd"/><path stroke="#000000" stroke-width="2.0" stroke-linejoin="round" stroke-linecap="butt" d="m142.69815 50.939632l144.20737 38.01221" fill-rule="evenodd"/><path fill="#000000" stroke="#000000" stroke-width="2.0" stroke-linecap="butt" d="m286.06354 92.1462l9.618408 -0.8809433l-7.934387 -5.5077667z" fill-rule="evenodd"/><path fill="#000000" fill-opacity="0.0" d="m166.69946 50.939632l178.70865 41.070866" fill-rule="evenodd"/><path stroke="#000000" stroke-width="2.0" stroke-linejoin="round" stroke-linecap="butt" d="m166.69945 50.939632l167.01357 38.38309" fill-rule="evenodd"/><path fill="#000000" stroke="#000000" stroke-width="2.0" stroke-linecap="butt" d="m332.9731 92.54226l9.58551 -1.1866379l-8.105682 -5.252434z" fill-rule="evenodd"/><path fill="#000000" fill-opacity="0.0" d="m190.70076 50.939632l202.70866 41.070866" fill-rule="evenodd"/><path stroke="#000000" stroke-width="2.0" stroke-linejoin="round" stroke-linecap="butt" d="m190.70076 50.939632l190.94762 38.68796" fill-rule="evenodd"/><path fill="#000000" stroke="#000000" stroke-width="2.0" stroke-linecap="butt" d="m380.9924 92.86527l9.551422 -1.4353714l-8.239441 -5.0399857z" fill-rule="evenodd"/></g></svg>