<svg version="1.1" viewBox="0.0 0.0 723.8740157480315 250.20472440944883" fill="none" stroke="none" stroke-linecap="square" stroke-miterlimit="10" xmlns:xlink="http://www.w3.org/1999/xlink" xmlns="http://www.w3.org/2000/svg"><clipPath id="p.0"><path d="m0 0l723.874 0l0 250.20473l-723.874 0l0 -250.20473z" clip-rule="nonzero"/></clipPath><g clip-path="url(#p.0)"><path fill="#000000" fill-opacity="0.0" d="m0 0l723.874 0l0 250.20473l-723.874 0z" fill-rule="evenodd"/><path fill="#ffffff" d="m0 0l723.874 0l0 250.20473l-723.874 0z" fill-rule="evenodd"/><path stroke="#000000" stroke-width="1.0" stroke-linejoin="round" stroke-linecap="butt" d="m0 0l723.874 0l0 250.20473l-723.874 0z" fill-rule="evenodd"/><path fill="#d9d9d9" d="m209.77953 191.11285l304.31494 0l0 51.2126l-304.31494 0z" fill-rule="evenodd"/><path stroke="#000000" stroke-width="2.0" stroke-linejoin="round" stroke-linecap="butt" d="m209.77953 191.11285l304.31494 0l0 51.2126l-304.31494 0z" fill-rule="evenodd"/><path fill="#000000" d="m338.91824 232.93295q0 1.765625 -0.71875 3.015625q-0.703125 1.25 -1.84375 1.890625q-1.140625 0.625 -2.359375 0.625q-1.34375 0 -2.484375 -0.65625q-1.140625 -0.65625 -1.8125 -1.90625q-0.671875 -1.25 -0.671875 -2.9375q0 -1.53125 0.625 -2.8125q0.640625 -1.296875 1.765625 -2.03125q1.140625 -0.75 2.578125 -0.75q1.453125 0 2.578125 0.765625q1.125 0.765625 1.734375 2.03125q0.609375 1.265625 0.609375 2.765625zm-4.921875 3.84375q1.0 0 1.71875 -0.546875q0.734375 -0.5625 1.109375 -1.46875q0.390625 -0.90625 0.390625 -1.90625q0 -0.9375 -0.390625 -1.796875q-0.375 -0.875 -1.109375 -1.40625q-0.734375 -0.546875 -1.75 -0.546875q-0.90625 0 -1.640625 0.53125q-0.734375 0.53125 -1.140625 1.40625q-0.40625 0.859375 -0.40625 1.875q0 1.03125 0.390625 1.921875q0.390625 0.890625 1.125 1.421875q0.75 0.515625 1.703125 0.515625zm10.818756 -7.46875l-1.71875 0l0 5.34375q0 1.109375 0.53125 1.59375q0.53125 0.484375 1.65625 0.484375q1.25 0 1.765625 -0.546875q0.515625 -0.546875 0.515625 -1.859375l0 -5.015625l-1.75 0l0 -1.734375l4.890625 0l0 1.734375l-1.421875 0l0 5.40625q0 0.921875 -0.28125 1.671875q-0.28125 0.734375 -0.796875 1.1875q-0.515625 0.453125 -1.359375 0.671875q-0.828125 0.21875 -1.546875 0.21875q-1.0625 0 -1.78125 -0.25q-0.703125 -0.25 -1.21875 -0.765625q-0.921875 -0.859375 -0.921875 -2.9375l0 -5.203125l-1.453125 0l0 -1.734375l4.890625 0l0 1.734375zm16.428131 2.328125l-1.734375 0l0 -2.328125l-2.265625 0l0 7.203125l2.25 0l0 1.734375l-6.234375 0l0 -1.734375l2.234375 0l0 -7.203125l-2.265625 0l0 2.328125l-1.734375 0l0 -4.0625l9.75 0l0 4.0625zm10.865631 -0.46875q0 1.0 -0.484375 1.78125q-0.46875 0.78125 -1.296875 1.21875q-0.828125 0.4375 -1.828125 0.4375l-2.25 0l0 1.90625l2.265625 0l0 1.734375l-5.453125 0l0 -1.734375l1.46875 0l0 -7.203125l-1.453125 0l0 -1.734375l4.921875 0q1.9375 0 3.015625 0.953125q1.09375 0.953125 1.09375 2.640625zm-1.71875 -0.046875q0 -0.828125 -0.609375 -1.3125q-0.609375 -0.5 -1.78125 -0.5l-1.75 0l0 3.5625l1.9375 0q2.203125 0 2.203125 -1.75zm8.006256 -1.8125l-1.71875 0l0 5.34375q0 1.109375 0.53125 1.59375q0.53125 0.484375 1.65625 0.484375q1.25 0 1.765625 -0.546875q0.515625 -0.546875 0.515625 -1.859375l0 -5.015625l-1.75 0l0 -1.734375l4.890625 0l0 1.734375l-1.421875 0l0 5.40625q0 0.921875 -0.28125 1.671875q-0.28125 0.734375 -0.796875 1.1875q-0.515625 0.453125 -1.359375 0.671875q-0.828125 0.21875 -1.546875 0.21875q-1.0625 0 -1.78125 -0.25q-0.703125 -0.25 -1.21875 -0.765625q-0.921875 -0.859375 -0.921875 -2.9375l0 -5.203125l-1.453125 0l0 -1.734375l4.890625 0l0 1.734375zm16.428131 2.328125l-1.734375 0l0 -2.328125l-2.265625 0l0 7.203125l2.25 0l0 1.734375l-6.234375 0l0 -1.734375l2.234375 0l0 -7.203125l-2.265625 0l0 2.328125l-1.734375 0l0 -4.0625l9.75 0l0 4.0625z" fill-rule="nonzero"/><path fill="#d9d9d9" d="m259.53543 6.0288715l202.86615 0l0 51.2126l-202.86615 0z" fill-rule="evenodd"/><path stroke="#000000" stroke-width="2.0" stroke-linejoin="round" stroke-linecap="butt" d="m259.53543 6.0288715l202.86615 0l0 51.2126l-202.86615 0z" fill-rule="evenodd"/><path fill="#000000" d="m275.5403 16.41762q0 1.125 -0.640625 1.890625q-0.625 0.765625 -1.84375 1.0625l2.15625 2.84375l1.390625 0l0 1.734375l-2.5 0q-0.421875 -0.953125 -1.125 -1.921875l-1.671875 -2.3125l-1.4375 0l0 2.5l1.375 0l0 1.734375l-4.5625 0l0 -1.734375l1.46875 0l0 -7.203125l-1.390625 0l0 -1.734375l5.328125 0q1.78125 0 2.609375 0.921875q0.84375 0.90625 0.84375 2.21875zm-1.703125 0.015625q0 -0.71875 -0.40625 -1.0625q-0.40625 -0.359375 -1.171875 -0.359375l-2.390625 0l0 2.96875l1.796875 0q1.09375 0 1.625 -0.375q0.546875 -0.390625 0.546875 -1.171875zm12.725006 -1.421875l-3.015625 0l0 7.203125l3.015625 0l0 1.734375l-7.875 0l0 -1.734375l3.078125 0l0 -7.203125l-3.078125 0l0 -1.734375l7.875 0l0 1.734375zm10.178131 -1.078125l0 -0.859375l1.734375 0l0 4.359375l-1.734375 0l0 -1.71875q-0.875 -0.546875 -1.453125 -0.734375q-0.5625 -0.203125 -1.21875 -0.203125q-0.9375 0 -1.703125 0.484375q-0.765625 0.484375 -1.203125 1.375q-0.4375 0.875 -0.4375 2.046875q0 1.78125 0.921875 2.78125q0.921875 0.984375 2.6875 0.984375q0.59375 0 0.96875 -0.03125q0.390625 -0.046875 1.28125 -0.28125l0 -1.65625l-2.640625 0l0 -1.734375l5.171875 0l0 1.734375l-0.828125 0l0 2.734375q-2.328125 0.953125 -3.953125 0.953125q-1.515625 0 -2.734375 -0.671875q-1.21875 -0.671875 -1.921875 -1.890625q-0.703125 -1.21875 -0.703125 -2.84375q0 -1.65625 0.65625 -2.953125q0.671875 -1.296875 1.828125 -2.015625q1.15625 -0.71875 2.59375 -0.71875q0.765625 0 1.359375 0.1875q0.59375 0.1875 1.328125 0.671875zm7.740631 1.078125l-1.484375 0l0 2.578125l4.078125 0l0 -2.578125l-1.453125 0l0 -1.734375l4.578125 0l0 1.734375l-1.40625 0l0 7.203125l1.40625 0l0 1.734375l-4.578125 0l0 -1.734375l1.453125 0l0 -2.890625l-4.078125 0l0 2.890625l1.484375 0l0 1.734375l-4.609375 0l0 -1.734375l1.421875 0l0 -7.203125l-1.421875 0l0 -1.734375l4.609375 0l0 1.734375zm16.615631 2.328125l-1.734375 0l0 -2.328125l-2.265625 0l0 7.203125l2.25 0l0 1.734375l-6.234375 0l0 -1.734375l2.234375 0l0 -7.203125l-2.265625 0l0 2.328125l-1.734375 0l0 -4.0625l9.75 0l0 4.0625zm17.653137 1.25l2.015625 -5.3125l3.640625 0l0 1.734375l-1.453125 0l0.25 7.203125l1.0 0l0 1.734375l-4.453125 0l0 -1.734375l1.734375 0l-0.265625 -5.890625l-1.96875 5.25l-1.109375 0l-1.890625 -5.296875l-0.296875 5.9375l1.765625 0l0 1.734375l-4.53125 0l0 -1.734375l1.03125 0l0.296875 -7.203125l-1.40625 0l0 -1.734375l3.71875 0l1.921875 5.3125zm10.693756 -3.578125l-1.71875 0l0 5.34375q0 1.109375 0.53125 1.59375q0.53125 0.484375 1.65625 0.484375q1.25 0 1.765625 -0.546875q0.515625 -0.546875 0.515625 -1.859375l0 -5.015625l-1.75 0l0 -1.734375l4.890625 0l0 1.734375l-1.421875 0l0 5.40625q0 0.921875 -0.28125 1.671875q-0.28125 0.734375 -0.796875 1.1875q-0.515625 0.453125 -1.359375 0.671875q-0.828125 0.21875 -1.546875 0.21875q-1.0625 0 -1.78125 -0.25q-0.703125 -0.25 -1.21875 -0.765625q-0.921875 -0.859375 -0.921875 -2.9375l0 -5.203125l-1.453125 0l0 -1.734375l4.890625 0l0 1.734375zm12.600006 0l-2.234375 0l0 7.203125l4.234375 0l0 -3.28125l1.734375 0l0 5.015625l-9.453125 0l0 -1.734375l1.765625 0l0 -7.203125l-1.765625 0l0 -1.734375l5.71875 0l0 1.734375zm15.021881 2.328125l-1.734375 0l0 -2.328125l-2.265625 0l0 7.203125l2.25 0l0 1.734375l-6.234375 0l0 -1.734375l2.234375 0l0 -7.203125l-2.265625 0l0 2.328125l-1.734375 0l0 -4.0625l9.75 0l0 4.0625zm16.465637 -2.328125l-1.4375 0l2.609375 6.6875l2.53125 -6.6875l-1.671875 0l0 -1.734375l4.609375 0l0 1.734375l-1.25 0l-3.390625 8.9375l-1.734375 0l-3.484375 -8.9375l-1.375 0l0 -1.734375l4.59375 0l0 1.734375zm16.693756 7.203125l1.046875 0l0 1.734375l-4.359375 0l0 -1.734375l1.5625 0l-0.546875 -1.265625l-4.328125 0l-0.546875 1.265625l1.609375 0l0 1.734375l-4.4375 0l0 -1.734375l1.09375 0l3.046875 -7.203125l-2.296875 0l0 -1.734375l4.5 0l3.65625 8.9375zm-2.984375 -3.0l-1.453125 -3.453125l-1.46875 3.453125l2.921875 0zm10.771881 -4.203125l-2.234375 0l0 7.203125l4.234375 0l0 -3.28125l1.734375 0l0 5.015625l-9.453125 0l0 -1.734375l1.765625 0l0 -7.203125l-1.765625 0l0 -1.734375l5.71875 0l0 1.734375zm9.787506 0l-1.71875 0l0 5.34375q0 1.109375 0.53125 1.59375q0.53125 0.484375 1.65625 0.484375q1.25 0 1.765625 -0.546875q0.515625 -0.546875 0.515625 -1.859375l0 -5.015625l-1.75 0l0 -1.734375l4.890625 0l0 1.734375l-1.421875 0l0 5.40625q0 0.921875 -0.28125 1.671875q-0.28125 0.734375 -0.796875 1.1875q-0.515625 0.453125 -1.359375 0.671875q-0.828125 0.21875 -1.546875 0.21875q-1.0625 0 -1.78125 -0.25q-0.703125 -0.25 -1.21875 -0.765625q-0.921875 -0.859375 -0.921875 -2.9375l0 -5.203125l-1.453125 0l0 -1.734375l4.890625 0l0 1.734375zm16.209381 2.21875l-1.734375 0l0 -2.21875l-4.46875 0l0 2.65625l1.984375 0l0 -1.234375l1.734375 0l0 4.171875l-1.734375 0l0 -1.234375l-1.984375 0l0 2.84375l4.46875 0l0 -2.171875l1.734375 0l0 3.90625l-9.390625 0l0 -1.734375l1.484375 0l0 -7.203125l-1.4375 0l0 -1.734375l9.34375 0l0 3.953125zm8.740631 -3.734375l0 -0.421875l1.71875 0l0 4.015625l-1.71875 0l0 -1.796875q-1.09375 -0.5 -2.03125 -0.5q-1.015625 0 -1.703125 0.5q-0.671875 0.5 -0.671875 1.1875q0 0.609375 0.390625 0.921875q0.390625 0.296875 0.953125 0.40625q0.5625 0.109375 1.5625 0.203125l0.71875 0.078125q1.34375 0.171875 2.109375 0.875q0.765625 0.6875 0.765625 1.921875q0 0.984375 -0.5625 1.734375q-0.546875 0.75 -1.515625 1.171875q-0.953125 0.40625 -2.15625 0.40625q-0.65625 0 -1.25 -0.15625q-0.59375 -0.15625 -1.34375 -0.515625l0 0.671875l-1.71875 0l0 -3.90625l1.71875 0l0 1.421875q1.265625 0.765625 2.609375 0.765625q1.21875 0 1.875 -0.40625q0.65625 -0.421875 0.65625 -1.1875q0 -0.65625 -0.515625 -0.953125q-0.515625 -0.296875 -1.765625 -0.3125q-2.09375 -0.03125 -3.1875 -0.890625q-1.09375 -0.859375 -1.09375 -2.25q0 -0.875 0.515625 -1.65625q0.515625 -0.796875 1.4375 -1.265625q0.921875 -0.484375 2.109375 -0.484375q1.15625 0 2.09375 0.421875z" fill-rule="nonzero"/><path fill="#d9d9d9" d="m24.889763 6.0288715l202.86615 0l0 51.2126l-202.86615 0z" fill-rule="evenodd"/><path stroke="#000000" stroke-width="2.0" stroke-linejoin="round" stroke-linecap="butt" d="m24.889763 6.0288715l202.86615 0l0 51.2126l-202.86615 0z" fill-rule="evenodd"/><path fill="#000000" d="m43.444656 15.01137l-2.234375 0l0 7.203125l4.234375 0l0 -3.28125l1.734375 0l0 5.015625l-9.453125 0l0 -1.734375l1.765625 0l0 -7.203125l-1.765625 0l0 -1.734375l5.71875 0l0 1.734375zm14.803131 2.21875l-1.734375 0l0 -2.21875l-4.46875 0l0 2.65625l1.984375 0l0 -1.234375l1.734375 0l0 4.171875l-1.734375 0l0 -1.234375l-1.984375 0l0 2.84375l4.46875 0l0 -2.171875l1.734375 0l0 3.90625l-9.390625 0l0 -1.734375l1.484375 0l0 -7.203125l-1.4375 0l0 -1.734375l9.34375 0l0 3.953125zm11.318756 -0.015625l-1.734375 0l0 -2.203125l-4.375 0l0 2.671875l1.984375 0l0 -1.234375l1.71875 0l0 4.171875l-1.71875 0l0 -1.203125l-1.984375 0l0 2.796875l2.28125 0l0 1.734375l-5.40625 0l0 -1.734375l1.40625 0l0 -7.203125l-1.390625 0l0 -1.734375l9.21875 0l0 3.9375zm11.287506 0.125l-1.734375 0l0 -2.328125l-2.265625 0l0 7.203125l2.25 0l0 1.734375l-6.234375 0l0 -1.734375l2.234375 0l0 -7.203125l-2.265625 0l0 2.328125l-1.734375 0l0 -4.0625l9.75 0l0 4.0625zm17.653137 1.25l2.015625 -5.3125l3.640625 0l0 1.734375l-1.453125 0l0.25 7.203125l1.0 0l0 1.734375l-4.453125 0l0 -1.734375l1.734375 0l-0.265625 -5.890625l-1.96875 5.25l-1.109375 0l-1.890625 -5.296875l-0.296875 5.9375l1.765625 0l0 1.734375l-4.53125 0l0 -1.734375l1.03125 0l0.296875 -7.203125l-1.40625 0l0 -1.734375l3.71875 0l1.921875 5.3125zm10.693756 -3.578125l-1.71875 0l0 5.34375q0 1.109375 0.53125 1.59375q0.53125 0.484375 1.65625 0.484375q1.25 0 1.765625 -0.546875q0.515625 -0.546875 0.515625 -1.859375l0 -5.015625l-1.75 0l0 -1.734375l4.890625 0l0 1.734375l-1.421875 0l0 5.40625q0 0.921875 -0.28125 1.671875q-0.28125 0.734375 -0.796875 1.1875q-0.515625 0.453125 -1.359375 0.671875q-0.828125 0.21875 -1.546875 0.21875q-1.0625 0 -1.78125 -0.25q-0.703125 -0.25 -1.21875 -0.765625q-0.921875 -0.859375 -0.921875 -2.9375l0 -5.203125l-1.453125 0l0 -1.734375l4.890625 0l0 1.734375zm12.600006 0l-2.234375 0l0 7.203125l4.234375 0l0 -3.28125l1.734375 0l0 5.015625l-9.453125 0l0 -1.734375l1.765625 0l0 -7.203125l-1.765625 0l0 -1.734375l5.71875 0l0 1.734375zm15.021881 2.328125l-1.734375 0l0 -2.328125l-2.265625 0l0 7.203125l2.25 0l0 1.734375l-6.234375 0l0 -1.734375l2.234375 0l0 -7.203125l-2.265625 0l0 2.328125l-1.734375 0l0 -4.0625l9.75 0l0 4.0625zm16.465652 -2.328125l-1.4375153 0l2.6093903 6.6875l2.53125 -6.6875l-1.671875 0l0 -1.734375l4.609375 0l0 1.734375l-1.25 0l-3.390625 8.9375l-1.734375 0l-3.4843903 -8.9375l-1.375 0l0 -1.734375l4.5937653 0l0 1.734375zm16.693756 7.203125l1.046875 0l0 1.734375l-4.359375 0l0 -1.734375l1.5625 0l-0.546875 -1.265625l-4.328125 0l-0.546875 1.265625l1.609375 0l0 1.734375l-4.4375 0l0 -1.734375l1.09375 0l3.046875 -7.203125l-2.296875 0l0 -1.734375l4.5 0l3.65625 8.9375zm-2.984375 -3.0l-1.453125 -3.453125l-1.46875 3.453125l2.921875 0zm10.771881 -4.203125l-2.234375 0l0 7.203125l4.234375 0l0 -3.28125l1.734375 0l0 5.015625l-9.453125 0l0 -1.734375l1.765625 0l0 -7.203125l-1.765625 0l0 -1.734375l5.71875 0l0 1.734375zm9.787506 0l-1.71875 0l0 5.34375q0 1.109375 0.53125 1.59375q0.53125 0.484375 1.65625 0.484375q1.25 0 1.765625 -0.546875q0.515625 -0.546875 0.515625 -1.859375l0 -5.015625l-1.75 0l0 -1.734375l4.890625 0l0 1.734375l-1.421875 0l0 5.40625q0 0.921875 -0.28125 1.671875q-0.28125 0.734375 -0.796875 1.1875q-0.515625 0.453125 -1.359375 0.671875q-0.828125 0.21875 -1.546875 0.21875q-1.0625 0 -1.78125 -0.25q-0.703125 -0.25 -1.21875 -0.765625q-0.921875 -0.859375 -0.921875 -2.9375l0 -5.203125l-1.453125 0l0 -1.734375l4.890625 0l0 1.734375zm16.209381 2.21875l-1.734375 0l0 -2.21875l-4.46875 0l0 2.65625l1.984375 0l0 -1.234375l1.734375 0l0 4.171875l-1.734375 0l0 -1.234375l-1.984375 0l0 2.84375l4.46875 0l0 -2.171875l1.734375 0l0 3.90625l-9.390625 0l0 -1.734375l1.484375 0l0 -7.203125l-1.4375 0l0 -1.734375l9.34375 0l0 3.953125zm8.740631 -3.734375l0 -0.421875l1.71875 0l0 4.015625l-1.71875 0l0 -1.796875q-1.09375 -0.5 -2.03125 -0.5q-1.015625 0 -1.703125 0.5q-0.671875 0.5 -0.671875 1.1875q0 0.609375 0.390625 0.921875q0.390625 0.296875 0.953125 0.40625q0.5625 0.109375 1.5625 0.203125l0.71875 0.078125q1.34375 0.171875 2.109375 0.875q0.765625 0.6875 0.765625 1.921875q0 0.984375 -0.5625 1.734375q-0.546875 0.75 -1.515625 1.171875q-0.953125 0.40625 -2.15625 0.40625q-0.65625 0 -1.25 -0.15625q-0.59375 -0.15625 -1.34375 -0.515625l0 0.671875l-1.71875 0l0 -3.90625l1.71875 0l0 1.421875q1.265625 0.765625 2.609375 0.765625q1.21875 0 1.875 -0.40625q0.65625 -0.421875 0.65625 -1.1875q0 -0.65625 -0.515625 -0.953125q-0.515625 -0.296875 -1.765625 -0.3125q-2.09375 -0.03125 -3.1875 -0.890625q-1.09375 -0.859375 -1.09375 -2.25q0 -0.875 0.515625 -1.65625q0.515625 -0.796875 1.4375 -1.265625q0.921875 -0.484375 2.109375 -0.484375q1.15625 0 2.09375 0.421875z" fill-rule="nonzero"/><path fill="#d9d2e9" d="m29.973753 28.44357l47.937004 0l0 24.0l-47.937004 0z" fill-rule="evenodd"/><path stroke="#000000" stroke-width="2.0" stroke-linejoin="round" stroke-linecap="butt" d="m29.973753 28.44357l47.937004 0l0 24.0l-47.937004 0z" fill-rule="evenodd"/><path fill="#000000" d="m58.423504 45.629192l1.046875 0l0 1.734375l-4.359375 0l0 -1.734375l1.5625 0l-0.546875 -1.265625l-4.328125 0l-0.546875 1.265625l1.609375 0l0 1.734375l-4.4375 0l0 -1.734375l1.09375 0l3.046875 -7.203125l-2.296875 0l0 -1.734375l4.5 0l3.65625 8.9375zm-2.984375 -3.0l-1.453125 -3.453125l-1.46875 3.453125l2.921875 0z" fill-rule="nonzero"/><path fill="#d9d2e9" d="m77.92119 28.44357l47.937004 0l0 24.0l-47.937004 0z" fill-rule="evenodd"/><path stroke="#000000" stroke-width="2.0" stroke-linejoin="round" stroke-linecap="butt" d="m77.92119 28.44357l47.937004 0l0 24.0l-47.937004 0z" fill-rule="evenodd"/><path fill="#000000" d="m106.01156 39.597942q0 0.640625 -0.28125 1.203125q-0.265625 0.5625 -0.78125 0.96875q0.984375 0.5625 1.34375 1.1875q0.359375 0.625 0.359375 1.390625q0 0.875 -0.46875 1.5625q-0.453125 0.6875 -1.234375 1.078125q-0.78125 0.375 -1.765625 0.375l-6.21875 0l0 -1.734375l1.453125 0l0 -7.203125l-1.453125 0l0 -1.734375l5.5 0q1.609375 0 2.578125 0.8125q0.96875 0.8125 0.96875 2.09375zm-1.703125 0.0625q0 -0.546875 -0.453125 -0.890625q-0.453125 -0.34375 -1.1875 -0.34375l-2.53125 0l0 2.5625l2.421875 0q0.71875 0 1.234375 -0.34375q0.515625 -0.359375 0.515625 -0.984375zm0.625 4.5625q0 -0.734375 -0.65625 -1.109375q-0.65625 -0.390625 -1.890625 -0.390625l-2.25 0l0 2.90625l3.09375 0q0.671875 0 1.1875 -0.375q0.515625 -0.375 0.515625 -1.03125z" fill-rule="nonzero"/><path fill="#d9d2e9" d="m125.868614 28.44357l47.937004 0l0 24.0l-47.937004 0z" fill-rule="evenodd"/><path stroke="#000000" stroke-width="2.0" stroke-linejoin="round" stroke-linecap="butt" d="m125.868614 28.44357l47.937004 0l0 24.0l-47.937004 0z" fill-rule="evenodd"/><path fill="#000000" d="m153.05275 37.269817l0 -0.78125l1.703125 0l0 4.34375l-1.703125 0l0 -1.765625q-1.390625 -0.875 -2.734375 -0.875q-0.890625 0 -1.671875 0.453125q-0.765625 0.453125 -1.234375 1.3125q-0.46875 0.859375 -0.46875 2.03125q0 1.75 0.90625 2.8125q0.90625 1.0625 2.515625 1.0625q0.796875 0 1.671875 -0.296875q0.890625 -0.3125 1.734375 -0.90625l1.046875 1.265625q-0.796875 0.75 -2.125 1.203125q-1.328125 0.453125 -2.296875 0.453125q-2.390625 0 -3.859375 -1.71875q-0.625 -0.703125 -0.984375 -1.796875q-0.34375 -1.09375 -0.34375 -2.09375q0 -1.5625 0.671875 -2.8125q0.671875 -1.25 1.828125 -1.953125q1.15625 -0.71875 2.59375 -0.71875q0.78125 0 1.5 0.21875q0.734375 0.203125 1.25 0.5625z" fill-rule="nonzero"/><path fill="#d9d2e9" d="m173.81606 28.44357l47.936996 0l0 24.0l-47.936996 0z" fill-rule="evenodd"/><path stroke="#000000" stroke-width="2.0" stroke-linejoin="round" stroke-linecap="butt" d="m173.81606 28.44357l47.936996 0l0 24.0l-47.936996 0z" fill-rule="evenodd"/><path fill="#000000" d="m202.68768 41.816692q0 2.75 -1.34375 4.15625q-1.34375 1.390625 -3.78125 1.390625l-4.890625 0l0 -1.734375l1.46875 0l0 -7.203125l-1.46875 0l0 -1.734375l5.375 0q1.484375 0 2.53125 0.671875q1.046875 0.65625 1.578125 1.8125q0.53125 1.15625 0.53125 2.640625zm-1.71875 0.078125q0 -1.65625 -0.78125 -2.5625q-0.78125 -0.90625 -2.140625 -0.90625l-2.1875 0l0 7.203125l2.0625 0q1.265625 0 2.15625 -0.875q0.890625 -0.875 0.890625 -2.859375z" fill-rule="nonzero"/><path fill="#d9d2e9" d="m264.9344 28.44357l47.93701 0l0 24.0l-47.93701 0z" fill-rule="evenodd"/><path stroke="#000000" stroke-width="2.0" stroke-linejoin="round" stroke-linecap="butt" d="m264.9344 28.44357l47.93701 0l0 24.0l-47.93701 0z" fill-rule="evenodd"/><path fill="#000000" d="m292.85287 38.426067l-3.015625 0l0 7.203125l3.015625 0l0 1.734375l-7.875 0l0 -1.734375l3.078125 0l0 -7.203125l-3.078125 0l0 -1.734375l7.875 0l0 1.734375z" fill-rule="nonzero"/><path fill="#d9d2e9" d="m312.8818 28.44357l47.93701 0l0 24.0l-47.93701 0z" fill-rule="evenodd"/><path stroke="#000000" stroke-width="2.0" stroke-linejoin="round" stroke-linecap="butt" d="m312.8818 28.44357l47.93701 0l0 24.0l-47.93701 0z" fill-rule="evenodd"/><path fill="#000000" d="m342.23782 38.426067l-2.25 0l0 5.515625q0 0.984375 -0.234375 1.65625q-0.234375 0.671875 -0.71875 1.09375q-0.53125 0.46875 -1.0625 0.671875q-0.53125 0.21875 -1.40625 0.21875q-0.953125 0 -2.0625 -0.3125q-1.109375 -0.328125 -2.21875 -0.9375l0 -4.28125l1.734375 0l0 2.046875q0 1.015625 0.625 1.359375q0.421875 0.25 0.953125 0.34375q0.546875 0.09375 0.953125 0.09375q0.9375 0 1.328125 -0.453125q0.40625 -0.453125 0.40625 -1.640625l0 -5.375l-3.28125 0l0 -1.734375l7.234375 0l0 1.734375z" fill-rule="nonzero"/><path fill="#d9d2e9" d="m360.82925 28.44357l47.93701 0l0 24.0l-47.93701 0z" fill-rule="evenodd"/><path stroke="#000000" stroke-width="2.0" stroke-linejoin="round" stroke-linecap="butt" d="m360.82925 28.44357l47.93701 0l0 24.0l-47.93701 0z" fill-rule="evenodd"/><path fill="#000000" d="m384.404 38.426067l-1.453125 0l0 2.890625l3.0 -2.890625l-0.765625 0l0 -1.734375l4.265625 0l0 1.734375l-1.203125 0l-3.09375 3.0q1.71875 2.0 2.890625 4.203125l1.890625 0l0 1.734375l-2.828125 0q-0.578125 -1.21875 -1.421875 -2.53125q-0.828125 -1.3125 -1.6875 -2.296875l-1.046875 1.0l0 2.09375l1.453125 0l0 1.734375l-4.640625 0l0 -1.734375l1.46875 0l0 -7.203125l-1.46875 0l0 -1.734375l4.640625 0l0 1.734375z" fill-rule="nonzero"/><path fill="#d9d2e9" d="m408.77667 28.44357l47.93701 0l0 24.0l-47.93701 0z" fill-rule="evenodd"/><path stroke="#000000" stroke-width="2.0" stroke-linejoin="round" stroke-linecap="butt" d="m408.77667 28.44357l47.93701 0l0 24.0l-47.93701 0z" fill-rule="evenodd"/><path fill="#000000" d="m433.8202 38.426067l-2.234375 0l0 7.203125l4.234375 0l0 -3.28125l1.734375 0l0 5.015625l-9.453125 0l0 -1.734375l1.765625 0l0 -7.203125l-1.765625 0l0 -1.734375l5.71875 0l0 1.734375z" fill-rule="nonzero"/><path fill="#d9d2e9" d="m217.64174 195.95538l71.9055 0l0 24.0l-71.9055 0z" fill-rule="evenodd"/><path stroke="#000000" stroke-width="2.0" stroke-linejoin="round" stroke-linecap="butt" d="m217.64174 195.95538l71.9055 0l0 24.0l-71.9055 0z" fill-rule="evenodd"/><path fill="#000000" d="m235.68822 213.141l1.046875 0l0 1.734375l-4.359375 0l0 -1.734375l1.5625 0l-0.546875 -1.265625l-4.328125 0l-0.546875 1.265625l1.609375 0l0 1.734375l-4.4375 0l0 -1.734375l1.09375 0l3.046875 -7.203125l-2.296875 0l0 -1.734375l4.5 0l3.65625 8.9375zm-2.984375 -3.0l-1.453125 -3.453125l-1.46875 3.453125l2.921875 0zm10.568756 -3.40625l2.28125 -0.90625l0.640625 1.859375l-2.34375 0.640625l1.4375 1.953125l-1.546875 1.140625l-1.375 -2.0625l-1.40625 2.078125l-1.546875 -1.140625l1.453125 -1.96875l-2.390625 -0.609375l0.65625 -1.890625l2.3125 0.90625l-0.109375 -2.5l2.046875 0l-0.109375 2.5zm14.271896 -0.796875l-3.0156403 0l0 7.203125l3.0156403 0l0 1.734375l-7.8750153 0l0 -1.734375l3.078125 0l0 -7.203125l-3.078125 0l0 -1.734375l7.8750153 0l0 1.734375zm8.115631 3.953125l3.171875 0l0 1.734375l-3.171875 0l0 3.1875l-1.734375 0l0 -3.1875l-3.171875 0l0 -1.734375l3.171875 0l0 -3.1875l1.734375 0l0 3.1875zm8.959381 -3.953125l-1.71875 0l0.65625 5.34375l1.859375 -5.09375l1.234375 0l1.890625 5.046875l0.625 -5.296875l-1.734375 0l0 -1.734375l4.265625 0l0 1.734375l-0.890625 0l-1.203125 8.9375l-1.453125 0l-2.15625 -5.59375l-2.109375 5.59375l-1.46875 0l-1.1875 -8.9375l-0.875 0l0 -1.734375l4.265625 0l0 1.734375z" fill-rule="nonzero"/><path fill="#d9d2e9" d="m289.56287 195.95538l71.90552 0l0 24.0l-71.90552 0z" fill-rule="evenodd"/><path stroke="#000000" stroke-width="2.0" stroke-linejoin="round" stroke-linecap="butt" d="m289.56287 195.95538l71.90552 0l0 24.0l-71.90552 0z" fill-rule="evenodd"/><path fill="#000000" d="m307.25 207.10976q0 0.640625 -0.28125 1.203125q-0.265625 0.5625 -0.78125 0.96875q0.984375 0.5625 1.34375 1.1875q0.359375 0.625 0.359375 1.390625q0 0.875 -0.46875 1.5625q-0.453125 0.6875 -1.234375 1.078125q-0.78125 0.375 -1.765625 0.375l-6.21875 0l0 -1.734375l1.453125 0l0 -7.203125l-1.453125 0l0 -1.734375l5.5 0q1.609375 0 2.578125 0.8125q0.96875 0.8125 0.96875 2.09375zm-1.703125 0.0625q0 -0.546875 -0.453125 -0.890625q-0.453125 -0.34375 -1.1875 -0.34375l-2.53125 0l0 2.5625l2.421875 0q0.71875 0 1.234375 -0.34375q0.515625 -0.359375 0.515625 -0.984375zm0.625 4.5625q0 -0.734375 -0.65625 -1.109375q-0.65625 -0.390625 -1.890625 -0.390625l-2.25 0l0 2.90625l3.09375 0q0.671875 0 1.1875 -0.375q0.515625 -0.375 0.515625 -1.03125zm9.021881 -5.0l2.28125 -0.90625l0.640625 1.859375l-2.34375 0.640625l1.4375 1.953125l-1.546875 1.140625l-1.375 -2.0625l-1.40625 2.078125l-1.546875 -1.140625l1.453125 -1.96875l-2.390625 -0.609375l0.65625 -1.890625l2.3125 0.90625l-0.109375 -2.5l2.046875 0l-0.109375 2.5zm15.709381 -0.796875l-2.25 0l0 5.515625q0 0.984375 -0.234375 1.65625q-0.234375 0.671875 -0.71875 1.09375q-0.53125 0.46875 -1.0625 0.671875q-0.53125 0.21875 -1.40625 0.21875q-0.953125 0 -2.0625 -0.3125q-1.109375 -0.328125 -2.21875 -0.9375l0 -4.28125l1.734375 0l0 2.046875q0 1.015625 0.625 1.359375q0.421875 0.25 0.953125 0.34375q0.546875 0.09375 0.953125 0.09375q0.9375 0 1.328125 -0.453125q0.40625 -0.453125 0.40625 -1.640625l0 -5.375l-3.28125 0l0 -1.734375l7.234375 0l0 1.734375zm6.678131 3.953125l3.171875 0l0 1.734375l-3.171875 0l0 3.1875l-1.734375 0l0 -3.1875l-3.171875 0l0 -1.734375l3.171875 0l0 -3.1875l1.734375 0l0 3.1875zm9.756256 -3.953125l-0.96875 0l1.59375 2.046875l1.546875 -2.046875l-0.828125 0l0 -1.734375l4.015625 0l0 1.734375l-1.234375 0l-2.546875 3.359375l2.921875 3.84375l1.203125 0l0 1.734375l-4.328125 0l0 -1.734375l1.109375 0l-1.921875 -2.5625l-1.96875 2.5625l1.4375 0l0 1.734375l-4.59375 0l0 -1.734375l1.1875 0l2.96875 -3.84375l-2.59375 -3.359375l-1.25 0l0 -1.734375l4.25 0l0 1.734375z" fill-rule="nonzero"/><path fill="#d9d2e9" d="m361.48404 195.95538l71.90549 0l0 24.0l-71.90549 0z" fill-rule="evenodd"/><path stroke="#000000" stroke-width="2.0" stroke-linejoin="round" stroke-linecap="butt" d="m361.48404 195.95538l71.90549 0l0 24.0l-71.90549 0z" fill-rule="evenodd"/><path fill="#000000" d="m378.2649 204.78163l0 -0.78125l1.703125 0l0 4.34375l-1.703125 0l0 -1.765625q-1.390625 -0.875 -2.734375 -0.875q-0.890625 0 -1.671875 0.453125q-0.765625 0.453125 -1.234375 1.3125q-0.46875 0.859375 -0.46875 2.03125q0 1.75 0.90625 2.8125q0.90625 1.0625 2.515625 1.0625q0.796875 0 1.671875 -0.296875q0.890625 -0.3125 1.734375 -0.90625l1.046875 1.265625q-0.796875 0.75 -2.125 1.203125q-1.328125 0.453125 -2.296875 0.453125q-2.390625 0 -3.859375 -1.71875q-0.625 -0.703125 -0.984375 -1.796875q-0.34375 -1.09375 -0.34375 -2.09375q0 -1.5625 0.671875 -2.8125q0.671875 -1.25 1.828125 -1.953125q1.15625 -0.71875 2.59375 -0.71875q0.78125 0 1.5 0.21875q0.734375 0.203125 1.25 0.5625zm8.850006 1.953125l2.28125 -0.90625l0.640625 1.859375l-2.34375 0.640625l1.4375 1.953125l-1.546875 1.140625l-1.375 -2.0625l-1.40625 2.078125l-1.546875 -1.140625l1.453125 -1.96875l-2.390625 -0.609375l0.65625 -1.890625l2.3125 0.90625l-0.109375 -2.5l2.046875 0l-0.109375 2.5zm9.928131 -0.796875l-1.453125 0l0 2.890625l3.0 -2.890625l-0.765625 0l0 -1.734375l4.265625 0l0 1.734375l-1.203125 0l-3.09375 3.0q1.71875 2.0 2.890625 4.203125l1.890625 0l0 1.734375l-2.828125 0q-0.578125 -1.21875 -1.421875 -2.53125q-0.828125 -1.3125 -1.6875 -2.296875l-1.046875 1.0l0 2.09375l1.453125 0l0 1.734375l-4.640625 0l0 -1.734375l1.46875 0l0 -7.203125l-1.46875 0l0 -1.734375l4.640625 0l0 1.734375zm12.459381 3.953125l3.171875 0l0 1.734375l-3.171875 0l0 3.1875l-1.734375 0l0 -3.1875l-3.171875 0l0 -1.734375l3.171875 0l0 -3.1875l1.734375 0l0 3.1875zm9.506256 -3.953125l-0.96875 0l1.875 3.15625l1.90625 -3.15625l-1.015625 0l0 -1.734375l4.296875 0l0 1.734375l-1.4375 0l-2.90625 4.8125l0 2.390625l2.21875 0l0 1.734375l-6.21875 0l0 -1.734375l2.265625 0l0 -2.390625l-2.90625 -4.8125l-1.40625 0l0 -1.734375l4.296875 0l0 1.734375z" fill-rule="nonzero"/><path fill="#d9d2e9" d="m433.40518 195.95538l71.90552 0l0 24.0l-71.90552 0z" fill-rule="evenodd"/><path stroke="#000000" stroke-width="2.0" stroke-linejoin="round" stroke-linecap="butt" d="m433.40518 195.95538l71.90552 0l0 24.0l-71.90552 0z" fill-rule="evenodd"/><path fill="#000000" d="m451.87354 209.3285q0 2.75 -1.34375 4.15625q-1.34375 1.390625 -3.78125 1.390625l-4.890625 0l0 -1.734375l1.46875 0l0 -7.203125l-1.46875 0l0 -1.734375l5.375 0q1.484375 0 2.53125 0.671875q1.046875 0.65625 1.578125 1.8125q0.53125 1.15625 0.53125 2.640625zm-1.71875 0.078125q0 -1.65625 -0.78125 -2.5625q-0.78125 -0.90625 -2.140625 -0.90625l-2.1875 0l0 7.203125l2.0625 0q1.265625 0 2.15625 -0.875q0.890625 -0.875 0.890625 -2.859375zm8.881256 -2.671875l2.28125 -0.90625l0.640625 1.859375l-2.34375 0.640625l1.4375 1.953125l-1.546875 1.140625l-1.375 -2.0625l-1.40625 2.078125l-1.546875 -1.140625l1.453125 -1.96875l-2.390625 -0.609375l0.65625 -1.890625l2.3125 0.90625l-0.109375 -2.5l2.046875 0l-0.109375 2.5zm11.396881 -0.796875l-2.234375 0l0 7.203125l4.234375 0l0 -3.28125l1.734375 0l0 5.015625l-9.453125 0l0 -1.734375l1.765625 0l0 -7.203125l-1.765625 0l0 -1.734375l5.71875 0l0 1.734375zm10.990631 3.953125l3.171875 0l0 1.734375l-3.171875 0l0 3.1875l-1.734375 0l0 -3.1875l-3.171875 0l0 -1.734375l3.171875 0l0 -3.1875l1.734375 0l0 3.1875zm14.146881 -4.453125l-5.6875 7.703125l4.375 0l0 -2.625l1.71875 0l0 4.359375l-8.40625 0l0 -1.328125l5.609375 -7.609375l-3.828125 0l0 2.359375l-1.703125 0l0 -4.09375l7.921875 0l0 1.234375z" fill-rule="nonzero"/><path fill="#d9d9d9" d="m148.06299 94.973755l24.0 0l0 23.04l-12.0 5.7599945l-12.0 -5.7599945z" fill-rule="evenodd"/><path stroke="#000000" stroke-width="2.0" stroke-linejoin="round" stroke-linecap="butt" d="m148.06299 94.973755l24.0 0l0 23.04l-12.0 5.7599945l-12.0 -5.7599945z" fill-rule="evenodd"/><path fill="#000000" d="m152.65283 102.70188l0 -2.296875l2.296875 0l13.6875 13.671875l0 2.296875l-2.3125 0l-13.671875 -13.671875zm2.296875 13.671875l-2.296875 0l0 -2.296875l5.28125 -5.265625l2.28125 0l0 2.296875l-5.265625 5.265625zm8.40625 -8.390625l-2.296875 0l0 -2.3125l5.265625 -5.265625l2.3125 0l0 2.296875l-5.28125 5.28125z" fill-rule="nonzero"/><path fill="#000000" fill-opacity="0.0" d="m288.9029 52.44357c0 10.632473 -32.212616 15.9499855 -64.4252 21.264942c-32.2126 5.3149643 -64.4252 10.627373 -64.4252 21.254745" fill-rule="evenodd"/><path stroke="#000000" stroke-width="2.0" stroke-linejoin="round" stroke-linecap="butt" d="m288.9029 52.44357c0 10.632473 -32.212616 15.9499855 -64.4252 21.264942c-16.106308 2.6574783 -32.2126 5.3143234 -44.292328 8.635216c-3.019928 0.8302307 -5.7881927 1.7019501 -8.241898 2.6255722c-1.2268372 0.46179962 -2.3750458 0.9365845 -3.436737 1.4256287l-0.03579712 0.016723633" fill-rule="evenodd"/><path fill="#000000" stroke="#000000" stroke-width="2.0" stroke-linecap="butt" d="m166.11678 84.094154l-4.0131226 8.7855l8.721436 -4.1504974z" fill-rule="evenodd"/><path fill="#000000" fill-opacity="0.0" d="m53.942257 52.44357c0 10.632473 26.527561 15.9499855 53.05512 21.264942c26.527557 5.3149643 53.055115 10.627373 53.055115 21.254745" fill-rule="evenodd"/><path stroke="#000000" stroke-width="2.0" stroke-linejoin="round" stroke-linecap="butt" d="m53.942257 52.44357c0 10.632473 26.527561 15.9499855 53.05512 21.264942c13.263779 2.6574783 26.527557 5.3143234 36.475388 8.635216c2.486969 0.8302307 4.766678 1.7019501 6.787323 2.6255722c0.5051727 0.23090363 0.9941559 0.46504974 1.4661102 0.7025986c0.117996216 0.059394836 0.23492432 0.11898804 0.3507843 0.17881012l0.10443115 0.054618835" fill-rule="evenodd"/><path fill="#000000" stroke="#000000" stroke-width="2.0" stroke-linecap="butt" d="m149.68787 88.07215l8.446838 4.6841354l-3.4597473 -9.0177765z" fill-rule="evenodd"/><path fill="#000000" fill-opacity="0.0" d="m160.06299 123.77375c0 6.8174057 23.385834 10.225349 46.771652 13.634804c23.385834 3.409439 46.771652 6.820389 46.771652 13.640793" fill-rule="evenodd"/><path stroke="#000000" stroke-width="2.0" stroke-linejoin="round" stroke-linecap="butt" d="m160.06299 123.77376c0 6.817383 23.385834 10.225342 46.771652 13.634796c11.692917 1.7047119 23.385834 3.4098053 32.155518 5.541275c1.0962067 0.26643372 2.1467285 0.5395355 3.1458893 0.8201294c0.49957275 0.1402893 0.98631287 0.2824707 1.4594879 0.42660522l0.13154602 0.04095459" fill-rule="evenodd"/><path fill="#000000" stroke="#000000" stroke-width="2.0" stroke-linecap="butt" d="m241.85187 146.95715l9.347351 2.4324799l-5.5969086 -7.871765z" fill-rule="evenodd"/><path fill="#d9d9d9" d="m196.0105 94.973755l24.0 0l0 23.04l-12.0 5.7599945l-12.0 -5.7599945z" fill-rule="evenodd"/><path stroke="#000000" stroke-width="2.0" stroke-linejoin="round" stroke-linecap="butt" d="m196.0105 94.973755l24.0 0l0 23.04l-12.0 5.7599945l-12.0 -5.7599945z" fill-rule="evenodd"/><path fill="#000000" d="m200.60034 102.70188l0 -2.296875l2.296875 0l13.6875 13.671875l0 2.296875l-2.3125 0l-13.671875 -13.671875zm2.296875 13.671875l-2.296875 0l0 -2.296875l5.28125 -5.265625l2.28125 0l0 2.296875l-5.265625 5.265625zm8.40625 -8.390625l-2.296875 0l0 -2.3125l5.265625 -5.265625l2.3125 0l0 2.296875l-5.28125 5.28125z" fill-rule="nonzero"/><path fill="#d9d9d9" d="m243.95801 94.973755l24.0 0l0 23.04l-12.0 5.7599945l-12.0 -5.7599945z" fill-rule="evenodd"/><path stroke="#000000" stroke-width="2.0" stroke-linejoin="round" stroke-linecap="butt" d="m243.95801 94.973755l24.0 0l0 23.04l-12.0 5.7599945l-12.0 -5.7599945z" fill-rule="evenodd"/><path fill="#000000" d="m248.54785 102.70188l0 -2.296875l2.296875 0l13.6875 13.671875l0 2.296875l-2.3125 0l-13.671875 -13.671875zm2.296875 13.671875l-2.296875 0l0 -2.296875l5.28125 -5.265625l2.28125 0l0 2.296875l-5.265625 5.265625zm8.40625 -8.390625l-2.296875 0l0 -2.3125l5.265625 -5.265625l2.3125 0l0 2.296875l-5.28125 5.28125z" fill-rule="nonzero"/><path fill="#d9d9d9" d="m291.90552 94.973755l24.0 0l0 23.04l-12.0 5.7599945l-12.0 -5.7599945z" fill-rule="evenodd"/><path stroke="#000000" stroke-width="2.0" stroke-linejoin="round" stroke-linecap="butt" d="m291.90552 94.973755l24.0 0l0 23.04l-12.0 5.7599945l-12.0 -5.7599945z" fill-rule="evenodd"/><path fill="#000000" d="m296.49536 102.70188l0 -2.296875l2.296875 0l13.6875 13.671875l0 2.296875l-2.3125 0l-13.671875 -13.671875zm2.296875 13.671875l-2.296875 0l0 -2.296875l5.28125 -5.265625l2.28125 0l0 2.296875l-5.265625 5.265625zm8.40625 -8.390625l-2.296875 0l0 -2.3125l5.265625 -5.265625l2.3125 0l0 2.296875l-5.28125 5.28125z" fill-rule="nonzero"/><path fill="#000000" fill-opacity="0.0" d="m101.88969 52.44357c0 10.632473 26.527565 15.9499855 53.055122 21.264942c26.527557 5.3149643 53.055115 10.627373 53.055115 21.254745" fill-rule="evenodd"/><path stroke="#000000" stroke-width="2.0" stroke-linejoin="round" stroke-linecap="butt" d="m101.889694 52.44357c0 10.632473 26.527557 15.9499855 53.055115 21.264942c13.263763 2.6574783 26.527557 5.3143234 36.475388 8.635216c2.4869537 0.8302307 4.7666626 1.7019501 6.787323 2.6255722c0.5051575 0.23090363 0.99412537 0.46504974 1.466095 0.7025986c0.118011475 0.059394836 0.23493958 0.11898804 0.3507843 0.17881012l0.10443115 0.054618835" fill-rule="evenodd"/><path fill="#000000" stroke="#000000" stroke-width="2.0" stroke-linecap="butt" d="m197.63528 88.07215l8.446838 4.6841354l-3.4597473 -9.0177765z" fill-rule="evenodd"/><path fill="#000000" fill-opacity="0.0" d="m149.83713 52.44357c0 10.632473 26.527557 15.9499855 53.055115 21.264942c26.527557 5.3149643 53.055115 10.627373 53.055115 21.254745" fill-rule="evenodd"/><path stroke="#000000" stroke-width="2.0" stroke-linejoin="round" stroke-linecap="butt" d="m149.83713 52.44357c0 10.632473 26.527557 15.9499855 53.055115 21.264942c13.263779 2.6574783 26.527557 5.3143234 36.475403 8.635216c2.4869537 0.8302307 4.7666626 1.7019501 6.7873077 2.6255722c0.5051727 0.23090363 0.9941406 0.46504974 1.4661102 0.7025986c0.118011475 0.059394836 0.23492432 0.11898804 0.3507843 0.17881012l0.10443115 0.054618835" fill-rule="evenodd"/><path fill="#000000" stroke="#000000" stroke-width="2.0" stroke-linecap="butt" d="m245.58273 88.07215l8.446838 4.6841354l-3.4597473 -9.0177765z" fill-rule="evenodd"/><path fill="#000000" fill-opacity="0.0" d="m197.78456 52.44357c0 10.632473 26.527557 15.9499855 53.055115 21.264942c26.527542 5.3149643 53.0551 10.627373 53.0551 21.254745" fill-rule="evenodd"/><path stroke="#000000" stroke-width="2.0" stroke-linejoin="round" stroke-linecap="butt" d="m197.78455 52.44357c0 10.632473 26.527557 15.9499855 53.05513 21.264942c13.263779 2.6574783 26.527542 5.3143234 36.475388 8.635216c2.486969 0.8302307 4.7666626 1.7019501 6.787323 2.6255722c0.5051575 0.23090363 0.9941406 0.46504974 1.466095 0.7025986c0.118011475 0.059394836 0.23492432 0.11898804 0.35079956 0.17881012l0.10443115 0.054618835" fill-rule="evenodd"/><path fill="#000000" stroke="#000000" stroke-width="2.0" stroke-linecap="butt" d="m293.53015 88.07215l8.446838 4.6841354l-3.4597473 -9.0177765z" fill-rule="evenodd"/><path fill="#000000" fill-opacity="0.0" d="m336.8503 52.44357c0 10.632473 -32.212585 15.9499855 -64.4252 21.264942c-32.212585 5.3149643 -64.425186 10.627373 -64.425186 21.254745" fill-rule="evenodd"/><path stroke="#000000" stroke-width="2.0" stroke-linejoin="round" stroke-linecap="butt" d="m336.8503 52.44357c0 10.632473 -32.212585 15.9499855 -64.4252 21.264942c-16.106293 2.6574783 -32.2126 5.3143234 -44.292313 8.635216c-3.0199432 0.8302307 -5.788208 1.7019501 -8.241913 2.6255722c-1.2268372 0.46179962 -2.3750305 0.9365845 -3.436737 1.4256287l-0.03579712 0.016723633" fill-rule="evenodd"/><path fill="#000000" stroke="#000000" stroke-width="2.0" stroke-linecap="butt" d="m214.0642 84.094154l-4.0131226 8.7855l8.721451 -4.1504974z" fill-rule="evenodd"/><path fill="#000000" fill-opacity="0.0" d="m384.79776 52.44357c0 10.632473 -32.212616 15.9499855 -64.4252 21.264942c-32.212616 5.3149643 -64.4252 10.627373 -64.4252 21.254745" fill-rule="evenodd"/><path stroke="#000000" stroke-width="2.0" stroke-linejoin="round" stroke-linecap="butt" d="m384.79773 52.44357c0 10.632473 -32.212585 15.9499855 -64.42517 21.264942c-16.106293 2.6574783 -32.212585 5.3143234 -44.292328 8.635216c-3.019928 0.8302307 -5.788208 1.7019501 -8.241882 2.6255722c-1.2268677 0.46179962 -2.375061 0.9365845 -3.4367676 1.4256287l-0.03579712 0.016723633" fill-rule="evenodd"/><path fill="#000000" stroke="#000000" stroke-width="2.0" stroke-linecap="butt" d="m262.01166 84.094154l-4.013153 8.7855l8.721466 -4.1504974z" fill-rule="evenodd"/><path fill="#000000" fill-opacity="0.0" d="m432.74518 52.44357c0 10.632473 -32.212585 15.9499855 -64.4252 21.264942c-32.212585 5.3149643 -64.4252 10.627373 -64.4252 21.254745" fill-rule="evenodd"/><path stroke="#000000" stroke-width="2.0" stroke-linejoin="round" stroke-linecap="butt" d="m432.7452 52.44357c0 10.632473 -32.212616 15.9499855 -64.4252 21.264942c-16.106293 2.6574783 -32.212616 5.3143234 -44.29236 8.635216c-3.019928 0.8302307 -5.7881775 1.7019501 -8.241882 2.6255722c-1.2268677 0.46179962 -2.375061 0.9365845 -3.436737 1.4256287l-0.03579712 0.016723633" fill-rule="evenodd"/><path fill="#000000" stroke="#000000" stroke-width="2.0" stroke-linecap="butt" d="m309.95908 84.094154l-4.0131226 8.7855l8.721436 -4.1504974z" fill-rule="evenodd"/><path fill="#000000" fill-opacity="0.0" d="m208.0105 123.77375c0 6.8174057 29.37796 10.225349 58.75592 13.634804c29.37793 3.409439 58.75589 6.820389 58.75589 13.640793" fill-rule="evenodd"/><path stroke="#000000" stroke-width="2.0" stroke-linejoin="round" stroke-linecap="butt" d="m208.0105 123.77376c0 6.817383 29.37796 10.225342 58.75592 13.634796c14.688965 1.7047119 29.37793 3.4098053 40.394684 5.541275c2.754181 0.53286743 5.278839 1.092392 7.5166016 1.6852112l0.6014404 0.1631012" fill-rule="evenodd"/><path fill="#000000" stroke="#000000" stroke-width="2.0" stroke-linecap="butt" d="m313.55826 147.61797l9.468292 1.9082642l-6.02652 -7.547928z" fill-rule="evenodd"/><path fill="#000000" fill-opacity="0.0" d="m255.95801 123.77375c0 6.8174057 35.370087 10.225349 70.74014 13.634804c35.370087 3.409439 70.74017 6.820389 70.74017 13.640793" fill-rule="evenodd"/><path stroke="#000000" stroke-width="2.0" stroke-linejoin="round" stroke-linecap="butt" d="m255.95801 123.77376c0 6.817383 35.370087 10.225342 70.74014 13.634796c17.685059 1.7047119 35.370087 3.4098053 48.63388 5.541275c3.3159485 0.53286743 6.3555603 1.092392 9.049774 1.6852112c0.67352295 0.14820862 1.3255005 0.29849243 1.9548035 0.45095825l0.6037903 0.15008545" fill-rule="evenodd"/><path fill="#000000" stroke="#000000" stroke-width="2.0" stroke-linecap="butt" d="m385.3401 148.12604l9.540405 1.506897l-6.339752 -7.286804z" fill-rule="evenodd"/><path fill="#000000" fill-opacity="0.0" d="m303.90552 123.77375c0 6.8174057 41.362213 10.225349 82.724396 13.634804c41.362213 3.409439 82.72443 6.820389 82.72443 13.640793" fill-rule="evenodd"/><path stroke="#000000" stroke-width="2.0" stroke-linejoin="round" stroke-linecap="butt" d="m303.90552 123.77376c0 6.817383 41.362213 10.225342 82.724396 13.634796c20.681122 1.7047119 41.362213 3.4098053 56.873047 5.541275c3.8776855 0.53286743 7.432251 1.092392 10.582916 1.6852112c1.5752869 0.29641724 3.0496216 0.6011505 4.412903 0.91503906l0.16925049 0.04008484" fill-rule="evenodd"/><path fill="#000000" stroke="#000000" stroke-width="2.0" stroke-linecap="butt" d="m457.16516 148.53198l9.585449 1.1872253l-6.5797424 -7.070877z" fill-rule="evenodd"/><path fill="#d9d9d9" d="m496.1181 6.0288715l202.86615 0l0 51.2126l-202.86615 0z" fill-rule="evenodd"/><path stroke="#000000" stroke-width="2.0" stroke-linejoin="round" stroke-linecap="butt" d="m496.1181 6.0288715l202.86615 0l0 51.2126l-202.86615 0z" fill-rule="evenodd"/><path fill="#000000" d="m517.71985 16.41762q0 1.125 -0.640625 1.890625q-0.625 0.765625 -1.84375 1.0625l2.15625 2.84375l1.390625 0l0 1.734375l-2.5 0q-0.421875 -0.953125 -1.125 -1.921875l-1.671875 -2.3125l-1.4375 0l0 2.5l1.375 0l0 1.734375l-4.5624695 0l0 -1.734375l1.46875 0l0 -7.203125l-1.390625 0l0 -1.734375l5.3280945 0q1.78125 0 2.609375 0.921875q0.84375 0.90625 0.84375 2.21875zm-1.703125 0.015625q0 -0.71875 -0.40625 -1.0625q-0.40625 -0.359375 -1.171875 -0.359375l-2.390625 0l0 2.96875l1.796875 0q1.09375 0 1.625 -0.375q0.546875 -0.390625 0.546875 -1.171875zm12.725037 -1.421875l-3.015625 0l0 7.203125l3.015625 0l0 1.734375l-7.875 0l0 -1.734375l3.078125 0l0 -7.203125l-3.078125 0l0 -1.734375l7.875 0l0 1.734375zm10.178101 -1.078125l0 -0.859375l1.734375 0l0 4.359375l-1.734375 0l0 -1.71875q-0.875 -0.546875 -1.453125 -0.734375q-0.5625 -0.203125 -1.21875 -0.203125q-0.9375 0 -1.703125 0.484375q-0.765625 0.484375 -1.203125 1.375q-0.4375 0.875 -0.4375 2.046875q0 1.78125 0.921875 2.78125q0.921875 0.984375 2.6875 0.984375q0.59375 0 0.96875 -0.03125q0.390625 -0.046875 1.28125 -0.28125l0 -1.65625l-2.640625 0l0 -1.734375l5.171875 0l0 1.734375l-0.828125 0l0 2.734375q-2.328125 0.953125 -3.953125 0.953125q-1.515625 0 -2.734375 -0.671875q-1.21875 -0.671875 -1.921875 -1.890625q-0.703125 -1.21875 -0.703125 -2.84375q0 -1.65625 0.65625 -2.953125q0.671875 -1.296875 1.828125 -2.015625q1.15625 -0.71875 2.59375 -0.71875q0.765625 0 1.359375 0.1875q0.59375 0.1875 1.328125 0.671875zm7.7406616 1.078125l-1.484375 0l0 2.578125l4.078125 0l0 -2.578125l-1.453125 0l0 -1.734375l4.578125 0l0 1.734375l-1.40625 0l0 7.203125l1.40625 0l0 1.734375l-4.578125 0l0 -1.734375l1.453125 0l0 -2.890625l-4.078125 0l0 2.890625l1.484375 0l0 1.734375l-4.609375 0l0 -1.734375l1.421875 0l0 -7.203125l-1.421875 0l0 -1.734375l4.609375 0l0 1.734375zm16.6156 2.328125l-1.734375 0l0 -2.328125l-2.265625 0l0 7.203125l2.25 0l0 1.734375l-6.234375 0l0 -1.734375l2.234375 0l0 -7.203125l-2.265625 0l0 2.328125l-1.734375 0l0 -4.0625l9.75 0l0 4.0625zm21.965637 4.875l1.046875 0l0 1.734375l-4.359375 0l0 -1.734375l1.5625 0l-0.546875 -1.265625l-4.328125 0l-0.546875 1.265625l1.609375 0l0 1.734375l-4.4375 0l0 -1.734375l1.09375 0l3.046875 -7.203125l-2.296875 0l0 -1.734375l4.5 0l3.65625 8.9375zm-2.984375 -3.0l-1.453125 -3.453125l-1.46875 3.453125l2.921875 0zm14.600037 -0.8125q0 2.75 -1.34375 4.15625q-1.34375 1.390625 -3.78125 1.390625l-4.890625 0l0 -1.734375l1.46875 0l0 -7.203125l-1.46875 0l0 -1.734375l5.375 0q1.484375 0 2.53125 0.671875q1.046875 0.65625 1.578125 1.8125q0.53125 1.15625 0.53125 2.640625zm-1.71875 0.078125q0 -1.65625 -0.78125 -2.5625q-0.78125 -0.90625 -2.140625 -0.90625l-2.1875 0l0 7.203125l2.0625 0q1.265625 0 2.15625 -0.875q0.890625 -0.875 0.890625 -2.859375zm12.912476 -0.078125q0 2.75 -1.34375 4.15625q-1.34375 1.390625 -3.78125 1.390625l-4.890625 0l0 -1.734375l1.46875 0l0 -7.203125l-1.46875 0l0 -1.734375l5.375 0q1.484375 0 2.53125 0.671875q1.046875 0.65625 1.578125 1.8125q0.53125 1.15625 0.53125 2.640625zm-1.71875 0.078125q0 -1.65625 -0.78125 -2.5625q-0.78125 -0.90625 -2.140625 -0.90625l-2.1875 0l0 7.203125l2.0625 0q1.265625 0 2.15625 -0.875q0.890625 -0.875 0.890625 -2.859375zm18.184448 -3.46875l-1.437561 0l2.609436 6.6875l2.53125 -6.6875l-1.671875 0l0 -1.734375l4.609375 0l0 1.734375l-1.25 0l-3.390625 8.9375l-1.734375 0l-3.484436 -8.9375l-1.375 0l0 -1.734375l4.593811 0l0 1.734375zm16.693726 7.203125l1.046875 0l0 1.734375l-4.359375 0l0 -1.734375l1.5625 0l-0.546875 -1.265625l-4.328125 0l-0.546875 1.265625l1.609375 0l0 1.734375l-4.4375 0l0 -1.734375l1.09375 0l3.046875 -7.203125l-2.296875 0l0 -1.734375l4.5 0l3.65625 8.9375zm-2.984375 -3.0l-1.453125 -3.453125l-1.46875 3.453125l2.921875 0zm10.771912 -4.203125l-2.234375 0l0 7.203125l4.234375 0l0 -3.28125l1.734375 0l0 5.015625l-9.453125 0l0 -1.734375l1.765625 0l0 -7.203125l-1.765625 0l0 -1.734375l5.71875 0l0 1.734375zm9.787476 0l-1.71875 0l0 5.34375q0 1.109375 0.53125 1.59375q0.53125 0.484375 1.65625 0.484375q1.25 0 1.765625 -0.546875q0.515625 -0.546875 0.515625 -1.859375l0 -5.015625l-1.75 0l0 -1.734375l4.890625 0l0 1.734375l-1.421875 0l0 5.40625q0 0.921875 -0.28125 1.671875q-0.28125 0.734375 -0.796875 1.1875q-0.515625 0.453125 -1.359375 0.671875q-0.828125 0.21875 -1.546875 0.21875q-1.0625 0 -1.78125 -0.25q-0.703125 -0.25 -1.21875 -0.765625q-0.921875 -0.859375 -0.921875 -2.9375l0 -5.203125l-1.453125 0l0 -1.734375l4.890625 0l0 1.734375zm16.209412 2.21875l-1.734375 0l0 -2.21875l-4.46875 0l0 2.65625l1.984375 0l0 -1.234375l1.734375 0l0 4.171875l-1.734375 0l0 -1.234375l-1.984375 0l0 2.84375l4.46875 0l0 -2.171875l1.734375 0l0 3.90625l-9.390625 0l0 -1.734375l1.484375 0l0 -7.203125l-1.4375 0l0 -1.734375l9.34375 0l0 3.953125zm8.740601 -3.734375l0 -0.421875l1.71875 0l0 4.015625l-1.71875 0l0 -1.796875q-1.09375 -0.5 -2.03125 -0.5q-1.015625 0 -1.703125 0.5q-0.671875 0.5 -0.671875 1.1875q0 0.609375 0.390625 0.921875q0.390625 0.296875 0.953125 0.40625q0.5625 0.109375 1.5625 0.203125l0.71875 0.078125q1.34375 0.171875 2.109375 0.875q0.765625 0.6875 0.765625 1.921875q0 0.984375 -0.5625 1.734375q-0.546875 0.75 -1.515625 1.171875q-0.953125 0.40625 -2.15625 0.40625q-0.65625 0 -1.25 -0.15625q-0.59375 -0.15625 -1.34375 -0.515625l0 0.671875l-1.71875 0l0 -3.90625l1.71875 0l0 1.421875q1.265625 0.765625 2.609375 0.765625q1.21875 0 1.875 -0.40625q0.65625 -0.421875 0.65625 -1.1875q0 -0.65625 -0.515625 -0.953125q-0.515625 -0.296875 -1.765625 -0.3125q-2.09375 -0.03125 -3.1875 -0.890625q-1.09375 -0.859375 -1.09375 -2.25q0 -0.875 0.515625 -1.65625q0.515625 -0.796875 1.4375 -1.265625q0.921875 -0.484375 2.109375 -0.484375q1.15625 0 2.09375 0.421875z" fill-rule="nonzero"/><path fill="#d9d2e9" d="m501.51706 28.44357l47.93698 0l0 24.0l-47.93698 0z" fill-rule="evenodd"/><path stroke="#000000" stroke-width="2.0" stroke-linejoin="round" stroke-linecap="butt" d="m501.51706 28.44357l47.93698 0l0 24.0l-47.93698 0z" fill-rule="evenodd"/><path fill="#000000" d="m524.12305 38.426067l-1.71875 0l0.65625 5.34375l1.859375 -5.09375l1.234375 0l1.890625 5.046875l0.625 -5.296875l-1.734375 0l0 -1.734375l4.265625 0l0 1.734375l-0.890625 0l-1.203125 8.9375l-1.453125 0l-2.15625 -5.59375l-2.109375 5.59375l-1.46875 0l-1.1875 -8.9375l-0.875 0l0 -1.734375l4.265625 0l0 1.734375z" fill-rule="nonzero"/><path fill="#d9d2e9" d="m549.4645 28.44357l47.93701 0l0 24.0l-47.93701 0z" fill-rule="evenodd"/><path stroke="#000000" stroke-width="2.0" stroke-linejoin="round" stroke-linecap="butt" d="m549.4645 28.44357l47.93701 0l0 24.0l-47.93701 0z" fill-rule="evenodd"/><path fill="#000000" d="m572.8674 38.426067l-0.96875 0l1.59375 2.046875l1.546875 -2.046875l-0.828125 0l0 -1.734375l4.015625 0l0 1.734375l-1.234375 0l-2.546875 3.359375l2.921875 3.84375l1.203125 0l0 1.734375l-4.328125 0l0 -1.734375l1.109375 0l-1.921875 -2.5625l-1.96875 2.5625l1.4375 0l0 1.734375l-4.59375 0l0 -1.734375l1.1875 0l2.96875 -3.84375l-2.59375 -3.359375l-1.25 0l0 -1.734375l4.25 0l0 1.734375z" fill-rule="nonzero"/><path fill="#d9d2e9" d="m597.4119 28.44357l47.93701 0l0 24.0l-47.93701 0z" fill-rule="evenodd"/><path stroke="#000000" stroke-width="2.0" stroke-linejoin="round" stroke-linecap="butt" d="m597.4119 28.44357l47.93701 0l0 24.0l-47.93701 0z" fill-rule="evenodd"/><path fill="#000000" d="m620.5648 38.426067l-0.96875 0l1.875 3.15625l1.90625 -3.15625l-1.015625 0l0 -1.734375l4.296875 0l0 1.734375l-1.4375 0l-2.90625 4.8125l0 2.390625l2.21875 0l0 1.734375l-6.21875 0l0 -1.734375l2.265625 0l0 -2.390625l-2.90625 -4.8125l-1.40625 0l0 -1.734375l4.296875 0l0 1.734375z" fill-rule="nonzero"/><path fill="#d9d2e9" d="m645.3594 28.44357l47.93701 0l0 24.0l-47.93701 0z" fill-rule="evenodd"/><path stroke="#000000" stroke-width="2.0" stroke-linejoin="round" stroke-linecap="butt" d="m645.3594 28.44357l47.93701 0l0 24.0l-47.93701 0z" fill-rule="evenodd"/><path fill="#000000" d="m673.15283 37.926067l-5.6875 7.703125l4.375 0l0 -2.625l1.71875 0l0 4.359375l-8.40625 0l0 -1.328125l5.609375 -7.609375l-3.828125 0l0 2.359375l-1.703125 0l0 -4.09375l7.921875 0l0 1.234375z" fill-rule="nonzero"/><path fill="#d9d9d9" d="m241.59317 151.0433l24.0 0l0 23.040009l-12.0 5.7599945l-12.0 -5.7599945z" fill-rule="evenodd"/><path stroke="#000000" stroke-width="2.0" stroke-linejoin="round" stroke-linecap="butt" d="m241.59317 151.0433l24.0 0l0 23.040009l-12.0 5.7599945l-12.0 -5.7599945z" fill-rule="evenodd"/><path fill="#000000" d="m251.48662 171.12581l0 -6.203125l-6.234375 0l0 -4.265625l6.234375 0l0 -6.203125l4.171875 0l0 6.203125l6.2656403 0l0 4.265625l-6.2656403 0l0 6.203125l-4.171875 0z" fill-rule="nonzero"/><path fill="#d9d9d9" d="m313.51443 151.0433l24.0 0l0 23.040009l-12.0 5.7599945l-12.0 -5.7599945z" fill-rule="evenodd"/><path stroke="#000000" stroke-width="2.0" stroke-linejoin="round" stroke-linecap="butt" d="m313.51443 151.0433l24.0 0l0 23.040009l-12.0 5.7599945l-12.0 -5.7599945z" fill-rule="evenodd"/><path fill="#000000" d="m323.4079 171.12581l0 -6.203125l-6.234375 0l0 -4.265625l6.234375 0l0 -6.203125l4.171875 0l0 6.203125l6.265625 0l0 4.265625l-6.265625 0l0 6.203125l-4.171875 0z" fill-rule="nonzero"/><path fill="#d9d9d9" d="m385.4357 151.0433l24.0 0l0 23.040009l-12.0 5.7599945l-12.0 -5.7599945z" fill-rule="evenodd"/><path stroke="#000000" stroke-width="2.0" stroke-linejoin="round" stroke-linecap="butt" d="m385.4357 151.0433l24.0 0l0 23.040009l-12.0 5.7599945l-12.0 -5.7599945z" fill-rule="evenodd"/><path fill="#000000" d="m395.32913 171.12581l0 -6.203125l-6.234375 0l0 -4.265625l6.234375 0l0 -6.203125l4.171875 0l0 6.203125l6.265625 0l0 4.265625l-6.265625 0l0 6.203125l-4.171875 0z" fill-rule="nonzero"/><path fill="#d9d9d9" d="m457.35696 151.0433l24.0 0l0 23.040009l-12.0 5.7599945l-12.0 -5.7599945z" fill-rule="evenodd"/><path stroke="#000000" stroke-width="2.0" stroke-linejoin="round" stroke-linecap="butt" d="m457.35696 151.0433l24.0 0l0 23.040009l-12.0 5.7599945l-12.0 -5.7599945z" fill-rule="evenodd"/><path fill="#000000" d="m467.2504 171.12581l0 -6.203125l-6.234375 0l0 -4.265625l6.234375 0l0 -6.203125l4.171875 0l0 6.203125l6.265625 0l0 4.265625l-6.265625 0l0 6.203125l-4.171875 0z" fill-rule="nonzero"/><path fill="#000000" fill-opacity="0.0" d="m669.3279 52.44357c0 35.34924 -49.992126 58.3717 -99.98425 70.69847c-49.992126 12.326767 -99.98428 13.957855 -99.98428 27.915695" fill-rule="evenodd"/><path stroke="#000000" stroke-width="2.0" stroke-linejoin="round" stroke-linecap="butt" d="m669.3279 52.44357c0 35.34923 -49.992126 58.3717 -99.98425 70.69847c-24.996094 6.1633835 -49.992126 9.652855 -68.73917 13.346199c-9.373535 1.8466797 -17.184814 3.7443237 -22.65268 6.052658l-0.096954346 0.041732788" fill-rule="evenodd"/><path fill="#000000" stroke="#000000" stroke-width="2.0" stroke-linecap="butt" d="m475.5217 140.24393l-4.092407 8.748856l8.758606 -4.071457z" fill-rule="evenodd"/><path fill="#000000" fill-opacity="0.0" d="m621.38043 52.44357c0 33.695477 -55.984253 55.064182 -111.968506 67.39096c-55.984253 12.326775 -111.968506 15.61161 -111.968506 31.223213" fill-rule="evenodd"/><path stroke="#000000" stroke-width="2.0" stroke-linejoin="round" stroke-linecap="butt" d="m621.38043 52.44357c0 33.695477 -55.984253 55.064182 -111.96854 67.39096c-27.992126 6.1633835 -55.984253 10.066292 -76.97833 14.379799c-10.49704 2.1567535 -19.244598 4.416153 -25.367859 7.112091c-0.38272095 0.16850281 -0.755188 0.33869934 -1.1171875 0.5106964l-0.52804565 0.25590515" fill-rule="evenodd"/><path fill="#000000" stroke="#000000" stroke-width="2.0" stroke-linecap="butt" d="m402.9526 139.89702l-3.5655823 8.976471l8.501343 -4.5844574z" fill-rule="evenodd"/><path fill="#000000" fill-opacity="0.0" d="m573.433 52.44357c0 33.901585 -61.97638 55.47639 -123.95273 67.80316c-61.97638 12.326775 -123.95276 15.40551 -123.95276 30.811012" fill-rule="evenodd"/><path stroke="#000000" stroke-width="2.0" stroke-linejoin="round" stroke-linecap="butt" d="m573.433 52.44357c0 33.901585 -61.97638 55.47639 -123.95276 67.80316c-30.98819 6.163391 -61.97638 10.014763 -85.2175 14.250984c-11.620575 2.1181183 -21.304382 4.332428 -28.083069 6.980072c-0.42364502 0.16548157 -0.835968 0.3326416 -1.2366943 0.5015869c-0.20037842 0.084472656 -0.39785767 0.16938782 -0.5924072 0.25476074l-0.46832275 0.20977783" fill-rule="evenodd"/><path fill="#000000" stroke="#000000" stroke-width="2.0" stroke-linecap="butt" d="m331.51093 140.14394l-3.947815 8.815048l8.690399 -4.215103z" fill-rule="evenodd"/><path fill="#000000" fill-opacity="0.0" d="m525.48553 52.44357c0 33.901585 -67.97635 55.47639 -135.95273 67.80316c-67.97638 12.326775 -135.95276 15.40551 -135.95276 30.811012" fill-rule="evenodd"/><path stroke="#000000" stroke-width="2.0" stroke-linejoin="round" stroke-linecap="butt" d="m525.48553 52.44357c0 33.901585 -67.97635 55.47639 -135.95273 67.80316c-33.98819 6.163391 -67.97638 10.014763 -93.46753 14.250984c-12.745544 2.1181183 -23.366882 4.332428 -30.801788 6.980072c-0.9293518 0.33094788 -1.8089294 0.66867065 -2.6366577 1.0138245l-0.45147705 0.19232178" fill-rule="evenodd"/><path fill="#000000" stroke="#000000" stroke-width="2.0" stroke-linecap="butt" d="m259.87012 140.31773l-4.195816 8.699722l8.806259 -3.9673462z" fill-rule="evenodd"/><path fill="#000000" fill-opacity="0.0" d="m253.59317 179.8433l0 16.125977" fill-rule="evenodd"/><path stroke="#000000" stroke-width="2.0" stroke-linejoin="round" stroke-linecap="butt" d="m253.59317 179.84329l0 4.125992" fill-rule="evenodd"/><path fill="#000000" stroke="#000000" stroke-width="2.0" stroke-linecap="butt" d="m250.2897 183.96928l3.3034668 9.076187l3.3034668 -9.076187z" fill-rule="evenodd"/><path fill="#000000" fill-opacity="0.0" d="m325.51443 179.8433l0 16.125977" fill-rule="evenodd"/><path stroke="#000000" stroke-width="2.0" stroke-linejoin="round" stroke-linecap="butt" d="m325.51443 179.84329l0 4.125992" fill-rule="evenodd"/><path fill="#000000" stroke="#000000" stroke-width="2.0" stroke-linecap="butt" d="m322.21097 183.96928l3.3034668 9.076187l3.3034668 -9.076187z" fill-rule="evenodd"/><path fill="#000000" fill-opacity="0.0" d="m397.4357 179.8433l0 16.125977" fill-rule="evenodd"/><path stroke="#000000" stroke-width="2.0" stroke-linejoin="round" stroke-linecap="butt" d="m397.4357 179.84329l0 4.125992" fill-rule="evenodd"/><path fill="#000000" stroke="#000000" stroke-width="2.0" stroke-linecap="butt" d="m394.13223 183.96928l3.3034668 9.076187l3.3034668 -9.076187z" fill-rule="evenodd"/><path fill="#000000" fill-opacity="0.0" d="m469.35696 179.8433l0 16.125977" fill-rule="evenodd"/><path stroke="#000000" stroke-width="2.0" stroke-linejoin="round" stroke-linecap="butt" d="m469.35696 179.84329l0 4.125992" fill-rule="evenodd"/><path fill="#000000" stroke="#000000" stroke-width="2.0" stroke-linecap="butt" d="m466.0535 183.96928l3.3034668 9.076187l3.3034668 -9.076187z" fill-rule="evenodd"/></g></svg>