<svg version="1.1" viewBox="0.0 0.0 642.1286089238845 336.1102362204724" fill="none" stroke="none" stroke-linecap="square" stroke-miterlimit="10" xmlns:xlink="http://www.w3.org/1999/xlink" xmlns="http://www.w3.org/2000/svg"><clipPath id="p.0"><path d="m0 0l642.1286 0l0 336.11023l-642.1286 0l0 -336.11023z" clip-rule="nonzero"/></clipPath><g clip-path="url(#p.0)"><path fill="#000000" fill-opacity="0.0" d="m0 0l642.1286 0l0 336.11023l-642.1286 0z" fill-rule="evenodd"/><path fill="#ffffff" d="m0 0l641.6693 0l0 335.65353l-641.6693 0z" fill-rule="evenodd"/><path stroke="#000000" stroke-width="1.0" stroke-linejoin="round" stroke-linecap="butt" d="m0 0l641.6693 0l0 335.65353l-641.6693 0z" fill-rule="evenodd"/><path fill="#d9d9d9" d="m146.9567 249.08661l318.96063 0l0 77.763794l-318.96063 0z" fill-rule="evenodd"/><path stroke="#000000" stroke-width="2.0" stroke-linejoin="round" stroke-linecap="butt" d="m146.9567 249.08661l318.96063 0l0 77.763794l-318.96063 0z" fill-rule="evenodd"/><path fill="#000000" d="m264.6776 318.661l6.390625 2.640625l0 1.625l-8.046875 -3.234375l0 -2.03125l8.046875 -3.21875l0 1.625l-6.390625 2.59375zm13.943756 -1.25l2.015625 -5.3125l3.640625 0l0 1.734375l-1.453125 0l0.25 7.203125l1.0 0l0 1.734375l-4.453125 0l0 -1.734375l1.734375 0l-0.265625 -5.890625l-1.96875 5.25l-1.109375 0l-1.890625 -5.296875l-0.296875 5.9375l1.765625 0l0 1.734375l-4.53125 0l0 -1.734375l1.03125 0l0.296875 -7.203125l-1.40625 0l0 -1.734375l3.71875 0l1.921875 5.3125zm15.709381 -1.359375l-1.734375 0l0 -2.21875l-4.46875 0l0 2.65625l1.984375 0l0 -1.234375l1.734375 0l0 4.171875l-1.734375 0l0 -1.234375l-1.984375 0l0 2.84375l4.46875 0l0 -2.171875l1.734375 0l0 3.90625l-9.390625 0l0 -1.734375l1.484375 0l0 -7.203125l-1.4375 0l0 -1.734375l9.34375 0l0 3.953125zm6.678131 1.359375l2.015625 -5.3125l3.640625 0l0 1.734375l-1.453125 0l0.25 7.203125l1.0 0l0 1.734375l-4.453125 0l0 -1.734375l1.734375 0l-0.265625 -5.890625l-1.96875 5.25l-1.109375 0l-1.890625 -5.296875l-0.296875 5.9375l1.765625 0l0 1.734375l-4.53125 0l0 -1.734375l1.03125 0l0.296875 -7.203125l-1.40625 0l0 -1.734375l3.71875 0l1.921875 5.3125zm15.990631 0.046875q0 1.765625 -0.71875 3.015625q-0.703125 1.25 -1.84375 1.890625q-1.140625 0.625 -2.359375 0.625q-1.34375 0 -2.484375 -0.65625q-1.140625 -0.65625 -1.8125 -1.90625q-0.671875 -1.25 -0.671875 -2.9375q0 -1.53125 0.625 -2.8125q0.640625 -1.296875 1.765625 -2.03125q1.140625 -0.75 2.578125 -0.75q1.453125 0 2.578125 0.765625q1.125 0.765625 1.734375 2.03125q0.609375 1.265625 0.609375 2.765625zm-4.921875 3.84375q1.0 0 1.71875 -0.546875q0.734375 -0.5625 1.109375 -1.46875q0.390625 -0.90625 0.390625 -1.90625q0 -0.9375 -0.390625 -1.796875q-0.375 -0.875 -1.109375 -1.40625q-0.734375 -0.546875 -1.75 -0.546875q-0.90625 0 -1.640625 0.53125q-0.734375 0.53125 -1.140625 1.40625q-0.40625 0.859375 -0.40625 1.875q0 1.03125 0.390625 1.921875q0.390625 0.890625 1.125 1.421875q0.75 0.515625 1.703125 0.515625zm15.271881 -6.0625q0 1.125 -0.640625 1.890625q-0.625 0.765625 -1.84375 1.0625l2.15625 2.84375l1.390625 0l0 1.734375l-2.5 0q-0.421875 -0.953125 -1.125 -1.921875l-1.671875 -2.3125l-1.4375 0l0 2.5l1.375 0l0 1.734375l-4.5625 0l0 -1.734375l1.46875 0l0 -7.203125l-1.390625 0l0 -1.734375l5.328125 0q1.78125 0 2.609375 0.921875q0.84375 0.90625 0.84375 2.21875zm-1.703125 0.015625q0 -0.71875 -0.40625 -1.0625q-0.40625 -0.359375 -1.171875 -0.359375l-2.390625 0l0 2.96875l1.796875 0q1.09375 0 1.625 -0.375q0.546875 -0.390625 0.546875 -1.171875zm7.959381 -1.421875l-0.96875 0l1.875 3.15625l1.90625 -3.15625l-1.015625 0l0 -1.734375l4.296875 0l0 1.734375l-1.4375 0l-2.90625 4.8125l0 2.390625l2.21875 0l0 1.734375l-6.21875 0l0 -1.734375l2.265625 0l0 -2.390625l-2.90625 -4.8125l-1.40625 0l0 -1.734375l4.296875 0l0 1.734375zm16.475006 3.828125l0 2.03125l-8.046875 3.234375l0 -1.625l6.359375 -2.640625l-6.359375 -2.59375l0 -1.625l8.046875 3.21875z" fill-rule="nonzero"/><path fill="#d9d9d9" d="m105.38189 156.021l95.40157 0l0 51.2126l-95.40157 0z" fill-rule="evenodd"/><path stroke="#000000" stroke-width="2.0" stroke-linejoin="round" stroke-linecap="butt" d="m105.38189 156.021l95.40157 0l0 51.2126l-95.40157 0z" fill-rule="evenodd"/><path fill="#000000" d="m124.0764 166.86287q0 1.0 -0.484375 1.78125q-0.46875 0.78125 -1.296875 1.21875q-0.828125 0.4375 -1.828125 0.4375l-2.25 0l0 1.90625l2.265625 0l0 1.734375l-5.453125 0l0 -1.734375l1.46875 0l0 -7.203125l-1.453125 0l0 -1.734375l4.921875 0q1.9375 0 3.015625 0.953125q1.09375 0.953125 1.09375 2.640625zm-1.71875 -0.046875q0 -0.828125 -0.609375 -1.3125q-0.609375 -0.5 -1.78125 -0.5l-1.75 0l0 3.5625l1.9375 0q2.203125 0 2.203125 -1.75zm13.303131 1.8125q0 1.765625 -0.71875 3.015625q-0.703125 1.25 -1.84375 1.890625q-1.140625 0.625 -2.359375 0.625q-1.34375 0 -2.484375 -0.65625q-1.140625 -0.65625 -1.8125 -1.90625q-0.671875 -1.25 -0.671875 -2.9375q0 -1.53125 0.625 -2.8125q0.640625 -1.296875 1.765625 -2.03125q1.140625 -0.75 2.578125 -0.75q1.453125 0 2.578125 0.765625q1.125 0.765625 1.734375 2.03125q0.609375 1.265625 0.609375 2.765625zm-4.921875 3.84375q1.0 0 1.71875 -0.546875q0.734375 -0.5625 1.109375 -1.46875q0.390625 -0.90625 0.390625 -1.90625q0 -0.9375 -0.390625 -1.796875q-0.375 -0.875 -1.109375 -1.40625q-0.734375 -0.546875 -1.75 -0.546875q-0.90625 0 -1.640625 0.53125q-0.734375 0.53125 -1.140625 1.40625q-0.40625 0.859375 -0.40625 1.875q0 1.03125 0.390625 1.921875q0.390625 0.890625 1.125 1.421875q0.75 0.515625 1.703125 0.515625zm15.100006 -7.46875l-3.015625 0l0 7.203125l3.015625 0l0 1.734375l-7.875 0l0 -1.734375l3.078125 0l0 -7.203125l-3.078125 0l0 -1.734375l7.875 0l0 1.734375zm9.787506 5.671875l0 -5.671875l-1.734375 0l0 -1.734375l4.875 0l0 1.734375l-1.4375 0l0 8.9375l-1.640625 0l-4.8125 -7.609375l0 5.875l1.8125 0l0 1.734375l-4.9375 0l0 -1.734375l1.40625 0l0 -7.203125l-1.40625 0l0 -1.734375l3.328125 0l4.546875 7.40625zm13.553131 -3.34375l-1.734375 0l0 -2.328125l-2.265625 0l0 7.203125l2.25 0l0 1.734375l-6.234375 0l0 -1.734375l2.234375 0l0 -7.203125l-2.265625 0l0 2.328125l-1.734375 0l0 -4.0625l9.75 0l0 4.0625zm10.975006 -0.109375l-1.734375 0l0 -2.21875l-4.46875 0l0 2.65625l1.984375 0l0 -1.234375l1.734375 0l0 4.171875l-1.734375 0l0 -1.234375l-1.984375 0l0 2.84375l4.46875 0l0 -2.171875l1.734375 0l0 3.90625l-9.390625 0l0 -1.734375l1.484375 0l0 -7.203125l-1.4375 0l0 -1.734375l9.34375 0l0 3.953125zm10.631256 -0.8125q0 1.125 -0.640625 1.890625q-0.625 0.765625 -1.84375 1.0625l2.15625 2.84375l1.390625 0l0 1.734375l-2.5 0q-0.421875 -0.953125 -1.125 -1.921875l-1.671875 -2.3125l-1.4375 0l0 2.5l1.375 0l0 1.734375l-4.5625 0l0 -1.734375l1.46875 0l0 -7.203125l-1.390625 0l0 -1.734375l5.328125 0q1.78125 0 2.609375 0.921875q0.84375 0.90625 0.84375 2.21875zm-1.703125 0.015625q0 -0.71875 -0.40625 -1.0625q-0.40625 -0.359375 -1.171875 -0.359375l-2.390625 0l0 2.96875l1.796875 0q1.09375 0 1.625 -0.375q0.546875 -0.390625 0.546875 -1.171875z" fill-rule="nonzero"/><path fill="#d9d2e9" d="m111.838524 178.4357l82.4882 0l0 24.0l-82.4882 0z" fill-rule="evenodd"/><path stroke="#000000" stroke-width="2.0" stroke-linejoin="round" stroke-linecap="butt" d="m111.838524 178.4357l82.4882 0l0 24.0l-82.4882 0z" fill-rule="evenodd"/><path fill="#000000" d="m157.65762 190.27757q0 1.0 -0.484375 1.78125q-0.46875 0.78125 -1.296875 1.21875q-0.828125 0.4375 -1.828125 0.4375l-2.25 0l0 1.90625l2.265625 0l0 1.734375l-5.453125 0l0 -1.734375l1.46875 0l0 -7.203125l-1.453125 0l0 -1.734375l4.921875 0q1.9375 0 3.015625 0.953125q1.09375 0.953125 1.09375 2.640625zm-1.71875 -0.046875q0 -0.828125 -0.609375 -1.3125q-0.609375 -0.5 -1.78125 -0.5l-1.75 0l0 3.5625l1.9375 0q2.203125 0 2.203125 -1.75z" fill-rule="nonzero"/><path fill="#d9d9d9" d="m238.60367 207.2231l31.561737 0l0 23.038315l-15.780869 5.7595825l-15.780869 -5.7595825z" fill-rule="evenodd"/><path stroke="#000000" stroke-width="2.0" stroke-linejoin="round" stroke-linecap="butt" d="m238.60367 207.2231l31.561737 0l0 23.038315l-15.780869 5.7595825l-15.780869 -5.7595825z" fill-rule="evenodd"/><path fill="#000000" d="m247.96889 215.80539l-1.875 0l0 8.6875l1.875 0l0 1.484375l-3.359375 0l0 -11.65625l3.359375 0l0 1.484375zm16.231277 10.171875l-3.40625 0l0 -1.484375l1.90625 0l0 -8.6875l-1.90625 0l0 -1.484375l3.40625 0l0 11.65625z" fill-rule="nonzero"/><path fill="#d9d9d9" d="m286.5508 207.2231l31.561737 0l0 23.038315l-15.780853 5.7595825l-15.780884 -5.7595825z" fill-rule="evenodd"/><path stroke="#000000" stroke-width="2.0" stroke-linejoin="round" stroke-linecap="butt" d="m286.5508 207.2231l31.561737 0l0 23.038315l-15.780853 5.7595825l-15.780884 -5.7595825z" fill-rule="evenodd"/><path fill="#000000" d="m295.91602 215.80539l-1.875 0l0 8.6875l1.875 0l0 1.484375l-3.359375 0l0 -11.65625l3.359375 0l0 1.484375zm16.231293 10.171875l-3.40625 0l0 -1.484375l1.90625 0l0 -8.6875l-1.90625 0l0 -1.484375l3.40625 0l0 11.65625z" fill-rule="nonzero"/><path fill="#d9d9d9" d="m334.49927 207.2231l31.561737 0l0 23.038315l-15.780884 5.7595825l-15.780853 -5.7595825z" fill-rule="evenodd"/><path stroke="#000000" stroke-width="2.0" stroke-linejoin="round" stroke-linecap="butt" d="m334.49927 207.2231l31.561737 0l0 23.038315l-15.780884 5.7595825l-15.780853 -5.7595825z" fill-rule="evenodd"/><path fill="#000000" d="m343.86447 215.80539l-1.875 0l0 8.6875l1.875 0l0 1.484375l-3.359375 0l0 -11.65625l3.359375 0l0 1.484375zm16.231293 10.171875l-3.40625 0l0 -1.484375l1.90625 0l0 -8.6875l-1.90625 0l0 -1.484375l3.40625 0l0 11.65625z" fill-rule="nonzero"/><path fill="#d9d9d9" d="m382.44745 207.2231l31.561737 0l0 23.038315l-15.780853 5.7595825l-15.780884 -5.7595825z" fill-rule="evenodd"/><path stroke="#000000" stroke-width="2.0" stroke-linejoin="round" stroke-linecap="butt" d="m382.44745 207.2231l31.561737 0l0 23.038315l-15.780853 5.7595825l-15.780884 -5.7595825z" fill-rule="evenodd"/><path fill="#000000" d="m391.81265 215.80539l-1.875 0l0 8.6875l1.875 0l0 1.484375l-3.359375 0l0 -11.65625l3.359375 0l0 1.484375zm16.231293 10.171875l-3.40625 0l0 -1.484375l1.90625 0l0 -8.6875l-1.90625 0l0 -1.484375l3.40625 0l0 11.65625z" fill-rule="nonzero"/><path fill="#000000" fill-opacity="0.0" d="m254.38454 236.021l-20.062988 20.37796" fill-rule="evenodd"/><path stroke="#000000" stroke-width="2.0" stroke-linejoin="round" stroke-linecap="butt" d="m254.38454 236.021l-11.644058 11.8268585" fill-rule="evenodd"/><path fill="#000000" stroke="#000000" stroke-width="2.0" stroke-linecap="butt" d="m240.38646 245.5302l-4.0136414 8.785278l8.721695 -4.149994z" fill-rule="evenodd"/><path fill="#000000" fill-opacity="0.0" d="m302.3317 236.021l-5.259857 20.37796" fill-rule="evenodd"/><path stroke="#000000" stroke-width="2.0" stroke-linejoin="round" stroke-linecap="butt" d="m302.3317 236.021l-2.2607727 8.758759" fill-rule="evenodd"/><path fill="#000000" stroke="#000000" stroke-width="2.0" stroke-linecap="butt" d="m296.87228 243.95415l0.93029785 9.613785l5.46698 -7.962555z" fill-rule="evenodd"/><path fill="#000000" fill-opacity="0.0" d="m350.28012 236.021l9.51181 20.37796" fill-rule="evenodd"/><path stroke="#000000" stroke-width="2.0" stroke-linejoin="round" stroke-linecap="butt" d="m350.28015 236.021l4.436249 9.504181" fill-rule="evenodd"/><path fill="#000000" stroke="#000000" stroke-width="2.0" stroke-linecap="butt" d="m351.723 246.92242l6.832306 6.827133l-0.845459 -9.621613z" fill-rule="evenodd"/><path fill="#000000" fill-opacity="0.0" d="m398.22833 236.021l24.283447 20.37796" fill-rule="evenodd"/><path stroke="#000000" stroke-width="2.0" stroke-linejoin="round" stroke-linecap="butt" d="m398.2283 236.021l15.091248 12.664124" fill-rule="evenodd"/><path fill="#000000" stroke="#000000" stroke-width="2.0" stroke-linecap="butt" d="m411.196 251.21564l9.07608 3.303833l-4.82901 -8.364868z" fill-rule="evenodd"/><path fill="#d9d9d9" d="m433.4895 7.2073493l202.86615 0l0 51.2126l-202.86615 0z" fill-rule="evenodd"/><path stroke="#000000" stroke-width="2.0" stroke-linejoin="round" stroke-linecap="butt" d="m433.4895 7.2073493l202.86615 0l0 51.2126l-202.86615 0z" fill-rule="evenodd"/><path fill="#000000" d="m466.74127 16.189848l-1.4375 0l2.609375 6.6875l2.53125 -6.6875l-1.671875 0l0 -1.734376l4.609375 0l0 1.734376l-1.25 0l-3.390625 8.9375l-1.734375 0l-3.484375 -8.9375l-1.375 0l0 -1.734376l4.59375 0l0 1.734376zm16.693756 7.203125l1.046875 0l0 1.734375l-4.359375 0l0 -1.734375l1.5625 0l-0.546875 -1.265625l-4.328125 0l-0.546875 1.265625l1.609375 0l0 1.734375l-4.4375 0l0 -1.734375l1.09375 0l3.046875 -7.203125l-2.296875 0l0 -1.734376l4.5 0l3.65625 8.937501zm-2.984375 -3.0l-1.453125 -3.453125l-1.46875 3.453125l2.921875 0zm10.771881 -4.203125l-2.234375 0l0 7.203125l4.234375 0l0 -3.28125l1.734375 0l0 5.015625l-9.453125 0l0 -1.734375l1.765625 0l0 -7.203125l-1.765625 0l0 -1.734376l5.71875 0l0 1.734376zm9.787506 0l-1.71875 0l0 5.34375q0 1.109375 0.53125 1.59375q0.53125 0.484375 1.65625 0.484375q1.25 0 1.765625 -0.546875q0.515625 -0.546875 0.515625 -1.859375l0 -5.015625l-1.75 0l0 -1.734376l4.890625 0l0 1.734376l-1.421875 0l0 5.40625q0 0.921875 -0.28125 1.671875q-0.28125 0.734375 -0.796875 1.1875q-0.515625 0.453125 -1.359375 0.671875q-0.828125 0.21875 -1.546875 0.21875q-1.0625 0 -1.78125 -0.25q-0.703125 -0.25 -1.21875 -0.765625q-0.921875 -0.859375 -0.921875 -2.9375l0 -5.203125l-1.453125 0l0 -1.734376l4.890625 0l0 1.734376zm16.209381 2.21875l-1.734375 0l0 -2.21875l-4.46875 0l0 2.65625l1.984375 0l0 -1.234375l1.734375 0l0 4.171875l-1.734375 0l0 -1.234375l-1.984375 0l0 2.84375l4.46875 0l0 -2.171875l1.734375 0l0 3.90625l-9.390625 0l0 -1.734375l1.484375 0l0 -7.203125l-1.4375 0l0 -1.734376l9.34375 0l0 3.953126zm21.653137 -2.21875l-3.015625 0l0 7.203125l3.015625 0l0 1.734375l-7.875 0l0 -1.734375l3.078125 0l0 -7.203125l-3.078125 0l0 -1.734376l7.875 0l0 1.734376zm12.053162 2.203125l-1.734375 0l0 -2.203125l-4.375 0l0 2.671875l1.984375 0l0 -1.234375l1.71875 0l0 4.171875l-1.71875 0l0 -1.203125l-1.984375 0l0 2.796875l2.28125 0l0 1.734375l-5.40625 0l0 -1.734375l1.40625 0l0 -7.203125l-1.390625 0l0 -1.734376l9.21875 0l0 3.937501zm22.481201 0.125l-1.734375 0l0 -2.328125l-2.265625 0l0 7.203125l2.25 0l0 1.734375l-6.234375 0l0 -1.734375l2.234375 0l0 -7.203125l-2.265625 0l0 2.328125l-1.734375 0l0 -4.062501l9.75 0l0 4.062501zm10.412537 -0.921875q0 1.125 -0.640625 1.890625q-0.625 0.765625 -1.84375 1.0625l2.15625 2.84375l1.390625 0l0 1.734375l-2.5 0q-0.421875 -0.953125 -1.125 -1.921875l-1.671875 -2.3125l-1.4375 0l0 2.5l1.375 0l0 1.734375l-4.5625 0l0 -1.734375l1.46875 0l0 -7.203125l-1.390625 0l0 -1.734376l5.328125 0q1.78125 0 2.609375 0.921875q0.84375 0.90625095 0.84375 2.218751zm-1.703125 0.015625q0 -0.71875 -0.40625 -1.0625q-0.40625 -0.359375 -1.171875 -0.359375l-2.390625 0l0 2.96875l1.796875 0q1.09375 0 1.625 -0.375q0.546875 -0.390625 0.546875 -1.171875zm8.443726 -1.421875l-1.71875 0l0 5.34375q0 1.109375 0.53125 1.59375q0.53125 0.484375 1.65625 0.484375q1.25 0 1.765625 -0.546875q0.515625 -0.546875 0.515625 -1.859375l0 -5.015625l-1.75 0l0 -1.734376l4.890625 0l0 1.734376l-1.421875 0l0 5.40625q0 0.921875 -0.28125 1.671875q-0.28125 0.734375 -0.796875 1.1875q-0.515625 0.453125 -1.359375 0.671875q-0.828125 0.21875 -1.546875 0.21875q-1.0625 0 -1.78125 -0.25q-0.703125 -0.25 -1.21875 -0.765625q-0.921875 -0.859375 -0.921875 -2.9375l0 -5.203125l-1.453125 0l0 -1.734376l4.890625 0l0 1.734376zm16.209412 2.21875l-1.734375 0l0 -2.21875l-4.46875 0l0 2.65625l1.984375 0l0 -1.234375l1.734375 0l0 4.171875l-1.734375 0l0 -1.234375l-1.984375 0l0 2.84375l4.46875 0l0 -2.171875l1.734375 0l0 3.90625l-9.390625 0l0 -1.734375l1.484375 0l0 -7.203125l-1.4375 0l0 -1.734376l9.34375 0l0 3.953126z" fill-rule="nonzero"/><path fill="#d9d2e9" d="m438.5735 29.622047l47.93701 0l0 24.0l-47.93701 0z" fill-rule="evenodd"/><path stroke="#000000" stroke-width="2.0" stroke-linejoin="round" stroke-linecap="butt" d="m438.5735 29.622047l47.93701 0l0 24.0l-47.93701 0z" fill-rule="evenodd"/><path fill="#000000" d="m466.492 39.604546l-3.015625 0l0 7.203125l3.015625 0l0 1.734375l-7.875 0l0 -1.734375l3.078125 0l0 -7.203125l-3.078125 0l0 -1.734375l7.875 0l0 1.734375z" fill-rule="nonzero"/><path fill="#d9d2e9" d="m486.52094 29.622047l47.93701 0l0 24.0l-47.93701 0z" fill-rule="evenodd"/><path stroke="#000000" stroke-width="2.0" stroke-linejoin="round" stroke-linecap="butt" d="m486.52094 29.622047l47.93701 0l0 24.0l-47.93701 0z" fill-rule="evenodd"/><path fill="#000000" d="m515.87695 39.604546l-2.25 0l0 5.515625q0 0.984375 -0.234375 1.65625q-0.234375 0.671875 -0.71875 1.09375q-0.53125 0.46875 -1.0625305 0.671875q-0.53125 0.21875 -1.40625 0.21875q-0.953125 0 -2.0625 -0.3125q-1.109375 -0.328125 -2.21875 -0.9375l0 -4.28125l1.734375 0l0 2.046875q0 1.015625 0.625 1.359375q0.421875 0.25 0.953125 0.34375q0.546875 0.09375 0.953125 0.09375q0.9375 0 1.328125 -0.453125q0.40625 -0.453125 0.40625 -1.640625l0 -5.375l-3.28125 0l0 -1.734375l7.2344055 0l0 1.734375z" fill-rule="nonzero"/><path fill="#d9d2e9" d="m534.4684 29.622047l47.93695 0l0 24.0l-47.93695 0z" fill-rule="evenodd"/><path stroke="#000000" stroke-width="2.0" stroke-linejoin="round" stroke-linecap="butt" d="m534.4684 29.622047l47.93695 0l0 24.0l-47.93695 0z" fill-rule="evenodd"/><path fill="#000000" d="m558.0431 39.604546l-1.453125 0l0 2.890625l3.0 -2.890625l-0.765625 0l0 -1.734375l4.265625 0l0 1.734375l-1.203125 0l-3.09375 3.0q1.71875 2.0 2.890625 4.203125l1.890625 0l0 1.734375l-2.828125 0q-0.578125 -1.21875 -1.421875 -2.53125q-0.828125 -1.3125 -1.6875 -2.296875l-1.046875 1.0l0 2.09375l1.453125 0l0 1.734375l-4.640625 0l0 -1.734375l1.46875 0l0 -7.203125l-1.46875 0l0 -1.734375l4.640625 0l0 1.734375z" fill-rule="nonzero"/><path fill="#d9d2e9" d="m582.4158 29.622047l47.93701 0l0 24.0l-47.93701 0z" fill-rule="evenodd"/><path stroke="#000000" stroke-width="2.0" stroke-linejoin="round" stroke-linecap="butt" d="m582.4158 29.622047l47.93701 0l0 24.0l-47.93701 0z" fill-rule="evenodd"/><path fill="#000000" d="m607.4593 39.604546l-2.234375 0l0 7.203125l4.234375 0l0 -3.28125l1.734375 0l0 5.015625l-9.453125 0l0 -1.734375l1.765625 0l0 -7.203125l-1.765625 0l0 -1.734375l5.71875 0l0 1.734375z" fill-rule="nonzero"/><path fill="#d9d9d9" d="m446.4462 156.021l95.40158 0l0 51.2126l-95.40158 0z" fill-rule="evenodd"/><path stroke="#000000" stroke-width="2.0" stroke-linejoin="round" stroke-linecap="butt" d="m446.4462 156.021l95.40158 0l0 51.2126l-95.40158 0z" fill-rule="evenodd"/><path fill="#000000" d="m473.99072 163.48787l0 -0.421875l1.71875 0l0 4.015625l-1.71875 0l0 -1.796875q-1.09375 -0.5 -2.03125 -0.5q-1.015625 0 -1.703125 0.5q-0.671875 0.5 -0.671875 1.1875q0 0.609375 0.390625 0.921875q0.390625 0.296875 0.953125 0.40625q0.5625 0.109375 1.5625 0.203125l0.71875 0.078125q1.34375 0.171875 2.109375 0.875q0.765625 0.6875 0.765625 1.921875q0 0.984375 -0.5625 1.734375q-0.546875 0.75 -1.515625 1.171875q-0.953125 0.40625 -2.15625 0.40625q-0.65625 0 -1.25 -0.15625q-0.59375 -0.15625 -1.34375 -0.515625l0 0.671875l-1.71875 0l0 -3.90625l1.71875 0l0 1.421875q1.265625 0.765625 2.609375 0.765625q1.21875 0 1.875 -0.40625q0.65625 -0.421875 0.65625 -1.1875q0 -0.65625 -0.515625 -0.953125q-0.515625 -0.296875 -1.765625 -0.3125q-2.09375 -0.03125 -3.1875 -0.890625q-1.09375 -0.859375 -1.09375 -2.25q0 -0.875 0.515625 -1.65625q0.515625 -0.796875 1.4375 -1.265625q0.921875 -0.484375 2.109375 -0.484375q1.15625 0 2.09375 0.421875zm12.178131 0.359375l0 -0.78125l1.703125 0l0 4.34375l-1.703125 0l0 -1.765625q-1.390625 -0.875 -2.734375 -0.875q-0.890625 0 -1.671875 0.453125q-0.765625 0.453125 -1.234375 1.3125q-0.46875 0.859375 -0.46875 2.03125q0 1.75 0.90625 2.8125q0.90625 1.0625 2.515625 1.0625q0.796875 0 1.671875 -0.296875q0.890625 -0.3125 1.734375 -0.90625l1.046875 1.265625q-0.796875 0.75 -2.125 1.203125q-1.328125 0.453125 -2.296875 0.453125q-2.390625 0 -3.859375 -1.71875q-0.625 -0.703125 -0.984375 -1.796875q-0.34375 -1.09375 -0.34375 -2.09375q0 -1.5625 0.671875 -2.8125q0.671875 -1.25 1.828125 -1.953125q1.15625 -0.71875 2.59375 -0.71875q0.78125 0 1.5 0.21875q0.734375 0.203125 1.25 0.5625zm12.459381 8.359375l1.046875 0l0 1.734375l-4.359375 0l0 -1.734375l1.5625 0l-0.546875 -1.265625l-4.328125 0l-0.546875 1.265625l1.609375 0l0 1.734375l-4.4375 0l0 -1.734375l1.09375 0l3.046875 -7.203125l-2.296875 0l0 -1.734375l4.5 0l3.65625 8.9375zm-2.984375 -3.0l-1.453125 -3.453125l-1.46875 3.453125l2.921875 0zm10.771881 -4.203125l-2.234375 0l0 7.203125l4.234375 0l0 -3.28125l1.734375 0l0 5.015625l-9.453125 0l0 -1.734375l1.765625 0l0 -7.203125l-1.765625 0l0 -1.734375l5.71875 0l0 1.734375zm14.803131 2.21875l-1.734375 0l0 -2.21875l-4.46875 0l0 2.65625l1.984375 0l0 -1.234375l1.734375 0l0 4.171875l-1.734375 0l0 -1.234375l-1.984375 0l0 2.84375l4.46875 0l0 -2.171875l1.734375 0l0 3.90625l-9.390625 0l0 -1.734375l1.484375 0l0 -7.203125l-1.4375 0l0 -1.734375l9.34375 0l0 3.953125z" fill-rule="nonzero"/><path fill="#d9d2e9" d="m452.90283 177.90027l82.48816 0l0 24.0l-82.48816 0z" fill-rule="evenodd"/><path stroke="#000000" stroke-width="2.0" stroke-linejoin="round" stroke-linecap="butt" d="m452.90283 177.90027l82.48816 0l0 24.0l-82.48816 0z" fill-rule="evenodd"/><path fill="#000000" d="m497.97192 187.38277l-5.6875 7.703125l4.375 0l0 -2.625l1.71875 0l0 4.359375l-8.40625 0l0 -1.328125l5.609375 -7.609375l-3.828125 0l0 2.359375l-1.703125 0l0 -4.09375l7.921875 0l0 1.234375z" fill-rule="nonzero"/><path fill="#000000" fill-opacity="0.0" d="m606.3843 53.622047c0 38.40004 -52.039368 57.59929 -104.078735 76.80007c-52.039368 19.20079 -104.078735 38.403122 -104.078735 76.80623" fill-rule="evenodd"/><path stroke="#0000ff" stroke-width="2.0" stroke-linejoin="round" stroke-linecap="butt" d="m606.38434 53.622047c0 38.40004 -52.03943 57.59929 -104.078766 76.80007c-26.019684 9.600403 -52.039368 19.201172 -71.55414 31.20224c-9.757385 6.000534 -17.88852 12.601135 -23.580353 20.101807c-2.8458557 3.7503357 -5.08197 7.7256927 -6.606537 11.963547c-0.19058228 0.5297394 -0.37002563 1.0635681 -0.5381775 1.6015778l-0.021331787 0.0695343" fill-rule="evenodd"/><path fill="#0000ff" stroke="#0000ff" stroke-width="2.0" stroke-linecap="butt" d="m396.73804 194.8713l1.9220581 9.465515l4.6119385 -8.486465z" fill-rule="evenodd"/><path fill="#d9d9d9" d="m12.311024 7.2073493l202.86615 0l0 51.2126l-202.86615 0z" fill-rule="evenodd"/><path stroke="#000000" stroke-width="2.0" stroke-linejoin="round" stroke-linecap="butt" d="m12.311024 7.2073493l202.86615 0l0 51.2126l-202.86615 0z" fill-rule="evenodd"/><path fill="#000000" d="m45.9503 19.814848q0 1.765625 -0.71875 3.015625q-0.703125 1.25 -1.84375 1.890625q-1.140625 0.625 -2.359375 0.625q-1.34375 0 -2.484375 -0.65625q-1.140625 -0.65625 -1.8125 -1.90625q-0.671875 -1.25 -0.671875 -2.9375q0 -1.53125 0.625 -2.8125q0.640625 -1.296876 1.765625 -2.031251q1.140625 -0.75 2.578125 -0.75q1.453125 0 2.578125 0.765625q1.125 0.765625 1.734375 2.031251q0.609375 1.265625 0.609375 2.765625zm-4.921875 3.84375q1.0 0 1.71875 -0.546875q0.734375 -0.5625 1.109375 -1.46875q0.390625 -0.90625 0.390625 -1.90625q0 -0.9375 -0.390625 -1.796875q-0.375 -0.875 -1.109375 -1.40625q-0.734375 -0.54687595 -1.75 -0.54687595q-0.90625 0 -1.640625 0.53125095q-0.734375 0.53125 -1.140625 1.40625q-0.40625 0.859375 -0.40625 1.875q0 1.03125 0.390625 1.921875q0.390625 0.890625 1.125 1.421875q0.75 0.515625 1.703125 0.515625zm15.959381 -5.265625l-1.734375 0l0 -2.203125l-4.375 0l0 2.671875l1.984375 0l0 -1.234375l1.71875 0l0 4.171875l-1.71875 0l0 -1.203125l-1.984375 0l0 2.796875l2.28125 0l0 1.734375l-5.40625 0l0 -1.734375l1.40625 0l0 -7.203125l-1.390625 0l0 -1.734376l9.21875 0l0 3.937501zm11.193752 0l-1.734375 0l0 -2.203125l-4.374996 0l0 2.671875l1.9843712 0l0 -1.234375l1.71875 0l0 4.171875l-1.71875 0l0 -1.203125l-1.9843712 0l0 2.796875l2.2812462 0l0 1.734375l-5.406246 0l0 -1.734375l1.40625 0l0 -7.203125l-1.390625 0l0 -1.734376l9.218746 0l0 3.937501zm8.615631 -3.718751l0 -0.421875l1.71875 0l0 4.015626l-1.71875 0l0 -1.796875q-1.09375 -0.50000095 -2.03125 -0.50000095q-1.015625 0 -1.703125 0.50000095q-0.671875 0.5 -0.671875 1.1875q0 0.609375 0.390625 0.921875q0.390625 0.296875 0.953125 0.40625q0.5625 0.109375 1.5625 0.203125l0.71875 0.078125q1.34375 0.171875 2.109375 0.875q0.765625 0.6875 0.765625 1.921875q0 0.984375 -0.5625 1.734375q-0.546875 0.75 -1.515625 1.171875q-0.953125 0.40625 -2.15625 0.40625q-0.65625 0 -1.25 -0.15625q-0.59375 -0.15625 -1.34375 -0.515625l0 0.671875l-1.71875 0l0 -3.90625l1.71875 0l0 1.421875q1.265625 0.765625 2.609375 0.765625q1.21875 0 1.875 -0.40625q0.65625 -0.421875 0.65625 -1.1875q0 -0.65625 -0.515625 -0.953125q-0.515625 -0.296875 -1.765625 -0.3125q-2.09375 -0.03125 -3.1875 -0.890625q-1.09375 -0.859375 -1.09375 -2.25q0 -0.875 0.515625 -1.65625q0.515625 -0.79687595 1.4375 -1.265626q0.921875 -0.484375 2.109375 -0.484375q1.15625 0 2.09375 0.421875zm13.646881 3.734376l-1.734375 0l0 -2.21875l-4.46875 0l0 2.65625l1.984375 0l0 -1.234375l1.734375 0l0 4.171875l-1.734375 0l0 -1.234375l-1.984375 0l0 2.84375l4.46875 0l0 -2.171875l1.734375 0l0 3.90625l-9.390625 0l0 -1.734375l1.484375 0l0 -7.203125l-1.4375 0l0 -1.734376l9.34375 0l0 3.953126zm11.412506 0.109375l-1.734375 0l0 -2.328125l-2.265625 0l0 7.203125l2.25 0l0 1.734375l-6.234375 0l0 -1.734375l2.234375 0l0 -7.203125l-2.265625 0l0 2.328125l-1.734375 0l0 -4.062501l9.75 0l0 4.062501zm21.434387 -2.328125l-3.015625 0l0 7.203125l3.015625 0l0 1.734375l-7.875 0l0 -1.734375l3.078125 0l0 -7.203125l-3.078125 0l0 -1.734376l7.875 0l0 1.734376zm12.053139 2.203125l-1.734375 0l0 -2.203125l-4.375 0l0 2.671875l1.984375 0l0 -1.234375l1.71875 0l0 4.171875l-1.71875 0l0 -1.203125l-1.984375 0l0 2.796875l2.28125 0l0 1.734375l-5.4062576 0l0 -1.734375l1.40625 0l0 -7.203125l-1.390625 0l0 -1.734376l9.218758 0l0 3.937501zm22.481262 0.125l-1.734375 0l0 -2.328125l-2.265625 0l0 7.203125l2.25 0l0 1.734375l-6.234375 0l0 -1.734375l2.234375 0l0 -7.203125l-2.265625 0l0 2.328125l-1.734375 0l0 -4.062501l9.75 0l0 4.062501zm10.412506 -0.921875q0 1.125 -0.640625 1.890625q-0.625 0.765625 -1.84375 1.0625l2.15625 2.84375l1.390625 0l0 1.734375l-2.5 0q-0.421875 -0.953125 -1.125 -1.921875l-1.671875 -2.3125l-1.4375 0l0 2.5l1.375 0l0 1.734375l-4.5625 0l0 -1.734375l1.46875 0l0 -7.203125l-1.390625 0l0 -1.734376l5.328125 0q1.78125 0 2.609375 0.921875q0.84375 0.90625095 0.84375 2.218751zm-1.703125 0.015625q0 -0.71875 -0.40625 -1.0625q-0.40625 -0.359375 -1.171875 -0.359375l-2.390625 0l0 2.96875l1.796875 0q1.09375 0 1.625 -0.375q0.546875 -0.390625 0.546875 -1.171875zm8.443756 -1.421875l-1.71875 0l0 5.34375q0 1.109375 0.53125 1.59375q0.53125 0.484375 1.65625 0.484375q1.25 0 1.765625 -0.546875q0.515625 -0.546875 0.515625 -1.859375l0 -5.015625l-1.75 0l0 -1.734376l4.890625 0l0 1.734376l-1.421875 0l0 5.40625q0 0.921875 -0.28125 1.671875q-0.28125 0.734375 -0.796875 1.1875q-0.515625 0.453125 -1.359375 0.671875q-0.828125 0.21875 -1.546875 0.21875q-1.0625 0 -1.78125 -0.25q-0.703125 -0.25 -1.21875 -0.765625q-0.921875 -0.859375 -0.921875 -2.9375l0 -5.203125l-1.453125 0l0 -1.734376l4.890625 0l0 1.734376zm16.209381 2.21875l-1.734375 0l0 -2.21875l-4.46875 0l0 2.65625l1.984375 0l0 -1.234375l1.734375 0l0 4.171875l-1.734375 0l0 -1.234375l-1.984375 0l0 2.84375l4.46875 0l0 -2.171875l1.734375 0l0 3.90625l-9.390625 0l0 -1.734375l1.484375 0l0 -7.203125l-1.4375 0l0 -1.734376l9.34375 0l0 3.953126z" fill-rule="nonzero"/><path fill="#d9d2e9" d="m17.395014 29.622047l47.93701 0l0 24.0l-47.93701 0z" fill-rule="evenodd"/><path stroke="#000000" stroke-width="2.0" stroke-linejoin="round" stroke-linecap="butt" d="m17.395014 29.622047l47.93701 0l0 24.0l-47.93701 0z" fill-rule="evenodd"/><path fill="#000000" d="m45.844765 46.80767l1.046875 0l0 1.734375l-4.359375 0l0 -1.734375l1.5625 0l-0.546875 -1.265625l-4.328125 0l-0.546875 1.265625l1.609375 0l0 1.734375l-4.4375 0l0 -1.734375l1.09375 0l3.046875 -7.203125l-2.296875 0l0 -1.734375l4.5 0l3.65625 8.9375zm-2.984375 -3.0l-1.453125 -3.453125l-1.46875 3.453125l2.921875 0z" fill-rule="nonzero"/><path fill="#d9d2e9" d="m65.342445 29.622047l47.93701 0l0 24.0l-47.93701 0z" fill-rule="evenodd"/><path stroke="#000000" stroke-width="2.0" stroke-linejoin="round" stroke-linecap="butt" d="m65.342445 29.622047l47.93701 0l0 24.0l-47.93701 0z" fill-rule="evenodd"/><path fill="#000000" d="m93.43282 40.77642q0 0.640625 -0.28125 1.203125q-0.265625 0.5625 -0.78125 0.96875q0.984375 0.5625 1.34375 1.1875q0.359375 0.625 0.359375 1.390625q0 0.875 -0.46875 1.5625q-0.453125 0.6875 -1.234375 1.078125q-0.78125 0.375 -1.765625 0.375l-6.21875 0l0 -1.734375l1.453125 0l0 -7.203125l-1.453125 0l0 -1.734375l5.5 0q1.609375 0 2.578125 0.8125q0.96875 0.8125 0.96875 2.09375zm-1.703125 0.0625q0 -0.546875 -0.453125 -0.890625q-0.453125 -0.34375 -1.1875 -0.34375l-2.53125 0l0 2.5625l2.421875 0q0.71875 0 1.234375 -0.34375q0.515625 -0.359375 0.515625 -0.984375zm0.625 4.5625q0 -0.734375 -0.65625 -1.109375q-0.65625 -0.390625 -1.890625 -0.390625l-2.25 0l0 2.90625l3.09375 0q0.671875 0 1.1875 -0.375q0.515625 -0.375 0.515625 -1.03125z" fill-rule="nonzero"/><path fill="#d9d2e9" d="m113.28988 29.622047l47.937004 0l0 24.0l-47.937004 0z" fill-rule="evenodd"/><path stroke="#000000" stroke-width="2.0" stroke-linejoin="round" stroke-linecap="butt" d="m113.28988 29.622047l47.937004 0l0 24.0l-47.937004 0z" fill-rule="evenodd"/><path fill="#000000" d="m140.474 38.448296l0 -0.78125l1.703125 0l0 4.34375l-1.703125 0l0 -1.765625q-1.390625 -0.875 -2.734375 -0.875q-0.890625 0 -1.671875 0.453125q-0.765625 0.453125 -1.234375 1.3125q-0.46875 0.859375 -0.46875 2.03125q0 1.75 0.90625 2.8125q0.90625 1.0625 2.515625 1.0625q0.796875 0 1.671875 -0.296875q0.890625 -0.3125 1.734375 -0.90625l1.046875 1.265625q-0.796875 0.75 -2.125 1.203125q-1.328125 0.453125 -2.296875 0.453125q-2.390625 0 -3.859375 -1.71875q-0.625 -0.703125 -0.984375 -1.796875q-0.34375 -1.09375 -0.34375 -2.09375q0 -1.5625 0.671875 -2.8125q0.671875 -1.25 1.828125 -1.953125q1.15625 -0.71875 2.59375 -0.71875q0.78125 0 1.5 0.21875q0.734375 0.203125 1.25 0.5625z" fill-rule="nonzero"/><path fill="#d9d2e9" d="m161.2373 29.622047l47.93701 0l0 24.0l-47.93701 0z" fill-rule="evenodd"/><path stroke="#000000" stroke-width="2.0" stroke-linejoin="round" stroke-linecap="butt" d="m161.2373 29.622047l47.93701 0l0 24.0l-47.93701 0z" fill-rule="evenodd"/><path fill="#000000" d="m190.10893 42.99517q0 2.75 -1.34375 4.15625q-1.34375 1.390625 -3.78125 1.390625l-4.890625 0l0 -1.734375l1.46875 0l0 -7.203125l-1.46875 0l0 -1.734375l5.375 0q1.484375 0 2.53125 0.671875q1.046875 0.65625 1.578125 1.8125q0.53125 1.15625 0.53125 2.640625zm-1.71875 0.078125q0 -1.65625 -0.78125 -2.5625q-0.78125 -0.90625 -2.140625 -0.90625l-2.1875 0l0 7.203125l2.0625 0q1.265625 0 2.15625 -0.875q0.890625 -0.875 0.890625 -2.859375z" fill-rule="nonzero"/><path fill="#000000" fill-opacity="0.0" d="m185.20581 53.622047c0 38.40004 53.25197 57.59929 106.50394 76.80007c53.251984 19.20079 106.50394 38.403122 106.50394 76.80623" fill-rule="evenodd"/><path stroke="#ff0000" stroke-width="2.0" stroke-linejoin="round" stroke-linecap="butt" d="m185.20581 53.622047c0 38.40004 53.25197 57.59929 106.50394 76.80007c26.626007 9.600403 53.251984 19.201172 73.221466 31.20224c9.984741 6.000534 18.30539 12.601135 24.129822 20.101807c2.9121704 3.7503357 5.2003784 7.7256927 6.760498 11.963547c0.19500732 0.5297394 0.3786316 1.0635681 0.5507202 1.6015778l0.023712158 0.075531006" fill-rule="evenodd"/><path fill="#ff0000" stroke="#ff0000" stroke-width="2.0" stroke-linecap="butt" d="m393.13058 195.86723l4.6402283 8.471054l1.8904724 -9.471878z" fill-rule="evenodd"/><path fill="#000000" fill-opacity="0.0" d="m41.363518 53.622047c0 38.40004 53.25197 57.59929 106.50393 76.80007c53.25197 19.20079 106.50394 38.403122 106.50394 76.80623" fill-rule="evenodd"/><path stroke="#ff0000" stroke-width="2.0" stroke-linejoin="round" stroke-linecap="butt" d="m41.363518 53.622047c0 38.40004 53.25197 57.59929 106.50393 76.80007c26.625992 9.600403 53.25197 19.201172 73.221466 31.20224c9.984741 6.000534 18.305359 12.601135 24.129791 20.101807c2.9122162 3.7503357 5.2003784 7.7256927 6.760498 11.963547c0.19503784 0.5297394 0.3786621 1.0635681 0.5507202 1.6015778l0.0236969 0.075531006" fill-rule="evenodd"/><path fill="#ff0000" stroke="#ff0000" stroke-width="2.0" stroke-linecap="butt" d="m249.28828 195.86723l4.640213 8.471054l1.8904724 -9.471878z" fill-rule="evenodd"/><path fill="#000000" fill-opacity="0.0" d="m89.31095 53.622047c0 38.40004 53.25196 57.59929 106.50393 76.80007c53.25197 19.20079 106.50394 38.403122 106.50394 76.80623" fill-rule="evenodd"/><path stroke="#ff0000" stroke-width="2.0" stroke-linejoin="round" stroke-linecap="butt" d="m89.31095 53.622047c0 38.40004 53.251976 57.59929 106.50393 76.80007c26.625977 9.600403 53.25197 19.201172 73.221466 31.20224c9.984741 6.000534 18.305359 12.601135 24.129791 20.101807c2.912201 3.7503357 5.2003784 7.7256927 6.760498 11.963547c0.19500732 0.5297394 0.3786316 1.0635681 0.5507202 1.6015778l0.02368164 0.075531006" fill-rule="evenodd"/><path fill="#ff0000" stroke="#ff0000" stroke-width="2.0" stroke-linecap="butt" d="m297.23572 195.86723l4.6401978 8.471054l1.8904724 -9.471878z" fill-rule="evenodd"/><path fill="#000000" fill-opacity="0.0" d="m137.25838 53.622047c0 38.40004 53.25197 57.59929 106.50394 76.80007c53.25197 19.20079 106.50395 38.403122 106.50395 76.80623" fill-rule="evenodd"/><path stroke="#ff0000" stroke-width="2.0" stroke-linejoin="round" stroke-linecap="butt" d="m137.25839 53.622047c0 38.40004 53.25197 57.59929 106.50394 76.80007c26.625977 9.600403 53.251953 19.201172 73.221436 31.20224c9.984741 6.000534 18.305359 12.601135 24.129791 20.101807c2.9122314 3.7503357 5.2003784 7.7256927 6.760498 11.963547c0.19500732 0.5297394 0.3786621 1.0635681 0.5507202 1.6015778l0.023712158 0.075531006" fill-rule="evenodd"/><path fill="#ff0000" stroke="#ff0000" stroke-width="2.0" stroke-linecap="butt" d="m345.18314 195.86723l4.6401978 8.471054l1.8904724 -9.471878z" fill-rule="evenodd"/><path fill="#000000" fill-opacity="0.0" d="m558.4369 53.622047c0 38.40004 -52.0394 57.59929 -104.078766 76.80007c-52.039368 19.20079 -104.078735 38.403122 -104.078735 76.80623" fill-rule="evenodd"/><path stroke="#0000ff" stroke-width="2.0" stroke-linejoin="round" stroke-linecap="butt" d="m558.4368 53.622047c0 38.40004 -52.039368 57.59929 -104.078735 76.80007c-26.019684 9.600403 -52.039368 19.201172 -71.55414 31.20224c-9.757355 6.000534 -17.88852 12.601135 -23.580322 20.101807c-2.8459167 3.7503357 -5.08197 7.7256927 -6.606537 11.963547c-0.19058228 0.5297394 -0.37005615 1.0635681 -0.5381775 1.6015778l-0.021331787 0.0695343" fill-rule="evenodd"/><path fill="#0000ff" stroke="#0000ff" stroke-width="2.0" stroke-linecap="butt" d="m348.7906 194.8713l1.9220276 9.465515l4.6119385 -8.486465z" fill-rule="evenodd"/><path fill="#000000" fill-opacity="0.0" d="m510.48944 53.622047c0 38.40004 -52.0394 57.59929 -104.078766 76.80007c-52.039368 19.20079 -104.078735 38.403122 -104.078735 76.80623" fill-rule="evenodd"/><path stroke="#0000ff" stroke-width="2.0" stroke-linejoin="round" stroke-linecap="butt" d="m510.4894 53.622047c0 38.40004 -52.039368 57.59929 -104.078735 76.80007c-26.019684 9.600403 -52.039368 19.201172 -71.55414 31.20224c-9.757385 6.000534 -17.88852 12.601135 -23.580322 20.101807c-2.8459167 3.7503357 -5.0820007 7.7256927 -6.6065674 11.963547c-0.19058228 0.5297394 -0.37002563 1.0635681 -0.5381775 1.6015778l-0.02130127 0.0695343" fill-rule="evenodd"/><path fill="#0000ff" stroke="#0000ff" stroke-width="2.0" stroke-linecap="butt" d="m300.84314 194.8713l1.9220581 9.465515l4.6119385 -8.486465z" fill-rule="evenodd"/><path fill="#000000" fill-opacity="0.0" d="m462.542 53.622047c0 38.40004 -52.039368 57.59929 -104.078735 76.80007c-52.039368 19.20079 -104.078735 38.403122 -104.078735 76.80623" fill-rule="evenodd"/><path stroke="#0000ff" stroke-width="2.0" stroke-linejoin="round" stroke-linecap="butt" d="m462.542 53.622047c0 38.40004 -52.039368 57.59929 -104.078735 76.80007c-26.019684 9.600403 -52.039368 19.201172 -71.55414 31.20224c-9.757385 6.000534 -17.88852 12.601135 -23.580322 20.101807c-2.8459167 3.7503357 -5.0820007 7.7256927 -6.6065674 11.963547c-0.19058228 0.5297394 -0.37002563 1.0635681 -0.5381775 1.6015778l-0.021331787 0.0695343" fill-rule="evenodd"/><path fill="#0000ff" stroke="#0000ff" stroke-width="2.0" stroke-linecap="butt" d="m252.89574 194.8713l1.9220428 9.465515l4.6119385 -8.486465z" fill-rule="evenodd"/><path fill="#d9d9d9" d="m225.44357 7.2073493l202.86615 0l0 67.90551l-202.86615 0z" fill-rule="evenodd"/><path stroke="#000000" stroke-width="2.0" stroke-linejoin="round" stroke-linecap="butt" d="m225.44357 7.2073493l202.86615 0l0 67.90551l-202.86615 0z" fill-rule="evenodd"/><path fill="#000000" d="m285.31723 15.033597l0 -0.78125l1.703125 0l0 4.343751l-1.703125 0l0 -1.765625q-1.390625 -0.87500095 -2.734375 -0.87500095q-0.890625 0 -1.671875 0.45312595q-0.765625 0.453125 -1.234375 1.3125q-0.46875 0.859375 -0.46875 2.03125q0 1.75 0.90625 2.8125q0.90625 1.0625 2.515625 1.0625q0.796875 0 1.671875 -0.296875q0.890625 -0.3125 1.734375 -0.90625l1.046875 1.265625q-0.796875 0.75 -2.125 1.203125q-1.328125 0.453125 -2.296875 0.453125q-2.390625 0 -3.859375 -1.71875q-0.625 -0.703125 -0.984375 -1.796875q-0.34375 -1.09375 -0.34375 -2.09375q0 -1.5625 0.671875 -2.8125q0.671875 -1.250001 1.828125 -1.953126q1.15625 -0.71875 2.59375 -0.71875q0.78125 0 1.5 0.21875q0.734375 0.203125 1.25 0.5625zm12.943756 4.781251q0 1.765625 -0.71875 3.015625q-0.703125 1.25 -1.84375 1.890625q-1.140625 0.625 -2.359375 0.625q-1.34375 0 -2.484375 -0.65625q-1.140625 -0.65625 -1.8125 -1.90625q-0.671875 -1.25 -0.671875 -2.9375q0 -1.53125 0.625 -2.8125q0.640625 -1.296876 1.765625 -2.031251q1.140625 -0.75 2.578125 -0.75q1.453125 0 2.578125 0.765625q1.125 0.765625 1.734375 2.031251q0.609375 1.265625 0.609375 2.765625zm-4.921875 3.84375q1.0 0 1.71875 -0.546875q0.734375 -0.5625 1.109375 -1.46875q0.390625 -0.90625 0.390625 -1.90625q0 -0.9375 -0.390625 -1.796875q-0.375 -0.875 -1.109375 -1.40625q-0.734375 -0.54687595 -1.75 -0.54687595q-0.90625 0 -1.640625 0.53125095q-0.734375 0.53125 -1.140625 1.40625q-0.40625 0.859375 -0.40625 1.875q0 1.03125 0.390625 1.921875q0.390625 0.890625 1.125 1.421875q0.75 0.515625 1.703125 0.515625zm13.693756 -1.796875l0 -5.671875l-1.734375 0l0 -1.734376l4.875 0l0 1.734376l-1.4375 0l0 8.9375l-1.640625 0l-4.8125 -7.609375l0 5.875l1.8125 0l0 1.734375l-4.9375 0l0 -1.734375l1.40625 0l0 -7.203125l-1.40625 0l0 -1.734376l3.328125 0l4.546875 7.406251zm13.553131 -2.28125q0 2.75 -1.34375 4.15625q-1.34375 1.390625 -3.78125 1.390625l-4.890625 0l0 -1.734375l1.46875 0l0 -7.203125l-1.46875 0l0 -1.734376l5.375 0q1.484375 0 2.53125 0.671875q1.046875 0.65625 1.578125 1.812501q0.53125 1.15625 0.53125 2.640625zm-1.71875 0.078125q0 -1.65625 -0.78125 -2.5625q-0.78125 -0.90625 -2.140625 -0.90625l-2.1875 0l0 7.203125l2.0625 0q1.265625 0 2.15625 -0.875q0.890625 -0.875 0.890625 -2.859375zm11.959381 -3.46875l-3.015625 0l0 7.203125l3.015625 0l0 1.734375l-7.875 0l0 -1.734375l3.078125 0l0 -7.203125l-3.078125 0l0 -1.734376l7.875 0l0 1.734376zm12.146881 2.328125l-1.734375 0l0 -2.328125l-2.265625 0l0 7.203125l2.25 0l0 1.734375l-6.234375 0l0 -1.734375l2.234375 0l0 -7.203125l-2.265625 0l0 2.328125l-1.734375 0l0 -4.062501l9.75 0l0 4.062501zm10.240631 -2.328125l-3.015625 0l0 7.203125l3.015625 0l0 1.734375l-7.875 0l0 -1.734375l3.078125 0l0 -7.203125l-3.078125 0l0 -1.734376l7.875 0l0 1.734376zm12.209381 3.625q0 1.765625 -0.71875 3.015625q-0.703125 1.25 -1.84375 1.890625q-1.140625 0.625 -2.359375 0.625q-1.34375 0 -2.484375 -0.65625q-1.140625 -0.65625 -1.8125 -1.90625q-0.671875 -1.25 -0.671875 -2.9375q0 -1.53125 0.625 -2.8125q0.640625 -1.296876 1.765625 -2.031251q1.140625 -0.75 2.578125 -0.75q1.453125 0 2.578125 0.765625q1.125 0.765625 1.734375 2.031251q0.609375 1.265625 0.609375 2.765625zm-4.921875 3.84375q1.0 0 1.71875 -0.546875q0.734375 -0.5625 1.109375 -1.46875q0.390625 -0.90625 0.390625 -1.90625q0 -0.9375 -0.390625 -1.796875q-0.375 -0.875 -1.109375 -1.40625q-0.734375 -0.54687595 -1.75 -0.54687595q-0.90625 0 -1.640625 0.53125095q-0.734375 0.53125 -1.140625 1.40625q-0.40625 0.859375 -0.40625 1.875q0 1.03125 0.390625 1.921875q0.390625 0.890625 1.125 1.421875q0.75 0.515625 1.703125 0.515625zm13.693756 -1.796875l0 -5.671875l-1.734375 0l0 -1.734376l4.875 0l0 1.734376l-1.4375 0l0 8.9375l-1.640625 0l-4.8125 -7.609375l0 5.875l1.8125 0l0 1.734375l-4.9375 0l0 -1.734375l1.40625 0l0 -7.203125l-1.40625 0l0 -1.734376l3.328125 0l4.546875 7.406251z" fill-rule="nonzero"/><path fill="#d9d2e9" d="m230.81364 33.465878l191.77953 0l0 41.6378l-191.77953 0z" fill-rule="evenodd"/><path stroke="#000000" stroke-width="2.0" stroke-linejoin="round" stroke-linecap="butt" d="m230.81364 33.465878l191.77953 0l0 41.6378l-191.77953 0z" fill-rule="evenodd"/><path fill="#000000" d="m310.0815 46.0265l2.015625 -5.3125l3.640625 0l0 1.734375l-1.453125 0l0.25 7.203125l1.0 0l0 1.734375l-4.453125 0l0 -1.734375l1.734375 0l-0.265625 -5.890625l-1.96875 5.25l-1.109375 0l-1.890625 -5.296875l-0.296875 5.9375l1.765625 0l0 1.734375l-4.53125 0l0 -1.734375l1.03125 0l0.296875 -7.203125l-1.40625 0l0 -1.734375l3.71875 0l1.921875 5.3125zm15.506256 3.625l1.046875 0l0 1.734375l-4.359375 0l0 -1.734375l1.5625 0l-0.546875 -1.265625l-4.328125 0l-0.546875 1.265625l1.609375 0l0 1.734375l-4.4375 0l0 -1.734375l1.09375 0l3.046875 -7.203125l-2.296875 0l0 -1.734375l4.5 0l3.65625 8.9375zm-2.984375 -3.0l-1.453125 -3.453125l-1.46875 3.453125l2.921875 0zm11.928131 -5.71875l0 -0.421875l1.71875 0l0 4.015625l-1.71875 0l0 -1.796875q-1.09375 -0.5 -2.03125 -0.5q-1.015625 0 -1.703125 0.5q-0.671875 0.5 -0.671875 1.1875q0 0.609375 0.390625 0.921875q0.390625 0.296875 0.953125 0.40625q0.5625 0.109375 1.5625 0.203125l0.71875 0.078125q1.34375 0.171875 2.109375 0.875q0.765625 0.6875 0.765625 1.921875q0 0.984375 -0.5625 1.734375q-0.546875 0.75 -1.515625 1.171875q-0.953125 0.40625 -2.15625 0.40625q-0.65625 0 -1.25 -0.15625q-0.59375 -0.15625 -1.34375 -0.515625l0 0.671875l-1.71875 0l0 -3.90625l1.71875 0l0 1.421875q1.265625 0.765625 2.609375 0.765625q1.21875 0 1.875 -0.40625q0.65625 -0.421875 0.65625 -1.1875q0 -0.65625 -0.515625 -0.953125q-0.515625 -0.296875 -1.765625 -0.3125q-2.09375 -0.03125 -3.1875 -0.890625q-1.09375 -0.859375 -1.09375 -2.25q0 -0.875 0.515625 -1.65625q0.515625 -0.796875 1.4375 -1.265625q0.921875 -0.484375 2.109375 -0.484375q1.15625 0 2.09375 0.421875zm8.568756 1.515625l-1.453125 0l0 2.890625l3.0 -2.890625l-0.765625 0l0 -1.734375l4.265625 0l0 1.734375l-1.203125 0l-3.09375 3.0q1.71875 2.0 2.890625 4.203125l1.890625 0l0 1.734375l-2.828125 0q-0.578125 -1.21875 -1.421875 -2.53125q-0.828125 -1.3125 -1.6875 -2.296875l-1.046875 1.0l0 2.09375l1.453125 0l0 1.734375l-4.640625 0l0 -1.734375l1.46875 0l0 -7.203125l-1.46875 0l0 -1.734375l4.640625 0l0 1.734375z" fill-rule="nonzero"/><path fill="#d9d2e9" d="m231.0958 56.181103l47.93701 0l0 19.212597l-47.93701 0z" fill-rule="evenodd"/><path stroke="#000000" stroke-width="1.0" stroke-linejoin="round" stroke-linecap="butt" d="m231.0958 56.181103l47.93701 0l0 19.212597l-47.93701 0z" fill-rule="evenodd"/><path fill="#000000" d="m237.25491 65.40365q0 0.59375 -0.40625 1.0q-0.40625 0.40625 -1.203125 0.609375l0 0.5625l-0.859375 0l0 -1.1875q0.890625 -0.140625 1.25 -0.359375q0.359375 -0.21875 0.359375 -0.625q0 -0.34375 -0.28125 -0.53125q-0.28125 -0.1875 -0.78125 -0.1875q-0.234375 0 -0.765625 0.078125l0 0.625l-0.859375 0l0 -1.25q0.359375 -0.14062119 0.8125 -0.21874619q0.453125 -0.09375 0.828125 -0.09375q0.84375 0 1.375 0.4374962q0.53125 0.421875 0.53125 1.140625zm-1.1875 3.265625q0 0.296875 -0.21875 0.5q-0.21875 0.203125 -0.625 0.203125q-0.375 0 -0.625 -0.1875q-0.234375 -0.203125 -0.234375 -0.515625q0 -0.296875 0.234375 -0.5q0.25 -0.21875 0.609375 -0.21875q0.390625 0 0.625 0.21875q0.234375 0.21875 0.234375 0.5zm6.784378 -3.265625q0 0.59375 -0.40625 1.0q-0.40625 0.40625 -1.203125 0.609375l0 0.5625l-0.859375 0l0 -1.1875q0.890625 -0.140625 1.25 -0.359375q0.359375 -0.21875 0.359375 -0.625q0 -0.34375 -0.28125 -0.53125q-0.28125 -0.1875 -0.78125 -0.1875q-0.234375 0 -0.765625 0.078125l0 0.625l-0.859375 0l0 -1.25q0.359375 -0.14062119 0.8125 -0.21874619q0.453125 -0.09375 0.828125 -0.09375q0.84375 0 1.375 0.4374962q0.53125 0.421875 0.53125 1.140625zm-1.1875 3.265625q0 0.296875 -0.21875 0.5q-0.21875 0.203125 -0.625 0.203125q-0.375 0 -0.625 -0.1875q-0.234375 -0.203125 -0.234375 -0.515625q0 -0.296875 0.234375 -0.5q0.25 -0.21875 0.609375 -0.21875q0.390625 0 0.625 0.21875q0.234375 0.21875 0.234375 0.5zm6.784378 -3.265625q0 0.59375 -0.40625 1.0q-0.40625 0.40625 -1.203125 0.609375l0 0.5625l-0.859375 0l0 -1.1875q0.890625 -0.140625 1.25 -0.359375q0.359375 -0.21875 0.359375 -0.625q0 -0.34375 -0.28125 -0.53125q-0.28125 -0.1875 -0.78125 -0.1875q-0.234375 0 -0.765625 0.078125l0 0.625l-0.859375 0l0 -1.25q0.359375 -0.14062119 0.8125 -0.21874619q0.453125 -0.09375 0.828125 -0.09375q0.84375 0 1.375 0.4374962q0.53125 0.421875 0.53125 1.140625zm-1.1875 3.265625q0 0.296875 -0.21875 0.5q-0.21875 0.203125 -0.625 0.203125q-0.375 0 -0.625 -0.1875q-0.234375 -0.203125 -0.234375 -0.515625q0 -0.296875 0.234375 -0.5q0.25 -0.21875 0.609375 -0.21875q0.390625 0 0.625 0.21875q0.234375 0.21875 0.234375 0.5zm6.784378 -3.265625q0 0.59375 -0.40625 1.0q-0.40625 0.40625 -1.203125 0.609375l0 0.5625l-0.859375 0l0 -1.1875q0.890625 -0.140625 1.25 -0.359375q0.359375 -0.21875 0.359375 -0.625q0 -0.34375 -0.28125 -0.53125q-0.28125 -0.1875 -0.78125 -0.1875q-0.234375 0 -0.765625 0.078125l0 0.625l-0.859375 0l0 -1.25q0.359375 -0.14062119 0.8125 -0.21874619q0.453125 -0.09375 0.828125 -0.09375q0.84375 0 1.375 0.4374962q0.53125 0.421875 0.53125 1.140625zm-1.1875 3.265625q0 0.296875 -0.21875 0.5q-0.21875 0.203125 -0.625 0.203125q-0.375 0 -0.625 -0.1875q-0.234375 -0.203125 -0.234375 -0.515625q0 -0.296875 0.234375 -0.5q0.25 -0.21875 0.609375 -0.21875q0.390625 0 0.625 0.21875q0.234375 0.21875 0.234375 0.5zm6.784378 -3.265625q0 0.59375 -0.40625 1.0q-0.40625 0.40625 -1.203125 0.609375l0 0.5625l-0.859375 0l0 -1.1875q0.890625 -0.140625 1.25 -0.359375q0.359375 -0.21875 0.359375 -0.625q0 -0.34375 -0.28125 -0.53125q-0.28125 -0.1875 -0.78125 -0.1875q-0.234375 0 -0.765625 0.078125l0 0.625l-0.859375 0l0 -1.25q0.359375 -0.14062119 0.8125 -0.21874619q0.453125 -0.09375 0.828125 -0.09375q0.84375 0 1.375 0.4374962q0.53125 0.421875 0.53125 1.140625zm-1.1875 3.265625q0 0.296875 -0.21875 0.5q-0.21875 0.203125 -0.625 0.203125q-0.375 0 -0.625 -0.1875q-0.234375 -0.203125 -0.234375 -0.515625q0 -0.296875 0.234375 -0.5q0.25 -0.21875 0.609375 -0.21875q0.390625 0 0.625 0.21875q0.234375 0.21875 0.234375 0.5zm6.7843933 -3.265625q0 0.59375 -0.40625 1.0q-0.40625 0.40625 -1.203125 0.609375l0 0.5625l-0.859375 0l0 -1.1875q0.890625 -0.140625 1.25 -0.359375q0.359375 -0.21875 0.359375 -0.625q0 -0.34375 -0.28125 -0.53125q-0.28125 -0.1875 -0.78125 -0.1875q-0.234375 0 -0.765625 0.078125l0 0.625l-0.859375 0l0 -1.25q0.359375 -0.14062119 0.8125 -0.21874619q0.453125 -0.09375 0.828125 -0.09375q0.84375 0 1.375 0.4374962q0.53125 0.421875 0.53125 1.140625zm-1.1875 3.265625q0 0.296875 -0.21875 0.5q-0.21875 0.203125 -0.625 0.203125q-0.375 0 -0.625 -0.1875q-0.234375 -0.203125 -0.234375 -0.515625q0 -0.296875 0.234375 -0.5q0.25 -0.21875 0.609375 -0.21875q0.390625 0 0.625 0.21875q0.234375 0.21875 0.234375 0.5zm6.784363 -3.265625q0 0.59375 -0.40625 1.0q-0.40625 0.40625 -1.203125 0.609375l0 0.5625l-0.859375 0l0 -1.1875q0.890625 -0.140625 1.25 -0.359375q0.359375 -0.21875 0.359375 -0.625q0 -0.34375 -0.28125 -0.53125q-0.28125 -0.1875 -0.78125 -0.1875q-0.234375 0 -0.765625 0.078125l0 0.625l-0.859375 0l0 -1.25q0.359375 -0.14062119 0.8125 -0.21874619q0.453125 -0.09375 0.828125 -0.09375q0.84375 0 1.375 0.4374962q0.53125 0.421875 0.53125 1.140625zm-1.1875 3.265625q0 0.296875 -0.21875 0.5q-0.21875 0.203125 -0.625 0.203125q-0.375 0 -0.625 -0.1875q-0.234375 -0.203125 -0.234375 -0.515625q0 -0.296875 0.234375 -0.5q0.25 -0.21875 0.609375 -0.21875q0.390625 0 0.625 0.21875q0.234375 0.21875 0.234375 0.5zm6.7843933 -3.265625q0 0.59375 -0.40625 1.0q-0.40625 0.40625 -1.203125 0.609375l0 0.5625l-0.859375 0l0 -1.1875q0.890625 -0.140625 1.25 -0.359375q0.359375 -0.21875 0.359375 -0.625q0 -0.34375 -0.28125 -0.53125q-0.28125 -0.1875 -0.78125 -0.1875q-0.234375 0 -0.765625 0.078125l0 0.625l-0.859375 0l0 -1.25q0.359375 -0.14062119 0.8125 -0.21874619q0.453125 -0.09375 0.828125 -0.09375q0.84375 0 1.375 0.4374962q0.53125 0.421875 0.53125 1.140625zm-1.1875 3.265625q0 0.296875 -0.21875 0.5q-0.21875 0.203125 -0.625 0.203125q-0.375 0 -0.625 -0.1875q-0.234375 -0.203125 -0.234375 -0.515625q0 -0.296875 0.234375 -0.5q0.25 -0.21875 0.609375 -0.21875q0.390625 0 0.625 0.21875q0.234375 0.21875 0.234375 0.5z" fill-rule="nonzero"/><path fill="#d9d2e9" d="m279.01508 56.181103l47.93701 0l0 19.212597l-47.93701 0z" fill-rule="evenodd"/><path stroke="#000000" stroke-width="1.0" stroke-linejoin="round" stroke-linecap="butt" d="m279.01508 56.181103l47.93701 0l0 19.212597l-47.93701 0z" fill-rule="evenodd"/><path fill="#000000" d="m285.1742 65.40365q0 0.59375 -0.40625 1.0q-0.40625 0.40625 -1.203125 0.609375l0 0.5625l-0.859375 0l0 -1.1875q0.890625 -0.140625 1.25 -0.359375q0.359375 -0.21875 0.359375 -0.625q0 -0.34375 -0.28125 -0.53125q-0.28125 -0.1875 -0.78125 -0.1875q-0.234375 0 -0.765625 0.078125l0 0.625l-0.859375 0l0 -1.25q0.359375 -0.14062119 0.8125 -0.21874619q0.453125 -0.09375 0.828125 -0.09375q0.84375 0 1.375 0.4374962q0.53125 0.421875 0.53125 1.140625zm-1.1875 3.265625q0 0.296875 -0.21875 0.5q-0.21875 0.203125 -0.625 0.203125q-0.375 0 -0.625 -0.1875q-0.234375 -0.203125 -0.234375 -0.515625q0 -0.296875 0.234375 -0.5q0.25 -0.21875 0.609375 -0.21875q0.390625 0 0.625 0.21875q0.234375 0.21875 0.234375 0.5zm6.7843933 -3.265625q0 0.59375 -0.40625 1.0q-0.40625 0.40625 -1.203125 0.609375l0 0.5625l-0.859375 0l0 -1.1875q0.890625 -0.140625 1.25 -0.359375q0.359375 -0.21875 0.359375 -0.625q0 -0.34375 -0.28125 -0.53125q-0.28125 -0.1875 -0.78125 -0.1875q-0.234375 0 -0.765625 0.078125l0 0.625l-0.859375 0l0 -1.25q0.359375 -0.14062119 0.8125 -0.21874619q0.453125 -0.09375 0.828125 -0.09375q0.84375 0 1.375 0.4374962q0.53125 0.421875 0.53125 1.140625zm-1.1875 3.265625q0 0.296875 -0.21875 0.5q-0.21875 0.203125 -0.625 0.203125q-0.375 0 -0.625 -0.1875q-0.234375 -0.203125 -0.234375 -0.515625q0 -0.296875 0.234375 -0.5q0.25 -0.21875 0.609375 -0.21875q0.390625 0 0.625 0.21875q0.234375 0.21875 0.234375 0.5zm6.784363 -3.265625q0 0.59375 -0.40625 1.0q-0.40625 0.40625 -1.203125 0.609375l0 0.5625l-0.859375 0l0 -1.1875q0.890625 -0.140625 1.25 -0.359375q0.359375 -0.21875 0.359375 -0.625q0 -0.34375 -0.28125 -0.53125q-0.28125 -0.1875 -0.78125 -0.1875q-0.234375 0 -0.765625 0.078125l0 0.625l-0.859375 0l0 -1.25q0.359375 -0.14062119 0.8125 -0.21874619q0.453125 -0.09375 0.828125 -0.09375q0.84375 0 1.375 0.4374962q0.53125 0.421875 0.53125 1.140625zm-1.1875 3.265625q0 0.296875 -0.21875 0.5q-0.21875 0.203125 -0.625 0.203125q-0.375 0 -0.625 -0.1875q-0.234375 -0.203125 -0.234375 -0.515625q0 -0.296875 0.234375 -0.5q0.25 -0.21875 0.609375 -0.21875q0.390625 0 0.625 0.21875q0.234375 0.21875 0.234375 0.5zm6.7843933 -3.265625q0 0.59375 -0.40625 1.0q-0.40625 0.40625 -1.203125 0.609375l0 0.5625l-0.859375 0l0 -1.1875q0.890625 -0.140625 1.25 -0.359375q0.359375 -0.21875 0.359375 -0.625q0 -0.34375 -0.28125 -0.53125q-0.28125 -0.1875 -0.78125 -0.1875q-0.234375 0 -0.765625 0.078125l0 0.625l-0.859375 0l0 -1.25q0.359375 -0.14062119 0.8125 -0.21874619q0.453125 -0.09375 0.828125 -0.09375q0.84375 0 1.375 0.4374962q0.53125 0.421875 0.53125 1.140625zm-1.1875 3.265625q0 0.296875 -0.21875 0.5q-0.21875 0.203125 -0.625 0.203125q-0.375 0 -0.625 -0.1875q-0.234375 -0.203125 -0.234375 -0.515625q0 -0.296875 0.234375 -0.5q0.25 -0.21875 0.609375 -0.21875q0.390625 0 0.625 0.21875q0.234375 0.21875 0.234375 0.5zm6.784363 -3.265625q0 0.59375 -0.40625 1.0q-0.40625 0.40625 -1.203125 0.609375l0 0.5625l-0.859375 0l0 -1.1875q0.890625 -0.140625 1.25 -0.359375q0.359375 -0.21875 0.359375 -0.625q0 -0.34375 -0.28125 -0.53125q-0.28125 -0.1875 -0.78125 -0.1875q-0.234375 0 -0.765625 0.078125l0 0.625l-0.859375 0l0 -1.25q0.359375 -0.14062119 0.8125 -0.21874619q0.453125 -0.09375 0.828125 -0.09375q0.84375 0 1.375 0.4374962q0.53125 0.421875 0.53125 1.140625zm-1.1875 3.265625q0 0.296875 -0.21875 0.5q-0.21875 0.203125 -0.625 0.203125q-0.375 0 -0.625 -0.1875q-0.234375 -0.203125 -0.234375 -0.515625q0 -0.296875 0.234375 -0.5q0.25 -0.21875 0.609375 -0.21875q0.390625 0 0.625 0.21875q0.234375 0.21875 0.234375 0.5zm6.7843933 -3.265625q0 0.59375 -0.40625 1.0q-0.40625 0.40625 -1.203125 0.609375l0 0.5625l-0.859375 0l0 -1.1875q0.890625 -0.140625 1.25 -0.359375q0.359375 -0.21875 0.359375 -0.625q0 -0.34375 -0.28125 -0.53125q-0.28125 -0.1875 -0.78125 -0.1875q-0.234375 0 -0.765625 0.078125l0 0.625l-0.859375 0l0 -1.25q0.359375 -0.14062119 0.8125 -0.21874619q0.453125 -0.09375 0.828125 -0.09375q0.84375 0 1.375 0.4374962q0.53125 0.421875 0.53125 1.140625zm-1.1875 3.265625q0 0.296875 -0.21875 0.5q-0.21875 0.203125 -0.625 0.203125q-0.375 0 -0.625 -0.1875q-0.234375 -0.203125 -0.234375 -0.515625q0 -0.296875 0.234375 -0.5q0.25 -0.21875 0.609375 -0.21875q0.390625 0 0.625 0.21875q0.234375 0.21875 0.234375 0.5zm6.784363 -3.265625q0 0.59375 -0.40625 1.0q-0.40625 0.40625 -1.203125 0.609375l0 0.5625l-0.859375 0l0 -1.1875q0.890625 -0.140625 1.25 -0.359375q0.359375 -0.21875 0.359375 -0.625q0 -0.34375 -0.28125 -0.53125q-0.28125 -0.1875 -0.78125 -0.1875q-0.234375 0 -0.765625 0.078125l0 0.625l-0.859375 0l0 -1.25q0.359375 -0.14062119 0.8125 -0.21874619q0.453125 -0.09375 0.828125 -0.09375q0.84375 0 1.375 0.4374962q0.53125 0.421875 0.53125 1.140625zm-1.1875 3.265625q0 0.296875 -0.21875 0.5q-0.21875 0.203125 -0.625 0.203125q-0.375 0 -0.625 -0.1875q-0.234375 -0.203125 -0.234375 -0.515625q0 -0.296875 0.234375 -0.5q0.25 -0.21875 0.609375 -0.21875q0.390625 0 0.625 0.21875q0.234375 0.21875 0.234375 0.5zm6.7843933 -3.265625q0 0.59375 -0.40625 1.0q-0.40625 0.40625 -1.203125 0.609375l0 0.5625l-0.859375 0l0 -1.1875q0.890625 -0.140625 1.25 -0.359375q0.359375 -0.21875 0.359375 -0.625q0 -0.34375 -0.28125 -0.53125q-0.28125 -0.1875 -0.78125 -0.1875q-0.234375 0 -0.765625 0.078125l0 0.625l-0.859375 0l0 -1.25q0.359375 -0.14062119 0.8125 -0.21874619q0.453125 -0.09375 0.828125 -0.09375q0.84375 0 1.375 0.4374962q0.53125 0.421875 0.53125 1.140625zm-1.1875 3.265625q0 0.296875 -0.21875 0.5q-0.21875 0.203125 -0.625 0.203125q-0.375 0 -0.625 -0.1875q-0.234375 -0.203125 -0.234375 -0.515625q0 -0.296875 0.234375 -0.5q0.25 -0.21875 0.609375 -0.21875q0.390625 0 0.625 0.21875q0.234375 0.21875 0.234375 0.5z" fill-rule="nonzero"/><path fill="#d9d2e9" d="m327.00827 56.181103l47.93701 0l0 19.212597l-47.93701 0z" fill-rule="evenodd"/><path stroke="#000000" stroke-width="1.0" stroke-linejoin="round" stroke-linecap="butt" d="m327.00827 56.181103l47.93701 0l0 19.212597l-47.93701 0z" fill-rule="evenodd"/><path fill="#000000" d="m333.1674 65.40365q0 0.59375 -0.40625 1.0q-0.40625 0.40625 -1.203125 0.609375l0 0.5625l-0.859375 0l0 -1.1875q0.890625 -0.140625 1.25 -0.359375q0.359375 -0.21875 0.359375 -0.625q0 -0.34375 -0.28125 -0.53125q-0.28125 -0.1875 -0.78125 -0.1875q-0.234375 0 -0.765625 0.078125l0 0.625l-0.859375 0l0 -1.25q0.359375 -0.14062119 0.8125 -0.21874619q0.453125 -0.09375 0.828125 -0.09375q0.84375 0 1.375 0.4374962q0.53125 0.421875 0.53125 1.140625zm-1.1875 3.265625q0 0.296875 -0.21875 0.5q-0.21875 0.203125 -0.625 0.203125q-0.375 0 -0.625 -0.1875q-0.234375 -0.203125 -0.234375 -0.515625q0 -0.296875 0.234375 -0.5q0.25 -0.21875 0.609375 -0.21875q0.390625 0 0.625 0.21875q0.234375 0.21875 0.234375 0.5zm6.7843933 -3.265625q0 0.59375 -0.40625 1.0q-0.40625 0.40625 -1.203125 0.609375l0 0.5625l-0.859375 0l0 -1.1875q0.890625 -0.140625 1.25 -0.359375q0.359375 -0.21875 0.359375 -0.625q0 -0.34375 -0.28125 -0.53125q-0.28125 -0.1875 -0.78125 -0.1875q-0.234375 0 -0.765625 0.078125l0 0.625l-0.859375 0l0 -1.25q0.359375 -0.14062119 0.8125 -0.21874619q0.453125 -0.09375 0.828125 -0.09375q0.84375 0 1.375 0.4374962q0.53125 0.421875 0.53125 1.140625zm-1.1875 3.265625q0 0.296875 -0.21875 0.5q-0.21875 0.203125 -0.625 0.203125q-0.375 0 -0.625 -0.1875q-0.234375 -0.203125 -0.234375 -0.515625q0 -0.296875 0.234375 -0.5q0.25 -0.21875 0.609375 -0.21875q0.390625 0 0.625 0.21875q0.234375 0.21875 0.234375 0.5zm6.784363 -3.265625q0 0.59375 -0.40625 1.0q-0.40625 0.40625 -1.203125 0.609375l0 0.5625l-0.859375 0l0 -1.1875q0.890625 -0.140625 1.25 -0.359375q0.359375 -0.21875 0.359375 -0.625q0 -0.34375 -0.28125 -0.53125q-0.28125 -0.1875 -0.78125 -0.1875q-0.234375 0 -0.765625 0.078125l0 0.625l-0.859375 0l0 -1.25q0.359375 -0.14062119 0.8125 -0.21874619q0.453125 -0.09375 0.828125 -0.09375q0.84375 0 1.375 0.4374962q0.53125 0.421875 0.53125 1.140625zm-1.1875 3.265625q0 0.296875 -0.21875 0.5q-0.21875 0.203125 -0.625 0.203125q-0.375 0 -0.625 -0.1875q-0.234375 -0.203125 -0.234375 -0.515625q0 -0.296875 0.234375 -0.5q0.25 -0.21875 0.609375 -0.21875q0.390625 0 0.625 0.21875q0.234375 0.21875 0.234375 0.5zm6.7843933 -3.265625q0 0.59375 -0.40625 1.0q-0.40625 0.40625 -1.203125 0.609375l0 0.5625l-0.859375 0l0 -1.1875q0.890625 -0.140625 1.25 -0.359375q0.359375 -0.21875 0.359375 -0.625q0 -0.34375 -0.28125 -0.53125q-0.28125 -0.1875 -0.78125 -0.1875q-0.234375 0 -0.765625 0.078125l0 0.625l-0.859375 0l0 -1.25q0.359375 -0.14062119 0.8125 -0.21874619q0.453125 -0.09375 0.828125 -0.09375q0.84375 0 1.375 0.4374962q0.53125 0.421875 0.53125 1.140625zm-1.1875 3.265625q0 0.296875 -0.21875 0.5q-0.21875 0.203125 -0.625 0.203125q-0.375 0 -0.625 -0.1875q-0.234375 -0.203125 -0.234375 -0.515625q0 -0.296875 0.234375 -0.5q0.25 -0.21875 0.609375 -0.21875q0.390625 0 0.625 0.21875q0.234375 0.21875 0.234375 0.5zm6.784363 -3.265625q0 0.59375 -0.40625 1.0q-0.40625 0.40625 -1.203125 0.609375l0 0.5625l-0.859375 0l0 -1.1875q0.890625 -0.140625 1.25 -0.359375q0.359375 -0.21875 0.359375 -0.625q0 -0.34375 -0.28125 -0.53125q-0.28125 -0.1875 -0.78125 -0.1875q-0.234375 0 -0.765625 0.078125l0 0.625l-0.859375 0l0 -1.25q0.359375 -0.14062119 0.8125 -0.21874619q0.453125 -0.09375 0.828125 -0.09375q0.84375 0 1.375 0.4374962q0.53125 0.421875 0.53125 1.140625zm-1.1875 3.265625q0 0.296875 -0.21875 0.5q-0.21875 0.203125 -0.625 0.203125q-0.375 0 -0.625 -0.1875q-0.234375 -0.203125 -0.234375 -0.515625q0 -0.296875 0.234375 -0.5q0.25 -0.21875 0.609375 -0.21875q0.390625 0 0.625 0.21875q0.234375 0.21875 0.234375 0.5zm6.7843933 -3.265625q0 0.59375 -0.40625 1.0q-0.40625 0.40625 -1.203125 0.609375l0 0.5625l-0.859375 0l0 -1.1875q0.890625 -0.140625 1.25 -0.359375q0.359375 -0.21875 0.359375 -0.625q0 -0.34375 -0.28125 -0.53125q-0.28125 -0.1875 -0.78125 -0.1875q-0.234375 0 -0.765625 0.078125l0 0.625l-0.859375 0l0 -1.25q0.359375 -0.14062119 0.8125 -0.21874619q0.453125 -0.09375 0.828125 -0.09375q0.84375 0 1.375 0.4374962q0.53125 0.421875 0.53125 1.140625zm-1.1875 3.265625q0 0.296875 -0.21875 0.5q-0.21875 0.203125 -0.625 0.203125q-0.375 0 -0.625 -0.1875q-0.234375 -0.203125 -0.234375 -0.515625q0 -0.296875 0.234375 -0.5q0.25 -0.21875 0.609375 -0.21875q0.390625 0 0.625 0.21875q0.234375 0.21875 0.234375 0.5zm6.784363 -3.265625q0 0.59375 -0.40625 1.0q-0.40625 0.40625 -1.203125 0.609375l0 0.5625l-0.859375 0l0 -1.1875q0.890625 -0.140625 1.25 -0.359375q0.359375 -0.21875 0.359375 -0.625q0 -0.34375 -0.28125 -0.53125q-0.28125 -0.1875 -0.78125 -0.1875q-0.234375 0 -0.765625 0.078125l0 0.625l-0.859375 0l0 -1.25q0.359375 -0.14062119 0.8125 -0.21874619q0.453125 -0.09375 0.828125 -0.09375q0.84375 0 1.375 0.4374962q0.53125 0.421875 0.53125 1.140625zm-1.1875 3.265625q0 0.296875 -0.21875 0.5q-0.21875 0.203125 -0.625 0.203125q-0.375 0 -0.625 -0.1875q-0.234375 -0.203125 -0.234375 -0.515625q0 -0.296875 0.234375 -0.5q0.25 -0.21875 0.609375 -0.21875q0.390625 0 0.625 0.21875q0.234375 0.21875 0.234375 0.5zm6.7843933 -3.265625q0 0.59375 -0.40625 1.0q-0.40625 0.40625 -1.203125 0.609375l0 0.5625l-0.859375 0l0 -1.1875q0.890625 -0.140625 1.25 -0.359375q0.359375 -0.21875 0.359375 -0.625q0 -0.34375 -0.28125 -0.53125q-0.28125 -0.1875 -0.78125 -0.1875q-0.234375 0 -0.765625 0.078125l0 0.625l-0.859375 0l0 -1.25q0.359375 -0.14062119 0.8125 -0.21874619q0.453125 -0.09375 0.828125 -0.09375q0.84375 0 1.375 0.4374962q0.53125 0.421875 0.53125 1.140625zm-1.1875 3.265625q0 0.296875 -0.21875 0.5q-0.21875 0.203125 -0.625 0.203125q-0.375 0 -0.625 -0.1875q-0.234375 -0.203125 -0.234375 -0.515625q0 -0.296875 0.234375 -0.5q0.25 -0.21875 0.609375 -0.21875q0.390625 0 0.625 0.21875q0.234375 0.21875 0.234375 0.5z" fill-rule="nonzero"/><path fill="#d9d2e9" d="m375.00302 56.181103l47.93701 0l0 19.212597l-47.93701 0z" fill-rule="evenodd"/><path stroke="#000000" stroke-width="1.0" stroke-linejoin="round" stroke-linecap="butt" d="m375.00302 56.181103l47.93701 0l0 19.212597l-47.93701 0z" fill-rule="evenodd"/><path fill="#000000" d="m381.16214 65.40365q0 0.59375 -0.40625 1.0q-0.40625 0.40625 -1.203125 0.609375l0 0.5625l-0.859375 0l0 -1.1875q0.890625 -0.140625 1.25 -0.359375q0.359375 -0.21875 0.359375 -0.625q0 -0.34375 -0.28125 -0.53125q-0.28125 -0.1875 -0.78125 -0.1875q-0.234375 0 -0.765625 0.078125l0 0.625l-0.859375 0l0 -1.25q0.359375 -0.14062119 0.8125 -0.21874619q0.453125 -0.09375 0.828125 -0.09375q0.84375 0 1.375 0.4374962q0.53125 0.421875 0.53125 1.140625zm-1.1875 3.265625q0 0.296875 -0.21875 0.5q-0.21875 0.203125 -0.625 0.203125q-0.375 0 -0.625 -0.1875q-0.234375 -0.203125 -0.234375 -0.515625q0 -0.296875 0.234375 -0.5q0.25 -0.21875 0.609375 -0.21875q0.390625 0 0.625 0.21875q0.234375 0.21875 0.234375 0.5zm6.7843933 -3.265625q0 0.59375 -0.40625 1.0q-0.40625 0.40625 -1.203125 0.609375l0 0.5625l-0.859375 0l0 -1.1875q0.890625 -0.140625 1.25 -0.359375q0.359375 -0.21875 0.359375 -0.625q0 -0.34375 -0.28125 -0.53125q-0.28125 -0.1875 -0.78125 -0.1875q-0.234375 0 -0.765625 0.078125l0 0.625l-0.859375 0l0 -1.25q0.359375 -0.14062119 0.8125 -0.21874619q0.453125 -0.09375 0.828125 -0.09375q0.84375 0 1.375 0.4374962q0.53125 0.421875 0.53125 1.140625zm-1.1875 3.265625q0 0.296875 -0.21875 0.5q-0.21875 0.203125 -0.625 0.203125q-0.375 0 -0.625 -0.1875q-0.234375 -0.203125 -0.234375 -0.515625q0 -0.296875 0.234375 -0.5q0.25 -0.21875 0.609375 -0.21875q0.390625 0 0.625 0.21875q0.234375 0.21875 0.234375 0.5zm6.784363 -3.265625q0 0.59375 -0.40625 1.0q-0.40625 0.40625 -1.203125 0.609375l0 0.5625l-0.859375 0l0 -1.1875q0.890625 -0.140625 1.25 -0.359375q0.359375 -0.21875 0.359375 -0.625q0 -0.34375 -0.28125 -0.53125q-0.28125 -0.1875 -0.78125 -0.1875q-0.234375 0 -0.765625 0.078125l0 0.625l-0.859375 0l0 -1.25q0.359375 -0.14062119 0.8125 -0.21874619q0.453125 -0.09375 0.828125 -0.09375q0.84375 0 1.375 0.4374962q0.53125 0.421875 0.53125 1.140625zm-1.1875 3.265625q0 0.296875 -0.21875 0.5q-0.21875 0.203125 -0.625 0.203125q-0.375 0 -0.625 -0.1875q-0.234375 -0.203125 -0.234375 -0.515625q0 -0.296875 0.234375 -0.5q0.25 -0.21875 0.609375 -0.21875q0.390625 0 0.625 0.21875q0.234375 0.21875 0.234375 0.5zm6.7843933 -3.265625q0 0.59375 -0.40625 1.0q-0.40625 0.40625 -1.203125 0.609375l0 0.5625l-0.859375 0l0 -1.1875q0.890625 -0.140625 1.25 -0.359375q0.359375 -0.21875 0.359375 -0.625q0 -0.34375 -0.28125 -0.53125q-0.28125 -0.1875 -0.78125 -0.1875q-0.234375 0 -0.765625 0.078125l0 0.625l-0.859375 0l0 -1.25q0.359375 -0.14062119 0.8125 -0.21874619q0.453125 -0.09375 0.828125 -0.09375q0.84375 0 1.375 0.4374962q0.53125 0.421875 0.53125 1.140625zm-1.1875 3.265625q0 0.296875 -0.21875 0.5q-0.21875 0.203125 -0.625 0.203125q-0.375 0 -0.625 -0.1875q-0.234375 -0.203125 -0.234375 -0.515625q0 -0.296875 0.234375 -0.5q0.25 -0.21875 0.609375 -0.21875q0.390625 0 0.625 0.21875q0.234375 0.21875 0.234375 0.5zm6.784363 -3.265625q0 0.59375 -0.40625 1.0q-0.40625 0.40625 -1.203125 0.609375l0 0.5625l-0.859375 0l0 -1.1875q0.890625 -0.140625 1.25 -0.359375q0.359375 -0.21875 0.359375 -0.625q0 -0.34375 -0.28125 -0.53125q-0.28125 -0.1875 -0.78125 -0.1875q-0.234375 0 -0.765625 0.078125l0 0.625l-0.859375 0l0 -1.25q0.359375 -0.14062119 0.8125 -0.21874619q0.453125 -0.09375 0.828125 -0.09375q0.84375 0 1.375 0.4374962q0.53125 0.421875 0.53125 1.140625zm-1.1875 3.265625q0 0.296875 -0.21875 0.5q-0.21875 0.203125 -0.625 0.203125q-0.375 0 -0.625 -0.1875q-0.234375 -0.203125 -0.234375 -0.515625q0 -0.296875 0.234375 -0.5q0.25 -0.21875 0.609375 -0.21875q0.390625 0 0.625 0.21875q0.234375 0.21875 0.234375 0.5zm6.7843933 -3.265625q0 0.59375 -0.40625 1.0q-0.40625 0.40625 -1.203125 0.609375l0 0.5625l-0.859375 0l0 -1.1875q0.890625 -0.140625 1.25 -0.359375q0.359375 -0.21875 0.359375 -0.625q0 -0.34375 -0.28125 -0.53125q-0.28125 -0.1875 -0.78125 -0.1875q-0.234375 0 -0.765625 0.078125l0 0.625l-0.859375 0l0 -1.25q0.359375 -0.14062119 0.8125 -0.21874619q0.453125 -0.09375 0.828125 -0.09375q0.84375 0 1.375 0.4374962q0.53125 0.421875 0.53125 1.140625zm-1.1875 3.265625q0 0.296875 -0.21875 0.5q-0.21875 0.203125 -0.625 0.203125q-0.375 0 -0.625 -0.1875q-0.234375 -0.203125 -0.234375 -0.515625q0 -0.296875 0.234375 -0.5q0.25 -0.21875 0.609375 -0.21875q0.390625 0 0.625 0.21875q0.234375 0.21875 0.234375 0.5zm6.784363 -3.265625q0 0.59375 -0.40625 1.0q-0.40625 0.40625 -1.203125 0.609375l0 0.5625l-0.859375 0l0 -1.1875q0.890625 -0.140625 1.25 -0.359375q0.359375 -0.21875 0.359375 -0.625q0 -0.34375 -0.28125 -0.53125q-0.28125 -0.1875 -0.78125 -0.1875q-0.234375 0 -0.765625 0.078125l0 0.625l-0.859375 0l0 -1.25q0.359375 -0.14062119 0.8125 -0.21874619q0.453125 -0.09375 0.828125 -0.09375q0.84375 0 1.375 0.4374962q0.53125 0.421875 0.53125 1.140625zm-1.1875 3.265625q0 0.296875 -0.21875 0.5q-0.21875 0.203125 -0.625 0.203125q-0.375 0 -0.625 -0.1875q-0.234375 -0.203125 -0.234375 -0.515625q0 -0.296875 0.234375 -0.5q0.25 -0.21875 0.609375 -0.21875q0.390625 0 0.625 0.21875q0.234375 0.21875 0.234375 0.5zm6.7843933 -3.265625q0 0.59375 -0.40625 1.0q-0.40625 0.40625 -1.203125 0.609375l0 0.5625l-0.859375 0l0 -1.1875q0.890625 -0.140625 1.25 -0.359375q0.359375 -0.21875 0.359375 -0.625q0 -0.34375 -0.28125 -0.53125q-0.28125 -0.1875 -0.78125 -0.1875q-0.234375 0 -0.765625 0.078125l0 0.625l-0.859375 0l0 -1.25q0.359375 -0.14062119 0.8125 -0.21874619q0.453125 -0.09375 0.828125 -0.09375q0.84375 0 1.375 0.4374962q0.53125 0.421875 0.53125 1.140625zm-1.1875 3.265625q0 0.296875 -0.21875 0.5q-0.21875 0.203125 -0.625 0.203125q-0.375 0 -0.625 -0.1875q-0.234375 -0.203125 -0.234375 -0.515625q0 -0.296875 0.234375 -0.5q0.25 -0.21875 0.609375 -0.21875q0.390625 0 0.625 0.21875q0.234375 0.21875 0.234375 0.5z" fill-rule="nonzero"/><path fill="#000000" fill-opacity="0.0" d="m194.32672 190.4357c30.031494 0 60.06299 8.393692 60.06299 16.7874" fill-rule="evenodd"/><path stroke="#000000" stroke-width="1.0" stroke-linejoin="round" stroke-linecap="butt" d="m194.3267 190.4357c15.015747 0 30.031494 2.0984192 41.293304 5.246063c5.630905 1.573822 10.323334 3.4099426 13.608032 5.3772125c0.41056824 0.24589539 0.7991638 0.49386597 1.164856 0.7436218c0.18283081 0.12487793 0.35995483 0.25019836 0.5312042 0.37594604l0.1018219 0.076156616" fill-rule="evenodd"/><path fill="#000000" stroke="#000000" stroke-width="1.0" stroke-linecap="butt" d="m249.65817 203.18071l3.9119415 2.831833l-1.1764526 -4.683853z" fill-rule="evenodd"/><path fill="#000000" fill-opacity="0.0" d="m194.32672 190.4357c54.0 0 108.0 8.393692 108.0 16.7874" fill-rule="evenodd"/><path stroke="#000000" stroke-width="1.0" stroke-linejoin="round" stroke-linecap="butt" d="m194.3267 190.4357c27.0 0 54.0 2.0984192 74.250015 5.246063c10.125 1.573822 18.5625 3.4099426 24.46875 5.3772125c1.4765625 0.4918213 2.7949219 0.99183655 3.941864 1.4979858c0.28677368 0.12654114 0.5628052 0.25346375 0.8279114 0.3807373l0.20953369 0.102874756" fill-rule="evenodd"/><path fill="#000000" stroke="#000000" stroke-width="1.0" stroke-linecap="butt" d="m296.87338 204.22484l4.4051514 1.979187l-2.102356 -4.3477173z" fill-rule="evenodd"/><path fill="#000000" fill-opacity="0.0" d="m194.32672 190.4357c77.98425 0 155.9685 8.393692 155.9685 16.7874" fill-rule="evenodd"/><path stroke="#000000" stroke-width="1.0" stroke-linejoin="round" stroke-linecap="butt" d="m194.3267 190.4357c38.992126 0 77.98427 2.0984192 107.22838 5.246063c14.62204 1.573822 26.807068 3.4099426 35.33661 5.3772125c2.1323853 0.4918213 4.0362854 0.99183655 5.692688 1.4979858c0.82821655 0.25309753 1.5945435 0.5077057 2.2966003 0.76361084c0.17553711 0.063964844 0.3470459 0.12802124 0.51449585 0.19216919l0.14135742 0.055541992" fill-rule="evenodd"/><path fill="#000000" stroke="#000000" stroke-width="1.0" stroke-linecap="butt" d="m344.5307 204.87822l4.605133 1.4543762l-2.592865 -4.074234z" fill-rule="evenodd"/><path fill="#000000" fill-opacity="0.0" d="m194.32672 190.4357c101.95276 0 203.90552 8.393692 203.90552 16.7874" fill-rule="evenodd"/><path stroke="#000000" stroke-width="1.0" stroke-linejoin="round" stroke-linecap="butt" d="m194.3267 190.4357c50.97638 0 101.952774 2.0984192 140.18507 5.246063c19.11612 1.573822 35.046265 3.4099426 46.197327 5.3772125c2.7877808 0.4918213 5.2768555 0.99183655 7.4423523 1.4979858c1.0827637 0.25309753 2.0845947 0.5077057 3.0024414 0.76361084c0.45895386 0.12794495 0.8968811 0.2562256 1.3134155 0.38476562c0.20825195 0.06428528 0.41116333 0.12863159 0.6086731 0.1930542l0.13235474 0.044418335" fill-rule="evenodd"/><path fill="#000000" stroke="#000000" stroke-width="1.0" stroke-linecap="butt" d="m392.3053 205.32584l4.7028503 1.0980225l-2.8967896 -3.8640747z" fill-rule="evenodd"/><path fill="#000000" fill-opacity="0.0" d="m452.90283 189.90027c-27.338593 0 -54.677155 8.661407 -54.677155 17.32283" fill-rule="evenodd"/><path stroke="#000000" stroke-width="1.0" stroke-linejoin="round" stroke-linecap="butt" d="m452.90283 189.90027c-13.669281 0 -27.338562 2.1653442 -37.590546 5.413376c-5.1259766 1.6240234 -9.397644 3.5187073 -12.387787 5.5487213c-0.3737793 0.25375366 -0.72753906 0.50961304 -1.0603943 0.767334c-0.16644287 0.12887573 -0.32769775 0.2581787 -0.48361206 0.38793945l-0.069885254 0.059280396" fill-rule="evenodd"/><path fill="#000000" stroke="#000000" stroke-width="1.0" stroke-linecap="butt" d="m399.89392 201.22766l-0.91659546 4.741562l3.7499695 -3.0430603z" fill-rule="evenodd"/><path fill="#000000" fill-opacity="0.0" d="m452.90283 189.90027c-51.3071 0 -102.61417 8.661407 -102.61417 17.32283" fill-rule="evenodd"/><path stroke="#000000" stroke-width="1.0" stroke-linejoin="round" stroke-linecap="butt" d="m452.90283 189.90027c-25.653534 0 -51.307068 2.1653442 -70.54724 5.413376c-9.620056 1.6240234 -17.63681 3.5187073 -23.248505 5.5487213c-1.4029236 0.5075073 -2.655548 1.023468 -3.7453308 1.5457764c-0.27243042 0.13056946 -0.5346985 0.26156616 -0.7865906 0.39289856l-0.14724731 0.07849121" fill-rule="evenodd"/><path fill="#000000" stroke="#000000" stroke-width="1.0" stroke-linecap="butt" d="m353.23218 201.74004l-1.934967 4.4247437l4.3264465 -2.1457672z" fill-rule="evenodd"/><path fill="#000000" fill-opacity="0.0" d="m452.90283 189.90027c-75.29135 0 -150.58267 8.661407 -150.58267 17.32283" fill-rule="evenodd"/><path stroke="#000000" stroke-width="1.0" stroke-linejoin="round" stroke-linecap="butt" d="m452.90283 189.90027c-37.64566 0 -75.29132 2.1653442 -103.52557 5.413376c-14.117157 1.6240234 -25.881409 3.5187073 -34.116425 5.5487213c-2.0587463 0.5075073 -3.8969116 1.023468 -5.4961243 1.5457764c-0.79959106 0.26115417 -1.5394287 0.5239105 -2.2172852 0.7879486c-0.16946411 0.06602478 -0.33502197 0.1321106 -0.4967041 0.19830322l-0.08242798 0.03463745" fill-rule="evenodd"/><path fill="#000000" stroke="#000000" stroke-width="1.0" stroke-linecap="butt" d="m305.9238 202.14944l-2.4711304 4.149231l4.5600586 -1.5900726z" fill-rule="evenodd"/><path fill="#000000" fill-opacity="0.0" d="m452.90283 189.90027c-99.25986 0 -198.51968 8.661407 -198.51968 17.32283" fill-rule="evenodd"/><path stroke="#000000" stroke-width="1.0" stroke-linejoin="round" stroke-linecap="butt" d="m452.90283 189.90027c-49.629913 0 -99.25983 2.1653442 -136.48227 5.413376c-18.611237 1.6240234 -34.120605 3.5187073 -44.977142 5.5487213c-2.7141418 0.5075073 -5.137451 1.023468 -7.245758 1.5457764c-1.0541687 0.26115417 -2.0295715 0.5239105 -2.9231567 0.7879486c-0.44680786 0.1320343 -0.87316895 0.26438904 -1.2786865 0.3970642c-0.2027893 0.0663147 -0.4003296 0.1327362 -0.59262085 0.19920349l-0.07836914 0.027877808" fill-rule="evenodd"/><path fill="#000000" stroke="#000000" stroke-width="1.0" stroke-linecap="butt" d="m258.38806 202.45982l-2.8008728 3.9341583l4.6744385 -1.2133636z" fill-rule="evenodd"/><path fill="#000000" fill-opacity="0.0" d="m149.10907 256.07217l53.32283 0l0 24.0l-53.32283 0z" fill-rule="evenodd"/><path fill="#000000" d="m157.58292 268.1522l-0.9375 0l1.609375 3.296875l1.609375 -3.296875l-0.84375 0l0 -1.359375l3.390625 0l0 1.359375l-1.1875 0l-2.4375 5.0l-1.109375 0l-2.515625 -5.0l-1.203125 0l0 -1.359375l3.625 0l0 1.359375zm10.996902 -1.265625q0.625 0.296875 0.875 0.796875q0.265625 0.5 0.265625 1.46875l0 2.640625l1.125 0l0 1.359375l-2.453125 0l0 -0.6875q-0.640625 0.453125 -1.21875 0.65625q-0.5625 0.203125 -1.21875 0.203125q-0.734375 0 -1.3125 -0.296875q-0.578125 -0.296875 -0.90625 -0.78125q-0.3125 -0.484375 -0.3125 -1.015625q0 -0.578125 0.359375 -1.109375q0.359375 -0.53125 1.09375 -0.859375q0.75 -0.328125 1.828125 -0.328125q0.53125 0 1.6875 0.09375l0 -0.140625q0 -0.484375 -0.359375 -0.703125q-0.34375 -0.234375 -1.078125 -0.234375q-1.09375 0 -2.515625 0.578125l-0.53125 -1.171875q1.828125 -0.765625 3.125 -0.765625q0.890625 0 1.546875 0.296875zm-2.640625 5.078125q1.25 0 2.453125 -1.125l0 -0.4375l-0.359375 -0.03125q-0.125 -0.015625 -0.578125 -0.046875q-0.453125 -0.046875 -0.84375 -0.046875q-0.75 0 -1.296875 0.265625q-0.53125 0.25 -0.53125 0.6875q0 0.328125 0.328125 0.53125q0.34375 0.203125 0.828125 0.203125zm10.543777 -0.171875l2.4375 0l0 1.359375l-6.21875 0l0 -1.359375l2.421875 0l0 -6.375l-2.3125 0l0 -1.375l3.671875 0l0 7.75zm6.4812775 -0.890625q0 0.53125 0.3125 0.8125q0.3125 0.28125 0.90625 0.28125q0.53125 0 0.953125 -0.203125q0.4375 -0.203125 0.953125 -0.6875l0 -2.953125l-1.109375 0l0 -1.359375l2.453125 0l0 5.0l1.125 0l0 1.359375l-2.46875 0l0 -0.453125q-0.96875 0.625 -1.9375 0.625q-0.859375 0 -1.6875 -0.453125q-0.828125 -0.46875 -0.828125 -1.828125l0 -2.890625l-1.140625 0l0 -1.359375l2.46875 0l0 4.109375zm13.934402 -1.296875q0 0.5 -0.03125 0.96875l-5.59375 0q0.125 0.65625 0.71875 1.03125q0.59375 0.375 1.5625 0.375q1.359375 0 2.984375 -0.84375l0.609375 1.125q-0.875 0.53125 -1.796875 0.796875q-0.921875 0.265625 -1.796875 0.265625q-1.09375 0 -1.921875 -0.421875q-0.8125 -0.4375 -1.265625 -1.1875q-0.453125 -0.765625 -0.453125 -1.71875q0 -1.0 0.5 -1.765625q0.5 -0.78125 1.3125 -1.203125q0.828125 -0.421875 1.796875 -0.421875q0.921875 0 1.6875 0.390625q0.78125 0.375 1.234375 1.0625q0.453125 0.6875 0.453125 1.546875zm-3.453125 -1.640625q-0.703125 0 -1.28125 0.328125q-0.5625 0.3125 -0.78125 0.921875l4.203125 0q-0.109375 -0.5625 -0.671875 -0.90625q-0.546875 -0.34375 -1.46875 -0.34375z" fill-rule="nonzero"/><path fill="#000000" fill-opacity="0.0" d="m202.42429 280.0735l62.834656 0l0 24.0l-62.834656 0z" fill-rule="evenodd"/><path stroke="#000000" stroke-width="1.0" stroke-linejoin="round" stroke-linecap="butt" stroke-dasharray="4.0,3.0" d="m202.42429 280.0735l62.834656 0l0 24.0l-62.834656 0z" fill-rule="evenodd"/><path fill="#000000" d="m216.0291 291.91537q0 1.0 -0.484375 1.78125q-0.46875 0.78125 -1.296875 1.21875q-0.828125 0.4375 -1.828125 0.4375l-2.25 0l0 1.90625l2.265625 0l0 1.734375l-5.453125 0l0 -1.734375l1.46875 0l0 -7.203125l-1.453125 0l0 -1.734375l4.921875 0q1.9375 0 3.015625 0.953125q1.09375 0.953125 1.09375 2.640625zm-1.71875 -0.046875q0 -0.828125 -0.609375 -1.3125q-0.609375 -0.5 -1.78125 -0.5l-1.75 0l0 3.5625l1.9375 0q2.203125 0 2.203125 -1.75zm9.209381 2.140625l3.171875 0l0 1.734375l-3.171875 0l0 3.1875l-1.734375 0l0 -3.1875l-3.171875 0l0 -1.734375l3.171875 0l0 -3.1875l1.734375 0l0 3.1875zm14.803116 3.25l1.046875 0l0 1.734375l-4.359375 0l0 -1.734375l1.5625 0l-0.546875 -1.265625l-4.3281097 0l-0.546875 1.265625l1.609375 0l0 1.734375l-4.4375 0l0 -1.734375l1.09375 0l3.046875 -7.203125l-2.296875 0l0 -1.734375l4.4999847 0l3.65625 8.9375zm-2.984375 -3.0l-1.4531097 -3.453125l-1.46875 3.453125l2.9218597 0zm10.568756 -3.40625l2.28125 -0.90625l0.640625 1.859375l-2.34375 0.640625l1.4375 1.953125l-1.546875 1.140625l-1.375 -2.0625l-1.40625 2.078125l-1.546875 -1.140625l1.453125 -1.96875l-2.390625 -0.609375l0.65625 -1.890625l2.3125 0.90625l-0.109375 -2.5l2.046875 0l-0.109375 2.5zm14.146881 -1.296875l-5.6875 7.703125l4.375 0l0 -2.625l1.71875 0l0 4.359375l-8.40625 0l0 -1.328125l5.609375 -7.609375l-3.828125 0l0 2.359375l-1.703125 0l0 -4.09375l7.921875 0l0 1.234375z" fill-rule="nonzero"/><path fill="#000000" fill-opacity="0.0" d="m265.28662 280.0735l62.834656 0l0 24.0l-62.834656 0z" fill-rule="evenodd"/><path stroke="#000000" stroke-width="1.0" stroke-linejoin="round" stroke-linecap="butt" stroke-dasharray="4.0,3.0" d="m265.28662 280.0735l62.834656 0l0 24.0l-62.834656 0z" fill-rule="evenodd"/><path fill="#000000" d="m278.89142 291.91537q0 1.0 -0.484375 1.78125q-0.46875 0.78125 -1.296875 1.21875q-0.828125 0.4375 -1.828125 0.4375l-2.25 0l0 1.90625l2.265625 0l0 1.734375l-5.453125 0l0 -1.734375l1.46875 0l0 -7.203125l-1.453125 0l0 -1.734375l4.921875 0q1.9375 0 3.015625 0.953125q1.09375 0.953125 1.09375 2.640625zm-1.71875 -0.046875q0 -0.828125 -0.609375 -1.3125q-0.609375 -0.5 -1.78125 -0.5l-1.75 0l0 3.5625l1.9375 0q2.203125 0 2.203125 -1.75zm9.209381 2.140625l3.171875 0l0 1.734375l-3.171875 0l0 3.1875l-1.734375 0l0 -3.1875l-3.171875 0l0 -1.734375l3.171875 0l0 -3.1875l1.734375 0l0 3.1875zm14.443756 -2.78125q0 0.640625 -0.28125 1.203125q-0.265625 0.5625 -0.78125 0.96875q0.984375 0.5625 1.34375 1.1875q0.359375 0.625 0.359375 1.390625q0 0.875 -0.46875 1.5625q-0.453125 0.6875 -1.234375 1.078125q-0.78125 0.375 -1.765625 0.375l-6.21875 0l0 -1.734375l1.453125 0l0 -7.203125l-1.453125 0l0 -1.734375l5.5 0q1.609375 0 2.578125 0.8125q0.96875 0.8125 0.96875 2.09375zm-1.703125 0.0625q0 -0.546875 -0.453125 -0.890625q-0.453125 -0.34375 -1.1875 -0.34375l-2.53125 0l0 2.5625l2.421875 0q0.71875 0 1.234375 -0.34375q0.515625 -0.359375 0.515625 -0.984375zm0.625 4.5625q0 -0.734375 -0.65625 -1.109375q-0.65625 -0.390625 -1.890625 -0.390625l-2.25 0l0 2.90625l3.09375 0q0.671875 0 1.1875 -0.375q0.515625 -0.375 0.515625 -1.03125zm9.021881 -5.0l2.28125 -0.90625l0.640625 1.859375l-2.34375 0.640625l1.4375 1.953125l-1.546875 1.140625l-1.375 -2.0625l-1.40625 2.078125l-1.546875 -1.140625l1.453125 -1.96875l-2.390625 -0.609375l0.65625 -1.890625l2.3125 0.90625l-0.109375 -2.5l2.046875 0l-0.109375 2.5zm14.146881 -1.296875l-5.6875 7.703125l4.375 0l0 -2.625l1.71875 0l0 4.359375l-8.40625 0l0 -1.328125l5.609375 -7.609375l-3.828125 0l0 2.359375l-1.703125 0l0 -4.09375l7.921875 0l0 1.234375z" fill-rule="nonzero"/><path fill="#000000" fill-opacity="0.0" d="m328.14896 280.0735l62.834656 0l0 24.0l-62.834656 0z" fill-rule="evenodd"/><path stroke="#000000" stroke-width="1.0" stroke-linejoin="round" stroke-linecap="butt" stroke-dasharray="4.0,3.0" d="m328.14896 280.0735l62.834656 0l0 24.0l-62.834656 0z" fill-rule="evenodd"/><path fill="#000000" d="m341.75378 291.91537q0 1.0 -0.484375 1.78125q-0.46875 0.78125 -1.296875 1.21875q-0.828125 0.4375 -1.828125 0.4375l-2.25 0l0 1.90625l2.265625 0l0 1.734375l-5.453125 0l0 -1.734375l1.46875 0l0 -7.203125l-1.453125 0l0 -1.734375l4.921875 0q1.9375 0 3.015625 0.953125q1.09375 0.953125 1.09375 2.640625zm-1.71875 -0.046875q0 -0.828125 -0.609375 -1.3125q-0.609375 -0.5 -1.78125 -0.5l-1.75 0l0 3.5625l1.9375 0q2.203125 0 2.203125 -1.75zm9.209381 2.140625l3.171875 0l0 1.734375l-3.171875 0l0 3.1875l-1.734375 0l0 -3.1875l-3.171875 0l0 -1.734375l3.171875 0l0 -3.1875l1.734375 0l0 3.1875zm13.537506 -5.109375l0 -0.78125l1.703125 0l0 4.34375l-1.703125 0l0 -1.765625q-1.390625 -0.875 -2.734375 -0.875q-0.890625 0 -1.671875 0.453125q-0.765625 0.453125 -1.234375 1.3125q-0.46875 0.859375 -0.46875 2.03125q0 1.75 0.90625 2.8125q0.90625 1.0625 2.515625 1.0625q0.796875 0 1.671875 -0.296875q0.890625 -0.3125 1.734375 -0.90625l1.046875 1.265625q-0.796875 0.75 -2.125 1.203125q-1.328125 0.453125 -2.296875 0.453125q-2.390625 0 -3.859375 -1.71875q-0.625 -0.703125 -0.984375 -1.796875q-0.34375 -1.09375 -0.34375 -2.09375q0 -1.5625 0.671875 -2.8125q0.671875 -1.25 1.828125 -1.953125q1.15625 -0.71875 2.59375 -0.71875q0.78125 0 1.5 0.21875q0.734375 0.203125 1.25 0.5625zm8.850006 1.953125l2.28125 -0.90625l0.640625 1.859375l-2.34375 0.640625l1.4375 1.953125l-1.546875 1.140625l-1.375 -2.0625l-1.40625 2.078125l-1.546875 -1.140625l1.453125 -1.96875l-2.390625 -0.609375l0.65625 -1.890625l2.3125 0.90625l-0.109375 -2.5l2.046875 0l-0.109375 2.5zm14.146881 -1.296875l-5.6875 7.703125l4.375 0l0 -2.625l1.71875 0l0 4.359375l-8.40625 0l0 -1.328125l5.609375 -7.609375l-3.828125 0l0 2.359375l-1.703125 0l0 -4.09375l7.921875 0l0 1.234375z" fill-rule="nonzero"/><path fill="#000000" fill-opacity="0.0" d="m391.0113 280.0735l62.834656 0l0 24.0l-62.834656 0z" fill-rule="evenodd"/><path stroke="#000000" stroke-width="1.0" stroke-linejoin="round" stroke-linecap="butt" stroke-dasharray="4.0,3.0" d="m391.0113 280.0735l62.834656 0l0 24.0l-62.834656 0z" fill-rule="evenodd"/><path fill="#000000" d="m404.61612 291.91537q0 1.0 -0.484375 1.78125q-0.46875 0.78125 -1.296875 1.21875q-0.828125 0.4375 -1.828125 0.4375l-2.25 0l0 1.90625l2.265625 0l0 1.734375l-5.453125 0l0 -1.734375l1.46875 0l0 -7.203125l-1.453125 0l0 -1.734375l4.921875 0q1.9375 0 3.015625 0.953125q1.09375 0.953125 1.09375 2.640625zm-1.71875 -0.046875q0 -0.828125 -0.609375 -1.3125q-0.609375 -0.5 -1.78125 -0.5l-1.75 0l0 3.5625l1.9375 0q2.203125 0 2.203125 -1.75zm9.209381 2.140625l3.171875 0l0 1.734375l-3.171875 0l0 3.1875l-1.734375 0l0 -3.1875l-3.171875 0l0 -1.734375l3.171875 0l0 -3.1875l1.734375 0l0 3.1875zm15.225006 -0.5625q0 2.75 -1.34375 4.15625q-1.34375 1.390625 -3.78125 1.390625l-4.890625 0l0 -1.734375l1.46875 0l0 -7.203125l-1.46875 0l0 -1.734375l5.375 0q1.484375 0 2.53125 0.671875q1.046875 0.65625 1.578125 1.8125q0.53125 1.15625 0.53125 2.640625zm-1.71875 0.078125q0 -1.65625 -0.78125 -2.5625q-0.78125 -0.90625 -2.140625 -0.90625l-2.1875 0l0 7.203125l2.0625 0q1.265625 0 2.15625 -0.875q0.890625 -0.875 0.890625 -2.859375zm8.881256 -2.671875l2.28125 -0.90625l0.640625 1.859375l-2.34375 0.640625l1.4375 1.953125l-1.546875 1.140625l-1.375 -2.0625l-1.40625 2.078125l-1.546875 -1.140625l1.453125 -1.96875l-2.390625 -0.609375l0.65625 -1.890625l2.3125 0.90625l-0.109375 -2.5l2.046875 0l-0.109375 2.5zm14.146881 -1.296875l-5.6875 7.703125l4.375 0l0 -2.625l1.71875 0l0 4.359375l-8.40625 0l0 -1.328125l5.609375 -7.609375l-3.828125 0l0 2.359375l-1.703125 0l0 -4.09375l7.921875 0l0 1.234375z" fill-rule="nonzero"/><path fill="#000000" fill-opacity="0.0" d="m149.08807 280.07217l53.32283 0l0 24.0l-53.32283 0z" fill-rule="evenodd"/><path fill="#000000" d="m164.16194 290.88657q0.625 0.296875 0.875 0.796875q0.265625 0.5 0.265625 1.46875l0 2.640625l1.125 0l0 1.359375l-2.453125 0l0 -0.6875q-0.640625 0.453125 -1.21875 0.65625q-0.5625 0.203125 -1.21875 0.203125q-0.734375 0 -1.3125 -0.296875q-0.578125 -0.296875 -0.90625 -0.78125q-0.3125 -0.484375 -0.3125 -1.015625q0 -0.578125 0.359375 -1.109375q0.359375 -0.53125 1.09375 -0.859375q0.75 -0.328125 1.828125 -0.328125q0.53125 0 1.6875 0.09375l0 -0.140625q0 -0.484375 -0.359375 -0.703125q-0.34375 -0.234375 -1.078125 -0.234375q-1.09375 0 -2.515625 0.578125l-0.53125 -1.171875q1.828125 -0.765625 3.125 -0.765625q0.890625 0 1.546875 0.296875zm-2.640625 5.078125q1.25 0 2.453125 -1.125l0 -0.4375l-0.359375 -0.03125q-0.125 -0.015625 -0.578125 -0.046875q-0.453125 -0.046875 -0.84375 -0.046875q-0.75 0 -1.296875 0.265625q-0.53125 0.25 -0.53125 0.6875q0 0.328125 0.328125 0.53125q0.34375 0.203125 0.828125 0.203125zm12.965652 -0.171875l1.109375 0l0 1.359375l-2.421875 0l0 -0.53125q-0.421875 0.34375 -0.96875 0.53125q-0.53125 0.171875 -1.109375 0.171875q-0.953125 0 -1.765625 -0.4375q-0.796875 -0.453125 -1.265625 -1.21875q-0.453125 -0.765625 -0.453125 -1.703125q0 -0.90625 0.453125 -1.671875q0.453125 -0.78125 1.234375 -1.234375q0.796875 -0.46875 1.734375 -0.46875q0.609375 0 1.15625 0.1875q0.5625 0.171875 0.953125 0.53125l0 -1.890625l-1.75 0l0 -1.375l3.09375 0l0 7.75zm-3.421875 0.171875q0.859375 0 1.46875 -0.515625q0.609375 -0.515625 0.609375 -1.46875q0 -0.96875 -0.609375 -1.5q-0.59375 -0.53125 -1.453125 -0.53125q-0.59375 0 -1.078125 0.265625q-0.46875 0.265625 -0.75 0.71875q-0.28125 0.453125 -0.28125 1.015625q0 0.53125 0.28125 1.0q0.296875 0.46875 0.765625 0.75q0.484375 0.265625 1.046875 0.265625zm12.215637 -0.171875l1.109375 0l0 1.359375l-2.421875 0l0 -0.53125q-0.421875 0.34375 -0.96873474 0.53125q-0.53125 0.171875 -1.109375 0.171875q-0.953125 0 -1.765625 -0.4375q-0.796875 -0.453125 -1.265625 -1.21875q-0.453125 -0.765625 -0.453125 -1.703125q0 -0.90625 0.453125 -1.671875q0.453125 -0.78125 1.234375 -1.234375q0.796875 -0.46875 1.734375 -0.46875q0.609375 0 1.15625 0.1875q0.56248474 0.171875 0.95310974 0.53125l0 -1.890625l-1.7499847 0l0 -1.375l3.0937347 0l0 7.75zm-3.4218597 0.171875q0.859375 0 1.4687347 -0.515625q0.609375 -0.515625 0.609375 -1.46875q0 -0.96875 -0.609375 -1.5q-0.59373474 -0.53125 -1.4531097 -0.53125q-0.59375 0 -1.078125 0.265625q-0.46875 0.265625 -0.75 0.71875q-0.28125 0.453125 -0.28125 1.015625q0 0.53125 0.28125 1.0q0.296875 0.46875 0.765625 0.75q0.484375 0.265625 1.046875 0.265625zm13.028137 -3.703125l-1.296875 0.203125q-0.03125 -0.3125 -0.125 -0.40625q-0.09375 -0.109375 -0.34375 -0.109375q-0.8125 0 -2.625 1.515625l0 2.328125l2.671875 0l0 1.359375l-5.59375 0l0 -1.359375l1.5625 0l0 -3.640625l-1.578125 0l0 -1.359375l2.9375 0l0 1.03125q0.8125 -0.671875 1.421875 -0.953125q0.625 -0.28125 1.203125 -0.28125q1.609375 0 1.765625 1.671875z" fill-rule="nonzero"/><path fill="#d9d2e9" d="m202.97887 256.38583l62.708664 0l0 24.0l-62.708664 0z" fill-rule="evenodd"/><path stroke="#000000" stroke-width="2.0" stroke-linejoin="round" stroke-linecap="butt" d="m202.97887 256.38583l62.708664 0l0 24.0l-62.708664 0z" fill-rule="evenodd"/><path fill="#000000" d="m217.38925 272.76144l0.890625 0l0 1.484375l-3.71875 0l0 -1.484375l1.328125 0l-0.46875 -1.09375l-3.71875 0l-0.453125 1.09375l1.375 0l0 1.484375l-3.8125 0l0 -1.484375l0.953125 0l2.59375 -6.171875l-1.96875 0l0 -1.5l3.859375 0l3.140625 7.671875zm-2.5625 -2.578125l-1.25 -2.96875l-1.25 2.96875l2.5 0zm11.990646 -6.484375l-6.046875 12.671875l-1.25 -0.59375l6.03125 -12.671875l1.265625 0.59375z" fill-rule="nonzero"/><path fill="#000000" d="m229.66742 271.90207l3.65625 1.5l0 0.921875l-4.59375 -1.84375l0 -1.15625l4.59375 -1.828125l0 0.921875l-3.65625 1.484375zm10.596954 0.015625q0 0.75 -0.359375 1.3125q-0.359375 0.5625 -0.96875 0.859375q-0.59375 0.28125 -1.328125 0.28125q-0.75 0 -1.390625 -0.28125q-0.640625 -0.28125 -1.03125 -0.828125q-0.37501526 -0.546875 -0.37501526 -1.3125q0 -0.75 0.35939026 -1.3125q0.375 -0.5625 1.0 -0.859375q0.625 -0.3125 1.375 -0.3125q0.828125 0 1.4375 0.328125q0.609375 0.328125 0.9375 0.890625q0.34375 0.5625 0.34375 1.234375zm-2.6875 1.46875q0.75 0 1.21875 -0.390625q0.46875 -0.40625 0.46875 -1.09375q0 -0.609375 -0.46875 -1.015625q-0.453125 -0.421875 -1.28125 -0.421875q-0.46875 0 -0.859375 0.1875q-0.390625 0.171875 -0.625 0.515625q-0.21875 0.328125 -0.21875 0.765625q0 0.6875 0.5 1.078125q0.515625 0.375 1.265625 0.375zm6.878189 -0.125l1.765625 0l0 0.984375l-4.515625 0l0 -0.984375l1.765625 0l0 -4.640625l-1.6875 0l0 -1.0l2.671875 0l0 5.640625zm8.159439 0l0.796875 0l0 0.984375l-1.765625 0l0 -0.390625q-0.3125 0.25 -0.703125 0.390625q-0.375 0.125 -0.8125 0.125q-0.6875 0 -1.265625 -0.3125q-0.578125 -0.328125 -0.921875 -0.890625q-0.328125 -0.5625 -0.328125 -1.234375q0 -0.65625 0.328125 -1.21875q0.328125 -0.578125 0.890625 -0.90625q0.578125 -0.34375 1.265625 -0.34375q0.4375 0 0.828125 0.140625q0.40625 0.140625 0.703125 0.390625l0 -1.375l-1.265625 0l0 -1.0l2.25 0l0 5.640625zm-2.5 0.125q0.625 0 1.0625 -0.375q0.453125 -0.375 0.453125 -1.0625q0 -0.71875 -0.4375 -1.09375q-0.4375 -0.390625 -1.0625 -0.390625q-0.4375 0 -0.78125 0.1875q-0.34375 0.1875 -0.546875 0.53125q-0.203125 0.328125 -0.203125 0.734375q0 0.390625 0.203125 0.734375q0.21875 0.34375 0.5625 0.546875q0.34375 0.1875 0.75 0.1875zm9.159424 -2.0625l0 1.15625l-4.5937347 1.84375l0 -0.921875l3.6249847 -1.5l-3.6249847 -1.484375l0 -0.921875l4.5937347 1.828125z" fill-rule="nonzero"/><path fill="#d9d2e9" d="m265.70325 256.38583l62.70865 0l0 24.0l-62.70865 0z" fill-rule="evenodd"/><path stroke="#000000" stroke-width="2.0" stroke-linejoin="round" stroke-linecap="butt" d="m265.70325 256.38583l62.70865 0l0 24.0l-62.70865 0z" fill-rule="evenodd"/><path fill="#000000" d="m279.81677 267.58957q0 0.546875 -0.234375 1.03125q-0.234375 0.46875 -0.6875 0.828125q0.84375 0.484375 1.140625 1.015625q0.3125 0.53125 0.3125 1.1875q0 0.75 -0.390625 1.34375q-0.390625 0.59375 -1.0625 0.921875q-0.671875 0.328125 -1.515625 0.328125l-5.328125 0l0 -1.484375l1.25 0l0 -6.171875l-1.25 0l0 -1.5l4.71875 0q1.375 0 2.203125 0.703125q0.84375 0.6875 0.84375 1.796875zm-1.46875 0.046875q0 -0.46875 -0.390625 -0.75q-0.390625 -0.296875 -1.015625 -0.296875l-2.171875 0l0 2.1875l2.078125 0q0.609375 0 1.046875 -0.296875q0.453125 -0.296875 0.453125 -0.84375zm0.53125 3.921875q0 -0.640625 -0.5625 -0.96875q-0.5625 -0.328125 -1.609375 -0.328125l-1.9375 0l0 2.5l2.65625 0q0.578125 0 1.015625 -0.3125q0.4375 -0.328125 0.4375 -0.890625zm10.662506 -7.859375l-6.046875 12.671875l-1.25 -0.59375l6.03125 -12.671875l1.265625 0.59375z" fill-rule="nonzero"/><path fill="#000000" d="m292.3918 271.90207l3.65625 1.5l0 0.921875l-4.59375 -1.84375l0 -1.15625l4.59375 -1.828125l0 0.921875l-3.65625 1.484375zm10.596924 0.015625q0 0.75 -0.359375 1.3125q-0.359375 0.5625 -0.96875 0.859375q-0.59375 0.28125 -1.328125 0.28125q-0.75 0 -1.390625 -0.28125q-0.640625 -0.28125 -1.03125 -0.828125q-0.375 -0.546875 -0.375 -1.3125q0 -0.75 0.359375 -1.3125q0.375 -0.5625 1.0 -0.859375q0.625 -0.3125 1.375 -0.3125q0.828125 0 1.4375 0.328125q0.609375 0.328125 0.9375 0.890625q0.34375 0.5625 0.34375 1.234375zm-2.6875 1.46875q0.75 0 1.21875 -0.390625q0.46875 -0.40625 0.46875 -1.09375q0 -0.609375 -0.46875 -1.015625q-0.453125 -0.421875 -1.28125 -0.421875q-0.46875 0 -0.859375 0.1875q-0.390625 0.171875 -0.625 0.515625q-0.21875 0.328125 -0.21875 0.765625q0 0.6875 0.5 1.078125q0.515625 0.375 1.265625 0.375zm6.8782043 -0.125l1.765625 0l0 0.984375l-4.515625 0l0 -0.984375l1.765625 0l0 -4.640625l-1.6875 0l0 -1.0l2.671875 0l0 5.640625zm8.159424 0l0.796875 0l0 0.984375l-1.765625 0l0 -0.390625q-0.3125 0.25 -0.703125 0.390625q-0.375 0.125 -0.8125 0.125q-0.6875 0 -1.265625 -0.3125q-0.578125 -0.328125 -0.921875 -0.890625q-0.328125 -0.5625 -0.328125 -1.234375q0 -0.65625 0.328125 -1.21875q0.328125 -0.578125 0.890625 -0.90625q0.578125 -0.34375 1.265625 -0.34375q0.4375 0 0.828125 0.140625q0.40625 0.140625 0.703125 0.390625l0 -1.375l-1.265625 0l0 -1.0l2.25 0l0 5.640625zm-2.5 0.125q0.625 0 1.0625 -0.375q0.453125 -0.375 0.453125 -1.0625q0 -0.71875 -0.4375 -1.09375q-0.4375 -0.390625 -1.0625 -0.390625q-0.4375 0 -0.78125 0.1875q-0.34375 0.1875 -0.546875 0.53125q-0.203125 0.328125 -0.203125 0.734375q0 0.390625 0.203125 0.734375q0.21875 0.34375 0.5625 0.546875q0.34375 0.1875 0.75 0.1875zm9.159454 -2.0625l0 1.15625l-4.59375 1.84375l0 -0.921875l3.625 -1.5l-3.625 -1.484375l0 -0.921875l4.59375 1.828125z" fill-rule="nonzero"/><path fill="#d9d2e9" d="m328.4276 256.38583l62.70865 0l0 24.0l-62.70865 0z" fill-rule="evenodd"/><path stroke="#000000" stroke-width="2.0" stroke-linejoin="round" stroke-linecap="butt" d="m328.4276 256.38583l62.70865 0l0 24.0l-62.70865 0z" fill-rule="evenodd"/><path fill="#000000" d="m341.74426 265.58957l0 -0.671875l1.484375 0l0 3.734375l-1.484375 0l0 -1.53125q-1.171875 -0.75 -2.328125 -0.75q-0.765625 0 -1.4375 0.390625q-0.65625 0.390625 -1.0625 1.140625q-0.40625 0.734375 -0.40625 1.734375q0 1.5 0.78125 2.421875q0.78125 0.90625 2.15625 0.90625q0.6875 0 1.4375 -0.265625q0.765625 -0.265625 1.484375 -0.765625l0.90625 1.078125q-0.6875 0.640625 -1.828125 1.03125q-1.140625 0.390625 -1.96875 0.390625q-2.046875 0 -3.3125 -1.46875q-0.53125 -0.609375 -0.84375 -1.546875q-0.296875 -0.9375 -0.296875 -1.796875q0 -1.34375 0.578125 -2.40625q0.578125 -1.078125 1.5625 -1.6875q1.0 -0.609375 2.234375 -0.609375q0.671875 0 1.296875 0.1875q0.625 0.1875 1.046875 0.484375zm10.521881 -1.890625l-6.046875 12.671875l-1.25 -0.59375l6.03125 -12.671875l1.265625 0.59375z" fill-rule="nonzero"/><path fill="#000000" d="m355.11618 271.90207l3.65625 1.5l0 0.921875l-4.59375 -1.84375l0 -1.15625l4.59375 -1.828125l0 0.921875l-3.65625 1.484375zm10.596924 0.015625q0 0.75 -0.359375 1.3125q-0.359375 0.5625 -0.96875 0.859375q-0.59375 0.28125 -1.328125 0.28125q-0.75 0 -1.390625 -0.28125q-0.640625 -0.28125 -1.03125 -0.828125q-0.375 -0.546875 -0.375 -1.3125q0 -0.75 0.359375 -1.3125q0.375 -0.5625 1.0 -0.859375q0.625 -0.3125 1.375 -0.3125q0.828125 0 1.4375 0.328125q0.609375 0.328125 0.9375 0.890625q0.34375 0.5625 0.34375 1.234375zm-2.6875 1.46875q0.75 0 1.21875 -0.390625q0.46875 -0.40625 0.46875 -1.09375q0 -0.609375 -0.46875 -1.015625q-0.453125 -0.421875 -1.28125 -0.421875q-0.46875 0 -0.859375 0.1875q-0.390625 0.171875 -0.625 0.515625q-0.21875 0.328125 -0.21875 0.765625q0 0.6875 0.5 1.078125q0.515625 0.375 1.265625 0.375zm6.8782043 -0.125l1.765625 0l0 0.984375l-4.515625 0l0 -0.984375l1.765625 0l0 -4.640625l-1.6875 0l0 -1.0l2.671875 0l0 5.640625zm8.159424 0l0.796875 0l0 0.984375l-1.765625 0l0 -0.390625q-0.3125 0.25 -0.703125 0.390625q-0.375 0.125 -0.8125 0.125q-0.6875 0 -1.265625 -0.3125q-0.578125 -0.328125 -0.921875 -0.890625q-0.328125 -0.5625 -0.328125 -1.234375q0 -0.65625 0.328125 -1.21875q0.328125 -0.578125 0.890625 -0.90625q0.578125 -0.34375 1.265625 -0.34375q0.4375 0 0.828125 0.140625q0.40625 0.140625 0.703125 0.390625l0 -1.375l-1.265625 0l0 -1.0l2.25 0l0 5.640625zm-2.5 0.125q0.625 0 1.0625 -0.375q0.453125 -0.375 0.453125 -1.0625q0 -0.71875 -0.4375 -1.09375q-0.4375 -0.390625 -1.0625 -0.390625q-0.4375 0 -0.78125 0.1875q-0.34375 0.1875 -0.546875 0.53125q-0.203125 0.328125 -0.203125 0.734375q0 0.390625 0.203125 0.734375q0.21875 0.34375 0.5625 0.546875q0.34375 0.1875 0.75 0.1875zm9.159454 -2.0625l0 1.15625l-4.59375 1.84375l0 -0.921875l3.625 -1.5l-3.625 -1.484375l0 -0.921875l4.59375 1.828125z" fill-rule="nonzero"/><path fill="#d9d2e9" d="m391.15198 256.38583l62.70868 0l0 24.0l-62.70868 0z" fill-rule="evenodd"/><path stroke="#000000" stroke-width="2.0" stroke-linejoin="round" stroke-linecap="butt" d="m391.15198 256.38583l62.70868 0l0 24.0l-62.70868 0z" fill-rule="evenodd"/><path fill="#000000" d="m405.93738 269.49582q0 2.34375 -1.15625 3.546875q-1.15625 1.203125 -3.25 1.203125l-4.1875 0l0 -1.484375l1.265625 0l0 -6.171875l-1.265625 0l0 -1.5l4.609375 0q1.265625 0 2.15625 0.578125q0.90625 0.5625 1.359375 1.5625q0.46875 0.984375 0.46875 2.265625zm-1.484375 0.0625q0 -1.421875 -0.671875 -2.1875q-0.671875 -0.78125 -1.828125 -0.78125l-1.875 0l0 6.171875l1.75 0q1.09375 0 1.859375 -0.75q0.765625 -0.75 0.765625 -2.453125zm10.537537 -5.859375l-6.046875 12.671875l-1.25 -0.59375l6.03125 -12.671875l1.265625 0.59375z" fill-rule="nonzero"/><path fill="#000000" d="m417.84055 271.90207l3.65625 1.5l0 0.921875l-4.59375 -1.84375l0 -1.15625l4.59375 -1.828125l0 0.921875l-3.65625 1.484375zm10.596954 0.015625q0 0.75 -0.359375 1.3125q-0.359375 0.5625 -0.96875 0.859375q-0.59375 0.28125 -1.328125 0.28125q-0.75 0 -1.390625 -0.28125q-0.640625 -0.28125 -1.03125 -0.828125q-0.375 -0.546875 -0.375 -1.3125q0 -0.75 0.359375 -1.3125q0.375 -0.5625 1.0 -0.859375q0.625 -0.3125 1.375 -0.3125q0.828125 0 1.4375 0.328125q0.609375 0.328125 0.9375 0.890625q0.34375 0.5625 0.34375 1.234375zm-2.6875 1.46875q0.75 0 1.21875 -0.390625q0.46875 -0.40625 0.46875 -1.09375q0 -0.609375 -0.46875 -1.015625q-0.453125 -0.421875 -1.28125 -0.421875q-0.46875 0 -0.859375 0.1875q-0.390625 0.171875 -0.625 0.515625q-0.21875 0.328125 -0.21875 0.765625q0 0.6875 0.5 1.078125q0.515625 0.375 1.265625 0.375zm6.878174 -0.125l1.765625 0l0 0.984375l-4.515625 0l0 -0.984375l1.765625 0l0 -4.640625l-1.6875 0l0 -1.0l2.671875 0l0 5.640625zm8.159454 0l0.796875 0l0 0.984375l-1.765625 0l0 -0.390625q-0.3125 0.25 -0.703125 0.390625q-0.375 0.125 -0.8125 0.125q-0.6875 0 -1.265625 -0.3125q-0.578125 -0.328125 -0.921875 -0.890625q-0.328125 -0.5625 -0.328125 -1.234375q0 -0.65625 0.328125 -1.21875q0.328125 -0.578125 0.890625 -0.90625q0.578125 -0.34375 1.265625 -0.34375q0.4375 0 0.828125 0.140625q0.40625 0.140625 0.703125 0.390625l0 -1.375l-1.265625 0l0 -1.0l2.25 0l0 5.640625zm-2.5 0.125q0.625 0 1.0625 -0.375q0.453125 -0.375 0.453125 -1.0625q0 -0.71875 -0.4375 -1.09375q-0.4375 -0.390625 -1.0625 -0.390625q-0.4375 0 -0.78125 0.1875q-0.34375 0.1875 -0.546875 0.53125q-0.203125 0.328125 -0.203125 0.734375q0 0.390625 0.203125 0.734375q0.21875 0.34375 0.5625 0.546875q0.34375 0.1875 0.75 0.1875zm9.159424 -2.0625l0 1.15625l-4.59375 1.84375l0 -0.921875l3.625 -1.5l-3.625 -1.484375l0 -0.921875l4.59375 1.828125z" fill-rule="nonzero"/><path fill="#000000" fill-opacity="0.0" d="m255.0643 75.3937c0 32.957336 -0.17321777 49.434357 -0.3464508 65.914665c-0.17323303 16.480316 -0.34646606 32.96393 -0.34646606 65.92786" fill-rule="evenodd"/><path stroke="#000000" stroke-width="1.0" stroke-linejoin="round" stroke-linecap="butt" d="m255.0643 75.3937c0 32.957336 -0.17321777 49.434357 -0.3464508 65.914665c-0.08660889 8.240158 -0.17323303 16.48114 -0.2381897 26.782578c-0.032485962 5.150711 -0.059555054 10.816544 -0.07849121 17.254944c-0.009475708 3.2191925 -0.016921997 6.631531 -0.021987915 10.269196l-0.00579834 5.6211395" fill-rule="evenodd"/><path fill="#000000" stroke="#000000" stroke-width="1.0" stroke-linecap="butt" d="m252.72165 201.23567l1.6502228 4.5386505l1.653244 -4.537552z" fill-rule="evenodd"/><path fill="#000000" fill-opacity="0.0" d="m302.98358 75.3937c0 32.957336 -0.16534424 49.434357 -0.33068848 65.914665c-0.16537476 16.480316 -0.330719 32.96393 -0.330719 65.92786" fill-rule="evenodd"/><path stroke="#000000" stroke-width="1.0" stroke-linejoin="round" stroke-linecap="butt" d="m302.98358 75.3937c0 32.957336 -0.16534424 49.434357 -0.33068848 65.914665c-0.08267212 8.240158 -0.16537476 16.48114 -0.22735596 26.782578c-0.03100586 5.150711 -0.056854248 10.816544 -0.07495117 17.254944c-0.009033203 3.2191925 -0.016143799 6.631531 -0.020996094 10.269196l-0.005493164 5.6211395" fill-rule="evenodd"/><path fill="#000000" stroke="#000000" stroke-width="1.0" stroke-linecap="butt" d="m300.67236 201.2357l1.6502686 4.53862l1.6531982 -4.5375824z" fill-rule="evenodd"/><path fill="#000000" fill-opacity="0.0" d="m350.97678 75.3937c0 32.957336 -0.17321777 49.434357 -0.34643555 65.914665c-0.17324829 16.480316 -0.34646606 32.96393 -0.34646606 65.92786" fill-rule="evenodd"/><path stroke="#000000" stroke-width="1.0" stroke-linejoin="round" stroke-linecap="butt" d="m350.97678 75.3937c0 32.957336 -0.17321777 49.434357 -0.34643555 65.914665c-0.08660889 8.240158 -0.17324829 16.48114 -0.2381897 26.782578c-0.03250122 5.150711 -0.059570312 10.816544 -0.07849121 17.254944c-0.009490967 3.2191925 -0.016906738 6.631531 -0.022003174 10.269196l-0.0057678223 5.6211395" fill-rule="evenodd"/><path fill="#000000" stroke="#000000" stroke-width="1.0" stroke-linecap="butt" d="m348.63412 201.23567l1.650238 4.5386505l1.6532288 -4.537552z" fill-rule="evenodd"/><path fill="#000000" fill-opacity="0.0" d="m398.97153 75.3937c0 32.957336 -0.18896484 49.434357 -0.3779297 65.914665c-0.18899536 16.480316 -0.3779602 32.96393 -0.3779602 65.92786" fill-rule="evenodd"/><path stroke="#000000" stroke-width="1.0" stroke-linejoin="round" stroke-linecap="butt" d="m398.97153 75.3937c0 32.957336 -0.18896484 49.434357 -0.3779297 65.914665c-0.09451294 8.240158 -0.18899536 16.48114 -0.25985718 26.782578c-0.03543091 5.150711 -0.064971924 10.816544 -0.085632324 17.254944c-0.010314941 3.2191925 -0.018463135 6.631531 -0.023986816 10.269196l-0.0063171387 5.6211395" fill-rule="evenodd"/><path fill="#000000" stroke="#000000" stroke-width="1.0" stroke-linecap="butt" d="m396.56607 201.23563l1.6500854 4.5386963l1.6533813 -4.537506z" fill-rule="evenodd"/></g></svg>