<svg version="1.1" viewBox="0.0 0.0 642.4251968503937 350.6482939632546" fill="none" stroke="none" stroke-linecap="square" stroke-miterlimit="10" xmlns:xlink="http://www.w3.org/1999/xlink" xmlns="http://www.w3.org/2000/svg"><clipPath id="p.0"><path d="m0 0l642.4252 0l0 350.6483l-642.4252 0l0 -350.6483z" clip-rule="nonzero"/></clipPath><g clip-path="url(#p.0)"><path fill="#000000" fill-opacity="0.0" d="m0 0l642.4252 0l0 350.6483l-642.4252 0z" fill-rule="evenodd"/><path fill="#ffffff" d="m0.16010499 0.23884514l642.42523 0l0 350.6457l-642.42523 0z" fill-rule="evenodd"/><path stroke="#000000" stroke-width="1.0" stroke-linejoin="round" stroke-linecap="butt" d="m0.16010499 0.23884514l642.42523 0l0 350.6457l-642.42523 0z" fill-rule="evenodd"/><path fill="#d9d9d9" d="m135.68767 288.93964l371.37006 0l0 54.015747l-371.37006 0z" fill-rule="evenodd"/><path stroke="#000000" stroke-width="2.0" stroke-linejoin="round" stroke-linecap="butt" d="m135.68767 288.93964l371.37006 0l0 54.015747l-371.37006 0z" fill-rule="evenodd"/><path fill="#000000" d="m298.35394 333.56287q0 1.765625 -0.71875 3.015625q-0.703125 1.25 -1.84375 1.890625q-1.140625 0.625 -2.359375 0.625q-1.34375 0 -2.484375 -0.65625q-1.140625 -0.65625 -1.8125 -1.90625q-0.671875 -1.25 -0.671875 -2.9375q0 -1.53125 0.625 -2.8125q0.640625 -1.296875 1.765625 -2.03125q1.140625 -0.75 2.578125 -0.75q1.453125 0 2.578125 0.765625q1.125 0.765625 1.734375 2.03125q0.609375 1.265625 0.609375 2.765625zm-4.921875 3.84375q1.0 0 1.71875 -0.546875q0.734375 -0.5625 1.109375 -1.46875q0.390625 -0.90625 0.390625 -1.90625q0 -0.9375 -0.390625 -1.796875q-0.375 -0.875 -1.109375 -1.40625q-0.734375 -0.546875 -1.75 -0.546875q-0.90625 0 -1.640625 0.53125q-0.734375 0.53125 -1.140625 1.40625q-0.40625 0.859375 -0.40625 1.875q0 1.03125 0.390625 1.921875q0.390625 0.890625 1.125 1.421875q0.75 0.515625 1.703125 0.515625zm10.818756 -7.46875l-1.71875 0l0 5.34375q0 1.109375 0.53125 1.59375q0.53125 0.484375 1.65625 0.484375q1.25 0 1.765625 -0.546875q0.515625 -0.546875 0.515625 -1.859375l0 -5.015625l-1.75 0l0 -1.734375l4.890625 0l0 1.734375l-1.421875 0l0 5.40625q0 0.921875 -0.28125 1.671875q-0.28125 0.734375 -0.796875 1.1875q-0.515625 0.453125 -1.359375 0.671875q-0.828125 0.21875 -1.546875 0.21875q-1.0625 0 -1.78125 -0.25q-0.703125 -0.25 -1.21875 -0.765625q-0.921875 -0.859375 -0.921875 -2.9375l0 -5.203125l-1.453125 0l0 -1.734375l4.890625 0l0 1.734375zm16.428131 2.328125l-1.734375 0l0 -2.328125l-2.265625 0l0 7.203125l2.25 0l0 1.734375l-6.234375 0l0 -1.734375l2.234375 0l0 -7.203125l-2.265625 0l0 2.328125l-1.734375 0l0 -4.0625l9.75 0l0 4.0625zm10.865631 -0.46875q0 1.0 -0.484375 1.78125q-0.46875 0.78125 -1.296875 1.21875q-0.828125 0.4375 -1.828125 0.4375l-2.25 0l0 1.90625l2.265625 0l0 1.734375l-5.453125 0l0 -1.734375l1.46875 0l0 -7.203125l-1.453125 0l0 -1.734375l4.921875 0q1.9375 0 3.015625 0.953125q1.09375 0.953125 1.09375 2.640625zm-1.71875 -0.046875q0 -0.828125 -0.609375 -1.3125q-0.609375 -0.5 -1.78125 -0.5l-1.75 0l0 3.5625l1.9375 0q2.203125 0 2.203125 -1.75zm8.006256 -1.8125l-1.71875 0l0 5.34375q0 1.109375 0.53125 1.59375q0.53125 0.484375 1.65625 0.484375q1.25 0 1.765625 -0.546875q0.515625 -0.546875 0.515625 -1.859375l0 -5.015625l-1.75 0l0 -1.734375l4.890625 0l0 1.734375l-1.421875 0l0 5.40625q0 0.921875 -0.28125 1.671875q-0.28125 0.734375 -0.796875 1.1875q-0.515625 0.453125 -1.359375 0.671875q-0.828125 0.21875 -1.546875 0.21875q-1.0625 0 -1.78125 -0.25q-0.703125 -0.25 -1.21875 -0.765625q-0.921875 -0.859375 -0.921875 -2.9375l0 -5.203125l-1.453125 0l0 -1.734375l4.890625 0l0 1.734375zm16.428131 2.328125l-1.734375 0l0 -2.328125l-2.265625 0l0 7.203125l2.25 0l0 1.734375l-6.234375 0l0 -1.734375l2.234375 0l0 -7.203125l-2.265625 0l0 2.328125l-1.734375 0l0 -4.0625l9.75 0l0 4.0625z" fill-rule="nonzero"/><path fill="#d9d9d9" d="m105.002625 6.774278l95.40158 0l0 51.2126l-95.40158 0z" fill-rule="evenodd"/><path stroke="#000000" stroke-width="2.0" stroke-linejoin="round" stroke-linecap="butt" d="m105.002625 6.774278l95.40158 0l0 51.2126l-95.40158 0z" fill-rule="evenodd"/><path fill="#000000" d="m123.697136 17.616152q0 1.0 -0.484375 1.78125q-0.46875 0.78125 -1.296875 1.21875q-0.828125 0.4375 -1.828125 0.4375l-2.25 0l0 1.90625l2.265625 0l0 1.734375l-5.453125 0l0 -1.734375l1.46875 0l0 -7.203125l-1.453125 0l0 -1.734375l4.921875 0q1.9375 0 3.015625 0.953125q1.09375 0.953125 1.09375 2.640625zm-1.71875 -0.046875q0 -0.828125 -0.609375 -1.3125q-0.609375 -0.5 -1.78125 -0.5l-1.75 0l0 3.5625l1.9375 0q2.203125 0 2.203125 -1.75zm13.303139 1.8125q0 1.765625 -0.71875 3.015625q-0.703125 1.25 -1.84375 1.890625q-1.140625 0.625 -2.359375 0.625q-1.34375 0 -2.4843826 -0.65625q-1.140625 -0.65625 -1.8125 -1.90625q-0.671875 -1.25 -0.671875 -2.9375q0 -1.53125 0.625 -2.8125q0.640625 -1.296875 1.765625 -2.03125q1.1406326 -0.75 2.5781326 -0.75q1.453125 0 2.578125 0.765625q1.125 0.765625 1.734375 2.03125q0.609375 1.265625 0.609375 2.765625zm-4.921875 3.84375q1.0 0 1.71875 -0.546875q0.734375 -0.5625 1.109375 -1.46875q0.390625 -0.90625 0.390625 -1.90625q0 -0.9375 -0.390625 -1.796875q-0.375 -0.875 -1.109375 -1.40625q-0.734375 -0.546875 -1.75 -0.546875q-0.90625 0 -1.640625 0.53125q-0.7343826 0.53125 -1.1406326 1.40625q-0.40625 0.859375 -0.40625 1.875q0 1.03125 0.390625 1.921875q0.390625 0.890625 1.1250076 1.421875q0.75 0.515625 1.703125 0.515625zm15.100006 -7.46875l-3.015625 0l0 7.203125l3.015625 0l0 1.734375l-7.875 0l0 -1.734375l3.078125 0l0 -7.203125l-3.078125 0l0 -1.734375l7.875 0l0 1.734375zm9.787506 5.671875l0 -5.671875l-1.734375 0l0 -1.734375l4.875 0l0 1.734375l-1.4375 0l0 8.9375l-1.640625 0l-4.8125 -7.609375l0 5.875l1.8125 0l0 1.734375l-4.9375 0l0 -1.734375l1.40625 0l0 -7.203125l-1.40625 0l0 -1.734375l3.328125 0l4.546875 7.40625zm13.553131 -3.34375l-1.734375 0l0 -2.328125l-2.265625 0l0 7.203125l2.25 0l0 1.734375l-6.234375 0l0 -1.734375l2.234375 0l0 -7.203125l-2.265625 0l0 2.328125l-1.734375 0l0 -4.0625l9.75 0l0 4.0625zm10.975006 -0.109375l-1.734375 0l0 -2.21875l-4.46875 0l0 2.65625l1.984375 0l0 -1.234375l1.734375 0l0 4.171875l-1.734375 0l0 -1.234375l-1.984375 0l0 2.84375l4.46875 0l0 -2.171875l1.734375 0l0 3.90625l-9.390625 0l0 -1.734375l1.484375 0l0 -7.203125l-1.4375 0l0 -1.734375l9.34375 0l0 3.953125zm10.631256 -0.8125q0 1.125 -0.640625 1.890625q-0.625 0.765625 -1.84375 1.0625l2.15625 2.84375l1.390625 0l0 1.734375l-2.5 0q-0.421875 -0.953125 -1.125 -1.921875l-1.671875 -2.3125l-1.4375 0l0 2.5l1.375 0l0 1.734375l-4.5625 0l0 -1.734375l1.46875 0l0 -7.203125l-1.390625 0l0 -1.734375l5.328125 0q1.78125 0 2.609375 0.921875q0.84375 0.90625 0.84375 2.21875zm-1.703125 0.015625q0 -0.71875 -0.40625 -1.0625q-0.40625 -0.359375 -1.171875 -0.359375l-2.390625 0l0 2.96875l1.796875 0q1.09375 0 1.625 -0.375q0.546875 -0.390625 0.546875 -1.171875z" fill-rule="nonzero"/><path fill="#d9d2e9" d="m111.45926 29.188976l82.48819 0l0 24.0l-82.48819 0z" fill-rule="evenodd"/><path stroke="#000000" stroke-width="2.0" stroke-linejoin="round" stroke-linecap="butt" d="m111.45926 29.188976l82.48819 0l0 24.0l-82.48819 0z" fill-rule="evenodd"/><path fill="#000000" d="m157.27835 41.03085q0 1.0 -0.484375 1.78125q-0.46875 0.78125 -1.296875 1.21875q-0.828125 0.4375 -1.828125 0.4375l-2.25 0l0 1.90625l2.265625 0l0 1.734375l-5.453125 0l0 -1.734375l1.46875 0l0 -7.203125l-1.453125 0l0 -1.734375l4.921875 0q1.9375 0 3.015625 0.953125q1.09375 0.953125 1.09375 2.640625zm-1.71875 -0.046875q0 -0.828125 -0.609375 -1.3125q-0.609375 -0.5 -1.78125 -0.5l-1.75 0l0 3.5625l1.9375 0q2.203125 0 2.203125 -1.75z" fill-rule="nonzero"/><path fill="#d9d9d9" d="m235.42914 241.15486l31.561737 0l0 23.038315l-15.780869 5.7595825l-15.780869 -5.7595825z" fill-rule="evenodd"/><path stroke="#000000" stroke-width="2.0" stroke-linejoin="round" stroke-linecap="butt" d="m235.42914 241.15486l31.561737 0l0 23.038315l-15.780869 5.7595825l-15.780869 -5.7595825z" fill-rule="evenodd"/><path fill="#000000" d="m247.92249 253.40901q0 0.546875 -0.421875 0.9375q-0.421875 0.375 -1.046875 0.375q-0.453125 0 -0.8125 -0.1875q-0.34375 -0.1875 -0.546875 -0.484375q-0.1875 -0.3125 -0.1875 -0.625q0 -0.53125 0.4375 -0.9375q0.4375 -0.40625 1.078125 -0.40625q0.65625 0 1.078125 0.40625q0.421875 0.390625 0.421875 0.921875zm0 4.0000153q0 0.546875 -0.421875 0.9375q-0.421875 0.375 -1.046875 0.375q-0.453125 0 -0.8125 -0.1875q-0.34375 -0.1875 -0.546875 -0.484375q-0.1875 -0.3125 -0.1875 -0.625q0 -0.53125 0.4375 -0.9375q0.4375 -0.40625 1.078125 -0.40625q0.65625 0 1.078125 0.40625q0.421875 0.390625 0.421875 0.921875zm11.131256 -5.4687653q0 1.03125 -0.703125 1.734375q-0.6875 0.6875 -2.046875 1.015625l0 0.984375l-1.4843597 0l0 -2.03125q1.5312347 -0.25 2.1562347 -0.625q0.625 -0.390625 0.625 -1.078125q0 -0.59375 -0.484375 -0.90625q-0.484375 -0.328125 -1.3437347 -0.328125q-0.421875 0 -1.3125 0.140625l0 1.0625l-1.46875 0l0 -2.140625q0.609375 -0.25 1.390625 -0.390625q0.78125 -0.15625 1.40625 -0.15625q1.4531097 0 2.3593597 0.75q0.90625 0.734375 0.90625 1.96875zm-2.03125 5.6093903q0 0.5 -0.375 0.84375q-0.375 0.34375 -1.0624847 0.34375q-0.640625 0 -1.0625 -0.328125q-0.421875 -0.34375 -0.421875 -0.859375q0 -0.5 0.421875 -0.859375q0.421875 -0.375 1.046875 -0.375q0.67185974 0 1.0624847 0.375q0.390625 0.375 0.390625 0.859375z" fill-rule="nonzero"/><path fill="#d9d9d9" d="m283.37628 241.15486l31.561737 0l0 23.038315l-15.780884 5.7595825l-15.780853 -5.7595825z" fill-rule="evenodd"/><path stroke="#000000" stroke-width="2.0" stroke-linejoin="round" stroke-linecap="butt" d="m283.37628 241.15486l31.561737 0l0 23.038315l-15.780884 5.7595825l-15.780853 -5.7595825z" fill-rule="evenodd"/><path fill="#000000" d="m295.86963 253.40901q0 0.546875 -0.421875 0.9375q-0.421875 0.375 -1.046875 0.375q-0.453125 0 -0.8125 -0.1875q-0.34375 -0.1875 -0.546875 -0.484375q-0.1875 -0.3125 -0.1875 -0.625q0 -0.53125 0.4375 -0.9375q0.4375 -0.40625 1.078125 -0.40625q0.65625 0 1.078125 0.40625q0.421875 0.390625 0.421875 0.921875zm0 4.0000153q0 0.546875 -0.421875 0.9375q-0.421875 0.375 -1.046875 0.375q-0.453125 0 -0.8125 -0.1875q-0.34375 -0.1875 -0.546875 -0.484375q-0.1875 -0.3125 -0.1875 -0.625q0 -0.53125 0.4375 -0.9375q0.4375 -0.40625 1.078125 -0.40625q0.65625 0 1.078125 0.40625q0.421875 0.390625 0.421875 0.921875zm11.131256 -5.4687653q0 1.03125 -0.703125 1.734375q-0.6875 0.6875 -2.046875 1.015625l0 0.984375l-1.484375 0l0 -2.03125q1.53125 -0.25 2.15625 -0.625q0.625 -0.390625 0.625 -1.078125q0 -0.59375 -0.484375 -0.90625q-0.484375 -0.328125 -1.34375 -0.328125q-0.421875 0 -1.3125 0.140625l0 1.0625l-1.46875 0l0 -2.140625q0.609375 -0.25 1.390625 -0.390625q0.78125 -0.15625 1.40625 -0.15625q1.453125 0 2.359375 0.75q0.90625 0.734375 0.90625 1.96875zm-2.03125 5.6093903q0 0.5 -0.375 0.84375q-0.375 0.34375 -1.0625 0.34375q-0.640625 0 -1.0625 -0.328125q-0.421875 -0.34375 -0.421875 -0.859375q0 -0.5 0.421875 -0.859375q0.421875 -0.375 1.046875 -0.375q0.671875 0 1.0625 0.375q0.390625 0.375 0.390625 0.859375z" fill-rule="nonzero"/><path fill="#d9d9d9" d="m331.32474 241.15486l31.561737 0l0 23.038315l-15.780884 5.7595825l-15.780853 -5.7595825z" fill-rule="evenodd"/><path stroke="#000000" stroke-width="2.0" stroke-linejoin="round" stroke-linecap="butt" d="m331.32474 241.15486l31.561737 0l0 23.038315l-15.780884 5.7595825l-15.780853 -5.7595825z" fill-rule="evenodd"/><path fill="#000000" d="m343.81808 253.40901q0 0.546875 -0.421875 0.9375q-0.421875 0.375 -1.046875 0.375q-0.453125 0 -0.8125 -0.1875q-0.34375 -0.1875 -0.546875 -0.484375q-0.1875 -0.3125 -0.1875 -0.625q0 -0.53125 0.4375 -0.9375q0.4375 -0.40625 1.078125 -0.40625q0.65625 0 1.078125 0.40625q0.421875 0.390625 0.421875 0.921875zm0 4.0000153q0 0.546875 -0.421875 0.9375q-0.421875 0.375 -1.046875 0.375q-0.453125 0 -0.8125 -0.1875q-0.34375 -0.1875 -0.546875 -0.484375q-0.1875 -0.3125 -0.1875 -0.625q0 -0.53125 0.4375 -0.9375q0.4375 -0.40625 1.078125 -0.40625q0.65625 0 1.078125 0.40625q0.421875 0.390625 0.421875 0.921875zm11.131256 -5.4687653q0 1.03125 -0.703125 1.734375q-0.6875 0.6875 -2.046875 1.015625l0 0.984375l-1.484375 0l0 -2.03125q1.53125 -0.25 2.15625 -0.625q0.625 -0.390625 0.625 -1.078125q0 -0.59375 -0.484375 -0.90625q-0.484375 -0.328125 -1.34375 -0.328125q-0.421875 0 -1.3125 0.140625l0 1.0625l-1.46875 0l0 -2.140625q0.609375 -0.25 1.390625 -0.390625q0.78125 -0.15625 1.40625 -0.15625q1.453125 0 2.359375 0.75q0.90625 0.734375 0.90625 1.96875zm-2.03125 5.6093903q0 0.5 -0.375 0.84375q-0.375 0.34375 -1.0625 0.34375q-0.640625 0 -1.0625 -0.328125q-0.421875 -0.34375 -0.421875 -0.859375q0 -0.5 0.421875 -0.859375q0.421875 -0.375 1.046875 -0.375q0.671875 0 1.0625 0.375q0.390625 0.375 0.390625 0.859375z" fill-rule="nonzero"/><path fill="#d9d9d9" d="m379.27292 241.15486l31.561737 0l0 23.038315l-15.780884 5.7595825l-15.780853 -5.7595825z" fill-rule="evenodd"/><path stroke="#000000" stroke-width="2.0" stroke-linejoin="round" stroke-linecap="butt" d="m379.27292 241.15486l31.561737 0l0 23.038315l-15.780884 5.7595825l-15.780853 -5.7595825z" fill-rule="evenodd"/><path fill="#000000" d="m391.76627 253.40901q0 0.546875 -0.421875 0.9375q-0.421875 0.375 -1.046875 0.375q-0.453125 0 -0.8125 -0.1875q-0.34375 -0.1875 -0.546875 -0.484375q-0.1875 -0.3125 -0.1875 -0.625q0 -0.53125 0.4375 -0.9375q0.4375 -0.40625 1.078125 -0.40625q0.65625 0 1.078125 0.40625q0.421875 0.390625 0.421875 0.921875zm0 4.0000153q0 0.546875 -0.421875 0.9375q-0.421875 0.375 -1.046875 0.375q-0.453125 0 -0.8125 -0.1875q-0.34375 -0.1875 -0.546875 -0.484375q-0.1875 -0.3125 -0.1875 -0.625q0 -0.53125 0.4375 -0.9375q0.4375 -0.40625 1.078125 -0.40625q0.65625 0 1.078125 0.40625q0.421875 0.390625 0.421875 0.921875zm11.131256 -5.4687653q0 1.03125 -0.703125 1.734375q-0.6875 0.6875 -2.046875 1.015625l0 0.984375l-1.484375 0l0 -2.03125q1.53125 -0.25 2.15625 -0.625q0.625 -0.390625 0.625 -1.078125q0 -0.59375 -0.484375 -0.90625q-0.484375 -0.328125 -1.34375 -0.328125q-0.421875 0 -1.3125 0.140625l0 1.0625l-1.46875 0l0 -2.140625q0.609375 -0.25 1.390625 -0.390625q0.78125 -0.15625 1.40625 -0.15625q1.453125 0 2.359375 0.75q0.90625 0.734375 0.90625 1.96875zm-2.03125 5.6093903q0 0.5 -0.375 0.84375q-0.375 0.34375 -1.0625 0.34375q-0.640625 0 -1.0625 -0.328125q-0.421875 -0.34375 -0.421875 -0.859375q0 -0.5 0.421875 -0.859375q0.421875 -0.375 1.046875 -0.375q0.671875 0 1.0625 0.375q0.390625 0.375 0.390625 0.859375z" fill-rule="nonzero"/><path fill="#000000" fill-opacity="0.0" d="m251.21 269.95276l-58.86615 26.299225" fill-rule="evenodd"/><path stroke="#000000" stroke-width="2.0" stroke-linejoin="round" stroke-linecap="butt" d="m251.20999 269.95276l-47.90985 21.404327" fill-rule="evenodd"/><path fill="#000000" stroke="#000000" stroke-width="2.0" stroke-linecap="butt" d="m201.95264 288.34097l-6.9392853 6.7183533l9.634293 -0.6860657z" fill-rule="evenodd"/><path fill="#000000" fill-opacity="0.0" d="m299.15714 269.95276l-21.574799 26.299225" fill-rule="evenodd"/><path stroke="#000000" stroke-width="2.0" stroke-linejoin="round" stroke-linecap="butt" d="m299.15717 269.95276l-13.963867 17.021637" fill-rule="evenodd"/><path fill="#000000" stroke="#000000" stroke-width="2.0" stroke-linecap="butt" d="m282.63928 284.87918l-3.2025146 9.112305l8.310547 -4.921875z" fill-rule="evenodd"/><path fill="#000000" fill-opacity="0.0" d="m347.1056 269.95276l15.716553 26.299225" fill-rule="evenodd"/><path stroke="#000000" stroke-width="2.0" stroke-linejoin="round" stroke-linecap="butt" d="m347.1056 269.95276l9.5607605 15.998413" fill-rule="evenodd"/><path fill="#000000" stroke="#000000" stroke-width="2.0" stroke-linecap="butt" d="m353.83066 287.6458l7.4916077 6.0963745l-1.820221 -9.485626z" fill-rule="evenodd"/><path fill="#000000" fill-opacity="0.0" d="m395.05377 269.95276l53.039368 26.299225" fill-rule="evenodd"/><path stroke="#000000" stroke-width="2.0" stroke-linejoin="round" stroke-linecap="butt" d="m395.05377 269.95276l42.28842 20.968414" fill-rule="evenodd"/><path fill="#000000" stroke="#000000" stroke-width="2.0" stroke-linecap="butt" d="m435.8747 293.8808l9.5989685 1.0723267l-6.663971 -6.9915466z" fill-rule="evenodd"/><path fill="#d9d9d9" d="m428.72833 127.93044l202.86615 0l0 51.21261l-202.86615 0z" fill-rule="evenodd"/><path stroke="#000000" stroke-width="2.0" stroke-linejoin="round" stroke-linecap="butt" d="m428.72833 127.93044l202.86615 0l0 51.21261l-202.86615 0z" fill-rule="evenodd"/><path fill="#000000" d="m456.38324 136.91295l-1.4375 0l2.609375 6.6875l2.53125 -6.6875l-1.671875 0l0 -1.734375l4.609375 0l0 1.734375l-1.25 0l-3.390625 8.9375l-1.734375 0l-3.484375 -8.9375l-1.375 0l0 -1.734375l4.59375 0l0 1.734375zm16.693756 7.203125l1.046875 0l0 1.734375l-4.359375 0l0 -1.734375l1.5625 0l-0.546875 -1.265625l-4.328125 0l-0.546875 1.265625l1.609375 0l0 1.734375l-4.4375 0l0 -1.734375l1.09375 0l3.046875 -7.203125l-2.296875 0l0 -1.734375l4.5 0l3.65625 8.9375zm-2.984375 -3.0l-1.453125 -3.453125l-1.46875 3.453125l2.921875 0zm10.771881 -4.203125l-2.234375 0l0 7.203125l4.234375 0l0 -3.28125l1.734375 0l0 5.015625l-9.453125 0l0 -1.734375l1.765625 0l0 -7.203125l-1.765625 0l0 -1.734375l5.71875 0l0 1.734375zm9.787506 0l-1.71875 0l0 5.34375q0 1.109375 0.53125 1.59375q0.53125 0.484375 1.65625 0.484375q1.25 0 1.765625 -0.546875q0.515625 -0.546875 0.515625 -1.859375l0 -5.015625l-1.75 0l0 -1.734375l4.890625 0l0 1.734375l-1.421875 0l0 5.40625q0 0.921875 -0.28125 1.671875q-0.28125 0.734375 -0.796875 1.1875q-0.515625 0.453125 -1.359375 0.671875q-0.828125 0.21875 -1.546875 0.21875q-1.0625 0 -1.78125 -0.25q-0.703125 -0.25 -1.21875 -0.765625q-0.921875 -0.859375 -0.921875 -2.9375l0 -5.203125l-1.453125 0l0 -1.734375l4.890625 0l0 1.734375zm16.209381 2.21875l-1.734375 0l0 -2.21875l-4.46875 0l0 2.65625l1.984375 0l0 -1.234375l1.734375 0l0 4.171875l-1.734375 0l0 -1.234375l-1.984375 0l0 2.84375l4.46875 0l0 -2.171875l1.734375 0l0 3.90625l-9.390625 0l0 -1.734375l1.484375 0l0 -7.203125l-1.4375 0l0 -1.734375l9.34375 0l0 3.953125zm21.653137 -2.21875l-3.015625 0l0 7.203125l3.015625 0l0 1.734375l-7.875 0l0 -1.734375l3.078125 0l0 -7.203125l-3.078125 0l0 -1.734375l7.875 0l0 1.734375zm12.053162 2.203125l-1.734375 0l0 -2.203125l-4.375 0l0 2.671875l1.984375 0l0 -1.234375l1.71875 0l0 4.171875l-1.71875 0l0 -1.203125l-1.984375 0l0 2.796875l2.28125 0l0 1.734375l-5.40625 0l0 -1.734375l1.40625 0l0 -7.203125l-1.390625 0l0 -1.734375l9.21875 0l0 3.9375zm22.387512 0l-1.734375 0l0 -2.203125l-4.375 0l0 2.671875l1.984375 0l0 -1.234375l1.71875 0l0 4.171875l-1.71875 0l0 -1.203125l-1.984375 0l0 2.796875l2.28125 0l0 1.734375l-5.40625 0l0 -1.734375l1.40625 0l0 -7.203125l-1.390625 0l0 -1.734375l9.21875 0l0 3.9375zm10.865601 5.0l1.046875 0l0 1.734375l-4.359375 0l0 -1.734375l1.5625 0l-0.546875 -1.265625l-4.328125 0l-0.546875 1.265625l1.609375 0l0 1.734375l-4.4375 0l0 -1.734375l1.09375 0l3.046875 -7.203125l-2.296875 0l0 -1.734375l4.5 0l3.65625 8.9375zm-2.984375 -3.0l-1.453125 -3.453125l-1.46875 3.453125l2.921875 0zm10.771912 -4.203125l-2.234375 0l0 7.203125l4.234375 0l0 -3.28125l1.734375 0l0 5.015625l-9.453125 0l0 -1.734375l1.765625 0l0 -7.203125l-1.765625 0l0 -1.734375l5.71875 0l0 1.734375zm12.349976 -1.515625l0 -0.421875l1.71875 0l0 4.015625l-1.71875 0l0 -1.796875q-1.09375 -0.5 -2.03125 -0.5q-1.015625 0 -1.703125 0.5q-0.671875 0.5 -0.671875 1.1875q0 0.609375 0.390625 0.921875q0.390625 0.296875 0.953125 0.40625q0.5625 0.109375 1.5625 0.203125l0.71875 0.078125q1.34375 0.171875 2.109375 0.875q0.765625 0.6875 0.765625 1.921875q0 0.984375 -0.5625 1.734375q-0.546875 0.75 -1.515625 1.171875q-0.953125 0.40625 -2.15625 0.40625q-0.65625 0 -1.25 -0.15625q-0.59375 -0.15625 -1.34375 -0.515625l0 0.671875l-1.71875 0l0 -3.90625l1.71875 0l0 1.421875q1.265625 0.765625 2.609375 0.765625q1.21875 0 1.875 -0.40625q0.65625 -0.421875 0.65625 -1.1875q0 -0.65625 -0.515625 -0.953125q-0.515625 -0.296875 -1.765625 -0.3125q-2.09375 -0.03125 -3.1875 -0.890625q-1.09375 -0.859375 -1.09375 -2.25q0 -0.875 0.515625 -1.65625q0.515625 -0.796875 1.4375 -1.265625q0.921875 -0.484375 2.109375 -0.484375q1.15625 0 2.09375 0.421875zm13.646912 3.734375l-1.734375 0l0 -2.21875l-4.46875 0l0 2.65625l1.984375 0l0 -1.234375l1.734375 0l0 4.171875l-1.734375 0l0 -1.234375l-1.984375 0l0 2.84375l4.46875 0l0 -2.171875l1.734375 0l0 3.90625l-9.390625 0l0 -1.734375l1.484375 0l0 -7.203125l-1.4375 0l0 -1.734375l9.34375 0l0 3.953125z" fill-rule="nonzero"/><path fill="#d9d2e9" d="m433.81235 150.34514l47.93698 0l0 24.0l-47.93698 0z" fill-rule="evenodd"/><path stroke="#000000" stroke-width="2.0" stroke-linejoin="round" stroke-linecap="butt" d="m433.81235 150.34514l47.93698 0l0 24.0l-47.93698 0z" fill-rule="evenodd"/><path fill="#000000" d="m461.73083 160.32764l-3.015625 0l0 7.203125l3.015625 0l0 1.734375l-7.875 0l0 -1.734375l3.078125 0l0 -7.203125l-3.078125 0l0 -1.734375l7.875 0l0 1.734375z" fill-rule="nonzero"/><path fill="#d9d2e9" d="m481.75977 150.34514l47.93701 0l0 24.0l-47.93701 0z" fill-rule="evenodd"/><path stroke="#000000" stroke-width="2.0" stroke-linejoin="round" stroke-linecap="butt" d="m481.75977 150.34514l47.93701 0l0 24.0l-47.93701 0z" fill-rule="evenodd"/><path fill="#000000" d="m511.11578 160.32764l-2.25 0l0 5.515625q0 0.984375 -0.234375 1.65625q-0.234375 0.671875 -0.71875 1.09375q-0.53125 0.46875 -1.0625 0.671875q-0.53125 0.21875 -1.40625 0.21875q-0.953125 0 -2.0625 -0.3125q-1.109375 -0.328125 -2.21875 -0.9375l0 -4.28125l1.734375 0l0 2.046875q0 1.015625 0.625 1.359375q0.421875 0.25 0.953125 0.34375q0.546875 0.09375 0.953125 0.09375q0.9375 0 1.328125 -0.453125q0.40625 -0.453125 0.40625 -1.640625l0 -5.375l-3.28125 0l0 -1.734375l7.234375 0l0 1.734375z" fill-rule="nonzero"/><path fill="#d9d2e9" d="m529.7072 150.34514l47.93701 0l0 24.0l-47.93701 0z" fill-rule="evenodd"/><path stroke="#000000" stroke-width="2.0" stroke-linejoin="round" stroke-linecap="butt" d="m529.7072 150.34514l47.93701 0l0 24.0l-47.93701 0z" fill-rule="evenodd"/><path fill="#000000" d="m553.2819 160.32764l-1.453125 0l0 2.890625l3.0 -2.890625l-0.765625 0l0 -1.734375l4.265625 0l0 1.734375l-1.203125 0l-3.09375 3.0q1.71875 2.0 2.890625 4.203125l1.890625 0l0 1.734375l-2.828125 0q-0.578125 -1.21875 -1.421875 -2.53125q-0.828125 -1.3125 -1.6875 -2.296875l-1.046875 1.0l0 2.09375l1.453125 0l0 1.734375l-4.640625 0l0 -1.734375l1.46875 0l0 -7.203125l-1.46875 0l0 -1.734375l4.640625 0l0 1.734375z" fill-rule="nonzero"/><path fill="#d9d2e9" d="m577.65466 150.34514l47.93695 0l0 24.0l-47.93695 0z" fill-rule="evenodd"/><path stroke="#000000" stroke-width="2.0" stroke-linejoin="round" stroke-linecap="butt" d="m577.65466 150.34514l47.93695 0l0 24.0l-47.93695 0z" fill-rule="evenodd"/><path fill="#000000" d="m602.6981 160.32764l-2.234375 0l0 7.203125l4.234375 0l0 -3.28125l1.734375 0l0 5.015625l-9.453125 0l0 -1.734375l1.765625 0l0 -7.203125l-1.765625 0l0 -1.734375l5.71875 0l0 1.734375z" fill-rule="nonzero"/><path fill="#d9d9d9" d="m441.58923 6.774278l95.40155 0l0 51.2126l-95.40155 0z" fill-rule="evenodd"/><path stroke="#000000" stroke-width="2.0" stroke-linejoin="round" stroke-linecap="butt" d="m441.58923 6.774278l95.40155 0l0 51.2126l-95.40155 0z" fill-rule="evenodd"/><path fill="#000000" d="m469.13376 14.241152l0 -0.421875l1.71875 0l0 4.015625l-1.71875 0l0 -1.796875q-1.09375 -0.5 -2.03125 -0.5q-1.015625 0 -1.703125 0.5q-0.671875 0.5 -0.671875 1.1875q0 0.609375 0.390625 0.921875q0.390625 0.296875 0.953125 0.40625q0.5625 0.109375 1.5625 0.203125l0.71875 0.078125q1.34375 0.171875 2.109375 0.875q0.765625 0.6875 0.765625 1.921875q0 0.984375 -0.5625 1.734375q-0.546875 0.75 -1.515625 1.171875q-0.953125 0.40625 -2.15625 0.40625q-0.65625 0 -1.25 -0.15625q-0.59375 -0.15625 -1.34375 -0.515625l0 0.671875l-1.71875 0l0 -3.90625l1.71875 0l0 1.421875q1.265625 0.765625 2.609375 0.765625q1.21875 0 1.875 -0.40625q0.65625 -0.421875 0.65625 -1.1875q0 -0.65625 -0.515625 -0.953125q-0.515625 -0.296875 -1.765625 -0.3125q-2.09375 -0.03125 -3.1875 -0.890625q-1.09375 -0.859375 -1.09375 -2.25q0 -0.875 0.515625 -1.65625q0.515625 -0.796875 1.4375 -1.265625q0.921875 -0.484375 2.109375 -0.484375q1.15625 0 2.09375 0.421875zm12.178131 0.359375l0 -0.78125l1.703125 0l0 4.34375l-1.703125 0l0 -1.765625q-1.390625 -0.875 -2.734375 -0.875q-0.890625 0 -1.671875 0.453125q-0.765625 0.453125 -1.234375 1.3125q-0.46875 0.859375 -0.46875 2.03125q0 1.75 0.90625 2.8125q0.90625 1.0625 2.515625 1.0625q0.796875 0 1.671875 -0.296875q0.890625 -0.3125 1.734375 -0.90625l1.046875 1.265625q-0.796875 0.75 -2.125 1.203125q-1.328125 0.453125 -2.296875 0.453125q-2.390625 0 -3.859375 -1.71875q-0.625 -0.703125 -0.984375 -1.796875q-0.34375 -1.09375 -0.34375 -2.09375q0 -1.5625 0.671875 -2.8125q0.671875 -1.25 1.828125 -1.953125q1.15625 -0.71875 2.59375 -0.71875q0.78125 0 1.5 0.21875q0.734375 0.203125 1.25 0.5625zm12.459381 8.359375l1.046875 0l0 1.734375l-4.359375 0l0 -1.734375l1.5625 0l-0.546875 -1.265625l-4.328125 0l-0.546875 1.265625l1.609375 0l0 1.734375l-4.4375 0l0 -1.734375l1.09375 0l3.046875 -7.203125l-2.296875 0l0 -1.734375l4.5 0l3.65625 8.9375zm-2.984375 -3.0l-1.453125 -3.453125l-1.46875 3.453125l2.921875 0zm10.771881 -4.203125l-2.234375 0l0 7.203125l4.234375 0l0 -3.28125l1.734375 0l0 5.015625l-9.453125 0l0 -1.734375l1.765625 0l0 -7.203125l-1.765625 0l0 -1.734375l5.71875 0l0 1.734375zm14.803162 2.21875l-1.734375 0l0 -2.21875l-4.4687805 0l0 2.65625l1.9844055 0l0 -1.234375l1.734375 0l0 4.171875l-1.734375 0l0 -1.234375l-1.9844055 0l0 2.84375l4.4687805 0l0 -2.171875l1.734375 0l0 3.90625l-9.3906555 0l0 -1.734375l1.484375 0l0 -7.203125l-1.4375 0l0 -1.734375l9.3437805 0l0 3.953125z" fill-rule="nonzero"/><path fill="#d9d2e9" d="m448.04587 28.653543l82.48819 0l0 23.999998l-82.48819 0z" fill-rule="evenodd"/><path stroke="#000000" stroke-width="2.0" stroke-linejoin="round" stroke-linecap="butt" d="m448.04587 28.653543l82.48819 0l0 23.999998l-82.48819 0z" fill-rule="evenodd"/><path fill="#000000" d="m493.11496 38.13604l-5.6875 7.703125l4.375 0l0 -2.625l1.71875 0l0 4.359375l-8.40625 0l0 -1.328125l5.609375 -7.609375l-3.828125 0l0 2.359375l-1.703125 0l0 -4.09375l7.921875 0l0 1.234375z" fill-rule="nonzero"/><path fill="#000000" fill-opacity="0.0" d="m601.6231 174.34514c0 16.702469 -51.64563 25.05452 -103.29132 33.404922c-51.64566 8.350388 -103.29132 16.699112 -103.29132 33.39824" fill-rule="evenodd"/><path stroke="#0000ff" stroke-width="2.0" stroke-linejoin="round" stroke-linecap="butt" d="m601.62317 174.34514c0 16.702454 -51.64569 25.054535 -103.29135 33.404922c-25.822845 4.1752014 -51.64566 8.34996 -71.01279 13.568344c-9.683563 2.609192 -17.753204 5.4792633 -23.401947 8.740753c-0.7060852 0.40768433 -1.3743591 0.8214874 -2.0032349 1.2416534l-0.007965088 0.00541687" fill-rule="evenodd"/><path fill="#0000ff" stroke="#0000ff" stroke-width="2.0" stroke-linecap="butt" d="m399.19647 229.41626l-2.4832458 9.334015l7.902069 -5.554077z" fill-rule="evenodd"/><path fill="#d9d9d9" d="m219.56168 6.774278l202.86615 0l0 51.2126l-202.86615 0z" fill-rule="evenodd"/><path stroke="#000000" stroke-width="2.0" stroke-linejoin="round" stroke-linecap="butt" d="m219.56168 6.774278l202.86615 0l0 51.2126l-202.86615 0z" fill-rule="evenodd"/><path fill="#000000" d="m253.20096 19.381777q0 1.765625 -0.71875 3.015625q-0.703125 1.25 -1.84375 1.890625q-1.140625 0.625 -2.359375 0.625q-1.34375 0 -2.484375 -0.65625q-1.140625 -0.65625 -1.8125 -1.90625q-0.671875 -1.25 -0.671875 -2.9375q0 -1.53125 0.625 -2.8125q0.640625 -1.296875 1.765625 -2.03125q1.140625 -0.75 2.578125 -0.75q1.453125 0 2.578125 0.765625q1.125 0.765625 1.734375 2.03125q0.609375 1.265625 0.609375 2.765625zm-4.921875 3.84375q1.0 0 1.71875 -0.546875q0.734375 -0.5625 1.109375 -1.46875q0.390625 -0.90625 0.390625 -1.90625q0 -0.9375 -0.390625 -1.796875q-0.375 -0.875 -1.109375 -1.40625q-0.734375 -0.546875 -1.75 -0.546875q-0.90625 0 -1.640625 0.53125q-0.734375 0.53125 -1.140625 1.40625q-0.40625 0.859375 -0.40625 1.875q0 1.03125 0.390625 1.921875q0.390625 0.890625 1.125 1.421875q0.75 0.515625 1.703125 0.515625zm15.959381 -5.265625l-1.734375 0l0 -2.203125l-4.375 0l0 2.671875l1.984375 0l0 -1.234375l1.71875 0l0 4.171875l-1.71875 0l0 -1.203125l-1.984375 0l0 2.796875l2.28125 0l0 1.734375l-5.40625 0l0 -1.734375l1.40625 0l0 -7.203125l-1.390625 0l0 -1.734375l9.21875 0l0 3.9375zm11.193756 0l-1.734375 0l0 -2.203125l-4.375 0l0 2.671875l1.984375 0l0 -1.234375l1.71875 0l0 4.171875l-1.71875 0l0 -1.203125l-1.984375 0l0 2.796875l2.28125 0l0 1.734375l-5.40625 0l0 -1.734375l1.40625 0l0 -7.203125l-1.390625 0l0 -1.734375l9.21875 0l0 3.9375zm8.615631 -3.71875l0 -0.421875l1.71875 0l0 4.015625l-1.71875 0l0 -1.796875q-1.09375 -0.5 -2.03125 -0.5q-1.015625 0 -1.703125 0.5q-0.671875 0.5 -0.671875 1.1875q0 0.609375 0.390625 0.921875q0.390625 0.296875 0.953125 0.40625q0.5625 0.109375 1.5625 0.203125l0.71875 0.078125q1.34375 0.171875 2.109375 0.875q0.765625 0.6875 0.765625 1.921875q0 0.984375 -0.5625 1.734375q-0.546875 0.75 -1.515625 1.171875q-0.953125 0.40625 -2.15625 0.40625q-0.65625 0 -1.25 -0.15625q-0.59375 -0.15625 -1.34375 -0.515625l0 0.671875l-1.71875 0l0 -3.90625l1.71875 0l0 1.421875q1.265625 0.765625 2.609375 0.765625q1.21875 0 1.875 -0.40625q0.65625 -0.421875 0.65625 -1.1875q0 -0.65625 -0.515625 -0.953125q-0.515625 -0.296875 -1.765625 -0.3125q-2.09375 -0.03125 -3.1875 -0.890625q-1.09375 -0.859375 -1.09375 -2.25q0 -0.875 0.515625 -1.65625q0.515625 -0.796875 1.4375 -1.265625q0.921875 -0.484375 2.109375 -0.484375q1.15625 0 2.09375 0.421875zm13.646881 3.734375l-1.734375 0l0 -2.21875l-4.46875 0l0 2.65625l1.984375 0l0 -1.234375l1.734375 0l0 4.171875l-1.734375 0l0 -1.234375l-1.984375 0l0 2.84375l4.46875 0l0 -2.171875l1.734375 0l0 3.90625l-9.390625 0l0 -1.734375l1.484375 0l0 -7.203125l-1.4375 0l0 -1.734375l9.34375 0l0 3.953125zm11.412506 0.109375l-1.734375 0l0 -2.328125l-2.265625 0l0 7.203125l2.25 0l0 1.734375l-6.234375 0l0 -1.734375l2.234375 0l0 -7.203125l-2.265625 0l0 2.328125l-1.734375 0l0 -4.0625l9.75 0l0 4.0625zm21.434387 -2.328125l-3.015625 0l0 7.203125l3.015625 0l0 1.734375l-7.875 0l0 -1.734375l3.078125 0l0 -7.203125l-3.078125 0l0 -1.734375l7.875 0l0 1.734375zm12.053131 2.203125l-1.734375 0l0 -2.203125l-4.375 0l0 2.671875l1.984375 0l0 -1.234375l1.71875 0l0 4.171875l-1.71875 0l0 -1.203125l-1.984375 0l0 2.796875l2.28125 0l0 1.734375l-5.40625 0l0 -1.734375l1.40625 0l0 -7.203125l-1.390625 0l0 -1.734375l9.21875 0l0 3.9375zm22.481262 0.125l-1.734375 0l0 -2.328125l-2.265625 0l0 7.203125l2.25 0l0 1.734375l-6.234375 0l0 -1.734375l2.234375 0l0 -7.203125l-2.265625 0l0 2.328125l-1.734375 0l0 -4.0625l9.75 0l0 4.0625zm10.412506 -0.921875q0 1.125 -0.640625 1.890625q-0.625 0.765625 -1.84375 1.0625l2.15625 2.84375l1.390625 0l0 1.734375l-2.5 0q-0.421875 -0.953125 -1.125 -1.921875l-1.671875 -2.3125l-1.4375 0l0 2.5l1.375 0l0 1.734375l-4.5625 0l0 -1.734375l1.46875 0l0 -7.203125l-1.390625 0l0 -1.734375l5.328125 0q1.78125 0 2.609375 0.921875q0.84375 0.90625 0.84375 2.21875zm-1.703125 0.015625q0 -0.71875 -0.40625 -1.0625q-0.40625 -0.359375 -1.171875 -0.359375l-2.390625 0l0 2.96875l1.796875 0q1.09375 0 1.625 -0.375q0.546875 -0.390625 0.546875 -1.171875zm8.443756 -1.421875l-1.71875 0l0 5.34375q0 1.109375 0.53125 1.59375q0.53125 0.484375 1.65625 0.484375q1.25 0 1.765625 -0.546875q0.515625 -0.546875 0.515625 -1.859375l0 -5.015625l-1.75 0l0 -1.734375l4.890625 0l0 1.734375l-1.421875 0l0 5.40625q0 0.921875 -0.28125 1.671875q-0.28125 0.734375 -0.796875 1.1875q-0.515625 0.453125 -1.359375 0.671875q-0.828125 0.21875 -1.546875 0.21875q-1.0625 0 -1.78125 -0.25q-0.703125 -0.25 -1.21875 -0.765625q-0.921875 -0.859375 -0.921875 -2.9375l0 -5.203125l-1.453125 0l0 -1.734375l4.890625 0l0 1.734375zm16.209381 2.21875l-1.734375 0l0 -2.21875l-4.46875 0l0 2.65625l1.984375 0l0 -1.234375l1.734375 0l0 4.171875l-1.734375 0l0 -1.234375l-1.984375 0l0 2.84375l4.46875 0l0 -2.171875l1.734375 0l0 3.90625l-9.390625 0l0 -1.734375l1.484375 0l0 -7.203125l-1.4375 0l0 -1.734375l9.34375 0l0 3.953125z" fill-rule="nonzero"/><path fill="#d9d2e9" d="m224.64568 29.188976l47.936996 0l0 24.0l-47.936996 0z" fill-rule="evenodd"/><path stroke="#000000" stroke-width="2.0" stroke-linejoin="round" stroke-linecap="butt" d="m224.64568 29.188976l47.936996 0l0 24.0l-47.936996 0z" fill-rule="evenodd"/><path fill="#000000" d="m253.09541 46.3746l1.046875 0l0 1.734375l-4.359375 0l0 -1.734375l1.5625 0l-0.546875 -1.265625l-4.328125 0l-0.546875 1.265625l1.609375 0l0 1.734375l-4.4375 0l0 -1.734375l1.09375 0l3.046875 -7.203125l-2.296875 0l0 -1.734375l4.5 0l3.65625 8.9375zm-2.984375 -3.0l-1.453125 -3.453125l-1.46875 3.453125l2.921875 0z" fill-rule="nonzero"/><path fill="#d9d2e9" d="m272.5931 29.188976l47.93701 0l0 24.0l-47.93701 0z" fill-rule="evenodd"/><path stroke="#000000" stroke-width="2.0" stroke-linejoin="round" stroke-linecap="butt" d="m272.5931 29.188976l47.93701 0l0 24.0l-47.93701 0z" fill-rule="evenodd"/><path fill="#000000" d="m300.68347 40.34335q0 0.640625 -0.28125 1.203125q-0.265625 0.5625 -0.78125 0.96875q0.984375 0.5625 1.34375 1.1875q0.359375 0.625 0.359375 1.390625q0 0.875 -0.46875 1.5625q-0.453125 0.6875 -1.234375 1.078125q-0.78125 0.375 -1.765625 0.375l-6.21875 0l0 -1.734375l1.453125 0l0 -7.203125l-1.453125 0l0 -1.734375l5.5 0q1.609375 0 2.578125 0.8125q0.96875 0.8125 0.96875 2.09375zm-1.703125 0.0625q0 -0.546875 -0.453125 -0.890625q-0.453125 -0.34375 -1.1875 -0.34375l-2.53125 0l0 2.5625l2.421875 0q0.71875 0 1.234375 -0.34375q0.515625 -0.359375 0.515625 -0.984375zm0.625 4.5625q0 -0.734375 -0.65625 -1.109375q-0.65625 -0.390625 -1.890625 -0.390625l-2.25 0l0 2.90625l3.09375 0q0.671875 0 1.1875 -0.375q0.515625 -0.375 0.515625 -1.03125z" fill-rule="nonzero"/><path fill="#d9d2e9" d="m320.54053 29.188976l47.93701 0l0 24.0l-47.93701 0z" fill-rule="evenodd"/><path stroke="#000000" stroke-width="2.0" stroke-linejoin="round" stroke-linecap="butt" d="m320.54053 29.188976l47.93701 0l0 24.0l-47.93701 0z" fill-rule="evenodd"/><path fill="#000000" d="m347.72467 38.015224l0 -0.78125l1.703125 0l0 4.34375l-1.703125 0l0 -1.765625q-1.390625 -0.875 -2.734375 -0.875q-0.890625 0 -1.671875 0.453125q-0.765625 0.453125 -1.234375 1.3125q-0.46875 0.859375 -0.46875 2.03125q0 1.75 0.90625 2.8125q0.90625 1.0625 2.515625 1.0625q0.796875 0 1.671875 -0.296875q0.890625 -0.3125 1.734375 -0.90625l1.046875 1.265625q-0.796875 0.75 -2.125 1.203125q-1.328125 0.453125 -2.296875 0.453125q-2.390625 0 -3.859375 -1.71875q-0.625 -0.703125 -0.984375 -1.796875q-0.34375 -1.09375 -0.34375 -2.09375q0 -1.5625 0.671875 -2.8125q0.671875 -1.25 1.828125 -1.953125q1.15625 -0.71875 2.59375 -0.71875q0.78125 0 1.5 0.21875q0.734375 0.203125 1.25 0.5625z" fill-rule="nonzero"/><path fill="#d9d2e9" d="m368.48798 29.188976l47.93701 0l0 24.0l-47.93701 0z" fill-rule="evenodd"/><path stroke="#000000" stroke-width="2.0" stroke-linejoin="round" stroke-linecap="butt" d="m368.48798 29.188976l47.93701 0l0 24.0l-47.93701 0z" fill-rule="evenodd"/><path fill="#000000" d="m397.3596 42.5621q0 2.75 -1.34375 4.15625q-1.34375 1.390625 -3.78125 1.390625l-4.890625 0l0 -1.734375l1.46875 0l0 -7.203125l-1.46875 0l0 -1.734375l5.375 0q1.484375 0 2.53125 0.671875q1.046875 0.65625 1.578125 1.8125q0.53125 1.15625 0.53125 2.640625zm-1.71875 0.078125q0 -1.65625 -0.78125 -2.5625q-0.78125 -0.90625 -2.140625 -0.90625l-2.1875 0l0 7.203125l2.0625 0q1.265625 0 2.15625 -0.875q0.890625 -0.875 0.890625 -2.859375z" fill-rule="nonzero"/><path fill="#d9d9d9" d="m378.3281 148.20866l31.561737 0l0 23.038315l-15.780884 5.7595825l-15.780853 -5.7595825z" fill-rule="evenodd"/><path stroke="#000000" stroke-width="2.0" stroke-linejoin="round" stroke-linecap="butt" d="m378.3281 148.20866l31.561737 0l0 23.038315l-15.780884 5.7595825l-15.780853 -5.7595825z" fill-rule="evenodd"/><path fill="#000000" d="m387.6933 156.79094l-1.875 0l0 8.6875l1.875 0l0 1.484375l-3.359375 0l0 -11.65625l3.359375 0l0 1.484375zm16.231293 10.171875l-3.40625 0l0 -1.484375l1.90625 0l0 -8.6875l-1.90625 0l0 -1.484375l3.40625 0l0 11.65625z" fill-rule="nonzero"/><path fill="#000000" fill-opacity="0.0" d="m392.45648 53.188976c0 23.754955 0.40942383 35.631954 0.8188782 47.509914c0.40945435 11.877953 0.8189087 23.756851 0.8189087 47.51371" fill-rule="evenodd"/><path stroke="#ff0000" stroke-width="2.0" stroke-linejoin="round" stroke-linecap="butt" d="m392.45648 53.188976c0 23.754955 0.40945435 35.63196 0.8189087 47.509914c0.20471191 5.93898 0.40945435 11.878189 0.5629883 19.302269c0.07678223 3.7120361 0.14074707 7.795288 0.18551636 12.435333c0.011199951 1.1600189 0.021209717 2.354828 0.029907227 3.5873413l0.0010681152 0.18882751" fill-rule="evenodd"/><path fill="#ff0000" stroke="#ff0000" stroke-width="2.0" stroke-linecap="butt" d="m390.75143 136.22351l3.333252 9.065292l3.2736511 -9.08699z" fill-rule="evenodd"/><path fill="#d9d9d9" d="m330.46457 147.94751l31.561737 0l0 23.038315l-15.780884 5.7595825l-15.780853 -5.7595825z" fill-rule="evenodd"/><path stroke="#000000" stroke-width="2.0" stroke-linejoin="round" stroke-linecap="butt" d="m330.46457 147.94751l31.561737 0l0 23.038315l-15.780884 5.7595825l-15.780853 -5.7595825z" fill-rule="evenodd"/><path fill="#000000" d="m339.82977 156.52979l-1.875 0l0 8.6875l1.875 0l0 1.484375l-3.359375 0l0 -11.65625l3.359375 0l0 1.484375zm16.231293 10.171875l-3.40625 0l0 -1.484375l1.90625 0l0 -8.6875l-1.90625 0l0 -1.484375l3.40625 0l0 11.65625z" fill-rule="nonzero"/><path fill="#d9d9d9" d="m282.1614 147.94751l31.561737 0l0 23.038315l-15.780853 5.7595825l-15.780884 -5.7595825z" fill-rule="evenodd"/><path stroke="#000000" stroke-width="2.0" stroke-linejoin="round" stroke-linecap="butt" d="m282.1614 147.94751l31.561737 0l0 23.038315l-15.780853 5.7595825l-15.780884 -5.7595825z" fill-rule="evenodd"/><path fill="#000000" d="m291.52664 156.52979l-1.875 0l0 8.6875l1.875 0l0 1.484375l-3.359375 0l0 -11.65625l3.359375 0l0 1.484375zm16.231293 10.171875l-3.40625 0l0 -1.484375l1.90625 0l0 -8.6875l-1.90625 0l0 -1.484375l3.40625 0l0 11.65625z" fill-rule="nonzero"/><path fill="#d9d9d9" d="m234.29527 147.94751l31.561752 0l0 23.038315l-15.780884 5.7595825l-15.780869 -5.7595825z" fill-rule="evenodd"/><path stroke="#000000" stroke-width="2.0" stroke-linejoin="round" stroke-linecap="butt" d="m234.29527 147.94751l31.561752 0l0 23.038315l-15.780884 5.7595825l-15.780869 -5.7595825z" fill-rule="evenodd"/><path fill="#000000" d="m243.66049 156.52979l-1.875 0l0 8.6875l1.875 0l0 1.484375l-3.359375 0l0 -11.65625l3.359375 0l0 1.484375zm16.231293 10.171875l-3.40625 0l0 -1.484375l1.90625 0l0 -8.6875l-1.90625 0l0 -1.484375l3.40625 0l0 11.65625z" fill-rule="nonzero"/><path fill="#000000" fill-opacity="0.0" d="m248.61417 53.188976c0 23.689594 0.36221313 35.532734 0.724411 47.379192c0.36221313 11.846458 0.724411 23.696228 0.724411 47.392464" fill-rule="evenodd"/><path stroke="#ff0000" stroke-width="2.0" stroke-linejoin="round" stroke-linecap="butt" d="m248.61417 53.188976c0 23.689594 0.36221313 35.532734 0.724411 47.379192c0.18110657 5.923233 0.36221313 11.84729 0.49803162 19.252563c0.06791687 3.7026443 0.12451172 7.7755814 0.16412354 12.403877c0.009902954 1.1570892 0.018753052 2.348877 0.026443481 3.578247l8.087158E-4 0.15782166" fill-rule="evenodd"/><path fill="#ff0000" stroke="#ff0000" stroke-width="2.0" stroke-linecap="butt" d="m246.72453 135.97032l3.3299255 9.066513l3.2769775 -9.085785z" fill-rule="evenodd"/><path fill="#000000" fill-opacity="0.0" d="m296.5616 53.188976c0 23.689594 0.34643555 35.532734 0.6929016 47.379192c0.34646606 11.846458 0.6929016 23.696228 0.6929016 47.392464" fill-rule="evenodd"/><path stroke="#ff0000" stroke-width="2.0" stroke-linejoin="round" stroke-linecap="butt" d="m296.56158 53.188976c0 23.689594 0.34646606 35.532734 0.6929321 47.379192c0.17321777 5.923233 0.34646606 11.84729 0.4763794 19.252563c0.064941406 3.7026443 0.11907959 7.7755814 0.15698242 12.403877c0.009460449 1.1570892 0.017913818 2.348877 0.025268555 3.578247l7.9345703E-4 0.15782166" fill-rule="evenodd"/><path fill="#ff0000" stroke="#ff0000" stroke-width="2.0" stroke-linecap="butt" d="m294.6105 135.9699l3.3287659 9.06694l3.2781372 -9.085373z" fill-rule="evenodd"/><path fill="#000000" fill-opacity="0.0" d="m344.50903 53.188976c0 23.689594 0.43307495 35.532734 0.8661499 47.379192c0.43307495 11.846458 0.8661499 23.696228 0.8661499 47.392464" fill-rule="evenodd"/><path stroke="#ff0000" stroke-width="2.0" stroke-linejoin="round" stroke-linecap="butt" d="m344.50903 53.188976c0 23.689594 0.43307495 35.532734 0.8661194 47.379192c0.21655273 5.923233 0.43307495 11.84729 0.5954895 19.252563c0.081207275 3.7026443 0.14886475 7.7755814 0.19622803 12.403877c0.01184082 1.1570892 0.02243042 2.348877 0.03161621 3.578247l9.765625E-4 0.15785217" fill-rule="evenodd"/><path fill="#ff0000" stroke="#ff0000" stroke-width="2.0" stroke-linecap="butt" d="m342.896 135.97223l3.3351135 9.064621l3.2717896 -9.087662z" fill-rule="evenodd"/><path fill="#000000" fill-opacity="0.0" d="m553.6757 174.34514c0 16.702469 -51.64569 25.05452 -103.29135 33.404922c-51.64566 8.350388 -103.29135 16.699112 -103.29135 33.39824" fill-rule="evenodd"/><path stroke="#0000ff" stroke-width="2.0" stroke-linejoin="round" stroke-linecap="butt" d="m553.67566 174.34514c0 16.702454 -51.64563 25.054535 -103.29132 33.404922c-25.822815 4.1752014 -51.64566 8.34996 -71.01279 13.568344c-9.683563 2.609192 -17.753204 5.4792633 -23.401947 8.740753c-0.7060852 0.40768433 -1.3743286 0.8214874 -2.0032349 1.2416534l-0.007965088 0.00541687" fill-rule="evenodd"/><path fill="#0000ff" stroke="#0000ff" stroke-width="2.0" stroke-linecap="butt" d="m351.24902 229.41626l-2.4832458 9.334015l7.9020386 -5.554077z" fill-rule="evenodd"/><path fill="#000000" fill-opacity="0.0" d="m505.72827 174.34514c0 16.702469 -51.64566 25.05452 -103.29135 33.404922c-51.64566 8.350388 -103.29132 16.699112 -103.29132 33.39824" fill-rule="evenodd"/><path stroke="#0000ff" stroke-width="2.0" stroke-linejoin="round" stroke-linecap="butt" d="m505.72827 174.34514c0 16.702454 -51.64569 25.054535 -103.29135 33.404922c-25.822815 4.1752014 -51.64566 8.34996 -71.01279 13.568344c-9.683563 2.609192 -17.753204 5.4792633 -23.401947 8.740753c-0.7060852 0.40768433 -1.3743591 0.8214874 -2.0032043 1.2416534l-0.0079956055 0.00541687" fill-rule="evenodd"/><path fill="#0000ff" stroke="#0000ff" stroke-width="2.0" stroke-linecap="butt" d="m303.30157 229.41626l-2.4832153 9.334015l7.9020386 -5.554077z" fill-rule="evenodd"/><path fill="#000000" fill-opacity="0.0" d="m457.78085 174.34514c0 16.702469 -51.64569 25.05452 -103.29135 33.404922c-51.64566 8.350388 -103.291336 16.699112 -103.291336 33.39824" fill-rule="evenodd"/><path stroke="#0000ff" stroke-width="2.0" stroke-linejoin="round" stroke-linecap="butt" d="m457.78085 174.34514c0 16.702454 -51.64569 25.054535 -103.29135 33.404922c-25.822845 4.1752014 -51.64566 8.34996 -71.01279 13.568344c-9.683563 2.609192 -17.753204 5.4792633 -23.401947 8.740753c-0.7061157 0.40768433 -1.3743591 0.8214874 -2.0032349 1.2416534l-0.007965088 0.00541687" fill-rule="evenodd"/><path fill="#0000ff" stroke="#0000ff" stroke-width="2.0" stroke-linecap="butt" d="m255.35417 229.41626l-2.4832458 9.334015l7.902054 -5.554077z" fill-rule="evenodd"/><path fill="#000000" fill-opacity="0.0" d="m250.07614 176.7454l1.1338654 64.409454" fill-rule="evenodd"/><path stroke="#000000" stroke-width="1.0" stroke-linejoin="round" stroke-linecap="butt" d="m250.07614 176.7454l1.028244 58.41037" fill-rule="evenodd"/><path fill="#000000" stroke="#000000" stroke-width="1.0" stroke-linecap="butt" d="m249.45291 235.18486l1.7313538 4.508316l1.5715942 -4.5664673z" fill-rule="evenodd"/><path fill="#000000" fill-opacity="0.0" d="m297.9423 176.7454l1.2283325 64.409454" fill-rule="evenodd"/><path stroke="#000000" stroke-width="1.0" stroke-linejoin="round" stroke-linecap="butt" d="m297.9423 176.7454l1.1139221 58.410538" fill-rule="evenodd"/><path fill="#000000" stroke="#000000" stroke-width="1.0" stroke-linecap="butt" d="m297.4048 235.18744l1.7379761 4.505783l1.5648804 -4.5687714z" fill-rule="evenodd"/><path fill="#000000" fill-opacity="0.0" d="m346.24542 176.7454l0.85040283 64.409454" fill-rule="evenodd"/><path stroke="#000000" stroke-width="1.0" stroke-linejoin="round" stroke-linecap="butt" d="m346.24545 176.7454l0.7712097 58.40999" fill-rule="evenodd"/><path fill="#000000" stroke="#000000" stroke-width="1.0" stroke-linecap="butt" d="m345.36505 235.17719l1.7114868 4.5158997l1.5916748 -4.5595093z" fill-rule="evenodd"/><path fill="#000000" fill-opacity="0.0" d="m394.10895 177.00656l0.94488525 64.157486" fill-rule="evenodd"/><path stroke="#000000" stroke-width="1.0" stroke-linejoin="round" stroke-linecap="butt" d="m394.10898 177.00656l0.85653687 58.158142" fill-rule="evenodd"/><path fill="#000000" stroke="#000000" stroke-width="1.0" stroke-linecap="butt" d="m393.31393 235.18901l1.7183838 4.5132904l1.5847168 -4.5619354z" fill-rule="evenodd"/><path fill="#d9d9d9" d="m12.425197 113.85292l202.86613 0l0 62.740158l-202.86613 0z" fill-rule="evenodd"/><path stroke="#000000" stroke-width="2.0" stroke-linejoin="round" stroke-linecap="butt" d="m12.425197 113.85292l202.86613 0l0 62.740158l-202.86613 0z" fill-rule="evenodd"/><path fill="#000000" d="m72.29886 121.67917l0 -0.78125l1.703125 0l0 4.34375l-1.703125 0l0 -1.765625q-1.390625 -0.875 -2.734375 -0.875q-0.890625 0 -1.671875 0.453125q-0.765625 0.453125 -1.234375 1.3125q-0.46875 0.859375 -0.46875 2.03125q0 1.75 0.90625 2.8125q0.90625 1.0625 2.515625 1.0625q0.796875 0 1.671875 -0.296875q0.890625 -0.3125 1.734375 -0.90625l1.046875 1.265625q-0.796875 0.75 -2.125 1.203125q-1.328125 0.453125 -2.296875 0.453125q-2.390625 0 -3.859375 -1.71875q-0.625 -0.703125 -0.984375 -1.796875q-0.34375 -1.09375 -0.34375 -2.09375q0 -1.5625 0.671875 -2.8125q0.671875 -1.25 1.828125 -1.953125q1.15625 -0.71875 2.59375 -0.71875q0.78125 0 1.5 0.21875q0.734375 0.203125 1.25 0.5625zm12.943756 4.78125q0 1.765625 -0.71875 3.015625q-0.703125 1.25 -1.84375 1.890625q-1.140625 0.625 -2.359375 0.625q-1.34375 0 -2.484375 -0.65625q-1.140625 -0.65625 -1.8125 -1.90625q-0.671875 -1.25 -0.671875 -2.9375q0 -1.53125 0.625 -2.8125q0.640625 -1.296875 1.765625 -2.03125q1.140625 -0.75 2.578125 -0.75q1.453125 0 2.578125 0.765625q1.125 0.765625 1.734375 2.03125q0.609375 1.265625 0.609375 2.765625zm-4.921875 3.84375q1.0 0 1.71875 -0.546875q0.734375 -0.5625 1.109375 -1.46875q0.390625 -0.90625 0.390625 -1.90625q0 -0.9375 -0.390625 -1.796875q-0.375 -0.875 -1.109375 -1.40625q-0.734375 -0.546875 -1.75 -0.546875q-0.90625 0 -1.640625 0.53125q-0.734375 0.53125 -1.140625 1.40625q-0.40625 0.859375 -0.40625 1.875q0 1.03125 0.390625 1.921875q0.390625 0.890625 1.125 1.421875q0.75 0.515625 1.703125 0.515625zm13.693756 -1.796875l0 -5.671875l-1.734375 0l0 -1.734375l4.875 0l0 1.734375l-1.4375 0l0 8.9375l-1.640625 0l-4.8125 -7.609375l0 5.875l1.8125 0l0 1.734375l-4.9375 0l0 -1.734375l1.40625 0l0 -7.203125l-1.40625 0l0 -1.734375l3.328125 0l4.546875 7.40625zm13.553131 -2.28125q0 2.75 -1.34375 4.15625q-1.34375 1.390625 -3.78125 1.390625l-4.890625 0l0 -1.734375l1.46875 0l0 -7.203125l-1.46875 0l0 -1.734375l5.375 0q1.484375 0 2.53125 0.671875q1.046875 0.65625 1.578125 1.8125q0.53125 1.15625 0.53125 2.640625zm-1.71875 0.078125q0 -1.65625 -0.78125 -2.5625q-0.78125 -0.90625 -2.140625 -0.90625l-2.1875 0l0 7.203125l2.0625 0q1.265625 0 2.15625 -0.875q0.890625 -0.875 0.890625 -2.859375zm11.959381 -3.46875l-3.015625 0l0 7.203125l3.015625 0l0 1.734375l-7.875 0l0 -1.734375l3.078125 0l0 -7.203125l-3.078125 0l0 -1.734375l7.875 0l0 1.734375zm12.146881 2.328125l-1.734375 0l0 -2.328125l-2.265625 0l0 7.203125l2.25 0l0 1.734375l-6.234375 0l0 -1.734375l2.234375 0l0 -7.203125l-2.265625 0l0 2.328125l-1.734375 0l0 -4.0625l9.75 0l0 4.0625zm10.240631 -2.328125l-3.015625 0l0 7.203125l3.015625 0l0 1.734375l-7.875 0l0 -1.734375l3.078125 0l0 -7.203125l-3.078125 0l0 -1.734375l7.875 0l0 1.734375zm12.209381 3.625q0 1.765625 -0.71875 3.015625q-0.703125 1.25 -1.84375 1.890625q-1.140625 0.625 -2.359375 0.625q-1.34375 0 -2.484375 -0.65625q-1.140625 -0.65625 -1.8125 -1.90625q-0.671875 -1.25 -0.671875 -2.9375q0 -1.53125 0.625 -2.8125q0.640625 -1.296875 1.765625 -2.03125q1.140625 -0.75 2.578125 -0.75q1.453125 0 2.578125 0.765625q1.125 0.765625 1.734375 2.03125q0.609375 1.265625 0.609375 2.765625zm-4.921875 3.84375q1.0 0 1.71875 -0.546875q0.734375 -0.5625 1.109375 -1.46875q0.390625 -0.90625 0.390625 -1.90625q0 -0.9375 -0.390625 -1.796875q-0.375 -0.875 -1.109375 -1.40625q-0.734375 -0.546875 -1.75 -0.546875q-0.90625 0 -1.640625 0.53125q-0.734375 0.53125 -1.140625 1.40625q-0.40625 0.859375 -0.40625 1.875q0 1.03125 0.390625 1.921875q0.390625 0.890625 1.125 1.421875q0.75 0.515625 1.703125 0.515625zm13.693756 -1.796875l0 -5.671875l-1.734375 0l0 -1.734375l4.875 0l0 1.734375l-1.4375 0l0 8.9375l-1.640625 0l-4.8125 -7.609375l0 5.875l1.8125 0l0 1.734375l-4.9375 0l0 -1.734375l1.40625 0l0 -7.203125l-1.40625 0l0 -1.734375l3.328125 0l4.546875 7.40625z" fill-rule="nonzero"/><path fill="#d9d2e9" d="m17.795275 137.94357l191.77953 0l0 38.64566l-191.77953 0z" fill-rule="evenodd"/><path stroke="#000000" stroke-width="2.0" stroke-linejoin="round" stroke-linecap="butt" d="m17.795275 137.94357l191.77953 0l0 38.64566l-191.77953 0z" fill-rule="evenodd"/><path fill="#000000" d="m97.06315 150.5042l2.015625 -5.3125l3.640625 0l0 1.734375l-1.453125 0l0.25 7.203125l1.0 0l0 1.734375l-4.453125 0l0 -1.734375l1.734375 0l-0.265625 -5.890625l-1.96875 5.25l-1.109375 0l-1.890625 -5.296875l-0.296875 5.9375l1.765625 0l0 1.734375l-4.53125 0l0 -1.734375l1.03125 0l0.296875 -7.203125l-1.40625 0l0 -1.734375l3.71875 0l1.921875 5.3125zm15.506256 3.625l1.046875 0l0 1.734375l-4.359375 0l0 -1.734375l1.5625 0l-0.546875 -1.265625l-4.328125 0l-0.546875 1.265625l1.609375 0l0 1.734375l-4.4375 0l0 -1.734375l1.09375 0l3.046875 -7.203125l-2.296875 0l0 -1.734375l4.5 0l3.65625 8.9375zm-2.984375 -3.0l-1.453125 -3.453125l-1.46875 3.453125l2.921875 0zm11.928131 -5.71875l0 -0.421875l1.71875 0l0 4.015625l-1.71875 0l0 -1.796875q-1.09375 -0.5 -2.03125 -0.5q-1.015625 0 -1.703125 0.5q-0.671875 0.5 -0.671875 1.1875q0 0.609375 0.390625 0.921875q0.390625 0.296875 0.953125 0.40625q0.5625 0.109375 1.5625 0.203125l0.71875 0.078125q1.34375 0.171875 2.109375 0.875q0.765625 0.6875 0.765625 1.921875q0 0.984375 -0.5625 1.734375q-0.546875 0.75 -1.515625 1.171875q-0.953125 0.40625 -2.15625 0.40625q-0.65625 0 -1.25 -0.15625q-0.59375 -0.15625 -1.34375 -0.515625l0 0.671875l-1.71875 0l0 -3.90625l1.71875 0l0 1.421875q1.265625 0.765625 2.609375 0.765625q1.21875 0 1.875 -0.40625q0.65625 -0.421875 0.65625 -1.1875q0 -0.65625 -0.515625 -0.953125q-0.515625 -0.296875 -1.765625 -0.3125q-2.09375 -0.03125 -3.1875 -0.890625q-1.09375 -0.859375 -1.09375 -2.25q0 -0.875 0.515625 -1.65625q0.515625 -0.796875 1.4375 -1.265625q0.921875 -0.484375 2.109375 -0.484375q1.15625 0 2.09375 0.421875zm8.568764 1.515625l-1.453125 0l0 2.890625l3.0 -2.890625l-0.765625 0l0 -1.734375l4.265625 0l0 1.734375l-1.203125 0l-3.09375 3.0q1.71875 2.0 2.890625 4.203125l1.890625 0l0 1.734375l-2.828125 0q-0.578125 -1.21875 -1.421875 -2.53125q-0.828125 -1.3125 -1.6875 -2.296875l-1.046875 1.0l0 2.09375l1.453125 0l0 1.734375l-4.6406326 0l0 -1.734375l1.46875 0l0 -7.203125l-1.46875 0l0 -1.734375l4.6406326 0l0 1.734375z" fill-rule="nonzero"/><path fill="#d9d2e9" d="m18.077427 157.65749l47.937008 0l0 19.212585l-47.937008 0z" fill-rule="evenodd"/><path stroke="#000000" stroke-width="1.0" stroke-linejoin="round" stroke-linecap="butt" d="m18.077427 157.65749l47.937008 0l0 19.212585l-47.937008 0z" fill-rule="evenodd"/><path fill="#000000" d="m24.236544 166.88004q0 0.59375 -0.40625 1.0q-0.40625 0.40625 -1.203125 0.609375l0 0.5625l-0.859375 0l0 -1.1875q0.890625 -0.140625 1.25 -0.359375q0.359375 -0.21875 0.359375 -0.625q0 -0.34375 -0.28125 -0.53125q-0.28125 -0.1875 -0.78125 -0.1875q-0.234375 0 -0.765625 0.078125l0 0.625l-0.859375 0l0 -1.25q0.359375 -0.140625 0.8125 -0.21875q0.453125 -0.09375 0.828125 -0.09375q0.84375 0 1.375 0.4375q0.53125 0.421875 0.53125 1.140625zm-1.1875 3.265625q0 0.296875 -0.21875 0.5q-0.21875 0.203125 -0.625 0.203125q-0.375 0 -0.625 -0.1875q-0.234375 -0.203125 -0.234375 -0.515625q0 -0.296875 0.234375 -0.5q0.25 -0.21875 0.609375 -0.21875q0.390625 0 0.625 0.21875q0.234375 0.21875 0.234375 0.5zm6.784378 -3.265625q0 0.59375 -0.40625 1.0q-0.40625 0.40625 -1.203125 0.609375l0 0.5625l-0.859375 0l0 -1.1875q0.890625 -0.140625 1.25 -0.359375q0.359375 -0.21875 0.359375 -0.625q0 -0.34375 -0.28125 -0.53125q-0.28125 -0.1875 -0.78125 -0.1875q-0.234375 0 -0.765625 0.078125l0 0.625l-0.859375 0l0 -1.25q0.359375 -0.140625 0.8125 -0.21875q0.453125 -0.09375 0.828125 -0.09375q0.84375 0 1.375 0.4375q0.53125 0.421875 0.53125 1.140625zm-1.1875 3.265625q0 0.296875 -0.21875 0.5q-0.21875 0.203125 -0.625 0.203125q-0.375 0 -0.625 -0.1875q-0.234375 -0.203125 -0.234375 -0.515625q0 -0.296875 0.234375 -0.5q0.25 -0.21875 0.609375 -0.21875q0.390625 0 0.625 0.21875q0.234375 0.21875 0.234375 0.5zm6.78438 -3.265625q0 0.59375 -0.40625 1.0q-0.40625 0.40625 -1.203125 0.609375l0 0.5625l-0.859375 0l0 -1.1875q0.890625 -0.140625 1.25 -0.359375q0.359375 -0.21875 0.359375 -0.625q0 -0.34375 -0.28125 -0.53125q-0.28125 -0.1875 -0.78125 -0.1875q-0.234375 0 -0.765625 0.078125l0 0.625l-0.8593769 0l0 -1.25q0.3593769 -0.140625 0.8125019 -0.21875q0.453125 -0.09375 0.828125 -0.09375q0.84375 0 1.375 0.4375q0.53125 0.421875 0.53125 1.140625zm-1.1875 3.265625q0 0.296875 -0.21875 0.5q-0.21875 0.203125 -0.625 0.203125q-0.375 0 -0.625 -0.1875q-0.234375 -0.203125 -0.234375 -0.515625q0 -0.296875 0.234375 -0.5q0.25 -0.21875 0.609375 -0.21875q0.390625 0 0.625 0.21875q0.234375 0.21875 0.234375 0.5zm6.784378 -3.265625q0 0.59375 -0.40625 1.0q-0.40625 0.40625 -1.203125 0.609375l0 0.5625l-0.859375 0l0 -1.1875q0.890625 -0.140625 1.25 -0.359375q0.359375 -0.21875 0.359375 -0.625q0 -0.34375 -0.28125 -0.53125q-0.28125 -0.1875 -0.78125 -0.1875q-0.234375 0 -0.765625 0.078125l0 0.625l-0.859375 0l0 -1.25q0.359375 -0.140625 0.8125 -0.21875q0.453125 -0.09375 0.828125 -0.09375q0.84375 0 1.375 0.4375q0.53125 0.421875 0.53125 1.140625zm-1.1875 3.265625q0 0.296875 -0.21875 0.5q-0.21875 0.203125 -0.625 0.203125q-0.375 0 -0.625 -0.1875q-0.234375 -0.203125 -0.234375 -0.515625q0 -0.296875 0.234375 -0.5q0.25 -0.21875 0.609375 -0.21875q0.390625 0 0.625 0.21875q0.234375 0.21875 0.234375 0.5zm6.784378 -3.265625q0 0.59375 -0.40625 1.0q-0.40625 0.40625 -1.203125 0.609375l0 0.5625l-0.859375 0l0 -1.1875q0.890625 -0.140625 1.25 -0.359375q0.359375 -0.21875 0.359375 -0.625q0 -0.34375 -0.28125 -0.53125q-0.28125 -0.1875 -0.78125 -0.1875q-0.234375 0 -0.765625 0.078125l0 0.625l-0.859375 0l0 -1.25q0.359375 -0.140625 0.8125 -0.21875q0.453125 -0.09375 0.828125 -0.09375q0.84375 0 1.375 0.4375q0.53125 0.421875 0.53125 1.140625zm-1.1875 3.265625q0 0.296875 -0.21875 0.5q-0.21875 0.203125 -0.625 0.203125q-0.375 0 -0.625 -0.1875q-0.234375 -0.203125 -0.234375 -0.515625q0 -0.296875 0.234375 -0.5q0.25 -0.21875 0.609375 -0.21875q0.390625 0 0.625 0.21875q0.234375 0.21875 0.234375 0.5zm6.784378 -3.265625q0 0.59375 -0.40625 1.0q-0.40625 0.40625 -1.203125 0.609375l0 0.5625l-0.859375 0l0 -1.1875q0.890625 -0.140625 1.25 -0.359375q0.359375 -0.21875 0.359375 -0.625q0 -0.34375 -0.28125 -0.53125q-0.28125 -0.1875 -0.78125 -0.1875q-0.234375 0 -0.765625 0.078125l0 0.625l-0.859375 0l0 -1.25q0.359375 -0.140625 0.8125 -0.21875q0.453125 -0.09375 0.828125 -0.09375q0.84375 0 1.375 0.4375q0.53125 0.421875 0.53125 1.140625zm-1.1875 3.265625q0 0.296875 -0.21875 0.5q-0.21875 0.203125 -0.625 0.203125q-0.375 0 -0.625 -0.1875q-0.234375 -0.203125 -0.234375 -0.515625q0 -0.296875 0.234375 -0.5q0.25 -0.21875 0.609375 -0.21875q0.390625 0 0.625 0.21875q0.234375 0.21875 0.234375 0.5zm6.784378 -3.265625q0 0.59375 -0.40625 1.0q-0.40625 0.40625 -1.203125 0.609375l0 0.5625l-0.859375 0l0 -1.1875q0.890625 -0.140625 1.25 -0.359375q0.359375 -0.21875 0.359375 -0.625q0 -0.34375 -0.28125 -0.53125q-0.28125 -0.1875 -0.78125 -0.1875q-0.234375 0 -0.765625 0.078125l0 0.625l-0.859375 0l0 -1.25q0.359375 -0.140625 0.8125 -0.21875q0.453125 -0.09375 0.828125 -0.09375q0.84375 0 1.375 0.4375q0.53125 0.421875 0.53125 1.140625zm-1.1875 3.265625q0 0.296875 -0.21875 0.5q-0.21875 0.203125 -0.625 0.203125q-0.375 0 -0.625 -0.1875q-0.234375 -0.203125 -0.234375 -0.515625q0 -0.296875 0.234375 -0.5q0.25 -0.21875 0.609375 -0.21875q0.390625 0 0.625 0.21875q0.234375 0.21875 0.234375 0.5zm6.784378 -3.265625q0 0.59375 -0.40625 1.0q-0.40625 0.40625 -1.203125 0.609375l0 0.5625l-0.859375 0l0 -1.1875q0.890625 -0.140625 1.25 -0.359375q0.359375 -0.21875 0.359375 -0.625q0 -0.34375 -0.28125 -0.53125q-0.28125 -0.1875 -0.78125 -0.1875q-0.234375 0 -0.765625 0.078125l0 0.625l-0.859375 0l0 -1.25q0.359375 -0.140625 0.8125 -0.21875q0.453125 -0.09375 0.828125 -0.09375q0.84375 0 1.375 0.4375q0.53125 0.421875 0.53125 1.140625zm-1.1875 3.265625q0 0.296875 -0.21875 0.5q-0.21875 0.203125 -0.625 0.203125q-0.375 0 -0.625 -0.1875q-0.234375 -0.203125 -0.234375 -0.515625q0 -0.296875 0.234375 -0.5q0.25 -0.21875 0.609375 -0.21875q0.390625 0 0.625 0.21875q0.234375 0.21875 0.234375 0.5z" fill-rule="nonzero"/><path fill="#d9d2e9" d="m65.99672 157.65749l47.937004 0l0 19.212585l-47.937004 0z" fill-rule="evenodd"/><path stroke="#000000" stroke-width="1.0" stroke-linejoin="round" stroke-linecap="butt" d="m65.99672 157.65749l47.937004 0l0 19.212585l-47.937004 0z" fill-rule="evenodd"/><path fill="#000000" d="m72.15583 166.88004q0 0.59375 -0.40625 1.0q-0.40625 0.40625 -1.203125 0.609375l0 0.5625l-0.859375 0l0 -1.1875q0.890625 -0.140625 1.25 -0.359375q0.359375 -0.21875 0.359375 -0.625q0 -0.34375 -0.28125 -0.53125q-0.28125 -0.1875 -0.78125 -0.1875q-0.234375 0 -0.765625 0.078125l0 0.625l-0.859375 0l0 -1.25q0.359375 -0.140625 0.8125 -0.21875q0.453125 -0.09375 0.828125 -0.09375q0.84375 0 1.375 0.4375q0.53125 0.421875 0.53125 1.140625zm-1.1875 3.265625q0 0.296875 -0.21875 0.5q-0.21875 0.203125 -0.625 0.203125q-0.375 0 -0.625 -0.1875q-0.234375 -0.203125 -0.234375 -0.515625q0 -0.296875 0.234375 -0.5q0.25 -0.21875 0.609375 -0.21875q0.390625 0 0.625 0.21875q0.234375 0.21875 0.234375 0.5zm6.784378 -3.265625q0 0.59375 -0.40625 1.0q-0.40625 0.40625 -1.203125 0.609375l0 0.5625l-0.859375 0l0 -1.1875q0.890625 -0.140625 1.25 -0.359375q0.359375 -0.21875 0.359375 -0.625q0 -0.34375 -0.28125 -0.53125q-0.28125 -0.1875 -0.78125 -0.1875q-0.234375 0 -0.765625 0.078125l0 0.625l-0.859375 0l0 -1.25q0.359375 -0.140625 0.8125 -0.21875q0.453125 -0.09375 0.828125 -0.09375q0.84375 0 1.375 0.4375q0.53125 0.421875 0.53125 1.140625zm-1.1875 3.265625q0 0.296875 -0.21875 0.5q-0.21875 0.203125 -0.625 0.203125q-0.375 0 -0.625 -0.1875q-0.234375 -0.203125 -0.234375 -0.515625q0 -0.296875 0.234375 -0.5q0.25 -0.21875 0.609375 -0.21875q0.390625 0 0.625 0.21875q0.234375 0.21875 0.234375 0.5zm6.784378 -3.265625q0 0.59375 -0.40625 1.0q-0.40625 0.40625 -1.203125 0.609375l0 0.5625l-0.859375 0l0 -1.1875q0.890625 -0.140625 1.25 -0.359375q0.359375 -0.21875 0.359375 -0.625q0 -0.34375 -0.28125 -0.53125q-0.28125 -0.1875 -0.78125 -0.1875q-0.234375 0 -0.765625 0.078125l0 0.625l-0.859375 0l0 -1.25q0.359375 -0.140625 0.8125 -0.21875q0.453125 -0.09375 0.828125 -0.09375q0.84375 0 1.375 0.4375q0.53125 0.421875 0.53125 1.140625zm-1.1875 3.265625q0 0.296875 -0.21875 0.5q-0.21875 0.203125 -0.625 0.203125q-0.375 0 -0.625 -0.1875q-0.234375 -0.203125 -0.234375 -0.515625q0 -0.296875 0.234375 -0.5q0.25 -0.21875 0.609375 -0.21875q0.390625 0 0.625 0.21875q0.234375 0.21875 0.234375 0.5zm6.784378 -3.265625q0 0.59375 -0.40625 1.0q-0.40625 0.40625 -1.203125 0.609375l0 0.5625l-0.859375 0l0 -1.1875q0.890625 -0.140625 1.25 -0.359375q0.359375 -0.21875 0.359375 -0.625q0 -0.34375 -0.28125 -0.53125q-0.28125 -0.1875 -0.78125 -0.1875q-0.234375 0 -0.765625 0.078125l0 0.625l-0.859375 0l0 -1.25q0.359375 -0.140625 0.8125 -0.21875q0.453125 -0.09375 0.828125 -0.09375q0.84375 0 1.375 0.4375q0.53125 0.421875 0.53125 1.140625zm-1.1875 3.265625q0 0.296875 -0.21875 0.5q-0.21875 0.203125 -0.625 0.203125q-0.375 0 -0.625 -0.1875q-0.234375 -0.203125 -0.234375 -0.515625q0 -0.296875 0.234375 -0.5q0.25 -0.21875 0.609375 -0.21875q0.390625 0 0.625 0.21875q0.234375 0.21875 0.234375 0.5zm6.784378 -3.265625q0 0.59375 -0.40625 1.0q-0.40625 0.40625 -1.203125 0.609375l0 0.5625l-0.859375 0l0 -1.1875q0.890625 -0.140625 1.25 -0.359375q0.359375 -0.21875 0.359375 -0.625q0 -0.34375 -0.28125 -0.53125q-0.28125 -0.1875 -0.78125 -0.1875q-0.234375 0 -0.765625 0.078125l0 0.625l-0.859375 0l0 -1.25q0.359375 -0.140625 0.8125 -0.21875q0.453125 -0.09375 0.828125 -0.09375q0.84375 0 1.375 0.4375q0.53125 0.421875 0.53125 1.140625zm-1.1875 3.265625q0 0.296875 -0.21875 0.5q-0.21875 0.203125 -0.625 0.203125q-0.375 0 -0.625 -0.1875q-0.234375 -0.203125 -0.234375 -0.515625q0 -0.296875 0.234375 -0.5q0.25 -0.21875 0.609375 -0.21875q0.390625 0 0.625 0.21875q0.234375 0.21875 0.234375 0.5zm6.7843857 -3.265625q0 0.59375 -0.40625 1.0q-0.40625 0.40625 -1.203125 0.609375l0 0.5625l-0.8593826 0l0 -1.1875q0.8906326 -0.140625 1.2500076 -0.359375q0.359375 -0.21875 0.359375 -0.625q0 -0.34375 -0.28125 -0.53125q-0.28125 -0.1875 -0.78125 -0.1875q-0.23438263 0 -0.7656326 0.078125l0 0.625l-0.859375 0l0 -1.25q0.359375 -0.140625 0.8125 -0.21875q0.453125 -0.09375 0.8281326 -0.09375q0.84375 0 1.375 0.4375q0.53125 0.421875 0.53125 1.140625zm-1.1875 3.265625q0 0.296875 -0.21875 0.5q-0.21875 0.203125 -0.625 0.203125q-0.37500763 0 -0.6250076 -0.1875q-0.234375 -0.203125 -0.234375 -0.515625q0 -0.296875 0.234375 -0.5q0.25 -0.21875 0.6093826 -0.21875q0.390625 0 0.625 0.21875q0.234375 0.21875 0.234375 0.5zm6.784378 -3.265625q0 0.59375 -0.40625 1.0q-0.40625 0.40625 -1.203125 0.609375l0 0.5625l-0.859375 0l0 -1.1875q0.890625 -0.140625 1.25 -0.359375q0.359375 -0.21875 0.359375 -0.625q0 -0.34375 -0.28125 -0.53125q-0.28125 -0.1875 -0.78125 -0.1875q-0.234375 0 -0.765625 0.078125l0 0.625l-0.859375 0l0 -1.25q0.359375 -0.140625 0.8125 -0.21875q0.453125 -0.09375 0.828125 -0.09375q0.84375 0 1.375 0.4375q0.53125 0.421875 0.53125 1.140625zm-1.1875 3.265625q0 0.296875 -0.21875 0.5q-0.21875 0.203125 -0.625 0.203125q-0.375 0 -0.625 -0.1875q-0.234375 -0.203125 -0.234375 -0.515625q0 -0.296875 0.234375 -0.5q0.25 -0.21875 0.609375 -0.21875q0.390625 0 0.625 0.21875q0.234375 0.21875 0.234375 0.5zm6.784378 -3.265625q0 0.59375 -0.40625 1.0q-0.40625 0.40625 -1.203125 0.609375l0 0.5625l-0.859375 0l0 -1.1875q0.890625 -0.140625 1.25 -0.359375q0.359375 -0.21875 0.359375 -0.625q0 -0.34375 -0.28125 -0.53125q-0.28125 -0.1875 -0.78125 -0.1875q-0.234375 0 -0.765625 0.078125l0 0.625l-0.859375 0l0 -1.25q0.359375 -0.140625 0.8125 -0.21875q0.453125 -0.09375 0.828125 -0.09375q0.84375 0 1.375 0.4375q0.53125 0.421875 0.53125 1.140625zm-1.1875 3.265625q0 0.296875 -0.21875 0.5q-0.21875 0.203125 -0.625 0.203125q-0.375 0 -0.625 -0.1875q-0.234375 -0.203125 -0.234375 -0.515625q0 -0.296875 0.234375 -0.5q0.25 -0.21875 0.609375 -0.21875q0.390625 0 0.625 0.21875q0.234375 0.21875 0.234375 0.5z" fill-rule="nonzero"/><path fill="#d9d2e9" d="m113.989914 157.65749l47.93701 0l0 19.212585l-47.93701 0z" fill-rule="evenodd"/><path stroke="#000000" stroke-width="1.0" stroke-linejoin="round" stroke-linecap="butt" d="m113.989914 157.65749l47.93701 0l0 19.212585l-47.93701 0z" fill-rule="evenodd"/><path fill="#000000" d="m120.149025 166.88004q0 0.59375 -0.40625 1.0q-0.40625 0.40625 -1.203125 0.609375l0 0.5625l-0.859375 0l0 -1.1875q0.890625 -0.140625 1.25 -0.359375q0.359375 -0.21875 0.359375 -0.625q0 -0.34375 -0.28125 -0.53125q-0.28125 -0.1875 -0.78125 -0.1875q-0.234375 0 -0.765625 0.078125l0 0.625l-0.859375 0l0 -1.25q0.359375 -0.140625 0.8125 -0.21875q0.453125 -0.09375 0.828125 -0.09375q0.84375 0 1.375 0.4375q0.53125 0.421875 0.53125 1.140625zm-1.1875 3.265625q0 0.296875 -0.21875 0.5q-0.21875 0.203125 -0.625 0.203125q-0.375 0 -0.625 -0.1875q-0.234375 -0.203125 -0.234375 -0.515625q0 -0.296875 0.234375 -0.5q0.25 -0.21875 0.609375 -0.21875q0.390625 0 0.625 0.21875q0.234375 0.21875 0.234375 0.5zm6.784378 -3.265625q0 0.59375 -0.40625 1.0q-0.40625 0.40625 -1.203125 0.609375l0 0.5625l-0.859375 0l0 -1.1875q0.890625 -0.140625 1.25 -0.359375q0.359375 -0.21875 0.359375 -0.625q0 -0.34375 -0.28125 -0.53125q-0.28125 -0.1875 -0.78125 -0.1875q-0.234375 0 -0.765625 0.078125l0 0.625l-0.859375 0l0 -1.25q0.359375 -0.140625 0.8125 -0.21875q0.453125 -0.09375 0.828125 -0.09375q0.84375 0 1.375 0.4375q0.53125 0.421875 0.53125 1.140625zm-1.1875 3.265625q0 0.296875 -0.21875 0.5q-0.21875 0.203125 -0.625 0.203125q-0.375 0 -0.625 -0.1875q-0.234375 -0.203125 -0.234375 -0.515625q0 -0.296875 0.234375 -0.5q0.25 -0.21875 0.609375 -0.21875q0.390625 0 0.625 0.21875q0.234375 0.21875 0.234375 0.5zm6.7843857 -3.265625q0 0.59375 -0.40625 1.0q-0.40625 0.40625 -1.203125 0.609375l0 0.5625l-0.859375 0l0 -1.1875q0.890625 -0.140625 1.25 -0.359375q0.359375 -0.21875 0.359375 -0.625q0 -0.34375 -0.28125 -0.53125q-0.28125 -0.1875 -0.78125 -0.1875q-0.234375 0 -0.765625 0.078125l0 0.625l-0.8593826 0l0 -1.25q0.35938263 -0.140625 0.8125076 -0.21875q0.453125 -0.09375 0.828125 -0.09375q0.84375 0 1.375 0.4375q0.53125 0.421875 0.53125 1.140625zm-1.1875 3.265625q0 0.296875 -0.21875 0.5q-0.21875 0.203125 -0.625 0.203125q-0.375 0 -0.625 -0.1875q-0.234375 -0.203125 -0.234375 -0.515625q0 -0.296875 0.234375 -0.5q0.25 -0.21875 0.609375 -0.21875q0.390625 0 0.625 0.21875q0.234375 0.21875 0.234375 0.5zm6.784378 -3.265625q0 0.59375 -0.40625 1.0q-0.40625 0.40625 -1.203125 0.609375l0 0.5625l-0.859375 0l0 -1.1875q0.890625 -0.140625 1.25 -0.359375q0.359375 -0.21875 0.359375 -0.625q0 -0.34375 -0.28125 -0.53125q-0.28125 -0.1875 -0.78125 -0.1875q-0.234375 0 -0.765625 0.078125l0 0.625l-0.859375 0l0 -1.25q0.359375 -0.140625 0.8125 -0.21875q0.453125 -0.09375 0.828125 -0.09375q0.84375 0 1.375 0.4375q0.53125 0.421875 0.53125 1.140625zm-1.1875 3.265625q0 0.296875 -0.21875 0.5q-0.21875 0.203125 -0.625 0.203125q-0.375 0 -0.625 -0.1875q-0.234375 -0.203125 -0.234375 -0.515625q0 -0.296875 0.234375 -0.5q0.25 -0.21875 0.609375 -0.21875q0.390625 0 0.625 0.21875q0.234375 0.21875 0.234375 0.5zm6.784378 -3.265625q0 0.59375 -0.40625 1.0q-0.40625 0.40625 -1.203125 0.609375l0 0.5625l-0.859375 0l0 -1.1875q0.890625 -0.140625 1.25 -0.359375q0.359375 -0.21875 0.359375 -0.625q0 -0.34375 -0.28125 -0.53125q-0.28125 -0.1875 -0.78125 -0.1875q-0.234375 0 -0.765625 0.078125l0 0.625l-0.859375 0l0 -1.25q0.359375 -0.140625 0.8125 -0.21875q0.453125 -0.09375 0.828125 -0.09375q0.84375 0 1.375 0.4375q0.53125 0.421875 0.53125 1.140625zm-1.1875 3.265625q0 0.296875 -0.21875 0.5q-0.21875 0.203125 -0.625 0.203125q-0.375 0 -0.625 -0.1875q-0.234375 -0.203125 -0.234375 -0.515625q0 -0.296875 0.234375 -0.5q0.25 -0.21875 0.609375 -0.21875q0.390625 0 0.625 0.21875q0.234375 0.21875 0.234375 0.5zm6.784378 -3.265625q0 0.59375 -0.40625 1.0q-0.40625 0.40625 -1.203125 0.609375l0 0.5625l-0.859375 0l0 -1.1875q0.890625 -0.140625 1.25 -0.359375q0.359375 -0.21875 0.359375 -0.625q0 -0.34375 -0.28125 -0.53125q-0.28125 -0.1875 -0.78125 -0.1875q-0.234375 0 -0.765625 0.078125l0 0.625l-0.859375 0l0 -1.25q0.359375 -0.140625 0.8125 -0.21875q0.453125 -0.09375 0.828125 -0.09375q0.84375 0 1.375 0.4375q0.53125 0.421875 0.53125 1.140625zm-1.1875 3.265625q0 0.296875 -0.21875 0.5q-0.21875 0.203125 -0.625 0.203125q-0.375 0 -0.625 -0.1875q-0.234375 -0.203125 -0.234375 -0.515625q0 -0.296875 0.234375 -0.5q0.25 -0.21875 0.609375 -0.21875q0.390625 0 0.625 0.21875q0.234375 0.21875 0.234375 0.5zm6.784378 -3.265625q0 0.59375 -0.40625 1.0q-0.40625 0.40625 -1.203125 0.609375l0 0.5625l-0.859375 0l0 -1.1875q0.890625 -0.140625 1.25 -0.359375q0.359375 -0.21875 0.359375 -0.625q0 -0.34375 -0.28125 -0.53125q-0.28125 -0.1875 -0.78125 -0.1875q-0.234375 0 -0.765625 0.078125l0 0.625l-0.859375 0l0 -1.25q0.359375 -0.140625 0.8125 -0.21875q0.453125 -0.09375 0.828125 -0.09375q0.84375 0 1.375 0.4375q0.53125 0.421875 0.53125 1.140625zm-1.1875 3.265625q0 0.296875 -0.21875 0.5q-0.21875 0.203125 -0.625 0.203125q-0.375 0 -0.625 -0.1875q-0.234375 -0.203125 -0.234375 -0.515625q0 -0.296875 0.234375 -0.5q0.25 -0.21875 0.609375 -0.21875q0.390625 0 0.625 0.21875q0.234375 0.21875 0.234375 0.5zm6.784378 -3.265625q0 0.59375 -0.40625 1.0q-0.40625 0.40625 -1.203125 0.609375l0 0.5625l-0.859375 0l0 -1.1875q0.890625 -0.140625 1.25 -0.359375q0.359375 -0.21875 0.359375 -0.625q0 -0.34375 -0.28125 -0.53125q-0.28125 -0.1875 -0.78125 -0.1875q-0.234375 0 -0.765625 0.078125l0 0.625l-0.859375 0l0 -1.25q0.359375 -0.140625 0.8125 -0.21875q0.453125 -0.09375 0.828125 -0.09375q0.84375 0 1.375 0.4375q0.53125 0.421875 0.53125 1.140625zm-1.1875 3.265625q0 0.296875 -0.21875 0.5q-0.21875 0.203125 -0.625 0.203125q-0.375 0 -0.625 -0.1875q-0.234375 -0.203125 -0.234375 -0.515625q0 -0.296875 0.234375 -0.5q0.25 -0.21875 0.609375 -0.21875q0.390625 0 0.625 0.21875q0.234375 0.21875 0.234375 0.5z" fill-rule="nonzero"/><path fill="#d9d2e9" d="m161.98466 157.65749l47.93701 0l0 19.212585l-47.93701 0z" fill-rule="evenodd"/><path stroke="#000000" stroke-width="1.0" stroke-linejoin="round" stroke-linecap="butt" d="m161.98466 157.65749l47.93701 0l0 19.212585l-47.93701 0z" fill-rule="evenodd"/><path fill="#000000" d="m168.14378 166.88004q0 0.59375 -0.40625 1.0q-0.40625 0.40625 -1.203125 0.609375l0 0.5625l-0.859375 0l0 -1.1875q0.890625 -0.140625 1.25 -0.359375q0.359375 -0.21875 0.359375 -0.625q0 -0.34375 -0.28125 -0.53125q-0.28125 -0.1875 -0.78125 -0.1875q-0.234375 0 -0.765625 0.078125l0 0.625l-0.859375 0l0 -1.25q0.359375 -0.140625 0.8125 -0.21875q0.453125 -0.09375 0.828125 -0.09375q0.84375 0 1.375 0.4375q0.53125 0.421875 0.53125 1.140625zm-1.1875 3.265625q0 0.296875 -0.21875 0.5q-0.21875 0.203125 -0.625 0.203125q-0.375 0 -0.625 -0.1875q-0.234375 -0.203125 -0.234375 -0.515625q0 -0.296875 0.234375 -0.5q0.25 -0.21875 0.609375 -0.21875q0.390625 0 0.625 0.21875q0.234375 0.21875 0.234375 0.5zm6.784378 -3.265625q0 0.59375 -0.40625 1.0q-0.40625 0.40625 -1.203125 0.609375l0 0.5625l-0.859375 0l0 -1.1875q0.890625 -0.140625 1.25 -0.359375q0.359375 -0.21875 0.359375 -0.625q0 -0.34375 -0.28125 -0.53125q-0.28125 -0.1875 -0.78125 -0.1875q-0.234375 0 -0.765625 0.078125l0 0.625l-0.859375 0l0 -1.25q0.359375 -0.140625 0.8125 -0.21875q0.453125 -0.09375 0.828125 -0.09375q0.84375 0 1.375 0.4375q0.53125 0.421875 0.53125 1.140625zm-1.1875 3.265625q0 0.296875 -0.21875 0.5q-0.21875 0.203125 -0.625 0.203125q-0.375 0 -0.625 -0.1875q-0.234375 -0.203125 -0.234375 -0.515625q0 -0.296875 0.234375 -0.5q0.25 -0.21875 0.609375 -0.21875q0.390625 0 0.625 0.21875q0.234375 0.21875 0.234375 0.5zm6.784378 -3.265625q0 0.59375 -0.40625 1.0q-0.40625 0.40625 -1.203125 0.609375l0 0.5625l-0.859375 0l0 -1.1875q0.890625 -0.140625 1.25 -0.359375q0.359375 -0.21875 0.359375 -0.625q0 -0.34375 -0.28125 -0.53125q-0.28125 -0.1875 -0.78125 -0.1875q-0.234375 0 -0.765625 0.078125l0 0.625l-0.859375 0l0 -1.25q0.359375 -0.140625 0.8125 -0.21875q0.453125 -0.09375 0.828125 -0.09375q0.84375 0 1.375 0.4375q0.53125 0.421875 0.53125 1.140625zm-1.1875 3.265625q0 0.296875 -0.21875 0.5q-0.21875 0.203125 -0.625 0.203125q-0.375 0 -0.625 -0.1875q-0.234375 -0.203125 -0.234375 -0.515625q0 -0.296875 0.234375 -0.5q0.25 -0.21875 0.609375 -0.21875q0.390625 0 0.625 0.21875q0.234375 0.21875 0.234375 0.5zm6.784378 -3.265625q0 0.59375 -0.40625 1.0q-0.40625 0.40625 -1.203125 0.609375l0 0.5625l-0.859375 0l0 -1.1875q0.890625 -0.140625 1.25 -0.359375q0.359375 -0.21875 0.359375 -0.625q0 -0.34375 -0.28125 -0.53125q-0.28125 -0.1875 -0.78125 -0.1875q-0.234375 0 -0.765625 0.078125l0 0.625l-0.859375 0l0 -1.25q0.359375 -0.140625 0.8125 -0.21875q0.453125 -0.09375 0.828125 -0.09375q0.84375 0 1.375 0.4375q0.53125 0.421875 0.53125 1.140625zm-1.1875 3.265625q0 0.296875 -0.21875 0.5q-0.21875 0.203125 -0.625 0.203125q-0.375 0 -0.625 -0.1875q-0.234375 -0.203125 -0.234375 -0.515625q0 -0.296875 0.234375 -0.5q0.25 -0.21875 0.609375 -0.21875q0.390625 0 0.625 0.21875q0.234375 0.21875 0.234375 0.5zm6.784378 -3.265625q0 0.59375 -0.40625 1.0q-0.40625 0.40625 -1.203125 0.609375l0 0.5625l-0.859375 0l0 -1.1875q0.890625 -0.140625 1.25 -0.359375q0.359375 -0.21875 0.359375 -0.625q0 -0.34375 -0.28125 -0.53125q-0.28125 -0.1875 -0.78125 -0.1875q-0.234375 0 -0.765625 0.078125l0 0.625l-0.859375 0l0 -1.25q0.359375 -0.140625 0.8125 -0.21875q0.453125 -0.09375 0.828125 -0.09375q0.84375 0 1.375 0.4375q0.53125 0.421875 0.53125 1.140625zm-1.1875 3.265625q0 0.296875 -0.21875 0.5q-0.21875 0.203125 -0.625 0.203125q-0.375 0 -0.625 -0.1875q-0.234375 -0.203125 -0.234375 -0.515625q0 -0.296875 0.234375 -0.5q0.25 -0.21875 0.609375 -0.21875q0.390625 0 0.625 0.21875q0.234375 0.21875 0.234375 0.5zm6.784378 -3.265625q0 0.59375 -0.40625 1.0q-0.40625 0.40625 -1.203125 0.609375l0 0.5625l-0.859375 0l0 -1.1875q0.890625 -0.140625 1.25 -0.359375q0.359375 -0.21875 0.359375 -0.625q0 -0.34375 -0.28125 -0.53125q-0.28125 -0.1875 -0.78125 -0.1875q-0.234375 0 -0.765625 0.078125l0 0.625l-0.859375 0l0 -1.25q0.359375 -0.140625 0.8125 -0.21875q0.453125 -0.09375 0.828125 -0.09375q0.84375 0 1.375 0.4375q0.53125 0.421875 0.53125 1.140625zm-1.1875 3.265625q0 0.296875 -0.21875 0.5q-0.21875 0.203125 -0.625 0.203125q-0.375 0 -0.625 -0.1875q-0.234375 -0.203125 -0.234375 -0.515625q0 -0.296875 0.234375 -0.5q0.25 -0.21875 0.609375 -0.21875q0.390625 0 0.625 0.21875q0.234375 0.21875 0.234375 0.5zm6.784378 -3.265625q0 0.59375 -0.40625 1.0q-0.40625 0.40625 -1.203125 0.609375l0 0.5625l-0.859375 0l0 -1.1875q0.890625 -0.140625 1.25 -0.359375q0.359375 -0.21875 0.359375 -0.625q0 -0.34375 -0.28125 -0.53125q-0.28125 -0.1875 -0.78125 -0.1875q-0.234375 0 -0.765625 0.078125l0 0.625l-0.859375 0l0 -1.25q0.359375 -0.140625 0.8125 -0.21875q0.453125 -0.09375 0.828125 -0.09375q0.84375 0 1.375 0.4375q0.53125 0.421875 0.53125 1.140625zm-1.1875 3.265625q0 0.296875 -0.21875 0.5q-0.21875 0.203125 -0.625 0.203125q-0.375 0 -0.625 -0.1875q-0.234375 -0.203125 -0.234375 -0.515625q0 -0.296875 0.234375 -0.5q0.25 -0.21875 0.609375 -0.21875q0.390625 0 0.625 0.21875q0.234375 0.21875 0.234375 0.5zm6.784378 -3.265625q0 0.59375 -0.40625 1.0q-0.40625 0.40625 -1.203125 0.609375l0 0.5625l-0.859375 0l0 -1.1875q0.890625 -0.140625 1.25 -0.359375q0.359375 -0.21875 0.359375 -0.625q0 -0.34375 -0.28125 -0.53125q-0.28125 -0.1875 -0.78125 -0.1875q-0.234375 0 -0.765625 0.078125l0 0.625l-0.859375 0l0 -1.25q0.359375 -0.140625 0.8125 -0.21875q0.453125 -0.09375 0.828125 -0.09375q0.84375 0 1.375 0.4375q0.53125 0.421875 0.53125 1.140625zm-1.1875 3.265625q0 0.296875 -0.21875 0.5q-0.21875 0.203125 -0.625 0.203125q-0.375 0 -0.625 -0.1875q-0.234375 -0.203125 -0.234375 -0.515625q0 -0.296875 0.234375 -0.5q0.25 -0.21875 0.609375 -0.21875q0.390625 0 0.625 0.21875q0.234375 0.21875 0.234375 0.5z" fill-rule="nonzero"/><path fill="#000000" fill-opacity="0.0" d="m152.70335 53.188976c0 23.689594 24.346466 35.532734 48.692917 47.379192c24.34645 11.846458 48.692917 23.696228 48.692917 47.392464" fill-rule="evenodd"/><path stroke="#000000" stroke-width="1.0" stroke-linejoin="round" stroke-linecap="butt" d="m152.70335 53.188976c0 23.689594 24.34645 35.532734 48.692917 47.379192c12.173218 5.923233 24.34645 11.84729 33.476364 19.252563c4.564972 3.7026443 8.369095 7.7755814 11.031998 12.403877c1.3314514 2.3141632 2.3775787 4.767151 3.0908508 7.3820953c0.17831421 0.65374756 0.33584595 1.3176117 0.47181702 1.9919586l0.07463074 0.38697815" fill-rule="evenodd"/><path fill="#000000" stroke="#000000" stroke-width="1.0" stroke-linecap="butt" d="m247.89708 142.13629l2.0587616 4.3685303l1.2309265 -4.6698303z" fill-rule="evenodd"/><path fill="#000000" fill-opacity="0.0" d="m152.70335 53.188976c0 23.689594 36.307083 35.532734 72.61418 47.379192c36.307068 11.846458 72.61417 23.696228 72.61417 47.392464" fill-rule="evenodd"/><path stroke="#000000" stroke-width="1.0" stroke-linejoin="round" stroke-linecap="butt" d="m152.70335 53.188976c0 23.689594 36.307083 35.532734 72.61417 47.379192c18.15355 5.923233 36.307083 11.84729 49.922256 19.252563c6.807556 3.7026443 12.48056 7.7755814 16.45163 12.403877c1.9855652 2.3141632 3.5456238 4.767151 4.609314 7.3820953c0.26593018 0.65374756 0.500824 1.3176117 0.70358276 1.9919586l0.119781494 0.41656494" fill-rule="evenodd"/><path fill="#000000" stroke="#000000" stroke-width="1.0" stroke-linecap="butt" d="m295.4874 142.23755l2.247528 4.274475l1.0258789 -4.719116z" fill-rule="evenodd"/><path fill="#000000" fill-opacity="0.0" d="m152.70335 53.188976c0 23.689594 48.385834 35.532734 96.77165 47.379192c48.385834 11.846458 96.77167 23.696228 96.77167 47.392464" fill-rule="evenodd"/><path stroke="#000000" stroke-width="1.0" stroke-linejoin="round" stroke-linecap="butt" d="m152.70335 53.188976c0 23.689594 48.38582 35.532734 96.77165 47.379192c24.192902 5.923233 48.385834 11.84729 66.53052 19.252563c9.072357 3.7026443 16.63263 7.7755814 21.924835 12.403877c2.6461182 2.3141632 4.7251587 4.767151 6.1427307 7.3820953c0.35440063 0.65374756 0.66744995 1.3176117 0.9376526 1.9919586c0.03378296 0.08428955 0.06689453 0.16874695 0.09933472 0.2533722l0.07608032 0.20306396" fill-rule="evenodd"/><path fill="#000000" stroke="#000000" stroke-width="1.0" stroke-linecap="butt" d="m343.56042 142.34706l2.4278564 4.1746826l0.8235779 -4.7585907z" fill-rule="evenodd"/><path fill="#000000" fill-opacity="0.0" d="m152.70335 53.188976c0 23.754955 60.35434 35.631954 120.708664 47.509914c60.35434 11.877953 120.70865 23.756851 120.70865 47.51371" fill-rule="evenodd"/><path stroke="#000000" stroke-width="1.0" stroke-linejoin="round" stroke-linecap="butt" d="m152.70335 53.188976c0 23.754955 60.354324 35.63196 120.708664 47.509914c30.177155 5.93898 60.35434 11.878189 82.98721 19.302269c11.316437 3.7120361 20.746796 7.795288 27.348053 12.435333c3.3006287 2.3200226 5.8940125 4.779236 7.6621704 7.4008636c0.44204712 0.65541077 0.83255005 1.3209686 1.1696167 1.9970245c0.084228516 0.1690216 0.16519165 0.33869934 0.24273682 0.5090332l0.004638672 0.010437012" fill-rule="evenodd"/><path fill="#000000" stroke="#000000" stroke-width="1.0" stroke-linecap="butt" d="m391.2136 142.71014l2.5917664 4.0749664l0.63394165 -4.787552z" fill-rule="evenodd"/><path fill="#000000" fill-opacity="0.0" d="m489.28998 52.65354c0 23.88881 -23.795288 35.832733 -47.590546 47.77762c-23.795288 11.944885 -47.590576 23.890717 -47.590576 47.78144" fill-rule="evenodd"/><path stroke="#000000" stroke-width="1.0" stroke-linejoin="round" stroke-linecap="butt" d="m489.28998 52.65354c0 23.88881 -23.795258 35.83274 -47.590546 47.777626c-11.897644 5.972435 -23.795288 11.945114 -32.718506 19.411026c-4.461609 3.732956 -8.179626 7.839218 -10.782227 12.505417c-1.3013 2.3330994 -2.3237915 4.8061676 -3.020874 7.442566c-0.17428589 0.65908813 -0.32824707 1.3283997 -0.4611206 2.0082703l-0.08178711 0.43725586" fill-rule="evenodd"/><path fill="#000000" stroke="#000000" stroke-width="1.0" stroke-linecap="butt" d="m392.98956 142.09088l1.2474976 4.665451l2.0432434 -4.3758087z" fill-rule="evenodd"/><path fill="#000000" fill-opacity="0.0" d="m489.28998 52.65354c0 23.82344 -35.763794 35.73349 -71.52756 47.646873c-35.763794 11.9133835 -71.52756 23.830109 -71.52756 47.660217" fill-rule="evenodd"/><path stroke="#000000" stroke-width="1.0" stroke-linejoin="round" stroke-linecap="butt" d="m489.28998 52.65354c0 23.823433 -35.763763 35.733482 -71.52756 47.646873c-17.881897 5.956688 -35.763763 11.914215 -49.1752 19.361343c-6.7056885 3.7235565 -12.293793 7.8195114 -16.205444 12.473953c-1.9558411 2.3272247 -3.4925842 4.7940826 -4.5403137 7.4237976c-0.26193237 0.6574402 -0.49331665 1.325058 -0.6930847 2.0032196l-0.12667847 0.4497223" fill-rule="evenodd"/><path fill="#000000" stroke="#000000" stroke-width="1.0" stroke-linecap="butt" d="m345.38422 141.79584l1.0423584 4.715515l2.2325745 -4.282303z" fill-rule="evenodd"/><path fill="#000000" fill-opacity="0.0" d="m489.28998 52.65354c0 23.82344 -47.834656 35.73349 -95.66931 47.646873c-47.834625 11.9133835 -95.66928 23.830109 -95.66928 47.660217" fill-rule="evenodd"/><path stroke="#000000" stroke-width="1.0" stroke-linejoin="round" stroke-linecap="butt" d="m489.28998 52.65354c0 23.823433 -47.834625 35.733482 -95.66928 47.646873c-23.917328 5.956688 -47.834656 11.914215 -65.772644 19.361343c-8.969025 3.7235565 -16.443176 7.8195114 -21.67508 12.473953c-2.6159668 2.3272247 -4.671356 4.7940826 -6.072754 7.4237976c-0.3503723 0.6574402 -0.6598511 1.325058 -0.92700195 2.0032196c-0.03338623 0.08476257 -0.06613159 0.169693 -0.09817505 0.25479126l-0.085998535 0.23352051" fill-rule="evenodd"/><path fill="#000000" stroke="#000000" stroke-width="1.0" stroke-linecap="butt" d="m297.3622 141.76538l0.8420105 4.755371l2.4116516 -4.1840515z" fill-rule="evenodd"/><path fill="#000000" fill-opacity="0.0" d="m489.28998 52.65354c0 23.82344 -59.80316 35.73349 -119.60629 47.646873c-59.80316 11.9133835 -119.60631 23.830109 -119.60631 47.660217" fill-rule="evenodd"/><path stroke="#000000" stroke-width="1.0" stroke-linejoin="round" stroke-linecap="butt" d="m489.28998 52.65354c0 23.823433 -59.80313 35.733482 -119.60629 47.646873c-29.90158 5.956688 -59.80316 11.914215 -82.22934 19.361343c-11.213104 3.7235565 -20.557343 7.8195114 -27.098328 12.473953c-3.2704773 2.3272247 -5.8401337 4.7940826 -7.5921783 7.4237976c-0.4380188 0.6574402 -0.82492065 1.325058 -1.1589203 2.0032196c-0.083496094 0.1695404 -0.16366577 0.33972168 -0.24052429 0.51060486l-0.010803223 0.024597168" fill-rule="evenodd"/><path fill="#000000" stroke="#000000" stroke-width="1.0" stroke-linecap="butt" d="m249.73965 141.7466l0.6486664 4.7855835l2.5792084 -4.0829163z" fill-rule="evenodd"/><path fill="#000000" fill-opacity="0.0" d="m42.045933 176.87007c0 16.071198 52.29134 24.106949 104.58269 32.14238c52.291336 8.035431 104.58267 16.070541 104.58267 32.141098" fill-rule="evenodd"/><path stroke="#000000" stroke-width="1.0" stroke-linejoin="round" stroke-linecap="butt" d="m42.045933 176.87007c0 16.071198 52.29134 24.106949 104.58269 32.14238c26.14566 4.0177155 52.291336 8.035339 71.90059 13.057388c9.804626 2.5110168 17.975143 5.273117 23.694504 8.411896c2.8596802 1.5693665 5.1065826 3.2329102 6.63855 5.0063324l0.089538574 0.107177734" fill-rule="evenodd"/><path fill="#000000" stroke="#000000" stroke-width="1.0" stroke-linecap="butt" d="m247.42166 236.21725l3.2391052 3.5820007l-0.17883301 -4.8260193z" fill-rule="evenodd"/><path fill="#000000" fill-opacity="0.0" d="m89.96522 176.87007c0 16.071198 52.299217 24.106949 104.59843 32.14238c52.29921 8.035431 104.598434 16.070541 104.598434 32.141098" fill-rule="evenodd"/><path stroke="#000000" stroke-width="1.0" stroke-linejoin="round" stroke-linecap="butt" d="m89.965225 176.87007c0 16.071198 52.29921 24.106949 104.59842 32.14238c26.149612 4.0177155 52.29921 8.035339 71.91142 13.057388c9.806091 2.5110168 17.977844 5.273117 23.69809 8.411896c2.8601074 1.5693665 5.1073303 3.2329102 6.639557 5.0063324l0.08963013 0.107284546" fill-rule="evenodd"/><path fill="#000000" stroke="#000000" stroke-width="1.0" stroke-linecap="butt" d="m295.37222 236.21742l3.2392578 3.5818634l-0.17904663 -4.8260193z" fill-rule="evenodd"/><path fill="#000000" fill-opacity="0.0" d="m137.95842 176.87007c0 16.071198 52.283463 24.106949 104.566925 32.14238c52.283463 8.035431 104.56694 16.070541 104.56694 32.141098" fill-rule="evenodd"/><path stroke="#000000" stroke-width="1.0" stroke-linejoin="round" stroke-linecap="butt" d="m137.95842 176.87007c0 16.071198 52.283463 24.106949 104.566925 32.14238c26.141739 4.0177155 52.283463 8.035339 71.889755 13.057388c9.803162 2.5110168 17.972443 5.273117 23.690948 8.411896c2.859253 1.5693665 5.1058044 3.2329102 6.6375427 5.0063324l0.08944702 0.10707092" fill-rule="evenodd"/><path fill="#000000" stroke="#000000" stroke-width="1.0" stroke-linecap="butt" d="m343.3029 236.21709l3.238922 3.5821533l-0.17858887 -4.82605z" fill-rule="evenodd"/><path fill="#000000" fill-opacity="0.0" d="m185.95317 176.87007c0 16.071198 52.27559 24.106949 104.55116 32.14238c52.275604 8.035431 104.55121 16.070541 104.55121 32.141098" fill-rule="evenodd"/><path stroke="#000000" stroke-width="1.0" stroke-linejoin="round" stroke-linecap="butt" d="m185.95317 176.87007c0 16.071198 52.27559 24.106949 104.55116 32.14238c26.137817 4.0177155 52.275604 8.035339 71.87894 13.057388c9.801697 2.5110168 17.969757 5.273117 23.687378 8.411896c2.8588257 1.5693665 5.1050415 3.2329102 6.636566 5.0063324l0.08932495 0.10697937" fill-rule="evenodd"/><path fill="#000000" stroke="#000000" stroke-width="1.0" stroke-linecap="butt" d="m391.26636 236.2169l3.2387695 3.582306l-0.17837524 -4.82605z" fill-rule="evenodd"/><path fill="#d9d2e9" d="m149.72748 296.23883l85.22835 0l0 24.0l-85.22835 0z" fill-rule="evenodd"/><path stroke="#000000" stroke-width="2.0" stroke-linejoin="round" stroke-linecap="butt" d="m149.72748 296.23883l85.22835 0l0 24.0l-85.22835 0z" fill-rule="evenodd"/><path fill="#000000" d="m162.66032 308.03635q0 0.84375 -0.40625 1.515625q-0.40625 0.671875 -1.125 1.046875q-0.703125 0.375 -1.5625 0.375l-1.921875 0l0 1.640625l1.9375 0l0 1.484375l-4.6875 0l0 -1.484375l1.265625 0l0 -6.171875l-1.25 0l0 -1.5l4.234375 0q1.65625 0 2.578125 0.828125q0.9375 0.8125 0.9375 2.265625zm-1.46875 -0.046875q0 -0.703125 -0.53125 -1.125q-0.515625 -0.421875 -1.515625 -0.421875l-1.5 0l0 3.046875l1.65625 0q1.890625 0 1.890625 -1.5zm10.334396 -2.6875l-1.875 0l0 8.6875l1.875 0l0 1.484375l-3.359375 0l0 -11.65625l3.359375 0l0 1.484375zm10.256271 7.3125l0.890625 0l0 1.484375l-3.71875 0l0 -1.484375l1.328125 0l-0.46875 -1.09375l-3.71875 0l-0.453125 1.09375l1.375 0l0 1.484375l-3.8125 0l0 -1.484375l0.953125 0l2.59375 -6.171875l-1.96875 0l0 -1.5l3.859375 0l3.140625 7.671875zm-2.5625 -2.578125l-1.25 -2.96875l-1.25 2.96875l2.5 0zm9.068771 -2.90625l1.953125 -0.796875l0.546875 1.609375l-2.0 0.546875l1.234375 1.671875l-1.328125 0.984375l-1.1875 -1.78125l-1.203125 1.796875l-1.328125 -0.984375l1.25 -1.6875l-2.046875 -0.53125l0.5625 -1.625l1.984375 0.796875l-0.09375 -2.15625l1.75 0l-0.09375 2.15625zm12.131271 -1.125l-4.875 6.609375l3.75 0l0 -2.265625l1.484375 0l0 3.75l-7.21875 0l0 -1.140625l4.8125 -6.515625l-3.28125 0l0 2.015625l-1.46875 0l0 -3.515625l6.796875 0l0 1.0625zm6.5375214 9.46875l-3.40625 0l0 -1.484375l1.90625 0l0 -8.6875l-1.90625 0l0 -1.484375l3.40625 0l0 11.65625zm13.053146 -11.921875l-6.046875 12.671875l-1.25 -0.59375l6.03125 -12.671875l1.265625 0.59375zm9.318771 2.890625l-2.59375 0l0 6.171875l2.59375 0l0 1.484375l-6.75 0l0 -1.484375l2.640625 0l0 -6.171875l-2.640625 0l0 -1.5l6.75 0l0 1.5z" fill-rule="nonzero"/><path fill="#d9d2e9" d="m234.9734 296.23883l85.22835 0l0 24.0l-85.22835 0z" fill-rule="evenodd"/><path stroke="#000000" stroke-width="2.0" stroke-linejoin="round" stroke-linecap="butt" d="m234.9734 296.23883l85.22835 0l0 24.0l-85.22835 0z" fill-rule="evenodd"/><path fill="#000000" d="m247.90625 308.03635q0 0.84375 -0.40625 1.515625q-0.40625 0.671875 -1.125 1.046875q-0.703125 0.375 -1.5625 0.375l-1.921875 0l0 1.640625l1.9375 0l0 1.484375l-4.6875 0l0 -1.484375l1.265625 0l0 -6.171875l-1.25 0l0 -1.5l4.234375 0q1.65625 0 2.578125 0.828125q0.9375 0.8125 0.9375 2.265625zm-1.46875 -0.046875q0 -0.703125 -0.53125 -1.125q-0.515625 -0.421875 -1.515625 -0.421875l-1.5 0l0 3.046875l1.65625 0q1.890625 0 1.890625 -1.5zm10.334381 -2.6875l-1.8749847 0l0 8.6875l1.8749847 0l0 1.484375l-3.3593597 0l0 -11.65625l3.3593597 0l0 1.484375zm9.959412 2.140625q0 0.546875 -0.234375 1.03125q-0.234375 0.46875 -0.6875 0.828125q0.84375 0.484375 1.140625 1.015625q0.3125 0.53125 0.3125 1.1875q0 0.75 -0.390625 1.34375q-0.390625 0.59375 -1.0625 0.921875q-0.671875 0.328125 -1.515625 0.328125l-5.328125 0l0 -1.484375l1.25 0l0 -6.171875l-1.25 0l0 -1.5l4.71875 0q1.375 0 2.203125 0.703125q0.84375 0.6875 0.84375 1.796875zm-1.46875 0.046875q0 -0.46875 -0.390625 -0.75q-0.390625 -0.296875 -1.015625 -0.296875l-2.171875 0l0 2.1875l2.078125 0q0.609375 0 1.046875 -0.296875q0.453125 -0.296875 0.453125 -0.84375zm0.53125 3.921875q0 -0.640625 -0.5625 -0.96875q-0.5625 -0.328125 -1.609375 -0.328125l-1.9375 0l0 2.5l2.65625 0q0.578125 0 1.015625 -0.3125q0.4375 -0.328125 0.4375 -0.890625zm7.740631 -4.28125l1.953125 -0.796875l0.546875 1.609375l-2.0 0.546875l1.234375 1.671875l-1.328125 0.984375l-1.1875 -1.78125l-1.203125 1.796875l-1.328125 -0.984375l1.25 -1.6875l-2.046875 -0.53125l0.5625 -1.625l1.984375 0.796875l-0.09375 -2.15625l1.75 0l-0.09375 2.15625zm12.131287 -1.125l-4.875 6.609375l3.75 0l0 -2.265625l1.484375 0l0 3.75l-7.21875 0l0 -1.140625l4.8125 -6.515625l-3.28125 0l0 2.015625l-1.46875 0l0 -3.515625l6.796875 0l0 1.0625zm6.537506 9.46875l-3.40625 0l0 -1.484375l1.90625 0l0 -8.6875l-1.90625 0l0 -1.484375l3.40625 0l0 11.65625zm13.053162 -11.921875l-6.046875 12.671875l-1.25 -0.59375l6.03125 -12.671875l1.265625 0.59375zm10.553131 2.890625l-1.9375 0l0 4.734375q0 0.828125 -0.203125 1.40625q-0.1875 0.578125 -0.609375 0.9375q-0.453125 0.40625 -0.90625 0.578125q-0.453125 0.1875 -1.203125 0.1875q-0.8125 0 -1.765625 -0.28125q-0.953125 -0.28125 -1.921875 -0.78125l0 -3.6875l1.5 0l0 1.765625q0 0.859375 0.53125 1.171875q0.359375 0.203125 0.8125 0.28125q0.46875 0.078125 0.828125 0.078125q0.796875 0 1.140625 -0.375q0.34375 -0.390625 0.34375 -1.421875l0 -4.59375l-2.8125 0l0 -1.5l6.203125 0l0 1.5z" fill-rule="nonzero"/><path fill="#d9d2e9" d="m320.21933 296.23883l85.22833 0l0 24.0l-85.22833 0z" fill-rule="evenodd"/><path stroke="#000000" stroke-width="2.0" stroke-linejoin="round" stroke-linecap="butt" d="m320.21933 296.23883l85.22833 0l0 24.0l-85.22833 0z" fill-rule="evenodd"/><path fill="#000000" d="m333.15216 308.03635q0 0.84375 -0.40625 1.515625q-0.40625 0.671875 -1.125 1.046875q-0.703125 0.375 -1.5625 0.375l-1.921875 0l0 1.640625l1.9375 0l0 1.484375l-4.6875 0l0 -1.484375l1.265625 0l0 -6.171875l-1.25 0l0 -1.5l4.234375 0q1.65625 0 2.578125 0.828125q0.9375 0.8125 0.9375 2.265625zm-1.46875 -0.046875q0 -0.703125 -0.53125 -1.125q-0.515625 -0.421875 -1.515625 -0.421875l-1.5 0l0 3.046875l1.65625 0q1.890625 0 1.890625 -1.5zm10.334412 -2.6875l-1.875 0l0 8.6875l1.875 0l0 1.484375l-3.359375 0l0 -11.65625l3.359375 0l0 1.484375zm9.162506 0.140625l0 -0.671875l1.484375 0l0 3.734375l-1.484375 0l0 -1.53125q-1.171875 -0.75 -2.328125 -0.75q-0.765625 0 -1.4375 0.390625q-0.65625 0.390625 -1.0625 1.140625q-0.40625 0.734375 -0.40625 1.734375q0 1.5 0.78125 2.421875q0.78125 0.90625 2.15625 0.90625q0.6875 0 1.4375 -0.265625q0.765625 -0.265625 1.484375 -0.765625l0.90625 1.078125q-0.6875 0.640625 -1.828125 1.03125q-1.140625 0.390625 -1.96875 0.390625q-2.046875 0 -3.3125 -1.46875q-0.53125 -0.609375 -0.84375 -1.546875q-0.296875 -0.9375 -0.296875 -1.796875q0 -1.34375 0.578125 -2.40625q0.578125 -1.078125 1.5625 -1.6875q1.0 -0.609375 2.234375 -0.609375q0.671875 0 1.296875 0.1875q0.625 0.1875 1.046875 0.484375zm7.6000366 1.6875l1.953125 -0.796875l0.546875 1.609375l-2.0 0.546875l1.234375 1.671875l-1.328125 0.984375l-1.1875 -1.78125l-1.203125 1.796875l-1.328125 -0.984375l1.25 -1.6875l-2.046875 -0.53125l0.5625 -1.625l1.984375 0.796875l-0.09375 -2.15625l1.75 0l-0.09375 2.15625zm12.131256 -1.125l-4.875 6.609375l3.75 0l0 -2.265625l1.484375 0l0 3.75l-7.21875 0l0 -1.140625l4.8125 -6.515625l-3.28125 0l0 2.015625l-1.46875 0l0 -3.515625l6.796875 0l0 1.0625zm6.5375366 9.46875l-3.40625 0l0 -1.484375l1.90625 0l0 -8.6875l-1.90625 0l0 -1.484375l3.40625 0l0 11.65625zm13.053131 -11.921875l-6.046875 12.671875l-1.25 -0.59375l6.03125 -12.671875l1.265625 0.59375zm5.6000366 2.890625l-1.25 0l0 2.46875l2.578125 -2.46875l-0.65625 0l0 -1.5l3.640625 0l0 1.5l-1.015625 0l-2.65625 2.5625q1.46875 1.71875 2.46875 3.609375l1.625 0l0 1.484375l-2.421875 0q-0.5 -1.046875 -1.21875 -2.171875q-0.71875 -1.125 -1.453125 -1.96875l-0.890625 0.859375l0 1.796875l1.25 0l0 1.484375l-3.984375 0l0 -1.484375l1.265625 0l0 -6.171875l-1.265625 0l0 -1.5l3.984375 0l0 1.5z" fill-rule="nonzero"/><path fill="#d9d2e9" d="m405.46524 296.23883l85.22836 0l0 24.0l-85.22836 0z" fill-rule="evenodd"/><path stroke="#000000" stroke-width="2.0" stroke-linejoin="round" stroke-linecap="butt" d="m405.46524 296.23883l85.22836 0l0 24.0l-85.22836 0z" fill-rule="evenodd"/><path fill="#000000" d="m418.3981 308.03635q0 0.84375 -0.40625 1.515625q-0.40625 0.671875 -1.125 1.046875q-0.703125 0.375 -1.5625 0.375l-1.921875 0l0 1.640625l1.9375 0l0 1.484375l-4.6875 0l0 -1.484375l1.265625 0l0 -6.171875l-1.25 0l0 -1.5l4.234375 0q1.65625 0 2.578125 0.828125q0.9375 0.8125 0.9375 2.265625zm-1.46875 -0.046875q0 -0.703125 -0.53125 -1.125q-0.515625 -0.421875 -1.515625 -0.421875l-1.5 0l0 3.046875l1.65625 0q1.890625 0 1.890625 -1.5zm10.334381 -2.6875l-1.875 0l0 8.6875l1.875 0l0 1.484375l-3.359375 0l0 -11.65625l3.359375 0l0 1.484375zm10.631287 4.046875q0 2.34375 -1.15625 3.546875q-1.15625 1.203125 -3.25 1.203125l-4.1875 0l0 -1.484375l1.265625 0l0 -6.171875l-1.265625 0l0 -1.5l4.609375 0q1.265625 0 2.15625 0.578125q0.90625 0.5625 1.359375 1.5625q0.46875 0.984375 0.46875 2.265625zm-1.484375 0.0625q0 -1.421875 -0.671875 -2.1875q-0.671875 -0.78125 -1.828125 -0.78125l-1.875 0l0 6.171875l1.75 0q1.09375 0 1.859375 -0.75q0.765625 -0.75 0.765625 -2.453125zm7.615631 -2.28125l1.953125 -0.796875l0.546875 1.609375l-2.0 0.546875l1.234375 1.671875l-1.328125 0.984375l-1.1875 -1.78125l-1.203125 1.796875l-1.328125 -0.984375l1.25 -1.6875l-2.046875 -0.53125l0.5625 -1.625l1.984375 0.796875l-0.09375 -2.15625l1.75 0l-0.09375 2.15625zm12.131287 -1.125l-4.875 6.609375l3.75 0l0 -2.265625l1.484375 0l0 3.75l-7.21875 0l0 -1.140625l4.8125 -6.515625l-3.28125 0l0 2.015625l-1.46875 0l0 -3.515625l6.796875 0l0 1.0625zm6.537506 9.46875l-3.40625 0l0 -1.484375l1.90625 0l0 -8.6875l-1.90625 0l0 -1.484375l3.40625 0l0 11.65625zm13.053162 -11.921875l-6.046875 12.671875l-1.25 -0.59375l6.03125 -12.671875l1.265625 0.59375zm6.865631 2.890625l-1.921875 0l0 6.171875l3.625 0l0 -2.8125l1.484375 0l0 4.296875l-8.109375 0l0 -1.484375l1.53125 0l0 -6.171875l-1.53125 0l0 -1.5l4.921875 0l0 1.5z" fill-rule="nonzero"/></g></svg>