<svg version="1.1" viewBox="0.0 0.0 459.07086614173227 237.20997375328085" fill="none" stroke="none" stroke-linecap="square" stroke-miterlimit="10" xmlns:xlink="http://www.w3.org/1999/xlink" xmlns="http://www.w3.org/2000/svg"><clipPath id="p.0"><path d="m0 0l459.07086 0l0 237.20998l-459.07086 0l0 -237.20998z" clip-rule="nonzero"/></clipPath><g clip-path="url(#p.0)"><path fill="#000000" fill-opacity="0.0" d="m0 0l459.07086 0l0 237.20998l-459.07086 0z" fill-rule="evenodd"/><path fill="#ffffff" d="m0 0l459.0551 0l0 237.19685l-459.0551 0z" fill-rule="evenodd"/><path stroke="#000000" stroke-width="1.0" stroke-linejoin="round" stroke-linecap="butt" d="m0 0l459.0551 0l0 237.19685l-459.0551 0z" fill-rule="evenodd"/><path fill="#d9d9d9" d="m77.87664 152.25066l303.87402 0l0 77.76378l-303.87402 0z" fill-rule="evenodd"/><path stroke="#000000" stroke-width="2.0" stroke-linejoin="round" stroke-linecap="butt" d="m77.87664 152.25066l303.87402 0l0 77.76378l-303.87402 0z" fill-rule="evenodd"/><path fill="#000000" d="m188.05426 221.82506l6.390625 2.640625l0 1.625l-8.046875 -3.234375l0 -2.03125l8.046875 -3.21875l0 1.625l-6.390625 2.59375zm13.943756 -1.25l2.015625 -5.3125l3.640625 0l0 1.734375l-1.453125 0l0.25 7.203125l1.0 0l0 1.734375l-4.453125 0l0 -1.734375l1.734375 0l-0.265625 -5.890625l-1.96875 5.25l-1.109375 0l-1.890625 -5.296875l-0.296875 5.9375l1.765625 0l0 1.734375l-4.53125 0l0 -1.734375l1.03125 0l0.296875 -7.203125l-1.40625 0l0 -1.734375l3.71875 0l1.921875 5.3125zm15.709381 -1.359375l-1.734375 0l0 -2.21875l-4.46875 0l0 2.65625l1.984375 0l0 -1.234375l1.734375 0l0 4.171875l-1.734375 0l0 -1.234375l-1.984375 0l0 2.84375l4.46875 0l0 -2.171875l1.734375 0l0 3.90625l-9.390625 0l0 -1.734375l1.484375 0l0 -7.203125l-1.4375 0l0 -1.734375l9.34375 0l0 3.953125zm6.678131 1.359375l2.015625 -5.3125l3.640625 0l0 1.734375l-1.453125 0l0.25 7.203125l1.0 0l0 1.734375l-4.453125 0l0 -1.734375l1.734375 0l-0.265625 -5.890625l-1.96875 5.25l-1.109375 0l-1.890625 -5.296875l-0.296875 5.9375l1.765625 0l0 1.734375l-4.53125 0l0 -1.734375l1.03125 0l0.296875 -7.203125l-1.40625 0l0 -1.734375l3.71875 0l1.921875 5.3125zm15.990631 0.046875q0 1.765625 -0.71875 3.015625q-0.703125 1.25 -1.84375 1.890625q-1.140625 0.625 -2.359375 0.625q-1.34375 0 -2.484375 -0.65625q-1.140625 -0.65625 -1.8125 -1.90625q-0.671875 -1.25 -0.671875 -2.9375q0 -1.53125 0.625 -2.8125q0.640625 -1.296875 1.765625 -2.03125q1.140625 -0.75 2.578125 -0.75q1.453125 0 2.578125 0.765625q1.125 0.765625 1.734375 2.03125q0.609375 1.265625 0.609375 2.765625zm-4.921875 3.84375q1.0 0 1.71875 -0.546875q0.734375 -0.5625 1.109375 -1.46875q0.390625 -0.90625 0.390625 -1.90625q0 -0.9375 -0.390625 -1.796875q-0.375 -0.875 -1.109375 -1.40625q-0.734375 -0.546875 -1.75 -0.546875q-0.90625 0 -1.640625 0.53125q-0.734375 0.53125 -1.140625 1.40625q-0.40625 0.859375 -0.40625 1.875q0 1.03125 0.390625 1.921875q0.390625 0.890625 1.125 1.421875q0.75 0.515625 1.703125 0.515625zm15.271881 -6.0625q0 1.125 -0.640625 1.890625q-0.625 0.765625 -1.84375 1.0625l2.15625 2.84375l1.390625 0l0 1.734375l-2.5 0q-0.421875 -0.953125 -1.125 -1.921875l-1.671875 -2.3125l-1.4375 0l0 2.5l1.375 0l0 1.734375l-4.5625 0l0 -1.734375l1.46875 0l0 -7.203125l-1.390625 0l0 -1.734375l5.328125 0q1.78125 0 2.609375 0.921875q0.84375 0.90625 0.84375 2.21875zm-1.703125 0.015625q0 -0.71875 -0.40625 -1.0625q-0.40625 -0.359375 -1.171875 -0.359375l-2.390625 0l0 2.96875l1.796875 0q1.09375 0 1.625 -0.375q0.546875 -0.390625 0.546875 -1.171875zm7.959381 -1.421875l-0.96875 0l1.875 3.15625l1.90625 -3.15625l-1.015625 0l0 -1.734375l4.296875 0l0 1.734375l-1.4375 0l-2.90625 4.8125l0 2.390625l2.21875 0l0 1.734375l-6.21875 0l0 -1.734375l2.265625 0l0 -2.390625l-2.90625 -4.8125l-1.40625 0l0 -1.734375l4.296875 0l0 1.734375zm16.475006 3.828125l0 2.03125l-8.046875 3.234375l0 -1.625l6.359375 -2.640625l-6.359375 -2.59375l0 -1.625l8.046875 3.21875z" fill-rule="nonzero"/><path fill="#d9d9d9" d="m245.42389 7.17979l202.86615 0l0 51.212597l-202.86615 0z" fill-rule="evenodd"/><path stroke="#000000" stroke-width="2.0" stroke-linejoin="round" stroke-linecap="butt" d="m245.42389 7.17979l202.86615 0l0 51.212597l-202.86615 0z" fill-rule="evenodd"/><path fill="#000000" d="m317.85382 16.162289l-1.4375 0l2.609375 6.6875l2.53125 -6.6875l-1.671875 0l0 -1.734375l4.609375 0l0 1.734375l-1.25 0l-3.390625 8.9375l-1.734375 0l-3.484375 -8.9375l-1.375 0l0 -1.734375l4.59375 0l0 1.734375zm16.693756 7.203125l1.046875 0l0 1.734375l-4.359375 0l0 -1.734375l1.5625 0l-0.546875 -1.265625l-4.328125 0l-0.546875 1.265625l1.609375 0l0 1.734375l-4.4375 0l0 -1.734375l1.09375 0l3.046875 -7.203125l-2.296875 0l0 -1.734375l4.5 0l3.65625 8.9375zm-2.984375 -3.0l-1.453125 -3.453125l-1.46875 3.453125l2.921875 0zm10.771881 -4.203125l-2.234375 0l0 7.203125l4.234375 0l0 -3.28125l1.734375 0l0 5.015625l-9.453125 0l0 -1.734375l1.765625 0l0 -7.203125l-1.765625 0l0 -1.734375l5.71875 0l0 1.734375zm9.787506 0l-1.71875 0l0 5.34375q0 1.109375 0.53125 1.59375q0.53125 0.484375 1.65625 0.484375q1.25 0 1.765625 -0.546875q0.515625 -0.546875 0.515625 -1.859375l0 -5.015625l-1.75 0l0 -1.734375l4.890625 0l0 1.734375l-1.421875 0l0 5.40625q0 0.921875 -0.28125 1.671875q-0.28125 0.734375 -0.796875 1.1875q-0.515625 0.453125 -1.359375 0.671875q-0.828125 0.21875 -1.546875 0.21875q-1.0625 0 -1.78125 -0.25q-0.703125 -0.25 -1.21875 -0.765625q-0.921875 -0.859375 -0.921875 -2.9375l0 -5.203125l-1.453125 0l0 -1.734375l4.890625 0l0 1.734375zm16.209381 2.21875l-1.734375 0l0 -2.21875l-4.46875 0l0 2.65625l1.984375 0l0 -1.234375l1.734375 0l0 4.171875l-1.734375 0l0 -1.234375l-1.984375 0l0 2.84375l4.46875 0l0 -2.171875l1.734375 0l0 3.90625l-9.390625 0l0 -1.734375l1.484375 0l0 -7.203125l-1.4375 0l0 -1.734375l9.34375 0l0 3.953125zm8.740631 -3.734375l0 -0.421875l1.71875 0l0 4.015625l-1.71875 0l0 -1.796875q-1.09375 -0.5 -2.03125 -0.5q-1.015625 0 -1.703125 0.5q-0.671875 0.5 -0.671875 1.1875q0 0.609375 0.390625 0.921875q0.390625 0.296875 0.953125 0.40625q0.5625 0.109375 1.5625 0.203125l0.71875 0.078125q1.34375 0.171875 2.109375 0.875q0.765625 0.6875 0.765625 1.921875q0 0.984375 -0.5625 1.734375q-0.546875 0.75 -1.515625 1.171875q-0.953125 0.40625 -2.15625 0.40625q-0.65625 0 -1.25 -0.15625q-0.59375 -0.15625 -1.34375 -0.515625l0 0.671875l-1.71875 0l0 -3.90625l1.71875 0l0 1.421875q1.265625 0.765625 2.609375 0.765625q1.21875 0 1.875 -0.40625q0.65625 -0.421875 0.65625 -1.1875q0 -0.65625 -0.515625 -0.953125q-0.515625 -0.296875 -1.765625 -0.3125q-2.09375 -0.03125 -3.1875 -0.890625q-1.09375 -0.859375 -1.09375 -2.25q0 -0.875 0.515625 -1.65625q0.515625 -0.796875 1.4375 -1.265625q0.921875 -0.484375 2.109375 -0.484375q1.15625 0 2.09375 0.421875z" fill-rule="nonzero"/><path fill="#d9d9d9" d="m10.778215 7.17979l202.86615 0l0 51.212597l-202.86615 0z" fill-rule="evenodd"/><path stroke="#000000" stroke-width="2.0" stroke-linejoin="round" stroke-linecap="butt" d="m10.778215 7.17979l202.86615 0l0 51.212597l-202.86615 0z" fill-rule="evenodd"/><path fill="#000000" d="m83.20501 18.021664q0 1.0 -0.484375 1.78125q-0.46875 0.78125 -1.296875 1.21875q-0.828125 0.4375 -1.828125 0.4375l-2.25 0l0 1.90625l2.265625 0l0 1.734375l-5.453125 0l0 -1.734375l1.46875 0l0 -7.203125l-1.453125 0l0 -1.734375l4.921875 0q1.9375 0 3.015625 0.953125q1.09375 0.953125 1.09375 2.640625zm-1.71875 -0.046875q0 -0.828125 -0.609375 -1.3125q-0.609375 -0.5 -1.78125 -0.5l-1.75 0l0 3.5625l1.9375 0q2.203125 0 2.203125 -1.75zm13.303131 1.8125q0 1.765625 -0.71875 3.015625q-0.703125 1.25 -1.84375 1.890625q-1.140625 0.625 -2.359375 0.625q-1.34375 0 -2.484375 -0.65625q-1.140625 -0.65625 -1.8125 -1.90625q-0.671875 -1.25 -0.671875 -2.9375q0 -1.53125 0.625 -2.8125q0.640625 -1.296875 1.765625 -2.03125q1.140625 -0.75 2.578125 -0.75q1.453125 0 2.578125 0.765625q1.125 0.765625 1.734375 2.03125q0.609375 1.265625 0.609375 2.765625zm-4.921875 3.84375q1.0 0 1.71875 -0.546875q0.734375 -0.5625 1.109375 -1.46875q0.390625 -0.90625 0.390625 -1.90625q0 -0.9375 -0.390625 -1.796875q-0.375 -0.875 -1.109375 -1.40625q-0.734375 -0.546875 -1.75 -0.546875q-0.90625 0 -1.640625 0.53125q-0.734375 0.53125 -1.140625 1.40625q-0.40625 0.859375 -0.40625 1.875q0 1.03125 0.390625 1.921875q0.390625 0.890625 1.125 1.421875q0.75 0.515625 1.703125 0.515625zm15.100006 -7.46875l-3.015625 0l0 7.203125l3.015625 0l0 1.734375l-7.875 0l0 -1.734375l3.078125 0l0 -7.203125l-3.078125 0l0 -1.734375l7.875 0l0 1.734375zm9.787506 5.671875l0 -5.671875l-1.734375 0l0 -1.734375l4.875 0l0 1.734375l-1.4375 0l0 8.9375l-1.640625 0l-4.8125 -7.609375l0 5.875l1.8125 0l0 1.734375l-4.9375 0l0 -1.734375l1.40625 0l0 -7.203125l-1.40625 0l0 -1.734375l3.328125 0l4.546875 7.40625zm13.553139 -3.34375l-1.7343826 0l0 -2.328125l-2.265625 0l0 7.203125l2.25 0l0 1.734375l-6.234375 0l0 -1.734375l2.234375 0l0 -7.203125l-2.265625 0l0 2.328125l-1.734375 0l0 -4.0625l9.750008 0l0 4.0625zm10.974991 -0.109375l-1.7343597 0l0 -2.21875l-4.46875 0l0 2.65625l1.984375 0l0 -1.234375l1.734375 0l0 4.171875l-1.734375 0l0 -1.234375l-1.984375 0l0 2.84375l4.46875 0l0 -2.171875l1.7343597 0l0 3.90625l-9.39061 0l0 -1.734375l1.484375 0l0 -7.203125l-1.4375 0l0 -1.734375l9.343735 0l0 3.953125zm10.631256 -0.8125q0 1.125 -0.640625 1.890625q-0.625 0.765625 -1.84375 1.0625l2.15625 2.84375l1.390625 0l0 1.734375l-2.5 0q-0.421875 -0.953125 -1.125 -1.921875l-1.671875 -2.3125l-1.4375 0l0 2.5l1.375 0l0 1.734375l-4.5625 0l0 -1.734375l1.46875 0l0 -7.203125l-1.390625 0l0 -1.734375l5.328125 0q1.78125 0 2.609375 0.921875q0.84375 0.90625 0.84375 2.21875zm-1.703125 0.015625q0 -0.71875 -0.40625 -1.0625q-0.40625 -0.359375 -1.171875 -0.359375l-2.390625 0l0 2.96875l1.796875 0q1.09375 0 1.625 -0.375q0.546875 -0.390625 0.546875 -1.171875z" fill-rule="nonzero"/><path fill="#d9d2e9" d="m15.867451 29.594488l191.77953 0l0 24.000002l-191.77953 0z" fill-rule="evenodd"/><path stroke="#000000" stroke-width="2.0" stroke-linejoin="round" stroke-linecap="butt" d="m15.867451 29.594488l191.77953 0l0 24.000002l-191.77953 0z" fill-rule="evenodd"/><path fill="#000000" d="m116.238464 46.780113l1.046875 0l0 1.734375l-4.359375 0l0 -1.734375l1.5625 0l-0.546875 -1.265625l-4.328125 0l-0.546875 1.265625l1.609375 0l0 1.734375l-4.4375 0l0 -1.734375l1.09375 0l3.046875 -7.203125l-2.296875 0l0 -1.734375l4.5 0l3.65625 8.9375zm-2.984375 -3.0l-1.453125 -3.453125l-1.46875 3.453125l2.921875 0z" fill-rule="nonzero"/><path fill="#d9d2e9" d="m250.82283 29.594488l47.937027 0l0 24.000002l-47.937027 0z" fill-rule="evenodd"/><path stroke="#000000" stroke-width="2.0" stroke-linejoin="round" stroke-linecap="butt" d="m250.82283 29.594488l47.937027 0l0 24.000002l-47.937027 0z" fill-rule="evenodd"/><path fill="#000000" d="m273.42883 39.57699l-1.71875 0l0.65625 5.34375l1.859375 -5.09375l1.234375 0l1.890625 5.046875l0.625 -5.296875l-1.734375 0l0 -1.734375l4.265625 0l0 1.734375l-0.890625 0l-1.203125 8.9375l-1.453125 0l-2.15625 -5.59375l-2.109375 5.59375l-1.46875 0l-1.1875 -8.9375l-0.875 0l0 -1.734375l4.265625 0l0 1.734375z" fill-rule="nonzero"/><path fill="#d9d2e9" d="m298.77026 29.594488l47.93701 0l0 24.000002l-47.93701 0z" fill-rule="evenodd"/><path stroke="#000000" stroke-width="2.0" stroke-linejoin="round" stroke-linecap="butt" d="m298.77026 29.594488l47.93701 0l0 24.000002l-47.93701 0z" fill-rule="evenodd"/><path fill="#000000" d="m322.17316 39.57699l-0.96875 0l1.59375 2.046875l1.546875 -2.046875l-0.828125 0l0 -1.734375l4.015625 0l0 1.734375l-1.234375 0l-2.546875 3.359375l2.921875 3.84375l1.203125 0l0 1.734375l-4.328125 0l0 -1.734375l1.109375 0l-1.921875 -2.5625l-1.96875 2.5625l1.4375 0l0 1.734375l-4.59375 0l0 -1.734375l1.1875 0l2.96875 -3.84375l-2.59375 -3.359375l-1.25 0l0 -1.734375l4.25 0l0 1.734375z" fill-rule="nonzero"/><path fill="#d9d2e9" d="m346.7177 29.594488l47.93698 0l0 24.000002l-47.93698 0z" fill-rule="evenodd"/><path stroke="#000000" stroke-width="2.0" stroke-linejoin="round" stroke-linecap="butt" d="m346.7177 29.594488l47.93698 0l0 24.000002l-47.93698 0z" fill-rule="evenodd"/><path fill="#000000" d="m369.87057 39.57699l-0.96875 0l1.875 3.15625l1.90625 -3.15625l-1.015625 0l0 -1.734375l4.296875 0l0 1.734375l-1.4375 0l-2.90625 4.8125l0 2.390625l2.21875 0l0 1.734375l-6.21875 0l0 -1.734375l2.265625 0l0 -2.390625l-2.90625 -4.8125l-1.40625 0l0 -1.734375l4.296875 0l0 1.734375z" fill-rule="nonzero"/><path fill="#d9d2e9" d="m394.66513 29.594488l47.93701 0l0 24.000002l-47.93701 0z" fill-rule="evenodd"/><path stroke="#000000" stroke-width="2.0" stroke-linejoin="round" stroke-linecap="butt" d="m394.66513 29.594488l47.93701 0l0 24.000002l-47.93701 0z" fill-rule="evenodd"/><path fill="#000000" d="m422.45862 39.07699l-5.6875 7.703125l4.375 0l0 -2.625l1.71875 0l0 4.359375l-8.40625 0l0 -1.328125l5.609375 -7.609375l-3.828125 0l0 2.359375l-1.703125 0l0 -4.09375l7.921875 0l0 1.234375z" fill-rule="nonzero"/><path fill="#d9d2e9" d="m133.34251 159.23753l47.93701 0l0 24.0l-47.93701 0z" fill-rule="evenodd"/><path stroke="#000000" stroke-width="2.0" stroke-linejoin="round" stroke-linecap="butt" d="m133.34251 159.23753l47.93701 0l0 24.0l-47.93701 0z" fill-rule="evenodd"/><path fill="#000000" d="m155.94852 169.22003l-1.71875 0l0.65625 5.34375l1.859375 -5.09375l1.234375 0l1.890625 5.046875l0.625 -5.296875l-1.734375 0l0 -1.734375l4.265625 0l0 1.734375l-0.890625 0l-1.203125 8.9375l-1.453125 0l-2.15625 -5.59375l-2.109375 5.59375l-1.46875 0l-1.1875 -8.9375l-0.875 0l0 -1.734375l4.265625 0l0 1.734375z" fill-rule="nonzero"/><path fill="#d9d2e9" d="m181.28995 159.23753l47.93701 0l0 24.0l-47.93701 0z" fill-rule="evenodd"/><path stroke="#000000" stroke-width="2.0" stroke-linejoin="round" stroke-linecap="butt" d="m181.28995 159.23753l47.93701 0l0 24.0l-47.93701 0z" fill-rule="evenodd"/><path fill="#000000" d="m203.89595 169.22003l-1.71875 0l0.65625 5.34375l1.859375 -5.09375l1.234375 0l1.890625 5.046875l0.625 -5.296875l-1.734375 0l0 -1.734375l4.265625 0l0 1.734375l-0.890625 0l-1.203125 8.9375l-1.453125 0l-2.15625 -5.59375l-2.109375 5.59375l-1.46875 0l-1.1875 -8.9375l-0.875 0l0 -1.734375l4.265625 0l0 1.734375z" fill-rule="nonzero"/><path fill="#d9d2e9" d="m229.23738 159.23753l47.936996 0l0 24.0l-47.936996 0z" fill-rule="evenodd"/><path stroke="#000000" stroke-width="2.0" stroke-linejoin="round" stroke-linecap="butt" d="m229.23738 159.23753l47.936996 0l0 24.0l-47.936996 0z" fill-rule="evenodd"/><path fill="#000000" d="m251.84338 169.22003l-1.71875 0l0.65625 5.34375l1.859375 -5.09375l1.234375 0l1.890625 5.046875l0.625 -5.296875l-1.734375 0l0 -1.734375l4.265625 0l0 1.734375l-0.890625 0l-1.203125 8.9375l-1.453125 0l-2.15625 -5.59375l-2.109375 5.59375l-1.46875 0l-1.1875 -8.9375l-0.875 0l0 -1.734375l4.265625 0l0 1.734375z" fill-rule="nonzero"/><path fill="#d9d2e9" d="m277.1848 159.23753l47.93701 0l0 24.0l-47.93701 0z" fill-rule="evenodd"/><path stroke="#000000" stroke-width="2.0" stroke-linejoin="round" stroke-linecap="butt" d="m277.1848 159.23753l47.93701 0l0 24.0l-47.93701 0z" fill-rule="evenodd"/><path fill="#000000" d="m299.79083 169.22003l-1.71875 0l0.65625 5.34375l1.859375 -5.09375l1.234375 0l1.890625 5.046875l0.625 -5.296875l-1.734375 0l0 -1.734375l4.265625 0l0 1.734375l-0.890625 0l-1.203125 8.9375l-1.453125 0l-2.15625 -5.59375l-2.109375 5.59375l-1.46875 0l-1.1875 -8.9375l-0.875 0l0 -1.734375l4.265625 0l0 1.734375z" fill-rule="nonzero"/><path fill="#d9d9d9" d="m145.31102 108.93307l24.0 0l0 23.04l-12.0 5.76001l-12.0 -5.76001z" fill-rule="evenodd"/><path stroke="#000000" stroke-width="2.0" stroke-linejoin="round" stroke-linecap="butt" d="m145.31102 108.93307l24.0 0l0 23.04l-12.0 5.76001l-12.0 -5.76001z" fill-rule="evenodd"/><path fill="#000000" d="m150.36784 130.09306l0 -15.906242l4.21875 0l0 1.875l-1.953125 0l0 12.156242l1.953125 0l0 1.875l-4.21875 0zm13.881592 -15.906242l0 15.906242l-4.203125 0l0 -1.875l1.953125 0l0 -12.171867l-1.953125 0l0 -1.859375l4.203125 0z" fill-rule="nonzero"/><path fill="#000000" fill-opacity="0.0" d="m274.79135 53.59449c0 13.8346405 -29.370087 20.751968 -58.740173 27.669289c-29.370071 6.9173203 -58.740158 13.834648 -58.740158 27.669289" fill-rule="evenodd"/><path stroke="#000000" stroke-width="2.0" stroke-linejoin="round" stroke-linecap="butt" d="m274.79135 53.59449c0 13.8346405 -29.370087 20.751968 -58.740173 27.669289c-14.685043 3.458664 -29.370071 6.9173203 -40.38385 11.240654c-2.7534485 1.0808258 -5.2774353 2.2156982 -7.514618 3.418129c-1.1185913 0.60121155 -2.1654663 1.2193146 -3.1334686 1.8559952c-0.2420044 0.1591568 -0.4790802 0.31948853 -0.71110535 0.48101044c-0.11602783 0.08075714 -0.23077393 0.16181183 -0.34425354 0.24317169l-0.32337952 0.23534393" fill-rule="evenodd"/><path fill="#000000" stroke="#000000" stroke-width="2.0" stroke-linecap="butt" d="m160.83394 96.99565l-1.9807281 9.453407l7.593857 -5.9685364z" fill-rule="evenodd"/><path fill="#000000" fill-opacity="0.0" d="m111.75722 53.59449c0 13.8346405 11.385826 20.751968 22.771652 27.669289c11.3858185 6.9173203 22.771652 13.834648 22.771652 27.669289" fill-rule="evenodd"/><path stroke="#000000" stroke-width="2.0" stroke-linejoin="round" stroke-linecap="butt" d="m111.75722 53.59449c0 13.8346405 11.385826 20.751968 22.771652 27.669289c5.692917 3.458664 11.385834 6.9173203 15.655518 11.240654c1.0674133 1.0808258 2.0458832 2.2156982 2.9131622 3.418129c0.2168274 0.30060577 0.42669678 0.6054306 0.62927246 0.91469574c0.10128784 0.15463257 0.20074463 0.3103714 0.29833984 0.467247l0.0435791 0.07193756" fill-rule="evenodd"/><path fill="#000000" stroke="#000000" stroke-width="2.0" stroke-linecap="butt" d="m150.88733 98.26612l5.625778 7.8511734l0.7370453 -9.630524z" fill-rule="evenodd"/><path fill="#000000" fill-opacity="0.0" d="m157.31102 137.73308l0 21.51181" fill-rule="evenodd"/><path stroke="#000000" stroke-width="2.0" stroke-linejoin="round" stroke-linecap="butt" d="m157.31102 137.73308l0 9.51181" fill-rule="evenodd"/><path fill="#000000" stroke="#000000" stroke-width="2.0" stroke-linecap="butt" d="m154.00755 147.24489l3.3034668 9.076187l3.3034668 -9.076187z" fill-rule="evenodd"/><path fill="#d9d9d9" d="m193.25853 108.93307l24.0 0l0 23.04l-12.0 5.76001l-12.0 -5.76001z" fill-rule="evenodd"/><path stroke="#000000" stroke-width="2.0" stroke-linejoin="round" stroke-linecap="butt" d="m193.25853 108.93307l24.0 0l0 23.04l-12.0 5.76001l-12.0 -5.76001z" fill-rule="evenodd"/><path fill="#000000" d="m198.31535 130.09306l0 -15.906242l4.21875 0l0 1.875l-1.953125 0l0 12.156242l1.953125 0l0 1.875l-4.21875 0zm13.881592 -15.906242l0 15.906242l-4.203125 0l0 -1.875l1.953125 0l0 -12.171867l-1.953125 0l0 -1.859375l4.203125 0z" fill-rule="nonzero"/><path fill="#d9d9d9" d="m241.20604 108.93307l23.999985 0l0 23.04l-11.999985 5.76001l-12.0 -5.76001z" fill-rule="evenodd"/><path stroke="#000000" stroke-width="2.0" stroke-linejoin="round" stroke-linecap="butt" d="m241.20604 108.93307l23.999985 0l0 23.04l-11.999985 5.76001l-12.0 -5.76001z" fill-rule="evenodd"/><path fill="#000000" d="m246.26285 130.09306l0 -15.906242l4.21875 0l0 1.875l-1.953125 0l0 12.156242l1.953125 0l0 1.875l-4.21875 0zm13.881592 -15.906242l0 15.906242l-4.203125 0l0 -1.875l1.953125 0l0 -12.171867l-1.953125 0l0 -1.859375l4.203125 0z" fill-rule="nonzero"/><path fill="#d9d9d9" d="m289.15353 108.93307l24.0 0l0 23.04l-12.0 5.76001l-12.0 -5.76001z" fill-rule="evenodd"/><path stroke="#000000" stroke-width="2.0" stroke-linejoin="round" stroke-linecap="butt" d="m289.15353 108.93307l24.0 0l0 23.04l-12.0 5.76001l-12.0 -5.76001z" fill-rule="evenodd"/><path fill="#000000" d="m294.21036 130.09306l0 -15.906242l4.21875 0l0 1.875l-1.953125 0l0 12.156242l1.953125 0l0 1.875l-4.21875 0zm13.881592 -15.906242l0 15.906242l-4.203125 0l0 -1.875l1.953125 0l0 -12.171867l-1.953125 0l0 -1.859375l4.203125 0z" fill-rule="nonzero"/><path fill="#000000" fill-opacity="0.0" d="m111.75722 53.59449c0 13.8346405 47.34645 20.751968 94.69292 27.669289c47.34645 6.9173203 94.6929 13.834648 94.6929 27.669289" fill-rule="evenodd"/><path stroke="#000000" stroke-width="2.0" stroke-linejoin="round" stroke-linecap="butt" d="m111.75722 53.59449c0 13.8346405 47.34645 20.751968 94.69292 27.669289c23.673218 3.458664 47.34645 6.9173203 65.10138 11.240654c8.877441 2.1616592 16.27533 4.5394897 21.453857 7.2415695l0.25775146 0.13683319" fill-rule="evenodd"/><path fill="#000000" stroke="#000000" stroke-width="2.0" stroke-linecap="butt" d="m290.7717 102.05209l8.4513855 4.6758804l-3.4685364 -9.014397z" fill-rule="evenodd"/><path fill="#000000" fill-opacity="0.0" d="m274.79135 53.59449c0 13.8346405 -17.385834 20.751968 -34.771667 27.669289c-17.385818 6.9173203 -34.771652 13.834648 -34.771652 27.669289" fill-rule="evenodd"/><path stroke="#000000" stroke-width="2.0" stroke-linejoin="round" stroke-linecap="butt" d="m274.79135 53.59449c0 13.8346405 -17.385834 20.751968 -34.771667 27.669289c-8.692917 3.458664 -17.385818 6.9173203 -23.905518 11.240654c-1.6299133 1.0808258 -3.1240082 2.2156982 -4.4483185 3.418129c-0.66215515 0.60121155 -1.2818604 1.2193146 -1.8548889 1.8559952l-0.036392212 0.040985107" fill-rule="evenodd"/><path fill="#000000" stroke="#000000" stroke-width="2.0" stroke-linecap="butt" d="m206.71515 96.57344l-0.3642273 9.651817l6.483078 -7.159607z" fill-rule="evenodd"/><path fill="#000000" fill-opacity="0.0" d="m274.79135 53.59449c0 13.8346405 -5.3937073 20.751968 -10.787415 27.669289c-5.3937073 6.9173203 -10.787399 13.834648 -10.787399 27.669289" fill-rule="evenodd"/><path stroke="#000000" stroke-width="2.0" stroke-linejoin="round" stroke-linecap="butt" d="m274.79135 53.59449c0 13.8346405 -5.3937073 20.751968 -10.787415 27.669289c-2.6968384 3.458664 -5.3937073 6.9173203 -7.4163513 11.240654c-0.50564575 1.0808258 -0.969162 2.2156982 -1.3800049 3.418129c-0.10272217 0.30060577 -0.20214844 0.6054306 -0.29811096 0.91469574l-0.06262207 0.20707703" fill-rule="evenodd"/><path fill="#000000" stroke="#000000" stroke-width="2.0" stroke-linecap="butt" d="m251.574 96.59553l2.0397491 9.440849l4.505905 -8.543243z" fill-rule="evenodd"/><path fill="#000000" fill-opacity="0.0" d="m274.79135 53.59449c0 13.8346405 6.5905457 20.751968 13.181091 27.669289c6.5905457 6.9173203 13.181091 13.834648 13.181091 27.669289" fill-rule="evenodd"/><path stroke="#000000" stroke-width="2.0" stroke-linejoin="round" stroke-linecap="butt" d="m274.79135 53.59449c0 13.8346405 6.5905457 20.751968 13.181091 27.669289c3.295288 3.458664 6.5905457 6.9173203 9.062012 11.240654c0.6178589 1.0808258 1.1842346 2.2156982 1.6862488 3.418129c0.1255188 0.30060577 0.24697876 0.6054306 0.3642578 0.91469574l0.09576416 0.25909424" fill-rule="evenodd"/><path fill="#000000" stroke="#000000" stroke-width="2.0" stroke-linecap="butt" d="m295.92218 97.63945l4.7506714 8.409599l1.7663574 -9.495796z" fill-rule="evenodd"/><path fill="#000000" fill-opacity="0.0" d="m205.25853 137.73308l0 21.51181" fill-rule="evenodd"/><path stroke="#000000" stroke-width="2.0" stroke-linejoin="round" stroke-linecap="butt" d="m205.25853 137.73308l0 9.51181" fill-rule="evenodd"/><path fill="#000000" stroke="#000000" stroke-width="2.0" stroke-linecap="butt" d="m201.95506 147.24489l3.3034668 9.076187l3.3034668 -9.076187z" fill-rule="evenodd"/><path fill="#000000" fill-opacity="0.0" d="m253.20604 137.73308l0 21.51181" fill-rule="evenodd"/><path stroke="#000000" stroke-width="2.0" stroke-linejoin="round" stroke-linecap="butt" d="m253.20604 137.73308l0 9.51181" fill-rule="evenodd"/><path fill="#000000" stroke="#000000" stroke-width="2.0" stroke-linecap="butt" d="m249.90257 147.24489l3.3034668 9.076187l3.3034515 -9.076187z" fill-rule="evenodd"/><path fill="#000000" fill-opacity="0.0" d="m301.15353 137.73308l0 21.51181" fill-rule="evenodd"/><path stroke="#000000" stroke-width="2.0" stroke-linejoin="round" stroke-linecap="butt" d="m301.15353 137.73308l0 9.51181" fill-rule="evenodd"/><path fill="#000000" stroke="#000000" stroke-width="2.0" stroke-linecap="butt" d="m297.85007 147.24489l3.3034668 9.076187l3.3034668 -9.076187z" fill-rule="evenodd"/><path fill="#000000" fill-opacity="0.0" d="m111.75722 53.59449c0 13.8346405 23.377945 20.751968 46.755905 27.669289c23.377945 6.9173203 46.755905 13.834648 46.755905 27.669289" fill-rule="evenodd"/><path stroke="#000000" stroke-width="2.0" stroke-linejoin="round" stroke-linecap="butt" d="m111.75722 53.59449c0 13.8346405 23.37796 20.751968 46.755905 27.669289c11.68898 3.458664 23.37796 6.9173203 32.144684 11.240654c2.191681 1.0808258 4.2007294 2.2156982 5.9814606 3.418129c0.89038086 0.60121155 1.7236786 1.2193146 2.4941864 1.8559952c0.19264221 0.1591568 0.3813324 0.31948853 0.5660248 0.48101044l0.031433105 0.027885437" fill-rule="evenodd"/><path fill="#000000" stroke="#000000" stroke-width="2.0" stroke-linecap="butt" d="m196.8003 99.812035l7.1193695 6.5272293l-1.2581329 -9.576393z" fill-rule="evenodd"/><path fill="#000000" fill-opacity="0.0" d="m111.75722 53.59449c0 13.8346405 35.362198 20.751968 70.72441 27.669289c35.362198 6.9173203 70.72441 13.834648 70.72441 27.669289" fill-rule="evenodd"/><path stroke="#000000" stroke-width="2.0" stroke-linejoin="round" stroke-linecap="butt" d="m111.75722 53.59449c0 13.8346405 35.362198 20.751968 70.72441 27.669289c17.681107 3.458664 35.362198 6.9173203 48.62303 11.240654c3.3152008 1.0808258 6.354141 2.2156982 9.04776 3.418129c1.3468018 0.60121155 2.607254 1.2193146 3.7727509 1.8559952c0.5827637 0.31832886 1.1417847 0.6413193 1.6759644 0.96915436c0.13354492 0.081962585 0.26553345 0.16421509 0.39598083 0.24679565l0.25117493 0.16156006" fill-rule="evenodd"/><path fill="#000000" stroke="#000000" stroke-width="2.0" stroke-linecap="butt" d="m243.5568 101.07146l7.9539948 5.4794464l-2.5709991 -9.310226z" fill-rule="evenodd"/><path fill="#000000" fill-opacity="0.0" d="m80.029015 159.23753l53.322838 0l0 24.0l-53.322838 0z" fill-rule="evenodd"/><path fill="#000000" d="m88.50287 171.31754l-0.9375 0l1.609375 3.296875l1.609375 -3.296875l-0.84375 0l0 -1.359375l3.390625 0l0 1.359375l-1.1875 0l-2.4375 5.0l-1.109375 0l-2.515625 -5.0l-1.203125 0l0 -1.359375l3.625 0l0 1.359375zm10.996902 -1.265625q0.625 0.296875 0.875 0.796875q0.265625 0.5 0.265625 1.46875l0 2.640625l1.125 0l0 1.359375l-2.453125 0l0 -0.6875q-0.640625 0.453125 -1.21875 0.65625q-0.5625 0.203125 -1.21875 0.203125q-0.734375 0 -1.3125 -0.296875q-0.578125 -0.296875 -0.90625 -0.78125q-0.3125 -0.484375 -0.3125 -1.015625q0 -0.578125 0.359375 -1.109375q0.359375 -0.53125 1.09375 -0.859375q0.75 -0.328125 1.828125 -0.328125q0.53125 0 1.6875 0.09375l0 -0.140625q0 -0.484375 -0.359375 -0.703125q-0.34375 -0.234375 -1.078125 -0.234375q-1.09375 0 -2.515625 0.578125l-0.53125 -1.171875q1.828125 -0.765625 3.125 -0.765625q0.890625 0 1.546875 0.296875zm-2.640625 5.078125q1.25 0 2.453125 -1.125l0 -0.4375l-0.359375 -0.03125q-0.125 -0.015625 -0.578125 -0.046875q-0.453125 -0.046875 -0.84375 -0.046875q-0.75 0 -1.296875 0.265625q-0.53125 0.25 -0.53125 0.6875q0 0.328125 0.328125 0.53125q0.34375 0.203125 0.828125 0.203125zm10.543777 -0.171875l2.4375 0l0 1.359375l-6.21875 0l0 -1.359375l2.421875 0l0 -6.375l-2.3125 0l0 -1.375l3.671875 0l0 7.75zm6.48127 -0.890625q0 0.53125 0.3125 0.8125q0.3125 0.28125 0.90625 0.28125q0.53125 0 0.953125 -0.203125q0.4375 -0.203125 0.953125 -0.6875l0 -2.953125l-1.109375 0l0 -1.359375l2.453125 0l0 5.0l1.125 0l0 1.359375l-2.46875 0l0 -0.453125q-0.96875 0.625 -1.9375 0.625q-0.859375 0 -1.6875 -0.453125q-0.828125 -0.46875 -0.828125 -1.828125l0 -2.890625l-1.1406174 0l0 -1.359375l2.4687424 0l0 4.109375zm13.934402 -1.296875q0 0.5 -0.03125 0.96875l-5.59375 0q0.125 0.65625 0.71875 1.03125q0.59375 0.375 1.5625 0.375q1.359375 0 2.984375 -0.84375l0.6093826 1.125q-0.8750076 0.53125 -1.7968826 0.796875q-0.921875 0.265625 -1.796875 0.265625q-1.09375 0 -1.921875 -0.421875q-0.8125 -0.4375 -1.265625 -1.1875q-0.453125 -0.765625 -0.453125 -1.71875q0 -1.0 0.5 -1.765625q0.5 -0.78125 1.3125 -1.203125q0.828125 -0.421875 1.796875 -0.421875q0.921875 0 1.6875 0.390625q0.78125 0.375 1.234375 1.0625q0.453125 0.6875 0.453125 1.546875zm-3.453125 -1.640625q-0.703125 0 -1.28125 0.328125q-0.5625 0.3125 -0.78125 0.921875l4.203125 0q-0.109375 -0.5625 -0.671875 -0.90625q-0.546875 -0.34375 -1.46875 -0.34375z" fill-rule="nonzero"/><path fill="#000000" fill-opacity="0.0" d="m133.34251 183.23753l47.93701 0l0 24.0l-47.93701 0z" fill-rule="evenodd"/><path stroke="#000000" stroke-width="1.0" stroke-linejoin="round" stroke-linecap="butt" stroke-dasharray="4.0,3.0" d="m133.34251 183.23753l47.93701 0l0 24.0l-47.93701 0z" fill-rule="evenodd"/><path fill="#000000" d="m150.59851 200.42316l1.046875 0l0 1.734375l-4.359375 0l0 -1.734375l1.5625 0l-0.546875 -1.265625l-4.328125 0l-0.546875 1.265625l1.609375 0l0 1.734375l-4.4375 0l0 -1.734375l1.09375 0l3.046875 -7.203125l-2.296875 0l0 -1.734375l4.5 0l3.65625 8.9375zm-2.984375 -3.0l-1.453125 -3.453125l-1.46875 3.453125l2.921875 0zm10.568756 -0.25l3.171875 0l0 1.734375l-3.171875 0l0 3.1875l-1.734375 0l0 -3.1875l-3.171875 0l0 -1.734375l3.171875 0l0 -3.1875l1.734375 0l0 3.1875zm14.084381 -0.59375q0 2.796875 -0.96875 4.296875q-0.953125 1.5 -2.78125 1.5q-1.828125 0 -2.796875 -1.515625q-0.96875 -1.515625 -0.96875 -4.28125q0 -2.8125 0.984375 -4.328125q0.984375 -1.515625 2.828125 -1.515625q1.90625 0 2.796875 1.578125q0.90625 1.5625 0.90625 4.265625zm-3.703125 4.078125q0.984375 0 1.5 -1.046875q0.515625 -1.046875 0.515625 -3.0q0 -2.03125 -0.53125 -3.09375q-0.515625 -1.0625 -1.546875 -1.0625q-1.0 0 -1.515625 1.0625q-0.515625 1.0625 -0.515625 3.0625q0 4.078125 2.09375 4.078125z" fill-rule="nonzero"/><path fill="#000000" fill-opacity="0.0" d="m181.28995 183.23753l47.93701 0l0 24.0l-47.93701 0z" fill-rule="evenodd"/><path stroke="#000000" stroke-width="1.0" stroke-linejoin="round" stroke-linecap="butt" stroke-dasharray="4.0,3.0" d="m181.28995 183.23753l47.93701 0l0 24.0l-47.93701 0z" fill-rule="evenodd"/><path fill="#000000" d="m198.54594 200.42316l1.046875 0l0 1.734375l-4.359375 0l0 -1.734375l1.5625 0l-0.546875 -1.265625l-4.328125 0l-0.546875 1.265625l1.609375 0l0 1.734375l-4.4375 0l0 -1.734375l1.09375 0l3.046875 -7.203125l-2.296875 0l0 -1.734375l4.5 0l3.65625 8.9375zm-2.984375 -3.0l-1.453125 -3.453125l-1.46875 3.453125l2.921875 0zm10.568756 -0.25l3.171875 0l0 1.734375l-3.171875 0l0 3.1875l-1.734375 0l0 -3.1875l-3.171875 0l0 -1.734375l3.171875 0l0 -3.1875l1.734375 0l0 3.1875zm14.600006 3.25l0 1.734375l-8.125 0l0 -1.734375l3.234375 0l0 -7.6875l-3.15625 0.640625l0 -1.703125l4.890625 -0.984375l0 9.734375l3.15625 0z" fill-rule="nonzero"/><path fill="#000000" fill-opacity="0.0" d="m229.23738 183.23753l47.936996 0l0 24.0l-47.936996 0z" fill-rule="evenodd"/><path stroke="#000000" stroke-width="1.0" stroke-linejoin="round" stroke-linecap="butt" stroke-dasharray="4.0,3.0" d="m229.23738 183.23753l47.936996 0l0 24.0l-47.936996 0z" fill-rule="evenodd"/><path fill="#000000" d="m246.49338 200.42316l1.046875 0l0 1.734375l-4.359375 0l0 -1.734375l1.5625 0l-0.546875 -1.265625l-4.328125 0l-0.546875 1.265625l1.609375 0l0 1.734375l-4.4375 0l0 -1.734375l1.09375 0l3.046875 -7.203125l-2.296875 0l0 -1.734375l4.5 0l3.65625 8.9375zm-2.984375 -3.0l-1.453125 -3.453125l-1.46875 3.453125l2.921875 0zm10.568756 -0.25l3.171875 0l0 1.734375l-3.171875 0l0 3.1875l-1.734375 0l0 -3.1875l-3.171875 0l0 -1.734375l3.171875 0l0 -3.1875l1.734375 0l0 3.1875zm13.725006 -3.0q0 0.90625 -0.296875 1.546875q-0.296875 0.640625 -0.9375 1.296875q-0.640625 0.640625 -2.21875 2.078125l-1.4375 1.3125l3.234375 0l0 -1.234375l1.65625 0l0 2.984375l-7.65625 0l0 -1.453125l4.90625 -4.34375q0.484375 -0.4375 0.78125 -0.9375q0.3125 -0.515625 0.3125 -1.078125q0 -0.84375 -0.59375 -1.359375q-0.59375 -0.53125 -1.46875 -0.53125q-0.6875 0 -1.28125 0.34375q-0.578125 0.328125 -0.578125 1.0l0 0.3125l-1.71875 0l0 -1.640625q0.703125 -0.859375 1.625 -1.296875q0.921875 -0.453125 1.984375 -0.453125q1.015625 0 1.84375 0.4375q0.84375 0.421875 1.34375 1.203125q0.5 0.78125 0.5 1.8125z" fill-rule="nonzero"/><path fill="#000000" fill-opacity="0.0" d="m277.1848 183.23753l47.93701 0l0 24.0l-47.93701 0z" fill-rule="evenodd"/><path stroke="#000000" stroke-width="1.0" stroke-linejoin="round" stroke-linecap="butt" stroke-dasharray="4.0,3.0" d="m277.1848 183.23753l47.93701 0l0 24.0l-47.93701 0z" fill-rule="evenodd"/><path fill="#000000" d="m294.44083 200.42316l1.046875 0l0 1.734375l-4.359375 0l0 -1.734375l1.5625 0l-0.546875 -1.265625l-4.328125 0l-0.546875 1.265625l1.609375 0l0 1.734375l-4.4375 0l0 -1.734375l1.09375 0l3.046875 -7.203125l-2.296875 0l0 -1.734375l4.5 0l3.65625 8.9375zm-2.984375 -3.0l-1.453125 -3.453125l-1.46875 3.453125l2.921875 0zm10.568756 -0.25l3.171875 0l0 1.734375l-3.171875 0l0 3.1875l-1.734375 0l0 -3.1875l-3.171875 0l0 -1.734375l3.171875 0l0 -3.1875l1.734375 0l0 3.1875zm13.193756 -3.421875q0 0.734375 -0.25 1.3125q-0.25 0.5625 -0.875 1.109375q0.9375 0.609375 1.296875 1.234375q0.359375 0.609375 0.359375 1.515625q0 1.09375 -0.53125 1.875q-0.515625 0.78125 -1.390625 1.1875q-0.859375 0.390625 -1.859375 0.390625q-0.875 0 -1.578125 -0.171875q-0.6875 -0.171875 -2.359375 -0.84375l0.640625 -1.453125q1.53125 0.53125 2.0 0.640625q0.46875 0.109375 1.09375 0.109375q0.984375 0 1.625 -0.5q0.65625 -0.5 0.65625 -1.296875q0 -0.8125 -0.59375 -1.234375q-0.578125 -0.4375 -1.625 -0.4375l-0.9375 0l0 -1.703125l0.25 0q2.359375 0 2.359375 -1.5625q0 -0.671875 -0.484375 -1.0625q-0.484375 -0.390625 -1.234375 -0.390625q-0.578125 0 -1.171875 0.234375q-0.578125 0.21875 -1.453125 0.71875l-0.84375 -1.34375q1.109375 -0.75 1.890625 -1.046875q0.78125 -0.296875 1.5625 -0.296875q0.890625 0 1.6875 0.359375q0.796875 0.359375 1.28125 1.046875q0.484375 0.671875 0.484375 1.609375z" fill-rule="nonzero"/><path fill="#000000" fill-opacity="0.0" d="m80.00802 183.23753l53.322838 0l0 24.0l-53.322838 0z" fill-rule="evenodd"/><path fill="#000000" d="m95.08189 194.05191q0.625 0.296875 0.875 0.796875q0.265625 0.5 0.265625 1.46875l0 2.640625l1.125 0l0 1.359375l-2.453125 0l0 -0.6875q-0.640625 0.453125 -1.21875 0.65625q-0.5625 0.203125 -1.21875 0.203125q-0.734375 0 -1.3125 -0.296875q-0.578125 -0.296875 -0.90625 -0.78125q-0.3125 -0.484375 -0.3125 -1.015625q0 -0.578125 0.359375 -1.109375q0.359375 -0.53125 1.09375 -0.859375q0.75 -0.328125 1.828125 -0.328125q0.53125 0 1.6875 0.09375l0 -0.140625q0 -0.484375 -0.359375 -0.703125q-0.34375 -0.234375 -1.078125 -0.234375q-1.09375 0 -2.515625 0.578125l-0.53125 -1.171875q1.828125 -0.765625 3.125 -0.765625q0.890625 0 1.546875 0.296875zm-2.640625 5.078125q1.25 0 2.453125 -1.125l0 -0.4375l-0.359375 -0.03125q-0.125 -0.015625 -0.578125 -0.046875q-0.453125 -0.046875 -0.84375 -0.046875q-0.75 0 -1.296875 0.265625q-0.53125 0.25 -0.53125 0.6875q0 0.328125 0.328125 0.53125q0.34375 0.203125 0.828125 0.203125zm12.965652 -0.171875l1.109375 0l0 1.359375l-2.421875 0l0 -0.53125q-0.421875 0.34375 -0.96875 0.53125q-0.53125 0.171875 -1.109375 0.171875q-0.953125 0 -1.765625 -0.4375q-0.796875 -0.453125 -1.265625 -1.21875q-0.453125 -0.765625 -0.453125 -1.703125q0 -0.90625 0.453125 -1.671875q0.453125 -0.78125 1.234375 -1.234375q0.796875 -0.46875 1.734375 -0.46875q0.609375 0 1.15625 0.1875q0.5625 0.171875 0.953125 0.53125l0 -1.890625l-1.75 0l0 -1.375l3.09375 0l0 7.75zm-3.421875 0.171875q0.859375 0 1.46875 -0.515625q0.609375 -0.515625 0.609375 -1.46875q0 -0.96875 -0.609375 -1.5q-0.59375 -0.53125 -1.453125 -0.53125q-0.59375 0 -1.078125 0.265625q-0.46875 0.265625 -0.75 0.71875q-0.28125 0.453125 -0.28125 1.015625q0 0.53125 0.28125 1.0q0.296875 0.46875 0.765625 0.75q0.484375 0.265625 1.046875 0.265625zm12.215645 -0.171875l1.109375 0l0 1.359375l-2.421875 0l0 -0.53125q-0.421875 0.34375 -0.9687424 0.53125q-0.53125 0.171875 -1.109375 0.171875q-0.953125 0 -1.765625 -0.4375q-0.796875 -0.453125 -1.265625 -1.21875q-0.453125 -0.765625 -0.453125 -1.703125q0 -0.90625 0.453125 -1.671875q0.453125 -0.78125 1.234375 -1.234375q0.796875 -0.46875 1.734375 -0.46875q0.609375 0 1.15625 0.1875q0.5624924 0.171875 0.9531174 0.53125l0 -1.890625l-1.7499924 0l0 -1.375l3.0937424 0l0 7.75zm-3.4218674 0.171875q0.859375 0 1.4687424 -0.515625q0.609375 -0.515625 0.609375 -1.46875q0 -0.96875 -0.609375 -1.5q-0.5937424 -0.53125 -1.4531174 -0.53125q-0.59375 0 -1.078125 0.265625q-0.46875 0.265625 -0.75 0.71875q-0.28125 0.453125 -0.28125 1.015625q0 0.53125 0.28125 1.0q0.296875 0.46875 0.765625 0.75q0.484375 0.265625 1.046875 0.265625zm13.028145 -3.703125l-1.296875 0.203125q-0.03125 -0.3125 -0.125 -0.40625q-0.09375 -0.109375 -0.34375 -0.109375q-0.8125 0 -2.625 1.515625l0 2.328125l2.671875 0l0 1.359375l-5.59375 0l0 -1.359375l1.5625 0l0 -3.640625l-1.578125 0l0 -1.359375l2.9375 0l0 1.03125q0.8125 -0.671875 1.421875 -0.953125q0.625 -0.28125 1.203125 -0.28125q1.609375 0 1.765625 1.671875z" fill-rule="nonzero"/></g></svg>