<svg version="1.1" viewBox="0.0 0.0 671.509186351706 262.01049868766404" fill="none" stroke="none" stroke-linecap="square" stroke-miterlimit="10" xmlns:xlink="http://www.w3.org/1999/xlink" xmlns="http://www.w3.org/2000/svg"><clipPath id="p.0"><path d="m0 0l671.5092 0l0 262.0105l-671.5092 0l0 -262.0105z" clip-rule="nonzero"/></clipPath><g clip-path="url(#p.0)"><path fill="#000000" fill-opacity="0.0" d="m0 0l671.5092 0l0 262.0105l-671.5092 0z" fill-rule="evenodd"/><path fill="#ffffff" d="m0 -0.018372703l671.49603 0l0 262.01575l-671.49603 0z" fill-rule="evenodd"/><path stroke="#000000" stroke-width="1.0" stroke-linejoin="round" stroke-linecap="butt" d="m0 -0.018372703l671.49603 0l0 262.01575l-671.49603 0z" fill-rule="evenodd"/><path fill="#d9d9d9" d="m158.55249 166.24147l318.96063 0l0 77.76378l-318.96063 0z" fill-rule="evenodd"/><path stroke="#000000" stroke-width="2.0" stroke-linejoin="round" stroke-linecap="butt" d="m158.55249 166.24147l318.96063 0l0 77.76378l-318.96063 0z" fill-rule="evenodd"/><path fill="#000000" d="m276.2734 235.81587l6.390625 2.640625l0 1.625l-8.046875 -3.234375l0 -2.03125l8.046875 -3.21875l0 1.625l-6.390625 2.59375zm13.943756 -1.25l2.015625 -5.3125l3.640625 0l0 1.734375l-1.453125 0l0.25 7.203125l1.0 0l0 1.734375l-4.453125 0l0 -1.734375l1.734375 0l-0.265625 -5.890625l-1.96875 5.25l-1.109375 0l-1.890625 -5.296875l-0.296875 5.9375l1.765625 0l0 1.734375l-4.53125 0l0 -1.734375l1.03125 0l0.296875 -7.203125l-1.40625 0l0 -1.734375l3.71875 0l1.921875 5.3125zm15.709381 -1.359375l-1.734375 0l0 -2.21875l-4.46875 0l0 2.65625l1.984375 0l0 -1.234375l1.734375 0l0 4.171875l-1.734375 0l0 -1.234375l-1.984375 0l0 2.84375l4.46875 0l0 -2.171875l1.734375 0l0 3.90625l-9.390625 0l0 -1.734375l1.484375 0l0 -7.203125l-1.4375 0l0 -1.734375l9.34375 0l0 3.953125zm6.678131 1.359375l2.015625 -5.3125l3.640625 0l0 1.734375l-1.453125 0l0.25 7.203125l1.0 0l0 1.734375l-4.453125 0l0 -1.734375l1.734375 0l-0.265625 -5.890625l-1.96875 5.25l-1.109375 0l-1.890625 -5.296875l-0.296875 5.9375l1.765625 0l0 1.734375l-4.53125 0l0 -1.734375l1.03125 0l0.296875 -7.203125l-1.40625 0l0 -1.734375l3.71875 0l1.921875 5.3125zm15.990631 0.046875q0 1.765625 -0.71875 3.015625q-0.703125 1.25 -1.84375 1.890625q-1.140625 0.625 -2.359375 0.625q-1.34375 0 -2.484375 -0.65625q-1.140625 -0.65625 -1.8125 -1.90625q-0.671875 -1.25 -0.671875 -2.9375q0 -1.53125 0.625 -2.8125q0.640625 -1.296875 1.765625 -2.03125q1.140625 -0.75 2.578125 -0.75q1.453125 0 2.578125 0.765625q1.125 0.765625 1.734375 2.03125q0.609375 1.265625 0.609375 2.765625zm-4.921875 3.84375q1.0 0 1.71875 -0.546875q0.734375 -0.5625 1.109375 -1.46875q0.390625 -0.90625 0.390625 -1.90625q0 -0.9375 -0.390625 -1.796875q-0.375 -0.875 -1.109375 -1.40625q-0.734375 -0.546875 -1.75 -0.546875q-0.90625 0 -1.640625 0.53125q-0.734375 0.53125 -1.140625 1.40625q-0.40625 0.859375 -0.40625 1.875q0 1.03125 0.390625 1.921875q0.390625 0.890625 1.125 1.421875q0.75 0.515625 1.703125 0.515625zm15.271881 -6.0625q0 1.125 -0.640625 1.890625q-0.625 0.765625 -1.84375 1.0625l2.15625 2.84375l1.390625 0l0 1.734375l-2.5 0q-0.421875 -0.953125 -1.125 -1.921875l-1.671875 -2.3125l-1.4375 0l0 2.5l1.375 0l0 1.734375l-4.5625 0l0 -1.734375l1.46875 0l0 -7.203125l-1.390625 0l0 -1.734375l5.328125 0q1.78125 0 2.609375 0.921875q0.84375 0.90625 0.84375 2.21875zm-1.703125 0.015625q0 -0.71875 -0.40625 -1.0625q-0.40625 -0.359375 -1.171875 -0.359375l-2.390625 0l0 2.96875l1.796875 0q1.09375 0 1.625 -0.375q0.546875 -0.390625 0.546875 -1.171875zm7.959381 -1.421875l-0.96875 0l1.875 3.15625l1.90625 -3.15625l-1.015625 0l0 -1.734375l4.296875 0l0 1.734375l-1.4375 0l-2.90625 4.8125l0 2.390625l2.21875 0l0 1.734375l-6.21875 0l0 -1.734375l2.265625 0l0 -2.390625l-2.90625 -4.8125l-1.40625 0l0 -1.734375l4.296875 0l0 1.734375zm16.475006 3.828125l0 2.03125l-8.046875 3.234375l0 -1.625l6.359375 -2.640625l-6.359375 -2.59375l0 -1.625l8.046875 3.21875z" fill-rule="nonzero"/><path fill="#000000" fill-opacity="0.0" d="m160.70486 173.22704l53.322845 0l0 24.0l-53.322845 0z" fill-rule="evenodd"/><path fill="#000000" d="m169.17873 185.30704l-0.9375 0l1.609375 3.296875l1.609375 -3.296875l-0.84375 0l0 -1.359375l3.390625 0l0 1.359375l-1.1875 0l-2.4375 5.0l-1.109375 0l-2.515625 -5.0l-1.203125 0l0 -1.359375l3.625 0l0 1.359375zm10.996902 -1.265625q0.625 0.296875 0.875 0.796875q0.265625 0.5 0.265625 1.46875l0 2.640625l1.125 0l0 1.359375l-2.453125 0l0 -0.6875q-0.640625 0.453125 -1.21875 0.65625q-0.5625 0.203125 -1.21875 0.203125q-0.734375 0 -1.3125 -0.296875q-0.578125 -0.296875 -0.90625 -0.78125q-0.3125 -0.484375 -0.3125 -1.015625q0 -0.578125 0.359375 -1.109375q0.359375 -0.53125 1.09375 -0.859375q0.75 -0.328125 1.828125 -0.328125q0.53125 0 1.6875 0.09375l0 -0.140625q0 -0.484375 -0.359375 -0.703125q-0.34375 -0.234375 -1.078125 -0.234375q-1.09375 0 -2.515625 0.578125l-0.53125 -1.171875q1.828125 -0.765625 3.125 -0.765625q0.890625 0 1.546875 0.296875zm-2.640625 5.078125q1.25 0 2.453125 -1.125l0 -0.4375l-0.359375 -0.03125q-0.125 -0.015625 -0.578125 -0.046875q-0.453125 -0.046875 -0.84375 -0.046875q-0.75 0 -1.296875 0.265625q-0.53125 0.25 -0.53125 0.6875q0 0.328125 0.328125 0.53125q0.34375 0.203125 0.828125 0.203125zm10.543777 -0.171875l2.4375 0l0 1.359375l-6.21875 0l0 -1.359375l2.421875 0l0 -6.375l-2.3125 0l0 -1.375l3.671875 0l0 7.75zm6.481262 -0.890625q0 0.53125 0.3125 0.8125q0.3125 0.28125 0.90625 0.28125q0.53125 0 0.953125 -0.203125q0.4375 -0.203125 0.953125 -0.6875l0 -2.953125l-1.109375 0l0 -1.359375l2.453125 0l0 5.0l1.125 0l0 1.359375l-2.46875 0l0 -0.453125q-0.96875 0.625 -1.9375 0.625q-0.859375 0 -1.6875 -0.453125q-0.828125 -0.46875 -0.828125 -1.828125l0 -2.890625l-1.1406097 0l0 -1.359375l2.4687347 0l0 4.109375zm13.934402 -1.296875q0 0.5 -0.03125 0.96875l-5.59375 0q0.125 0.65625 0.71875 1.03125q0.59375 0.375 1.5625 0.375q1.359375 0 2.984375 -0.84375l0.609375 1.125q-0.875 0.53125 -1.796875 0.796875q-0.921875 0.265625 -1.796875 0.265625q-1.09375 0 -1.921875 -0.421875q-0.8125 -0.4375 -1.265625 -1.1875q-0.453125 -0.765625 -0.453125 -1.71875q0 -1.0 0.5 -1.765625q0.5 -0.78125 1.3125 -1.203125q0.828125 -0.421875 1.796875 -0.421875q0.921875 0 1.6875 0.390625q0.78125 0.375 1.234375 1.0625q0.453125 0.6875 0.453125 1.546875zm-3.453125 -1.640625q-0.703125 0 -1.28125 0.328125q-0.5625 0.3125 -0.78125 0.921875l4.203125 0q-0.109375 -0.5625 -0.671875 -0.90625q-0.546875 -0.34375 -1.46875 -0.34375z" fill-rule="nonzero"/><path fill="#000000" fill-opacity="0.0" d="m214.02008 197.22835l62.834656 0l0 24.0l-62.834656 0z" fill-rule="evenodd"/><path stroke="#000000" stroke-width="1.0" stroke-linejoin="round" stroke-linecap="butt" stroke-dasharray="4.0,3.0" d="m214.02008 197.22835l62.834656 0l0 24.0l-62.834656 0z" fill-rule="evenodd"/><path fill="#000000" d="m227.6249 209.07022q0 1.0 -0.484375 1.78125q-0.46875 0.78125 -1.296875 1.21875q-0.828125 0.4375 -1.828125 0.4375l-2.25 0l0 1.90625l2.265625 0l0 1.734375l-5.453125 0l0 -1.734375l1.46875 0l0 -7.203125l-1.453125 0l0 -1.734375l4.921875 0q1.9375 0 3.015625 0.953125q1.09375 0.953125 1.09375 2.640625zm-1.71875 -0.046875q0 -0.828125 -0.609375 -1.3125q-0.609375 -0.5 -1.78125 -0.5l-1.75 0l0 3.5625l1.9375 0q2.203125 0 2.203125 -1.75zm9.209381 2.140625l3.171875 0l0 1.734375l-3.171875 0l0 3.1875l-1.734375 0l0 -3.1875l-3.171875 0l0 -1.734375l3.171875 0l0 -3.1875l1.734375 0l0 3.1875zm14.803131 3.25l1.046875 0l0 1.734375l-4.359375 0l0 -1.734375l1.5625 0l-0.546875 -1.265625l-4.328125 0l-0.546875 1.265625l1.609375 0l0 1.734375l-4.4375 0l0 -1.734375l1.09375 0l3.046875 -7.203125l-2.296875 0l0 -1.734375l4.5 0l3.65625 8.9375zm-2.984375 -3.0l-1.453125 -3.453125l-1.46875 3.453125l2.921875 0zm10.568741 -3.40625l2.28125 -0.90625l0.640625 1.859375l-2.34375 0.640625l1.4375 1.953125l-1.546875 1.140625l-1.375 -2.0625l-1.4062347 2.078125l-1.546875 -1.140625l1.453125 -1.96875l-2.390625 -0.609375l0.65625 -1.890625l2.3125 0.90625l-0.109375 -2.5l2.0468597 0l-0.109375 2.5zm14.146881 -1.296875l-5.6875 7.703125l4.375 0l0 -2.625l1.71875 0l0 4.359375l-8.40625 0l0 -1.328125l5.609375 -7.609375l-3.828125 0l0 2.359375l-1.703125 0l0 -4.09375l7.921875 0l0 1.234375z" fill-rule="nonzero"/><path fill="#000000" fill-opacity="0.0" d="m276.88242 197.22835l62.834656 0l0 24.0l-62.834656 0z" fill-rule="evenodd"/><path stroke="#000000" stroke-width="1.0" stroke-linejoin="round" stroke-linecap="butt" stroke-dasharray="4.0,3.0" d="m276.88242 197.22835l62.834656 0l0 24.0l-62.834656 0z" fill-rule="evenodd"/><path fill="#000000" d="m290.48724 209.07022q0 1.0 -0.484375 1.78125q-0.46875 0.78125 -1.296875 1.21875q-0.828125 0.4375 -1.828125 0.4375l-2.25 0l0 1.90625l2.265625 0l0 1.734375l-5.453125 0l0 -1.734375l1.46875 0l0 -7.203125l-1.453125 0l0 -1.734375l4.921875 0q1.9375 0 3.015625 0.953125q1.09375 0.953125 1.09375 2.640625zm-1.71875 -0.046875q0 -0.828125 -0.609375 -1.3125q-0.609375 -0.5 -1.78125 -0.5l-1.75 0l0 3.5625l1.9375 0q2.203125 0 2.203125 -1.75zm9.209381 2.140625l3.171875 0l0 1.734375l-3.171875 0l0 3.1875l-1.734375 0l0 -3.1875l-3.171875 0l0 -1.734375l3.171875 0l0 -3.1875l1.734375 0l0 3.1875zm14.443756 -2.78125q0 0.640625 -0.28125 1.203125q-0.265625 0.5625 -0.78125 0.96875q0.984375 0.5625 1.34375 1.1875q0.359375 0.625 0.359375 1.390625q0 0.875 -0.46875 1.5625q-0.453125 0.6875 -1.234375 1.078125q-0.78125 0.375 -1.765625 0.375l-6.21875 0l0 -1.734375l1.453125 0l0 -7.203125l-1.453125 0l0 -1.734375l5.5 0q1.609375 0 2.578125 0.8125q0.96875 0.8125 0.96875 2.09375zm-1.703125 0.0625q0 -0.546875 -0.453125 -0.890625q-0.453125 -0.34375 -1.1875 -0.34375l-2.53125 0l0 2.5625l2.421875 0q0.71875 0 1.234375 -0.34375q0.515625 -0.359375 0.515625 -0.984375zm0.625 4.5625q0 -0.734375 -0.65625 -1.109375q-0.65625 -0.390625 -1.890625 -0.390625l-2.25 0l0 2.90625l3.09375 0q0.671875 0 1.1875 -0.375q0.515625 -0.375 0.515625 -1.03125zm9.021881 -5.0l2.28125 -0.90625l0.640625 1.859375l-2.34375 0.640625l1.4375 1.953125l-1.546875 1.140625l-1.375 -2.0625l-1.40625 2.078125l-1.546875 -1.140625l1.453125 -1.96875l-2.390625 -0.609375l0.65625 -1.890625l2.3125 0.90625l-0.109375 -2.5l2.046875 0l-0.109375 2.5zm14.146881 -1.296875l-5.6875 7.703125l4.375 0l0 -2.625l1.71875 0l0 4.359375l-8.40625 0l0 -1.328125l5.609375 -7.609375l-3.828125 0l0 2.359375l-1.703125 0l0 -4.09375l7.921875 0l0 1.234375z" fill-rule="nonzero"/><path fill="#000000" fill-opacity="0.0" d="m339.74478 197.22835l62.834625 0l0 24.0l-62.834625 0z" fill-rule="evenodd"/><path stroke="#000000" stroke-width="1.0" stroke-linejoin="round" stroke-linecap="butt" stroke-dasharray="4.0,3.0" d="m339.74478 197.22835l62.834625 0l0 24.0l-62.834625 0z" fill-rule="evenodd"/><path fill="#000000" d="m353.34958 209.07022q0 1.0 -0.484375 1.78125q-0.46875 0.78125 -1.296875 1.21875q-0.828125 0.4375 -1.828125 0.4375l-2.25 0l0 1.90625l2.265625 0l0 1.734375l-5.453125 0l0 -1.734375l1.46875 0l0 -7.203125l-1.453125 0l0 -1.734375l4.921875 0q1.9375 0 3.015625 0.953125q1.09375 0.953125 1.09375 2.640625zm-1.71875 -0.046875q0 -0.828125 -0.609375 -1.3125q-0.609375 -0.5 -1.78125 -0.5l-1.75 0l0 3.5625l1.9375 0q2.203125 0 2.203125 -1.75zm9.209381 2.140625l3.171875 0l0 1.734375l-3.171875 0l0 3.1875l-1.734375 0l0 -3.1875l-3.171875 0l0 -1.734375l3.171875 0l0 -3.1875l1.734375 0l0 3.1875zm13.537506 -5.109375l0 -0.78125l1.703125 0l0 4.34375l-1.703125 0l0 -1.765625q-1.390625 -0.875 -2.734375 -0.875q-0.890625 0 -1.671875 0.453125q-0.765625 0.453125 -1.234375 1.3125q-0.46875 0.859375 -0.46875 2.03125q0 1.75 0.90625 2.8125q0.90625 1.0625 2.515625 1.0625q0.796875 0 1.671875 -0.296875q0.890625 -0.3125 1.734375 -0.90625l1.046875 1.265625q-0.796875 0.75 -2.125 1.203125q-1.328125 0.453125 -2.296875 0.453125q-2.390625 0 -3.859375 -1.71875q-0.625 -0.703125 -0.984375 -1.796875q-0.34375 -1.09375 -0.34375 -2.09375q0 -1.5625 0.671875 -2.8125q0.671875 -1.25 1.828125 -1.953125q1.15625 -0.71875 2.59375 -0.71875q0.78125 0 1.5 0.21875q0.734375 0.203125 1.25 0.5625zm8.850006 1.953125l2.28125 -0.90625l0.640625 1.859375l-2.34375 0.640625l1.4375 1.953125l-1.546875 1.140625l-1.375 -2.0625l-1.40625 2.078125l-1.546875 -1.140625l1.453125 -1.96875l-2.390625 -0.609375l0.65625 -1.890625l2.3125 0.90625l-0.109375 -2.5l2.046875 0l-0.109375 2.5zm14.146881 -1.296875l-5.6875 7.703125l4.375 0l0 -2.625l1.71875 0l0 4.359375l-8.40625 0l0 -1.328125l5.609375 -7.609375l-3.828125 0l0 2.359375l-1.703125 0l0 -4.09375l7.921875 0l0 1.234375z" fill-rule="nonzero"/><path fill="#000000" fill-opacity="0.0" d="m402.60712 197.22835l62.834625 0l0 24.0l-62.834625 0z" fill-rule="evenodd"/><path stroke="#000000" stroke-width="1.0" stroke-linejoin="round" stroke-linecap="butt" stroke-dasharray="4.0,3.0" d="m402.60712 197.22835l62.834625 0l0 24.0l-62.834625 0z" fill-rule="evenodd"/><path fill="#000000" d="m416.2119 209.07022q0 1.0 -0.484375 1.78125q-0.46875 0.78125 -1.296875 1.21875q-0.828125 0.4375 -1.828125 0.4375l-2.25 0l0 1.90625l2.265625 0l0 1.734375l-5.453125 0l0 -1.734375l1.46875 0l0 -7.203125l-1.453125 0l0 -1.734375l4.921875 0q1.9375 0 3.015625 0.953125q1.09375 0.953125 1.09375 2.640625zm-1.71875 -0.046875q0 -0.828125 -0.609375 -1.3125q-0.609375 -0.5 -1.78125 -0.5l-1.75 0l0 3.5625l1.9375 0q2.203125 0 2.203125 -1.75zm9.209381 2.140625l3.171875 0l0 1.734375l-3.171875 0l0 3.1875l-1.734375 0l0 -3.1875l-3.171875 0l0 -1.734375l3.171875 0l0 -3.1875l1.734375 0l0 3.1875zm15.225006 -0.5625q0 2.75 -1.34375 4.15625q-1.34375 1.390625 -3.78125 1.390625l-4.890625 0l0 -1.734375l1.46875 0l0 -7.203125l-1.46875 0l0 -1.734375l5.375 0q1.484375 0 2.53125 0.671875q1.046875 0.65625 1.578125 1.8125q0.53125 1.15625 0.53125 2.640625zm-1.71875 0.078125q0 -1.65625 -0.78125 -2.5625q-0.78125 -0.90625 -2.140625 -0.90625l-2.1875 0l0 7.203125l2.0625 0q1.265625 0 2.15625 -0.875q0.890625 -0.875 0.890625 -2.859375zm8.881256 -2.671875l2.28125 -0.90625l0.640625 1.859375l-2.34375 0.640625l1.4375 1.953125l-1.546875 1.140625l-1.375 -2.0625l-1.40625 2.078125l-1.546875 -1.140625l1.453125 -1.96875l-2.390625 -0.609375l0.65625 -1.890625l2.3125 0.90625l-0.109375 -2.5l2.046875 0l-0.109375 2.5zm14.146881 -1.296875l-5.6875 7.703125l4.375 0l0 -2.625l1.71875 0l0 4.359375l-8.40625 0l0 -1.328125l5.609375 -7.609375l-3.828125 0l0 2.359375l-1.703125 0l0 -4.09375l7.921875 0l0 1.234375z" fill-rule="nonzero"/><path fill="#000000" fill-opacity="0.0" d="m160.68387 197.22704l53.322845 0l0 24.0l-53.322845 0z" fill-rule="evenodd"/><path fill="#000000" d="m175.75774 208.04141q0.625 0.296875 0.875 0.796875q0.265625 0.5 0.265625 1.46875l0 2.640625l1.125 0l0 1.359375l-2.453125 0l0 -0.6875q-0.640625 0.453125 -1.21875 0.65625q-0.5625 0.203125 -1.21875 0.203125q-0.734375 0 -1.3125 -0.296875q-0.578125 -0.296875 -0.90625 -0.78125q-0.3125 -0.484375 -0.3125 -1.015625q0 -0.578125 0.359375 -1.109375q0.359375 -0.53125 1.09375 -0.859375q0.75 -0.328125 1.828125 -0.328125q0.53125 0 1.6875 0.09375l0 -0.140625q0 -0.484375 -0.359375 -0.703125q-0.34375 -0.234375 -1.078125 -0.234375q-1.09375 0 -2.515625 0.578125l-0.53125 -1.171875q1.828125 -0.765625 3.125 -0.765625q0.890625 0 1.546875 0.296875zm-2.640625 5.078125q1.25 0 2.453125 -1.125l0 -0.4375l-0.359375 -0.03125q-0.125 -0.015625 -0.578125 -0.046875q-0.453125 -0.046875 -0.84375 -0.046875q-0.75 0 -1.296875 0.265625q-0.53125 0.25 -0.53125 0.6875q0 0.328125 0.328125 0.53125q0.34375 0.203125 0.828125 0.203125zm12.965652 -0.171875l1.109375 0l0 1.359375l-2.421875 0l0 -0.53125q-0.421875 0.34375 -0.96875 0.53125q-0.53125 0.171875 -1.109375 0.171875q-0.953125 0 -1.765625 -0.4375q-0.796875 -0.453125 -1.265625 -1.21875q-0.453125 -0.765625 -0.453125 -1.703125q0 -0.90625 0.453125 -1.671875q0.453125 -0.78125 1.234375 -1.234375q0.796875 -0.46875 1.734375 -0.46875q0.609375 0 1.15625 0.1875q0.5625 0.171875 0.953125 0.53125l0 -1.890625l-1.75 0l0 -1.375l3.09375 0l0 7.75zm-3.421875 0.171875q0.859375 0 1.46875 -0.515625q0.609375 -0.515625 0.609375 -1.46875q0 -0.96875 -0.609375 -1.5q-0.59375 -0.53125 -1.453125 -0.53125q-0.59375 0 -1.078125 0.265625q-0.46875 0.265625 -0.75 0.71875q-0.28125 0.453125 -0.28125 1.015625q0 0.53125 0.28125 1.0q0.296875 0.46875 0.765625 0.75q0.484375 0.265625 1.046875 0.265625zm12.215652 -0.171875l1.109375 0l0 1.359375l-2.421875 0l0 -0.53125q-0.421875 0.34375 -0.96875 0.53125q-0.53125 0.171875 -1.109375 0.171875q-0.953125 0 -1.765625 -0.4375q-0.796875 -0.453125 -1.265625 -1.21875q-0.453125 -0.765625 -0.453125 -1.703125q0 -0.90625 0.453125 -1.671875q0.453125 -0.78125 1.234375 -1.234375q0.796875 -0.46875 1.734375 -0.46875q0.609375 0 1.15625 0.1875q0.5625 0.171875 0.953125 0.53125l0 -1.890625l-1.75 0l0 -1.375l3.09375 0l0 7.75zm-3.421875 0.171875q0.859375 0 1.46875 -0.515625q0.609375 -0.515625 0.609375 -1.46875q0 -0.96875 -0.609375 -1.5q-0.59375 -0.53125 -1.453125 -0.53125q-0.59375 0 -1.078125 0.265625q-0.46875 0.265625 -0.75 0.71875q-0.28125 0.453125 -0.28125 1.015625q0 0.53125 0.28125 1.0q0.296875 0.46875 0.765625 0.75q0.484375 0.265625 1.046875 0.265625zm13.028152 -3.703125l-1.296875 0.203125q-0.03125 -0.3125 -0.125 -0.40625q-0.09375 -0.109375 -0.34375 -0.109375q-0.8125 0 -2.625 1.515625l0 2.328125l2.671875 0l0 1.359375l-5.59375 0l0 -1.359375l1.5625 0l0 -3.640625l-1.578125 0l0 -1.359375l2.9375 0l0 1.03125q0.8125 -0.671875 1.421875 -0.953125q0.625 -0.28125 1.203125 -0.28125q1.609375 0 1.765625 1.671875z" fill-rule="nonzero"/><path fill="#d9d9d9" d="m10.375327 9.501312l95.40157 0l0 51.212597l-95.40157 0z" fill-rule="evenodd"/><path stroke="#000000" stroke-width="2.0" stroke-linejoin="round" stroke-linecap="butt" d="m10.375327 9.501312l95.40157 0l0 51.212597l-95.40157 0z" fill-rule="evenodd"/><path fill="#000000" d="m29.069843 20.343185q0 1.0 -0.484375 1.78125q-0.46875 0.78125 -1.296875 1.21875q-0.828125 0.4375 -1.828125 0.4375l-2.25 0l0 1.90625l2.265625 0l0 1.734375l-5.453125 0l0 -1.734375l1.46875 0l0 -7.203125l-1.453125 0l0 -1.734375l4.921875 0q1.9375 0 3.015625 0.953125q1.09375 0.953125 1.09375 2.640625zm-1.71875 -0.046875q0 -0.828125 -0.609375 -1.3125q-0.609375 -0.5 -1.78125 -0.5l-1.75 0l0 3.5625l1.9375 0q2.203125 0 2.203125 -1.75zm13.303131 1.8125q0 1.765625 -0.71875 3.015625q-0.703125 1.25 -1.84375 1.890625q-1.140625 0.625 -2.359375 0.625q-1.34375 0 -2.484375 -0.65625q-1.140625 -0.65625 -1.8125 -1.90625q-0.671875 -1.25 -0.671875 -2.9375q0 -1.53125 0.625 -2.8125q0.640625 -1.296875 1.765625 -2.03125q1.140625 -0.75 2.578125 -0.75q1.453125 0 2.578125 0.765625q1.125 0.765625 1.734375 2.03125q0.609375 1.265625 0.609375 2.765625zm-4.921875 3.84375q1.0 0 1.71875 -0.546875q0.734375 -0.5625 1.109375 -1.46875q0.390625 -0.90625 0.390625 -1.90625q0 -0.9375 -0.390625 -1.796875q-0.375 -0.875 -1.109375 -1.40625q-0.734375 -0.546875 -1.75 -0.546875q-0.90625 0 -1.640625 0.53125q-0.734375 0.53125 -1.140625 1.40625q-0.40625 0.859375 -0.40625 1.875q0 1.03125 0.390625 1.921875q0.390625 0.890625 1.125 1.421875q0.75 0.515625 1.703125 0.515625zm15.100006 -7.46875l-3.015625 0l0 7.203125l3.015625 0l0 1.734375l-7.875 0l0 -1.734375l3.078125 0l0 -7.203125l-3.078125 0l0 -1.734375l7.875 0l0 1.734375zm9.787506 5.671875l0 -5.671875l-1.734375 0l0 -1.734375l4.875 0l0 1.734375l-1.4375 0l0 8.9375l-1.640625 0l-4.8125 -7.609375l0 5.875l1.8125 0l0 1.734375l-4.9375 0l0 -1.734375l1.40625 0l0 -7.203125l-1.40625 0l0 -1.734375l3.328125 0l4.546875 7.40625zm13.553127 -3.34375l-1.734375 0l0 -2.328125l-2.265625 0l0 7.203125l2.25 0l0 1.734375l-6.234375 0l0 -1.734375l2.234375 0l0 -7.203125l-2.265625 0l0 2.328125l-1.734375 0l0 -4.0625l9.75 0l0 4.0625zm10.975014 -0.109375l-1.734375 0l0 -2.21875l-4.46875 0l0 2.65625l1.984375 0l0 -1.234375l1.734375 0l0 4.171875l-1.734375 0l0 -1.234375l-1.984375 0l0 2.84375l4.46875 0l0 -2.171875l1.734375 0l0 3.90625l-9.390625 0l0 -1.734375l1.484375 0l0 -7.203125l-1.4375 0l0 -1.734375l9.34375 0l0 3.953125zm10.631256 -0.8125q0 1.125 -0.640625 1.890625q-0.625 0.765625 -1.84375 1.0625l2.15625 2.84375l1.390625 0l0 1.734375l-2.5 0q-0.421875 -0.953125 -1.125 -1.921875l-1.671875 -2.3125l-1.4375 0l0 2.5l1.375 0l0 1.734375l-4.5625 0l0 -1.734375l1.46875 0l0 -7.203125l-1.390625 0l0 -1.734375l5.328125 0q1.78125 0 2.609375 0.921875q0.84375 0.90625 0.84375 2.21875zm-1.703125 0.015625q0 -0.71875 -0.40625 -1.0625q-0.40625 -0.359375 -1.171875 -0.359375l-2.390625 0l0 2.96875l1.796875 0q1.09375 0 1.625 -0.375q0.546875 -0.390625 0.546875 -1.171875z" fill-rule="nonzero"/><path fill="#d9d2e9" d="m16.831966 31.91601l82.48819 0l0 24.000002l-82.48819 0z" fill-rule="evenodd"/><path stroke="#000000" stroke-width="2.0" stroke-linejoin="round" stroke-linecap="butt" d="m16.831966 31.91601l82.48819 0l0 24.000002l-82.48819 0z" fill-rule="evenodd"/><path fill="#000000" d="m62.65106 43.757885q0 1.0 -0.484375 1.78125q-0.46875 0.78125 -1.296875 1.21875q-0.828125 0.4375 -1.828125 0.4375l-2.25 0l0 1.90625l2.265625 0l0 1.734375l-5.453125 0l0 -1.734375l1.46875 0l0 -7.203125l-1.453125 0l0 -1.734375l4.921875 0q1.9375 0 3.015625 0.953125q1.09375 0.953125 1.09375 2.640625zm-1.71875 -0.046875q0 -0.828125 -0.609375 -1.3125q-0.609375 -0.5 -1.78125 -0.5l-1.75 0l0 3.5625l1.9375 0q2.203125 0 2.203125 -1.75z" fill-rule="nonzero"/><path fill="#d9d2e9" d="m214.57466 173.54068l62.708664 0l0 24.0l-62.708664 0z" fill-rule="evenodd"/><path stroke="#000000" stroke-width="2.0" stroke-linejoin="round" stroke-linecap="butt" d="m214.57466 173.54068l62.708664 0l0 24.0l-62.708664 0z" fill-rule="evenodd"/><path fill="#000000" d="m249.31648 183.74443l-2.59375 0l0 6.171875l2.59375 0l0 1.484375l-6.75 0l0 -1.484375l2.640625 0l0 -6.171875l-2.640625 0l0 -1.5l6.75 0l0 1.5z" fill-rule="nonzero"/><path fill="#d9d2e9" d="m277.29904 173.54068l62.70865 0l0 24.0l-62.70865 0z" fill-rule="evenodd"/><path stroke="#000000" stroke-width="2.0" stroke-linejoin="round" stroke-linecap="butt" d="m277.29904 173.54068l62.70865 0l0 24.0l-62.70865 0z" fill-rule="evenodd"/><path fill="#000000" d="m313.27524 183.74443l-1.9375 0l0 4.734375q0 0.828125 -0.203125 1.40625q-0.1875 0.578125 -0.609375 0.9375q-0.453125 0.40625 -0.90625 0.578125q-0.453125 0.1875 -1.203125 0.1875q-0.8125 0 -1.765625 -0.28125q-0.953125 -0.28125 -1.921875 -0.78125l0 -3.6875l1.5 0l0 1.765625q0 0.859375 0.53125 1.171875q0.359375 0.203125 0.8125 0.28125q0.46875 0.078125 0.828125 0.078125q0.796875 0 1.140625 -0.375q0.34375 -0.390625 0.34375 -1.421875l0 -4.59375l-2.8125 0l0 -1.5l6.203125 0l0 1.5z" fill-rule="nonzero"/><path fill="#d9d2e9" d="m340.0234 173.54068l62.70868 0l0 24.0l-62.70868 0z" fill-rule="evenodd"/><path stroke="#000000" stroke-width="2.0" stroke-linejoin="round" stroke-linecap="butt" d="m340.0234 173.54068l62.70868 0l0 24.0l-62.70868 0z" fill-rule="evenodd"/><path fill="#000000" d="m371.04648 183.74443l-1.25 0l0 2.46875l2.578125 -2.46875l-0.65625 0l0 -1.5l3.640625 0l0 1.5l-1.015625 0l-2.65625 2.5625q1.46875 1.71875 2.46875 3.609375l1.625 0l0 1.484375l-2.421875 0q-0.5 -1.046875 -1.21875 -2.171875q-0.71875 -1.125 -1.453125 -1.96875l-0.890625 0.859375l0 1.796875l1.25 0l0 1.484375l-3.984375 0l0 -1.484375l1.265625 0l0 -6.171875l-1.265625 0l0 -1.5l3.984375 0l0 1.5z" fill-rule="nonzero"/><path fill="#d9d2e9" d="m402.74777 173.54068l62.70868 0l0 24.0l-62.70868 0z" fill-rule="evenodd"/><path stroke="#000000" stroke-width="2.0" stroke-linejoin="round" stroke-linecap="butt" d="m402.74777 173.54068l62.70868 0l0 24.0l-62.70868 0z" fill-rule="evenodd"/><path fill="#000000" d="m435.03647 183.74443l-1.921875 0l0 6.171875l3.625 0l0 -2.8125l1.484375 0l0 4.296875l-8.109375 0l0 -1.484375l1.53125 0l0 -6.171875l-1.53125 0l0 -1.5l4.921875 0l0 1.5z" fill-rule="nonzero"/><path fill="#d9d9d9" d="m252.3937 122.026245l31.561737 0l0 23.038315l-15.780884 5.7595825l-15.780853 -5.7595825z" fill-rule="evenodd"/><path stroke="#000000" stroke-width="2.0" stroke-linejoin="round" stroke-linecap="butt" d="m252.3937 122.026245l31.561737 0l0 23.038315l-15.780884 5.7595825l-15.780853 -5.7595825z" fill-rule="evenodd"/><path fill="#000000" d="m261.7589 130.60854l-1.875 0l0 8.6875l1.875 0l0 1.484375l-3.359375 0l0 -11.65625l3.359375 0l0 1.484375zm16.231293 10.171875l-3.40625 0l0 -1.484375l1.90625 0l0 -8.6875l-1.90625 0l0 -1.484375l3.40625 0l0 11.65625z" fill-rule="nonzero"/><path fill="#d9d9d9" d="m300.34085 122.026245l31.561737 0l0 23.038315l-15.780884 5.7595825l-15.780853 -5.7595825z" fill-rule="evenodd"/><path stroke="#000000" stroke-width="2.0" stroke-linejoin="round" stroke-linecap="butt" d="m300.34085 122.026245l31.561737 0l0 23.038315l-15.780884 5.7595825l-15.780853 -5.7595825z" fill-rule="evenodd"/><path fill="#000000" d="m309.70605 130.60854l-1.875 0l0 8.6875l1.875 0l0 1.484375l-3.359375 0l0 -11.65625l3.359375 0l0 1.484375zm16.231293 10.171875l-3.40625 0l0 -1.484375l1.90625 0l0 -8.6875l-1.90625 0l0 -1.484375l3.40625 0l0 11.65625z" fill-rule="nonzero"/><path fill="#d9d9d9" d="m348.2893 122.026245l31.561737 0l0 23.038315l-15.780884 5.7595825l-15.780853 -5.7595825z" fill-rule="evenodd"/><path stroke="#000000" stroke-width="2.0" stroke-linejoin="round" stroke-linecap="butt" d="m348.2893 122.026245l31.561737 0l0 23.038315l-15.780884 5.7595825l-15.780853 -5.7595825z" fill-rule="evenodd"/><path fill="#000000" d="m357.6545 130.60854l-1.875 0l0 8.6875l1.875 0l0 1.484375l-3.359375 0l0 -11.65625l3.359375 0l0 1.484375zm16.231293 10.171875l-3.40625 0l0 -1.484375l1.90625 0l0 -8.6875l-1.90625 0l0 -1.484375l3.40625 0l0 11.65625z" fill-rule="nonzero"/><path fill="#d9d9d9" d="m396.2375 122.026245l31.561737 0l0 23.038315l-15.780884 5.7595825l-15.780853 -5.7595825z" fill-rule="evenodd"/><path stroke="#000000" stroke-width="2.0" stroke-linejoin="round" stroke-linecap="butt" d="m396.2375 122.026245l31.561737 0l0 23.038315l-15.780884 5.7595825l-15.780853 -5.7595825z" fill-rule="evenodd"/><path fill="#000000" d="m405.6027 130.60854l-1.875 0l0 8.6875l1.875 0l0 1.484375l-3.359375 0l0 -11.65625l3.359375 0l0 1.484375zm16.231293 10.171875l-3.40625 0l0 -1.484375l1.90625 0l0 -8.6875l-1.90625 0l0 -1.484375l3.40625 0l0 11.65625z" fill-rule="nonzero"/><path fill="#000000" fill-opacity="0.0" d="m268.17456 150.82414l-22.236206 22.708664" fill-rule="evenodd"/><path stroke="#000000" stroke-width="2.0" stroke-linejoin="round" stroke-linecap="butt" d="m268.17456 150.82414l-13.840591 14.134659" fill-rule="evenodd"/><path fill="#000000" stroke="#000000" stroke-width="2.0" stroke-linecap="butt" d="m251.97363 162.64758l-3.9897003 8.796173l8.710373 -4.1737213z" fill-rule="evenodd"/><path fill="#000000" fill-opacity="0.0" d="m316.1217 150.82414l-7.464569 22.708664" fill-rule="evenodd"/><path stroke="#000000" stroke-width="2.0" stroke-linejoin="round" stroke-linecap="butt" d="m316.1217 150.82414l-3.7172852 11.308746" fill-rule="evenodd"/><path fill="#000000" stroke="#000000" stroke-width="2.0" stroke-linecap="butt" d="m309.26614 161.10132l0.3040161 9.6539l5.972534 -7.590744z" fill-rule="evenodd"/><path fill="#000000" fill-opacity="0.0" d="m364.07016 150.82414l7.3070984 22.708664" fill-rule="evenodd"/><path stroke="#000000" stroke-width="2.0" stroke-linejoin="round" stroke-linecap="butt" d="m364.07016 150.82414l3.6314087 11.285477" fill-rule="evenodd"/><path fill="#000000" stroke="#000000" stroke-width="2.0" stroke-linecap="butt" d="m364.5569 163.1215l5.924774 7.6280365l0.364563 -9.651794z" fill-rule="evenodd"/><path fill="#000000" fill-opacity="0.0" d="m615.7952 55.91601c0 16.527561 -50.944885 24.79134 -101.88977 33.05512c-50.944885 8.263779 -101.88977 16.527557 -101.88977 33.055115" fill-rule="evenodd"/><path stroke="#0000ff" stroke-width="1.0" stroke-linejoin="round" stroke-linecap="butt" d="m615.7952 55.91601c0 16.527561 -50.944885 24.79134 -101.88977 33.05512c-25.472412 4.1318893 -50.944855 8.263779 -70.049194 13.428642c-9.552155 2.582428 -17.512299 5.4231033 -23.084412 8.651138c-2.7860413 1.6140213 -4.9750977 3.3248901 -6.4675903 5.1487274l-0.1689148 0.21347809" fill-rule="evenodd"/><path fill="#0000ff" stroke="#0000ff" stroke-width="1.0" stroke-linecap="butt" d="m412.5901 115.82961l-0.057922363 4.8289948l3.1483765 -3.6619873z" fill-rule="evenodd"/><path fill="#000000" fill-opacity="0.0" d="m615.7952 55.91601c0 16.527561 -62.92914 24.79134 -125.85828 33.05512c-62.92914 8.263779 -125.85828 16.527557 -125.85828 33.055115" fill-rule="evenodd"/><path stroke="#0000ff" stroke-width="1.0" stroke-linejoin="round" stroke-linecap="butt" d="m615.7952 55.91601c0 16.527561 -62.92914 24.79134 -125.858246 33.05512c-31.46457 4.1318893 -62.92914 8.263779 -86.52759 13.428642c-11.799194 2.582428 -21.631866 5.4231033 -28.51474 8.651138c-3.4414368 1.6140213 -6.145447 3.3248901 -7.9890747 5.1487274c-0.115234375 0.11399078 -0.22705078 0.22841644 -0.33554077 0.34329987l-0.016326904 0.017570496" fill-rule="evenodd"/><path fill="#0000ff" stroke="#0000ff" stroke-width="1.0" stroke-linecap="butt" d="m365.04907 115.879166l-0.3673401 4.8153534l3.376648 -3.4526596z" fill-rule="evenodd"/><path fill="#000000" fill-opacity="0.0" d="m615.7952 55.91601c0 16.527561 -74.921265 24.79134 -149.84253 33.05512c-74.921265 8.263779 -149.84253 16.527557 -149.84253 33.055115" fill-rule="evenodd"/><path stroke="#0000ff" stroke-width="1.0" stroke-linejoin="round" stroke-linecap="butt" d="m615.7952 55.91601c0 16.527561 -74.921265 24.79134 -149.8425 33.05512c-37.460632 4.1318893 -74.921265 8.263779 -103.016754 13.428642c-14.0477295 2.582428 -25.75418 5.4231033 -33.9487 8.651138c-4.0972595 1.6140213 -7.3165283 3.3248901 -9.511505 5.1487274c-0.13717651 0.11399078 -0.27035522 0.22841644 -0.39950562 0.34329987l-0.18447876 0.16703796" fill-rule="evenodd"/><path fill="#0000ff" stroke="#0000ff" stroke-width="1.0" stroke-linecap="butt" d="m317.42825 115.94424l-0.64035034 4.7866974l3.5673828 -3.2552185z" fill-rule="evenodd"/><path fill="#000000" fill-opacity="0.0" d="m615.7952 55.91601c0 16.527561 -86.90552 24.79134 -173.81104 33.05512c-86.90552 8.263779 -173.811 16.527557 -173.811 33.055115" fill-rule="evenodd"/><path stroke="#0000ff" stroke-width="1.0" stroke-linejoin="round" stroke-linecap="butt" d="m615.7952 55.91601c0 16.527561 -86.90552 24.79134 -173.811 33.05512c-43.45276 4.1318893 -86.90552 8.263779 -119.49509 13.428642c-16.2948 2.582428 -29.87378 5.4231033 -39.37909 8.651138c-4.752655 1.6140213 -8.486847 3.3248901 -11.032928 5.1487274c-0.15911865 0.11399078 -0.31359863 0.22841644 -0.46340942 0.34329987c-0.074920654 0.057434082 -0.1486206 0.114982605 -0.2211914 0.17264557l-0.17410278 0.14090729" fill-rule="evenodd"/><path fill="#0000ff" stroke="#0000ff" stroke-width="1.0" stroke-linecap="butt" d="m269.79526 116.018166l-0.88009644 4.7484665l3.7264404 -3.0718155z" fill-rule="evenodd"/><path fill="#000000" fill-opacity="0.0" d="m412.01834 150.82414l22.078735 22.708664" fill-rule="evenodd"/><path stroke="#000000" stroke-width="2.0" stroke-linejoin="round" stroke-linecap="butt" d="m412.01834 150.82414l13.713623 14.104889" fill-rule="evenodd"/><path fill="#000000" stroke="#000000" stroke-width="2.0" stroke-linecap="butt" d="m423.36343 167.23186l8.695465 4.2046356l-3.9584045 -8.810272z" fill-rule="evenodd"/><path fill="#d9d9d9" d="m133.44095 9.501312l202.86615 0l0 51.212597l-202.86615 0z" fill-rule="evenodd"/><path stroke="#000000" stroke-width="2.0" stroke-linejoin="round" stroke-linecap="butt" d="m133.44095 9.501312l202.86615 0l0 51.212597l-202.86615 0z" fill-rule="evenodd"/><path fill="#000000" d="m211.85524 22.10881q0 1.765625 -0.71875 3.015625q-0.703125 1.25 -1.84375 1.890625q-1.140625 0.625 -2.359375 0.625q-1.34375 0 -2.484375 -0.65625q-1.140625 -0.65625 -1.8125 -1.90625q-0.671875 -1.25 -0.671875 -2.9375q0 -1.53125 0.625 -2.8125q0.640625 -1.296875 1.765625 -2.03125q1.140625 -0.75 2.578125 -0.75q1.453125 0 2.578125 0.765625q1.125 0.765625 1.734375 2.03125q0.609375 1.265625 0.609375 2.765625zm-4.921875 3.84375q1.0 0 1.71875 -0.546875q0.734375 -0.5625 1.109375 -1.46875q0.390625 -0.90625 0.390625 -1.90625q0 -0.9375 -0.390625 -1.796875q-0.375 -0.875 -1.109375 -1.40625q-0.734375 -0.546875 -1.75 -0.546875q-0.90625 0 -1.640625 0.53125q-0.734375 0.53125 -1.140625 1.40625q-0.40625 0.859375 -0.40625 1.875q0 1.03125 0.390625 1.921875q0.390625 0.890625 1.125 1.421875q0.75 0.515625 1.703125 0.515625zm15.959381 -5.265625l-1.734375 0l0 -2.203125l-4.375 0l0 2.671875l1.984375 0l0 -1.234375l1.71875 0l0 4.171875l-1.71875 0l0 -1.203125l-1.984375 0l0 2.796875l2.28125 0l0 1.734375l-5.40625 0l0 -1.734375l1.40625 0l0 -7.203125l-1.390625 0l0 -1.734375l9.21875 0l0 3.9375zm11.193756 0l-1.734375 0l0 -2.203125l-4.375 0l0 2.671875l1.984375 0l0 -1.234375l1.71875 0l0 4.171875l-1.71875 0l0 -1.203125l-1.984375 0l0 2.796875l2.28125 0l0 1.734375l-5.40625 0l0 -1.734375l1.40625 0l0 -7.203125l-1.390625 0l0 -1.734375l9.21875 0l0 3.9375zm8.615631 -3.71875l0 -0.421875l1.71875 0l0 4.015625l-1.71875 0l0 -1.796875q-1.09375 -0.5 -2.03125 -0.5q-1.015625 0 -1.703125 0.5q-0.671875 0.5 -0.671875 1.1875q0 0.609375 0.390625 0.921875q0.390625 0.296875 0.953125 0.40625q0.5625 0.109375 1.5625 0.203125l0.71875 0.078125q1.34375 0.171875 2.109375 0.875q0.765625 0.6875 0.765625 1.921875q0 0.984375 -0.5625 1.734375q-0.546875 0.75 -1.515625 1.171875q-0.953125 0.40625 -2.15625 0.40625q-0.65625 0 -1.25 -0.15625q-0.59375 -0.15625 -1.34375 -0.515625l0 0.671875l-1.71875 0l0 -3.90625l1.71875 0l0 1.421875q1.265625 0.765625 2.609375 0.765625q1.21875 0 1.875 -0.40625q0.65625 -0.421875 0.65625 -1.1875q0 -0.65625 -0.515625 -0.953125q-0.515625 -0.296875 -1.765625 -0.3125q-2.09375 -0.03125 -3.1875 -0.890625q-1.09375 -0.859375 -1.09375 -2.25q0 -0.875 0.515625 -1.65625q0.515625 -0.796875 1.4375 -1.265625q0.921875 -0.484375 2.109375 -0.484375q1.15625 0 2.09375 0.421875zm13.646896 3.734375l-1.7343903 0l0 -2.21875l-4.46875 0l0 2.65625l1.984375 0l0 -1.234375l1.734375 0l0 4.171875l-1.734375 0l0 -1.234375l-1.984375 0l0 2.84375l4.46875 0l0 -2.171875l1.7343903 0l0 3.90625l-9.39064 0l0 -1.734375l1.484375 0l0 -7.203125l-1.4375 0l0 -1.734375l9.343765 0l0 3.953125zm11.412506 0.109375l-1.734375 0l0 -2.328125l-2.265625 0l0 7.203125l2.25 0l0 1.734375l-6.234375 0l0 -1.734375l2.234375 0l0 -7.203125l-2.265625 0l0 2.328125l-1.734375 0l0 -4.0625l9.75 0l0 4.0625z" fill-rule="nonzero"/><path fill="#d9d2e9" d="m138.52493 31.91601l47.93701 0l0 24.000002l-47.93701 0z" fill-rule="evenodd"/><path stroke="#000000" stroke-width="2.0" stroke-linejoin="round" stroke-linecap="butt" d="m138.52493 31.91601l47.93701 0l0 24.000002l-47.93701 0z" fill-rule="evenodd"/><path fill="#000000" d="m166.97469 49.101635l1.046875 0l0 1.734375l-4.359375 0l0 -1.734375l1.5625 0l-0.546875 -1.265625l-4.328125 0l-0.546875 1.265625l1.609375 0l0 1.734375l-4.4375 0l0 -1.734375l1.09375 0l3.046875 -7.203125l-2.296875 0l0 -1.734375l4.5 0l3.65625 8.9375zm-2.984375 -3.0l-1.453125 -3.453125l-1.46875 3.453125l2.921875 0z" fill-rule="nonzero"/><path fill="#d9d2e9" d="m186.47237 31.91601l47.93701 0l0 24.000002l-47.93701 0z" fill-rule="evenodd"/><path stroke="#000000" stroke-width="2.0" stroke-linejoin="round" stroke-linecap="butt" d="m186.47237 31.91601l47.93701 0l0 24.000002l-47.93701 0z" fill-rule="evenodd"/><path fill="#000000" d="m214.56274 43.070385q0 0.640625 -0.28125 1.203125q-0.265625 0.5625 -0.78125 0.96875q0.984375 0.5625 1.34375 1.1875q0.359375 0.625 0.359375 1.390625q0 0.875 -0.46875 1.5625q-0.453125 0.6875 -1.234375 1.078125q-0.78125 0.375 -1.765625 0.375l-6.21875 0l0 -1.734375l1.453125 0l0 -7.203125l-1.453125 0l0 -1.734375l5.5 0q1.609375 0 2.578125 0.8125q0.96875 0.8125 0.96875 2.09375zm-1.703125 0.0625q0 -0.546875 -0.453125 -0.890625q-0.453125 -0.34375 -1.1875 -0.34375l-2.53125 0l0 2.5625l2.421875 0q0.71875 0 1.234375 -0.34375q0.515625 -0.359375 0.515625 -0.984375zm0.625 4.5625q0 -0.734375 -0.65625 -1.109375q-0.65625 -0.390625 -1.890625 -0.390625l-2.25 0l0 2.90625l3.09375 0q0.671875 0 1.1875 -0.375q0.515625 -0.375 0.515625 -1.03125z" fill-rule="nonzero"/><path fill="#d9d2e9" d="m234.4198 31.91601l47.93701 0l0 24.000002l-47.93701 0z" fill-rule="evenodd"/><path stroke="#000000" stroke-width="2.0" stroke-linejoin="round" stroke-linecap="butt" d="m234.4198 31.91601l47.93701 0l0 24.000002l-47.93701 0z" fill-rule="evenodd"/><path fill="#000000" d="m261.6039 40.74226l0 -0.78125l1.703125 0l0 4.34375l-1.703125 0l0 -1.765625q-1.390625 -0.875 -2.734375 -0.875q-0.890625 0 -1.671875 0.453125q-0.765625 0.453125 -1.2343597 1.3125q-0.46875 0.859375 -0.46875 2.03125q0 1.75 0.90623474 2.8125q0.90625 1.0625 2.515625 1.0625q0.796875 0 1.671875 -0.296875q0.890625 -0.3125 1.734375 -0.90625l1.046875 1.265625q-0.796875 0.75 -2.125 1.203125q-1.328125 0.453125 -2.296875 0.453125q-2.390625 0 -3.8593597 -1.71875q-0.625 -0.703125 -0.984375 -1.796875q-0.34375 -1.09375 -0.34375 -2.09375q0 -1.5625 0.671875 -2.8125q0.671875 -1.25 1.8281097 -1.953125q1.15625 -0.71875 2.59375 -0.71875q0.78125 0 1.5 0.21875q0.734375 0.203125 1.25 0.5625z" fill-rule="nonzero"/><path fill="#d9d2e9" d="m282.36722 31.91601l47.93701 0l0 24.000002l-47.93701 0z" fill-rule="evenodd"/><path stroke="#000000" stroke-width="2.0" stroke-linejoin="round" stroke-linecap="butt" d="m282.36722 31.91601l47.93701 0l0 24.000002l-47.93701 0z" fill-rule="evenodd"/><path fill="#000000" d="m311.23886 45.289135q0 2.75 -1.34375 4.15625q-1.34375 1.390625 -3.78125 1.390625l-4.890625 0l0 -1.734375l1.46875 0l0 -7.203125l-1.46875 0l0 -1.734375l5.375 0q1.484375 0 2.53125 0.671875q1.046875 0.65625 1.578125 1.8125q0.53125 1.15625 0.53125 2.640625zm-1.71875 0.078125q0 -1.65625 -0.78125 -2.5625q-0.78125 -0.90625 -2.140625 -0.90625l-2.1875 0l0 7.203125l2.0625 0q1.265625 0 2.15625 -0.875q0.890625 -0.875 0.890625 -2.859375z" fill-rule="nonzero"/><path fill="#d9d9d9" d="m567.4803 9.501312l95.40161 0l0 51.212597l-95.40161 0z" fill-rule="evenodd"/><path stroke="#000000" stroke-width="2.0" stroke-linejoin="round" stroke-linecap="butt" d="m567.4803 9.501312l95.40161 0l0 51.212597l-95.40161 0z" fill-rule="evenodd"/><path fill="#000000" d="m595.02484 16.968185l0 -0.421875l1.71875 0l0 4.015625l-1.71875 0l0 -1.796875q-1.09375 -0.5 -2.03125 -0.5q-1.015625 0 -1.703125 0.5q-0.671875 0.5 -0.671875 1.1875q0 0.609375 0.390625 0.921875q0.390625 0.296875 0.953125 0.40625q0.5625 0.109375 1.5625 0.203125l0.71875 0.078125q1.34375 0.171875 2.109375 0.875q0.765625 0.6875 0.765625 1.921875q0 0.984375 -0.5625 1.734375q-0.546875 0.75 -1.515625 1.171875q-0.953125 0.40625 -2.15625 0.40625q-0.65625 0 -1.25 -0.15625q-0.59375 -0.15625 -1.34375 -0.515625l0 0.671875l-1.71875 0l0 -3.90625l1.71875 0l0 1.421875q1.265625 0.765625 2.609375 0.765625q1.21875 0 1.875 -0.40625q0.65625 -0.421875 0.65625 -1.1875q0 -0.65625 -0.515625 -0.953125q-0.515625 -0.296875 -1.765625 -0.3125q-2.09375 -0.03125 -3.1875 -0.890625q-1.09375 -0.859375 -1.09375 -2.25q0 -0.875 0.515625 -1.65625q0.515625 -0.796875 1.4375 -1.265625q0.921875 -0.484375 2.109375 -0.484375q1.15625 0 2.09375 0.421875zm12.178101 0.359375l0 -0.78125l1.703125 0l0 4.34375l-1.703125 0l0 -1.765625q-1.390625 -0.875 -2.734375 -0.875q-0.890625 0 -1.671875 0.453125q-0.765625 0.453125 -1.234375 1.3125q-0.46875 0.859375 -0.46875 2.03125q0 1.75 0.90625 2.8125q0.90625 1.0625 2.515625 1.0625q0.796875 0 1.671875 -0.296875q0.890625 -0.3125 1.734375 -0.90625l1.046875 1.265625q-0.796875 0.75 -2.125 1.203125q-1.328125 0.453125 -2.296875 0.453125q-2.390625 0 -3.859375 -1.71875q-0.625 -0.703125 -0.984375 -1.796875q-0.34375 -1.09375 -0.34375 -2.09375q0 -1.5625 0.671875 -2.8125q0.671875 -1.25 1.828125 -1.953125q1.15625 -0.71875 2.59375 -0.71875q0.78125 0 1.5 0.21875q0.734375 0.203125 1.25 0.5625zm12.459412 8.359375l1.046875 0l0 1.734375l-4.359375 0l0 -1.734375l1.5625 0l-0.546875 -1.265625l-4.328125 0l-0.546875 1.265625l1.609375 0l0 1.734375l-4.4375 0l0 -1.734375l1.09375 0l3.046875 -7.203125l-2.296875 0l0 -1.734375l4.5 0l3.65625 8.9375zm-2.984375 -3.0l-1.453125 -3.453125l-1.46875 3.453125l2.921875 0zm10.771851 -4.203125l-2.234375 0l0 7.203125l4.234375 0l0 -3.28125l1.734375 0l0 5.015625l-9.453125 0l0 -1.734375l1.765625 0l0 -7.203125l-1.765625 0l0 -1.734375l5.71875 0l0 1.734375zm14.803162 2.21875l-1.734375 0l0 -2.21875l-4.46875 0l0 2.65625l1.984375 0l0 -1.234375l1.734375 0l0 4.171875l-1.734375 0l0 -1.234375l-1.984375 0l0 2.84375l4.46875 0l0 -2.171875l1.734375 0l0 3.90625l-9.390625 0l0 -1.734375l1.484375 0l0 -7.203125l-1.4375 0l0 -1.734375l9.34375 0l0 3.953125z" fill-rule="nonzero"/><path fill="#d9d2e9" d="m574.55115 31.91601l82.48816 0l0 24.000002l-82.48816 0z" fill-rule="evenodd"/><path stroke="#000000" stroke-width="2.0" stroke-linejoin="round" stroke-linecap="butt" d="m574.55115 31.91601l82.48816 0l0 24.000002l-82.48816 0z" fill-rule="evenodd"/><path fill="#000000" d="m619.62024 41.39851l-5.6875 7.703125l4.375 0l0 -2.625l1.71875 0l0 4.359375l-8.40625 0l0 -1.328125l5.609375 -7.609375l-3.828125 0l0 2.359375l-1.703125 0l0 -4.09375l7.921875 0l0 1.234375z" fill-rule="nonzero"/><path fill="#000000" fill-opacity="0.0" d="m162.49344 55.91601c0 16.527561 26.417328 24.79134 52.83464 33.05512c26.417328 8.263779 52.83464 16.527557 52.83464 33.055115" fill-rule="evenodd"/><path stroke="#ff0000" stroke-width="2.0" stroke-linejoin="round" stroke-linecap="butt" d="m162.49344 55.91601c0 16.527561 26.417328 24.79134 52.83464 33.05512c13.208664 4.1318893 26.417328 8.263779 36.323822 13.428642c2.4766235 1.291214 4.746872 2.646988 6.75914 4.0834656c1.0061035 0.71823883 1.9477539 1.4566498 2.8184204 2.2172623c0.43536377 0.38030243 0.8529663 0.76615906 1.2520142 1.1578064c0.19955444 0.19582367 0.3944397 0.39309692 0.58462524 0.5918579c0.095062256 0.099372864 0.18896484 0.1991272 0.28164673 0.29924774l0.18685913 0.20523071" fill-rule="evenodd"/><path fill="#ff0000" stroke="#ff0000" stroke-width="2.0" stroke-linecap="butt" d="m260.48672 112.228714l6.5483704 7.09993l-0.4526062 -9.648071z" fill-rule="evenodd"/><path fill="#000000" fill-opacity="0.0" d="m210.44087 55.91601c0 16.527561 26.417328 24.79134 52.83464 33.05512c26.417328 8.263779 52.834656 16.527557 52.834656 33.055115" fill-rule="evenodd"/><path stroke="#ff0000" stroke-width="2.0" stroke-linejoin="round" stroke-linecap="butt" d="m210.44086 55.91601c0 16.527561 26.417328 24.79134 52.834656 33.05512c13.208649 4.1318893 26.417328 8.263779 36.323822 13.428642c2.4766235 1.291214 4.7468567 2.646988 6.7591248 4.0834656c1.006134 0.71823883 1.9477539 1.4566498 2.818451 2.2172623c0.43533325 0.38030243 0.8529358 0.76615906 1.2519836 1.1578064c0.19955444 0.19582367 0.3944397 0.39309692 0.58462524 0.5918579c0.095062256 0.099372864 0.18896484 0.1991272 0.28164673 0.29924774l0.18685913 0.20523071" fill-rule="evenodd"/><path fill="#ff0000" stroke="#ff0000" stroke-width="2.0" stroke-linecap="butt" d="m308.43414 112.228714l6.5483704 7.09993l-0.4526062 -9.648071z" fill-rule="evenodd"/><path fill="#000000" fill-opacity="0.0" d="m258.3883 55.91601c0 16.527561 26.417328 24.79134 52.834656 33.05512c26.417297 8.263779 52.834625 16.527557 52.834625 33.055115" fill-rule="evenodd"/><path stroke="#ff0000" stroke-width="2.0" stroke-linejoin="round" stroke-linecap="butt" d="m258.3883 55.91601c0 16.527561 26.417328 24.79134 52.834656 33.05512c13.208649 4.1318893 26.417328 8.263779 36.32379 13.428642c2.4766235 1.291214 4.746887 2.646988 6.7591553 4.0834656c1.0061035 0.71823883 1.9477539 1.4566498 2.8184204 2.2172623c0.43533325 0.38030243 0.8529663 0.76615906 1.2520142 1.1578064c0.19952393 0.19582367 0.3944397 0.39309692 0.5845642 0.5918579c0.09512329 0.099372864 0.18899536 0.1991272 0.28170776 0.29924774l0.18685913 0.20523071" fill-rule="evenodd"/><path fill="#ff0000" stroke="#ff0000" stroke-width="2.0" stroke-linecap="butt" d="m356.38156 112.228714l6.5483704 7.09993l-0.45257568 -9.648071z" fill-rule="evenodd"/><path fill="#000000" fill-opacity="0.0" d="m306.33572 55.91601c0 16.527561 26.417328 24.79134 52.834656 33.05512c26.417328 8.263779 52.834656 16.527557 52.834656 33.055115" fill-rule="evenodd"/><path stroke="#ff0000" stroke-width="2.0" stroke-linejoin="round" stroke-linecap="butt" d="m306.33572 55.91601c0 16.527561 26.417328 24.79134 52.834686 33.05512c13.208649 4.1318893 26.417297 8.263779 36.323822 13.428642c2.4766235 1.291214 4.746826 2.646988 6.759094 4.0834656c1.006134 0.71823883 1.9477844 1.4566498 2.818451 2.2172623c0.43536377 0.38030243 0.8529663 0.76615906 1.2520447 1.1578064c0.19952393 0.19582367 0.39440918 0.39309692 0.5845642 0.5918579c0.09509277 0.099372864 0.18896484 0.1991272 0.28170776 0.29924774l0.18682861 0.20523071" fill-rule="evenodd"/><path fill="#ff0000" stroke="#ff0000" stroke-width="2.0" stroke-linecap="butt" d="m404.32904 112.228714l6.5483704 7.09993l-0.4526062 -9.648071z" fill-rule="evenodd"/><path fill="#000000" fill-opacity="0.0" d="m58.07606 55.91601c0 16.527561 52.52756 24.79134 105.055115 33.05512c52.527557 8.263779 105.05513 16.527557 105.05513 33.055115" fill-rule="evenodd"/><path stroke="#000000" stroke-width="1.0" stroke-linejoin="round" stroke-linecap="butt" d="m58.076057 55.91601c0 16.527561 52.527565 24.79134 105.05512 33.05512c26.263779 4.1318893 52.527557 8.263779 72.22539 13.428642c9.848923 2.582428 18.05635 5.4231033 23.801544 8.651138c2.8726196 1.6140213 5.129669 3.3248901 6.6685486 5.1487274l0.18984985 0.23268127" fill-rule="evenodd"/><path fill="#000000" stroke="#000000" stroke-width="1.0" stroke-linecap="butt" d="m264.47656 117.02964l3.1810608 3.633644l-0.10116577 -4.828285z" fill-rule="evenodd"/><path fill="#000000" fill-opacity="0.0" d="m58.07606 55.91601c0 16.527561 64.51181 24.79134 129.02362 33.05512c64.51181 8.263779 129.0236 16.527557 129.0236 33.055115" fill-rule="evenodd"/><path stroke="#000000" stroke-width="1.0" stroke-linejoin="round" stroke-linecap="butt" d="m58.076057 55.91601c0 16.527561 64.51182 24.79134 129.02362 33.05512c32.255905 4.1318893 64.51181 8.263779 88.703735 13.428642c12.095978 2.582428 22.175934 5.4231033 29.231934 8.651138c3.5279846 1.6140213 6.2999573 3.3248901 8.189972 5.1487274c0.11810303 0.11399078 0.23278809 0.22841644 0.34399414 0.34329987l0.035614014 0.03742218" fill-rule="evenodd"/><path fill="#000000" stroke="#000000" stroke-width="1.0" stroke-linecap="butt" d="m312.1057 117.27364l3.4039917 3.4257126l-0.40560913 -4.8122787z" fill-rule="evenodd"/><path fill="#000000" fill-opacity="0.0" d="m58.07606 55.91601c0 16.527561 76.49606 24.79134 152.99213 33.05512c76.49605 8.263779 152.99211 16.527557 152.99211 33.055115" fill-rule="evenodd"/><path stroke="#000000" stroke-width="1.0" stroke-linejoin="round" stroke-linecap="butt" d="m58.076057 55.91601c0 16.527561 76.49607 24.79134 152.99213 33.05512c38.24803 4.1318893 76.49606 8.263779 105.1821 13.428642c14.343018 2.582428 26.295532 5.4231033 34.662292 8.651138c4.1833496 1.6140213 7.4703064 3.3248901 9.711395 5.1487274c0.1401062 0.11399078 0.276062 0.22841644 0.40795898 0.34329987c0.06588745 0.057434082 0.13079834 0.114982605 0.19467163 0.17264557l0.015136719 0.013923645" fill-rule="evenodd"/><path fill="#000000" stroke="#000000" stroke-width="1.0" stroke-linecap="butt" d="m359.7836 117.50543l3.5899658 3.2302628l-0.67370605 -4.7821198z" fill-rule="evenodd"/><path fill="#000000" fill-opacity="0.0" d="m58.07606 55.91601c0 16.527561 88.48819 24.79134 176.97638 33.05512c88.488174 8.263779 176.97636 16.527557 176.97636 33.055115" fill-rule="evenodd"/><path stroke="#000000" stroke-width="1.0" stroke-linejoin="round" stroke-linecap="butt" d="m58.076057 55.91601c0 16.527561 88.4882 24.79134 176.97638 33.05512c44.24411 4.1318893 88.48819 8.263779 121.671295 13.428642c16.591522 2.582428 30.417816 5.4231033 40.09619 8.651138c4.839203 1.6140213 8.641418 3.3248901 11.233856 5.1487274c0.16201782 0.11399078 0.31933594 0.22841644 0.4718628 0.34329987c0.07626343 0.057434082 0.15133667 0.114982605 0.22521973 0.17264557l0.20095825 0.15974426" fill-rule="evenodd"/><path fill="#000000" stroke="#000000" stroke-width="1.0" stroke-linecap="butt" d="m407.5338 117.7224l3.7453003 3.0488281l-0.90930176 -4.7429657z" fill-rule="evenodd"/><path fill="#d9d9d9" d="m344.021 9.501312l202.86615 0l0 51.212597l-202.86615 0z" fill-rule="evenodd"/><path stroke="#000000" stroke-width="2.0" stroke-linejoin="round" stroke-linecap="butt" d="m344.021 9.501312l202.86615 0l0 51.212597l-202.86615 0z" fill-rule="evenodd"/><path fill="#000000" d="m416.45093 18.48381l-1.4375 0l2.609375 6.6875l2.53125 -6.6875l-1.671875 0l0 -1.734375l4.609375 0l0 1.734375l-1.25 0l-3.390625 8.9375l-1.734375 0l-3.484375 -8.9375l-1.375 0l0 -1.734375l4.59375 0l0 1.734375zm16.693756 7.203125l1.046875 0l0 1.734375l-4.359375 0l0 -1.734375l1.5625 0l-0.546875 -1.265625l-4.328125 0l-0.546875 1.265625l1.609375 0l0 1.734375l-4.4375 0l0 -1.734375l1.09375 0l3.046875 -7.203125l-2.296875 0l0 -1.734375l4.5 0l3.65625 8.9375zm-2.984375 -3.0l-1.453125 -3.453125l-1.46875 3.453125l2.921875 0zm10.771881 -4.203125l-2.234375 0l0 7.203125l4.234375 0l0 -3.28125l1.734375 0l0 5.015625l-9.453125 0l0 -1.734375l1.765625 0l0 -7.203125l-1.765625 0l0 -1.734375l5.71875 0l0 1.734375zm9.787506 0l-1.71875 0l0 5.34375q0 1.109375 0.53125 1.59375q0.53125 0.484375 1.65625 0.484375q1.25 0 1.765625 -0.546875q0.515625 -0.546875 0.515625 -1.859375l0 -5.015625l-1.75 0l0 -1.734375l4.890625 0l0 1.734375l-1.421875 0l0 5.40625q0 0.921875 -0.28125 1.671875q-0.28125 0.734375 -0.796875 1.1875q-0.515625 0.453125 -1.359375 0.671875q-0.828125 0.21875 -1.546875 0.21875q-1.0625 0 -1.78125 -0.25q-0.703125 -0.25 -1.21875 -0.765625q-0.921875 -0.859375 -0.921875 -2.9375l0 -5.203125l-1.453125 0l0 -1.734375l4.890625 0l0 1.734375zm16.209381 2.21875l-1.734375 0l0 -2.21875l-4.46875 0l0 2.65625l1.984375 0l0 -1.234375l1.734375 0l0 4.171875l-1.734375 0l0 -1.234375l-1.984375 0l0 2.84375l4.46875 0l0 -2.171875l1.734375 0l0 3.90625l-9.390625 0l0 -1.734375l1.484375 0l0 -7.203125l-1.4375 0l0 -1.734375l9.34375 0l0 3.953125zm8.740631 -3.734375l0 -0.421875l1.71875 0l0 4.015625l-1.71875 0l0 -1.796875q-1.09375 -0.5 -2.03125 -0.5q-1.015625 0 -1.703125 0.5q-0.671875 0.5 -0.671875 1.1875q0 0.609375 0.390625 0.921875q0.390625 0.296875 0.953125 0.40625q0.5625 0.109375 1.5625 0.203125l0.71875 0.078125q1.34375 0.171875 2.109375 0.875q0.765625 0.6875 0.765625 1.921875q0 0.984375 -0.5625 1.734375q-0.546875 0.75 -1.515625 1.171875q-0.953125 0.40625 -2.15625 0.40625q-0.65625 0 -1.25 -0.15625q-0.59375 -0.15625 -1.34375 -0.515625l0 0.671875l-1.71875 0l0 -3.90625l1.71875 0l0 1.421875q1.265625 0.765625 2.609375 0.765625q1.21875 0 1.875 -0.40625q0.65625 -0.421875 0.65625 -1.1875q0 -0.65625 -0.515625 -0.953125q-0.515625 -0.296875 -1.765625 -0.3125q-2.09375 -0.03125 -3.1875 -0.890625q-1.09375 -0.859375 -1.09375 -2.25q0 -0.875 0.515625 -1.65625q0.515625 -0.796875 1.4375 -1.265625q0.921875 -0.484375 2.109375 -0.484375q1.15625 0 2.09375 0.421875z" fill-rule="nonzero"/><path fill="#d9d2e9" d="m349.10498 31.91601l47.93701 0l0 24.000002l-47.93701 0z" fill-rule="evenodd"/><path stroke="#000000" stroke-width="2.0" stroke-linejoin="round" stroke-linecap="butt" d="m349.10498 31.91601l47.93701 0l0 24.000002l-47.93701 0z" fill-rule="evenodd"/><path fill="#000000" d="m377.0235 41.89851l-3.015625 0l0 7.203125l3.015625 0l0 1.734375l-7.875 0l0 -1.734375l3.078125 0l0 -7.203125l-3.078125 0l0 -1.734375l7.875 0l0 1.734375z" fill-rule="nonzero"/><path fill="#d9d2e9" d="m397.05243 31.91601l47.93701 0l0 24.000002l-47.93701 0z" fill-rule="evenodd"/><path stroke="#000000" stroke-width="2.0" stroke-linejoin="round" stroke-linecap="butt" d="m397.05243 31.91601l47.93701 0l0 24.000002l-47.93701 0z" fill-rule="evenodd"/><path fill="#000000" d="m426.40842 41.89851l-2.25 0l0 5.515625q0 0.984375 -0.234375 1.65625q-0.234375 0.671875 -0.71875 1.09375q-0.53125 0.46875 -1.0625 0.671875q-0.53125 0.21875 -1.40625 0.21875q-0.953125 0 -2.0625 -0.3125q-1.109375 -0.328125 -2.21875 -0.9375l0 -4.28125l1.734375 0l0 2.046875q0 1.015625 0.625 1.359375q0.421875 0.25 0.953125 0.34375q0.546875 0.09375 0.953125 0.09375q0.9375 0 1.328125 -0.453125q0.40625 -0.453125 0.40625 -1.640625l0 -5.375l-3.28125 0l0 -1.734375l7.234375 0l0 1.734375z" fill-rule="nonzero"/><path fill="#d9d2e9" d="m444.99985 31.91601l47.93701 0l0 24.000002l-47.93701 0z" fill-rule="evenodd"/><path stroke="#000000" stroke-width="2.0" stroke-linejoin="round" stroke-linecap="butt" d="m444.99985 31.91601l47.93701 0l0 24.000002l-47.93701 0z" fill-rule="evenodd"/><path fill="#000000" d="m468.57462 41.89851l-1.453125 0l0 2.890625l3.0 -2.890625l-0.765625 0l0 -1.734375l4.265625 0l0 1.734375l-1.203125 0l-3.09375 3.0q1.71875 2.0 2.890625 4.203125l1.890625 0l0 1.734375l-2.828125 0q-0.578125 -1.21875 -1.421875 -2.53125q-0.828125 -1.3125 -1.6875 -2.296875l-1.046875 1.0l0 2.09375l1.453125 0l0 1.734375l-4.640625 0l0 -1.734375l1.46875 0l0 -7.203125l-1.46875 0l0 -1.734375l4.640625 0l0 1.734375z" fill-rule="nonzero"/><path fill="#d9d2e9" d="m492.9473 31.91601l47.93698 0l0 24.000002l-47.93698 0z" fill-rule="evenodd"/><path stroke="#000000" stroke-width="2.0" stroke-linejoin="round" stroke-linecap="butt" d="m492.9473 31.91601l47.93698 0l0 24.000002l-47.93698 0z" fill-rule="evenodd"/><path fill="#000000" d="m517.9908 41.89851l-2.234375 0l0 7.203125l4.234375 0l0 -3.28125l1.734375 0l0 5.015625l-9.453125 0l0 -1.734375l1.765625 0l0 -7.203125l-1.765625 0l0 -1.734375l5.71875 0l0 1.734375z" fill-rule="nonzero"/><path fill="#000000" fill-opacity="0.0" d="m373.0735 55.91601c0 16.527561 -26.228333 24.79134 -52.456696 33.05512c-26.228333 8.263779 -52.456696 16.527557 -52.456696 33.055115" fill-rule="evenodd"/><path stroke="#274e13" stroke-width="2.0" stroke-linejoin="round" stroke-linecap="butt" d="m373.0735 55.91601c0 16.527561 -26.228333 24.79134 -52.456696 33.05512c-13.114166 4.1318893 -26.228333 8.263779 -36.063965 13.428642c-2.4589233 1.291214 -4.712921 2.646988 -6.710785 4.0834656c-0.9989319 0.71823883 -1.9338074 1.4566498 -2.7982788 2.2172623c-0.43222046 0.38030243 -0.8468628 0.76615906 -1.243042 1.1578064c-0.19812012 0.19582367 -0.39163208 0.39309692 -0.58044434 0.5918579c-0.09436035 0.099372864 -0.18762207 0.1991272 -0.27963257 0.29924774l-0.17645264 0.19520569" fill-rule="evenodd"/><path fill="#274e13" stroke="#274e13" stroke-width="2.0" stroke-linecap="butt" d="m269.71353 109.67717l-0.43164062 9.649033l6.5329285 -7.114128z" fill-rule="evenodd"/><path fill="#000000" fill-opacity="0.0" d="m421.02094 55.91601c0 16.527561 -26.228363 24.79134 -52.456696 33.05512c-26.228363 8.263779 -52.456696 16.527557 -52.456696 33.055115" fill-rule="evenodd"/><path stroke="#274e13" stroke-width="2.0" stroke-linejoin="round" stroke-linecap="butt" d="m421.0209 55.91601c0 16.527561 -26.228333 24.79134 -52.456696 33.05512c-13.114166 4.1318893 -26.228333 8.263779 -36.063965 13.428642c-2.4588928 1.291214 -4.7128906 2.646988 -6.710785 4.0834656c-0.9989319 0.71823883 -1.9338074 1.4566498 -2.7982788 2.2172623c-0.43222046 0.38030243 -0.8468323 0.76615906 -1.243042 1.1578064c-0.19812012 0.19582367 -0.39160156 0.39309692 -0.5804138 0.5918579c-0.09439087 0.099372864 -0.18762207 0.1991272 -0.2796631 0.29924774l-0.17645264 0.19520569" fill-rule="evenodd"/><path fill="#274e13" stroke="#274e13" stroke-width="2.0" stroke-linecap="butt" d="m317.66095 109.67717l-0.43164062 9.649033l6.532959 -7.114128z" fill-rule="evenodd"/><path fill="#000000" fill-opacity="0.0" d="m468.96835 55.91601c0 16.527561 -26.228333 24.79134 -52.456696 33.05512c-26.228333 8.263779 -52.456696 16.527557 -52.456696 33.055115" fill-rule="evenodd"/><path stroke="#274e13" stroke-width="2.0" stroke-linejoin="round" stroke-linecap="butt" d="m468.96835 55.91601c0 16.527561 -26.228363 24.79134 -52.456696 33.05512c-13.114197 4.1318893 -26.228363 8.263779 -36.063995 13.428642c-2.4588928 1.291214 -4.712921 2.646988 -6.7107544 4.0834656c-0.9989319 0.71823883 -1.9338379 1.4566498 -2.7983093 2.2172623c-0.43218994 0.38030243 -0.8468323 0.76615906 -1.2430725 1.1578064c-0.19805908 0.19582367 -0.39160156 0.39309692 -0.5803833 0.5918579c-0.09439087 0.099372864 -0.18762207 0.1991272 -0.2796631 0.29924774l-0.17645264 0.19520569" fill-rule="evenodd"/><path fill="#274e13" stroke="#274e13" stroke-width="2.0" stroke-linecap="butt" d="m365.6084 109.67717l-0.43167114 9.649033l6.532959 -7.114128z" fill-rule="evenodd"/><path fill="#000000" fill-opacity="0.0" d="m516.9158 55.91601c0 16.527561 -26.220459 24.79134 -52.440918 33.05512c-26.22049 8.263779 -52.44095 16.527557 -52.44095 33.055115" fill-rule="evenodd"/><path stroke="#274e13" stroke-width="2.0" stroke-linejoin="round" stroke-linecap="butt" d="m516.91583 55.91601c0 16.527561 -26.22049 24.79134 -52.44098 33.05512c-13.1102295 4.1318893 -26.220459 8.263779 -36.05313 13.428642c-2.458191 1.291214 -4.7115173 2.646988 -6.70874 4.0834656c-0.9986572 0.71823883 -1.9332886 1.4566498 -2.7974548 2.2172623c-0.4321289 0.38030243 -0.84661865 0.76615906 -1.2427063 1.1578064c-0.19802856 0.19582367 -0.3914795 0.39309692 -0.5802307 0.5918579c-0.09439087 0.099372864 -0.18756104 0.1991272 -0.27960205 0.29924774l-0.17602539 0.1947937" fill-rule="evenodd"/><path fill="#274e13" stroke="#274e13" stroke-width="2.0" stroke-linecap="butt" d="m413.58624 109.677025l-0.43078613 9.649078l6.5322876 -7.114723z" fill-rule="evenodd"/></g></svg>