<svg version="1.1" viewBox="0.0 0.0 458.37007874015745 236.48031496062993" fill="none" stroke="none" stroke-linecap="square" stroke-miterlimit="10" xmlns:xlink="http://www.w3.org/1999/xlink" xmlns="http://www.w3.org/2000/svg"><clipPath id="p.0"><path d="m0 0l458.3701 0l0 236.48032l-458.3701 0l0 -236.48032z" clip-rule="nonzero"/></clipPath><g clip-path="url(#p.0)"><path fill="#000000" fill-opacity="0.0" d="m0 0l458.3701 0l0 236.48032l-458.3701 0z" fill-rule="evenodd"/><path fill="#ffffff" d="m0.002624672 0l458.3622 0l0 236.47244l-458.3622 0z" fill-rule="evenodd"/><path stroke="#000000" stroke-width="1.0" stroke-linejoin="round" stroke-linecap="butt" d="m0.002624672 0l458.3622 0l0 236.47244l-458.3622 0z" fill-rule="evenodd"/><path fill="#d9d9d9" d="m77.52493 151.8937l303.87402 0l0 77.76378l-303.87402 0z" fill-rule="evenodd"/><path stroke="#000000" stroke-width="2.0" stroke-linejoin="round" stroke-linecap="butt" d="m77.52493 151.8937l303.87402 0l0 77.76378l-303.87402 0z" fill-rule="evenodd"/><path fill="#000000" d="m187.70255 221.46811l6.390625 2.640625l0 1.625l-8.046875 -3.234375l0 -2.03125l8.046875 -3.21875l0 1.625l-6.390625 2.59375zm13.943756 -1.25l2.015625 -5.3125l3.640625 0l0 1.734375l-1.453125 0l0.25 7.203125l1.0 0l0 1.734375l-4.453125 0l0 -1.734375l1.734375 0l-0.265625 -5.890625l-1.96875 5.25l-1.109375 0l-1.890625 -5.296875l-0.296875 5.9375l1.765625 0l0 1.734375l-4.53125 0l0 -1.734375l1.03125 0l0.296875 -7.203125l-1.40625 0l0 -1.734375l3.71875 0l1.921875 5.3125zm15.709381 -1.359375l-1.734375 0l0 -2.21875l-4.46875 0l0 2.65625l1.984375 0l0 -1.234375l1.734375 0l0 4.171875l-1.734375 0l0 -1.234375l-1.984375 0l0 2.84375l4.46875 0l0 -2.171875l1.734375 0l0 3.90625l-9.390625 0l0 -1.734375l1.484375 0l0 -7.203125l-1.4375 0l0 -1.734375l9.34375 0l0 3.953125zm6.678131 1.359375l2.015625 -5.3125l3.640625 0l0 1.734375l-1.453125 0l0.25 7.203125l1.0 0l0 1.734375l-4.453125 0l0 -1.734375l1.734375 0l-0.265625 -5.890625l-1.96875 5.25l-1.109375 0l-1.890625 -5.296875l-0.296875 5.9375l1.765625 0l0 1.734375l-4.53125 0l0 -1.734375l1.03125 0l0.296875 -7.203125l-1.40625 0l0 -1.734375l3.71875 0l1.921875 5.3125zm15.990631 0.046875q0 1.765625 -0.71875 3.015625q-0.703125 1.25 -1.84375 1.890625q-1.140625 0.625 -2.359375 0.625q-1.34375 0 -2.484375 -0.65625q-1.140625 -0.65625 -1.8125 -1.90625q-0.671875 -1.25 -0.671875 -2.9375q0 -1.53125 0.625 -2.8125q0.640625 -1.296875 1.765625 -2.03125q1.140625 -0.75 2.578125 -0.75q1.453125 0 2.578125 0.765625q1.125 0.765625 1.734375 2.03125q0.609375 1.265625 0.609375 2.765625zm-4.921875 3.84375q1.0 0 1.71875 -0.546875q0.734375 -0.5625 1.109375 -1.46875q0.390625 -0.90625 0.390625 -1.90625q0 -0.9375 -0.390625 -1.796875q-0.375 -0.875 -1.109375 -1.40625q-0.734375 -0.546875 -1.75 -0.546875q-0.90625 0 -1.640625 0.53125q-0.734375 0.53125 -1.140625 1.40625q-0.40625 0.859375 -0.40625 1.875q0 1.03125 0.390625 1.921875q0.390625 0.890625 1.125 1.421875q0.75 0.515625 1.703125 0.515625zm15.271881 -6.0625q0 1.125 -0.640625 1.890625q-0.625 0.765625 -1.84375 1.0625l2.15625 2.84375l1.390625 0l0 1.734375l-2.5 0q-0.421875 -0.953125 -1.125 -1.921875l-1.671875 -2.3125l-1.4375 0l0 2.5l1.375 0l0 1.734375l-4.5625 0l0 -1.734375l1.46875 0l0 -7.203125l-1.390625 0l0 -1.734375l5.328125 0q1.78125 0 2.609375 0.921875q0.84375 0.90625 0.84375 2.21875zm-1.703125 0.015625q0 -0.71875 -0.40625 -1.0625q-0.40625 -0.359375 -1.171875 -0.359375l-2.390625 0l0 2.96875l1.796875 0q1.09375 0 1.625 -0.375q0.546875 -0.390625 0.546875 -1.171875zm7.959381 -1.421875l-0.96875 0l1.875 3.15625l1.90625 -3.15625l-1.015625 0l0 -1.734375l4.296875 0l0 1.734375l-1.4375 0l-2.90625 4.8125l0 2.390625l2.21875 0l0 1.734375l-6.21875 0l0 -1.734375l2.265625 0l0 -2.390625l-2.90625 -4.8125l-1.40625 0l0 -1.734375l4.296875 0l0 1.734375zm16.475006 3.828125l0 2.03125l-8.046875 3.234375l0 -1.625l6.359375 -2.640625l-6.359375 -2.59375l0 -1.625l8.046875 3.21875z" fill-rule="nonzero"/><path fill="#d9d9d9" d="m245.07217 6.8228345l202.86615 0l0 51.2126l-202.86615 0z" fill-rule="evenodd"/><path stroke="#000000" stroke-width="2.0" stroke-linejoin="round" stroke-linecap="butt" d="m245.07217 6.8228345l202.86615 0l0 51.2126l-202.86615 0z" fill-rule="evenodd"/><path fill="#000000" d="m317.5021 15.805333l-1.4375 0l2.609375 6.687499l2.53125 -6.687499l-1.671875 0l0 -1.734375l4.609375 0l0 1.734375l-1.25 0l-3.390625 8.937499l-1.734375 0l-3.484375 -8.937499l-1.375 0l0 -1.734375l4.59375 0l0 1.734375zm16.693756 7.203124l1.046875 0l0 1.734375l-4.359375 0l0 -1.734375l1.5625 0l-0.546875 -1.265625l-4.328125 0l-0.546875 1.265625l1.609375 0l0 1.734375l-4.4375 0l0 -1.734375l1.09375 0l3.046875 -7.203124l-2.296875 0l0 -1.734375l4.5 0l3.65625 8.937499zm-2.984375 -3.0l-1.453125 -3.453125l-1.46875 3.453125l2.921875 0zm10.771881 -4.203124l-2.234375 0l0 7.203124l4.234375 0l0 -3.28125l1.734375 0l0 5.015625l-9.453125 0l0 -1.734375l1.765625 0l0 -7.203124l-1.765625 0l0 -1.734375l5.71875 0l0 1.734375zm9.787506 0l-1.71875 0l0 5.343749q0 1.109375 0.53125 1.59375q0.53125 0.484375 1.65625 0.484375q1.25 0 1.765625 -0.546875q0.515625 -0.546875 0.515625 -1.859375l0 -5.015624l-1.75 0l0 -1.734375l4.890625 0l0 1.734375l-1.421875 0l0 5.406249q0 0.921875 -0.28125 1.671875q-0.28125 0.734375 -0.796875 1.1875q-0.515625 0.453125 -1.359375 0.671875q-0.828125 0.21875 -1.546875 0.21875q-1.0625 0 -1.78125 -0.25q-0.703125 -0.25 -1.21875 -0.765625q-0.921875 -0.859375 -0.921875 -2.9375l0 -5.203124l-1.453125 0l0 -1.734375l4.890625 0l0 1.734375zm16.209381 2.218749l-1.734375 0l0 -2.218749l-4.46875 0l0 2.656249l1.984375 0l0 -1.234375l1.734375 0l0 4.171875l-1.734375 0l0 -1.234375l-1.984375 0l0 2.84375l4.46875 0l0 -2.171875l1.734375 0l0 3.90625l-9.390625 0l0 -1.734375l1.484375 0l0 -7.203124l-1.4375 0l0 -1.734375l9.34375 0l0 3.953124zm8.740631 -3.734374l0 -0.421875l1.71875 0l0 4.015624l-1.71875 0l0 -1.796875q-1.09375 -0.49999905 -2.03125 -0.49999905q-1.015625 0 -1.703125 0.49999905q-0.671875 0.5 -0.671875 1.1875q0 0.609375 0.390625 0.921875q0.390625 0.296875 0.953125 0.40625q0.5625 0.109375 1.5625 0.203125l0.71875 0.078125q1.34375 0.171875 2.109375 0.875q0.765625 0.6875 0.765625 1.921875q0 0.984375 -0.5625 1.734375q-0.546875 0.75 -1.515625 1.171875q-0.953125 0.40625 -2.15625 0.40625q-0.65625 0 -1.25 -0.15625q-0.59375 -0.15625 -1.34375 -0.515625l0 0.671875l-1.71875 0l0 -3.90625l1.71875 0l0 1.421875q1.265625 0.765625 2.609375 0.765625q1.21875 0 1.875 -0.40625q0.65625 -0.421875 0.65625 -1.1875q0 -0.65625 -0.515625 -0.953125q-0.515625 -0.296875 -1.765625 -0.3125q-2.09375 -0.03125 -3.1875 -0.890625q-1.09375 -0.859375 -1.09375 -2.25q0 -0.875 0.515625 -1.656249q0.515625 -0.796875 1.4375 -1.265625q0.921875 -0.484375 2.109375 -0.484375q1.15625 0 2.09375 0.421875z" fill-rule="nonzero"/><path fill="#d9d9d9" d="m10.426509 6.8228345l202.86613 0l0 51.2126l-202.86613 0z" fill-rule="evenodd"/><path stroke="#000000" stroke-width="2.0" stroke-linejoin="round" stroke-linecap="butt" d="m10.426509 6.8228345l202.86613 0l0 51.2126l-202.86613 0z" fill-rule="evenodd"/><path fill="#000000" d="m82.8533 17.664707q0 1.0 -0.484375 1.78125q-0.46875 0.78125 -1.296875 1.21875q-0.828125 0.4375 -1.828125 0.4375l-2.25 0l0 1.90625l2.265625 0l0 1.734375l-5.453125 0l0 -1.734375l1.46875 0l0 -7.203124l-1.453125 0l0 -1.734375l4.921875 0q1.9375 0 3.015625 0.953125q1.09375 0.953125 1.09375 2.640624zm-1.71875 -0.046875q0 -0.828125 -0.609375 -1.3125q-0.609375 -0.49999905 -1.78125 -0.49999905l-1.75 0l0 3.562499l1.9375 0q2.203125 0 2.203125 -1.75zm13.303131 1.8125q0 1.765625 -0.71875 3.015625q-0.703125 1.25 -1.84375 1.890625q-1.140625 0.625 -2.359375 0.625q-1.34375 0 -2.484375 -0.65625q-1.140625 -0.65625 -1.8125 -1.90625q-0.671875 -1.25 -0.671875 -2.9375q0 -1.53125 0.625 -2.8125q0.640625 -1.296874 1.765625 -2.031249q1.140625 -0.75 2.578125 -0.75q1.453125 0 2.578125 0.765625q1.125 0.765625 1.734375 2.031249q0.609375 1.265625 0.609375 2.765625zm-4.921875 3.84375q1.0 0 1.71875 -0.546875q0.734375 -0.5625 1.109375 -1.46875q0.390625 -0.90625 0.390625 -1.90625q0 -0.9375 -0.390625 -1.796875q-0.375 -0.875 -1.109375 -1.40625q-0.734375 -0.54687405 -1.75 -0.54687405q-0.90625 0 -1.640625 0.53124905q-0.734375 0.53125 -1.140625 1.40625q-0.40625 0.859375 -0.40625 1.875q0 1.03125 0.390625 1.921875q0.390625 0.890625 1.125 1.421875q0.75 0.515625 1.703125 0.515625zm15.100006 -7.468749l-3.015625 0l0 7.203124l3.015625 0l0 1.734375l-7.875 0l0 -1.734375l3.078125 0l0 -7.203124l-3.078125 0l0 -1.734375l7.875 0l0 1.734375zm9.787506 5.671874l0 -5.671874l-1.734375 0l0 -1.734375l4.875 0l0 1.734375l-1.4375 0l0 8.937499l-1.640625 0l-4.8125 -7.609375l0 5.875l1.8125 0l0 1.734375l-4.9375 0l0 -1.734375l1.40625 0l0 -7.203124l-1.40625 0l0 -1.734375l3.328125 0l4.546875 7.406249zm13.553131 -3.34375l-1.734375 0l0 -2.328124l-2.265625 0l0 7.203124l2.25 0l0 1.734375l-6.234375 0l0 -1.734375l2.234375 0l0 -7.203124l-2.265625 0l0 2.328124l-1.734375 0l0 -4.062499l9.75 0l0 4.062499zm10.975006 -0.109375l-1.734375 0l0 -2.218749l-4.46875 0l0 2.656249l1.984375 0l0 -1.234375l1.734375 0l0 4.171875l-1.734375 0l0 -1.234375l-1.984375 0l0 2.84375l4.46875 0l0 -2.171875l1.734375 0l0 3.90625l-9.390625 0l0 -1.734375l1.484375 0l0 -7.203124l-1.4375 0l0 -1.734375l9.34375 0l0 3.953124zm10.631256 -0.8125q0 1.125 -0.640625 1.890625q-0.625 0.765625 -1.84375 1.0625l2.15625 2.84375l1.390625 0l0 1.734375l-2.5 0q-0.421875 -0.953125 -1.125 -1.921875l-1.671875 -2.3125l-1.4375 0l0 2.5l1.375 0l0 1.734375l-4.5625 0l0 -1.734375l1.46875 0l0 -7.203124l-1.390625 0l0 -1.734375l5.328125 0q1.78125 0 2.609375 0.921875q0.84375 0.90625 0.84375 2.218749zm-1.703125 0.015625q0 -0.71875 -0.40625 -1.0625q-0.40625 -0.35937405 -1.171875 -0.35937405l-2.390625 0l0 2.968749l1.796875 0q1.09375 0 1.625 -0.375q0.546875 -0.390625 0.546875 -1.171875z" fill-rule="nonzero"/><path fill="#d9d2e9" d="m15.515745 29.237534l191.77953 0l0 24.0l-191.77953 0z" fill-rule="evenodd"/><path stroke="#000000" stroke-width="2.0" stroke-linejoin="round" stroke-linecap="butt" d="m15.515745 29.237534l191.77953 0l0 24.0l-191.77953 0z" fill-rule="evenodd"/><path fill="#000000" d="m115.88676 46.423157l1.046875 0l0 1.734375l-4.359375 0l0 -1.734375l1.5625 0l-0.546875 -1.265625l-4.328125 0l-0.546875 1.265625l1.609375 0l0 1.734375l-4.4375 0l0 -1.734375l1.09375 0l3.046875 -7.203125l-2.296875 0l0 -1.734375l4.5 0l3.65625 8.9375zm-2.984375 -3.0l-1.453125 -3.453125l-1.46875 3.453125l2.921875 0z" fill-rule="nonzero"/><path fill="#d9d2e9" d="m250.47113 29.237534l47.93701 0l0 24.0l-47.93701 0z" fill-rule="evenodd"/><path stroke="#000000" stroke-width="2.0" stroke-linejoin="round" stroke-linecap="butt" d="m250.47113 29.237534l47.93701 0l0 24.0l-47.93701 0z" fill-rule="evenodd"/><path fill="#000000" d="m273.07712 39.22003l-1.71875 0l0.65625 5.34375l1.859375 -5.09375l1.234375 0l1.890625 5.046875l0.625 -5.296875l-1.734375 0l0 -1.734375l4.265625 0l0 1.734375l-0.890625 0l-1.203125 8.9375l-1.453125 0l-2.15625 -5.59375l-2.109375 5.59375l-1.46875 0l-1.1875 -8.9375l-0.875 0l0 -1.734375l4.265625 0l0 1.734375z" fill-rule="nonzero"/><path fill="#d9d2e9" d="m298.41855 29.237534l47.93701 0l0 24.0l-47.93701 0z" fill-rule="evenodd"/><path stroke="#000000" stroke-width="2.0" stroke-linejoin="round" stroke-linecap="butt" d="m298.41855 29.237534l47.93701 0l0 24.0l-47.93701 0z" fill-rule="evenodd"/><path fill="#000000" d="m321.82144 39.22003l-0.96875 0l1.59375 2.046875l1.546875 -2.046875l-0.828125 0l0 -1.734375l4.015625 0l0 1.734375l-1.234375 0l-2.546875 3.359375l2.921875 3.84375l1.203125 0l0 1.734375l-4.328125 0l0 -1.734375l1.109375 0l-1.921875 -2.5625l-1.96875 2.5625l1.4375 0l0 1.734375l-4.59375 0l0 -1.734375l1.1875 0l2.96875 -3.84375l-2.59375 -3.359375l-1.25 0l0 -1.734375l4.25 0l0 1.734375z" fill-rule="nonzero"/><path fill="#d9d2e9" d="m346.366 29.237534l47.93701 0l0 24.0l-47.93701 0z" fill-rule="evenodd"/><path stroke="#000000" stroke-width="2.0" stroke-linejoin="round" stroke-linecap="butt" d="m346.366 29.237534l47.93701 0l0 24.0l-47.93701 0z" fill-rule="evenodd"/><path fill="#000000" d="m369.51886 39.22003l-0.96875 0l1.875 3.15625l1.90625 -3.15625l-1.015625 0l0 -1.734375l4.296875 0l0 1.734375l-1.4375 0l-2.90625 4.8125l0 2.390625l2.21875 0l0 1.734375l-6.21875 0l0 -1.734375l2.265625 0l0 -2.390625l-2.90625 -4.8125l-1.40625 0l0 -1.734375l4.296875 0l0 1.734375z" fill-rule="nonzero"/><path fill="#d9d2e9" d="m394.31342 29.237534l47.93701 0l0 24.0l-47.93701 0z" fill-rule="evenodd"/><path stroke="#000000" stroke-width="2.0" stroke-linejoin="round" stroke-linecap="butt" d="m394.31342 29.237534l47.93701 0l0 24.0l-47.93701 0z" fill-rule="evenodd"/><path fill="#000000" d="m422.10693 38.72003l-5.6875 7.703125l4.375 0l0 -2.625l1.71875 0l0 4.359375l-8.40625 0l0 -1.328125l5.609375 -7.609375l-3.828125 0l0 2.359375l-1.703125 0l0 -4.09375l7.921875 0l0 1.234375z" fill-rule="nonzero"/><path fill="#d9d2e9" d="m132.99081 158.88058l47.93701 0l0 24.0l-47.93701 0z" fill-rule="evenodd"/><path stroke="#000000" stroke-width="2.0" stroke-linejoin="round" stroke-linecap="butt" d="m132.99081 158.88058l47.93701 0l0 24.0l-47.93701 0z" fill-rule="evenodd"/><path fill="#000000" d="m155.59682 168.86308l-1.71875 0l0.65625 5.34375l1.859375 -5.09375l1.234375 0l1.890625 5.046875l0.625 -5.296875l-1.734375 0l0 -1.734375l4.265625 0l0 1.734375l-0.890625 0l-1.203125 8.9375l-1.453125 0l-2.15625 -5.59375l-2.109375 5.59375l-1.46875 0l-1.1875 -8.9375l-0.875 0l0 -1.734375l4.265625 0l0 1.734375z" fill-rule="nonzero"/><path fill="#d9d2e9" d="m180.93825 158.88058l47.93701 0l0 24.0l-47.93701 0z" fill-rule="evenodd"/><path stroke="#000000" stroke-width="2.0" stroke-linejoin="round" stroke-linecap="butt" d="m180.93825 158.88058l47.93701 0l0 24.0l-47.93701 0z" fill-rule="evenodd"/><path fill="#000000" d="m204.34113 168.86308l-0.96875 0l1.59375 2.046875l1.546875 -2.046875l-0.828125 0l0 -1.734375l4.015625 0l0 1.734375l-1.234375 0l-2.546875 3.359375l2.921875 3.84375l1.203125 0l0 1.734375l-4.328125 0l0 -1.734375l1.109375 0l-1.921875 -2.5625l-1.96875 2.5625l1.4375 0l0 1.734375l-4.59375 0l0 -1.734375l1.1875 0l2.96875 -3.84375l-2.59375 -3.359375l-1.25 0l0 -1.734375l4.25 0l0 1.734375z" fill-rule="nonzero"/><path fill="#d9d2e9" d="m228.88568 158.88058l47.93701 0l0 24.0l-47.93701 0z" fill-rule="evenodd"/><path stroke="#000000" stroke-width="2.0" stroke-linejoin="round" stroke-linecap="butt" d="m228.88568 158.88058l47.93701 0l0 24.0l-47.93701 0z" fill-rule="evenodd"/><path fill="#000000" d="m252.03856 168.86308l-0.96875 0l1.875 3.15625l1.90625 -3.15625l-1.015625 0l0 -1.734375l4.2968597 0l0 1.734375l-1.4375 0l-2.9062347 4.8125l0 2.390625l2.2187347 0l0 1.734375l-6.2187347 0l0 -1.734375l2.265625 0l0 -2.390625l-2.90625 -4.8125l-1.40625 0l0 -1.734375l4.296875 0l0 1.734375z" fill-rule="nonzero"/><path fill="#d9d2e9" d="m276.8331 158.88058l47.93701 0l0 24.0l-47.93701 0z" fill-rule="evenodd"/><path stroke="#000000" stroke-width="2.0" stroke-linejoin="round" stroke-linecap="butt" d="m276.8331 158.88058l47.93701 0l0 24.0l-47.93701 0z" fill-rule="evenodd"/><path fill="#000000" d="m304.62662 168.36308l-5.6875 7.703125l4.375 0l0 -2.625l1.71875 0l0 4.359375l-8.40625 0l0 -1.328125l5.609375 -7.609375l-3.828125 0l0 2.359375l-1.703125 0l0 -4.09375l7.921875 0l0 1.234375z" fill-rule="nonzero"/><path fill="#d9d9d9" d="m144.95932 108.57612l24.0 0l0 23.04l-12.0 5.7599945l-12.0 -5.7599945z" fill-rule="evenodd"/><path stroke="#000000" stroke-width="2.0" stroke-linejoin="round" stroke-linecap="butt" d="m144.95932 108.57612l24.0 0l0 23.04l-12.0 5.7599945l-12.0 -5.7599945z" fill-rule="evenodd"/><path fill="#000000" d="m150.01613 129.73611l0 -15.90625l4.21875 0l0 1.875l-1.953125 0l0 12.15625l1.953125 0l0 1.875l-4.21875 0zm13.881592 -15.90625l0 15.90625l-4.203125 0l0 -1.875l1.953125 0l0 -12.171875l-1.953125 0l0 -1.859375l4.203125 0z" fill-rule="nonzero"/><path fill="#000000" fill-opacity="0.0" d="m274.43964 53.237534c0 13.834648 -29.370087 20.751968 -58.740158 27.669289c-29.370087 6.917328 -58.740158 13.834648 -58.740158 27.669296" fill-rule="evenodd"/><path stroke="#000000" stroke-width="2.0" stroke-linejoin="round" stroke-linecap="butt" d="m274.43964 53.237534c0 13.834648 -29.370087 20.751968 -58.740158 27.669289c-14.685043 3.458664 -29.370087 6.917328 -40.383865 11.240654c-2.7534485 1.0808258 -5.2774353 2.2157059 -7.5146027 3.418129c-1.1185913 0.60121155 -2.1654663 1.2193146 -3.133484 1.8559952c-0.2420044 0.1591568 -0.4790802 0.31948853 -0.71110535 0.48101044c-0.11601257 0.08075714 -0.23077393 0.16181946 -0.34425354 0.24317169l-0.32336426 0.23535156" fill-rule="evenodd"/><path fill="#000000" stroke="#000000" stroke-width="2.0" stroke-linecap="butt" d="m160.48222 96.638695l-1.9807281 9.453407l7.593857 -5.9685364z" fill-rule="evenodd"/><path fill="#000000" fill-opacity="0.0" d="m111.40551 53.237534c0 13.834648 11.385826 20.751968 22.77166 27.669289c11.3858185 6.917328 22.771652 13.834648 22.771652 27.669296" fill-rule="evenodd"/><path stroke="#000000" stroke-width="2.0" stroke-linejoin="round" stroke-linecap="butt" d="m111.40551 53.237534c0 13.834648 11.385826 20.751968 22.77166 27.669289c5.6929016 3.458664 11.3858185 6.917328 15.655502 11.240654c1.0674286 1.0808258 2.0458984 2.2157059 2.9131775 3.418129c0.2168274 0.30060577 0.42669678 0.6054306 0.6292572 0.91469574c0.10128784 0.15463257 0.20075989 0.3103714 0.29833984 0.467247l0.04359436 0.07194519" fill-rule="evenodd"/><path fill="#000000" stroke="#000000" stroke-width="2.0" stroke-linecap="butt" d="m150.53563 97.909164l5.625763 7.8511734l0.7370453 -9.630524z" fill-rule="evenodd"/><path fill="#000000" fill-opacity="0.0" d="m156.95932 137.37611l0 21.51181" fill-rule="evenodd"/><path stroke="#000000" stroke-width="2.0" stroke-linejoin="round" stroke-linecap="butt" d="m156.95932 137.37611l0 9.51181" fill-rule="evenodd"/><path fill="#000000" stroke="#000000" stroke-width="2.0" stroke-linecap="butt" d="m153.65585 146.88792l3.3034668 9.076202l3.3034668 -9.076202z" fill-rule="evenodd"/><path fill="#d9d9d9" d="m192.90683 108.57612l24.0 0l0 23.04l-12.0 5.7599945l-12.0 -5.7599945z" fill-rule="evenodd"/><path stroke="#000000" stroke-width="2.0" stroke-linejoin="round" stroke-linecap="butt" d="m192.90683 108.57612l24.0 0l0 23.04l-12.0 5.7599945l-12.0 -5.7599945z" fill-rule="evenodd"/><path fill="#000000" d="m197.96364 129.73611l0 -15.90625l4.21875 0l0 1.875l-1.953125 0l0 12.15625l1.953125 0l0 1.875l-4.21875 0zm13.881592 -15.90625l0 15.90625l-4.203125 0l0 -1.875l1.953125 0l0 -12.171875l-1.953125 0l0 -1.859375l4.203125 0z" fill-rule="nonzero"/><path fill="#d9d9d9" d="m240.85432 108.57612l24.000015 0l0 23.04l-12.000015 5.7599945l-12.0 -5.7599945z" fill-rule="evenodd"/><path stroke="#000000" stroke-width="2.0" stroke-linejoin="round" stroke-linecap="butt" d="m240.85432 108.57612l24.000015 0l0 23.04l-12.000015 5.7599945l-12.0 -5.7599945z" fill-rule="evenodd"/><path fill="#000000" d="m245.91115 129.73611l0 -15.90625l4.21875 0l0 1.875l-1.953125 0l0 12.15625l1.953125 0l0 1.875l-4.21875 0zm13.881577 -15.90625l0 15.90625l-4.2031097 0l0 -1.875l1.9531097 0l0 -12.171875l-1.9531097 0l0 -1.859375l4.2031097 0z" fill-rule="nonzero"/><path fill="#d9d9d9" d="m288.80185 108.57612l24.0 0l0 23.04l-12.0 5.7599945l-12.0 -5.7599945z" fill-rule="evenodd"/><path stroke="#000000" stroke-width="2.0" stroke-linejoin="round" stroke-linecap="butt" d="m288.80185 108.57612l24.0 0l0 23.04l-12.0 5.7599945l-12.0 -5.7599945z" fill-rule="evenodd"/><path fill="#000000" d="m293.85864 129.73611l0 -15.90625l4.21875 0l0 1.875l-1.953125 0l0 12.15625l1.953125 0l0 1.875l-4.21875 0zm13.881592 -15.90625l0 15.90625l-4.203125 0l0 -1.875l1.953125 0l0 -12.171875l-1.953125 0l0 -1.859375l4.203125 0z" fill-rule="nonzero"/><path fill="#000000" fill-opacity="0.0" d="m111.40551 53.237534c0 13.834648 47.34646 20.751968 94.69291 27.669289c47.346466 6.917328 94.6929 13.834648 94.6929 27.669296" fill-rule="evenodd"/><path stroke="#000000" stroke-width="2.0" stroke-linejoin="round" stroke-linecap="butt" d="m111.40551 53.237534c0 13.834648 47.34646 20.751968 94.69291 27.669289c23.673233 3.458664 47.346466 6.917328 65.10138 11.240654c8.877472 2.1616592 16.27536 4.5394897 21.453857 7.2415695l0.25775146 0.13683319" fill-rule="evenodd"/><path fill="#000000" stroke="#000000" stroke-width="2.0" stroke-linecap="butt" d="m290.41998 101.69514l8.451416 4.675888l-3.468567 -9.014397z" fill-rule="evenodd"/><path fill="#000000" fill-opacity="0.0" d="m322.38705 53.237534c0 13.834648 -29.370056 20.751968 -58.740143 27.669289c-29.370087 6.917328 -58.740158 13.834648 -58.740158 27.669296" fill-rule="evenodd"/><path stroke="#000000" stroke-width="2.0" stroke-linejoin="round" stroke-linecap="butt" d="m322.38705 53.237534c0 13.834648 -29.370087 20.751968 -58.740143 27.669289c-14.685059 3.458664 -29.370087 6.917328 -40.383865 11.240654c-2.7534485 1.0808258 -5.2774353 2.2157059 -7.5146027 3.418129c-1.1186066 0.60121155 -2.1654816 1.2193146 -3.133484 1.8559952c-0.2420044 0.1591568 -0.47906494 0.31948853 -0.71110535 0.48101044c-0.11602783 0.08075714 -0.23077393 0.16181946 -0.3442688 0.24317169l-0.32336426 0.23535156" fill-rule="evenodd"/><path fill="#000000" stroke="#000000" stroke-width="2.0" stroke-linecap="butt" d="m208.42966 96.638695l-1.9807281 9.453407l7.593857 -5.9685364z" fill-rule="evenodd"/><path fill="#000000" fill-opacity="0.0" d="m370.3345 53.237534c0 13.834648 -29.370087 20.751968 -58.740173 27.669289c-29.370056 6.917328 -58.740143 13.834648 -58.740143 27.669296" fill-rule="evenodd"/><path stroke="#000000" stroke-width="2.0" stroke-linejoin="round" stroke-linecap="butt" d="m370.33447 53.237534c0 13.834648 -29.370056 20.751968 -58.740143 27.669289c-14.685028 3.458664 -29.370056 6.917328 -40.38385 11.240654c-2.7534485 1.0808258 -5.2774353 2.2157059 -7.514618 3.418129c-1.1185913 0.60121155 -2.1654663 1.2193146 -3.1334534 1.8559952c-0.2420044 0.1591568 -0.47906494 0.31948853 -0.7111206 0.48101044c-0.115997314 0.08075714 -0.23074341 0.16181946 -0.3442688 0.24317169l-0.32336426 0.23535156" fill-rule="evenodd"/><path fill="#000000" stroke="#000000" stroke-width="2.0" stroke-linecap="butt" d="m256.3771 96.638695l-1.9807434 9.453407l7.593872 -5.9685364z" fill-rule="evenodd"/><path fill="#000000" fill-opacity="0.0" d="m418.28192 53.237534c0 13.834648 -29.370056 20.751968 -58.740143 27.669289c-29.370087 6.917328 -58.740173 13.834648 -58.740173 27.669296" fill-rule="evenodd"/><path stroke="#000000" stroke-width="2.0" stroke-linejoin="round" stroke-linecap="butt" d="m418.28195 53.237534c0 13.834648 -29.370087 20.751968 -58.740173 27.669289c-14.685028 3.458664 -29.370087 6.917328 -40.38388 11.240654c-2.753418 1.0808258 -5.2774353 2.2157059 -7.5145874 3.418129c-1.1185913 0.60121155 -2.1654663 1.2193146 -3.133484 1.8559952c-0.2420044 0.1591568 -0.47906494 0.31948853 -0.7111206 0.48101044c-0.115997314 0.08075714 -0.23074341 0.16181946 -0.34423828 0.24317169l-0.32336426 0.23535156" fill-rule="evenodd"/><path fill="#000000" stroke="#000000" stroke-width="2.0" stroke-linecap="butt" d="m304.32452 96.638695l-1.9807434 9.453407l7.593872 -5.9685364z" fill-rule="evenodd"/><path fill="#000000" fill-opacity="0.0" d="m204.90683 137.37611l0 21.51181" fill-rule="evenodd"/><path stroke="#000000" stroke-width="2.0" stroke-linejoin="round" stroke-linecap="butt" d="m204.90683 137.37611l0 9.51181" fill-rule="evenodd"/><path fill="#000000" stroke="#000000" stroke-width="2.0" stroke-linecap="butt" d="m201.60336 146.88792l3.3034668 9.076202l3.3034668 -9.076202z" fill-rule="evenodd"/><path fill="#000000" fill-opacity="0.0" d="m252.85432 137.37611l0 21.51181" fill-rule="evenodd"/><path stroke="#000000" stroke-width="2.0" stroke-linejoin="round" stroke-linecap="butt" d="m252.85432 137.37611l0 9.51181" fill-rule="evenodd"/><path fill="#000000" stroke="#000000" stroke-width="2.0" stroke-linecap="butt" d="m249.55087 146.88792l3.3034515 9.076202l3.303482 -9.076202z" fill-rule="evenodd"/><path fill="#000000" fill-opacity="0.0" d="m300.80185 137.37611l0 21.51181" fill-rule="evenodd"/><path stroke="#000000" stroke-width="2.0" stroke-linejoin="round" stroke-linecap="butt" d="m300.80185 137.37611l0 9.51181" fill-rule="evenodd"/><path fill="#000000" stroke="#000000" stroke-width="2.0" stroke-linecap="butt" d="m297.49838 146.88792l3.3034668 9.076202l3.3034668 -9.076202z" fill-rule="evenodd"/><path fill="#000000" fill-opacity="0.0" d="m111.40551 53.237534c0 13.834648 23.377953 20.751968 46.755898 27.669289c23.37796 6.917328 46.755905 13.834648 46.755905 27.669296" fill-rule="evenodd"/><path stroke="#000000" stroke-width="2.0" stroke-linejoin="round" stroke-linecap="butt" d="m111.40551 53.237534c0 13.834648 23.377953 20.751968 46.755913 27.669289c11.688965 3.458664 23.377945 6.917328 32.144684 11.240654c2.191681 1.0808258 4.200714 2.2157059 5.9814606 3.418129c0.89038086 0.60121155 1.7236633 1.2193146 2.4941711 1.8559952c0.19265747 0.1591568 0.3813324 0.31948853 0.5660248 0.48101044l0.031433105 0.027885437" fill-rule="evenodd"/><path fill="#000000" stroke="#000000" stroke-width="2.0" stroke-linecap="butt" d="m196.44858 99.45508l7.119385 6.5272293l-1.2581482 -9.576393z" fill-rule="evenodd"/><path fill="#000000" fill-opacity="0.0" d="m111.40551 53.237534c0 13.834648 35.362206 20.751968 70.7244 27.669289c35.362213 6.917328 70.72441 13.834648 70.72441 27.669296" fill-rule="evenodd"/><path stroke="#000000" stroke-width="2.0" stroke-linejoin="round" stroke-linecap="butt" d="m111.40551 53.237534c0 13.834648 35.362206 20.751968 70.72442 27.669289c17.681091 3.458664 35.362198 6.917328 48.62303 11.240654c3.3152008 1.0808258 6.354141 2.2157059 9.047745 3.418129c1.346817 0.60121155 2.6072693 1.2193146 3.772766 1.8559952c0.5827637 0.31832886 1.1417694 0.6413193 1.6759491 0.96915436c0.13356018 0.081962585 0.2655487 0.16422272 0.39598083 0.24679565l0.2511902 0.16156006" fill-rule="evenodd"/><path fill="#000000" stroke="#000000" stroke-width="2.0" stroke-linecap="butt" d="m243.2051 100.7145l7.9539795 5.4794464l-2.570984 -9.310226z" fill-rule="evenodd"/><path fill="#000000" fill-opacity="0.0" d="m79.677315 158.88058l53.322838 0l0 24.0l-53.322838 0z" fill-rule="evenodd"/><path fill="#000000" d="m88.15116 170.96057l-0.9375 0l1.609375 3.296875l1.609375 -3.296875l-0.84375 0l0 -1.359375l3.390625 0l0 1.359375l-1.1875 0l-2.4375 5.0l-1.109375 0l-2.515625 -5.0l-1.203125 0l0 -1.359375l3.625 0l0 1.359375zm10.996902 -1.265625q0.625 0.296875 0.875 0.796875q0.265625 0.5 0.265625 1.46875l0 2.640625l1.125 0l0 1.359375l-2.453125 0l0 -0.6875q-0.640625 0.453125 -1.21875 0.65625q-0.5625 0.203125 -1.21875 0.203125q-0.734375 0 -1.3125 -0.296875q-0.578125 -0.296875 -0.90625 -0.78125q-0.3125 -0.484375 -0.3125 -1.015625q0 -0.578125 0.359375 -1.109375q0.359375 -0.53125 1.09375 -0.859375q0.75 -0.328125 1.828125 -0.328125q0.53125 0 1.6875 0.09375l0 -0.140625q0 -0.484375 -0.359375 -0.703125q-0.34375 -0.234375 -1.078125 -0.234375q-1.09375 0 -2.515625 0.578125l-0.53125 -1.171875q1.828125 -0.765625 3.125 -0.765625q0.890625 0 1.546875 0.296875zm-2.640625 5.078125q1.25 0 2.453125 -1.125l0 -0.4375l-0.359375 -0.03125q-0.125 -0.015625 -0.578125 -0.046875q-0.453125 -0.046875 -0.84375 -0.046875q-0.75 0 -1.296875 0.265625q-0.53125 0.25 -0.53125 0.6875q0 0.328125 0.328125 0.53125q0.34375 0.203125 0.828125 0.203125zm10.543777 -0.171875l2.4375 0l0 1.359375l-6.21875 0l0 -1.359375l2.421875 0l0 -6.375l-2.3125 0l0 -1.375l3.671875 0l0 7.75zm6.4812775 -0.890625q0 0.53125 0.3125 0.8125q0.3125 0.28125 0.90625 0.28125q0.53125 0 0.953125 -0.203125q0.4375 -0.203125 0.953125 -0.6875l0 -2.953125l-1.109375 0l0 -1.359375l2.453125 0l0 5.0l1.125 0l0 1.359375l-2.46875 0l0 -0.453125q-0.96875 0.625 -1.9375 0.625q-0.859375 0 -1.6875 -0.453125q-0.828125 -0.46875 -0.828125 -1.828125l0 -2.890625l-1.140625 0l0 -1.359375l2.46875 0l0 4.109375zm13.934402 -1.296875q0 0.5 -0.03125 0.96875l-5.59375 0q0.125 0.65625 0.71875 1.03125q0.59375 0.375 1.5625 0.375q1.359375 0 2.984375 -0.84375l0.609375 1.125q-0.875 0.53125 -1.796875 0.796875q-0.921875 0.265625 -1.796875 0.265625q-1.09375 0 -1.921875 -0.421875q-0.8125 -0.4375 -1.265625 -1.1875q-0.453125 -0.765625 -0.453125 -1.71875q0 -1.0 0.5 -1.765625q0.5 -0.78125 1.3125 -1.203125q0.828125 -0.421875 1.796875 -0.421875q0.921875 0 1.6875 0.390625q0.78125 0.375 1.234375 1.0625q0.453125 0.6875 0.453125 1.546875zm-3.453125 -1.640625q-0.703125 0 -1.28125 0.328125q-0.5625 0.3125 -0.78125 0.921875l4.203125 0q-0.109375 -0.5625 -0.671875 -0.90625q-0.546875 -0.34375 -1.46875 -0.34375z" fill-rule="nonzero"/><path fill="#000000" fill-opacity="0.0" d="m132.99081 182.88058l47.93701 0l0 24.0l-47.93701 0z" fill-rule="evenodd"/><path stroke="#000000" stroke-width="1.0" stroke-linejoin="round" stroke-linecap="butt" stroke-dasharray="4.0,3.0" d="m132.99081 182.88058l47.93701 0l0 24.0l-47.93701 0z" fill-rule="evenodd"/><path fill="#000000" d="m150.24681 200.06621l1.046875 0l0 1.734375l-4.359375 0l0 -1.734375l1.5625 0l-0.546875 -1.265625l-4.328125 0l-0.546875 1.265625l1.609375 0l0 1.734375l-4.4375 0l0 -1.734375l1.09375 0l3.046875 -7.203125l-2.296875 0l0 -1.734375l4.5 0l3.65625 8.9375zm-2.984375 -3.0l-1.453125 -3.453125l-1.46875 3.453125l2.921875 0zm10.568756 -0.25l3.171875 0l0 1.734375l-3.171875 0l0 3.1875l-1.734375 0l0 -3.1875l-3.171875 0l0 -1.734375l3.171875 0l0 -3.1875l1.734375 0l0 3.1875zm14.084381 -0.59375q0 2.796875 -0.96875 4.296875q-0.953125 1.5 -2.78125 1.5q-1.828125 0 -2.796875 -1.515625q-0.96875 -1.515625 -0.96875 -4.28125q0 -2.8125 0.984375 -4.328125q0.984375 -1.515625 2.828125 -1.515625q1.90625 0 2.796875 1.578125q0.90625 1.5625 0.90625 4.265625zm-3.703125 4.078125q0.984375 0 1.5 -1.046875q0.515625 -1.046875 0.515625 -3.0q0 -2.03125 -0.53125 -3.09375q-0.515625 -1.0625 -1.546875 -1.0625q-1.0 0 -1.515625 1.0625q-0.515625 1.0625 -0.515625 3.0625q0 4.078125 2.09375 4.078125z" fill-rule="nonzero"/><path fill="#000000" fill-opacity="0.0" d="m180.93825 182.88058l47.93701 0l0 24.0l-47.93701 0z" fill-rule="evenodd"/><path stroke="#000000" stroke-width="1.0" stroke-linejoin="round" stroke-linecap="butt" stroke-dasharray="4.0,3.0" d="m180.93825 182.88058l47.93701 0l0 24.0l-47.93701 0z" fill-rule="evenodd"/><path fill="#000000" d="m198.19424 200.06621l1.046875 0l0 1.734375l-4.359375 0l0 -1.734375l1.5625 0l-0.546875 -1.265625l-4.328125 0l-0.546875 1.265625l1.609375 0l0 1.734375l-4.4375 0l0 -1.734375l1.09375 0l3.046875 -7.203125l-2.296875 0l0 -1.734375l4.5 0l3.65625 8.9375zm-2.984375 -3.0l-1.453125 -3.453125l-1.46875 3.453125l2.921875 0zm10.568756 -0.25l3.171875 0l0 1.734375l-3.171875 0l0 3.1875l-1.734375 0l0 -3.1875l-3.171875 0l0 -1.734375l3.171875 0l0 -3.1875l1.734375 0l0 3.1875zm14.600006 3.25l0 1.734375l-8.125 0l0 -1.734375l3.234375 0l0 -7.6875l-3.15625 0.640625l0 -1.703125l4.890625 -0.984375l0 9.734375l3.15625 0z" fill-rule="nonzero"/><path fill="#000000" fill-opacity="0.0" d="m228.88568 182.88058l47.93701 0l0 24.0l-47.93701 0z" fill-rule="evenodd"/><path stroke="#000000" stroke-width="1.0" stroke-linejoin="round" stroke-linecap="butt" stroke-dasharray="4.0,3.0" d="m228.88568 182.88058l47.93701 0l0 24.0l-47.93701 0z" fill-rule="evenodd"/><path fill="#000000" d="m246.14168 200.06621l1.046875 0l0 1.734375l-4.359375 0l0 -1.734375l1.5625 0l-0.546875 -1.265625l-4.328125 0l-0.546875 1.265625l1.609375 0l0 1.734375l-4.4375 0l0 -1.734375l1.09375 0l3.046875 -7.203125l-2.296875 0l0 -1.734375l4.5 0l3.65625 8.9375zm-2.984375 -3.0l-1.453125 -3.453125l-1.46875 3.453125l2.921875 0zm10.568756 -0.25l3.1718597 0l0 1.734375l-3.1718597 0l0 3.1875l-1.734375 0l0 -3.1875l-3.171875 0l0 -1.734375l3.171875 0l0 -3.1875l1.734375 0l0 3.1875zm13.724991 -3.0q0 0.90625 -0.296875 1.546875q-0.296875 0.640625 -0.9375 1.296875q-0.640625 0.640625 -2.21875 2.078125l-1.4375 1.3125l3.234375 0l0 -1.234375l1.65625 0l0 2.984375l-7.65625 0l0 -1.453125l4.90625 -4.34375q0.484375 -0.4375 0.78125 -0.9375q0.3125 -0.515625 0.3125 -1.078125q0 -0.84375 -0.59375 -1.359375q-0.59375 -0.53125 -1.46875 -0.53125q-0.6875 0 -1.28125 0.34375q-0.578125 0.328125 -0.578125 1.0l0 0.3125l-1.71875 0l0 -1.640625q0.703125 -0.859375 1.625 -1.296875q0.921875 -0.453125 1.984375 -0.453125q1.015625 0 1.84375 0.4375q0.84375 0.421875 1.34375 1.203125q0.5 0.78125 0.5 1.8125z" fill-rule="nonzero"/><path fill="#000000" fill-opacity="0.0" d="m276.8331 182.88058l47.93701 0l0 24.0l-47.93701 0z" fill-rule="evenodd"/><path stroke="#000000" stroke-width="1.0" stroke-linejoin="round" stroke-linecap="butt" stroke-dasharray="4.0,3.0" d="m276.8331 182.88058l47.93701 0l0 24.0l-47.93701 0z" fill-rule="evenodd"/><path fill="#000000" d="m294.0891 200.06621l1.046875 0l0 1.734375l-4.359375 0l0 -1.734375l1.5625 0l-0.546875 -1.265625l-4.328125 0l-0.546875 1.265625l1.609375 0l0 1.734375l-4.4375 0l0 -1.734375l1.09375 0l3.046875 -7.203125l-2.296875 0l0 -1.734375l4.5 0l3.65625 8.9375zm-2.984375 -3.0l-1.453125 -3.453125l-1.46875 3.453125l2.921875 0zm10.568756 -0.25l3.171875 0l0 1.734375l-3.171875 0l0 3.1875l-1.734375 0l0 -3.1875l-3.171875 0l0 -1.734375l3.171875 0l0 -3.1875l1.734375 0l0 3.1875zm13.193756 -3.421875q0 0.734375 -0.25 1.3125q-0.25 0.5625 -0.875 1.109375q0.9375 0.609375 1.296875 1.234375q0.359375 0.609375 0.359375 1.515625q0 1.09375 -0.53125 1.875q-0.515625 0.78125 -1.390625 1.1875q-0.859375 0.390625 -1.859375 0.390625q-0.875 0 -1.578125 -0.171875q-0.6875 -0.171875 -2.359375 -0.84375l0.640625 -1.453125q1.53125 0.53125 2.0 0.640625q0.46875 0.109375 1.09375 0.109375q0.984375 0 1.625 -0.5q0.65625 -0.5 0.65625 -1.296875q0 -0.8125 -0.59375 -1.234375q-0.578125 -0.4375 -1.625 -0.4375l-0.9375 0l0 -1.703125l0.25 0q2.359375 0 2.359375 -1.5625q0 -0.671875 -0.484375 -1.0625q-0.484375 -0.390625 -1.234375 -0.390625q-0.578125 0 -1.171875 0.234375q-0.578125 0.21875 -1.453125 0.71875l-0.84375 -1.34375q1.109375 -0.75 1.890625 -1.046875q0.78125 -0.296875 1.5625 -0.296875q0.890625 0 1.6875 0.359375q0.796875 0.359375 1.28125 1.046875q0.484375 0.671875 0.484375 1.609375z" fill-rule="nonzero"/><path fill="#000000" fill-opacity="0.0" d="m79.65632 182.88058l53.322838 0l0 24.0l-53.322838 0z" fill-rule="evenodd"/><path fill="#000000" d="m94.73018 193.69495q0.625 0.296875 0.875 0.796875q0.265625 0.5 0.265625 1.46875l0 2.640625l1.125 0l0 1.359375l-2.453125 0l0 -0.6875q-0.640625 0.453125 -1.21875 0.65625q-0.5625 0.203125 -1.21875 0.203125q-0.734375 0 -1.3125 -0.296875q-0.578125 -0.296875 -0.90625 -0.78125q-0.3125 -0.484375 -0.3125 -1.015625q0 -0.578125 0.359375 -1.109375q0.359375 -0.53125 1.09375 -0.859375q0.75 -0.328125 1.828125 -0.328125q0.53125 0 1.6875 0.09375l0 -0.140625q0 -0.484375 -0.359375 -0.703125q-0.34375 -0.234375 -1.078125 -0.234375q-1.09375 0 -2.515625 0.578125l-0.53125 -1.171875q1.828125 -0.765625 3.125 -0.765625q0.890625 0 1.546875 0.296875zm-2.640625 5.078125q1.25 0 2.453125 -1.125l0 -0.4375l-0.359375 -0.03125q-0.125 -0.015625 -0.578125 -0.046875q-0.453125 -0.046875 -0.84375 -0.046875q-0.75 0 -1.296875 0.265625q-0.53125 0.25 -0.53125 0.6875q0 0.328125 0.328125 0.53125q0.34375 0.203125 0.828125 0.203125zm12.965652 -0.171875l1.109375 0l0 1.359375l-2.421875 0l0 -0.53125q-0.421875 0.34375 -0.96875 0.53125q-0.53125 0.171875 -1.109375 0.171875q-0.953125 0 -1.765625 -0.4375q-0.796875 -0.453125 -1.265625 -1.21875q-0.453125 -0.765625 -0.453125 -1.703125q0 -0.90625 0.453125 -1.671875q0.453125 -0.78125 1.234375 -1.234375q0.796875 -0.46875 1.734375 -0.46875q0.609375 0 1.15625 0.1875q0.5625 0.171875 0.953125 0.53125l0 -1.890625l-1.75 0l0 -1.375l3.09375 0l0 7.75zm-3.421875 0.171875q0.859375 0 1.46875 -0.515625q0.609375 -0.515625 0.609375 -1.46875q0 -0.96875 -0.609375 -1.5q-0.59375 -0.53125 -1.453125 -0.53125q-0.59375 0 -1.078125 0.265625q-0.46875 0.265625 -0.75 0.71875q-0.28125 0.453125 -0.28125 1.015625q0 0.53125 0.28125 1.0q0.296875 0.46875 0.765625 0.75q0.484375 0.265625 1.046875 0.265625zm12.215652 -0.171875l1.109375 0l0 1.359375l-2.421875 0l0 -0.53125q-0.421875 0.34375 -0.96875 0.53125q-0.53125 0.171875 -1.109375 0.171875q-0.953125 0 -1.765625 -0.4375q-0.796875 -0.453125 -1.265625 -1.21875q-0.453125 -0.765625 -0.453125 -1.703125q0 -0.90625 0.453125 -1.671875q0.453125 -0.78125 1.234375 -1.234375q0.796875 -0.46875 1.734375 -0.46875q0.609375 0 1.15625 0.1875q0.5625 0.171875 0.953125 0.53125l0 -1.890625l-1.75 0l0 -1.375l3.09375 0l0 7.75zm-3.421875 0.171875q0.859375 0 1.46875 -0.515625q0.609375 -0.515625 0.609375 -1.46875q0 -0.96875 -0.609375 -1.5q-0.59375 -0.53125 -1.453125 -0.53125q-0.59375 0 -1.078125 0.265625q-0.46875 0.265625 -0.75 0.71875q-0.28125 0.453125 -0.28125 1.015625q0 0.53125 0.28125 1.0q0.296875 0.46875 0.765625 0.75q0.484375 0.265625 1.046875 0.265625zm13.028152 -3.703125l-1.296875 0.203125q-0.03125 -0.3125 -0.125 -0.40625q-0.09375 -0.109375 -0.34375 -0.109375q-0.8125 0 -2.625 1.515625l0 2.328125l2.671875 0l0 1.359375l-5.59375 0l0 -1.359375l1.5625 0l0 -3.640625l-1.578125 0l0 -1.359375l2.9375 0l0 1.03125q0.8125 -0.671875 1.421875 -0.953125q0.625 -0.28125 1.203125 -0.28125q1.609375 0 1.765625 1.671875z" fill-rule="nonzero"/></g></svg>