<svg version="1.1" viewBox="0.0 0.0 463.3910761154856 227.79790026246718" fill="none" stroke="none" stroke-linecap="square" stroke-miterlimit="10" xmlns:xlink="http://www.w3.org/1999/xlink" xmlns="http://www.w3.org/2000/svg"><clipPath id="p.0"><path d="m0 0l463.39108 0l0 227.7979l-463.39108 0l0 -227.7979z" clip-rule="nonzero"/></clipPath><g clip-path="url(#p.0)"><path fill="#000000" fill-opacity="0.0" d="m0 0l463.39108 0l0 227.7979l-463.39108 0z" fill-rule="evenodd"/><path fill="#ffffff" d="m0 -0.018372703l463.40158 0l0 227.81102l-463.40158 0z" fill-rule="evenodd"/><path stroke="#000000" stroke-width="1.0" stroke-linejoin="round" stroke-linecap="butt" d="m0 -0.018372703l463.40158 0l0 227.81102l-463.40158 0z" fill-rule="evenodd"/><path fill="#d9d9d9" d="m99.32018 168.69292l265.38583 0l0 51.2126l-265.38583 0z" fill-rule="evenodd"/><path stroke="#000000" stroke-width="2.0" stroke-linejoin="round" stroke-linecap="butt" d="m99.32018 168.69292l265.38583 0l0 51.2126l-265.38583 0z" fill-rule="evenodd"/><path fill="#000000" d="m208.99432 210.51302q0 1.765625 -0.71875 3.015625q-0.703125 1.25 -1.84375 1.890625q-1.140625 0.625 -2.359375 0.625q-1.34375 0 -2.484375 -0.65625q-1.140625 -0.65625 -1.8125 -1.90625q-0.671875 -1.25 -0.671875 -2.9375q0 -1.53125 0.625 -2.8125q0.640625 -1.296875 1.765625 -2.03125q1.140625 -0.75 2.578125 -0.75q1.453125 0 2.578125 0.765625q1.125 0.765625 1.734375 2.03125q0.609375 1.265625 0.609375 2.765625zm-4.921875 3.84375q1.0 0 1.71875 -0.546875q0.734375 -0.5625 1.109375 -1.46875q0.390625 -0.90625 0.390625 -1.90625q0 -0.9375 -0.390625 -1.796875q-0.375 -0.875 -1.109375 -1.40625q-0.734375 -0.546875 -1.75 -0.546875q-0.90625 0 -1.640625 0.53125q-0.734375 0.53125 -1.140625 1.40625q-0.40625 0.859375 -0.40625 1.875q0 1.03125 0.390625 1.921875q0.390625 0.890625 1.125 1.421875q0.75 0.515625 1.703125 0.515625zm10.818756 -7.46875l-1.71875 0l0 5.34375q0 1.109375 0.53125 1.59375q0.53125 0.484375 1.65625 0.484375q1.25 0 1.765625 -0.546875q0.515625 -0.546875 0.515625 -1.859375l0 -5.015625l-1.75 0l0 -1.734375l4.890625 0l0 1.734375l-1.421875 0l0 5.40625q0 0.921875 -0.28125 1.671875q-0.28125 0.734375 -0.796875 1.1875q-0.515625 0.453125 -1.359375 0.671875q-0.828125 0.21875 -1.546875 0.21875q-1.0625 0 -1.78125 -0.25q-0.703125 -0.25 -1.21875 -0.765625q-0.921875 -0.859375 -0.921875 -2.9375l0 -5.203125l-1.453125 0l0 -1.734375l4.890625 0l0 1.734375zm16.428131 2.328125l-1.734375 0l0 -2.328125l-2.265625 0l0 7.203125l2.25 0l0 1.734375l-6.234375 0l0 -1.734375l2.234375 0l0 -7.203125l-2.265625 0l0 2.328125l-1.734375 0l0 -4.0625l9.75 0l0 4.0625zm10.865631 -0.46875q0 1.0 -0.484375 1.78125q-0.46875 0.78125 -1.296875 1.21875q-0.828125 0.4375 -1.828125 0.4375l-2.25 0l0 1.90625l2.265625 0l0 1.734375l-5.453125 0l0 -1.734375l1.46875 0l0 -7.203125l-1.453125 0l0 -1.734375l4.921875 0q1.9375 0 3.015625 0.953125q1.09375 0.953125 1.09375 2.640625zm-1.71875 -0.046875q0 -0.828125 -0.609375 -1.3125q-0.609375 -0.5 -1.78125 -0.5l-1.75 0l0 3.5625l1.9375 0q2.203125 0 2.203125 -1.75zm8.006256 -1.8125l-1.71875 0l0 5.34375q0 1.109375 0.53125 1.59375q0.53125 0.484375 1.65625 0.484375q1.25 0 1.765625 -0.546875q0.515625 -0.546875 0.515625 -1.859375l0 -5.015625l-1.75 0l0 -1.734375l4.890625 0l0 1.734375l-1.421875 0l0 5.40625q0 0.921875 -0.28125 1.671875q-0.28125 0.734375 -0.796875 1.1875q-0.515625 0.453125 -1.359375 0.671875q-0.828125 0.21875 -1.546875 0.21875q-1.0625 0 -1.78125 -0.25q-0.703125 -0.25 -1.21875 -0.765625q-0.921875 -0.859375 -0.921875 -2.9375l0 -5.203125l-1.453125 0l0 -1.734375l4.890625 0l0 1.734375zm16.428131 2.328125l-1.734375 0l0 -2.328125l-2.265625 0l0 7.203125l2.25 0l0 1.734375l-6.234375 0l0 -1.734375l2.234375 0l0 -7.203125l-2.265625 0l0 2.328125l-1.734375 0l0 -4.0625l9.75 0l0 4.0625z" fill-rule="nonzero"/><path fill="#d9d9d9" d="m10.375327 9.501312l95.40157 0l0 51.212597l-95.40157 0z" fill-rule="evenodd"/><path stroke="#000000" stroke-width="2.0" stroke-linejoin="round" stroke-linecap="butt" d="m10.375327 9.501312l95.40157 0l0 51.212597l-95.40157 0z" fill-rule="evenodd"/><path fill="#000000" d="m29.069843 20.343185q0 1.0 -0.484375 1.78125q-0.46875 0.78125 -1.296875 1.21875q-0.828125 0.4375 -1.828125 0.4375l-2.25 0l0 1.90625l2.265625 0l0 1.734375l-5.453125 0l0 -1.734375l1.46875 0l0 -7.203125l-1.453125 0l0 -1.734375l4.921875 0q1.9375 0 3.015625 0.953125q1.09375 0.953125 1.09375 2.640625zm-1.71875 -0.046875q0 -0.828125 -0.609375 -1.3125q-0.609375 -0.5 -1.78125 -0.5l-1.75 0l0 3.5625l1.9375 0q2.203125 0 2.203125 -1.75zm13.303131 1.8125q0 1.765625 -0.71875 3.015625q-0.703125 1.25 -1.84375 1.890625q-1.140625 0.625 -2.359375 0.625q-1.34375 0 -2.484375 -0.65625q-1.140625 -0.65625 -1.8125 -1.90625q-0.671875 -1.25 -0.671875 -2.9375q0 -1.53125 0.625 -2.8125q0.640625 -1.296875 1.765625 -2.03125q1.140625 -0.75 2.578125 -0.75q1.453125 0 2.578125 0.765625q1.125 0.765625 1.734375 2.03125q0.609375 1.265625 0.609375 2.765625zm-4.921875 3.84375q1.0 0 1.71875 -0.546875q0.734375 -0.5625 1.109375 -1.46875q0.390625 -0.90625 0.390625 -1.90625q0 -0.9375 -0.390625 -1.796875q-0.375 -0.875 -1.109375 -1.40625q-0.734375 -0.546875 -1.75 -0.546875q-0.90625 0 -1.640625 0.53125q-0.734375 0.53125 -1.140625 1.40625q-0.40625 0.859375 -0.40625 1.875q0 1.03125 0.390625 1.921875q0.390625 0.890625 1.125 1.421875q0.75 0.515625 1.703125 0.515625zm15.100006 -7.46875l-3.015625 0l0 7.203125l3.015625 0l0 1.734375l-7.875 0l0 -1.734375l3.078125 0l0 -7.203125l-3.078125 0l0 -1.734375l7.875 0l0 1.734375zm9.787506 5.671875l0 -5.671875l-1.734375 0l0 -1.734375l4.875 0l0 1.734375l-1.4375 0l0 8.9375l-1.640625 0l-4.8125 -7.609375l0 5.875l1.8125 0l0 1.734375l-4.9375 0l0 -1.734375l1.40625 0l0 -7.203125l-1.40625 0l0 -1.734375l3.328125 0l4.546875 7.40625zm13.553127 -3.34375l-1.734375 0l0 -2.328125l-2.265625 0l0 7.203125l2.25 0l0 1.734375l-6.234375 0l0 -1.734375l2.234375 0l0 -7.203125l-2.265625 0l0 2.328125l-1.734375 0l0 -4.0625l9.75 0l0 4.0625zm10.975014 -0.109375l-1.734375 0l0 -2.21875l-4.46875 0l0 2.65625l1.984375 0l0 -1.234375l1.734375 0l0 4.171875l-1.734375 0l0 -1.234375l-1.984375 0l0 2.84375l4.46875 0l0 -2.171875l1.734375 0l0 3.90625l-9.390625 0l0 -1.734375l1.484375 0l0 -7.203125l-1.4375 0l0 -1.734375l9.34375 0l0 3.953125zm10.631256 -0.8125q0 1.125 -0.640625 1.890625q-0.625 0.765625 -1.84375 1.0625l2.15625 2.84375l1.390625 0l0 1.734375l-2.5 0q-0.421875 -0.953125 -1.125 -1.921875l-1.671875 -2.3125l-1.4375 0l0 2.5l1.375 0l0 1.734375l-4.5625 0l0 -1.734375l1.46875 0l0 -7.203125l-1.390625 0l0 -1.734375l5.328125 0q1.78125 0 2.609375 0.921875q0.84375 0.90625 0.84375 2.21875zm-1.703125 0.015625q0 -0.71875 -0.40625 -1.0625q-0.40625 -0.359375 -1.171875 -0.359375l-2.390625 0l0 2.96875l1.796875 0q1.09375 0 1.625 -0.375q0.546875 -0.390625 0.546875 -1.171875z" fill-rule="nonzero"/><path fill="#d9d2e9" d="m16.831966 31.91601l82.48819 0l0 24.000002l-82.48819 0z" fill-rule="evenodd"/><path stroke="#000000" stroke-width="2.0" stroke-linejoin="round" stroke-linecap="butt" d="m16.831966 31.91601l82.48819 0l0 24.000002l-82.48819 0z" fill-rule="evenodd"/><path fill="#000000" d="m62.55731 49.101635l1.046875 0l0 1.734375l-4.359375 0l0 -1.734375l1.5625 0l-0.546875 -1.265625l-4.328125 0l-0.546875 1.265625l1.609375 0l0 1.734375l-4.4375 0l0 -1.734375l1.09375 0l3.046875 -7.203125l-2.296875 0l0 -1.734375l4.5 0l3.65625 8.9375zm-2.984375 -3.0l-1.453125 -3.453125l-1.46875 3.453125l2.921875 0z" fill-rule="nonzero"/><path fill="#d9d2e9" d="m106.177025 173.53543l62.708656 0l0 24.0l-62.708656 0z" fill-rule="evenodd"/><path stroke="#000000" stroke-width="2.0" stroke-linejoin="round" stroke-linecap="butt" d="m106.177025 173.53543l62.708656 0l0 24.0l-62.708656 0z" fill-rule="evenodd"/><path fill="#000000" d="m117.37192 189.91106l0.890625 0l0 1.484375l-3.71875 0l0 -1.484375l1.328125 0l-0.46875 -1.09375l-3.71875 0l-0.453125 1.09375l1.375 0l0 1.484375l-3.8125 0l0 -1.484375l0.953125 0l2.59375 -6.171875l-1.96875 0l0 -1.5l3.859375 0l3.140625 7.671875zm-2.5625 -2.578125l-1.25 -2.96875l-1.25 2.96875l2.5 0zm11.506271 -4.734375l-1.875 0l0 8.6875l1.875 0l0 1.484375l-3.359375 0l0 -11.65625l3.359375 0l0 1.484375zm9.803146 1.140625l-2.59375 0l0 6.171875l2.59375 0l0 1.484375l-6.75 0l0 -1.484375l2.640625 0l0 -6.171875l-2.640625 0l0 -1.5l6.75 0l0 1.5zm6.9593964 0.6875l1.953125 -0.796875l0.546875 1.609375l-2.0 0.546875l1.234375 1.671875l-1.328125 0.984375l-1.1875 -1.78125l-1.203125 1.796875l-1.328125 -0.984375l1.25 -1.6875l-2.046875 -0.53125l0.5625 -1.625l1.984375 0.796875l-0.09375 -2.15625l1.75 0l-0.09375 2.15625zm12.131271 -1.125l-4.875 6.609375l3.75 0l0 -2.265625l1.484375 0l0 3.75l-7.21875 0l0 -1.140625l4.8125 -6.515625l-3.28125 0l0 2.015625l-1.46875 0l0 -3.515625l6.796875 0l0 1.0625zm6.5375214 9.46875l-3.40625 0l0 -1.484375l1.90625 0l0 -8.6875l-1.90625 0l0 -1.484375l3.40625 0l0 11.65625z" fill-rule="nonzero"/><path fill="#d9d2e9" d="m168.9014 173.53543l62.708664 0l0 24.0l-62.708664 0z" fill-rule="evenodd"/><path stroke="#000000" stroke-width="2.0" stroke-linejoin="round" stroke-linecap="butt" d="m168.9014 173.53543l62.708664 0l0 24.0l-62.708664 0z" fill-rule="evenodd"/><path fill="#000000" d="m180.09628 189.91106l0.890625 0l0 1.484375l-3.71875 0l0 -1.484375l1.328125 0l-0.46875 -1.09375l-3.71875 0l-0.453125 1.09375l1.375 0l0 1.484375l-3.8125 0l0 -1.484375l0.953125 0l2.59375 -6.171875l-1.96875 0l0 -1.5l3.859375 0l3.140625 7.671875zm-2.5625 -2.578125l-1.25 -2.96875l-1.25 2.96875l2.5 0zm11.506271 -4.734375l-1.875 0l0 8.6875l1.875 0l0 1.484375l-3.359375 0l0 -11.65625l3.359375 0l0 1.484375zm11.037521 1.140625l-1.9375 0l0 4.734375q0 0.828125 -0.203125 1.40625q-0.1875 0.578125 -0.609375 0.9375q-0.453125 0.40625 -0.90625 0.578125q-0.453125 0.1875 -1.203125 0.1875q-0.8125 0 -1.765625 -0.28125q-0.953125 -0.28125 -1.921875 -0.78125l0 -3.6875l1.5 0l0 1.765625q0 0.859375 0.53125 1.171875q0.359375 0.203125 0.8125 0.28125q0.46875 0.078125 0.828125 0.078125q0.796875 0 1.140625 -0.375q0.34375 -0.390625 0.34375 -1.421875l0 -4.59375l-2.8125 0l0 -1.5l6.203125 0l0 1.5zm5.7250366 0.6875l1.953125 -0.796875l0.546875 1.609375l-2.0 0.546875l1.234375 1.671875l-1.328125 0.984375l-1.1875 -1.78125l-1.203125 1.796875l-1.328125 -0.984375l1.25 -1.6875l-2.046875 -0.53125l0.5625 -1.625l1.984375 0.796875l-0.09375 -2.15625l1.75 0l-0.09375 2.15625zm12.131271 -1.125l-4.875 6.609375l3.75 0l0 -2.265625l1.484375 0l0 3.75l-7.21875 0l0 -1.140625l4.8125 -6.515625l-3.28125 0l0 2.015625l-1.46875 0l0 -3.515625l6.796875 0l0 1.0625zm6.5375214 9.46875l-3.40625 0l0 -1.484375l1.90625 0l0 -8.6875l-1.90625 0l0 -1.484375l3.40625 0l0 11.65625z" fill-rule="nonzero"/><path fill="#d9d2e9" d="m231.62578 173.53543l62.708664 0l0 24.0l-62.708664 0z" fill-rule="evenodd"/><path stroke="#000000" stroke-width="2.0" stroke-linejoin="round" stroke-linecap="butt" d="m231.62578 173.53543l62.708664 0l0 24.0l-62.708664 0z" fill-rule="evenodd"/><path fill="#000000" d="m242.82066 189.91106l0.890625 0l0 1.484375l-3.71875 0l0 -1.484375l1.328125 0l-0.46875 -1.09375l-3.71875 0l-0.453125 1.09375l1.375 0l0 1.484375l-3.8125 0l0 -1.484375l0.953125 0l2.59375 -6.171875l-1.96875 0l0 -1.5l3.859375 0l3.140625 7.671875zm-2.5625 -2.578125l-1.25 -2.96875l-1.25 2.96875l2.5 0zm11.506271 -4.734375l-1.875 0l0 8.6875l1.875 0l0 1.484375l-3.359375 0l0 -11.65625l3.359375 0l0 1.484375zm6.0844116 1.140625l-1.25 0l0 2.46875l2.578125 -2.46875l-0.65625 0l0 -1.5l3.640625 0l0 1.5l-1.015625 0l-2.65625 2.5625q1.46875 1.71875 2.46875 3.609375l1.625 0l0 1.484375l-2.421875 0q-0.5 -1.046875 -1.21875 -2.171875q-0.71875 -1.125 -1.453125 -1.96875l-0.890625 0.859375l0 1.796875l1.25 0l0 1.484375l-3.9843903 0l0 -1.484375l1.265625 0l0 -6.171875l-1.265625 0l0 -1.5l3.9843903 0l0 1.5zm10.678131 0.6875l1.953125 -0.796875l0.546875 1.609375l-2.0 0.546875l1.234375 1.671875l-1.328125 0.984375l-1.1875 -1.78125l-1.203125 1.796875l-1.328125 -0.984375l1.25 -1.6875l-2.046875 -0.53125l0.5625 -1.625l1.984375 0.796875l-0.09375 -2.15625l1.75 0l-0.09375 2.15625zm12.131287 -1.125l-4.875 6.609375l3.75 0l0 -2.265625l1.484375 0l0 3.75l-7.21875 0l0 -1.140625l4.8125 -6.515625l-3.28125 0l0 2.015625l-1.46875 0l0 -3.515625l6.796875 0l0 1.0625zm6.537506 9.46875l-3.40625 0l0 -1.484375l1.90625 0l0 -8.6875l-1.90625 0l0 -1.484375l3.40625 0l0 11.65625z" fill-rule="nonzero"/><path fill="#d9d2e9" d="m294.35016 173.53543l62.70865 0l0 24.0l-62.70865 0z" fill-rule="evenodd"/><path stroke="#000000" stroke-width="2.0" stroke-linejoin="round" stroke-linecap="butt" d="m294.35016 173.53543l62.70865 0l0 24.0l-62.70865 0z" fill-rule="evenodd"/><path fill="#000000" d="m305.54504 189.91106l0.890625 0l0 1.484375l-3.71875 0l0 -1.484375l1.328125 0l-0.46875 -1.09375l-3.71875 0l-0.453125 1.09375l1.375 0l0 1.484375l-3.8125 0l0 -1.484375l0.953125 0l2.59375 -6.171875l-1.96875 0l0 -1.5l3.859375 0l3.140625 7.671875zm-2.5625 -2.578125l-1.25 -2.96875l-1.25 2.96875l2.5 0zm11.506256 -4.734375l-1.875 0l0 8.6875l1.875 0l0 1.484375l-3.359375 0l0 -11.65625l3.359375 0l0 1.484375zm7.3500366 1.140625l-1.921875 0l0 6.171875l3.625 0l0 -2.8125l1.484375 0l0 4.296875l-8.109375 0l0 -1.484375l1.53125 0l0 -6.171875l-1.53125 0l0 -1.5l4.921875 0l0 1.5zm9.412506 0.6875l1.953125 -0.796875l0.546875 1.609375l-2.0 0.546875l1.234375 1.671875l-1.328125 0.984375l-1.1875 -1.78125l-1.203125 1.796875l-1.328125 -0.984375l1.25 -1.6875l-2.046875 -0.53125l0.5625 -1.625l1.984375 0.796875l-0.09375 -2.15625l1.75 0l-0.09375 2.15625zm12.131287 -1.125l-4.875 6.609375l3.75 0l0 -2.265625l1.484375 0l0 3.75l-7.21875 0l0 -1.140625l4.8125 -6.515625l-3.28125 0l0 2.015625l-1.46875 0l0 -3.515625l6.796875 0l0 1.0625zm6.537506 9.46875l-3.40625 0l0 -1.484375l1.90625 0l0 -8.6875l-1.90625 0l0 -1.484375l3.40625 0l0 11.65625z" fill-rule="nonzero"/><path fill="#d9d9d9" d="m143.99606 122.020996l31.561737 0l0 23.038315l-15.780869 5.7595825l-15.780869 -5.7595825z" fill-rule="evenodd"/><path stroke="#000000" stroke-width="2.0" stroke-linejoin="round" stroke-linecap="butt" d="m143.99606 122.020996l31.561737 0l0 23.038315l-15.780869 5.7595825l-15.780869 -5.7595825z" fill-rule="evenodd"/><path fill="#000000" d="m153.36127 130.60329l-1.875 0l0 8.6875l1.875 0l0 1.484375l-3.359375 0l0 -11.65625l3.359375 0l0 1.484375zm16.231293 10.171875l-3.40625 0l0 -1.484375l1.90625 0l0 -8.6875l-1.90625 0l0 -1.484375l3.40625 0l0 11.65625z" fill-rule="nonzero"/><path fill="#d9d9d9" d="m191.9432 122.020996l31.561737 0l0 23.038315l-15.780869 5.7595825l-15.780869 -5.7595825z" fill-rule="evenodd"/><path stroke="#000000" stroke-width="2.0" stroke-linejoin="round" stroke-linecap="butt" d="m191.9432 122.020996l31.561737 0l0 23.038315l-15.780869 5.7595825l-15.780869 -5.7595825z" fill-rule="evenodd"/><path fill="#000000" d="m201.30841 130.60329l-1.875 0l0 8.6875l1.875 0l0 1.484375l-3.359375 0l0 -11.65625l3.359375 0l0 1.484375zm16.231293 10.171875l-3.40625 0l0 -1.484375l1.90625 0l0 -8.6875l-1.90625 0l0 -1.484375l3.40625 0l0 11.65625z" fill-rule="nonzero"/><path fill="#d9d9d9" d="m239.89165 122.020996l31.561752 0l0 23.038315l-15.780884 5.7595825l-15.780869 -5.7595825z" fill-rule="evenodd"/><path stroke="#000000" stroke-width="2.0" stroke-linejoin="round" stroke-linecap="butt" d="m239.89165 122.020996l31.561752 0l0 23.038315l-15.780884 5.7595825l-15.780869 -5.7595825z" fill-rule="evenodd"/><path fill="#000000" d="m249.25687 130.60329l-1.875 0l0 8.6875l1.875 0l0 1.484375l-3.359375 0l0 -11.65625l3.359375 0l0 1.484375zm16.231293 10.171875l-3.40625 0l0 -1.484375l1.90625 0l0 -8.6875l-1.90625 0l0 -1.484375l3.40625 0l0 11.65625z" fill-rule="nonzero"/><path fill="#d9d9d9" d="m287.83984 122.020996l31.561737 0l0 23.038315l-15.780884 5.7595825l-15.780853 -5.7595825z" fill-rule="evenodd"/><path stroke="#000000" stroke-width="2.0" stroke-linejoin="round" stroke-linecap="butt" d="m287.83984 122.020996l31.561737 0l0 23.038315l-15.780884 5.7595825l-15.780853 -5.7595825z" fill-rule="evenodd"/><path fill="#000000" d="m297.20505 130.60329l-1.875 0l0 8.6875l1.875 0l0 1.484375l-3.359375 0l0 -11.65625l3.359375 0l0 1.484375zm16.231293 10.171875l-3.40625 0l0 -1.484375l1.90625 0l0 -8.6875l-1.90625 0l0 -1.484375l3.40625 0l0 11.65625z" fill-rule="nonzero"/><path fill="#000000" fill-opacity="0.0" d="m159.77693 150.8189l-22.236221 22.708664" fill-rule="evenodd"/><path stroke="#000000" stroke-width="2.0" stroke-linejoin="round" stroke-linecap="butt" d="m159.77693 150.8189l-13.840591 14.134659" fill-rule="evenodd"/><path fill="#000000" stroke="#000000" stroke-width="2.0" stroke-linecap="butt" d="m143.576 162.64233l-3.9897003 8.796173l8.710358 -4.1737213z" fill-rule="evenodd"/><path fill="#000000" fill-opacity="0.0" d="m207.72408 150.8189l-7.464569 22.708664" fill-rule="evenodd"/><path stroke="#000000" stroke-width="2.0" stroke-linejoin="round" stroke-linecap="butt" d="m207.72408 150.8189l-3.7172852 11.308746" fill-rule="evenodd"/><path fill="#000000" stroke="#000000" stroke-width="2.0" stroke-linecap="butt" d="m200.86852 161.09607l0.3040161 9.6539l5.972519 -7.590744z" fill-rule="evenodd"/><path fill="#000000" fill-opacity="0.0" d="m255.67252 150.8189l7.3070984 22.708664" fill-rule="evenodd"/><path stroke="#000000" stroke-width="2.0" stroke-linejoin="round" stroke-linecap="butt" d="m255.67253 150.8189l3.631363 11.285477" fill-rule="evenodd"/><path fill="#000000" stroke="#000000" stroke-width="2.0" stroke-linecap="butt" d="m256.15924 163.11626l5.9248047 7.6280365l0.36453247 -9.651794z" fill-rule="evenodd"/><path fill="#000000" fill-opacity="0.0" d="m400.454 55.91601c0 16.526234 -24.204712 24.788692 -48.409454 33.05247c-24.204712 8.263779 -48.409454 16.528885 -48.409454 33.057762" fill-rule="evenodd"/><path stroke="#0000ff" stroke-width="2.0" stroke-linejoin="round" stroke-linecap="butt" d="m400.45404 55.91601c0 16.526234 -24.204742 24.788692 -48.409454 33.05247c-12.102356 4.1318893 -24.204742 8.264107 -33.281525 13.429474c-2.2691956 1.291336 -4.3492737 2.6472473 -6.192993 4.0838623c-0.921875 0.7183151 -1.7846375 1.4567947 -2.5823975 2.2174835c-0.39889526 0.38034058 -0.78152466 0.7662277 -1.1471558 1.1579208c-0.18283081 0.19584656 -0.36138916 0.39313507 -0.535614 0.5919113c-0.087127686 0.09938812 -0.17315674 0.19915009 -0.25811768 0.2992859l-0.0743103 0.08911896" fill-rule="evenodd"/><path fill="#0000ff" stroke="#0000ff" stroke-width="2.0" stroke-linecap="butt" d="m304.89233 109.64351l-0.20043945 9.656601l6.3606873 -7.268547z" fill-rule="evenodd"/><path fill="#000000" fill-opacity="0.0" d="m400.454 55.91601c0 16.526234 -36.19684 24.788692 -72.39371 33.05247c-36.19684 8.263779 -72.39369 16.528885 -72.39369 33.057762" fill-rule="evenodd"/><path stroke="#0000ff" stroke-width="2.0" stroke-linejoin="round" stroke-linecap="butt" d="m400.45404 55.91601c0 16.526234 -36.19687 24.788692 -72.39374 33.05247c-18.09842 4.1318893 -36.19684 8.264107 -49.77066 13.429474c-6.7869263 2.5826797 -12.442688 5.4236374 -16.401703 8.651985c-0.12371826 0.100883484 -0.24578857 0.20214844 -0.3661499 0.30379486l-0.14041138 0.12067413" fill-rule="evenodd"/><path fill="#0000ff" stroke="#0000ff" stroke-width="2.0" stroke-linecap="butt" d="m258.47656 109.90119l-1.4175415 9.554092l7.227173 -6.407669z" fill-rule="evenodd"/><path fill="#000000" fill-opacity="0.0" d="m400.454 55.91601c0 16.526234 -48.18109 24.788692 -96.36221 33.05247c-48.18109 8.263779 -96.3622 16.528885 -96.3622 33.057762" fill-rule="evenodd"/><path stroke="#0000ff" stroke-width="2.0" stroke-linejoin="round" stroke-linecap="butt" d="m400.45404 55.91601c0 16.526234 -48.18112 24.788692 -96.36224 33.05247c-24.090546 4.1318893 -48.18109 8.264107 -66.24901 13.429474c-9.033966 2.5826797 -16.562256 5.4236374 -21.832062 8.651985c-0.32936096 0.20176697 -0.6499176 0.4050598 -0.9614258 0.60988617c-0.15579224 0.10241699 -0.3093109 0.20521545 -0.46054077 0.30841064l-0.15327454 0.10657501" fill-rule="evenodd"/><path fill="#0000ff" stroke="#0000ff" stroke-width="2.0" stroke-linecap="butt" d="m211.69597 110.22876l-2.3324738 9.372818l7.811508 -5.680702z" fill-rule="evenodd"/><path fill="#000000" fill-opacity="0.0" d="m400.454 55.91601c0 16.526234 -60.165344 24.788692 -120.33072 33.05247c-60.165344 8.263779 -120.33069 16.528885 -120.33069 33.057762" fill-rule="evenodd"/><path stroke="#0000ff" stroke-width="2.0" stroke-linejoin="round" stroke-linecap="butt" d="m400.45404 55.91601c0 16.526234 -60.165375 24.788692 -120.33075 33.05247c-30.082672 4.1318893 -60.165344 8.264107 -82.727356 13.429474c-11.281006 2.5826797 -20.681839 5.4236374 -27.26242 8.651985c-0.8225708 0.40354156 -1.6010742 0.81314087 -2.3336792 1.229042c-0.18315125 0.10397339 -0.36343384 0.2083435 -0.54081726 0.31311798l-0.028579712 0.017219543" fill-rule="evenodd"/><path fill="#0000ff" stroke="#0000ff" stroke-width="2.0" stroke-linecap="butt" d="m164.63806 110.56177l-3.0332336 9.170044l8.217987 -5.074936z" fill-rule="evenodd"/><path fill="#000000" fill-opacity="0.0" d="m303.6207 150.8189l22.078735 22.708664" fill-rule="evenodd"/><path stroke="#000000" stroke-width="2.0" stroke-linejoin="round" stroke-linecap="butt" d="m303.62073 150.8189l13.713623 14.104889" fill-rule="evenodd"/><path fill="#000000" stroke="#000000" stroke-width="2.0" stroke-linecap="butt" d="m314.96582 167.22661l8.695465 4.2046356l-3.9584045 -8.810272z" fill-rule="evenodd"/><path fill="#d9d9d9" d="m131.06036 9.501312l202.86615 0l0 51.212597l-202.86615 0z" fill-rule="evenodd"/><path stroke="#000000" stroke-width="2.0" stroke-linejoin="round" stroke-linecap="butt" d="m131.06036 9.501312l202.86615 0l0 51.212597l-202.86615 0z" fill-rule="evenodd"/><path fill="#000000" d="m203.87779 22.10881q0 1.765625 -0.71875 3.015625q-0.703125 1.25 -1.84375 1.890625q-1.140625 0.625 -2.359375 0.625q-1.34375 0 -2.484375 -0.65625q-1.140625 -0.65625 -1.8125 -1.90625q-0.671875 -1.25 -0.671875 -2.9375q0 -1.53125 0.625 -2.8125q0.640625 -1.296875 1.765625 -2.03125q1.140625 -0.75 2.578125 -0.75q1.453125 0 2.578125 0.765625q1.125 0.765625 1.734375 2.03125q0.609375 1.265625 0.609375 2.765625zm-4.921875 3.84375q1.0 0 1.71875 -0.546875q0.734375 -0.5625 1.109375 -1.46875q0.390625 -0.90625 0.390625 -1.90625q0 -0.9375 -0.390625 -1.796875q-0.375 -0.875 -1.109375 -1.40625q-0.734375 -0.546875 -1.75 -0.546875q-0.90625 0 -1.640625 0.53125q-0.734375 0.53125 -1.140625 1.40625q-0.40625 0.859375 -0.40625 1.875q0 1.03125 0.390625 1.921875q0.390625 0.890625 1.125 1.421875q0.75 0.515625 1.703125 0.515625zm15.959381 -5.265625l-1.734375 0l0 -2.203125l-4.375 0l0 2.671875l1.984375 0l0 -1.234375l1.71875 0l0 4.171875l-1.71875 0l0 -1.203125l-1.984375 0l0 2.796875l2.28125 0l0 1.734375l-5.40625 0l0 -1.734375l1.40625 0l0 -7.203125l-1.390625 0l0 -1.734375l9.21875 0l0 3.9375zm11.193756 0l-1.734375 0l0 -2.203125l-4.375 0l0 2.671875l1.984375 0l0 -1.234375l1.71875 0l0 4.171875l-1.71875 0l0 -1.203125l-1.984375 0l0 2.796875l2.28125 0l0 1.734375l-5.40625 0l0 -1.734375l1.40625 0l0 -7.203125l-1.390625 0l0 -1.734375l9.21875 0l0 3.9375zm8.615631 -3.71875l0 -0.421875l1.71875 0l0 4.015625l-1.71875 0l0 -1.796875q-1.09375 -0.5 -2.03125 -0.5q-1.015625 0 -1.703125 0.5q-0.671875 0.5 -0.671875 1.1875q0 0.609375 0.390625 0.921875q0.390625 0.296875 0.953125 0.40625q0.5625 0.109375 1.5625 0.203125l0.71875 0.078125q1.34375 0.171875 2.109375 0.875q0.765625 0.6875 0.765625 1.921875q0 0.984375 -0.5625 1.734375q-0.546875 0.75 -1.515625 1.171875q-0.953125 0.40625 -2.15625 0.40625q-0.65625 0 -1.25 -0.15625q-0.59375 -0.15625 -1.34375 -0.515625l0 0.671875l-1.71875 0l0 -3.90625l1.71875 0l0 1.421875q1.265625 0.765625 2.609375 0.765625q1.21875 0 1.875 -0.40625q0.65625 -0.421875 0.65625 -1.1875q0 -0.65625 -0.515625 -0.953125q-0.515625 -0.296875 -1.765625 -0.3125q-2.09375 -0.03125 -3.1875 -0.890625q-1.09375 -0.859375 -1.09375 -2.25q0 -0.875 0.515625 -1.65625q0.515625 -0.796875 1.4375 -1.265625q0.921875 -0.484375 2.109375 -0.484375q1.15625 0 2.09375 0.421875zm13.646881 3.734375l-1.734375 0l0 -2.21875l-4.46875 0l0 2.65625l1.984375 0l0 -1.234375l1.734375 0l0 4.171875l-1.734375 0l0 -1.234375l-1.984375 0l0 2.84375l4.46875 0l0 -2.171875l1.734375 0l0 3.90625l-9.390625 0l0 -1.734375l1.484375 0l0 -7.203125l-1.4375 0l0 -1.734375l9.34375 0l0 3.953125zm11.412491 0.109375l-1.734375 0l0 -2.328125l-2.2656097 0l0 7.203125l2.2499847 0l0 1.734375l-6.2343597 0l0 -1.734375l2.234375 0l0 -7.203125l-2.265625 0l0 2.328125l-1.734375 0l0 -4.0625l9.749985 0l0 4.0625zm8.521881 -3.84375l0 -0.421875l1.71875 0l0 4.015625l-1.71875 0l0 -1.796875q-1.09375 -0.5 -2.03125 -0.5q-1.015625 0 -1.703125 0.5q-0.671875 0.5 -0.671875 1.1875q0 0.609375 0.390625 0.921875q0.390625 0.296875 0.953125 0.40625q0.5625 0.109375 1.5625 0.203125l0.71875 0.078125q1.34375 0.171875 2.109375 0.875q0.765625 0.6875 0.765625 1.921875q0 0.984375 -0.5625 1.734375q-0.546875 0.75 -1.515625 1.171875q-0.953125 0.40625 -2.15625 0.40625q-0.65625 0 -1.25 -0.15625q-0.59375 -0.15625 -1.34375 -0.515625l0 0.671875l-1.71875 0l0 -3.90625l1.71875 0l0 1.421875q1.265625 0.765625 2.609375 0.765625q1.21875 0 1.875 -0.40625q0.65625 -0.421875 0.65625 -1.1875q0 -0.65625 -0.515625 -0.953125q-0.515625 -0.296875 -1.765625 -0.3125q-2.09375 -0.03125 -3.1875 -0.890625q-1.09375 -0.859375 -1.09375 -2.25q0 -0.875 0.515625 -1.65625q0.515625 -0.796875 1.4375 -1.265625q0.921875 -0.484375 2.109375 -0.484375q1.15625 0 2.09375 0.421875z" fill-rule="nonzero"/><path fill="#d9d2e9" d="m136.14436 31.91601l47.936996 0l0 24.000002l-47.936996 0z" fill-rule="evenodd"/><path stroke="#000000" stroke-width="2.0" stroke-linejoin="round" stroke-linecap="butt" d="m136.14436 31.91601l47.936996 0l0 24.000002l-47.936996 0z" fill-rule="evenodd"/><path fill="#000000" d="m164.06285 41.89851l-3.015625 0l0 7.203125l3.015625 0l0 1.734375l-7.875 0l0 -1.734375l3.078125 0l0 -7.203125l-3.078125 0l0 -1.734375l7.875 0l0 1.734375z" fill-rule="nonzero"/><path fill="#d9d2e9" d="m184.09178 31.91601l47.93701 0l0 24.000002l-47.93701 0z" fill-rule="evenodd"/><path stroke="#000000" stroke-width="2.0" stroke-linejoin="round" stroke-linecap="butt" d="m184.09178 31.91601l47.93701 0l0 24.000002l-47.93701 0z" fill-rule="evenodd"/><path fill="#000000" d="m213.44778 41.89851l-2.25 0l0 5.515625q0 0.984375 -0.234375 1.65625q-0.234375 0.671875 -0.71875 1.09375q-0.53125 0.46875 -1.0625 0.671875q-0.53125 0.21875 -1.40625 0.21875q-0.953125 0 -2.0625 -0.3125q-1.109375 -0.328125 -2.21875 -0.9375l0 -4.28125l1.734375 0l0 2.046875q0 1.015625 0.625 1.359375q0.421875 0.25 0.953125 0.34375q0.546875 0.09375 0.953125 0.09375q0.9375 0 1.328125 -0.453125q0.40625 -0.453125 0.40625 -1.640625l0 -5.375l-3.28125 0l0 -1.734375l7.234375 0l0 1.734375z" fill-rule="nonzero"/><path fill="#d9d2e9" d="m232.03922 31.91601l47.93701 0l0 24.000002l-47.93701 0z" fill-rule="evenodd"/><path stroke="#000000" stroke-width="2.0" stroke-linejoin="round" stroke-linecap="butt" d="m232.03922 31.91601l47.93701 0l0 24.000002l-47.93701 0z" fill-rule="evenodd"/><path fill="#000000" d="m255.61397 41.89851l-1.453125 0l0 2.890625l3.0000153 -2.890625l-0.765625 0l0 -1.734375l4.265625 0l0 1.734375l-1.203125 0l-3.09375 3.0q1.71875 2.0 2.890625 4.203125l1.890625 0l0 1.734375l-2.828125 0q-0.578125 -1.21875 -1.421875 -2.53125q-0.828125 -1.3125 -1.6875153 -2.296875l-1.046875 1.0l0 2.09375l1.453125 0l0 1.734375l-4.640625 0l0 -1.734375l1.46875 0l0 -7.203125l-1.46875 0l0 -1.734375l4.640625 0l0 1.734375z" fill-rule="nonzero"/><path fill="#d9d2e9" d="m279.98666 31.91601l47.93701 0l0 24.000002l-47.93701 0z" fill-rule="evenodd"/><path stroke="#000000" stroke-width="2.0" stroke-linejoin="round" stroke-linecap="butt" d="m279.98666 31.91601l47.93701 0l0 24.000002l-47.93701 0z" fill-rule="evenodd"/><path fill="#000000" d="m305.03015 41.89851l-2.234375 0l0 7.203125l4.234375 0l0 -3.28125l1.734375 0l0 5.015625l-9.453125 0l0 -1.734375l1.765625 0l0 -7.203125l-1.765625 0l0 -1.734375l5.71875 0l0 1.734375z" fill-rule="nonzero"/><path fill="#d9d9d9" d="m352.1391 9.501312l95.40158 0l0 51.212597l-95.40158 0z" fill-rule="evenodd"/><path stroke="#000000" stroke-width="2.0" stroke-linejoin="round" stroke-linecap="butt" d="m352.1391 9.501312l95.40158 0l0 51.212597l-95.40158 0z" fill-rule="evenodd"/><path fill="#000000" d="m379.68362 16.968185l0 -0.421875l1.71875 0l0 4.015625l-1.71875 0l0 -1.796875q-1.09375 -0.5 -2.03125 -0.5q-1.015625 0 -1.703125 0.5q-0.671875 0.5 -0.671875 1.1875q0 0.609375 0.390625 0.921875q0.390625 0.296875 0.953125 0.40625q0.5625 0.109375 1.5625 0.203125l0.71875 0.078125q1.34375 0.171875 2.109375 0.875q0.765625 0.6875 0.765625 1.921875q0 0.984375 -0.5625 1.734375q-0.546875 0.75 -1.515625 1.171875q-0.953125 0.40625 -2.15625 0.40625q-0.65625 0 -1.25 -0.15625q-0.59375 -0.15625 -1.34375 -0.515625l0 0.671875l-1.71875 0l0 -3.90625l1.71875 0l0 1.421875q1.265625 0.765625 2.609375 0.765625q1.21875 0 1.875 -0.40625q0.65625 -0.421875 0.65625 -1.1875q0 -0.65625 -0.515625 -0.953125q-0.515625 -0.296875 -1.765625 -0.3125q-2.09375 -0.03125 -3.1875 -0.890625q-1.09375 -0.859375 -1.09375 -2.25q0 -0.875 0.515625 -1.65625q0.515625 -0.796875 1.4375 -1.265625q0.921875 -0.484375 2.109375 -0.484375q1.15625 0 2.09375 0.421875zm12.178131 0.359375l0 -0.78125l1.703125 0l0 4.34375l-1.703125 0l0 -1.765625q-1.390625 -0.875 -2.734375 -0.875q-0.890625 0 -1.671875 0.453125q-0.765625 0.453125 -1.234375 1.3125q-0.46875 0.859375 -0.46875 2.03125q0 1.75 0.90625 2.8125q0.90625 1.0625 2.515625 1.0625q0.796875 0 1.671875 -0.296875q0.890625 -0.3125 1.734375 -0.90625l1.046875 1.265625q-0.796875 0.75 -2.125 1.203125q-1.328125 0.453125 -2.296875 0.453125q-2.390625 0 -3.859375 -1.71875q-0.625 -0.703125 -0.984375 -1.796875q-0.34375 -1.09375 -0.34375 -2.09375q0 -1.5625 0.671875 -2.8125q0.671875 -1.25 1.828125 -1.953125q1.15625 -0.71875 2.59375 -0.71875q0.78125 0 1.5 0.21875q0.734375 0.203125 1.25 0.5625zm12.459381 8.359375l1.046875 0l0 1.734375l-4.359375 0l0 -1.734375l1.5625 0l-0.546875 -1.265625l-4.328125 0l-0.546875 1.265625l1.609375 0l0 1.734375l-4.4375 0l0 -1.734375l1.09375 0l3.046875 -7.203125l-2.296875 0l0 -1.734375l4.5 0l3.65625 8.9375zm-2.984375 -3.0l-1.453125 -3.453125l-1.46875 3.453125l2.921875 0zm10.771881 -4.203125l-2.234375 0l0 7.203125l4.234375 0l0 -3.28125l1.734375 0l0 5.015625l-9.453125 0l0 -1.734375l1.765625 0l0 -7.203125l-1.765625 0l0 -1.734375l5.71875 0l0 1.734375zm14.803131 2.21875l-1.734375 0l0 -2.21875l-4.46875 0l0 2.65625l1.984375 0l0 -1.234375l1.734375 0l0 4.171875l-1.734375 0l0 -1.234375l-1.984375 0l0 2.84375l4.46875 0l0 -2.171875l1.734375 0l0 3.90625l-9.390625 0l0 -1.734375l1.484375 0l0 -7.203125l-1.4375 0l0 -1.734375l9.34375 0l0 3.953125z" fill-rule="nonzero"/><path fill="#d9d2e9" d="m359.20993 31.91601l82.48819 0l0 24.000002l-82.48819 0z" fill-rule="evenodd"/><path stroke="#000000" stroke-width="2.0" stroke-linejoin="round" stroke-linecap="butt" d="m359.20993 31.91601l82.48819 0l0 24.000002l-82.48819 0z" fill-rule="evenodd"/><path fill="#000000" d="m404.27902 41.39851l-5.6875 7.703125l4.375 0l0 -2.625l1.71875 0l0 4.359375l-8.40625 0l0 -1.328125l5.609375 -7.609375l-3.828125 0l0 2.359375l-1.703125 0l0 -4.09375l7.921875 0l0 1.234375z" fill-rule="nonzero"/><path fill="#000000" fill-opacity="0.0" d="m160.11285 55.91601c0 16.526234 -0.08660889 24.788692 -0.17321777 33.05247c-0.086624146 8.263779 -0.17323303 16.528885 -0.17323303 33.057762" fill-rule="evenodd"/><path stroke="#ff0000" stroke-width="2.0" stroke-linejoin="round" stroke-linecap="butt" d="m160.11285 55.91601c0 16.526234 -0.08660889 24.788692 -0.17321777 33.05247c-0.043304443 4.1318893 -0.086624146 8.264107 -0.11909485 13.429474c-0.008117676 1.291336 -0.015563965 2.6472473 -0.02217102 4.0838623l-0.013259888 3.5444412" fill-rule="evenodd"/><path fill="#ff0000" stroke="#ff0000" stroke-width="2.0" stroke-linecap="butt" d="m156.48166 110.02111l3.2893066 9.081337l3.3176117 -9.071037z" fill-rule="evenodd"/><path fill="#000000" fill-opacity="0.0" d="m208.06029 55.91601c0 16.526234 -0.08660889 24.788692 -0.17321777 33.05247c-0.086624146 8.263779 -0.17323303 16.528885 -0.17323303 33.057762" fill-rule="evenodd"/><path stroke="#ff0000" stroke-width="2.0" stroke-linejoin="round" stroke-linecap="butt" d="m208.06029 55.91601c0 16.526234 -0.08660889 24.788692 -0.17323303 33.05247c-0.043304443 4.1318893 -0.08660889 8.264107 -0.11909485 13.429474c-0.008117676 1.291336 -0.015563965 2.6472473 -0.022155762 4.0838623l-0.013259888 3.5444412" fill-rule="evenodd"/><path fill="#ff0000" stroke="#ff0000" stroke-width="2.0" stroke-linecap="butt" d="m204.42908 110.02111l3.2893066 9.081337l3.317627 -9.071037z" fill-rule="evenodd"/><path fill="#000000" fill-opacity="0.0" d="m256.00772 55.91601c0 16.526234 -0.08660889 24.788692 -0.17321777 33.05247c-0.086624146 8.263779 -0.17323303 16.528885 -0.17323303 33.057762" fill-rule="evenodd"/><path stroke="#ff0000" stroke-width="2.0" stroke-linejoin="round" stroke-linecap="butt" d="m256.00772 55.91601c0 16.526234 -0.08660889 24.788692 -0.17321777 33.05247c-0.043304443 4.1318893 -0.08660889 8.264107 -0.11909485 13.429474c-0.008117676 1.291336 -0.015563965 2.6472473 -0.02217102 4.0838623l-0.013244629 3.5444412" fill-rule="evenodd"/><path fill="#ff0000" stroke="#ff0000" stroke-width="2.0" stroke-linecap="butt" d="m252.37653 110.02111l3.2893066 9.081337l3.317627 -9.071037z" fill-rule="evenodd"/><path fill="#000000" fill-opacity="0.0" d="m303.95517 55.91601c0 16.526234 -0.086639404 24.788692 -0.17324829 33.05247c-0.08660889 8.263779 -0.17321777 16.528885 -0.17321777 33.057762" fill-rule="evenodd"/><path stroke="#ff0000" stroke-width="2.0" stroke-linejoin="round" stroke-linecap="butt" d="m303.95517 55.91601c0 16.526234 -0.086639404 24.788692 -0.17324829 33.05247c-0.043304443 4.1318893 -0.08660889 8.264107 -0.11907959 13.429474c-0.008117676 1.291336 -0.015563965 2.6472473 -0.02218628 4.0838623l-0.013244629 3.5444412" fill-rule="evenodd"/><path fill="#ff0000" stroke="#ff0000" stroke-width="2.0" stroke-linecap="butt" d="m300.32394 110.02111l3.2893066 9.081337l3.317627 -9.071037z" fill-rule="evenodd"/><path fill="#000000" fill-opacity="0.0" d="m58.07606 55.91601c0 16.526234 25.425198 24.788692 50.85039 33.05247c25.425201 8.263779 50.850388 16.528885 50.850388 33.057762" fill-rule="evenodd"/><path stroke="#000000" stroke-width="2.0" stroke-linejoin="round" stroke-linecap="butt" d="m58.076057 55.91601c0 16.526234 25.425201 24.788692 50.850403 33.05247c12.712593 4.1318893 25.425194 8.264107 34.95965 13.429474c2.383606 1.291336 4.5685883 2.6472473 6.5052795 4.0838623c0.968338 0.7183151 1.8746033 1.4567947 2.7126007 2.2174835c0.4189911 0.38034058 0.8209076 0.7662277 1.2049866 1.1579208c0.19204712 0.19584656 0.3796234 0.39313507 0.5626373 0.5919113c0.09150696 0.09938812 0.1818695 0.19915009 0.27108765 0.2992859l0.13442993 0.1534195" fill-rule="evenodd"/><path fill="#000000" stroke="#000000" stroke-width="2.0" stroke-linecap="butt" d="m152.2147 112.14056l6.46579 7.1752243l-0.34094238 -9.652664z" fill-rule="evenodd"/><path fill="#000000" fill-opacity="0.0" d="m58.07606 55.91601c0 16.526234 37.40945 24.788692 74.81889 33.05247c37.409454 8.263779 74.81889 16.528885 74.81889 33.057762" fill-rule="evenodd"/><path stroke="#000000" stroke-width="2.0" stroke-linejoin="round" stroke-linecap="butt" d="m58.076057 55.91601c0 16.526234 37.409454 24.788692 74.8189 33.05247c18.704727 4.1318893 37.409454 8.264107 51.43799 13.429474c7.014267 2.5826797 12.859497 5.4236374 16.951157 8.651985c0.12786865 0.100883484 0.25401306 0.20214844 0.3784485 0.30379486l0.22117615 0.18395996" fill-rule="evenodd"/><path fill="#000000" stroke="#000000" stroke-width="2.0" stroke-linecap="butt" d="m198.99635 113.14266l7.296982 6.328041l-1.5222168 -9.5379715z" fill-rule="evenodd"/><path fill="#000000" fill-opacity="0.0" d="m58.07606 55.91601c0 16.526234 49.401577 24.788692 98.80315 33.05247c49.40158 8.263779 98.80315 16.528885 98.80315 33.057762" fill-rule="evenodd"/><path stroke="#000000" stroke-width="2.0" stroke-linejoin="round" stroke-linecap="butt" d="m58.076057 55.91601c0 16.526234 49.40158 24.788692 98.803154 33.05247c24.700775 4.1318893 49.401566 8.264107 67.927155 13.429474c9.262802 2.5826797 16.981796 5.4236374 22.385086 8.651985c0.33770752 0.20176697 0.6663666 0.4050598 0.98579407 0.60988617c0.15971375 0.10241699 0.31710815 0.20521545 0.4721985 0.30841064l0.24220276 0.16425323" fill-rule="evenodd"/><path fill="#000000" stroke="#000000" stroke-width="2.0" stroke-linecap="butt" d="m246.168 114.00191l7.8598022 5.6137238l-2.4125214 -9.352539z" fill-rule="evenodd"/><path fill="#000000" fill-opacity="0.0" d="m58.07606 55.91601c0 16.526234 61.385822 24.788692 122.77165 33.05247c61.38582 8.263779 122.77164 16.528885 122.77164 33.057762" fill-rule="evenodd"/><path stroke="#000000" stroke-width="2.0" stroke-linejoin="round" stroke-linecap="butt" d="m58.076057 55.91601c0 16.526234 61.385834 24.788692 122.771645 33.05247c30.692917 4.1318893 61.385834 8.264107 84.4055 13.429474c11.509857 2.5826797 21.10138 5.4236374 27.81546 8.651985c0.8392639 0.40354156 1.6335449 0.81314087 2.3810425 1.229042c0.18685913 0.10397339 0.37078857 0.2083435 0.5517578 0.31311798l0.115753174 0.068359375" fill-rule="evenodd"/><path fill="#000000" stroke="#000000" stroke-width="2.0" stroke-linecap="butt" d="m293.5389 114.72572l8.252563 5.018547l-3.0959778 -9.1490555z" fill-rule="evenodd"/></g></svg>