<svg version="1.1" viewBox="0.0 0.0 223.61417322834646 193.51706036745406" fill="none" stroke="none" stroke-linecap="square" stroke-miterlimit="10" xmlns:xlink="http://www.w3.org/1999/xlink" xmlns="http://www.w3.org/2000/svg"><clipPath id="p.0"><path d="m0 0l223.61417 0l0 193.51706l-223.61417 0l0 -193.51706z" clip-rule="nonzero"/></clipPath><g clip-path="url(#p.0)"><path fill="#000000" fill-opacity="0.0" d="m0 0l223.61417 0l0 193.51706l-223.61417 0z" fill-rule="evenodd"/><path fill="#ffffff" d="m0 -0.018372703l223.62204 0l0 193.51181l-223.62204 0z" fill-rule="evenodd"/><path stroke="#000000" stroke-width="1.0" stroke-linejoin="round" stroke-linecap="butt" d="m0 -0.018372703l223.62204 0l0 193.51181l-223.62204 0z" fill-rule="evenodd"/><path fill="#d9d9d9" d="m10.374016 132.76115l202.86615 0l0 51.2126l-202.86615 0z" fill-rule="evenodd"/><path stroke="#000000" stroke-width="2.0" stroke-linejoin="round" stroke-linecap="butt" d="m10.374016 132.76115l202.86615 0l0 51.2126l-202.86615 0z" fill-rule="evenodd"/><path fill="#000000" d="m88.788315 174.58125q0 1.765625 -0.71875 3.015625q-0.703125 1.25 -1.84375 1.890625q-1.140625 0.625 -2.359375 0.625q-1.34375 0 -2.484375 -0.65625q-1.140625 -0.65625 -1.8125 -1.90625q-0.671875 -1.25 -0.671875 -2.9375q0 -1.53125 0.625 -2.8125q0.640625 -1.296875 1.765625 -2.03125q1.140625 -0.75 2.578125 -0.75q1.453125 0 2.578125 0.765625q1.125 0.765625 1.734375 2.03125q0.609375 1.265625 0.609375 2.765625zm-4.921875 3.84375q1.0 0 1.71875 -0.546875q0.734375 -0.5625 1.109375 -1.46875q0.390625 -0.90625 0.390625 -1.90625q0 -0.9375 -0.390625 -1.796875q-0.375 -0.875 -1.109375 -1.40625q-0.734375 -0.546875 -1.75 -0.546875q-0.90625 0 -1.640625 0.53125q-0.734375 0.53125 -1.140625 1.40625q-0.40625 0.859375 -0.40625 1.875q0 1.03125 0.390625 1.921875q0.390625 0.890625 1.125 1.421875q0.75 0.515625 1.703125 0.515625zm10.818756 -7.46875l-1.71875 0l0 5.34375q0 1.109375 0.53125 1.59375q0.53125 0.484375 1.65625 0.484375q1.25 0 1.765625 -0.546875q0.515625 -0.546875 0.515625 -1.859375l0 -5.015625l-1.75 0l0 -1.734375l4.890625 0l0 1.734375l-1.421875 0l0 5.40625q0 0.921875 -0.28125 1.671875q-0.28125 0.734375 -0.796875 1.1875q-0.515625 0.453125 -1.359375 0.671875q-0.828125 0.21875 -1.546875 0.21875q-1.0625 0 -1.78125 -0.25q-0.703125 -0.25 -1.21875 -0.765625q-0.921875 -0.859375 -0.921875 -2.9375l0 -5.203125l-1.453125 0l0 -1.734375l4.890625 0l0 1.734375zm16.428131 2.328125l-1.734375 0l0 -2.328125l-2.265625 0l0 7.203125l2.25 0l0 1.734375l-6.234375 0l0 -1.734375l2.234375 0l0 -7.203125l-2.265625 0l0 2.328125l-1.734375 0l0 -4.0625l9.75 0l0 4.0625zm10.865631 -0.46875q0 1.0 -0.484375 1.78125q-0.46875 0.78125 -1.296875 1.21875q-0.828125 0.4375 -1.828125 0.4375l-2.25 0l0 1.90625l2.265625 0l0 1.734375l-5.453125 0l0 -1.734375l1.46875 0l0 -7.203125l-1.453125 0l0 -1.734375l4.921875 0q1.9375 0 3.015625 0.953125q1.09375 0.953125 1.09375 2.640625zm-1.71875 -0.046875q0 -0.828125 -0.609375 -1.3125q-0.609375 -0.5 -1.78125 -0.5l-1.75 0l0 3.5625l1.9375 0q2.203125 0 2.203125 -1.75zm8.006256 -1.8125l-1.71875 0l0 5.34375q0 1.109375 0.53125 1.59375q0.53125 0.484375 1.65625 0.484375q1.25 0 1.765625 -0.546875q0.515625 -0.546875 0.515625 -1.859375l0 -5.015625l-1.75 0l0 -1.734375l4.890625 0l0 1.734375l-1.421875 0l0 5.40625q0 0.921875 -0.28125 1.671875q-0.28125 0.734375 -0.796875 1.1875q-0.515625 0.453125 -1.359375 0.671875q-0.828125 0.21875 -1.546875 0.21875q-1.0625 0 -1.78125 -0.25q-0.703125 -0.25 -1.21875 -0.765625q-0.921875 -0.859375 -0.921875 -2.9375l0 -5.203125l-1.453125 0l0 -1.734375l4.890625 0l0 1.734375zm16.428131 2.328125l-1.734375 0l0 -2.328125l-2.265625 0l0 7.203125l2.25 0l0 1.734375l-6.234375 0l0 -1.734375l2.234375 0l0 -7.203125l-2.265625 0l0 2.328125l-1.734375 0l0 -4.0625l9.75 0l0 4.0625z" fill-rule="nonzero"/><path fill="#d9d9d9" d="m10.374016 9.501312l202.86615 0l0 51.212597l-202.86615 0z" fill-rule="evenodd"/><path stroke="#000000" stroke-width="2.0" stroke-linejoin="round" stroke-linecap="butt" d="m10.374016 9.501312l202.86615 0l0 51.212597l-202.86615 0z" fill-rule="evenodd"/><path fill="#000000" d="m82.80081 20.343185q0 1.0 -0.484375 1.78125q-0.46875 0.78125 -1.296875 1.21875q-0.828125 0.4375 -1.828125 0.4375l-2.25 0l0 1.90625l2.265625 0l0 1.734375l-5.453125 0l0 -1.734375l1.46875 0l0 -7.203125l-1.453125 0l0 -1.734375l4.921875 0q1.9375 0 3.015625 0.953125q1.09375 0.953125 1.09375 2.640625zm-1.71875 -0.046875q0 -0.828125 -0.609375 -1.3125q-0.609375 -0.5 -1.78125 -0.5l-1.75 0l0 3.5625l1.9375 0q2.203125 0 2.203125 -1.75zm13.303131 1.8125q0 1.765625 -0.71875 3.015625q-0.703125 1.25 -1.84375 1.890625q-1.140625 0.625 -2.359375 0.625q-1.34375 0 -2.484375 -0.65625q-1.140625 -0.65625 -1.8125 -1.90625q-0.671875 -1.25 -0.671875 -2.9375q0 -1.53125 0.625 -2.8125q0.640625 -1.296875 1.765625 -2.03125q1.140625 -0.75 2.578125 -0.75q1.453125 0 2.578125 0.765625q1.125 0.765625 1.734375 2.03125q0.609375 1.265625 0.609375 2.765625zm-4.921875 3.84375q1.0 0 1.71875 -0.546875q0.734375 -0.5625 1.109375 -1.46875q0.390625 -0.90625 0.390625 -1.90625q0 -0.9375 -0.390625 -1.796875q-0.375 -0.875 -1.109375 -1.40625q-0.734375 -0.546875 -1.75 -0.546875q-0.90625 0 -1.640625 0.53125q-0.734375 0.53125 -1.140625 1.40625q-0.40625 0.859375 -0.40625 1.875q0 1.03125 0.390625 1.921875q0.390625 0.890625 1.125 1.421875q0.75 0.515625 1.703125 0.515625zm15.100006 -7.46875l-3.015625 0l0 7.203125l3.015625 0l0 1.734375l-7.875 0l0 -1.734375l3.078125 0l0 -7.203125l-3.078125 0l0 -1.734375l7.875 0l0 1.734375zm9.787506 5.671875l0 -5.671875l-1.734375 0l0 -1.734375l4.875 0l0 1.734375l-1.4375 0l0 8.9375l-1.640625 0l-4.8125 -7.609375l0 5.875l1.8125 0l0 1.734375l-4.9375 0l0 -1.734375l1.40625 0l0 -7.203125l-1.40625 0l0 -1.734375l3.328125 0l4.546875 7.40625zm13.553131 -3.34375l-1.734375 0l0 -2.328125l-2.265625 0l0 7.203125l2.25 0l0 1.734375l-6.234375 0l0 -1.734375l2.234375 0l0 -7.203125l-2.265625 0l0 2.328125l-1.734375 0l0 -4.0625l9.75 0l0 4.0625zm10.974991 -0.109375l-1.7343597 0l0 -2.21875l-4.46875 0l0 2.65625l1.984375 0l0 -1.234375l1.734375 0l0 4.171875l-1.734375 0l0 -1.234375l-1.984375 0l0 2.84375l4.46875 0l0 -2.171875l1.7343597 0l0 3.90625l-9.39061 0l0 -1.734375l1.484375 0l0 -7.203125l-1.4375 0l0 -1.734375l9.343735 0l0 3.953125zm10.631256 -0.8125q0 1.125 -0.640625 1.890625q-0.625 0.765625 -1.84375 1.0625l2.15625 2.84375l1.390625 0l0 1.734375l-2.5 0q-0.421875 -0.953125 -1.125 -1.921875l-1.671875 -2.3125l-1.4375 0l0 2.5l1.375 0l0 1.734375l-4.5625 0l0 -1.734375l1.46875 0l0 -7.203125l-1.390625 0l0 -1.734375l5.328125 0q1.78125 0 2.609375 0.921875q0.84375 0.90625 0.84375 2.21875zm-1.703125 0.015625q0 -0.71875 -0.40625 -1.0625q-0.40625 -0.359375 -1.171875 -0.359375l-2.390625 0l0 2.96875l1.796875 0q1.09375 0 1.625 -0.375q0.546875 -0.390625 0.546875 -1.171875z" fill-rule="nonzero"/><path fill="#d9d2e9" d="m15.458005 31.91601l191.77953 0l0 24.000002l-191.77953 0z" fill-rule="evenodd"/><path stroke="#000000" stroke-width="2.0" stroke-linejoin="round" stroke-linecap="butt" d="m15.458005 31.91601l191.77953 0l0 24.000002l-191.77953 0z" fill-rule="evenodd"/><path fill="#000000" d="m115.82902 49.101635l1.046875 0l0 1.734375l-4.359375 0l0 -1.734375l1.5625 0l-0.546875 -1.265625l-4.328125 0l-0.546875 1.265625l1.609375 0l0 1.734375l-4.4375 0l0 -1.734375l1.09375 0l3.046875 -7.203125l-2.296875 0l0 -1.734375l4.5 0l3.65625 8.9375zm-2.984375 -3.0l-1.453125 -3.453125l-1.46875 3.453125l2.921875 0z" fill-rule="nonzero"/><path fill="#d9d2e9" d="m15.615485 137.60367l47.937008 0l0 24.0l-47.937008 0z" fill-rule="evenodd"/><path stroke="#000000" stroke-width="2.0" stroke-linejoin="round" stroke-linecap="butt" d="m15.615485 137.60367l47.937008 0l0 24.0l-47.937008 0z" fill-rule="evenodd"/><path fill="#000000" d="m29.024572 153.9793l0.890625 0l0 1.484375l-3.71875 0l0 -1.484375l1.328125 0l-0.46875 -1.09375l-3.71875 0l-0.453125 1.09375l1.375 0l0 1.484375l-3.8125 0l0 -1.484375l0.953125 0l2.59375 -6.171875l-1.96875 0l0 -1.5l3.859375 0l3.140625 7.671875zm-2.5625 -2.578125l-1.25 -2.96875l-1.25 2.96875l2.5 0zm11.506269 -4.734375l-1.875 0l0 8.6875l1.875 0l0 1.484375l-3.359375 0l0 -11.65625l3.359375 0l0 1.484375zm9.646896 4.015625q0 2.390625 -0.828125 3.6875q-0.8125 1.28125 -2.390625 1.28125q-1.5625 0 -2.40625 -1.296875q-0.828125 -1.3125 -0.828125 -3.671875q0 -2.421875 0.84375 -3.71875q0.84375 -1.296875 2.421875 -1.296875q1.640625 0 2.40625 1.34375q0.78125 1.34375 0.78125 3.671875zm-3.1875 3.5q0.859375 0 1.296875 -0.90625q0.4375 -0.90625 0.4375 -2.5625q0 -1.75 -0.453125 -2.65625q-0.4375 -0.90625 -1.328125 -0.90625q-0.859375 0 -1.296875 0.90625q-0.4375 0.90625 -0.4375 2.625q0 3.5 1.78125 3.5zm9.7719 2.65625l-3.40625 0l0 -1.484375l1.90625 0l0 -8.6875l-1.90625 0l0 -1.484375l3.40625 0l0 11.65625z" fill-rule="nonzero"/><path fill="#d9d2e9" d="m63.56292 137.60367l47.937004 0l0 24.0l-47.937004 0z" fill-rule="evenodd"/><path stroke="#000000" stroke-width="2.0" stroke-linejoin="round" stroke-linecap="butt" d="m63.56292 137.60367l47.937004 0l0 24.0l-47.937004 0z" fill-rule="evenodd"/><path fill="#000000" d="m76.97201 153.9793l0.890625 0l0 1.484375l-3.71875 0l0 -1.484375l1.328125 0l-0.46875 -1.09375l-3.71875 0l-0.453125 1.09375l1.375 0l0 1.484375l-3.8125 0l0 -1.484375l0.953125 0l2.59375 -6.171875l-1.96875 0l0 -1.5l3.859375 0l3.140625 7.671875zm-2.5625 -2.578125l-1.25 -2.96875l-1.25 2.96875l2.5 0zm11.506271 -4.734375l-1.875 0l0 8.6875l1.875 0l0 1.484375l-3.359375 0l0 -11.65625l3.359375 0l0 1.484375zm9.646896 4.015625q0 2.390625 -0.828125 3.6875q-0.8125 1.28125 -2.390625 1.28125q-1.5625 0 -2.40625 -1.296875q-0.828125 -1.3125 -0.828125 -3.671875q0 -2.421875 0.84375 -3.71875q0.84375 -1.296875 2.421875 -1.296875q1.640625 0 2.40625 1.34375q0.78125 1.34375 0.78125 3.671875zm-3.1875 3.5q0.859375 0 1.296875 -0.90625q0.4375 -0.90625 0.4375 -2.5625q0 -1.75 -0.453125 -2.65625q-0.4375 -0.90625 -1.328125 -0.90625q-0.859375 0 -1.296875 0.90625q-0.4375 0.90625 -0.4375 2.625q0 3.5 1.78125 3.5zm9.771896 2.65625l-3.40625 0l0 -1.484375l1.90625 0l0 -8.6875l-1.90625 0l0 -1.484375l3.40625 0l0 11.65625z" fill-rule="nonzero"/><path fill="#d9d2e9" d="m111.51035 137.60367l47.937004 0l0 24.0l-47.937004 0z" fill-rule="evenodd"/><path stroke="#000000" stroke-width="2.0" stroke-linejoin="round" stroke-linecap="butt" d="m111.51035 137.60367l47.937004 0l0 24.0l-47.937004 0z" fill-rule="evenodd"/><path fill="#000000" d="m124.91943 153.9793l0.890625 0l0 1.484375l-3.71875 0l0 -1.484375l1.328125 0l-0.46875 -1.09375l-3.71875 0l-0.453125 1.09375l1.375 0l0 1.484375l-3.8125 0l0 -1.484375l0.953125 0l2.59375 -6.171875l-1.96875 0l0 -1.5l3.859375 0l3.140625 7.671875zm-2.5625 -2.578125l-1.25 -2.96875l-1.25 2.96875l2.5 0zm11.506271 -4.734375l-1.875 0l0 8.6875l1.875 0l0 1.484375l-3.359375 0l0 -11.65625l3.359375 0l0 1.484375zm9.646896 4.015625q0 2.390625 -0.828125 3.6875q-0.8125 1.28125 -2.390625 1.28125q-1.5625 0 -2.40625 -1.296875q-0.828125 -1.3125 -0.828125 -3.671875q0 -2.421875 0.84375 -3.71875q0.84375 -1.296875 2.421875 -1.296875q1.640625 0 2.40625 1.34375q0.78125 1.34375 0.78125 3.671875zm-3.1875 3.5q0.859375 0 1.296875 -0.90625q0.4375 -0.90625 0.4375 -2.5625q0 -1.75 -0.453125 -2.65625q-0.4375 -0.90625 -1.328125 -0.90625q-0.859375 0 -1.296875 0.90625q-0.4375 0.90625 -0.4375 2.625q0 3.5 1.78125 3.5zm9.771896 2.65625l-3.40625 0l0 -1.484375l1.90625 0l0 -8.6875l-1.90625 0l0 -1.484375l3.40625 0l0 11.65625z" fill-rule="nonzero"/><path fill="#d9d2e9" d="m159.45778 137.60367l47.93701 0l0 24.0l-47.93701 0z" fill-rule="evenodd"/><path stroke="#000000" stroke-width="2.0" stroke-linejoin="round" stroke-linecap="butt" d="m159.45778 137.60367l47.93701 0l0 24.0l-47.93701 0z" fill-rule="evenodd"/><path fill="#000000" d="m172.86687 153.9793l0.890625 0l0 1.484375l-3.71875 0l0 -1.484375l1.328125 0l-0.46875 -1.09375l-3.71875 0l-0.453125 1.09375l1.375 0l0 1.484375l-3.8125 0l0 -1.484375l0.953125 0l2.59375 -6.171875l-1.96875 0l0 -1.5l3.859375 0l3.140625 7.671875zm-2.5625 -2.578125l-1.25 -2.96875l-1.25 2.96875l2.5 0zm11.506271 -4.734375l-1.875 0l0 8.6875l1.875 0l0 1.484375l-3.359375 0l0 -11.65625l3.359375 0l0 1.484375zm9.646896 4.015625q0 2.390625 -0.828125 3.6875q-0.8125 1.28125 -2.390625 1.28125q-1.5625 0 -2.40625 -1.296875q-0.828125 -1.3125 -0.828125 -3.671875q0 -2.421875 0.84375 -3.71875q0.84375 -1.296875 2.421875 -1.296875q1.640625 0 2.40625 1.34375q0.78125 1.34375 0.78125 3.671875zm-3.1875 3.5q0.859375 0 1.296875 -0.90625q0.4375 -0.90625 0.4375 -2.5625q0 -1.75 -0.453125 -2.65625q-0.4375 -0.90625 -1.328125 -0.90625q-0.859375 0 -1.296875 0.90625q-0.4375 0.90625 -0.4375 2.625q0 3.5 1.78125 3.5zm9.771896 2.65625l-3.40625 0l0 -1.484375l1.90625 0l0 -8.6875l-1.90625 0l0 -1.484375l3.40625 0l0 11.65625z" fill-rule="nonzero"/><path fill="#d9d9d9" d="m91.51837 81.20604l39.6588 0l0 23.038315l-19.8294 5.7595825l-19.8294 -5.7595825z" fill-rule="evenodd"/><path stroke="#000000" stroke-width="2.0" stroke-linejoin="round" stroke-linecap="butt" d="m91.51837 81.20604l39.6588 0l0 23.038315l-19.8294 5.7595825l-19.8294 -5.7595825z" fill-rule="evenodd"/><path fill="#000000" d="m103.86964 89.37957l-2.1875 0l0 10.140625l2.1875 0l0 1.734375l-3.921875 0l0 -13.609375l3.921875 0l0 1.734375zm11.240631 4.6875q0 2.796875 -0.96875 4.296875q-0.953125 1.5 -2.78125 1.5q-1.828125 0 -2.796875 -1.515625q-0.96875 -1.515625 -0.96875 -4.28125q0 -2.8125 0.984375 -4.328125q0.984375 -1.515625 2.828125 -1.515625q1.90625 0 2.796875 1.578125q0.90625 1.5625 0.90625 4.265625zm-3.703125 4.078125q0.984375 0 1.5 -1.046875q0.515625 -1.046875 0.515625 -3.0q0 -2.03125 -0.53125 -3.09375q-0.515625 -1.0625 -1.546875 -1.0625q-1.0 0 -1.515625 1.0625q-0.515625 1.0625 -0.515625 3.0625q0 4.078125 2.09375 4.078125zm11.381256 3.109375l-3.953125 0l0 -1.734375l2.21875 0l0 -10.140625l-2.21875 0l0 -1.734375l3.953125 0l0 13.609375z" fill-rule="nonzero"/><path fill="#000000" fill-opacity="0.0" d="m111.34777 110.00394c0 6.8999863 -17.944885 10.3511505 -35.889763 13.799965c-17.944885 3.448822 -35.889767 6.8952866 -35.889767 13.790581" fill-rule="evenodd"/><path stroke="#000000" stroke-width="2.0" stroke-linejoin="round" stroke-linecap="butt" d="m111.34777 110.00394c0 6.8999863 -17.944885 10.351143 -35.889763 13.799965c-8.972443 1.7244034 -17.944885 3.4482346 -24.674213 5.602867c-0.42058563 0.13465881 -0.8324089 0.27101135 -1.2349167 0.40914917c-0.2012558 0.06906128 -0.40018463 0.13858032 -0.59671783 0.20855713l-0.056331635 0.020446777" fill-rule="evenodd"/><path fill="#000000" stroke="#000000" stroke-width="2.0" stroke-linecap="butt" d="m46.817516 127.477135l-4.9766045 8.277901l9.133232 -3.1423492z" fill-rule="evenodd"/><path fill="#000000" fill-opacity="0.0" d="m111.34777 110.00394c0 6.8999863 -5.952759 10.3511505 -11.90551 13.799965c-5.952759 3.448822 -11.905518 6.8952866 -11.905518 13.790581" fill-rule="evenodd"/><path stroke="#000000" stroke-width="2.0" stroke-linejoin="round" stroke-linecap="butt" d="m111.34777 110.00394c0 6.8999863 -5.952759 10.351143 -11.90551 13.799965c-1.4881897 0.8621979 -2.9763794 1.724266 -4.371559 2.6400986c-0.34879303 0.22895813 -0.69177246 0.4612732 -1.0274887 0.6978073l-0.27481842 0.19760895" fill-rule="evenodd"/><path fill="#000000" stroke="#000000" stroke-width="2.0" stroke-linecap="butt" d="m90.94528 125.62391l-1.8901901 9.471931l7.5364075 -6.040924z" fill-rule="evenodd"/><path fill="#000000" fill-opacity="0.0" d="m111.34777 110.00394c0 6.8999863 6.031494 10.3511505 12.062988 13.799965c6.031502 3.448822 12.062996 6.8952866 12.062996 13.790581" fill-rule="evenodd"/><path stroke="#000000" stroke-width="2.0" stroke-linejoin="round" stroke-linecap="butt" d="m111.34777 110.00394c0 6.8999863 6.031494 10.351143 12.062988 13.799965c1.5078735 0.8621979 3.015747 1.724266 4.4293823 2.6400986c0.35340118 0.22895813 0.70093536 0.4612732 1.0410843 0.6978073l0.3165741 0.22466278" fill-rule="evenodd"/><path fill="#000000" stroke="#000000" stroke-width="2.0" stroke-linecap="butt" d="m126.38214 129.09416l7.5624695 6.0082703l-1.9311523 -9.463661z" fill-rule="evenodd"/><path fill="#000000" fill-opacity="0.0" d="m111.34777 110.00394c0 6.8999863 18.01574 10.3511505 36.0315 13.799965c18.015747 3.448822 36.031494 6.8952866 36.031494 13.790581" fill-rule="evenodd"/><path stroke="#000000" stroke-width="2.0" stroke-linejoin="round" stroke-linecap="butt" d="m111.34777 110.00394c0 6.8999863 18.01574 10.351143 36.0315 13.799965c9.007874 1.7244034 18.015747 3.4482346 24.771652 5.602867c0.4222412 0.13465881 0.8356781 0.27101135 1.2397766 0.40914917c0.20205688 0.06906128 0.40176392 0.13858032 0.5990906 0.20855713l0.08505249 0.03074646" fill-rule="evenodd"/><path fill="#000000" stroke="#000000" stroke-width="2.0" stroke-linecap="butt" d="m171.99936 132.62529l9.1367035 3.132248l-4.9857483 -8.272392z" fill-rule="evenodd"/><path fill="#000000" fill-opacity="0.0" d="m111.34777 55.91601l0 25.29134" fill-rule="evenodd"/><path stroke="#000000" stroke-width="2.0" stroke-linejoin="round" stroke-linecap="butt" d="m111.34777 55.91601l0 13.29134" fill-rule="evenodd"/><path fill="#000000" stroke="#000000" stroke-width="2.0" stroke-linecap="butt" d="m108.044304 69.20735l3.3034668 9.076195l3.3034668 -9.076195z" fill-rule="evenodd"/></g></svg>