<svg version="1.1" viewBox="0.0 0.0 463.3910761154856 227.79790026246718" fill="none" stroke="none" stroke-linecap="square" stroke-miterlimit="10" xmlns:xlink="http://www.w3.org/1999/xlink" xmlns="http://www.w3.org/2000/svg"><clipPath id="p.0"><path d="m0 0l463.39108 0l0 227.7979l-463.39108 0l0 -227.7979z" clip-rule="nonzero"/></clipPath><g clip-path="url(#p.0)"><path fill="#000000" fill-opacity="0.0" d="m0 0l463.39108 0l0 227.7979l-463.39108 0z" fill-rule="evenodd"/><path fill="#ffffff" d="m0 -0.018372703l463.40158 0l0 227.81102l-463.40158 0z" fill-rule="evenodd"/><path stroke="#000000" stroke-width="1.0" stroke-linejoin="round" stroke-linecap="butt" d="m0 -0.018372703l463.40158 0l0 227.81102l-463.40158 0z" fill-rule="evenodd"/><path fill="#d9d9d9" d="m123.06036 117.28871l310.64566 0l0 37.291336l-310.64566 0z" fill-rule="evenodd"/><path stroke="#000000" stroke-width="2.0" stroke-linejoin="round" stroke-linecap="butt" d="m123.06036 117.28871l310.64566 0l0 37.291336l-310.64566 0z" fill-rule="evenodd"/><path fill="#000000" d="m403.7154 134.57314q0 1.515625 -1.296875 2.5q1.515625 1.03125 1.515625 2.671875q0 0.875 -0.46875 1.625q-0.453125 0.75 -1.328125 1.21875q-0.859375 0.46875 -2.015625 0.46875q-1.015625 0 -1.90625 -0.421875q-0.875 -0.421875 -1.40625 -1.171875q-0.53125 -0.75 -0.53125 -1.71875q0 -0.796875 0.40625 -1.484375q0.40625 -0.703125 1.125 -1.171875q-1.34375 -1.046875 -1.34375 -2.484375q0 -0.859375 0.46875 -1.578125q0.46875 -0.734375 1.296875 -1.171875q0.828125 -0.4375 1.859375 -0.4375q1.03125 0 1.84375 0.421875q0.828125 0.40625 1.296875 1.140625q0.484375 0.71875 0.484375 1.59375zm-3.59375 1.703125q0.8125 0 1.34375 -0.453125q0.546875 -0.453125 0.546875 -1.15625q0 -0.671875 -0.5 -1.09375q-0.5 -0.421875 -1.4375 -0.421875q-0.828125 0 -1.359375 0.453125q-0.515625 0.4375 -0.515625 1.109375q0 0.671875 0.5625 1.125q0.5625 0.4375 1.359375 0.4375zm0.09375 5.0625q0.8125 0 1.40625 -0.5q0.609375 -0.5 0.609375 -1.234375q0 -0.703125 -0.59375 -1.140625q-0.578125 -0.453125 -1.5625 -0.453125q-0.84375 0 -1.453125 0.46875q-0.609375 0.46875 -0.609375 1.171875q0 0.6875 0.640625 1.1875q0.640625 0.5 1.5625 0.5z" fill-rule="nonzero"/><path fill="#d9d9d9" d="m130.2664 168.69292l202.86613 0l0 51.2126l-202.86613 0z" fill-rule="evenodd"/><path stroke="#000000" stroke-width="2.0" stroke-linejoin="round" stroke-linecap="butt" d="m130.2664 168.69292l202.86613 0l0 51.2126l-202.86613 0z" fill-rule="evenodd"/><path fill="#000000" d="m208.68071 210.51302q0 1.765625 -0.71875 3.015625q-0.703125 1.25 -1.84375 1.890625q-1.140625 0.625 -2.359375 0.625q-1.34375 0 -2.484375 -0.65625q-1.140625 -0.65625 -1.8125 -1.90625q-0.671875 -1.25 -0.671875 -2.9375q0 -1.53125 0.625 -2.8125q0.640625 -1.296875 1.765625 -2.03125q1.140625 -0.75 2.578125 -0.75q1.453125 0 2.578125 0.765625q1.125 0.765625 1.734375 2.03125q0.609375 1.265625 0.609375 2.765625zm-4.921875 3.84375q1.0 0 1.71875 -0.546875q0.734375 -0.5625 1.109375 -1.46875q0.390625 -0.90625 0.390625 -1.90625q0 -0.9375 -0.390625 -1.796875q-0.375 -0.875 -1.109375 -1.40625q-0.734375 -0.546875 -1.75 -0.546875q-0.90625 0 -1.640625 0.53125q-0.734375 0.53125 -1.140625 1.40625q-0.40625 0.859375 -0.40625 1.875q0 1.03125 0.390625 1.921875q0.390625 0.890625 1.125 1.421875q0.75 0.515625 1.703125 0.515625zm10.818756 -7.46875l-1.71875 0l0 5.34375q0 1.109375 0.53125 1.59375q0.53125 0.484375 1.65625 0.484375q1.25 0 1.765625 -0.546875q0.515625 -0.546875 0.515625 -1.859375l0 -5.015625l-1.75 0l0 -1.734375l4.890625 0l0 1.734375l-1.421875 0l0 5.40625q0 0.921875 -0.28125 1.671875q-0.28125 0.734375 -0.796875 1.1875q-0.515625 0.453125 -1.359375 0.671875q-0.828125 0.21875 -1.546875 0.21875q-1.0625 0 -1.78125 -0.25q-0.703125 -0.25 -1.21875 -0.765625q-0.921875 -0.859375 -0.921875 -2.9375l0 -5.203125l-1.453125 0l0 -1.734375l4.890625 0l0 1.734375zm16.428131 2.328125l-1.734375 0l0 -2.328125l-2.265625 0l0 7.203125l2.25 0l0 1.734375l-6.234375 0l0 -1.734375l2.234375 0l0 -7.203125l-2.265625 0l0 2.328125l-1.734375 0l0 -4.0625l9.75 0l0 4.0625zm10.865631 -0.46875q0 1.0 -0.484375 1.78125q-0.46875 0.78125 -1.296875 1.21875q-0.828125 0.4375 -1.828125 0.4375l-2.25 0l0 1.90625l2.265625 0l0 1.734375l-5.453125 0l0 -1.734375l1.46875 0l0 -7.203125l-1.453125 0l0 -1.734375l4.921875 0q1.9375 0 3.015625 0.953125q1.09375 0.953125 1.09375 2.640625zm-1.71875 -0.046875q0 -0.828125 -0.609375 -1.3125q-0.609375 -0.5 -1.78125 -0.5l-1.75 0l0 3.5625l1.9375 0q2.203125 0 2.203125 -1.75zm8.006256 -1.8125l-1.71875 0l0 5.34375q0 1.109375 0.53125 1.59375q0.53125 0.484375 1.65625 0.484375q1.25 0 1.765625 -0.546875q0.515625 -0.546875 0.515625 -1.859375l0 -5.015625l-1.75 0l0 -1.734375l4.890625 0l0 1.734375l-1.421875 0l0 5.40625q0 0.921875 -0.28125 1.671875q-0.28125 0.734375 -0.796875 1.1875q-0.515625 0.453125 -1.359375 0.671875q-0.828125 0.21875 -1.546875 0.21875q-1.0625 0 -1.78125 -0.25q-0.703125 -0.25 -1.21875 -0.765625q-0.921875 -0.859375 -0.921875 -2.9375l0 -5.203125l-1.453125 0l0 -1.734375l4.890625 0l0 1.734375zm16.428146 2.328125l-1.734375 0l0 -2.328125l-2.265625 0l0 7.203125l2.25 0l0 1.734375l-6.2344055 0l0 -1.734375l2.2344055 0l0 -7.203125l-2.2656555 0l0 2.328125l-1.7343597 0l0 -4.0625l9.750015 0l0 4.0625z" fill-rule="nonzero"/><path fill="#d9d9d9" d="m10.375327 9.501312l95.40157 0l0 51.212597l-95.40157 0z" fill-rule="evenodd"/><path stroke="#000000" stroke-width="2.0" stroke-linejoin="round" stroke-linecap="butt" d="m10.375327 9.501312l95.40157 0l0 51.212597l-95.40157 0z" fill-rule="evenodd"/><path fill="#000000" d="m40.497974 20.686935l-1.734375 0l0 -2.203125l-4.375 0l0 2.671875l1.984375 0l0 -1.234375l1.71875 0l0 4.171875l-1.71875 0l0 -1.203125l-1.984375 0l0 2.796875l2.28125 0l0 1.734375l-5.40625 0l0 -1.734375l1.40625 0l0 -7.203125l-1.390625 0l0 -1.734375l9.21875 0l0 3.9375zm10.334381 -2.203125l-3.015625 0l0 7.203125l3.015625 0l0 1.734375l-7.875 0l0 -1.734375l3.078125 0l0 -7.203125l-3.078125 0l0 -1.734375l7.875 0l0 1.734375zm11.365631 1.40625q0 1.125 -0.640625 1.890625q-0.625 0.765625 -1.84375 1.0625l2.15625 2.84375l1.390625 0l0 1.734375l-2.5 0q-0.421875 -0.953125 -1.125 -1.921875l-1.671875 -2.3125l-1.4375 0l0 2.5l1.375 0l0 1.734375l-4.5625 0l0 -1.734375l1.46875 0l0 -7.203125l-1.390625 0l0 -1.734375l5.328125 0q1.78125 0 2.609375 0.921875q0.84375 0.90625 0.84375 2.21875zm-1.703125 0.015625q0 -0.71875 -0.40625 -1.0625q-0.40625 -0.359375 -1.171875 -0.359375l-2.390625 0l0 2.96875l1.796875 0q1.09375 0 1.625 -0.375q0.546875 -0.390625 0.546875 -1.171875zm11.006252 -2.9375l0 -0.421875l1.71875 0l0 4.015625l-1.71875 0l0 -1.796875q-1.09375 -0.5 -2.03125 -0.5q-1.015625 0 -1.703125 0.5q-0.671875 0.5 -0.671875 1.1875q0 0.609375 0.390625 0.921875q0.390625 0.296875 0.953125 0.40625q0.5625 0.109375 1.5625 0.203125l0.71875 0.078125q1.34375 0.171875 2.109375 0.875q0.765625 0.6875 0.765625 1.921875q0 0.984375 -0.5625 1.734375q-0.546875 0.75 -1.515625 1.171875q-0.953125 0.40625 -2.15625 0.40625q-0.65625 0 -1.25 -0.15625q-0.59375 -0.15625 -1.34375 -0.515625l0 0.671875l-1.71875 0l0 -3.90625l1.71875 0l0 1.421875q1.265625 0.765625 2.609375 0.765625q1.21875 0 1.875 -0.40625q0.65625 -0.421875 0.65625 -1.1875q0 -0.65625 -0.515625 -0.953125q-0.515625 -0.296875 -1.765625 -0.3125q-2.09375 -0.03125 -3.1875 -0.890625q-1.09375 -0.859375 -1.09375 -2.25q0 -0.875 0.515625 -1.65625q0.515625 -0.796875 1.4375 -1.265625q0.921875 -0.484375 2.109375 -0.484375q1.15625 0 2.09375 0.421875zm13.865639 3.84375l-1.734375 0l0 -2.328125l-2.265625 0l0 7.203125l2.25 0l0 1.734375l-6.234375 0l0 -1.734375l2.234375 0l0 -7.203125l-2.265625 0l0 2.328125l-1.734375 0l0 -4.0625l9.75 0l0 4.0625z" fill-rule="nonzero"/><path fill="#d9d2e9" d="m16.831966 31.91601l82.48819 0l0 24.000002l-82.48819 0z" fill-rule="evenodd"/><path stroke="#000000" stroke-width="2.0" stroke-linejoin="round" stroke-linecap="butt" d="m16.831966 31.91601l82.48819 0l0 24.000002l-82.48819 0z" fill-rule="evenodd"/><path fill="#000000" d="m62.55731 49.101635l1.046875 0l0 1.734375l-4.359375 0l0 -1.734375l1.5625 0l-0.546875 -1.265625l-4.328125 0l-0.546875 1.265625l1.609375 0l0 1.734375l-4.4375 0l0 -1.734375l1.09375 0l3.046875 -7.203125l-2.296875 0l0 -1.734375l4.5 0l3.65625 8.9375zm-2.984375 -3.0l-1.453125 -3.453125l-1.46875 3.453125l2.921875 0z" fill-rule="nonzero"/><path fill="#d9d2e9" d="m135.50854 173.53543l24.125977 0l0 24.0l-24.125977 0z" fill-rule="evenodd"/><path stroke="#000000" stroke-width="2.0" stroke-linejoin="round" stroke-linecap="butt" d="m135.50854 173.53543l24.125977 0l0 24.0l-24.125977 0z" fill-rule="evenodd"/><path fill="#000000" d="m142.28415 187.46544l0.453125 0l0 0.75l-1.859375 0l0 -0.75l0.65625 0l-0.21875 -0.53125l-1.859375 0l-0.234375 0.53125l0.6875 0l0 0.75l-1.90625 0l0 -0.75l0.46875 0l1.3125 -3.078125l-0.984375 0l0 -0.75l1.921875 0l1.5625 3.828125zm-1.265625 -1.28125l-0.625 -1.484375l-0.625 1.484375l1.25 0zm5.737442 -2.375l-0.921875 0l0 4.34375l0.921875 0l0 0.75l-1.671875 0l0 -5.828125l1.671875 0l0 0.734375zm4.909317 0.578125l-1.296875 0l0 3.078125l1.296875 0l0 0.75l-3.375 0l0 -0.75l1.328125 0l0 -3.078125l-1.328125 0l0 -0.75l3.375 0l0 0.75zm3.206192 4.515625l-1.6875 0l0 -0.75l0.953125 0l0 -4.34375l-0.953125 0l0 -0.734375l1.6875 0l0 5.828125z" fill-rule="nonzero"/><path fill="#d9d2e9" d="m159.6424 173.53543l24.125992 0l0 24.0l-24.125992 0z" fill-rule="evenodd"/><path stroke="#000000" stroke-width="2.0" stroke-linejoin="round" stroke-linecap="butt" d="m159.6424 173.53543l24.125992 0l0 24.0l-24.125992 0z" fill-rule="evenodd"/><path fill="#000000" d="m166.418 187.46544l0.453125 0l0 0.75l-1.859375 0l0 -0.75l0.65625 0l-0.21875 -0.53125l-1.859375 0l-0.234375 0.53125l0.6875 0l0 0.75l-1.90625 0l0 -0.75l0.46875 0l1.3125 -3.078125l-0.984375 0l0 -0.75l1.921875 0l1.5625 3.828125zm-1.265625 -1.28125l-0.625 -1.484375l-0.625 1.484375l1.25 0zm5.737442 -2.375l-0.921875 0l0 4.34375l0.921875 0l0 0.75l-1.671875 0l0 -5.828125l1.671875 0l0 0.734375zm5.534317 0.578125l-0.96875 0l0 2.359375q0 0.421875 -0.109375 0.71875q-0.09375 0.28125 -0.296875 0.46875q-0.234375 0.1875 -0.46875 0.28125q-0.21875 0.09375 -0.59375 0.09375q-0.40625 0 -0.890625 -0.140625q-0.46875 -0.140625 -0.953125 -0.390625l0 -1.84375l0.75 0l0 0.875q0 0.4375 0.265625 0.59375q0.171875 0.09375 0.40625 0.140625q0.234375 0.046875 0.40625 0.046875q0.40625 0 0.578125 -0.1875q0.171875 -0.203125 0.171875 -0.71875l0 -2.296875l-1.40625 0l0 -0.75l3.109375 0l0 0.75zm2.581192 4.515625l-1.6875 0l0 -0.75l0.953125 0l0 -4.34375l-0.953125 0l0 -0.734375l1.6875 0l0 5.828125z" fill-rule="nonzero"/><path fill="#d9d2e9" d="m183.77626 173.53543l24.125977 0l0 24.0l-24.125977 0z" fill-rule="evenodd"/><path stroke="#000000" stroke-width="2.0" stroke-linejoin="round" stroke-linecap="butt" d="m183.77626 173.53543l24.125977 0l0 24.0l-24.125977 0z" fill-rule="evenodd"/><path fill="#000000" d="m190.55186 187.46544l0.453125 0l0 0.75l-1.859375 0l0 -0.75l0.65625 0l-0.21875 -0.53125l-1.859375 0l-0.234375 0.53125l0.6875 0l0 0.75l-1.90625 0l0 -0.75l0.46875 0l1.3125 -3.078125l-0.984375 0l0 -0.75l1.921875 0l1.5625 3.828125zm-1.265625 -1.28125l-0.625 -1.484375l-0.625 1.484375l1.25 0zm5.737442 -2.375l-0.921875 0l0 4.34375l0.921875 0l0 0.75l-1.671875 0l0 -5.828125l1.671875 0l0 0.734375zm3.049942 0.578125l-0.625 0l0 1.234375l1.28125 -1.234375l-0.328125 0l0 -0.75l1.828125 0l0 0.75l-0.515625 0l-1.328125 1.28125q0.734375 0.859375 1.25 1.796875l0.796875 0l0 0.75l-1.203125 0q-0.25 -0.515625 -0.609375 -1.078125q-0.359375 -0.5625 -0.71875 -1.0l-0.453125 0.4375l0 0.890625l0.625 0l0 0.75l-2.0 0l0 -0.75l0.640625 0l0 -3.078125l-0.640625 0l0 -0.75l2.0 0l0 0.75zm5.065567 4.515625l-1.6875 0l0 -0.75l0.953125 0l0 -4.34375l-0.953125 0l0 -0.734375l1.6875 0l0 5.828125z" fill-rule="nonzero"/><path fill="#d9d2e9" d="m207.91011 173.53543l24.125992 0l0 24.0l-24.125992 0z" fill-rule="evenodd"/><path stroke="#000000" stroke-width="2.0" stroke-linejoin="round" stroke-linecap="butt" d="m207.91011 173.53543l24.125992 0l0 24.0l-24.125992 0z" fill-rule="evenodd"/><path fill="#000000" d="m214.68571 187.46544l0.453125 0l0 0.75l-1.859375 0l0 -0.75l0.65625 0l-0.21875 -0.53125l-1.859375 0l-0.234375 0.53125l0.6875 0l0 0.75l-1.90625 0l0 -0.75l0.46875 0l1.3125 -3.078125l-0.984375 0l0 -0.75l1.921875 0l1.5625 3.828125zm-1.265625 -1.28125l-0.625 -1.484375l-0.625 1.484375l1.25 0zm5.737442 -2.375l-0.921875 0l0 4.34375l0.921875 0l0 0.75l-1.671875 0l0 -5.828125l1.671875 0l0 0.734375zm3.674942 0.578125l-0.953125 0l0 3.078125l1.8125 0l0 -1.40625l0.75 0l0 2.15625l-4.0625 0l0 -0.75l0.765625 0l0 -3.078125l-0.765625 0l0 -0.75l2.453125 0l0 0.75zm4.440567 4.515625l-1.6875 0l0 -0.75l0.953125 0l0 -4.34375l-0.953125 0l0 -0.734375l1.6875 0l0 5.828125z" fill-rule="nonzero"/><path fill="#d9d9d9" d="m138.5958 121.53543l17.166168 0l0 23.038315l-8.583084 5.7595825l-8.583084 -5.7595825z" fill-rule="evenodd"/><path stroke="#000000" stroke-width="2.0" stroke-linejoin="round" stroke-linecap="butt" d="m138.5958 121.53543l17.166168 0l0 23.038315l-8.583084 5.7595825l-8.583084 -5.7595825z" fill-rule="evenodd"/><path fill="#000000" d="m143.43982 131.38959l-1.09375 0l0 5.0625l1.09375 0l0 0.859375l-1.953125 0l0 -6.796875l1.953125 0l0 0.875zm9.459381 5.921875l-1.984375 0l0 -0.859375l1.109375 0l0 -5.0625l-1.109375 0l0 -0.875l1.984375 0l0 6.796875z" fill-rule="nonzero"/><path fill="#d9d9d9" d="m163.13054 121.53543l17.166153 0l0 23.038315l-8.583069 5.7595825l-8.583084 -5.7595825z" fill-rule="evenodd"/><path stroke="#000000" stroke-width="2.0" stroke-linejoin="round" stroke-linecap="butt" d="m163.13054 121.53543l17.166153 0l0 23.038315l-8.583069 5.7595825l-8.583084 -5.7595825z" fill-rule="evenodd"/><path fill="#000000" d="m167.97455 131.38959l-1.09375 0l0 5.0625l1.09375 0l0 0.859375l-1.953125 0l0 -6.796875l1.953125 0l0 0.875zm9.459381 5.921875l-1.984375 0l0 -0.859375l1.109375 0l0 -5.0625l-1.109375 0l0 -0.875l1.984375 0l0 6.796875z" fill-rule="nonzero"/><path fill="#d9d9d9" d="m187.66599 121.53543l17.166168 0l0 23.038315l-8.583084 5.7595825l-8.583084 -5.7595825z" fill-rule="evenodd"/><path stroke="#000000" stroke-width="2.0" stroke-linejoin="round" stroke-linecap="butt" d="m187.66599 121.53543l17.166168 0l0 23.038315l-8.583084 5.7595825l-8.583084 -5.7595825z" fill-rule="evenodd"/><path fill="#000000" d="m192.51 131.38959l-1.09375 0l0 5.0625l1.09375 0l0 0.859375l-1.953125 0l0 -6.796875l1.953125 0l0 0.875zm9.459381 5.921875l-1.984375 0l0 -0.859375l1.109375 0l0 -5.0625l-1.109375 0l0 -0.875l1.984375 0l0 6.796875z" fill-rule="nonzero"/><path fill="#d9d9d9" d="m211.39027 121.53543l17.166153 0l0 23.038315l-8.583084 5.7595825l-8.583069 -5.7595825z" fill-rule="evenodd"/><path stroke="#000000" stroke-width="2.0" stroke-linejoin="round" stroke-linecap="butt" d="m211.39027 121.53543l17.166153 0l0 23.038315l-8.583084 5.7595825l-8.583069 -5.7595825z" fill-rule="evenodd"/><path fill="#000000" d="m216.23428 131.38959l-1.09375 0l0 5.0625l1.09375 0l0 0.859375l-1.953125 0l0 -6.796875l1.953125 0l0 0.875zm9.459381 5.921875l-1.984375 0l0 -0.859375l1.109375 0l0 -5.0625l-1.109375 0l0 -0.875l1.984375 0l0 6.796875z" fill-rule="nonzero"/><path fill="#000000" fill-opacity="0.0" d="m147.17888 150.33333l0.3779602 23.2126" fill-rule="evenodd"/><path stroke="#000000" stroke-width="2.0" stroke-linejoin="round" stroke-linecap="butt" d="m147.17888 150.33333l0.18258667 11.214188" fill-rule="evenodd"/><path fill="#000000" stroke="#000000" stroke-width="2.0" stroke-linecap="butt" d="m144.05844 161.6013l3.4507904 9.02121l3.1552582 -9.128769z" fill-rule="evenodd"/><path fill="#000000" fill-opacity="0.0" d="m171.71362 150.33333l0 23.2126" fill-rule="evenodd"/><path stroke="#000000" stroke-width="2.0" stroke-linejoin="round" stroke-linecap="butt" d="m171.71361 150.33333l0 11.212601" fill-rule="evenodd"/><path fill="#000000" stroke="#000000" stroke-width="2.0" stroke-linecap="butt" d="m168.41014 161.54593l3.3034668 9.076202l3.3034668 -9.076202z" fill-rule="evenodd"/><path fill="#000000" fill-opacity="0.0" d="m196.24907 150.33333l-0.40945435 23.2126" fill-rule="evenodd"/><path stroke="#000000" stroke-width="2.0" stroke-linejoin="round" stroke-linecap="butt" d="m196.24908 150.33333l-0.19781494 11.214462" fill-rule="evenodd"/><path fill="#000000" stroke="#000000" stroke-width="2.0" stroke-linecap="butt" d="m192.7483 161.48953l3.1428833 9.133057l3.463028 -9.016525z" fill-rule="evenodd"/><path fill="#000000" fill-opacity="0.0" d="m219.97334 150.33333l0 23.2126" fill-rule="evenodd"/><path stroke="#000000" stroke-width="2.0" stroke-linejoin="round" stroke-linecap="butt" d="m219.97334 150.33333l0 11.212601" fill-rule="evenodd"/><path fill="#000000" stroke="#000000" stroke-width="2.0" stroke-linecap="butt" d="m216.66988 161.54593l3.3034668 9.076202l3.3034668 -9.076202z" fill-rule="evenodd"/><path fill="#d9d9d9" d="m131.06036 9.501312l202.86615 0l0 51.212597l-202.86615 0z" fill-rule="evenodd"/><path stroke="#000000" stroke-width="2.0" stroke-linejoin="round" stroke-linecap="butt" d="m131.06036 9.501312l202.86615 0l0 51.212597l-202.86615 0z" fill-rule="evenodd"/><path fill="#000000" d="m206.7403 16.968185l0 -0.421875l1.71875 0l0 4.015625l-1.71875 0l0 -1.796875q-1.09375 -0.5 -2.03125 -0.5q-1.015625 0 -1.703125 0.5q-0.671875 0.5 -0.671875 1.1875q0 0.609375 0.390625 0.921875q0.390625 0.296875 0.953125 0.40625q0.5625 0.109375 1.5625 0.203125l0.71875 0.078125q1.34375 0.171875 2.109375 0.875q0.765625 0.6875 0.765625 1.921875q0 0.984375 -0.5625 1.734375q-0.546875 0.75 -1.515625 1.171875q-0.953125 0.40625 -2.15625 0.40625q-0.65625 0 -1.25 -0.15625q-0.59375 -0.15625 -1.34375 -0.515625l0 0.671875l-1.71875 0l0 -3.90625l1.71875 0l0 1.421875q1.265625 0.765625 2.609375 0.765625q1.21875 0 1.875 -0.40625q0.65625 -0.421875 0.65625 -1.1875q0 -0.65625 -0.515625 -0.953125q-0.515625 -0.296875 -1.765625 -0.3125q-2.09375 -0.03125 -3.1875 -0.890625q-1.09375 -0.859375 -1.09375 -2.25q0 -0.875 0.515625 -1.65625q0.515625 -0.796875 1.4375 -1.265625q0.921875 -0.484375 2.109375 -0.484375q1.15625 0 2.09375 0.421875zm13.646881 3.734375l-1.734375 0l0 -2.21875l-4.46875 0l0 2.65625l1.984375 0l0 -1.234375l1.734375 0l0 4.171875l-1.734375 0l0 -1.234375l-1.984375 0l0 2.84375l4.46875 0l0 -2.171875l1.734375 0l0 3.90625l-9.390625 0l0 -1.734375l1.484375 0l0 -7.203125l-1.4375 0l0 -1.734375l9.34375 0l0 3.953125zm9.725006 -3.375l0 -0.78125l1.703125 0l0 4.34375l-1.703125 0l0 -1.765625q-1.390625 -0.875 -2.734375 -0.875q-0.890625 0 -1.671875 0.453125q-0.765625 0.453125 -1.234375 1.3125q-0.46875 0.859375 -0.46875 2.03125q0 1.75 0.90625 2.8125q0.90625 1.0625 2.515625 1.0625q0.796875 0 1.671875 -0.296875q0.890625 -0.3125 1.734375 -0.90625l1.046875 1.265625q-0.796875 0.75 -2.125 1.203125q-1.328125 0.453125 -2.296875 0.453125q-2.390625 0 -3.859375 -1.71875q-0.625 -0.703125 -0.984375 -1.796875q-0.34375 -1.09375 -0.34375 -2.09375q0 -1.5625 0.671875 -2.8125q0.671875 -1.25 1.828125 -1.953125q1.15625 -0.71875 2.59375 -0.71875q0.78125 0 1.5 0.21875q0.734375 0.203125 1.25 0.5625zm12.943756 4.78125q0 1.765625 -0.71875 3.015625q-0.703125 1.25 -1.84375 1.890625q-1.140625 0.625 -2.359375 0.625q-1.34375 0 -2.484375 -0.65625q-1.140625 -0.65625 -1.8125 -1.90625q-0.671875 -1.25 -0.671875 -2.9375q0 -1.53125 0.625 -2.8125q0.640625 -1.296875 1.765625 -2.03125q1.140625 -0.75 2.578125 -0.75q1.453125 0 2.578125 0.765625q1.125 0.765625 1.734375 2.03125q0.609375 1.265625 0.609375 2.765625zm-4.921875 3.84375q1.0 0 1.71875 -0.546875q0.734375 -0.5625 1.109375 -1.46875q0.390625 -0.90625 0.390625 -1.90625q0 -0.9375 -0.390625 -1.796875q-0.375 -0.875 -1.109375 -1.40625q-0.734375 -0.546875 -1.75 -0.546875q-0.90625 0 -1.640625 0.53125q-0.734375 0.53125 -1.140625 1.40625q-0.40625 0.859375 -0.40625 1.875q0 1.03125 0.390625 1.921875q0.390625 0.890625 1.125 1.421875q0.75 0.515625 1.703125 0.515625zm13.693756 -1.796875l0 -5.671875l-1.734375 0l0 -1.734375l4.875 0l0 1.734375l-1.4375 0l0 8.9375l-1.640625 0l-4.8125 -7.609375l0 5.875l1.8125 0l0 1.734375l-4.9375 0l0 -1.734375l1.40625 0l0 -7.203125l-1.40625 0l0 -1.734375l3.328125 0l4.546875 7.40625zm13.553131 -2.28125q0 2.75 -1.34375 4.15625q-1.34375 1.390625 -3.78125 1.390625l-4.890625 0l0 -1.734375l1.46875 0l0 -7.203125l-1.46875 0l0 -1.734375l5.375 0q1.484375 0 2.53125 0.671875q1.046875 0.65625 1.578125 1.8125q0.53125 1.15625 0.53125 2.640625zm-1.71875 0.078125q0 -1.65625 -0.78125 -2.5625q-0.78125 -0.90625 -2.140625 -0.90625l-2.1875 0l0 7.203125l2.0625 0q1.265625 0 2.15625 -0.875q0.890625 -0.875 0.890625 -2.859375z" fill-rule="nonzero"/><path fill="#d9d2e9" d="m136.14436 31.91601l23.96849 0l0 24.000002l-23.96849 0z" fill-rule="evenodd"/><path stroke="#000000" stroke-width="2.0" stroke-linejoin="round" stroke-linecap="butt" d="m136.14436 31.91601l23.96849 0l0 24.000002l-23.96849 0z" fill-rule="evenodd"/><path fill="#000000" d="m152.07861 41.89851l-3.015625 0l0 7.203125l3.015625 0l0 1.734375l-7.875 0l0 -1.734375l3.078125 0l0 -7.203125l-3.078125 0l0 -1.734375l7.875 0l0 1.734375z" fill-rule="nonzero"/><path fill="#d9d2e9" d="m160.12073 31.91601l23.968506 0l0 24.000002l-23.968506 0z" fill-rule="evenodd"/><path stroke="#000000" stroke-width="2.0" stroke-linejoin="round" stroke-linecap="butt" d="m160.12073 31.91601l23.968506 0l0 24.000002l-23.968506 0z" fill-rule="evenodd"/><path fill="#000000" d="m177.49248 41.89851l-2.25 0l0 5.515625q0 0.984375 -0.234375 1.65625q-0.234375 0.671875 -0.71875 1.09375q-0.53125 0.46875 -1.0625 0.671875q-0.53125 0.21875 -1.40625 0.21875q-0.953125 0 -2.0625 -0.3125q-1.109375 -0.328125 -2.21875 -0.9375l0 -4.28125l1.734375 0l0 2.046875q0 1.015625 0.625 1.359375q0.421875 0.25 0.953125 0.34375q0.546875 0.09375 0.953125 0.09375q0.9375 0 1.328125 -0.453125q0.40625 -0.453125 0.40625 -1.640625l0 -5.375l-3.28125 0l0 -1.734375l7.234375 0l0 1.734375z" fill-rule="nonzero"/><path fill="#d9d2e9" d="m184.09709 31.91601l23.968506 0l0 24.000002l-23.968506 0z" fill-rule="evenodd"/><path stroke="#000000" stroke-width="2.0" stroke-linejoin="round" stroke-linecap="butt" d="m184.09709 31.91601l23.968506 0l0 24.000002l-23.968506 0z" fill-rule="evenodd"/><path fill="#000000" d="m195.68759 41.89851l-1.453125 0l0 2.890625l3.0 -2.890625l-0.765625 0l0 -1.734375l4.265625 0l0 1.734375l-1.203125 0l-3.09375 3.0q1.71875 2.0 2.890625 4.203125l1.890625 0l0 1.734375l-2.828125 0q-0.578125 -1.21875 -1.421875 -2.53125q-0.828125 -1.3125 -1.6875 -2.296875l-1.046875 1.0l0 2.09375l1.453125 0l0 1.734375l-4.640625 0l0 -1.734375l1.46875 0l0 -7.203125l-1.46875 0l0 -1.734375l4.640625 0l0 1.734375z" fill-rule="nonzero"/><path fill="#d9d2e9" d="m208.07347 31.91601l23.96849 0l0 24.000002l-23.96849 0z" fill-rule="evenodd"/><path stroke="#000000" stroke-width="2.0" stroke-linejoin="round" stroke-linecap="butt" d="m208.07347 31.91601l23.96849 0l0 24.000002l-23.96849 0z" fill-rule="evenodd"/><path fill="#000000" d="m221.1327 41.89851l-2.234375 0l0 7.203125l4.234375 0l0 -3.28125l1.7343903 0l0 5.015625l-9.45314 0l0 -1.734375l1.765625 0l0 -7.203125l-1.765625 0l0 -1.734375l5.71875 0l0 1.734375z" fill-rule="nonzero"/><path fill="#d9d9d9" d="m352.1391 9.501312l95.40158 0l0 51.212597l-95.40158 0z" fill-rule="evenodd"/><path stroke="#000000" stroke-width="2.0" stroke-linejoin="round" stroke-linecap="butt" d="m352.1391 9.501312l95.40158 0l0 51.212597l-95.40158 0z" fill-rule="evenodd"/><path fill="#000000" d="m382.3555 20.811935l-1.734375 0l0 -2.328125l-2.265625 0l0 7.203125l2.25 0l0 1.734375l-6.234375 0l0 -1.734375l2.234375 0l0 -7.203125l-2.265625 0l0 2.328125l-1.734375 0l0 -4.0625l9.75 0l0 4.0625zm5.771881 -2.328125l-1.484375 0l0 2.578125l4.078125 0l0 -2.578125l-1.453125 0l0 -1.734375l4.578125 0l0 1.734375l-1.40625 0l0 7.203125l1.40625 0l0 1.734375l-4.578125 0l0 -1.734375l1.453125 0l0 -2.890625l-4.078125 0l0 2.890625l1.484375 0l0 1.734375l-4.609375 0l0 -1.734375l1.421875 0l0 -7.203125l-1.421875 0l0 -1.734375l4.609375 0l0 1.734375zm15.662506 0l-3.015625 0l0 7.203125l3.015625 0l0 1.734375l-7.875 0l0 -1.734375l3.078125 0l0 -7.203125l-3.078125 0l0 -1.734375l7.875 0l0 1.734375zm11.365631 1.40625q0 1.125 -0.640625 1.890625q-0.625 0.765625 -1.84375 1.0625l2.15625 2.84375l1.390625 0l0 1.734375l-2.5 0q-0.421875 -0.953125 -1.125 -1.921875l-1.671875 -2.3125l-1.4375 0l0 2.5l1.375 0l0 1.734375l-4.5625 0l0 -1.734375l1.46875 0l0 -7.203125l-1.390625 0l0 -1.734375l5.328125 0q1.78125 0 2.609375 0.921875q0.84375 0.90625 0.84375 2.21875zm-1.703125 0.015625q0 -0.71875 -0.40625 -1.0625q-0.40625 -0.359375 -1.171875 -0.359375l-2.390625 0l0 2.96875l1.796875 0q1.09375 0 1.625 -0.375q0.546875 -0.390625 0.546875 -1.171875zm13.678131 1.96875q0 2.75 -1.34375 4.15625q-1.34375 1.390625 -3.78125 1.390625l-4.890625 0l0 -1.734375l1.46875 0l0 -7.203125l-1.46875 0l0 -1.734375l5.375 0q1.484375 0 2.53125 0.671875q1.046875 0.65625 1.578125 1.8125q0.53125 1.15625 0.53125 2.640625zm-1.71875 0.078125q0 -1.65625 -0.78125 -2.5625q-0.78125 -0.90625 -2.140625 -0.90625l-2.1875 0l0 7.203125l2.0625 0q1.265625 0 2.15625 -0.875q0.890625 -0.875 0.890625 -2.859375z" fill-rule="nonzero"/><path fill="#d9d2e9" d="m359.20993 31.91601l82.48819 0l0 24.000002l-82.48819 0z" fill-rule="evenodd"/><path stroke="#000000" stroke-width="2.0" stroke-linejoin="round" stroke-linecap="butt" d="m359.20993 31.91601l82.48819 0l0 24.000002l-82.48819 0z" fill-rule="evenodd"/><path fill="#000000" d="m404.27902 41.39851l-5.6875 7.703125l4.375 0l0 -2.625l1.71875 0l0 4.359375l-8.40625 0l0 -1.328125l5.609375 -7.609375l-3.828125 0l0 2.359375l-1.703125 0l0 -4.09375l7.921875 0l0 1.234375z" fill-rule="nonzero"/><path fill="#000000" fill-opacity="0.0" d="m148.12862 55.91601c0 16.40485 -0.23622131 24.608921 -0.47244263 32.80971c-0.23622131 8.200783 -0.47244263 16.398293 -0.47244263 32.796585" fill-rule="evenodd"/><path stroke="#ff0000" stroke-width="2.0" stroke-linejoin="round" stroke-linecap="butt" d="m148.12862 55.91601c0 16.404858 -0.23622131 24.608921 -0.47244263 32.80971c-0.118118286 4.100395 -0.23622131 8.199966 -0.32481384 13.324226c-0.022140503 1.2810669 -0.042434692 2.6261673 -0.060440063 4.051346c-0.008987427 0.71258545 -0.017410278 1.445198 -0.02519226 2.1998215l-0.01121521 1.2213058" fill-rule="evenodd"/><path fill="#ff0000" stroke="#ff0000" stroke-width="2.0" stroke-linecap="butt" d="m143.93108 109.50844l3.26503 9.0900955l3.3418427 -9.062134z" fill-rule="evenodd"/><path fill="#000000" fill-opacity="0.0" d="m172.10498 55.91601c0 16.40485 -0.09449768 24.608921 -0.1889801 32.80971c-0.09448242 8.200783 -0.1889801 16.398293 -0.1889801 32.796585" fill-rule="evenodd"/><path stroke="#ff0000" stroke-width="2.0" stroke-linejoin="round" stroke-linecap="butt" d="m172.10498 55.91601c0 16.404858 -0.09449768 24.608921 -0.1889801 32.80971c-0.04724121 4.100395 -0.09448242 8.199966 -0.12992859 13.324226c-0.008850098 1.2810669 -0.016967773 2.6261673 -0.024169922 4.051346l-0.0140686035 3.4210358" fill-rule="evenodd"/><path fill="#ff0000" stroke="#ff0000" stroke-width="2.0" stroke-linecap="butt" d="m168.44437 109.5166l3.287735 9.081909l3.3191833 -9.070457z" fill-rule="evenodd"/><path fill="#000000" fill-opacity="0.0" d="m196.08134 55.91601c0 16.40485 0.039367676 24.608921 0.07873535 32.80971c0.039382935 8.200783 0.07875061 16.398293 0.07875061 32.796585" fill-rule="evenodd"/><path stroke="#ff0000" stroke-width="2.0" stroke-linejoin="round" stroke-linecap="butt" d="m196.08134 55.91601c0 16.404858 0.039367676 24.608921 0.07873535 32.80971c0.019683838 4.100395 0.039367676 8.199966 0.054138184 13.324226l0.0155181885 7.4723587" fill-rule="evenodd"/><path fill="#ff0000" stroke="#ff0000" stroke-width="2.0" stroke-linecap="butt" d="m192.92628 109.52481l3.3103333 9.073692l3.2966003 -9.07869z" fill-rule="evenodd"/><path fill="#000000" fill-opacity="0.0" d="m220.05771 55.91601c0 16.40485 -0.023620605 24.608921 -0.04724121 32.80971c-0.023620605 8.200783 -0.04724121 16.398293 -0.04724121 32.796585" fill-rule="evenodd"/><path stroke="#ff0000" stroke-width="2.0" stroke-linejoin="round" stroke-linecap="butt" d="m220.05772 55.91601c0 16.404858 -0.023620605 24.608921 -0.04724121 32.80971c-0.011810303 4.100395 -0.023620605 8.199966 -0.032485962 13.324226l-0.009307861 7.4723587" fill-rule="evenodd"/><path fill="#ff0000" stroke="#ff0000" stroke-width="2.0" stroke-linecap="butt" d="m216.66522 109.52081l3.2993317 9.07769l3.3075867 -9.074692z" fill-rule="evenodd"/><path fill="#000000" fill-opacity="0.0" d="m58.07606 55.91601c0 16.40485 22.275593 24.608921 44.55118 32.80971c22.275589 8.200783 44.551178 16.398293 44.551178 32.796585" fill-rule="evenodd"/><path stroke="#000000" stroke-width="1.0" stroke-linejoin="round" stroke-linecap="butt" d="m58.076057 55.91601c0 16.404858 22.275589 24.608921 44.551186 32.80971c11.1377945 4.100395 22.275597 8.199966 30.628937 13.324226c4.1766815 2.5621338 7.657242 5.380432 10.093628 8.583099c0.60910034 0.8006668 1.1529388 1.6253586 1.6260834 2.4760666c0.236557 0.425354 0.4554596 0.8572235 0.65600586 1.295845c0.1002655 0.21931458 0.19593811 0.44030762 0.2869568 0.6630249c0.04550171 0.11136627 0.08982849 0.22314453 0.1329956 0.33537292l0.07865906 0.21117401" fill-rule="evenodd"/><path fill="#000000" stroke="#000000" stroke-width="1.0" stroke-linecap="butt" d="m144.50417 115.90301l2.4189453 4.1798706l0.8337555 -4.7568283z" fill-rule="evenodd"/><path fill="#000000" fill-opacity="0.0" d="m58.07606 55.91601c0 16.40485 28.40945 24.608921 56.818897 32.80971c28.409454 8.200783 56.818893 16.398293 56.818893 32.796585" fill-rule="evenodd"/><path stroke="#000000" stroke-width="1.0" stroke-linejoin="round" stroke-linecap="butt" d="m58.076057 55.91601c0 16.404858 28.409454 24.608921 56.8189 32.80971c14.204727 4.100395 28.409454 8.199966 39.06299 13.324226c5.326782 2.5621338 9.765762 5.380432 12.873032 8.583099c0.77682495 0.8006668 1.4704132 1.6253586 2.0738373 2.4760666c0.30171204 0.425354 0.58088684 0.8572235 0.8366394 1.295845c0.12788391 0.21931458 0.24990845 0.44030762 0.36598206 0.6630249c0.058044434 0.11136627 0.11457825 0.22314453 0.1696167 0.33537292l0.12545776 0.26400757" fill-rule="evenodd"/><path fill="#000000" stroke="#000000" stroke-width="1.0" stroke-linecap="butt" d="m168.79071 116.028366l2.6036377 4.067383l0.6199646 -4.789383z" fill-rule="evenodd"/><path fill="#000000" fill-opacity="0.0" d="m58.07606 55.91601c0 16.40485 34.54331 24.608921 69.08661 32.80971c34.543304 8.200783 69.08661 16.398293 69.08661 32.796585" fill-rule="evenodd"/><path stroke="#000000" stroke-width="1.0" stroke-linejoin="round" stroke-linecap="butt" d="m58.076057 55.91601c0 16.404858 34.543312 24.608921 69.086624 32.80971c17.271645 4.100395 34.543297 8.199966 47.497032 13.324226c6.4768677 2.5621338 11.874268 5.380432 15.652435 8.583099c0.94454956 0.8006668 1.7879028 1.6253586 2.5215912 2.4760666c0.36686707 0.425354 0.7063141 0.8572235 1.0172882 1.295845c0.15548706 0.21931458 0.30386353 0.44030762 0.44499207 0.6630249c0.0705719 0.11136627 0.139328 0.22314453 0.2062378 0.33537292l0.18782043 0.32508087" fill-rule="evenodd"/><path fill="#000000" stroke="#000000" stroke-width="1.0" stroke-linecap="butt" d="m193.0951 116.15768l2.774292 3.9529572l0.41567993 -4.8114243z" fill-rule="evenodd"/><path fill="#000000" fill-opacity="0.0" d="m58.07606 55.91601c0 16.40485 40.47244 24.608921 80.94487 32.80971c40.472443 8.200783 80.944885 16.398293 80.944885 32.796585" fill-rule="evenodd"/><path stroke="#000000" stroke-width="1.0" stroke-linejoin="round" stroke-linecap="butt" d="m58.076057 55.91601c0 16.404858 40.47245 24.608921 80.94489 32.80971c20.236206 4.100395 40.472427 8.199966 55.649597 13.324226c7.5885773 2.5621338 13.912399 5.380432 18.339066 8.583099c2.2133331 1.601326 3.9523926 3.2987518 5.1381073 5.108284l0.033325195 0.052581787" fill-rule="evenodd"/><path fill="#000000" stroke="#000000" stroke-width="1.0" stroke-linecap="butt" d="m216.60406 116.28524l2.9268951 3.8413467l0.22703552 -4.824005z" fill-rule="evenodd"/><path fill="#000000" fill-opacity="0.0" d="m400.454 55.91601l0.2204895 61.700787" fill-rule="evenodd"/><path stroke="#000000" stroke-width="2.0" stroke-linejoin="round" stroke-linecap="butt" d="m400.45404 55.91601l0.17755127 49.70087" fill-rule="evenodd"/><path fill="#000000" stroke="#000000" stroke-width="2.0" stroke-linecap="butt" d="m397.3282 105.62868l3.3358765 9.064331l3.270996 -9.087936z" fill-rule="evenodd"/><path fill="#d9d2e9" d="m232.04398 173.53543l24.125977 0l0 24.0l-24.125977 0z" fill-rule="evenodd"/><path stroke="#000000" stroke-width="2.0" stroke-linejoin="round" stroke-linecap="butt" d="m232.04398 173.53543l24.125977 0l0 24.0l-24.125977 0z" fill-rule="evenodd"/><path fill="#000000" d="m238.81958 187.46544l0.453125 0l0 0.75l-1.859375 0l0 -0.75l0.65625 0l-0.21875 -0.53125l-1.859375 0l-0.234375 0.53125l0.6875 0l0 0.75l-1.90625 0l0 -0.75l0.46875 0l1.3125 -3.078125l-0.984375 0l0 -0.75l1.921875 0l1.5625 3.828125zm-1.265625 -1.28125l-0.625 -1.484375l-0.625 1.484375l1.25 0zm5.737442 -2.375l-0.921875 0l0 4.34375l0.921875 0l0 0.75l-1.671875 0l0 -5.828125l1.671875 0l0 0.734375zm3.284317 2.109375l0.875 -2.28125l1.546875 0l0 0.75l-0.625 0l0.125 3.078125l0.421875 0l0 0.75l-1.90625 0l0 -0.75l0.734375 0l-0.109375 -2.515625l-0.84375 2.25l-0.484375 0l-0.796875 -2.265625l-0.140625 2.53125l0.765625 0l0 0.75l-1.9375 0l0 -0.75l0.4375 0l0.125 -3.078125l-0.59375 0l0 -0.75l1.578125 0l0.828125 2.28125zm4.831192 2.984375l-1.6875 0l0 -0.75l0.953125 0l0 -4.34375l-0.953125 0l0 -0.734375l1.6875 0l0 5.828125z" fill-rule="nonzero"/><path fill="#d9d2e9" d="m256.17783 173.53543l24.125977 0l0 24.0l-24.125977 0z" fill-rule="evenodd"/><path stroke="#000000" stroke-width="2.0" stroke-linejoin="round" stroke-linecap="butt" d="m256.17783 173.53543l24.125977 0l0 24.0l-24.125977 0z" fill-rule="evenodd"/><path fill="#000000" d="m262.95343 187.46544l0.453125 0l0 0.75l-1.859375 0l0 -0.75l0.65625 0l-0.21875 -0.53125l-1.859375 0l-0.234375 0.53125l0.6875 0l0 0.75l-1.90625 0l0 -0.75l0.46875 0l1.3125 -3.078125l-0.984375 0l0 -0.75l1.921875 0l1.5625 3.828125zm-1.265625 -1.28125l-0.625 -1.484375l-0.625 1.484375l1.25 0zm5.7374573 -2.375l-0.921875 0l0 4.34375l0.921875 0l0 0.75l-1.671875 0l0 -5.828125l1.671875 0l0 0.734375zm4.2999268 3.0l0 -2.421875l-0.734375 0l0 -0.75l2.09375 0l0 0.75l-0.625 0l0 3.828125l-0.703125 0l-2.0625 -3.265625l0 2.515625l0.78125 0l0 0.75l-2.125 0l0 -0.75l0.609375 0l0 -3.078125l-0.609375 0l0 -0.75l1.4375 0l1.9375 3.171875zm3.8155823 2.09375l-1.6875 0l0 -0.75l0.953125 0l0 -4.34375l-0.953125 0l0 -0.734375l1.6875 0l0 5.828125z" fill-rule="nonzero"/><path fill="#d9d2e9" d="m280.31168 173.53543l24.126007 0l0 24.0l-24.126007 0z" fill-rule="evenodd"/><path stroke="#000000" stroke-width="2.0" stroke-linejoin="round" stroke-linecap="butt" d="m280.31168 173.53543l24.126007 0l0 24.0l-24.126007 0z" fill-rule="evenodd"/><path fill="#000000" d="m287.08728 187.46544l0.453125 0l0 0.75l-1.859375 0l0 -0.75l0.65625 0l-0.21875 -0.53125l-1.859375 0l-0.234375 0.53125l0.6875 0l0 0.75l-1.90625 0l0 -0.75l0.46875 0l1.3125 -3.078125l-0.984375 0l0 -0.75l1.921875 0l1.5625 3.828125zm-1.265625 -1.28125l-0.625 -1.484375l-0.625 1.484375l1.25 0zm5.7374573 -2.375l-0.921875 0l0 4.34375l0.921875 0l0 0.75l-1.671875 0l0 -5.828125l1.671875 0l0 0.734375zm5.3468018 2.125q0 0.765625 -0.3125 1.296875q-0.296875 0.53125 -0.796875 0.8125q-0.484375 0.265625 -1.0 0.265625q-0.578125 0 -1.078125 -0.28125q-0.484375 -0.28125 -0.78125 -0.8125q-0.28125 -0.546875 -0.28125 -1.265625q0 -0.65625 0.265625 -1.203125q0.28125 -0.5625 0.765625 -0.875q0.484375 -0.3125 1.109375 -0.3125q0.625 0 1.109375 0.328125q0.484375 0.3125 0.734375 0.859375q0.265625 0.546875 0.265625 1.1875zm-2.109375 1.65625q0.421875 0 0.734375 -0.234375q0.3125 -0.25 0.46875 -0.625q0.171875 -0.390625 0.171875 -0.828125q0 -0.40625 -0.171875 -0.765625q-0.15625 -0.375 -0.46875 -0.609375q-0.3125 -0.234375 -0.75 -0.234375q-0.390625 0 -0.703125 0.234375q-0.3125 0.21875 -0.484375 0.59375q-0.171875 0.375 -0.171875 0.8125q0 0.4375 0.15625 0.828125q0.171875 0.375 0.484375 0.609375q0.328125 0.21875 0.734375 0.21875zm4.8780823 1.3125l-1.6875 0l0 -0.75l0.953125 0l0 -4.34375l-0.953125 0l0 -0.734375l1.6875 0l0 5.828125z" fill-rule="nonzero"/><path fill="#d9d2e9" d="m304.44556 173.53543l24.125977 0l0 24.0l-24.125977 0z" fill-rule="evenodd"/><path stroke="#000000" stroke-width="2.0" stroke-linejoin="round" stroke-linecap="butt" d="m304.44556 173.53543l24.125977 0l0 24.0l-24.125977 0z" fill-rule="evenodd"/><path fill="#000000" d="m311.22116 187.46544l0.453125 0l0 0.75l-1.859375 0l0 -0.75l0.65625 0l-0.21875 -0.53125l-1.859375 0l-0.234375 0.53125l0.6875 0l0 0.75l-1.90625 0l0 -0.75l0.46875 0l1.3125 -3.078125l-0.984375 0l0 -0.75l1.921875 0l1.5625 3.828125zm-1.265625 -1.28125l-0.625 -1.484375l-0.625 1.484375l1.25 0zm5.7374268 -2.375l-0.921875 0l0 4.34375l0.921875 0l0 0.75l-1.671875 0l0 -5.828125l1.671875 0l0 0.734375zm5.1749573 1.375q0 0.421875 -0.203125 0.765625q-0.203125 0.328125 -0.5625 0.515625q-0.359375 0.1875 -0.78125 0.1875l-0.96875 0l0 0.8125l0.984375 0l0 0.75l-2.34375 0l0 -0.75l0.625 0l0 -3.078125l-0.625 0l0 -0.75l2.109375 0q0.84375 0 1.296875 0.40625q0.46875 0.40625 0.46875 1.140625zm-0.734375 -0.03125q0 -0.34375 -0.265625 -0.546875q-0.25 -0.21875 -0.765625 -0.21875l-0.75 0l0 1.53125l0.84375 0q0.9375 0 0.9375 -0.765625zm3.6749268 3.75l-1.6875 0l0 -0.75l0.953125 0l0 -4.34375l-0.953125 0l0 -0.734375l1.6875 0l0 5.828125z" fill-rule="nonzero"/><path fill="#d9d9d9" d="m235.52493 121.53543l17.166168 0l0 23.038315l-8.583084 5.7595825l-8.583084 -5.7595825z" fill-rule="evenodd"/><path stroke="#000000" stroke-width="2.0" stroke-linejoin="round" stroke-linecap="butt" d="m235.52493 121.53543l17.166168 0l0 23.038315l-8.583084 5.7595825l-8.583084 -5.7595825z" fill-rule="evenodd"/><path fill="#000000" d="m240.36894 131.38959l-1.09375 0l0 5.0625l1.09375 0l0 0.859375l-1.953125 0l0 -6.796875l1.953125 0l0 0.875zm9.459381 5.921875l-1.984375 0l0 -0.859375l1.109375 0l0 -5.0625l-1.109375 0l0 -0.875l1.984375 0l0 6.796875z" fill-rule="nonzero"/><path fill="#d9d9d9" d="m259.6581 121.53543l17.166138 0l0 23.038315l-8.583069 5.7595825l-8.583069 -5.7595825z" fill-rule="evenodd"/><path stroke="#000000" stroke-width="2.0" stroke-linejoin="round" stroke-linecap="butt" d="m259.6581 121.53543l17.166138 0l0 23.038315l-8.583069 5.7595825l-8.583069 -5.7595825z" fill-rule="evenodd"/><path fill="#000000" d="m264.5021 131.38959l-1.09375 0l0 5.0625l1.09375 0l0 0.859375l-1.953125 0l0 -6.796875l1.953125 0l0 0.875zm9.459381 5.921875l-1.984375 0l0 -0.859375l1.109375 0l0 -5.0625l-1.109375 0l0 -0.875l1.984375 0l0 6.796875z" fill-rule="nonzero"/><path fill="#d9d9d9" d="m283.5059 121.53543l17.166168 0l0 23.038315l-8.583099 5.7595825l-8.583069 -5.7595825z" fill-rule="evenodd"/><path stroke="#000000" stroke-width="2.0" stroke-linejoin="round" stroke-linecap="butt" d="m283.5059 121.53543l17.166168 0l0 23.038315l-8.583099 5.7595825l-8.583069 -5.7595825z" fill-rule="evenodd"/><path fill="#000000" d="m288.34988 131.38959l-1.09375 0l0 5.0625l1.09375 0l0 0.859375l-1.953125 0l0 -6.796875l1.953125 0l0 0.875zm9.459381 5.921875l-1.984375 0l0 -0.859375l1.109375 0l0 -5.0625l-1.109375 0l0 -0.875l1.984375 0l0 6.796875z" fill-rule="nonzero"/><path fill="#d9d9d9" d="m307.9257 121.53543l17.166168 0l0 23.038315l-8.583069 5.7595825l-8.583099 -5.7595825z" fill-rule="evenodd"/><path stroke="#000000" stroke-width="2.0" stroke-linejoin="round" stroke-linecap="butt" d="m307.9257 121.53543l17.166168 0l0 23.038315l-8.583069 5.7595825l-8.583099 -5.7595825z" fill-rule="evenodd"/><path fill="#000000" d="m312.7697 131.38959l-1.09375 0l0 5.0625l1.09375 0l0 0.859375l-1.953125 0l0 -6.796875l1.953125 0l0 0.875zm9.459381 5.921875l-1.984375 0l0 -0.859375l1.109375 0l0 -5.0625l-1.109375 0l0 -0.875l1.984375 0l0 6.796875z" fill-rule="nonzero"/><path fill="#d9d2e9" d="m232.15355 31.91601l23.96849 0l0 24.000002l-23.96849 0z" fill-rule="evenodd"/><path stroke="#000000" stroke-width="2.0" stroke-linejoin="round" stroke-linecap="butt" d="m232.15355 31.91601l23.96849 0l0 24.000002l-23.96849 0z" fill-rule="evenodd"/><path fill="#000000" d="m244.30655 45.476635l2.015625 -5.3125l3.640625 0l0 1.734375l-1.453125 0l0.25 7.203125l1.0 0l0 1.734375l-4.453125 0l0 -1.734375l1.734375 0l-0.265625 -5.890625l-1.96875 5.25l-1.109375 0l-1.890625 -5.296875l-0.296875 5.9375l1.765625 0l0 1.734375l-4.53125 0l0 -1.734375l1.03125 0l0.296875 -7.203125l-1.40625 0l0 -1.734375l3.71875 0l1.921875 5.3125z" fill-rule="nonzero"/><path fill="#d9d2e9" d="m256.1299 31.91601l23.968506 0l0 24.000002l-23.968506 0z" fill-rule="evenodd"/><path stroke="#000000" stroke-width="2.0" stroke-linejoin="round" stroke-linecap="butt" d="m256.1299 31.91601l23.968506 0l0 24.000002l-23.968506 0z" fill-rule="evenodd"/><path fill="#000000" d="m270.6579 47.570385l0 -5.671875l-1.734375 0l0 -1.734375l4.875 0l0 1.734375l-1.4375 0l0 8.9375l-1.640625 0l-4.8125 -7.609375l0 5.875l1.8125 0l0 1.734375l-4.9375 0l0 -1.734375l1.40625 0l0 -7.203125l-1.40625 0l0 -1.734375l3.328125 0l4.546875 7.40625z" fill-rule="nonzero"/><path fill="#d9d2e9" d="m280.1063 31.91601l23.968506 0l0 24.000002l-23.968506 0z" fill-rule="evenodd"/><path stroke="#000000" stroke-width="2.0" stroke-linejoin="round" stroke-linecap="butt" d="m280.1063 31.91601l23.968506 0l0 24.000002l-23.968506 0z" fill-rule="evenodd"/><path fill="#000000" d="m297.05615 45.52351q0 1.765625 -0.71875 3.015625q-0.703125 1.25 -1.84375 1.890625q-1.140625 0.625 -2.359375 0.625q-1.34375 0 -2.484375 -0.65625q-1.140625 -0.65625 -1.8125 -1.90625q-0.671875 -1.25 -0.671875 -2.9375q0 -1.53125 0.625 -2.8125q0.640625 -1.296875 1.765625 -2.03125q1.140625 -0.75 2.578125 -0.75q1.453125 0 2.578125 0.765625q1.125 0.765625 1.734375 2.03125q0.609375 1.265625 0.609375 2.765625zm-4.921875 3.84375q1.0 0 1.71875 -0.546875q0.734375 -0.5625 1.109375 -1.46875q0.390625 -0.90625 0.390625 -1.90625q0 -0.9375 -0.390625 -1.796875q-0.375 -0.875 -1.109375 -1.40625q-0.734375 -0.546875 -1.75 -0.546875q-0.90625 0 -1.640625 0.53125q-0.734375 0.53125 -1.140625 1.40625q-0.40625 0.859375 -0.40625 1.875q0 1.03125 0.390625 1.921875q0.390625 0.890625 1.125 1.421875q0.75 0.515625 1.703125 0.515625z" fill-rule="nonzero"/><path fill="#d9d2e9" d="m304.08264 31.91601l23.968506 0l0 24.000002l-23.968506 0z" fill-rule="evenodd"/><path stroke="#000000" stroke-width="2.0" stroke-linejoin="round" stroke-linecap="butt" d="m304.08264 31.91601l23.968506 0l0 24.000002l-23.968506 0z" fill-rule="evenodd"/><path fill="#000000" d="m320.6419 43.757885q0 1.0 -0.484375 1.78125q-0.46875 0.78125 -1.296875 1.21875q-0.828125 0.4375 -1.828125 0.4375l-2.25 0l0 1.90625l2.265625 0l0 1.734375l-5.453125 0l0 -1.734375l1.46875 0l0 -7.203125l-1.453125 0l0 -1.734375l4.921875 0q1.9375 0 3.015625 0.953125q1.09375 0.953125 1.09375 2.640625zm-1.71875 -0.046875q0 -0.828125 -0.609375 -1.3125q-0.609375 -0.5 -1.78125 -0.5l-1.75 0l0 3.5625l1.9375 0q2.203125 0 2.203125 -1.75z" fill-rule="nonzero"/><path fill="#000000" fill-opacity="0.0" d="m244.1378 55.91601c0 16.40485 0.01574707 24.608921 0.03149414 32.80971c0.01574707 8.200783 0.03149414 16.398293 0.03149414 32.796585" fill-rule="evenodd"/><path stroke="#ff0000" stroke-width="2.0" stroke-linejoin="round" stroke-linecap="butt" d="m244.1378 55.91601c0 16.404858 0.01574707 24.608921 0.03149414 32.80971c0.007873535 4.100395 0.01574707 8.199966 0.021652222 13.324226l0.006210327 7.4723587" fill-rule="evenodd"/><path fill="#ff0000" stroke="#ff0000" stroke-width="2.0" stroke-linecap="butt" d="m240.89369 109.52331l3.3062134 9.075195l3.3007202 -9.077194z" fill-rule="evenodd"/><path fill="#000000" fill-opacity="0.0" d="m268.11417 55.91601c0 16.40485 0.03149414 24.608921 0.06298828 32.80971c0.03149414 8.200783 0.06298828 16.398293 0.06298828 32.796585" fill-rule="evenodd"/><path stroke="#ff0000" stroke-width="2.0" stroke-linejoin="round" stroke-linecap="butt" d="m268.11417 55.91601c0 16.404858 0.03149414 24.608921 0.06298828 32.80971c0.01574707 4.100395 0.03149414 8.199966 0.043304443 13.324226l0.012451172 7.4723587" fill-rule="evenodd"/><path fill="#ff0000" stroke="#ff0000" stroke-width="2.0" stroke-linecap="butt" d="m264.92944 109.52431l3.30896 9.074196l3.297943 -9.078186z" fill-rule="evenodd"/><path fill="#000000" fill-opacity="0.0" d="m316.0669 55.91601c0 16.40485 0.11022949 24.608921 0.2204895 32.80971c0.11022949 8.200783 0.22045898 16.398293 0.22045898 32.796585" fill-rule="evenodd"/><path stroke="#ff0000" stroke-width="2.0" stroke-linejoin="round" stroke-linecap="butt" d="m316.0669 55.91601c0 16.404858 0.11026001 24.608921 0.2204895 32.80971c0.055114746 4.100395 0.11022949 8.199966 0.15158081 13.324226c0.010314941 1.2810669 0.019805908 2.6261673 0.028198242 4.051346l0.016418457 3.4210358" fill-rule="evenodd"/><path fill="#ff0000" stroke="#ff0000" stroke-width="2.0" stroke-linecap="butt" d="m313.1801 109.529015l3.3218384 9.069496l3.2850952 -9.082863z" fill-rule="evenodd"/><path fill="#000000" fill-opacity="0.0" d="m292.09055 55.91601c0 16.40485 0.01574707 24.608921 0.03149414 32.80971c0.01574707 8.200783 0.03149414 16.398293 0.03149414 32.796585" fill-rule="evenodd"/><path stroke="#ff0000" stroke-width="2.0" stroke-linejoin="round" stroke-linecap="butt" d="m292.09055 55.91601c0 16.404858 0.01574707 24.608921 0.03149414 32.80971c0.007873535 4.100395 0.01574707 8.199966 0.021636963 13.324226l0.006225586 7.4723587" fill-rule="evenodd"/><path fill="#ff0000" stroke="#ff0000" stroke-width="2.0" stroke-linecap="butt" d="m288.84644 109.52331l3.3062134 9.075195l3.3007202 -9.077194z" fill-rule="evenodd"/><path fill="#000000" fill-opacity="0.0" d="m244.10802 150.33333l0 23.2126" fill-rule="evenodd"/><path stroke="#000000" stroke-width="2.0" stroke-linejoin="round" stroke-linecap="butt" d="m244.10802 150.33333l0 11.212601" fill-rule="evenodd"/><path fill="#000000" stroke="#000000" stroke-width="2.0" stroke-linecap="butt" d="m240.80455 161.54593l3.3034668 9.076202l3.3034668 -9.076202z" fill-rule="evenodd"/><path fill="#000000" fill-opacity="0.0" d="m268.24118 150.33333l0 23.2126" fill-rule="evenodd"/><path stroke="#000000" stroke-width="2.0" stroke-linejoin="round" stroke-linecap="butt" d="m268.24118 150.33333l0 11.212601" fill-rule="evenodd"/><path fill="#000000" stroke="#000000" stroke-width="2.0" stroke-linecap="butt" d="m264.9377 161.54593l3.3034668 9.076202l3.3034668 -9.076202z" fill-rule="evenodd"/><path fill="#000000" fill-opacity="0.0" d="m292.08896 150.33333l0.28347778 23.2126" fill-rule="evenodd"/><path stroke="#000000" stroke-width="2.0" stroke-linejoin="round" stroke-linecap="butt" d="m292.08896 150.33333l0.13693237 11.213501" fill-rule="evenodd"/><path fill="#000000" stroke="#000000" stroke-width="2.0" stroke-linecap="butt" d="m288.9227 161.58716l3.414032 9.035187l3.1923828 -9.11586z" fill-rule="evenodd"/><path fill="#000000" fill-opacity="0.0" d="m316.5088 150.33333l0 23.2126" fill-rule="evenodd"/><path stroke="#000000" stroke-width="2.0" stroke-linejoin="round" stroke-linecap="butt" d="m316.5088 150.33333l0 11.212601" fill-rule="evenodd"/><path fill="#000000" stroke="#000000" stroke-width="2.0" stroke-linecap="butt" d="m313.20532 161.54593l3.3034668 9.076202l3.3034668 -9.076202z" fill-rule="evenodd"/><path fill="#000000" fill-opacity="0.0" d="m58.07606 55.91601c0 16.40485 46.511806 24.608921 93.02362 32.80971c46.51181 8.200783 93.02362 16.398293 93.02362 32.796585" fill-rule="evenodd"/><path stroke="#000000" stroke-width="1.0" stroke-linejoin="round" stroke-linecap="butt" d="m58.076057 55.91601c0 16.404858 46.511818 24.608921 93.02363 32.80971c23.25589 4.100395 46.511795 8.199966 63.953735 13.324226c8.720963 2.5621338 15.988434 5.380432 21.075653 8.583099c2.5436249 1.601326 4.5421906 3.2987518 5.9048157 5.108284l0.0901947 0.12384796" fill-rule="evenodd"/><path fill="#000000" stroke="#000000" stroke-width="1.0" stroke-linecap="butt" d="m240.56674 116.41554l3.0694427 3.7284088l0.04524231 -4.829132z" fill-rule="evenodd"/><path fill="#000000" fill-opacity="0.0" d="m58.07606 55.91601c0 16.40485 52.54331 24.608921 105.08661 32.80971c52.543304 8.200783 105.086624 16.398293 105.086624 32.796585" fill-rule="evenodd"/><path stroke="#000000" stroke-width="1.0" stroke-linejoin="round" stroke-linecap="butt" d="m58.076057 55.91601c0 16.404858 52.543312 24.608921 105.08662 32.80971c26.271652 4.100395 52.543304 8.199966 72.24704 13.324226c9.851868 2.5621338 18.061768 5.380432 23.8087 8.583099c2.8734436 1.601326 5.1311646 3.2987518 6.670532 5.108284l0.16278076 0.19789886" fill-rule="evenodd"/><path fill="#000000" stroke="#000000" stroke-width="1.0" stroke-linecap="butt" d="m264.51477 116.5442l3.1990662 3.6177902l-0.12515259 -4.8277206z" fill-rule="evenodd"/><path fill="#000000" fill-opacity="0.0" d="m58.07606 55.91601c0 16.40485 58.503933 24.608921 117.00787 32.80971c58.503937 8.200783 117.00786 16.398293 117.00786 32.796585" fill-rule="evenodd"/><path stroke="#000000" stroke-width="1.0" stroke-linejoin="round" stroke-linecap="butt" d="m58.076057 55.91601c0 16.404858 58.503944 24.608921 117.007866 32.80971c29.251968 4.100395 58.503937 8.199966 80.44292 13.324226c10.969498 2.5621338 20.110733 5.380432 26.509598 8.583099c3.1994324 1.601326 5.7132874 3.2987518 7.4272766 5.108284l0.24960327 0.2725525" fill-rule="evenodd"/><path fill="#000000" stroke="#000000" stroke-width="1.0" stroke-linecap="butt" d="m288.1969 116.66865l3.3153992 3.511528l-0.28256226 -4.821068z" fill-rule="evenodd"/><path fill="#000000" fill-opacity="0.0" d="m58.07606 55.91601c0 16.40485 64.60629 24.608921 129.2126 32.80971c64.60629 8.200783 129.21259 16.398293 129.21259 32.796585" fill-rule="evenodd"/><path stroke="#000000" stroke-width="1.0" stroke-linejoin="round" stroke-linecap="butt" d="m58.076057 55.91601c0 16.404858 64.60631 24.608921 129.21259 32.80971c32.303146 4.100395 64.60631 8.199966 88.833664 13.324226c12.113678 2.5621338 22.208405 5.380432 29.27472 8.583099c3.5331726 1.601326 6.309204 3.2987518 8.201996 5.108284c0.11828613 0.113098145 0.23312378 0.2266388 0.34451294 0.3406067l0.008483887 0.008850098" fill-rule="evenodd"/><path fill="#000000" stroke="#000000" stroke-width="1.0" stroke-linecap="butt" d="m312.4568 116.792564l3.4233398 3.4063568l-0.43286133 -4.809906z" fill-rule="evenodd"/></g></svg>