<svg version="1.1" viewBox="0.0 0.0 223.61417322834646 193.51706036745406" fill="none" stroke="none" stroke-linecap="square" stroke-miterlimit="10" xmlns:xlink="http://www.w3.org/1999/xlink" xmlns="http://www.w3.org/2000/svg"><clipPath id="p.0"><path d="m0 0l223.61417 0l0 193.51706l-223.61417 0l0 -193.51706z" clip-rule="nonzero"/></clipPath><g clip-path="url(#p.0)"><path fill="#000000" fill-opacity="0.0" d="m0 0l223.61417 0l0 193.51706l-223.61417 0z" fill-rule="evenodd"/><path fill="#ffffff" d="m0 -0.018372703l223.62204 0l0 193.51181l-223.62204 0z" fill-rule="evenodd"/><path stroke="#000000" stroke-width="1.0" stroke-linejoin="round" stroke-linecap="butt" d="m0 -0.018372703l223.62204 0l0 193.51181l-223.62204 0z" fill-rule="evenodd"/><path fill="#d9d9d9" d="m10.374016 132.76115l202.86615 0l0 51.2126l-202.86615 0z" fill-rule="evenodd"/><path stroke="#000000" stroke-width="2.0" stroke-linejoin="round" stroke-linecap="butt" d="m10.374016 132.76115l202.86615 0l0 51.2126l-202.86615 0z" fill-rule="evenodd"/><path fill="#000000" d="m88.788315 174.58125q0 1.765625 -0.71875 3.015625q-0.703125 1.25 -1.84375 1.890625q-1.140625 0.625 -2.359375 0.625q-1.34375 0 -2.484375 -0.65625q-1.140625 -0.65625 -1.8125 -1.90625q-0.671875 -1.25 -0.671875 -2.9375q0 -1.53125 0.625 -2.8125q0.640625 -1.296875 1.765625 -2.03125q1.140625 -0.75 2.578125 -0.75q1.453125 0 2.578125 0.765625q1.125 0.765625 1.734375 2.03125q0.609375 1.265625 0.609375 2.765625zm-4.921875 3.84375q1.0 0 1.71875 -0.546875q0.734375 -0.5625 1.109375 -1.46875q0.390625 -0.90625 0.390625 -1.90625q0 -0.9375 -0.390625 -1.796875q-0.375 -0.875 -1.109375 -1.40625q-0.734375 -0.546875 -1.75 -0.546875q-0.90625 0 -1.640625 0.53125q-0.734375 0.53125 -1.140625 1.40625q-0.40625 0.859375 -0.40625 1.875q0 1.03125 0.390625 1.921875q0.390625 0.890625 1.125 1.421875q0.75 0.515625 1.703125 0.515625zm10.818756 -7.46875l-1.71875 0l0 5.34375q0 1.109375 0.53125 1.59375q0.53125 0.484375 1.65625 0.484375q1.25 0 1.765625 -0.546875q0.515625 -0.546875 0.515625 -1.859375l0 -5.015625l-1.75 0l0 -1.734375l4.890625 0l0 1.734375l-1.421875 0l0 5.40625q0 0.921875 -0.28125 1.671875q-0.28125 0.734375 -0.796875 1.1875q-0.515625 0.453125 -1.359375 0.671875q-0.828125 0.21875 -1.546875 0.21875q-1.0625 0 -1.78125 -0.25q-0.703125 -0.25 -1.21875 -0.765625q-0.921875 -0.859375 -0.921875 -2.9375l0 -5.203125l-1.453125 0l0 -1.734375l4.890625 0l0 1.734375zm16.428131 2.328125l-1.734375 0l0 -2.328125l-2.265625 0l0 7.203125l2.25 0l0 1.734375l-6.234375 0l0 -1.734375l2.234375 0l0 -7.203125l-2.265625 0l0 2.328125l-1.734375 0l0 -4.0625l9.75 0l0 4.0625zm10.865631 -0.46875q0 1.0 -0.484375 1.78125q-0.46875 0.78125 -1.296875 1.21875q-0.828125 0.4375 -1.828125 0.4375l-2.25 0l0 1.90625l2.265625 0l0 1.734375l-5.453125 0l0 -1.734375l1.46875 0l0 -7.203125l-1.453125 0l0 -1.734375l4.921875 0q1.9375 0 3.015625 0.953125q1.09375 0.953125 1.09375 2.640625zm-1.71875 -0.046875q0 -0.828125 -0.609375 -1.3125q-0.609375 -0.5 -1.78125 -0.5l-1.75 0l0 3.5625l1.9375 0q2.203125 0 2.203125 -1.75zm8.006256 -1.8125l-1.71875 0l0 5.34375q0 1.109375 0.53125 1.59375q0.53125 0.484375 1.65625 0.484375q1.25 0 1.765625 -0.546875q0.515625 -0.546875 0.515625 -1.859375l0 -5.015625l-1.75 0l0 -1.734375l4.890625 0l0 1.734375l-1.421875 0l0 5.40625q0 0.921875 -0.28125 1.671875q-0.28125 0.734375 -0.796875 1.1875q-0.515625 0.453125 -1.359375 0.671875q-0.828125 0.21875 -1.546875 0.21875q-1.0625 0 -1.78125 -0.25q-0.703125 -0.25 -1.21875 -0.765625q-0.921875 -0.859375 -0.921875 -2.9375l0 -5.203125l-1.453125 0l0 -1.734375l4.890625 0l0 1.734375zm16.428131 2.328125l-1.734375 0l0 -2.328125l-2.265625 0l0 7.203125l2.25 0l0 1.734375l-6.234375 0l0 -1.734375l2.234375 0l0 -7.203125l-2.265625 0l0 2.328125l-1.734375 0l0 -4.0625l9.75 0l0 4.0625z" fill-rule="nonzero"/><path fill="#d9d9d9" d="m10.374016 9.501312l202.86615 0l0 51.212597l-202.86615 0z" fill-rule="evenodd"/><path stroke="#000000" stroke-width="2.0" stroke-linejoin="round" stroke-linecap="butt" d="m10.374016 9.501312l202.86615 0l0 51.212597l-202.86615 0z" fill-rule="evenodd"/><path fill="#000000" d="m82.80081 20.343185q0 1.0 -0.484375 1.78125q-0.46875 0.78125 -1.296875 1.21875q-0.828125 0.4375 -1.828125 0.4375l-2.25 0l0 1.90625l2.265625 0l0 1.734375l-5.453125 0l0 -1.734375l1.46875 0l0 -7.203125l-1.453125 0l0 -1.734375l4.921875 0q1.9375 0 3.015625 0.953125q1.09375 0.953125 1.09375 2.640625zm-1.71875 -0.046875q0 -0.828125 -0.609375 -1.3125q-0.609375 -0.5 -1.78125 -0.5l-1.75 0l0 3.5625l1.9375 0q2.203125 0 2.203125 -1.75zm13.303131 1.8125q0 1.765625 -0.71875 3.015625q-0.703125 1.25 -1.84375 1.890625q-1.140625 0.625 -2.359375 0.625q-1.34375 0 -2.484375 -0.65625q-1.140625 -0.65625 -1.8125 -1.90625q-0.671875 -1.25 -0.671875 -2.9375q0 -1.53125 0.625 -2.8125q0.640625 -1.296875 1.765625 -2.03125q1.140625 -0.75 2.578125 -0.75q1.453125 0 2.578125 0.765625q1.125 0.765625 1.734375 2.03125q0.609375 1.265625 0.609375 2.765625zm-4.921875 3.84375q1.0 0 1.71875 -0.546875q0.734375 -0.5625 1.109375 -1.46875q0.390625 -0.90625 0.390625 -1.90625q0 -0.9375 -0.390625 -1.796875q-0.375 -0.875 -1.109375 -1.40625q-0.734375 -0.546875 -1.75 -0.546875q-0.90625 0 -1.640625 0.53125q-0.734375 0.53125 -1.140625 1.40625q-0.40625 0.859375 -0.40625 1.875q0 1.03125 0.390625 1.921875q0.390625 0.890625 1.125 1.421875q0.75 0.515625 1.703125 0.515625zm15.100006 -7.46875l-3.015625 0l0 7.203125l3.015625 0l0 1.734375l-7.875 0l0 -1.734375l3.078125 0l0 -7.203125l-3.078125 0l0 -1.734375l7.875 0l0 1.734375zm9.787506 5.671875l0 -5.671875l-1.734375 0l0 -1.734375l4.875 0l0 1.734375l-1.4375 0l0 8.9375l-1.640625 0l-4.8125 -7.609375l0 5.875l1.8125 0l0 1.734375l-4.9375 0l0 -1.734375l1.40625 0l0 -7.203125l-1.40625 0l0 -1.734375l3.328125 0l4.546875 7.40625zm13.553131 -3.34375l-1.734375 0l0 -2.328125l-2.265625 0l0 7.203125l2.25 0l0 1.734375l-6.234375 0l0 -1.734375l2.234375 0l0 -7.203125l-2.265625 0l0 2.328125l-1.734375 0l0 -4.0625l9.75 0l0 4.0625zm10.974991 -0.109375l-1.7343597 0l0 -2.21875l-4.46875 0l0 2.65625l1.984375 0l0 -1.234375l1.734375 0l0 4.171875l-1.734375 0l0 -1.234375l-1.984375 0l0 2.84375l4.46875 0l0 -2.171875l1.7343597 0l0 3.90625l-9.39061 0l0 -1.734375l1.484375 0l0 -7.203125l-1.4375 0l0 -1.734375l9.343735 0l0 3.953125zm10.631256 -0.8125q0 1.125 -0.640625 1.890625q-0.625 0.765625 -1.84375 1.0625l2.15625 2.84375l1.390625 0l0 1.734375l-2.5 0q-0.421875 -0.953125 -1.125 -1.921875l-1.671875 -2.3125l-1.4375 0l0 2.5l1.375 0l0 1.734375l-4.5625 0l0 -1.734375l1.46875 0l0 -7.203125l-1.390625 0l0 -1.734375l5.328125 0q1.78125 0 2.609375 0.921875q0.84375 0.90625 0.84375 2.21875zm-1.703125 0.015625q0 -0.71875 -0.40625 -1.0625q-0.40625 -0.359375 -1.171875 -0.359375l-2.390625 0l0 2.96875l1.796875 0q1.09375 0 1.625 -0.375q0.546875 -0.390625 0.546875 -1.171875z" fill-rule="nonzero"/><path fill="#d9d2e9" d="m15.458005 31.91601l191.77953 0l0 24.000002l-191.77953 0z" fill-rule="evenodd"/><path stroke="#000000" stroke-width="2.0" stroke-linejoin="round" stroke-linecap="butt" d="m15.458005 31.91601l191.77953 0l0 24.000002l-191.77953 0z" fill-rule="evenodd"/><path fill="#000000" d="m115.82902 49.101635l1.046875 0l0 1.734375l-4.359375 0l0 -1.734375l1.5625 0l-0.546875 -1.265625l-4.328125 0l-0.546875 1.265625l1.609375 0l0 1.734375l-4.4375 0l0 -1.734375l1.09375 0l3.046875 -7.203125l-2.296875 0l0 -1.734375l4.5 0l3.65625 8.9375zm-2.984375 -3.0l-1.453125 -3.453125l-1.46875 3.453125l2.921875 0z" fill-rule="nonzero"/><path fill="#d9d2e9" d="m15.615485 137.60367l47.937008 0l0 24.0l-47.937008 0z" fill-rule="evenodd"/><path stroke="#000000" stroke-width="2.0" stroke-linejoin="round" stroke-linecap="butt" d="m15.615485 137.60367l47.937008 0l0 24.0l-47.937008 0z" fill-rule="evenodd"/><path fill="#000000" d="m29.024572 153.9793l0.890625 0l0 1.484375l-3.71875 0l0 -1.484375l1.328125 0l-0.46875 -1.09375l-3.71875 0l-0.453125 1.09375l1.375 0l0 1.484375l-3.8125 0l0 -1.484375l0.953125 0l2.59375 -6.171875l-1.96875 0l0 -1.5l3.859375 0l3.140625 7.671875zm-2.5625 -2.578125l-1.25 -2.96875l-1.25 2.96875l2.5 0zm11.506269 -4.734375l-1.875 0l0 8.6875l1.875 0l0 1.484375l-3.359375 0l0 -11.65625l3.359375 0l0 1.484375zm9.646896 4.015625q0 2.390625 -0.828125 3.6875q-0.8125 1.28125 -2.390625 1.28125q-1.5625 0 -2.40625 -1.296875q-0.828125 -1.3125 -0.828125 -3.671875q0 -2.421875 0.84375 -3.71875q0.84375 -1.296875 2.421875 -1.296875q1.640625 0 2.40625 1.34375q0.78125 1.34375 0.78125 3.671875zm-3.1875 3.5q0.859375 0 1.296875 -0.90625q0.4375 -0.90625 0.4375 -2.5625q0 -1.75 -0.453125 -2.65625q-0.4375 -0.90625 -1.328125 -0.90625q-0.859375 0 -1.296875 0.90625q-0.4375 0.90625 -0.4375 2.625q0 3.5 1.78125 3.5zm9.7719 2.65625l-3.40625 0l0 -1.484375l1.90625 0l0 -8.6875l-1.90625 0l0 -1.484375l3.40625 0l0 11.65625z" fill-rule="nonzero"/><path fill="#d9d2e9" d="m63.56292 137.60367l47.937004 0l0 24.0l-47.937004 0z" fill-rule="evenodd"/><path stroke="#000000" stroke-width="2.0" stroke-linejoin="round" stroke-linecap="butt" d="m63.56292 137.60367l47.937004 0l0 24.0l-47.937004 0z" fill-rule="evenodd"/><path fill="#000000" d="m76.97201 153.9793l0.890625 0l0 1.484375l-3.71875 0l0 -1.484375l1.328125 0l-0.46875 -1.09375l-3.71875 0l-0.453125 1.09375l1.375 0l0 1.484375l-3.8125 0l0 -1.484375l0.953125 0l2.59375 -6.171875l-1.96875 0l0 -1.5l3.859375 0l3.140625 7.671875zm-2.5625 -2.578125l-1.25 -2.96875l-1.25 2.96875l2.5 0zm11.506271 -4.734375l-1.875 0l0 8.6875l1.875 0l0 1.484375l-3.359375 0l0 -11.65625l3.359375 0l0 1.484375zm10.084396 7.3125l0 1.484375l-6.96875 0l0 -1.484375l2.765625 0l0 -6.59375l-2.703125 0.546875l0 -1.453125l4.203125 -0.859375l0 8.359375l2.703125 0zm6.1468964 2.859375l-3.40625 0l0 -1.484375l1.90625 0l0 -8.6875l-1.90625 0l0 -1.484375l3.40625 0l0 11.65625z" fill-rule="nonzero"/><path fill="#d9d2e9" d="m111.51035 137.60367l47.937004 0l0 24.0l-47.937004 0z" fill-rule="evenodd"/><path stroke="#000000" stroke-width="2.0" stroke-linejoin="round" stroke-linecap="butt" d="m111.51035 137.60367l47.937004 0l0 24.0l-47.937004 0z" fill-rule="evenodd"/><path fill="#000000" d="m124.91943 153.9793l0.890625 0l0 1.484375l-3.71875 0l0 -1.484375l1.328125 0l-0.46875 -1.09375l-3.71875 0l-0.453125 1.09375l1.375 0l0 1.484375l-3.8125 0l0 -1.484375l0.953125 0l2.59375 -6.171875l-1.96875 0l0 -1.5l3.859375 0l3.140625 7.671875zm-2.5625 -2.578125l-1.25 -2.96875l-1.25 2.96875l2.5 0zm11.506271 -4.734375l-1.875 0l0 8.6875l1.875 0l0 1.484375l-3.359375 0l0 -11.65625l3.359375 0l0 1.484375zm9.334396 1.953125q0 0.78125 -0.25 1.328125q-0.25 0.546875 -0.8125 1.109375q-0.546875 0.546875 -1.90625 1.78125l-1.234375 1.125l2.78125 0l0 -1.0625l1.421875 0l0 2.5625l-6.5625 0l0 -1.25l4.203125 -3.71875q0.421875 -0.375 0.671875 -0.8125q0.265625 -0.4375 0.265625 -0.921875q0 -0.71875 -0.515625 -1.15625q-0.5 -0.453125 -1.25 -0.453125q-0.59375 0 -1.109375 0.28125q-0.5 0.28125 -0.5 0.859375l0 0.28125l-1.46875 0l0 -1.40625q0.609375 -0.75 1.390625 -1.125q0.796875 -0.390625 1.71875 -0.390625q0.859375 0 1.578125 0.375q0.71875 0.359375 1.140625 1.03125q0.4375 0.671875 0.4375 1.5625zm6.8968964 8.21875l-3.40625 0l0 -1.484375l1.90625 0l0 -8.6875l-1.90625 0l0 -1.484375l3.40625 0l0 11.65625z" fill-rule="nonzero"/><path fill="#d9d2e9" d="m159.45778 137.60367l47.93701 0l0 24.0l-47.93701 0z" fill-rule="evenodd"/><path stroke="#000000" stroke-width="2.0" stroke-linejoin="round" stroke-linecap="butt" d="m159.45778 137.60367l47.93701 0l0 24.0l-47.93701 0z" fill-rule="evenodd"/><path fill="#000000" d="m172.86687 153.9793l0.890625 0l0 1.484375l-3.71875 0l0 -1.484375l1.328125 0l-0.46875 -1.09375l-3.71875 0l-0.453125 1.09375l1.375 0l0 1.484375l-3.8125 0l0 -1.484375l0.953125 0l2.59375 -6.171875l-1.96875 0l0 -1.5l3.859375 0l3.140625 7.671875zm-2.5625 -2.578125l-1.25 -2.96875l-1.25 2.96875l2.5 0zm11.506271 -4.734375l-1.875 0l0 8.6875l1.875 0l0 1.484375l-3.359375 0l0 -11.65625l3.359375 0l0 1.484375zm8.881271 1.578125q0 0.640625 -0.21875 1.140625q-0.21875 0.484375 -0.75 0.9375q0.8125 0.53125 1.109375 1.0625q0.3125 0.53125 0.3125 1.3125q0 0.921875 -0.453125 1.59375q-0.453125 0.671875 -1.203125 1.015625q-0.734375 0.34375 -1.578125 0.34375q-0.75 0 -1.359375 -0.15625q-0.59375 -0.140625 -2.015625 -0.71875l0.53125 -1.25q1.3125 0.46875 1.71875 0.5625q0.40625 0.09375 0.9375 0.09375q0.859375 0 1.40625 -0.421875q0.546875 -0.4375 0.546875 -1.125q0 -0.6875 -0.5 -1.046875q-0.5 -0.375 -1.390625 -0.375l-0.8125 0l0 -1.484375l0.21875 0q2.03125 0 2.03125 -1.328125q0 -0.5625 -0.421875 -0.890625q-0.421875 -0.34375 -1.0625 -0.34375q-0.484375 0 -1.0 0.1875q-0.5 0.1875 -1.25 0.625l-0.71875 -1.15625q0.9375 -0.640625 1.609375 -0.890625q0.671875 -0.265625 1.34375 -0.265625q0.78125 0 1.453125 0.3125q0.6875 0.296875 1.09375 0.890625q0.421875 0.578125 0.421875 1.375zm7.3500214 8.59375l-3.40625 0l0 -1.484375l1.90625 0l0 -8.6875l-1.90625 0l0 -1.484375l3.40625 0l0 11.65625z" fill-rule="nonzero"/><path fill="#d9d9d9" d="m24.103674 86.08924l31.561739 0l0 23.038315l-15.780869 5.7595825l-15.78087 -5.7595825z" fill-rule="evenodd"/><path stroke="#000000" stroke-width="2.0" stroke-linejoin="round" stroke-linecap="butt" d="m24.103674 86.08924l31.561739 0l0 23.038315l-15.780869 5.7595825l-15.78087 -5.7595825z" fill-rule="evenodd"/><path fill="#000000" d="m33.468887 94.671524l-1.8750019 0l0 8.6875l1.8750019 0l0 1.484375l-3.359377 0l0 -11.65625l3.359377 0l0 1.484375zm9.646896 4.015625q0 2.390625 -0.828125 3.6875q-0.8125 1.28125 -2.390625 1.28125q-1.5625 0 -2.40625 -1.296875q-0.828125 -1.3125 -0.828125 -3.671875q0 -2.421875 0.84375 -3.71875q0.84375 -1.296875 2.421875 -1.296875q1.640625 0 2.40625 1.34375q0.78125 1.34375 0.78125 3.671875zm-3.1875 3.5q0.859375 0 1.296875 -0.90625q0.4375 -0.90625 0.4375 -2.5625q0 -1.75 -0.453125 -2.65625q-0.4375 -0.90625 -1.328125 -0.90625q-0.859375 0 -1.296875 0.90625q-0.4375 0.90625 -0.4375 2.625q0 3.5 1.78125 3.5zm9.771896 2.65625l-3.40625 0l0 -1.484375l1.90625 0l0 -8.6875l-1.90625 0l0 -1.484375l3.40625 0l0 11.65625z" fill-rule="nonzero"/><path fill="#000000" fill-opacity="0.0" d="m111.34777 55.91601c0 7.5433044 -17.866142 11.3149605 -35.732285 15.086613c-17.866142 3.7716522 -35.732285 7.5433044 -35.732285 15.0866165" fill-rule="evenodd"/><path stroke="#000000" stroke-width="2.0" stroke-linejoin="round" stroke-linecap="butt" d="m111.34777 55.91601c0 7.5433044 -17.866142 11.3149605 -35.732285 15.086613c-8.933075 1.8858261 -17.866142 3.7716522 -24.565945 6.128937c-0.41873932 0.14733124 -0.8287506 0.29650116 -1.229496 0.44763184c-0.20037079 0.07556152 -0.3984337 0.15161896 -0.59409714 0.2281723l-0.48016357 0.19146729" fill-rule="evenodd"/><path fill="#000000" stroke="#000000" stroke-width="2.0" stroke-linecap="butt" d="m46.51859 75.55907l-4.476013 8.558945l8.930405 -3.6794052z" fill-rule="evenodd"/><path fill="#d9d9d9" d="m72.05081 86.08924l31.561737 0l0 23.038315l-15.780869 5.7595825l-15.780869 -5.7595825z" fill-rule="evenodd"/><path stroke="#000000" stroke-width="2.0" stroke-linejoin="round" stroke-linecap="butt" d="m72.05081 86.08924l31.561737 0l0 23.038315l-15.780869 5.7595825l-15.780869 -5.7595825z" fill-rule="evenodd"/><path fill="#000000" d="m81.41602 94.671524l-1.875 0l0 8.6875l1.875 0l0 1.484375l-3.359375 0l0 -11.65625l3.359375 0l0 1.484375zm10.084396 7.3125l0 1.484375l-6.96875 0l0 -1.484375l2.765625 0l0 -6.59375l-2.703125 0.546875l0 -1.453125l4.203125 -0.859375l0 8.359375l2.703125 0zm6.1468964 2.859375l-3.40625 0l0 -1.484375l1.90625 0l0 -8.6875l-1.90625 0l0 -1.484375l3.40625 0l0 11.65625z" fill-rule="nonzero"/><path fill="#000000" fill-opacity="0.0" d="m111.34777 55.91601c0 7.5433044 -5.8818893 11.3149605 -11.763779 15.086613c-5.8818893 3.7716522 -11.763779 7.5433044 -11.763779 15.0866165" fill-rule="evenodd"/><path stroke="#000000" stroke-width="2.0" stroke-linejoin="round" stroke-linecap="butt" d="m111.34777 55.91601c0 7.5433044 -5.8818893 11.3149605 -11.763779 15.086613c-1.4704742 0.94291687 -2.9409485 1.8858261 -4.319519 2.8876724c-0.344635 0.25045776 -0.68354034 0.5046005 -1.0152512 0.76335144c-0.16585541 0.12937164 -0.32993317 0.25990295 -0.49201202 0.39169312l-0.44824982 0.3727417" fill-rule="evenodd"/><path fill="#000000" stroke="#000000" stroke-width="2.0" stroke-linecap="butt" d="m90.371315 73.90709l-1.213768 9.582115l7.0890656 -6.5601273z" fill-rule="evenodd"/><path fill="#d9d9d9" d="m119.99927 86.08924l31.561737 0l0 23.038315l-15.780869 5.7595825l-15.780869 -5.7595825z" fill-rule="evenodd"/><path stroke="#000000" stroke-width="2.0" stroke-linejoin="round" stroke-linecap="butt" d="m119.99927 86.08924l31.561737 0l0 23.038315l-15.780869 5.7595825l-15.780869 -5.7595825z" fill-rule="evenodd"/><path fill="#000000" d="m129.36447 94.671524l-1.8749924 0l0 8.6875l1.8749924 0l0 1.484375l-3.3593674 0l0 -11.65625l3.3593674 0l0 1.484375zm9.334396 1.953125q0 0.78125 -0.25 1.328125q-0.25 0.546875 -0.8125 1.109375q-0.546875 0.546875 -1.90625 1.78125l-1.234375 1.125l2.78125 0l0 -1.0625l1.421875 0l0 2.5625l-6.5625 0l0 -1.25l4.203125 -3.71875q0.421875 -0.375 0.671875 -0.8125q0.265625 -0.4375 0.265625 -0.921875q0 -0.71875 -0.515625 -1.15625q-0.5 -0.453125 -1.25 -0.453125q-0.59375 0 -1.109375 0.28125q-0.5 0.28125 -0.5 0.859375l0 0.28125l-1.46875 0l0 -1.40625q0.609375 -0.75 1.390625 -1.125q0.796875 -0.390625 1.71875 -0.390625q0.859375 0 1.578125 0.375q0.71875 0.359375 1.140625 1.03125q0.4375 0.671875 0.4375 1.5625zm6.8968964 8.21875l-3.40625 0l0 -1.484375l1.90625 0l0 -8.6875l-1.90625 0l0 -1.484375l3.40625 0l0 11.65625z" fill-rule="nonzero"/><path fill="#000000" fill-opacity="0.0" d="m111.34777 55.91601c0 7.5433044 6.110237 11.3149605 12.220474 15.086613c6.110237 3.7716522 12.220467 7.5433044 12.220467 15.0866165" fill-rule="evenodd"/><path stroke="#000000" stroke-width="2.0" stroke-linejoin="round" stroke-linecap="butt" d="m111.34777 55.91601c0 7.5433044 6.110237 11.3149605 12.220474 15.086613c1.5275574 0.94291687 3.0551147 1.8858261 4.4872055 2.8876724c0.71603394 0.50092316 1.4082184 1.0165787 2.0645905 1.5543365l0.049865723 0.04135132" fill-rule="evenodd"/><path fill="#000000" stroke="#000000" stroke-width="2.0" stroke-linecap="butt" d="m127.250946 77.03278l7.168747 6.472969l-1.3308258 -9.566559z" fill-rule="evenodd"/><path fill="#d9d9d9" d="m167.94745 86.08924l31.561737 0l0 23.038315l-15.780869 5.7595825l-15.780869 -5.7595825z" fill-rule="evenodd"/><path stroke="#000000" stroke-width="2.0" stroke-linejoin="round" stroke-linecap="butt" d="m167.94745 86.08924l31.561737 0l0 23.038315l-15.780869 5.7595825l-15.780869 -5.7595825z" fill-rule="evenodd"/><path fill="#000000" d="m177.31267 94.671524l-1.875 0l0 8.6875l1.875 0l0 1.484375l-3.359375 0l0 -11.65625l3.359375 0l0 1.484375zm8.881271 1.578125q0 0.640625 -0.21875 1.140625q-0.21875 0.484375 -0.75 0.9375q0.8125 0.53125 1.109375 1.0625q0.3125 0.53125 0.3125 1.3125q0 0.921875 -0.453125 1.59375q-0.453125 0.671875 -1.203125 1.015625q-0.734375 0.34375 -1.578125 0.34375q-0.75 0 -1.359375 -0.15625q-0.59375 -0.140625 -2.015625 -0.71875l0.53125 -1.25q1.3125 0.46875 1.71875 0.5625q0.40625 0.09375 0.9375 0.09375q0.859375 0 1.40625 -0.421875q0.546875 -0.4375 0.546875 -1.125q0 -0.6875 -0.5 -1.046875q-0.5 -0.375 -1.390625 -0.375l-0.8125 0l0 -1.484375l0.21875 0q2.03125 0 2.03125 -1.328125q0 -0.5625 -0.421875 -0.890625q-0.421875 -0.34375 -1.0625 -0.34375q-0.484375 0 -1.0 0.1875q-0.5 0.1875 -1.25 0.625l-0.71875 -1.15625q0.9375 -0.640625 1.609375 -0.890625q0.671875 -0.265625 1.34375 -0.265625q0.78125 0 1.453125 0.3125q0.6875 0.296875 1.09375 0.890625q0.421875 0.578125 0.421875 1.375zm7.3500214 8.59375l-3.40625 0l0 -1.484375l1.90625 0l0 -8.6875l-1.90625 0l0 -1.484375l3.40625 0l0 11.65625z" fill-rule="nonzero"/><path fill="#000000" fill-opacity="0.0" d="m111.34777 55.91601c0 7.5433044 18.09449 11.3149605 36.188972 15.086613c18.094498 3.7716522 36.18898 7.5433044 36.18898 15.0866165" fill-rule="evenodd"/><path stroke="#000000" stroke-width="2.0" stroke-linejoin="round" stroke-linecap="butt" d="m111.34777 55.91601c0 7.5433044 18.09449 11.3149605 36.188972 15.086613c9.047241 1.8858261 18.094498 3.7716522 24.879929 6.128937c0.42408752 0.14733124 0.8393402 0.29650116 1.2451935 0.44763184c0.2029419 0.07556152 0.40351868 0.15161896 0.6017151 0.2281723l0.5696869 0.22431183" fill-rule="evenodd"/><path fill="#000000" stroke="#000000" stroke-width="2.0" stroke-linecap="butt" d="m172.61511 80.47967l8.943954 3.6463394l-4.5076447 -8.54232z" fill-rule="evenodd"/><path fill="#000000" fill-opacity="0.0" d="m39.884544 114.88714l-0.31496048 22.708656" fill-rule="evenodd"/><path stroke="#000000" stroke-width="2.0" stroke-linejoin="round" stroke-linecap="butt" d="m39.884544 114.88714l-0.1485405 10.709824" fill-rule="evenodd"/><path fill="#000000" stroke="#000000" stroke-width="2.0" stroke-linecap="butt" d="m36.432854 125.55114l3.1772766 9.121132l3.42902 -9.029503z" fill-rule="evenodd"/><path fill="#000000" fill-opacity="0.0" d="m87.83168 114.88714l-0.31495667 22.708656" fill-rule="evenodd"/><path stroke="#000000" stroke-width="2.0" stroke-linejoin="round" stroke-linecap="butt" d="m87.83168 114.88714l-0.14853668 10.709824" fill-rule="evenodd"/><path fill="#000000" stroke="#000000" stroke-width="2.0" stroke-linecap="butt" d="m84.38 125.55114l3.1772766 9.121132l3.429016 -9.029503z" fill-rule="evenodd"/><path fill="#000000" fill-opacity="0.0" d="m135.78014 114.88714l-0.31495667 22.708656" fill-rule="evenodd"/><path stroke="#000000" stroke-width="2.0" stroke-linejoin="round" stroke-linecap="butt" d="m135.78014 114.88714l-0.14854431 10.709824" fill-rule="evenodd"/><path fill="#000000" stroke="#000000" stroke-width="2.0" stroke-linecap="butt" d="m132.32845 125.55114l3.1772766 9.121132l3.429016 -9.029503z" fill-rule="evenodd"/><path fill="#000000" fill-opacity="0.0" d="m183.72832 114.88714l-0.31495667 22.708656" fill-rule="evenodd"/><path stroke="#000000" stroke-width="2.0" stroke-linejoin="round" stroke-linecap="butt" d="m183.72833 114.88714l-0.14854431 10.709824" fill-rule="evenodd"/><path fill="#000000" stroke="#000000" stroke-width="2.0" stroke-linecap="butt" d="m180.27664 125.55114l3.1772766 9.121132l3.429016 -9.029503z" fill-rule="evenodd"/></g></svg>