<svg version="1.1" viewBox="0.0 0.0 452.29133858267716 258.7795275590551" fill="none" stroke="none" stroke-linecap="square" stroke-miterlimit="10" xmlns:xlink="http://www.w3.org/1999/xlink" xmlns="http://www.w3.org/2000/svg"><clipPath id="p.0"><path d="m0 0l452.29135 0l0 258.77954l-452.29135 0l0 -258.77954z" clip-rule="nonzero"/></clipPath><g clip-path="url(#p.0)"><path fill="#000000" fill-opacity="0.0" d="m0 0l452.29135 0l0 258.77954l-452.29135 0z" fill-rule="evenodd"/><path fill="#ffffff" d="m0 0l452.28348 0l0 258.77167l-452.28348 0z" fill-rule="evenodd"/><path stroke="#000000" stroke-width="1.0" stroke-linejoin="round" stroke-linecap="butt" d="m0 0l452.28348 0l0 258.77167l-452.28348 0z" fill-rule="evenodd"/><path fill="#d9d9d9" d="m124.99213 200.99475l202.86615 0l0 51.2126l-202.86615 0z" fill-rule="evenodd"/><path stroke="#000000" stroke-width="2.0" stroke-linejoin="round" stroke-linecap="butt" d="m124.99213 200.99475l202.86615 0l0 51.2126l-202.86615 0z" fill-rule="evenodd"/><path fill="#000000" d="m203.40642 242.81485q0 1.765625 -0.71875 3.015625q-0.703125 1.25 -1.84375 1.890625q-1.140625 0.625 -2.359375 0.625q-1.34375 0 -2.484375 -0.65625q-1.140625 -0.65625 -1.8125 -1.90625q-0.671875 -1.25 -0.671875 -2.9375q0 -1.53125 0.625 -2.8125q0.640625 -1.296875 1.765625 -2.03125q1.140625 -0.75 2.578125 -0.75q1.453125 0 2.578125 0.765625q1.125 0.765625 1.734375 2.03125q0.609375 1.265625 0.609375 2.765625zm-4.921875 3.84375q1.0 0 1.71875 -0.546875q0.734375 -0.5625 1.109375 -1.46875q0.390625 -0.90625 0.390625 -1.90625q0 -0.9375 -0.390625 -1.796875q-0.375 -0.875 -1.109375 -1.40625q-0.734375 -0.546875 -1.75 -0.546875q-0.90625 0 -1.640625 0.53125q-0.734375 0.53125 -1.140625 1.40625q-0.40625 0.859375 -0.40625 1.875q0 1.03125 0.390625 1.921875q0.390625 0.890625 1.125 1.421875q0.75 0.515625 1.703125 0.515625zm10.818756 -7.46875l-1.71875 0l0 5.34375q0 1.109375 0.53125 1.59375q0.53125 0.484375 1.65625 0.484375q1.25 0 1.765625 -0.546875q0.515625 -0.546875 0.515625 -1.859375l0 -5.015625l-1.75 0l0 -1.734375l4.890625 0l0 1.734375l-1.421875 0l0 5.40625q0 0.921875 -0.28125 1.671875q-0.28125 0.734375 -0.796875 1.1875q-0.515625 0.453125 -1.359375 0.671875q-0.828125 0.21875 -1.546875 0.21875q-1.0625 0 -1.78125 -0.25q-0.703125 -0.25 -1.21875 -0.765625q-0.921875 -0.859375 -0.921875 -2.9375l0 -5.203125l-1.453125 0l0 -1.734375l4.890625 0l0 1.734375zm16.428131 2.328125l-1.734375 0l0 -2.328125l-2.265625 0l0 7.203125l2.25 0l0 1.734375l-6.234375 0l0 -1.734375l2.234375 0l0 -7.203125l-2.265625 0l0 2.328125l-1.734375 0l0 -4.0625l9.75 0l0 4.0625zm10.865631 -0.46875q0 1.0 -0.484375 1.78125q-0.46875 0.78125 -1.296875 1.21875q-0.828125 0.4375 -1.828125 0.4375l-2.25 0l0 1.90625l2.265625 0l0 1.734375l-5.453125 0l0 -1.734375l1.46875 0l0 -7.203125l-1.453125 0l0 -1.734375l4.921875 0q1.9375 0 3.015625 0.953125q1.09375 0.953125 1.09375 2.640625zm-1.71875 -0.046875q0 -0.828125 -0.609375 -1.3125q-0.609375 -0.5 -1.78125 -0.5l-1.75 0l0 3.5625l1.9375 0q2.203125 0 2.203125 -1.75zm8.006256 -1.8125l-1.71875 0l0 5.34375q0 1.109375 0.53125 1.59375q0.53125 0.484375 1.65625 0.484375q1.25 0 1.765625 -0.546875q0.515625 -0.546875 0.515625 -1.859375l0 -5.015625l-1.75 0l0 -1.734375l4.890625 0l0 1.734375l-1.421875 0l0 5.40625q0 0.921875 -0.28125 1.671875q-0.28125 0.734375 -0.796875 1.1875q-0.515625 0.453125 -1.359375 0.671875q-0.828125 0.21875 -1.546875 0.21875q-1.0625 0 -1.78125 -0.25q-0.703125 -0.25 -1.21875 -0.765625q-0.921875 -0.859375 -0.921875 -2.9375l0 -5.203125l-1.453125 0l0 -1.734375l4.890625 0l0 1.734375zm16.428146 2.328125l-1.734375 0l0 -2.328125l-2.265625 0l0 7.203125l2.25 0l0 1.734375l-6.2343903 0l0 -1.734375l2.2343903 0l0 -7.203125l-2.2656403 0l0 2.328125l-1.734375 0l0 -4.0625l9.750015 0l0 4.0625z" fill-rule="nonzero"/><path fill="#d9d9d9" d="m241.7559 6.5721784l202.86613 0l0 76.40945l-202.86613 0z" fill-rule="evenodd"/><path stroke="#000000" stroke-width="2.0" stroke-linejoin="round" stroke-linecap="butt" d="m241.7559 6.5721784l202.86613 0l0 76.40945l-202.86613 0z" fill-rule="evenodd"/><path fill="#000000" d="m258.21704 15.554677l-1.4375 0l2.609375 6.687499l2.53125 -6.687499l-1.671875 0l0 -1.734375l4.609375 0l0 1.734375l-1.25 0l-3.390625 8.937499l-1.734375 0l-3.4843597 -8.937499l-1.375 0l0 -1.734375l4.5937347 0l0 1.734375zm16.693756 7.203124l1.046875 0l0 1.734375l-4.359375 0l0 -1.734375l1.5625 0l-0.546875 -1.265625l-4.328125 0l-0.546875 1.265625l1.609375 0l0 1.734375l-4.4375 0l0 -1.734375l1.09375 0l3.046875 -7.203124l-2.296875 0l0 -1.734375l4.5 0l3.65625 8.937499zm-2.984375 -3.0l-1.453125 -3.453125l-1.46875 3.453125l2.921875 0zm10.771881 -4.203124l-2.234375 0l0 7.203124l4.234375 0l0 -3.28125l1.734375 0l0 5.015625l-9.453125 0l0 -1.734375l1.765625 0l0 -7.203124l-1.765625 0l0 -1.734375l5.71875 0l0 1.734375zm9.787506 0l-1.71875 0l0 5.343749q0 1.109375 0.53125 1.59375q0.53125 0.484375 1.65625 0.484375q1.25 0 1.765625 -0.546875q0.515625 -0.546875 0.515625 -1.859375l0 -5.015624l-1.75 0l0 -1.734375l4.890625 0l0 1.734375l-1.421875 0l0 5.406249q0 0.921875 -0.28125 1.671875q-0.28125 0.734375 -0.796875 1.1875q-0.515625 0.453125 -1.359375 0.671875q-0.828125 0.21875 -1.546875 0.21875q-1.0625 0 -1.78125 -0.25q-0.703125 -0.25 -1.21875 -0.765625q-0.921875 -0.859375 -0.921875 -2.9375l0 -5.203124l-1.453125 0l0 -1.734375l4.890625 0l0 1.734375zm16.209381 2.218749l-1.734375 0l0 -2.218749l-4.46875 0l0 2.656249l1.984375 0l0 -1.234375l1.734375 0l0 4.171875l-1.734375 0l0 -1.234375l-1.984375 0l0 2.84375l4.46875 0l0 -2.171875l1.734375 0l0 3.90625l-9.390625 0l0 -1.734375l1.484375 0l0 -7.203124l-1.4375 0l0 -1.734375l9.34375 0l0 3.953124zm19.934387 -3.734374l0 -0.421875l1.71875 0l0 4.015624l-1.71875 0l0 -1.796874q-1.09375 -0.5 -2.03125 -0.5q-1.015625 0 -1.703125 0.5q-0.671875 0.49999905 -0.671875 1.187499q0 0.609375 0.390625 0.921875q0.390625 0.296875 0.953125 0.40625q0.5625 0.109375 1.5625 0.203125l0.71875 0.078125q1.34375 0.171875 2.109375 0.875q0.765625 0.6875 0.765625 1.921875q0 0.984375 -0.5625 1.734375q-0.546875 0.75 -1.515625 1.171875q-0.953125 0.40625 -2.15625 0.40625q-0.65625 0 -1.25 -0.15625q-0.59375 -0.15625 -1.34375 -0.515625l0 0.671875l-1.71875 0l0 -3.90625l1.71875 0l0 1.421875q1.265625 0.765625 2.609375 0.765625q1.21875 0 1.875 -0.40625q0.65625 -0.421875 0.65625 -1.1875q0 -0.65625 -0.515625 -0.953125q-0.515625 -0.296875 -1.765625 -0.3125q-2.09375 -0.03125 -3.1875 -0.890625q-1.09375 -0.859375 -1.09375 -2.25q0 -0.875 0.515625 -1.656249q0.515625 -0.796875 1.4375 -1.265625q0.921875 -0.484375 2.109375 -0.484375q1.15625 0 2.09375 0.421875zm13.646881 3.734374l-1.734375 0l0 -2.218749l-4.46875 0l0 2.656249l1.984375 0l0 -1.234375l1.734375 0l0 4.171875l-1.734375 0l0 -1.234375l-1.984375 0l0 2.84375l4.46875 0l0 -2.171875l1.734375 0l0 3.90625l-9.390625 0l0 -1.734375l1.484375 0l0 -7.203124l-1.4375 0l0 -1.734375l9.34375 0l0 3.953124zm7.584381 -2.218749l-2.234375 0l0 7.203124l4.234375 0l0 -3.28125l1.734375 0l0 5.015625l-9.453125 0l0 -1.734375l1.765625 0l0 -7.203124l-1.765625 0l0 -1.734375l5.71875 0l0 1.734375zm14.803131 2.218749l-1.734375 0l0 -2.218749l-4.46875 0l0 2.656249l1.984375 0l0 -1.234375l1.734375 0l0 4.171875l-1.734375 0l0 -1.234375l-1.984375 0l0 2.84375l4.46875 0l0 -2.171875l1.734375 0l0 3.90625l-9.390625 0l0 -1.734375l1.484375 0l0 -7.203124l-1.4375 0l0 -1.734375l9.34375 0l0 3.953124zm9.725037 -3.374999l0 -0.78125l1.703125 0l0 4.343749l-1.703125 0l0 -1.765625q-1.390625 -0.87499905 -2.734375 -0.87499905q-0.890625 0 -1.671875 0.453125q-0.7656555 0.45312405 -1.2344055 1.312499q-0.46875 0.859375 -0.46875 2.03125q0 1.75 0.90625 2.8125q0.9062805 1.0625 2.5156555 1.0625q0.796875 0 1.671875 -0.296875q0.890625 -0.3125 1.734375 -0.90625l1.046875 1.265625q-0.796875 0.75 -2.125 1.203125q-1.328125 0.453125 -2.296875 0.453125q-2.3906555 0 -3.8594055 -1.71875q-0.625 -0.703125 -0.984375 -1.796875q-0.34375 -1.09375 -0.34375 -2.09375q0 -1.5625 0.671875 -2.8125q0.671875 -1.249999 1.828125 -1.953124q1.1562805 -0.71875 2.5937805 -0.71875q0.78125 0 1.5 0.21875q0.734375 0.203125 1.25 0.5625zm12.881256 3.484374l-1.734375 0l0 -2.328124l-2.265625 0l0 7.203124l2.25 0l0 1.734375l-6.234375 0l0 -1.734375l2.234375 0l0 -7.203124l-2.265625 0l0 2.328124l-1.734375 0l0 -4.062499l9.75 0l0 4.062499zm10.240631 -2.328124l-3.015625 0l0 7.203124l3.015625 0l0 1.734375l-7.875 0l0 -1.734375l3.078125 0l0 -7.203124l-3.078125 0l0 -1.734375l7.875 0l0 1.734375zm12.209381 3.624999q0 1.765625 -0.71875 3.015625q-0.703125 1.25 -1.84375 1.890625q-1.140625 0.625 -2.359375 0.625q-1.34375 0 -2.484375 -0.65625q-1.140625 -0.65625 -1.8125 -1.90625q-0.671875 -1.25 -0.671875 -2.9375q0 -1.53125 0.625 -2.8125q0.640625 -1.296874 1.765625 -2.031249q1.140625 -0.75 2.578125 -0.75q1.453125 0 2.578125 0.765625q1.125 0.765625 1.734375 2.031249q0.609375 1.265625 0.609375 2.765625zm-4.921875 3.84375q1.0 0 1.71875 -0.546875q0.734375 -0.5625 1.109375 -1.46875q0.390625 -0.90625 0.390625 -1.90625q0 -0.9375 -0.390625 -1.796875q-0.375 -0.875 -1.109375 -1.406249q-0.734375 -0.546875 -1.75 -0.546875q-0.90625 0 -1.640625 0.53125q-0.734375 0.53124905 -1.140625 1.406249q-0.40625 0.859375 -0.40625 1.875q0 1.03125 0.390625 1.921875q0.390625 0.890625 1.125 1.421875q0.75 0.515625 1.703125 0.515625zm13.693756 -1.796875l0 -5.671874l-1.734375 0l0 -1.734375l4.875 0l0 1.734375l-1.4375 0l0 8.937499l-1.640625 0l-4.8125 -7.609375l0 5.875l1.8125 0l0 1.734375l-4.9375 0l0 -1.734375l1.40625 0l0 -7.203124l-1.40625 0l0 -1.734375l3.328125 0l4.546875 7.406249zm10.881256 -7.187499l0 -0.421875l1.71875 0l0 4.015624l-1.71875 0l0 -1.796874q-1.09375 -0.5 -2.03125 -0.5q-1.015625 0 -1.703125 0.5q-0.671875 0.49999905 -0.671875 1.187499q0 0.609375 0.390625 0.921875q0.390625 0.296875 0.953125 0.40625q0.5625 0.109375 1.5625 0.203125l0.71875 0.078125q1.34375 0.171875 2.109375 0.875q0.765625 0.6875 0.765625 1.921875q0 0.984375 -0.5625 1.734375q-0.546875 0.75 -1.515625 1.171875q-0.953125 0.40625 -2.15625 0.40625q-0.65625 0 -1.25 -0.15625q-0.59375 -0.15625 -1.34375 -0.515625l0 0.671875l-1.71875 0l0 -3.90625l1.71875 0l0 1.421875q1.265625 0.765625 2.609375 0.765625q1.21875 0 1.875 -0.40625q0.65625 -0.421875 0.65625 -1.1875q0 -0.65625 -0.515625 -0.953125q-0.515625 -0.296875 -1.765625 -0.3125q-2.09375 -0.03125 -3.1875 -0.890625q-1.09375 -0.859375 -1.09375 -2.25q0 -0.875 0.515625 -1.656249q0.515625 -0.796875 1.4375 -1.265625q0.921875 -0.484375 2.109375 -0.484375q1.15625 0 2.09375 0.421875z" fill-rule="nonzero"/><path fill="#d9d9d9" d="m7.6692915 6.5721784l202.86613 0l0 51.2126l-202.86613 0z" fill-rule="evenodd"/><path stroke="#000000" stroke-width="2.0" stroke-linejoin="round" stroke-linecap="butt" d="m7.6692915 6.5721784l202.86613 0l0 51.2126l-202.86613 0z" fill-rule="evenodd"/><path fill="#000000" d="m80.09921 15.554677l-1.4375 0l2.609375 6.687499l2.53125 -6.687499l-1.671875 0l0 -1.734375l4.609375 0l0 1.734375l-1.25 0l-3.390625 8.937499l-1.734375 0l-3.484375 -8.937499l-1.375 0l0 -1.734375l4.59375 0l0 1.734375zm16.693756 7.203124l1.046875 0l0 1.734375l-4.359375 0l0 -1.734375l1.5625 0l-0.546875 -1.265625l-4.328125 0l-0.546875 1.265625l1.609375 0l0 1.734375l-4.4375 0l0 -1.734375l1.09375 0l3.046875 -7.203124l-2.296875 0l0 -1.734375l4.5 0l3.65625 8.937499zm-2.984375 -3.0l-1.453125 -3.453125l-1.46875 3.453125l2.921875 0zm10.771881 -4.203124l-2.234375 0l0 7.203124l4.234375 0l0 -3.28125l1.734375 0l0 5.015625l-9.453125 0l0 -1.734375l1.765625 0l0 -7.203124l-1.765625 0l0 -1.734375l5.71875 0l0 1.734375zm9.787506 0l-1.71875 0l0 5.343749q0 1.109375 0.53125 1.59375q0.53125 0.484375 1.65625 0.484375q1.25 0 1.765625 -0.546875q0.515625 -0.546875 0.515625 -1.859375l0 -5.015624l-1.75 0l0 -1.734375l4.890625 0l0 1.734375l-1.421875 0l0 5.406249q0 0.921875 -0.28125 1.671875q-0.28125 0.734375 -0.796875 1.1875q-0.515625 0.453125 -1.359375 0.671875q-0.828125 0.21875 -1.546875 0.21875q-1.0625 0 -1.78125 -0.25q-0.703125 -0.25 -1.21875 -0.765625q-0.921875 -0.859375 -0.921875 -2.9375l0 -5.203124l-1.453125 0l0 -1.734375l4.890625 0l0 1.734375zm16.209381 2.218749l-1.734375 0l0 -2.218749l-4.46875 0l0 2.656249l1.984375 0l0 -1.234375l1.734375 0l0 4.171875l-1.734375 0l0 -1.234375l-1.984375 0l0 2.84375l4.46875 0l0 -2.171875l1.734375 0l0 3.90625l-9.390625 0l0 -1.734375l1.484375 0l0 -7.203124l-1.4375 0l0 -1.734375l9.34375 0l0 3.953124zm8.740646 -3.734374l0 -0.421875l1.71875 0l0 4.015624l-1.71875 0l0 -1.796874q-1.09375 -0.5 -2.03125 -0.5q-1.015625 0 -1.7031403 0.5q-0.671875 0.49999905 -0.671875 1.187499q0 0.609375 0.390625 0.921875q0.39064026 0.296875 0.95314026 0.40625q0.5625 0.109375 1.5625 0.203125l0.71875 0.078125q1.34375 0.171875 2.109375 0.875q0.765625 0.6875 0.765625 1.921875q0 0.984375 -0.5625 1.734375q-0.546875 0.75 -1.515625 1.171875q-0.953125 0.40625 -2.15625 0.40625q-0.65625 0 -1.25 -0.15625q-0.59376526 -0.15625 -1.3437653 -0.515625l0 0.671875l-1.71875 0l0 -3.90625l1.71875 0l0 1.421875q1.2656403 0.765625 2.6093903 0.765625q1.21875 0 1.875 -0.40625q0.65625 -0.421875 0.65625 -1.1875q0 -0.65625 -0.515625 -0.953125q-0.515625 -0.296875 -1.765625 -0.3125q-2.0937653 -0.03125 -3.1875153 -0.890625q-1.09375 -0.859375 -1.09375 -2.25q0 -0.875 0.515625 -1.656249q0.515625 -0.796875 1.4375 -1.265625q0.92189026 -0.484375 2.1093903 -0.484375q1.15625 0 2.09375 0.421875z" fill-rule="nonzero"/><path fill="#d9d2e9" d="m12.753281 28.986877l47.937008 0l0 24.0l-47.937008 0z" fill-rule="evenodd"/><path stroke="#000000" stroke-width="2.0" stroke-linejoin="round" stroke-linecap="butt" d="m12.753281 28.986877l47.937008 0l0 24.0l-47.937008 0z" fill-rule="evenodd"/><path fill="#000000" d="m41.203033 46.1725l1.046875 0l0 1.734375l-4.359375 0l0 -1.734375l1.5625 0l-0.546875 -1.265625l-4.328125 0l-0.546875 1.265625l1.609375 0l0 1.734375l-4.437502 0l0 -1.734375l1.0937519 0l3.046875 -7.203125l-2.296875 0l0 -1.734375l4.5 0l3.65625 8.9375zm-2.984375 -3.0l-1.453125 -3.453125l-1.46875 3.453125l2.921875 0z" fill-rule="nonzero"/><path fill="#d9d2e9" d="m60.700714 28.986877l47.937004 0l0 24.0l-47.937004 0z" fill-rule="evenodd"/><path stroke="#000000" stroke-width="2.0" stroke-linejoin="round" stroke-linecap="butt" d="m60.700714 28.986877l47.937004 0l0 24.0l-47.937004 0z" fill-rule="evenodd"/><path fill="#000000" d="m88.79109 40.14125q0 0.640625 -0.28125 1.203125q-0.265625 0.5625 -0.78125 0.96875q0.984375 0.5625 1.34375 1.1875q0.359375 0.625 0.359375 1.390625q0 0.875 -0.46875 1.5625q-0.453125 0.6875 -1.234375 1.078125q-0.78125 0.375 -1.765625 0.375l-6.21875 0l0 -1.734375l1.453125 0l0 -7.203125l-1.453125 0l0 -1.734375l5.5 0q1.609375 0 2.578125 0.8125q0.96875 0.8125 0.96875 2.09375zm-1.703125 0.0625q0 -0.546875 -0.453125 -0.890625q-0.453125 -0.34375 -1.1875 -0.34375l-2.53125 0l0 2.5625l2.421875 0q0.71875 0 1.234375 -0.34375q0.515625 -0.359375 0.515625 -0.984375zm0.625 4.5625q0 -0.734375 -0.65625 -1.109375q-0.65625 -0.390625 -1.890625 -0.390625l-2.25 0l0 2.90625l3.09375 0q0.671875 0 1.1875 -0.375q0.515625 -0.375 0.515625 -1.03125z" fill-rule="nonzero"/><path fill="#d9d2e9" d="m108.64815 28.986877l47.93701 0l0 24.0l-47.93701 0z" fill-rule="evenodd"/><path stroke="#000000" stroke-width="2.0" stroke-linejoin="round" stroke-linecap="butt" d="m108.64815 28.986877l47.93701 0l0 24.0l-47.93701 0z" fill-rule="evenodd"/><path fill="#000000" d="m135.83228 37.813126l0 -0.78125l1.703125 0l0 4.34375l-1.703125 0l0 -1.765625q-1.390625 -0.875 -2.734375 -0.875q-0.890625 0 -1.671875 0.453125q-0.765625 0.453125 -1.234375 1.3125q-0.46875 0.859375 -0.46875 2.03125q0 1.75 0.90625 2.8125q0.90625 1.0625 2.515625 1.0625q0.796875 0 1.671875 -0.296875q0.890625 -0.3125 1.734375 -0.90625l1.046875 1.265625q-0.796875 0.75 -2.125 1.203125q-1.328125 0.453125 -2.296875 0.453125q-2.390625 0 -3.859375 -1.71875q-0.625 -0.703125 -0.984375 -1.796875q-0.34375763 -1.09375 -0.34375763 -2.09375q0 -1.5625 0.6718826 -2.8125q0.671875 -1.25 1.828125 -1.953125q1.15625 -0.71875 2.59375 -0.71875q0.78125 0 1.5 0.21875q0.734375 0.203125 1.25 0.5625z" fill-rule="nonzero"/><path fill="#d9d2e9" d="m156.59558 28.986877l47.93701 0l0 24.0l-47.93701 0z" fill-rule="evenodd"/><path stroke="#000000" stroke-width="2.0" stroke-linejoin="round" stroke-linecap="butt" d="m156.59558 28.986877l47.93701 0l0 24.0l-47.93701 0z" fill-rule="evenodd"/><path fill="#000000" d="m185.46721 42.36q0 2.75 -1.34375 4.15625q-1.34375 1.390625 -3.78125 1.390625l-4.890625 0l0 -1.734375l1.46875 0l0 -7.203125l-1.46875 0l0 -1.734375l5.375 0q1.484375 0 2.53125 0.671875q1.046875 0.65625 1.578125 1.8125q0.53125 1.15625 0.53125 2.640625zm-1.71875 0.078125q0 -1.65625 -0.78125 -2.5625q-0.78125 -0.90625 -2.140625 -0.90625l-2.1875 0l0 7.203125l2.0625 0q1.265625 0 2.15625 -0.875q0.890625 -0.875 0.890625 -2.859375z" fill-rule="nonzero"/><path fill="#d9d2e9" d="m247.29921 28.986877l191.77953 0l0 47.716537l-191.77953 0z" fill-rule="evenodd"/><path stroke="#000000" stroke-width="2.0" stroke-linejoin="round" stroke-linecap="butt" d="m247.29921 28.986877l191.77953 0l0 47.716537l-191.77953 0z" fill-rule="evenodd"/><path fill="#000000" d="m326.56708 41.5475l2.015625 -5.3125l3.640625 0l0 1.734375l-1.453125 0l0.25 7.203125l1.0 0l0 1.734375l-4.453125 0l0 -1.734375l1.734375 0l-0.265625 -5.890625l-1.96875 5.25l-1.109375 0l-1.890625 -5.296875l-0.296875 5.9375l1.765625 0l0 1.734375l-4.53125 0l0 -1.734375l1.03125 0l0.296875 -7.203125l-1.40625 0l0 -1.734375l3.71875 0l1.921875 5.3125zm15.506256 3.625l1.046875 0l0 1.734375l-4.359375 0l0 -1.734375l1.5625 0l-0.546875 -1.265625l-4.328125 0l-0.546875 1.265625l1.609375 0l0 1.734375l-4.4375 0l0 -1.734375l1.09375 0l3.046875 -7.203125l-2.296875 0l0 -1.734375l4.5 0l3.65625 8.9375zm-2.984375 -3.0l-1.453125 -3.453125l-1.46875 3.453125l2.921875 0zm11.928131 -5.71875l0 -0.421875l1.71875 0l0 4.015625l-1.71875 0l0 -1.796875q-1.09375 -0.5 -2.03125 -0.5q-1.015625 0 -1.703125 0.5q-0.671875 0.5 -0.671875 1.1875q0 0.609375 0.390625 0.921875q0.390625 0.296875 0.953125 0.40625q0.5625 0.109375 1.5625 0.203125l0.71875 0.078125q1.34375 0.171875 2.109375 0.875q0.765625 0.6875 0.765625 1.921875q0 0.984375 -0.5625 1.734375q-0.546875 0.75 -1.515625 1.171875q-0.953125 0.40625 -2.15625 0.40625q-0.65625 0 -1.25 -0.15625q-0.59375 -0.15625 -1.34375 -0.515625l0 0.671875l-1.71875 0l0 -3.90625l1.71875 0l0 1.421875q1.265625 0.765625 2.609375 0.765625q1.21875 0 1.875 -0.40625q0.65625 -0.421875 0.65625 -1.1875q0 -0.65625 -0.515625 -0.953125q-0.515625 -0.296875 -1.765625 -0.3125q-2.09375 -0.03125 -3.1875 -0.890625q-1.09375 -0.859375 -1.09375 -2.25q0 -0.875 0.515625 -1.65625q0.515625 -0.796875 1.4375 -1.265625q0.921875 -0.484375 2.109375 -0.484375q1.15625 0 2.09375 0.421875zm8.568756 1.515625l-1.453125 0l0 2.890625l3.0 -2.890625l-0.765625 0l0 -1.734375l4.265625 0l0 1.734375l-1.203125 0l-3.09375 3.0q1.71875 2.0 2.890625 4.203125l1.890625 0l0 1.734375l-2.828125 0q-0.578125 -1.21875 -1.421875 -2.53125q-0.828125 -1.3125 -1.6875 -2.296875l-1.046875 1.0l0 2.09375l1.453125 0l0 1.734375l-4.640625 0l0 -1.734375l1.46875 0l0 -7.203125l-1.46875 0l0 -1.734375l4.640625 0l0 1.734375z" fill-rule="nonzero"/><path fill="#d9d2e9" d="m130.2336 205.83727l47.93701 0l0 24.0l-47.93701 0z" fill-rule="evenodd"/><path stroke="#000000" stroke-width="2.0" stroke-linejoin="round" stroke-linecap="butt" d="m130.2336 205.83727l47.93701 0l0 24.0l-47.93701 0z" fill-rule="evenodd"/><path fill="#000000" d="m159.10522 219.21039q0 2.75 -1.34375 4.15625q-1.34375 1.390625 -3.78125 1.390625l-4.890625 0l0 -1.734375l1.46875 0l0 -7.203125l-1.46875 0l0 -1.734375l5.375 0q1.484375 0 2.53125 0.671875q1.046875 0.65625 1.578125 1.8125q0.53125 1.15625 0.53125 2.640625zm-1.71875 0.078125q0 -1.65625 -0.78125 -2.5625q-0.78125 -0.90625 -2.140625 -0.90625l-2.1875 0l0 7.203125l2.0625 0q1.265625 0 2.15625 -0.875q0.890625 -0.875 0.890625 -2.859375z" fill-rule="nonzero"/><path fill="#d9d2e9" d="m178.18103 205.83727l47.93701 0l0 24.0l-47.93701 0z" fill-rule="evenodd"/><path stroke="#000000" stroke-width="2.0" stroke-linejoin="round" stroke-linecap="butt" d="m178.18103 205.83727l47.93701 0l0 24.0l-47.93701 0z" fill-rule="evenodd"/><path fill="#000000" d="m205.36516 214.66351l0 -0.78125l1.703125 0l0 4.34375l-1.703125 0l0 -1.765625q-1.390625 -0.875 -2.734375 -0.875q-0.890625 0 -1.671875 0.453125q-0.765625 0.453125 -1.234375 1.3125q-0.46875 0.859375 -0.46875 2.03125q0 1.75 0.90625 2.8125q0.90625 1.0625 2.515625 1.0625q0.796875 0 1.671875 -0.296875q0.890625 -0.3125 1.734375 -0.90625l1.046875 1.265625q-0.796875 0.75 -2.125 1.203125q-1.328125 0.453125 -2.296875 0.453125q-2.390625 0 -3.859375 -1.71875q-0.625 -0.703125 -0.984375 -1.796875q-0.34375 -1.09375 -0.34375 -2.09375q0 -1.5625 0.671875 -2.8125q0.671875 -1.25 1.828125 -1.953125q1.15625 -0.71875 2.59375 -0.71875q0.78125 0 1.5 0.21875q0.734375 0.203125 1.25 0.5625z" fill-rule="nonzero"/><path fill="#d9d2e9" d="m226.12846 205.83727l47.936996 0l0 24.0l-47.936996 0z" fill-rule="evenodd"/><path stroke="#000000" stroke-width="2.0" stroke-linejoin="round" stroke-linecap="butt" d="m226.12846 205.83727l47.936996 0l0 24.0l-47.936996 0z" fill-rule="evenodd"/><path fill="#000000" d="m254.57822 223.02289l1.046875 0l0 1.734375l-4.359375 0l0 -1.734375l1.5625 0l-0.546875 -1.265625l-4.328125 0l-0.546875 1.265625l1.609375 0l0 1.734375l-4.4375 0l0 -1.734375l1.09375 0l3.046875 -7.203125l-2.296875 0l0 -1.734375l4.5 0l3.65625 8.9375zm-2.984375 -3.0l-1.453125 -3.453125l-1.46875 3.453125l2.921875 0z" fill-rule="nonzero"/><path fill="#d9d2e9" d="m274.0759 205.83727l47.93701 0l0 24.0l-47.93701 0z" fill-rule="evenodd"/><path stroke="#000000" stroke-width="2.0" stroke-linejoin="round" stroke-linecap="butt" d="m274.0759 205.83727l47.93701 0l0 24.0l-47.93701 0z" fill-rule="evenodd"/><path fill="#000000" d="m302.52563 223.02289l1.046875 0l0 1.734375l-4.359375 0l0 -1.734375l1.5625 0l-0.546875 -1.265625l-4.328125 0l-0.546875 1.265625l1.609375 0l0 1.734375l-4.4375 0l0 -1.734375l1.09375 0l3.046875 -7.203125l-2.296875 0l0 -1.734375l4.5 0l3.65625 8.9375zm-2.984375 -3.0l-1.453125 -3.453125l-1.46875 3.453125l2.921875 0z" fill-rule="nonzero"/><path fill="#d9d9d9" d="m142.2021 155.5328l24.0 0l0 23.040009l-12.0 5.7599945l-12.0 -5.7599945z" fill-rule="evenodd"/><path stroke="#000000" stroke-width="2.0" stroke-linejoin="round" stroke-linecap="butt" d="m142.2021 155.5328l24.0 0l0 23.040009l-12.0 5.7599945l-12.0 -5.7599945z" fill-rule="evenodd"/><path fill="#000000" d="m157.98335 167.47281q0 -0.203125 0 -0.40625q-0.046875 -0.578125 -0.3125 -1.09375q-0.4375 -0.671875 -1.46875 -0.96875l0.5625 -1.171875q1.1875 0.34375 1.28125 0.8125q-0.203125 0 -0.203125 -0.421875q0 -1.359375 -0.390625 -1.921875q-0.796875 -1.140625 -0.796875 -2.328125q0.09375 -0.515625 0.15625 -0.765625l-3.953125 -0.0625q0.03125 -0.0625 0.34375 0.25l0.203125 0.359375l-0.171875 0.34375q-1.65625 3.328125 -1.65625 8.359375q0.0625 2.796875 0.59375 5.8125q0.078125 0.40625 0.125 0.40625q0.046875 0 0.0625 -0.078125q0.21875 -0.703125 0.21875 -2.421875q0 -2.046875 -0.34375 -4.4375l1.25 -0.140625q0.4375 1.734375 1.265625 1.734375q0.375 0 0.53125 -0.28125q0.203125 0.140625 -0.03125 0.15625q0.203125 -0.078125 0.203125 0.03125q-0.5 0.125 -1.265625 -0.28125q-0.96875 -0.5 -1.703125 -1.609375q-0.859375 -1.359375 -1.0625 -3.46875l1.296875 -0.15625q0.171875 1.796875 0.796875 2.8125q0.609375 0.890625 1.328125 1.28125q0.578125 0.25 0.71875 0.25q0 0.15625 -0.15625 0.09375q-0.078125 -0.296875 -0.34375 -0.765625q-0.3125 -0.515625 -0.96875 -0.96875l-0.75 -0.359375l0.578125 -0.609375q0.8125 -1.09375 0.953125 -2.375q0.078125 -0.890625 -0.265625 -1.859375l1.328125 -0.390625q0.234375 1.125 0.234375 2.140625q0 1.609375 -0.8125 2.71875q0.5 0.34375 0.90625 1.078125q0.5 0.765625 0.5 1.390625q0 0.65625 -0.453125 0.71875q0.234375 0 0.234375 0.25q0 0.296875 -0.328125 0.203125q-0.015625 -0.046875 -0.109375 -0.375q0.5 0 0.546875 -0.75q0.125 -2.015625 -1.625 -2.828125l0.5625 -1.140625q2.203125 0.984375 2.359375 3.15625q0.078125 0.96875 -0.1875 0.96875q0.171875 -0.3125 0.21875 -0.890625zm1.09375 -1.6875q0.375 0.671875 0.28125 1.40625q0.09375 0.796875 -0.4375 1.421875q-0.453125 0.734375 -1.234375 0.8125q-0.390625 0.828125 -1.390625 0.828125q-0.28125 0 -0.328125 -0.015625q-0.40625 0.390625 -1.21875 0.390625q-0.078125 0 -0.25 0q-0.828125 -0.09375 -0.828125 -0.296875q0.203125 0.703125 0.203125 1.90625q0 1.765625 -0.234375 2.640625q-0.3125 1.09375 -1.34375 1.09375q-1.140625 0 -1.4375 -1.5q-0.59375 -3.15625 -0.59375 -6.015625q0 -4.96875 1.65625 -8.5625q-0.3125 -0.421875 -0.75 -1.078125l-0.734375 -0.921875l8.265625 0l-0.40625 0.84375q-0.328125 0.796875 -0.265625 1.359375q0.0625 0.671875 0.53125 1.484375q0.578125 0.90625 0.578125 2.640625q0 0.765625 -0.0625 1.5625z" fill-rule="nonzero"/><path fill="#000000" fill-opacity="0.0" d="m154.2021 184.33281l0 21.51181" fill-rule="evenodd"/><path stroke="#000000" stroke-width="2.0" stroke-linejoin="round" stroke-linecap="butt" d="m154.2021 184.3328l0 9.51181" fill-rule="evenodd"/><path fill="#000000" stroke="#000000" stroke-width="2.0" stroke-linecap="butt" d="m150.89864 193.8446l3.3034668 9.076202l3.3034668 -9.076202z" fill-rule="evenodd"/><path fill="#d9d9d9" d="m190.14961 155.5328l24.0 0l0 23.040009l-12.0 5.7599945l-12.0 -5.7599945z" fill-rule="evenodd"/><path stroke="#000000" stroke-width="2.0" stroke-linejoin="round" stroke-linecap="butt" d="m190.14961 155.5328l24.0 0l0 23.040009l-12.0 5.7599945l-12.0 -5.7599945z" fill-rule="evenodd"/><path fill="#000000" d="m205.93086 167.47281q0 -0.203125 0 -0.40625q-0.046875 -0.578125 -0.3125 -1.09375q-0.4375 -0.671875 -1.46875 -0.96875l0.5625 -1.171875q1.1875 0.34375 1.28125 0.8125q-0.203125 0 -0.203125 -0.421875q0 -1.359375 -0.390625 -1.921875q-0.796875 -1.140625 -0.796875 -2.328125q0.09375 -0.515625 0.15625 -0.765625l-3.953125 -0.0625q0.03125 -0.0625 0.34375 0.25l0.203125 0.359375l-0.171875 0.34375q-1.65625 3.328125 -1.65625 8.359375q0.0625 2.796875 0.59375 5.8125q0.078125 0.40625 0.125 0.40625q0.046875 0 0.0625 -0.078125q0.21875 -0.703125 0.21875 -2.421875q0 -2.046875 -0.34375 -4.4375l1.25 -0.140625q0.4375 1.734375 1.265625 1.734375q0.375 0 0.53125 -0.28125q0.203125 0.140625 -0.03125 0.15625q0.203125 -0.078125 0.203125 0.03125q-0.5 0.125 -1.265625 -0.28125q-0.96875 -0.5 -1.703125 -1.609375q-0.859375 -1.359375 -1.0625 -3.46875l1.296875 -0.15625q0.171875 1.796875 0.796875 2.8125q0.609375 0.890625 1.328125 1.28125q0.578125 0.25 0.71875 0.25q0 0.15625 -0.15625 0.09375q-0.078125 -0.296875 -0.34375 -0.765625q-0.3125 -0.515625 -0.96875 -0.96875l-0.75 -0.359375l0.578125 -0.609375q0.8125 -1.09375 0.953125 -2.375q0.078125 -0.890625 -0.265625 -1.859375l1.328125 -0.390625q0.234375 1.125 0.234375 2.140625q0 1.609375 -0.8125 2.71875q0.5 0.34375 0.90625 1.078125q0.5 0.765625 0.5 1.390625q0 0.65625 -0.453125 0.71875q0.234375 0 0.234375 0.25q0 0.296875 -0.328125 0.203125q-0.015625 -0.046875 -0.109375 -0.375q0.5 0 0.546875 -0.75q0.125 -2.015625 -1.625 -2.828125l0.5625 -1.140625q2.203125 0.984375 2.359375 3.15625q0.078125 0.96875 -0.1875 0.96875q0.171875 -0.3125 0.21875 -0.890625zm1.09375 -1.6875q0.375 0.671875 0.28125 1.40625q0.09375 0.796875 -0.4375 1.421875q-0.453125 0.734375 -1.234375 0.8125q-0.390625 0.828125 -1.390625 0.828125q-0.28125 0 -0.328125 -0.015625q-0.40625 0.390625 -1.21875 0.390625q-0.078125 0 -0.25 0q-0.828125 -0.09375 -0.828125 -0.296875q0.203125 0.703125 0.203125 1.90625q0 1.765625 -0.234375 2.640625q-0.3125 1.09375 -1.34375 1.09375q-1.140625 0 -1.4375 -1.5q-0.59375 -3.15625 -0.59375 -6.015625q0 -4.96875 1.65625 -8.5625q-0.3125 -0.421875 -0.75 -1.078125l-0.734375 -0.921875l8.265625 0l-0.40625 0.84375q-0.328125 0.796875 -0.265625 1.359375q0.0625 0.671875 0.53125 1.484375q0.578125 0.90625 0.578125 2.640625q0 0.765625 -0.0625 1.5625z" fill-rule="nonzero"/><path fill="#d9d9d9" d="m238.0971 155.5328l24.0 0l0 23.040009l-12.0 5.7599945l-12.0 -5.7599945z" fill-rule="evenodd"/><path stroke="#000000" stroke-width="2.0" stroke-linejoin="round" stroke-linecap="butt" d="m238.0971 155.5328l24.0 0l0 23.040009l-12.0 5.7599945l-12.0 -5.7599945z" fill-rule="evenodd"/><path fill="#000000" d="m253.87836 167.47281q0 -0.203125 0 -0.40625q-0.046875 -0.578125 -0.3125 -1.09375q-0.4375 -0.671875 -1.46875 -0.96875l0.5625 -1.171875q1.1875 0.34375 1.28125 0.8125q-0.203125 0 -0.203125 -0.421875q0 -1.359375 -0.390625 -1.921875q-0.796875 -1.140625 -0.796875 -2.328125q0.09375 -0.515625 0.15625 -0.765625l-3.953125 -0.0625q0.03125 -0.0625 0.34375 0.25l0.203125 0.359375l-0.171875 0.34375q-1.65625 3.328125 -1.65625 8.359375q0.0625 2.796875 0.59375 5.8125q0.078125 0.40625 0.125 0.40625q0.046875 0 0.0625 -0.078125q0.21875 -0.703125 0.21875 -2.421875q0 -2.046875 -0.34375 -4.4375l1.25 -0.140625q0.4375 1.734375 1.265625 1.734375q0.375 0 0.53125 -0.28125q0.203125 0.140625 -0.03125 0.15625q0.203125 -0.078125 0.203125 0.03125q-0.5 0.125 -1.265625 -0.28125q-0.96875 -0.5 -1.703125 -1.609375q-0.859375 -1.359375 -1.0625 -3.46875l1.296875 -0.15625q0.171875 1.796875 0.796875 2.8125q0.609375 0.890625 1.328125 1.28125q0.578125 0.25 0.71875 0.25q0 0.15625 -0.15625 0.09375q-0.078125 -0.296875 -0.34375 -0.765625q-0.3125 -0.515625 -0.96875 -0.96875l-0.75 -0.359375l0.578125 -0.609375q0.8125 -1.09375 0.953125 -2.375q0.078125 -0.890625 -0.265625 -1.859375l1.328125 -0.390625q0.234375 1.125 0.234375 2.140625q0 1.609375 -0.8125 2.71875q0.5 0.34375 0.90625 1.078125q0.5 0.765625 0.5 1.390625q0 0.65625 -0.453125 0.71875q0.234375 0 0.234375 0.25q0 0.296875 -0.328125 0.203125q-0.015625 -0.046875 -0.109375 -0.375q0.5 0 0.546875 -0.75q0.125 -2.015625 -1.625 -2.828125l0.5625 -1.140625q2.203125 0.984375 2.359375 3.15625q0.078125 0.96875 -0.1875 0.96875q0.171875 -0.3125 0.21875 -0.890625zm1.09375 -1.6875q0.375 0.671875 0.28125 1.40625q0.09375 0.796875 -0.4375 1.421875q-0.453125 0.734375 -1.234375 0.8125q-0.390625 0.828125 -1.390625 0.828125q-0.28125 0 -0.328125 -0.015625q-0.40625 0.390625 -1.21875 0.390625q-0.078125 0 -0.25 0q-0.828125 -0.09375 -0.828125 -0.296875q0.203125 0.703125 0.203125 1.90625q0 1.765625 -0.234375 2.640625q-0.3125 1.09375 -1.34375 1.09375q-1.140625 0 -1.4375 -1.5q-0.59375 -3.15625 -0.59375 -6.015625q0 -4.96875 1.65625 -8.5625q-0.3125 -0.421875 -0.75 -1.078125l-0.734375 -0.921875l8.265625 0l-0.40625 0.84375q-0.328125 0.796875 -0.265625 1.359375q0.0625 0.671875 0.53125 1.484375q0.578125 0.90625 0.578125 2.640625q0 0.765625 -0.0625 1.5625z" fill-rule="nonzero"/><path fill="#d9d9d9" d="m286.04462 155.5328l24.0 0l0 23.040009l-12.0 5.7599945l-12.0 -5.7599945z" fill-rule="evenodd"/><path stroke="#000000" stroke-width="2.0" stroke-linejoin="round" stroke-linecap="butt" d="m286.04462 155.5328l24.0 0l0 23.040009l-12.0 5.7599945l-12.0 -5.7599945z" fill-rule="evenodd"/><path fill="#000000" d="m301.82587 167.47281q0 -0.203125 0 -0.40625q-0.046875 -0.578125 -0.3125 -1.09375q-0.4375 -0.671875 -1.46875 -0.96875l0.5625 -1.171875q1.1875 0.34375 1.28125 0.8125q-0.203125 0 -0.203125 -0.421875q0 -1.359375 -0.390625 -1.921875q-0.796875 -1.140625 -0.796875 -2.328125q0.09375 -0.515625 0.15625 -0.765625l-3.953125 -0.0625q0.03125 -0.0625 0.34375 0.25l0.203125 0.359375l-0.171875 0.34375q-1.65625 3.328125 -1.65625 8.359375q0.0625 2.796875 0.59375 5.8125q0.078125 0.40625 0.125 0.40625q0.046875 0 0.0625 -0.078125q0.21875 -0.703125 0.21875 -2.421875q0 -2.046875 -0.34375 -4.4375l1.25 -0.140625q0.4375 1.734375 1.265625 1.734375q0.375 0 0.53125 -0.28125q0.203125 0.140625 -0.03125 0.15625q0.203125 -0.078125 0.203125 0.03125q-0.5 0.125 -1.265625 -0.28125q-0.96875 -0.5 -1.703125 -1.609375q-0.859375 -1.359375 -1.0625 -3.46875l1.296875 -0.15625q0.171875 1.796875 0.796875 2.8125q0.609375 0.890625 1.328125 1.28125q0.578125 0.25 0.71875 0.25q0 0.15625 -0.15625 0.09375q-0.078125 -0.296875 -0.34375 -0.765625q-0.3125 -0.515625 -0.96875 -0.96875l-0.75 -0.359375l0.578125 -0.609375q0.8125 -1.09375 0.953125 -2.375q0.078125 -0.890625 -0.265625 -1.859375l1.328125 -0.390625q0.234375 1.125 0.234375 2.140625q0 1.609375 -0.8125 2.71875q0.5 0.34375 0.90625 1.078125q0.5 0.765625 0.5 1.390625q0 0.65625 -0.453125 0.71875q0.234375 0 0.234375 0.25q0 0.296875 -0.328125 0.203125q-0.015625 -0.046875 -0.109375 -0.375q0.5 0 0.546875 -0.75q0.125 -2.015625 -1.625 -2.828125l0.5625 -1.140625q2.203125 0.984375 2.359375 3.15625q0.078125 0.96875 -0.1875 0.96875q0.171875 -0.3125 0.21875 -0.890625zm1.09375 -1.6875q0.375 0.671875 0.28125 1.40625q0.09375 0.796875 -0.4375 1.421875q-0.453125 0.734375 -1.234375 0.8125q-0.390625 0.828125 -1.390625 0.828125q-0.28125 0 -0.328125 -0.015625q-0.40625 0.390625 -1.21875 0.390625q-0.078125 0 -0.25 0q-0.828125 -0.09375 -0.828125 -0.296875q0.203125 0.703125 0.203125 1.90625q0 1.765625 -0.234375 2.640625q-0.3125 1.09375 -1.34375 1.09375q-1.140625 0 -1.4375 -1.5q-0.59375 -3.15625 -0.59375 -6.015625q0 -4.96875 1.65625 -8.5625q-0.3125 -0.421875 -0.75 -1.078125l-0.734375 -0.921875l8.265625 0l-0.40625 0.84375q-0.328125 0.796875 -0.265625 1.359375q0.0625 0.671875 0.53125 1.484375q0.578125 0.90625 0.578125 2.640625q0 0.765625 -0.0625 1.5625z" fill-rule="nonzero"/><path fill="#000000" fill-opacity="0.0" d="m202.14961 184.33281l0 21.51181" fill-rule="evenodd"/><path stroke="#000000" stroke-width="2.0" stroke-linejoin="round" stroke-linecap="butt" d="m202.14961 184.3328l0 9.51181" fill-rule="evenodd"/><path fill="#000000" stroke="#000000" stroke-width="2.0" stroke-linecap="butt" d="m198.84615 193.8446l3.3034668 9.076202l3.3034515 -9.076202z" fill-rule="evenodd"/><path fill="#000000" fill-opacity="0.0" d="m250.0971 184.33281l0 21.51181" fill-rule="evenodd"/><path stroke="#000000" stroke-width="2.0" stroke-linejoin="round" stroke-linecap="butt" d="m250.0971 184.3328l0 9.51181" fill-rule="evenodd"/><path fill="#000000" stroke="#000000" stroke-width="2.0" stroke-linecap="butt" d="m246.79366 193.8446l3.3034515 9.076202l3.3034668 -9.076202z" fill-rule="evenodd"/><path fill="#000000" fill-opacity="0.0" d="m298.04462 184.33281l0 21.51181" fill-rule="evenodd"/><path stroke="#000000" stroke-width="2.0" stroke-linejoin="round" stroke-linecap="butt" d="m298.04462 184.3328l0 9.51181" fill-rule="evenodd"/><path fill="#000000" stroke="#000000" stroke-width="2.0" stroke-linecap="butt" d="m294.74115 193.8446l3.3034668 9.076202l3.3034668 -9.076202z" fill-rule="evenodd"/><path fill="#d9d2e9" d="m247.58267 57.78478l12.031494 0l0 19.212597l-12.031494 0z" fill-rule="evenodd"/><path stroke="#000000" stroke-width="1.0" stroke-linejoin="round" stroke-linecap="butt" d="m247.58267 57.78478l12.031494 0l0 19.212597l-12.031494 0z" fill-rule="evenodd"/><path fill="#000000" d="m252.57967 67.007324q0 0.59375 -0.40625 1.0q-0.40625 0.40625 -1.203125 0.609375l0 0.5625l-0.859375 0l0 -1.1875q0.890625 -0.140625 1.25 -0.359375q0.359375 -0.21875 0.359375 -0.625q0 -0.34375 -0.28125 -0.53125q-0.28125 -0.1875 -0.78125 -0.1875q-0.234375 0 -0.765625 0.078125l0 0.625l-0.859375 0l0 -1.25q0.359375 -0.140625 0.8125 -0.21875q0.453125 -0.09375 0.828125 -0.09375q0.84375 0 1.375 0.4375q0.53125 0.421875 0.53125 1.140625zm-1.1875 3.265625q0 0.296875 -0.21875 0.5q-0.21875 0.203125 -0.625 0.203125q-0.375 0 -0.625 -0.1875q-0.234375 -0.203125 -0.234375 -0.515625q0 -0.296875 0.234375 -0.5q0.25 -0.21875 0.609375 -0.21875q0.390625 0 0.625 0.21875q0.234375 0.21875 0.234375 0.5zm6.784378 -3.265625q0 0.59375 -0.40625 1.0q-0.40625 0.40625 -1.203125 0.609375l0 0.5625l-0.859375 0l0 -1.1875q0.890625 -0.140625 1.25 -0.359375q0.359375 -0.21875 0.359375 -0.625q0 -0.34375 -0.28125 -0.53125q-0.28125 -0.1875 -0.78125 -0.1875q-0.234375 0 -0.765625 0.078125l0 0.625l-0.859375 0l0 -1.25q0.359375 -0.140625 0.8125 -0.21875q0.453125 -0.09375 0.828125 -0.09375q0.84375 0 1.375 0.4375q0.53125 0.421875 0.53125 1.140625zm-1.1875 3.265625q0 0.296875 -0.21875 0.5q-0.21875 0.203125 -0.625 0.203125q-0.375 0 -0.625 -0.1875q-0.234375 -0.203125 -0.234375 -0.515625q0 -0.296875 0.234375 -0.5q0.25 -0.21875 0.609375 -0.21875q0.390625 0 0.625 0.21875q0.234375 0.21875 0.234375 0.5z" fill-rule="nonzero"/><path fill="#d9d2e9" d="m259.617 57.78478l12.031494 0l0 19.212597l-12.031494 0z" fill-rule="evenodd"/><path stroke="#000000" stroke-width="1.0" stroke-linejoin="round" stroke-linecap="butt" d="m259.617 57.78478l12.031494 0l0 19.212597l-12.031494 0z" fill-rule="evenodd"/><path fill="#000000" d="m264.614 67.007324q0 0.59375 -0.40625 1.0q-0.40625 0.40625 -1.203125 0.609375l0 0.5625l-0.859375 0l0 -1.1875q0.890625 -0.140625 1.25 -0.359375q0.359375 -0.21875 0.359375 -0.625q0 -0.34375 -0.28125 -0.53125q-0.28125 -0.1875 -0.78125 -0.1875q-0.234375 0 -0.765625 0.078125l0 0.625l-0.859375 0l0 -1.25q0.359375 -0.140625 0.8125 -0.21875q0.453125 -0.09375 0.828125 -0.09375q0.84375 0 1.375 0.4375q0.53125 0.421875 0.53125 1.140625zm-1.1875 3.265625q0 0.296875 -0.21875 0.5q-0.21875 0.203125 -0.625 0.203125q-0.375 0 -0.625 -0.1875q-0.234375 -0.203125 -0.234375 -0.515625q0 -0.296875 0.234375 -0.5q0.25 -0.21875 0.609375 -0.21875q0.390625 0 0.625 0.21875q0.234375 0.21875 0.234375 0.5zm6.784363 -3.265625q0 0.59375 -0.40625 1.0q-0.40625 0.40625 -1.203125 0.609375l0 0.5625l-0.859375 0l0 -1.1875q0.890625 -0.140625 1.25 -0.359375q0.359375 -0.21875 0.359375 -0.625q0 -0.34375 -0.28125 -0.53125q-0.28125 -0.1875 -0.78125 -0.1875q-0.234375 0 -0.765625 0.078125l0 0.625l-0.859375 0l0 -1.25q0.359375 -0.140625 0.8125 -0.21875q0.453125 -0.09375 0.828125 -0.09375q0.84375 0 1.375 0.4375q0.53125 0.421875 0.53125 1.140625zm-1.1875 3.265625q0 0.296875 -0.21875 0.5q-0.21875 0.203125 -0.625 0.203125q-0.375 0 -0.625 -0.1875q-0.234375 -0.203125 -0.234375 -0.515625q0 -0.296875 0.234375 -0.5q0.25 -0.21875 0.609375 -0.21875q0.390625 0 0.625 0.21875q0.234375 0.21875 0.234375 0.5z" fill-rule="nonzero"/><path fill="#d9d2e9" d="m271.54013 57.78478l12.031494 0l0 19.212597l-12.031494 0z" fill-rule="evenodd"/><path stroke="#000000" stroke-width="1.0" stroke-linejoin="round" stroke-linecap="butt" d="m271.54013 57.78478l12.031494 0l0 19.212597l-12.031494 0z" fill-rule="evenodd"/><path fill="#000000" d="m276.53714 67.007324q0 0.59375 -0.40625 1.0q-0.40625 0.40625 -1.203125 0.609375l0 0.5625l-0.859375 0l0 -1.1875q0.890625 -0.140625 1.25 -0.359375q0.359375 -0.21875 0.359375 -0.625q0 -0.34375 -0.28125 -0.53125q-0.28125 -0.1875 -0.78125 -0.1875q-0.234375 0 -0.765625 0.078125l0 0.625l-0.859375 0l0 -1.25q0.359375 -0.140625 0.8125 -0.21875q0.453125 -0.09375 0.828125 -0.09375q0.84375 0 1.375 0.4375q0.53125 0.421875 0.53125 1.140625zm-1.1875 3.265625q0 0.296875 -0.21875 0.5q-0.21875 0.203125 -0.625 0.203125q-0.375 0 -0.625 -0.1875q-0.234375 -0.203125 -0.234375 -0.515625q0 -0.296875 0.234375 -0.5q0.25 -0.21875 0.609375 -0.21875q0.390625 0 0.625 0.21875q0.234375 0.21875 0.234375 0.5zm6.784363 -3.265625q0 0.59375 -0.40625 1.0q-0.40625 0.40625 -1.203125 0.609375l0 0.5625l-0.859375 0l0 -1.1875q0.890625 -0.140625 1.25 -0.359375q0.359375 -0.21875 0.359375 -0.625q0 -0.34375 -0.28125 -0.53125q-0.28125 -0.1875 -0.78125 -0.1875q-0.234375 0 -0.765625 0.078125l0 0.625l-0.859375 0l0 -1.25q0.359375 -0.140625 0.8125 -0.21875q0.453125 -0.09375 0.828125 -0.09375q0.84375 0 1.375 0.4375q0.53125 0.421875 0.53125 1.140625zm-1.1875 3.265625q0 0.296875 -0.21875 0.5q-0.21875 0.203125 -0.625 0.203125q-0.375 0 -0.625 -0.1875q-0.234375 -0.203125 -0.234375 -0.515625q0 -0.296875 0.234375 -0.5q0.25 -0.21875 0.609375 -0.21875q0.390625 0 0.625 0.21875q0.234375 0.21875 0.234375 0.5z" fill-rule="nonzero"/><path fill="#d9d2e9" d="m283.57446 57.78478l12.031494 0l0 19.212597l-12.031494 0z" fill-rule="evenodd"/><path stroke="#000000" stroke-width="1.0" stroke-linejoin="round" stroke-linecap="butt" d="m283.57446 57.78478l12.031494 0l0 19.212597l-12.031494 0z" fill-rule="evenodd"/><path fill="#000000" d="m288.57147 67.007324q0 0.59375 -0.40625 1.0q-0.40625 0.40625 -1.203125 0.609375l0 0.5625l-0.859375 0l0 -1.1875q0.890625 -0.140625 1.25 -0.359375q0.359375 -0.21875 0.359375 -0.625q0 -0.34375 -0.28125 -0.53125q-0.28125 -0.1875 -0.78125 -0.1875q-0.234375 0 -0.765625 0.078125l0 0.625l-0.859375 0l0 -1.25q0.359375 -0.140625 0.8125 -0.21875q0.453125 -0.09375 0.828125 -0.09375q0.84375 0 1.375 0.4375q0.53125 0.421875 0.53125 1.140625zm-1.1875 3.265625q0 0.296875 -0.21875 0.5q-0.21875 0.203125 -0.625 0.203125q-0.375 0 -0.625 -0.1875q-0.234375 -0.203125 -0.234375 -0.515625q0 -0.296875 0.234375 -0.5q0.25 -0.21875 0.609375 -0.21875q0.390625 0 0.625 0.21875q0.234375 0.21875 0.234375 0.5zm6.784363 -3.265625q0 0.59375 -0.40625 1.0q-0.40625 0.40625 -1.203125 0.609375l0 0.5625l-0.859375 0l0 -1.1875q0.890625 -0.140625 1.25 -0.359375q0.359375 -0.21875 0.359375 -0.625q0 -0.34375 -0.28125 -0.53125q-0.28125 -0.1875 -0.78125 -0.1875q-0.234375 0 -0.765625 0.078125l0 0.625l-0.859375 0l0 -1.25q0.359375 -0.140625 0.8125 -0.21875q0.453125 -0.09375 0.828125 -0.09375q0.84375 0 1.375 0.4375q0.53125 0.421875 0.53125 1.140625zm-1.1875 3.265625q0 0.296875 -0.21875 0.5q-0.21875 0.203125 -0.625 0.203125q-0.375 0 -0.625 -0.1875q-0.234375 -0.203125 -0.234375 -0.515625q0 -0.296875 0.234375 -0.5q0.25 -0.21875 0.609375 -0.21875q0.390625 0 0.625 0.21875q0.234375 0.21875 0.234375 0.5z" fill-rule="nonzero"/><path fill="#d9d2e9" d="m295.4976 57.78478l12.031494 0l0 19.212597l-12.031494 0z" fill-rule="evenodd"/><path stroke="#000000" stroke-width="1.0" stroke-linejoin="round" stroke-linecap="butt" d="m295.4976 57.78478l12.031494 0l0 19.212597l-12.031494 0z" fill-rule="evenodd"/><path fill="#000000" d="m300.4946 67.007324q0 0.59375 -0.40625 1.0q-0.40625 0.40625 -1.203125 0.609375l0 0.5625l-0.859375 0l0 -1.1875q0.890625 -0.140625 1.25 -0.359375q0.359375 -0.21875 0.359375 -0.625q0 -0.34375 -0.28125 -0.53125q-0.28125 -0.1875 -0.78125 -0.1875q-0.234375 0 -0.765625 0.078125l0 0.625l-0.859375 0l0 -1.25q0.359375 -0.140625 0.8125 -0.21875q0.453125 -0.09375 0.828125 -0.09375q0.84375 0 1.375 0.4375q0.53125 0.421875 0.53125 1.140625zm-1.1875 3.265625q0 0.296875 -0.21875 0.5q-0.21875 0.203125 -0.625 0.203125q-0.375 0 -0.625 -0.1875q-0.234375 -0.203125 -0.234375 -0.515625q0 -0.296875 0.234375 -0.5q0.25 -0.21875 0.609375 -0.21875q0.390625 0 0.625 0.21875q0.234375 0.21875 0.234375 0.5zm6.784363 -3.265625q0 0.59375 -0.40625 1.0q-0.40625 0.40625 -1.203125 0.609375l0 0.5625l-0.859375 0l0 -1.1875q0.890625 -0.140625 1.25 -0.359375q0.359375 -0.21875 0.359375 -0.625q0 -0.34375 -0.28125 -0.53125q-0.28125 -0.1875 -0.78125 -0.1875q-0.234375 0 -0.765625 0.078125l0 0.625l-0.859375 0l0 -1.25q0.359375 -0.140625 0.8125 -0.21875q0.453125 -0.09375 0.828125 -0.09375q0.84375 0 1.375 0.4375q0.53125 0.421875 0.53125 1.140625zm-1.1875 3.265625q0 0.296875 -0.21875 0.5q-0.21875 0.203125 -0.625 0.203125q-0.375 0 -0.625 -0.1875q-0.234375 -0.203125 -0.234375 -0.515625q0 -0.296875 0.234375 -0.5q0.25 -0.21875 0.609375 -0.21875q0.390625 0 0.625 0.21875q0.234375 0.21875 0.234375 0.5z" fill-rule="nonzero"/><path fill="#d9d2e9" d="m307.53192 57.78478l12.031494 0l0 19.212597l-12.031494 0z" fill-rule="evenodd"/><path stroke="#000000" stroke-width="1.0" stroke-linejoin="round" stroke-linecap="butt" d="m307.53192 57.78478l12.031494 0l0 19.212597l-12.031494 0z" fill-rule="evenodd"/><path fill="#000000" d="m312.52893 67.007324q0 0.59375 -0.40625 1.0q-0.40625 0.40625 -1.203125 0.609375l0 0.5625l-0.859375 0l0 -1.1875q0.890625 -0.140625 1.25 -0.359375q0.359375 -0.21875 0.359375 -0.625q0 -0.34375 -0.28125 -0.53125q-0.28125 -0.1875 -0.78125 -0.1875q-0.234375 0 -0.765625 0.078125l0 0.625l-0.859375 0l0 -1.25q0.359375 -0.140625 0.8125 -0.21875q0.453125 -0.09375 0.828125 -0.09375q0.84375 0 1.375 0.4375q0.53125 0.421875 0.53125 1.140625zm-1.1875 3.265625q0 0.296875 -0.21875 0.5q-0.21875 0.203125 -0.625 0.203125q-0.375 0 -0.625 -0.1875q-0.234375 -0.203125 -0.234375 -0.515625q0 -0.296875 0.234375 -0.5q0.25 -0.21875 0.609375 -0.21875q0.390625 0 0.625 0.21875q0.234375 0.21875 0.234375 0.5zm6.784363 -3.265625q0 0.59375 -0.40625 1.0q-0.40625 0.40625 -1.203125 0.609375l0 0.5625l-0.859375 0l0 -1.1875q0.890625 -0.140625 1.25 -0.359375q0.359375 -0.21875 0.359375 -0.625q0 -0.34375 -0.28125 -0.53125q-0.28125 -0.1875 -0.78125 -0.1875q-0.234375 0 -0.765625 0.078125l0 0.625l-0.859375 0l0 -1.25q0.359375 -0.140625 0.8125 -0.21875q0.453125 -0.09375 0.828125 -0.09375q0.84375 0 1.375 0.4375q0.53125 0.421875 0.53125 1.140625zm-1.1875 3.265625q0 0.296875 -0.21875 0.5q-0.21875 0.203125 -0.625 0.203125q-0.375 0 -0.625 -0.1875q-0.234375 -0.203125 -0.234375 -0.515625q0 -0.296875 0.234375 -0.5q0.25 -0.21875 0.609375 -0.21875q0.390625 0 0.625 0.21875q0.234375 0.21875 0.234375 0.5z" fill-rule="nonzero"/><path fill="#d9d2e9" d="m319.45505 57.78478l12.031494 0l0 19.212597l-12.031494 0z" fill-rule="evenodd"/><path stroke="#000000" stroke-width="1.0" stroke-linejoin="round" stroke-linecap="butt" d="m319.45505 57.78478l12.031494 0l0 19.212597l-12.031494 0z" fill-rule="evenodd"/><path fill="#000000" d="m324.45206 67.007324q0 0.59375 -0.40625 1.0q-0.40625 0.40625 -1.203125 0.609375l0 0.5625l-0.859375 0l0 -1.1875q0.890625 -0.140625 1.25 -0.359375q0.359375 -0.21875 0.359375 -0.625q0 -0.34375 -0.28125 -0.53125q-0.28125 -0.1875 -0.78125 -0.1875q-0.234375 0 -0.765625 0.078125l0 0.625l-0.859375 0l0 -1.25q0.359375 -0.140625 0.8125 -0.21875q0.453125 -0.09375 0.828125 -0.09375q0.84375 0 1.375 0.4375q0.53125 0.421875 0.53125 1.140625zm-1.1875 3.265625q0 0.296875 -0.21875 0.5q-0.21875 0.203125 -0.625 0.203125q-0.375 0 -0.625 -0.1875q-0.234375 -0.203125 -0.234375 -0.515625q0 -0.296875 0.234375 -0.5q0.25 -0.21875 0.609375 -0.21875q0.390625 0 0.625 0.21875q0.234375 0.21875 0.234375 0.5zm6.784363 -3.265625q0 0.59375 -0.40625 1.0q-0.40625 0.40625 -1.203125 0.609375l0 0.5625l-0.859375 0l0 -1.1875q0.890625 -0.140625 1.25 -0.359375q0.359375 -0.21875 0.359375 -0.625q0 -0.34375 -0.28125 -0.53125q-0.28125 -0.1875 -0.78125 -0.1875q-0.234375 0 -0.765625 0.078125l0 0.625l-0.859375 0l0 -1.25q0.359375 -0.140625 0.8125 -0.21875q0.453125 -0.09375 0.828125 -0.09375q0.84375 0 1.375 0.4375q0.53125 0.421875 0.53125 1.140625zm-1.1875 3.265625q0 0.296875 -0.21875 0.5q-0.21875 0.203125 -0.625 0.203125q-0.375 0 -0.625 -0.1875q-0.234375 -0.203125 -0.234375 -0.515625q0 -0.296875 0.234375 -0.5q0.25 -0.21875 0.609375 -0.21875q0.390625 0 0.625 0.21875q0.234375 0.21875 0.234375 0.5z" fill-rule="nonzero"/><path fill="#d9d2e9" d="m331.48938 57.78478l12.031494 0l0 19.212597l-12.031494 0z" fill-rule="evenodd"/><path stroke="#000000" stroke-width="1.0" stroke-linejoin="round" stroke-linecap="butt" d="m331.48938 57.78478l12.031494 0l0 19.212597l-12.031494 0z" fill-rule="evenodd"/><path fill="#000000" d="m336.4864 67.007324q0 0.59375 -0.40625 1.0q-0.40625 0.40625 -1.203125 0.609375l0 0.5625l-0.859375 0l0 -1.1875q0.890625 -0.140625 1.25 -0.359375q0.359375 -0.21875 0.359375 -0.625q0 -0.34375 -0.28125 -0.53125q-0.28125 -0.1875 -0.78125 -0.1875q-0.234375 0 -0.765625 0.078125l0 0.625l-0.859375 0l0 -1.25q0.359375 -0.140625 0.8125 -0.21875q0.453125 -0.09375 0.828125 -0.09375q0.84375 0 1.375 0.4375q0.53125 0.421875 0.53125 1.140625zm-1.1875 3.265625q0 0.296875 -0.21875 0.5q-0.21875 0.203125 -0.625 0.203125q-0.375 0 -0.625 -0.1875q-0.234375 -0.203125 -0.234375 -0.515625q0 -0.296875 0.234375 -0.5q0.25 -0.21875 0.609375 -0.21875q0.390625 0 0.625 0.21875q0.234375 0.21875 0.234375 0.5zm6.784363 -3.265625q0 0.59375 -0.40625 1.0q-0.40625 0.40625 -1.203125 0.609375l0 0.5625l-0.859375 0l0 -1.1875q0.890625 -0.140625 1.25 -0.359375q0.359375 -0.21875 0.359375 -0.625q0 -0.34375 -0.28125 -0.53125q-0.28125 -0.1875 -0.78125 -0.1875q-0.234375 0 -0.765625 0.078125l0 0.625l-0.859375 0l0 -1.25q0.359375 -0.140625 0.8125 -0.21875q0.453125 -0.09375 0.828125 -0.09375q0.84375 0 1.375 0.4375q0.53125 0.421875 0.53125 1.140625zm-1.1875 3.265625q0 0.296875 -0.21875 0.5q-0.21875 0.203125 -0.625 0.203125q-0.375 0 -0.625 -0.1875q-0.234375 -0.203125 -0.234375 -0.515625q0 -0.296875 0.234375 -0.5q0.25 -0.21875 0.609375 -0.21875q0.390625 0 0.625 0.21875q0.234375 0.21875 0.234375 0.5z" fill-rule="nonzero"/><path fill="#d9d2e9" d="m343.41357 57.78478l12.031494 0l0 19.212597l-12.031494 0z" fill-rule="evenodd"/><path stroke="#000000" stroke-width="1.0" stroke-linejoin="round" stroke-linecap="butt" d="m343.41357 57.78478l12.031494 0l0 19.212597l-12.031494 0z" fill-rule="evenodd"/><path fill="#000000" d="m348.41055 67.007324q0 0.59375 -0.40625 1.0q-0.40625 0.40625 -1.203125 0.609375l0 0.5625l-0.859375 0l0 -1.1875q0.890625 -0.140625 1.25 -0.359375q0.359375 -0.21875 0.359375 -0.625q0 -0.34375 -0.28125 -0.53125q-0.28125 -0.1875 -0.78125 -0.1875q-0.234375 0 -0.765625 0.078125l0 0.625l-0.859375 0l0 -1.25q0.359375 -0.140625 0.8125 -0.21875q0.453125 -0.09375 0.828125 -0.09375q0.84375 0 1.375 0.4375q0.53125 0.421875 0.53125 1.140625zm-1.1875 3.265625q0 0.296875 -0.21875 0.5q-0.21875 0.203125 -0.625 0.203125q-0.375 0 -0.625 -0.1875q-0.234375 -0.203125 -0.234375 -0.515625q0 -0.296875 0.234375 -0.5q0.25 -0.21875 0.609375 -0.21875q0.390625 0 0.625 0.21875q0.234375 0.21875 0.234375 0.5zm6.7843933 -3.265625q0 0.59375 -0.40625 1.0q-0.40625 0.40625 -1.203125 0.609375l0 0.5625l-0.859375 0l0 -1.1875q0.890625 -0.140625 1.25 -0.359375q0.359375 -0.21875 0.359375 -0.625q0 -0.34375 -0.28125 -0.53125q-0.28125 -0.1875 -0.78125 -0.1875q-0.234375 0 -0.765625 0.078125l0 0.625l-0.859375 0l0 -1.25q0.359375 -0.140625 0.8125 -0.21875q0.453125 -0.09375 0.828125 -0.09375q0.84375 0 1.375 0.4375q0.53125 0.421875 0.53125 1.140625zm-1.1875 3.265625q0 0.296875 -0.21875 0.5q-0.21875 0.203125 -0.625 0.203125q-0.375 0 -0.625 -0.1875q-0.234375 -0.203125 -0.234375 -0.515625q0 -0.296875 0.234375 -0.5q0.25 -0.21875 0.609375 -0.21875q0.390625 0 0.625 0.21875q0.234375 0.21875 0.234375 0.5z" fill-rule="nonzero"/><path fill="#d9d2e9" d="m355.4479 57.78478l12.031494 0l0 19.212597l-12.031494 0z" fill-rule="evenodd"/><path stroke="#000000" stroke-width="1.0" stroke-linejoin="round" stroke-linecap="butt" d="m355.4479 57.78478l12.031494 0l0 19.212597l-12.031494 0z" fill-rule="evenodd"/><path fill="#000000" d="m360.4449 67.007324q0 0.59375 -0.40625 1.0q-0.40625 0.40625 -1.203125 0.609375l0 0.5625l-0.859375 0l0 -1.1875q0.890625 -0.140625 1.25 -0.359375q0.359375 -0.21875 0.359375 -0.625q0 -0.34375 -0.28125 -0.53125q-0.28125 -0.1875 -0.78125 -0.1875q-0.234375 0 -0.765625 0.078125l0 0.625l-0.859375 0l0 -1.25q0.359375 -0.140625 0.8125 -0.21875q0.453125 -0.09375 0.828125 -0.09375q0.84375 0 1.375 0.4375q0.53125 0.421875 0.53125 1.140625zm-1.1875 3.265625q0 0.296875 -0.21875 0.5q-0.21875 0.203125 -0.625 0.203125q-0.375 0 -0.625 -0.1875q-0.234375 -0.203125 -0.234375 -0.515625q0 -0.296875 0.234375 -0.5q0.25 -0.21875 0.609375 -0.21875q0.390625 0 0.625 0.21875q0.234375 0.21875 0.234375 0.5zm6.7843933 -3.265625q0 0.59375 -0.40625 1.0q-0.40625 0.40625 -1.203125 0.609375l0 0.5625l-0.859375 0l0 -1.1875q0.890625 -0.140625 1.25 -0.359375q0.359375 -0.21875 0.359375 -0.625q0 -0.34375 -0.28125 -0.53125q-0.28125 -0.1875 -0.78125 -0.1875q-0.234375 0 -0.765625 0.078125l0 0.625l-0.859375 0l0 -1.25q0.359375 -0.140625 0.8125 -0.21875q0.453125 -0.09375 0.828125 -0.09375q0.84375 0 1.375 0.4375q0.53125 0.421875 0.53125 1.140625zm-1.1875 3.265625q0 0.296875 -0.21875 0.5q-0.21875 0.203125 -0.625 0.203125q-0.375 0 -0.625 -0.1875q-0.234375 -0.203125 -0.234375 -0.515625q0 -0.296875 0.234375 -0.5q0.25 -0.21875 0.609375 -0.21875q0.390625 0 0.625 0.21875q0.234375 0.21875 0.234375 0.5z" fill-rule="nonzero"/><path fill="#d9d2e9" d="m367.37103 57.78478l12.031494 0l0 19.212597l-12.031494 0z" fill-rule="evenodd"/><path stroke="#000000" stroke-width="1.0" stroke-linejoin="round" stroke-linecap="butt" d="m367.37103 57.78478l12.031494 0l0 19.212597l-12.031494 0z" fill-rule="evenodd"/><path fill="#000000" d="m372.36804 67.007324q0 0.59375 -0.40625 1.0q-0.40625 0.40625 -1.203125 0.609375l0 0.5625l-0.859375 0l0 -1.1875q0.890625 -0.140625 1.25 -0.359375q0.359375 -0.21875 0.359375 -0.625q0 -0.34375 -0.28125 -0.53125q-0.28125 -0.1875 -0.78125 -0.1875q-0.234375 0 -0.765625 0.078125l0 0.625l-0.859375 0l0 -1.25q0.359375 -0.140625 0.8125 -0.21875q0.453125 -0.09375 0.828125 -0.09375q0.84375 0 1.375 0.4375q0.53125 0.421875 0.53125 1.140625zm-1.1875 3.265625q0 0.296875 -0.21875 0.5q-0.21875 0.203125 -0.625 0.203125q-0.375 0 -0.625 -0.1875q-0.234375 -0.203125 -0.234375 -0.515625q0 -0.296875 0.234375 -0.5q0.25 -0.21875 0.609375 -0.21875q0.390625 0 0.625 0.21875q0.234375 0.21875 0.234375 0.5zm6.784363 -3.265625q0 0.59375 -0.40625 1.0q-0.40625 0.40625 -1.203125 0.609375l0 0.5625l-0.859375 0l0 -1.1875q0.890625 -0.140625 1.25 -0.359375q0.359375 -0.21875 0.359375 -0.625q0 -0.34375 -0.28125 -0.53125q-0.28125 -0.1875 -0.78125 -0.1875q-0.234375 0 -0.765625 0.078125l0 0.625l-0.859375 0l0 -1.25q0.359375 -0.140625 0.8125 -0.21875q0.453125 -0.09375 0.828125 -0.09375q0.84375 0 1.375 0.4375q0.53125 0.421875 0.53125 1.140625zm-1.1875 3.265625q0 0.296875 -0.21875 0.5q-0.21875 0.203125 -0.625 0.203125q-0.375 0 -0.625 -0.1875q-0.234375 -0.203125 -0.234375 -0.515625q0 -0.296875 0.234375 -0.5q0.25 -0.21875 0.609375 -0.21875q0.390625 0 0.625 0.21875q0.234375 0.21875 0.234375 0.5z" fill-rule="nonzero"/><path fill="#d9d2e9" d="m379.40536 57.78478l12.031494 0l0 19.212597l-12.031494 0z" fill-rule="evenodd"/><path stroke="#000000" stroke-width="1.0" stroke-linejoin="round" stroke-linecap="butt" d="m379.40536 57.78478l12.031494 0l0 19.212597l-12.031494 0z" fill-rule="evenodd"/><path fill="#000000" d="m384.40234 67.007324q0 0.59375 -0.40625 1.0q-0.40625 0.40625 -1.203125 0.609375l0 0.5625l-0.859375 0l0 -1.1875q0.890625 -0.140625 1.25 -0.359375q0.359375 -0.21875 0.359375 -0.625q0 -0.34375 -0.28125 -0.53125q-0.28125 -0.1875 -0.78125 -0.1875q-0.234375 0 -0.765625 0.078125l0 0.625l-0.859375 0l0 -1.25q0.359375 -0.140625 0.8125 -0.21875q0.453125 -0.09375 0.828125 -0.09375q0.84375 0 1.375 0.4375q0.53125 0.421875 0.53125 1.140625zm-1.1875 3.265625q0 0.296875 -0.21875 0.5q-0.21875 0.203125 -0.625 0.203125q-0.375 0 -0.625 -0.1875q-0.234375 -0.203125 -0.234375 -0.515625q0 -0.296875 0.234375 -0.5q0.25 -0.21875 0.609375 -0.21875q0.390625 0 0.625 0.21875q0.234375 0.21875 0.234375 0.5zm6.7843933 -3.265625q0 0.59375 -0.40625 1.0q-0.40625 0.40625 -1.203125 0.609375l0 0.5625l-0.859375 0l0 -1.1875q0.890625 -0.140625 1.25 -0.359375q0.359375 -0.21875 0.359375 -0.625q0 -0.34375 -0.28125 -0.53125q-0.28125 -0.1875 -0.78125 -0.1875q-0.234375 0 -0.765625 0.078125l0 0.625l-0.859375 0l0 -1.25q0.359375 -0.140625 0.8125 -0.21875q0.453125 -0.09375 0.828125 -0.09375q0.84375 0 1.375 0.4375q0.53125 0.421875 0.53125 1.140625zm-1.1875 3.265625q0 0.296875 -0.21875 0.5q-0.21875 0.203125 -0.625 0.203125q-0.375 0 -0.625 -0.1875q-0.234375 -0.203125 -0.234375 -0.515625q0 -0.296875 0.234375 -0.5q0.25 -0.21875 0.609375 -0.21875q0.390625 0 0.625 0.21875q0.234375 0.21875 0.234375 0.5z" fill-rule="nonzero"/><path fill="#d9d2e9" d="m391.3285 57.78478l12.031494 0l0 19.212597l-12.031494 0z" fill-rule="evenodd"/><path stroke="#000000" stroke-width="1.0" stroke-linejoin="round" stroke-linecap="butt" d="m391.3285 57.78478l12.031494 0l0 19.212597l-12.031494 0z" fill-rule="evenodd"/><path fill="#000000" d="m396.68488 69.976074l0 0.875l-4.0625 0l0 -0.875l1.609375 0l0 -3.828125l-1.5625 0.3125l0 -0.859375l2.4375 -0.484375l0 4.859375l1.578125 0zm5.596863 0l0 0.875l-4.0625 0l0 -0.875l1.609375 0l0 -3.828125l-1.5625 0.3125l0 -0.859375l2.4375 -0.484375l0 4.859375l1.578125 0z" fill-rule="nonzero"/><path fill="#d9d2e9" d="m403.36282 57.78478l12.031494 0l0 19.212597l-12.031494 0z" fill-rule="evenodd"/><path stroke="#000000" stroke-width="1.0" stroke-linejoin="round" stroke-linecap="butt" d="m403.36282 57.78478l12.031494 0l0 19.212597l-12.031494 0z" fill-rule="evenodd"/><path fill="#000000" d="m408.71918 69.976074l0 0.875l-4.0625 0l0 -0.875l1.609375 0l0 -3.828125l-1.5625 0.3125l0 -0.859375l2.4375 -0.484375l0 4.859375l1.578125 0zm5.3468933 -1.921875q0 1.40625 -0.484375 2.15625q-0.484375 0.75 -1.390625 0.75q-0.921875 0 -1.40625 -0.75q-0.484375 -0.765625 -0.484375 -2.15625q0 -1.40625 0.484375 -2.15625q0.5 -0.75 1.421875 -0.75q0.953125 0 1.40625 0.78125q0.453125 0.78125 0.453125 2.125zm-1.859375 2.046875q0.5 0 0.75 -0.515625q0.25 -0.53125 0.25 -1.5q0 -1.015625 -0.265625 -1.546875q-0.25 -0.53125 -0.765625 -0.53125q-0.5 0 -0.765625 0.53125q-0.25 0.53125 -0.25 1.515625q0 2.046875 1.046875 2.046875z" fill-rule="nonzero"/><path fill="#d9d2e9" d="m415.28595 57.78478l12.031494 0l0 19.212597l-12.031494 0z" fill-rule="evenodd"/><path stroke="#000000" stroke-width="1.0" stroke-linejoin="round" stroke-linecap="butt" d="m415.28595 57.78478l12.031494 0l0 19.212597l-12.031494 0z" fill-rule="evenodd"/><path fill="#000000" d="m420.39233 68.0542q0 1.40625 -0.484375 2.15625q-0.484375 0.75 -1.390625 0.75q-0.921875 0 -1.40625 -0.75q-0.484375 -0.765625 -0.484375 -2.15625q0 -1.40625 0.484375 -2.15625q0.5 -0.75 1.421875 -0.75q0.953125 0 1.40625 0.78125q0.453125 0.78125 0.453125 2.125zm-1.859375 2.046875q0.5 0 0.75 -0.515625q0.25 -0.53125 0.25 -1.5q0 -1.015625 -0.265625 -1.546875q-0.25 -0.53125 -0.765625 -0.53125q-0.5 0 -0.765625 0.53125q-0.25 0.53125 -0.25 1.515625q0 2.046875 1.046875 2.046875zm7.456238 -2.046875q0 1.40625 -0.484375 2.15625q-0.484375 0.75 -1.390625 0.75q-0.921875 0 -1.40625 -0.75q-0.484375 -0.765625 -0.484375 -2.15625q0 -1.40625 0.484375 -2.15625q0.5 -0.75 1.421875 -0.75q0.953125 0 1.40625 0.78125q0.453125 0.78125 0.453125 2.125zm-1.859375 2.046875q0.5 0 0.75 -0.515625q0.25 -0.53125 0.25 -1.5q0 -1.015625 -0.265625 -1.546875q-0.25 -0.53125 -0.765625 -0.53125q-0.5 0 -0.765625 0.53125q-0.25 0.53125 -0.25 1.515625q0 2.046875 1.046875 2.046875z" fill-rule="nonzero"/><path fill="#d9d2e9" d="m427.32028 57.78478l12.031494 0l0 19.212597l-12.031494 0z" fill-rule="evenodd"/><path stroke="#000000" stroke-width="1.0" stroke-linejoin="round" stroke-linecap="butt" d="m427.32028 57.78478l12.031494 0l0 19.212597l-12.031494 0z" fill-rule="evenodd"/><path fill="#000000" d="m432.42667 68.0542q0 1.40625 -0.484375 2.15625q-0.484375 0.75 -1.390625 0.75q-0.921875 0 -1.40625 -0.75q-0.484375 -0.765625 -0.484375 -2.15625q0 -1.40625 0.484375 -2.15625q0.5 -0.75 1.421875 -0.75q0.953125 0 1.40625 0.78125q0.453125 0.78125 0.453125 2.125zm-1.859375 2.046875q0.5 0 0.75 -0.515625q0.25 -0.53125 0.25 -1.5q0 -1.015625 -0.265625 -1.546875q-0.25 -0.53125 -0.765625 -0.53125q-0.5 0 -0.765625 0.53125q-0.25 0.53125 -0.25 1.515625q0 2.046875 1.046875 2.046875zm7.456238 -2.046875q0 1.40625 -0.484375 2.15625q-0.484375 0.75 -1.390625 0.75q-0.921875 0 -1.40625 -0.75q-0.484375 -0.765625 -0.484375 -2.15625q0 -1.40625 0.484375 -2.15625q0.5 -0.75 1.421875 -0.75q0.953125 0 1.40625 0.78125q0.453125 0.78125 0.453125 2.125zm-1.859375 2.046875q0.5 0 0.75 -0.515625q0.25 -0.53125 0.25 -1.5q0 -1.015625 -0.265625 -1.546875q-0.25 -0.53125 -0.765625 -0.53125q-0.5 0 -0.765625 0.53125q-0.25 0.53125 -0.25 1.515625q0 2.046875 1.046875 2.046875z" fill-rule="nonzero"/><path fill="#000000" fill-opacity="0.0" d="m36.721786 52.986877l0 73.59278l261.3228 0l0 28.958397" fill-rule="evenodd"/><path stroke="#000000" stroke-width="2.0" stroke-linejoin="round" stroke-linecap="butt" d="m36.721786 52.986877l0 73.59277l261.3228 0l0 16.958405" fill-rule="evenodd"/><path fill="#000000" stroke="#000000" stroke-width="2.0" stroke-linecap="butt" d="m294.74115 143.53806l3.3034668 9.076202l3.3034668 -9.076202z" fill-rule="evenodd"/><path fill="#000000" fill-opacity="0.0" d="m84.66922 52.986877l0 73.59278l69.543304 0l0 28.958397" fill-rule="evenodd"/><path stroke="#000000" stroke-width="2.0" stroke-linejoin="round" stroke-linecap="butt" d="m84.66922 52.986877l0 73.59277l69.543304 0l0 16.958405" fill-rule="evenodd"/><path fill="#000000" stroke="#000000" stroke-width="2.0" stroke-linecap="butt" d="m150.90906 143.53806l3.3034668 9.076202l3.3034668 -9.076202z" fill-rule="evenodd"/><path fill="#000000" fill-opacity="0.0" d="m132.61665 52.986877l0 73.59278l69.543304 0l0 28.958397" fill-rule="evenodd"/><path stroke="#000000" stroke-width="2.0" stroke-linejoin="round" stroke-linecap="butt" d="m132.61665 52.986877l0 73.59277l69.543304 0l0 16.958405" fill-rule="evenodd"/><path fill="#000000" stroke="#000000" stroke-width="2.0" stroke-linecap="butt" d="m198.85649 143.53806l3.3034668 9.076202l3.3034668 -9.076202z" fill-rule="evenodd"/><path fill="#000000" fill-opacity="0.0" d="m180.56409 52.986877l0 73.59278l69.543304 0l0 28.958397" fill-rule="evenodd"/><path stroke="#000000" stroke-width="2.0" stroke-linejoin="round" stroke-linecap="butt" d="m180.56407 52.986877l0 73.59277l69.54332 0l0 16.958405" fill-rule="evenodd"/><path fill="#000000" stroke="#000000" stroke-width="2.0" stroke-linecap="butt" d="m246.80392 143.53806l3.3034668 9.076202l3.3034668 -9.076202z" fill-rule="evenodd"/><path fill="#000000" fill-opacity="0.0" d="m433.33603 76.997375l0 92.944885l-123.3071 0" fill-rule="evenodd"/><path stroke="#ff0000" stroke-width="1.0" stroke-linejoin="round" stroke-linecap="butt" d="m433.33603 76.997375l0 92.944885l-117.30707 0" fill-rule="evenodd"/><path fill="#ff0000" stroke="#ff0000" stroke-width="1.0" stroke-linecap="butt" d="m316.02896 168.29053l-4.5381165 1.6517334l4.5381165 1.6517334z" fill-rule="evenodd"/><path fill="#000000" fill-opacity="0.0" d="m421.3017 76.997375l0 45.133858l-144.59842 0" fill-rule="evenodd"/><path stroke="#ff0000" stroke-width="1.0" stroke-linejoin="round" stroke-linecap="butt" d="m421.3017 76.997375l0 45.133858l-144.59842 0" fill-rule="evenodd"/><path fill="#000000" fill-opacity="0.0" d="m229.3937 112.60997l0 57.322845l-15.244095 0" fill-rule="evenodd"/><path stroke="#ff0000" stroke-width="1.0" stroke-linejoin="round" stroke-linecap="butt" d="m229.3937 112.60997l0 57.32283l-9.244095 0" fill-rule="evenodd"/><path fill="#ff0000" stroke="#ff0000" stroke-width="1.0" stroke-linecap="butt" d="m220.14961 168.28107l-4.538101 1.6517334l4.538101 1.6517334z" fill-rule="evenodd"/><path fill="#000000" fill-opacity="0.0" d="m166.2021 169.93282l19.874008 0l0 -65.16536" fill-rule="evenodd"/><path stroke="#ff0000" stroke-width="1.0" stroke-linejoin="round" stroke-linecap="butt" d="m172.2021 169.9328l13.874008 0l0 -65.16535" fill-rule="evenodd"/><path fill="#ff0000" stroke="#ff0000" stroke-width="1.0" stroke-linecap="butt" d="m172.2021 168.28107l-4.538101 1.6517334l4.538101 1.6517334z" fill-rule="evenodd"/><path fill="#000000" fill-opacity="0.0" d="m397.34424 76.997375l0 28.314957l-211.2441 0" fill-rule="evenodd"/><path stroke="#ff0000" stroke-width="1.0" stroke-linejoin="round" stroke-linecap="butt" d="m397.34424 76.997375l0 28.314957l-211.2441 0" fill-rule="evenodd"/><path fill="#000000" fill-opacity="0.0" d="m409.37857 76.997375l0 35.968506l-180.7559 0" fill-rule="evenodd"/><path stroke="#ff0000" stroke-width="1.0" stroke-linejoin="round" stroke-linecap="butt" d="m409.37857 76.997375l0 35.968506l-180.7559 0" fill-rule="evenodd"/><path fill="#000000" fill-opacity="0.0" d="m276.33334 121.743835l0 48.18898l-14.236237 0" fill-rule="evenodd"/><path stroke="#ff0000" stroke-width="1.0" stroke-linejoin="round" stroke-linecap="butt" d="m276.33334 121.74383l0 48.188972l-8.236237 0" fill-rule="evenodd"/><path fill="#ff0000" stroke="#ff0000" stroke-width="1.0" stroke-linecap="butt" d="m268.0971 168.28107l-4.538086 1.6517334l4.538086 1.6517334z" fill-rule="evenodd"/></g></svg>