<svg version="1.1" viewBox="0.0 0.0 213.91601049868765 175.71653543307087" fill="none" stroke="none" stroke-linecap="square" stroke-miterlimit="10" xmlns:xlink="http://www.w3.org/1999/xlink" xmlns="http://www.w3.org/2000/svg"><clipPath id="p.0"><path d="m0 0l213.91602 0l0 175.71654l-213.91602 0l0 -175.71654z" clip-rule="nonzero"/></clipPath><g clip-path="url(#p.0)"><path fill="#000000" fill-opacity="0.0" d="m0 0l213.91602 0l0 175.71654l-213.91602 0z" fill-rule="evenodd"/><path fill="#ffffff" d="m0.002624672 0l213.92126 0l0 175.71654l-213.92126 0z" fill-rule="evenodd"/><path stroke="#000000" stroke-width="1.0" stroke-linejoin="round" stroke-linecap="butt" d="m0.002624672 0l213.92126 0l0 175.71654l-213.92126 0z" fill-rule="evenodd"/><path fill="#d9d9d9" d="m5.5249343 118.70998l202.86615 0l0 51.2126l-202.86615 0z" fill-rule="evenodd"/><path stroke="#000000" stroke-width="2.0" stroke-linejoin="round" stroke-linecap="butt" d="m5.5249343 118.70998l202.86615 0l0 51.2126l-202.86615 0z" fill-rule="evenodd"/><path fill="#000000" d="m83.93923 160.53008q0 1.765625 -0.71875 3.015625q-0.703125 1.25 -1.84375 1.890625q-1.140625 0.625 -2.359375 0.625q-1.34375 0 -2.484375 -0.65625q-1.140625 -0.65625 -1.8125 -1.90625q-0.671875 -1.25 -0.671875 -2.9375q0 -1.53125 0.625 -2.8125q0.640625 -1.296875 1.765625 -2.03125q1.140625 -0.75 2.578125 -0.75q1.453125 0 2.578125 0.765625q1.125 0.765625 1.734375 2.03125q0.609375 1.265625 0.609375 2.765625zm-4.921875 3.84375q1.0 0 1.71875 -0.546875q0.734375 -0.5625 1.109375 -1.46875q0.390625 -0.90625 0.390625 -1.90625q0 -0.9375 -0.390625 -1.796875q-0.375 -0.875 -1.109375 -1.40625q-0.734375 -0.546875 -1.75 -0.546875q-0.90625 0 -1.640625 0.53125q-0.734375 0.53125 -1.140625 1.40625q-0.40625 0.859375 -0.40625 1.875q0 1.03125 0.390625 1.921875q0.390625 0.890625 1.125 1.421875q0.75 0.515625 1.703125 0.515625zm10.818756 -7.46875l-1.71875 0l0 5.34375q0 1.109375 0.53125 1.59375q0.53125 0.484375 1.65625 0.484375q1.25 0 1.765625 -0.546875q0.515625 -0.546875 0.515625 -1.859375l0 -5.015625l-1.75 0l0 -1.734375l4.890625 0l0 1.734375l-1.421875 0l0 5.40625q0 0.921875 -0.28125 1.671875q-0.28125 0.734375 -0.796875 1.1875q-0.515625 0.453125 -1.359375 0.671875q-0.828125 0.21875 -1.546875 0.21875q-1.0625 0 -1.78125 -0.25q-0.703125 -0.25 -1.21875 -0.765625q-0.921875 -0.859375 -0.921875 -2.9375l0 -5.203125l-1.453125 0l0 -1.734375l4.890625 0l0 1.734375zm16.428131 2.328125l-1.734375 0l0 -2.328125l-2.265625 0l0 7.203125l2.25 0l0 1.734375l-6.234375 0l0 -1.734375l2.234375 0l0 -7.203125l-2.265625 0l0 2.328125l-1.734375 0l0 -4.0625l9.75 0l0 4.0625zm10.865631 -0.46875q0 1.0 -0.484375 1.78125q-0.46875 0.78125 -1.296875 1.21875q-0.828125 0.4375 -1.828125 0.4375l-2.25 0l0 1.90625l2.265625 0l0 1.734375l-5.453125 0l0 -1.734375l1.46875 0l0 -7.203125l-1.453125 0l0 -1.734375l4.921875 0q1.9375 0 3.015625 0.953125q1.09375 0.953125 1.09375 2.640625zm-1.71875 -0.046875q0 -0.828125 -0.609375 -1.3125q-0.609375 -0.5 -1.78125 -0.5l-1.75 0l0 3.5625l1.9375 0q2.203125 0 2.203125 -1.75zm8.006256 -1.8125l-1.71875 0l0 5.34375q0 1.109375 0.53125 1.59375q0.53125 0.484375 1.65625 0.484375q1.25 0 1.765625 -0.546875q0.515625 -0.546875 0.515625 -1.859375l0 -5.015625l-1.75 0l0 -1.734375l4.8906326 0l0 1.734375l-1.4218826 0l0 5.40625q0 0.921875 -0.28125 1.671875q-0.28125 0.734375 -0.796875 1.1875q-0.515625 0.453125 -1.359375 0.671875q-0.828125 0.21875 -1.546875 0.21875q-1.0625 0 -1.78125 -0.25q-0.703125 -0.25 -1.21875 -0.765625q-0.921875 -0.859375 -0.921875 -2.9375l0 -5.203125l-1.453125 0l0 -1.734375l4.890625 0l0 1.734375zm16.428139 2.328125l-1.734375 0l0 -2.328125l-2.265625 0l0 7.203125l2.25 0l0 1.734375l-6.234375 0l0 -1.734375l2.234375 0l0 -7.203125l-2.265625 0l0 2.328125l-1.734375 0l0 -4.0625l9.75 0l0 4.0625z" fill-rule="nonzero"/><path fill="#d9d9d9" d="m5.5249343 5.7926507l202.86615 0l0 51.212597l-202.86615 0z" fill-rule="evenodd"/><path stroke="#000000" stroke-width="2.0" stroke-linejoin="round" stroke-linecap="butt" d="m5.5249343 5.7926507l202.86615 0l0 51.212597l-202.86615 0z" fill-rule="evenodd"/><path fill="#000000" d="m77.95486 14.775149l-1.4375 0l2.609375 6.687499l2.53125 -6.687499l-1.671875 0l0 -1.734375l4.609375 0l0 1.734375l-1.25 0l-3.390625 8.937499l-1.734375 0l-3.484375 -8.937499l-1.375 0l0 -1.734375l4.59375 0l0 1.734375zm16.693756 7.203124l1.046875 0l0 1.734375l-4.359375 0l0 -1.734375l1.5625 0l-0.546875 -1.265625l-4.328125 0l-0.546875 1.265625l1.609375 0l0 1.734375l-4.4375 0l0 -1.734375l1.09375 0l3.046875 -7.203124l-2.296875 0l0 -1.734375l4.5 0l3.65625 8.937499zm-2.984375 -3.0l-1.453125 -3.453124l-1.46875 3.453124l2.921875 0zm10.771881 -4.203124l-2.234375 0l0 7.203124l4.234375 0l0 -3.28125l1.734375 0l0 5.015625l-9.453125 0l0 -1.734375l1.765625 0l0 -7.203124l-1.765625 0l0 -1.734375l5.71875 0l0 1.734375zm9.787506 0l-1.71875 0l0 5.343749q0 1.109375 0.53125 1.59375q0.53125 0.484375 1.65625 0.484375q1.25 0 1.765625 -0.546875q0.515625 -0.546875 0.515625 -1.859375l0 -5.015624l-1.75 0l0 -1.734375l4.890625 0l0 1.734375l-1.421875 0l0 5.406249q0 0.921875 -0.28125 1.671875q-0.28125 0.734375 -0.796875 1.1875q-0.515625 0.453125 -1.359375 0.671875q-0.828125 0.21875 -1.546875 0.21875q-1.0625 0 -1.78125 -0.25q-0.703125 -0.25 -1.21875 -0.765625q-0.921875 -0.859375 -0.921875 -2.9375l0 -5.203124l-1.453125 0l0 -1.734375l4.890625 0l0 1.734375zm16.209389 2.218749l-1.7343826 0l0 -2.218749l-4.46875 0l0 2.656249l1.984375 0l0 -1.234375l1.734375 0l0 4.171875l-1.734375 0l0 -1.234375l-1.984375 0l0 2.84375l4.46875 0l0 -2.171875l1.7343826 0l0 3.90625l-9.390633 0l0 -1.734375l1.484375 0l0 -7.203124l-1.4375 0l0 -1.734375l9.343758 0l0 3.953124zm8.740631 -3.734374l0 -0.421875l1.71875 0l0 4.015624l-1.71875 0l0 -1.796874q-1.09375 -0.5 -2.03125 -0.5q-1.015625 0 -1.703125 0.5q-0.671875 0.5 -0.671875 1.187499q0 0.609375 0.390625 0.921875q0.390625 0.296875 0.953125 0.40625q0.5625 0.109375 1.5625 0.203125l0.71875 0.078125q1.34375 0.171875 2.109375 0.875q0.765625 0.6875 0.765625 1.921875q0 0.984375 -0.5625 1.734375q-0.546875 0.75 -1.515625 1.171875q-0.953125 0.40625 -2.15625 0.40625q-0.65625 0 -1.25 -0.15625q-0.59375 -0.15625 -1.34375 -0.515625l0 0.671875l-1.71875 0l0 -3.90625l1.71875 0l0 1.421875q1.265625 0.765625 2.609375 0.765625q1.21875 0 1.875 -0.40625q0.65625 -0.421875 0.65625 -1.1875q0 -0.65625 -0.515625 -0.953125q-0.515625 -0.296875 -1.765625 -0.3125q-2.09375 -0.03125 -3.1875 -0.890625q-1.09375 -0.859375 -1.09375 -2.25q0 -0.87499905 0.515625 -1.656249q0.515625 -0.796875 1.4375 -1.265625q0.921875 -0.484375 2.109375 -0.484375q1.15625 0 2.09375 0.421875z" fill-rule="nonzero"/><path fill="#d9d2e9" d="m10.608924 28.20735l47.937008 0l0 23.999998l-47.937008 0z" fill-rule="evenodd"/><path stroke="#000000" stroke-width="2.0" stroke-linejoin="round" stroke-linecap="butt" d="m10.608924 28.20735l47.937008 0l0 23.999998l-47.937008 0z" fill-rule="evenodd"/><path fill="#000000" d="m39.058674 45.39297l1.046875 0l0 1.734375l-4.359375 0l0 -1.734375l1.5625 0l-0.546875 -1.265625l-4.328125 0l-0.546875 1.265625l1.609375 0l0 1.734375l-4.4375 0l0 -1.734375l1.09375 0l3.046875 -7.203125l-2.296875 0l0 -1.734375l4.5 0l3.65625 8.9375zm-2.984375 -3.0l-1.453125 -3.453125l-1.46875 3.453125l2.921875 0z" fill-rule="nonzero"/><path fill="#d9d2e9" d="m58.556355 28.20735l47.937008 0l0 23.999998l-47.937008 0z" fill-rule="evenodd"/><path stroke="#000000" stroke-width="2.0" stroke-linejoin="round" stroke-linecap="butt" d="m58.556355 28.20735l47.937008 0l0 23.999998l-47.937008 0z" fill-rule="evenodd"/><path fill="#000000" d="m86.64673 39.36172q0 0.640625 -0.28125 1.203125q-0.265625 0.5625 -0.78125 0.96875q0.984375 0.5625 1.34375 1.1875q0.359375 0.625 0.359375 1.390625q0 0.875 -0.46875 1.5625q-0.453125 0.6875 -1.234375 1.078125q-0.78125 0.375 -1.765625 0.375l-6.21875 0l0 -1.734375l1.453125 0l0 -7.203125l-1.453125 0l0 -1.734375l5.5 0q1.609375 0 2.578125 0.8125q0.96875 0.8125 0.96875 2.09375zm-1.703125 0.0625q0 -0.546875 -0.453125 -0.890625q-0.453125 -0.34375 -1.1875 -0.34375l-2.53125 0l0 2.5625l2.421875 0q0.71875 0 1.234375 -0.34375q0.515625 -0.359375 0.515625 -0.984375zm0.625 4.5625q0 -0.734375 -0.65625 -1.109375q-0.65625 -0.390625 -1.890625 -0.390625l-2.25 0l0 2.90625l3.09375 0q0.671875 0 1.1875 -0.375q0.515625 -0.375 0.515625 -1.03125z" fill-rule="nonzero"/><path fill="#d9d2e9" d="m106.50379 28.20735l47.937004 0l0 23.999998l-47.937004 0z" fill-rule="evenodd"/><path stroke="#000000" stroke-width="2.0" stroke-linejoin="round" stroke-linecap="butt" d="m106.50379 28.20735l47.937004 0l0 23.999998l-47.937004 0z" fill-rule="evenodd"/><path fill="#000000" d="m133.68791 37.033596l0 -0.78125l1.703125 0l0 4.34375l-1.703125 0l0 -1.765625q-1.390625 -0.875 -2.734375 -0.875q-0.890625 0 -1.671875 0.453125q-0.765625 0.453125 -1.234375 1.3125q-0.46875 0.859375 -0.46875 2.03125q0 1.75 0.90625 2.8125q0.90625 1.0625 2.515625 1.0625q0.796875 0 1.671875 -0.296875q0.890625 -0.3125 1.734375 -0.90625l1.046875 1.265625q-0.796875 0.75 -2.125 1.203125q-1.328125 0.453125 -2.296875 0.453125q-2.390625 0 -3.859375 -1.71875q-0.625 -0.703125 -0.984375 -1.796875q-0.34375 -1.09375 -0.34375 -2.09375q0 -1.5625 0.671875 -2.8125q0.671875 -1.25 1.828125 -1.953125q1.15625 -0.71875 2.59375 -0.71875q0.78125 0 1.5 0.21875q0.734375 0.203125 1.25 0.5625z" fill-rule="nonzero"/><path fill="#d9d2e9" d="m154.45122 28.20735l47.93701 0l0 23.999998l-47.93701 0z" fill-rule="evenodd"/><path stroke="#000000" stroke-width="2.0" stroke-linejoin="round" stroke-linecap="butt" d="m154.45122 28.20735l47.93701 0l0 23.999998l-47.93701 0z" fill-rule="evenodd"/><path fill="#000000" d="m183.32285 41.58047q0 2.75 -1.34375 4.15625q-1.34375 1.390625 -3.78125 1.390625l-4.890625 0l0 -1.734375l1.46875 0l0 -7.203125l-1.46875 0l0 -1.734375l5.375 0q1.484375 0 2.53125 0.671875q1.046875 0.65625 1.578125 1.8125q0.53125 1.15625 0.53125 2.640625zm-1.71875 0.078125q0 -1.65625 -0.78125 -2.5625q-0.78125 -0.90625 -2.140625 -0.90625l-2.1875 0l0 7.203125l2.0625 0q1.265625 0 2.15625 -0.875q0.890625 -0.875 0.890625 -2.859375z" fill-rule="nonzero"/><path fill="#d9d2e9" d="m10.766404 123.55249l47.937008 0l0 24.0l-47.937008 0z" fill-rule="evenodd"/><path stroke="#000000" stroke-width="2.0" stroke-linejoin="round" stroke-linecap="butt" d="m10.766404 123.55249l47.937008 0l0 24.0l-47.937008 0z" fill-rule="evenodd"/><path fill="#000000" d="m33.89975 124.502495l0.71875 0l-3.046875 19.015617l-4.84375 -9.96875l-1.921875 0.875l-0.34375 -0.625l2.953125 -1.46875l3.953125 8.03125l2.53125 -15.859367z" fill-rule="nonzero"/><path fill="#000000" d="m44.704437 141.01811l1.046875 0l0 1.734375l-4.359375 0l0 -1.734375l1.5625 0l-0.546875 -1.265625l-4.328125 0l-0.546875 1.265625l1.609375 0l0 1.734375l-4.4375 0l0 -1.734375l1.09375 0l3.046875 -7.203125l-2.296875 0l0 -1.734375l4.5 0l3.65625 8.9375zm-2.984375 -3.0l-1.453125 -3.453125l-1.46875 3.453125l2.921875 0z" fill-rule="nonzero"/><path fill="#d9d2e9" d="m58.713837 123.55249l47.937004 0l0 24.0l-47.937004 0z" fill-rule="evenodd"/><path stroke="#000000" stroke-width="2.0" stroke-linejoin="round" stroke-linecap="butt" d="m58.713837 123.55249l47.937004 0l0 24.0l-47.937004 0z" fill-rule="evenodd"/><path fill="#000000" d="m81.84718 124.502495l0.71875 0l-3.046875 19.015617l-4.84375 -9.96875l-1.921875 0.875l-0.34375 -0.625l2.953125 -1.46875l3.953125 8.03125l2.53125 -15.859367z" fill-rule="nonzero"/><path fill="#000000" d="m92.292496 134.98686q0 0.640625 -0.28125 1.203125q-0.265625 0.5625 -0.78125 0.96875q0.984375 0.5625 1.34375 1.1875q0.359375 0.625 0.359375 1.390625q0 0.875 -0.46875 1.5625q-0.453125 0.6875 -1.234375 1.078125q-0.78125 0.375 -1.765625 0.375l-6.21875 0l0 -1.734375l1.453125 0l0 -7.203125l-1.453125 0l0 -1.734375l5.5 0q1.609375 0 2.578125 0.8125q0.96875 0.8125 0.96875 2.09375zm-1.703125 0.0625q0 -0.546875 -0.453125 -0.890625q-0.453125 -0.34375 -1.1875 -0.34375l-2.53125 0l0 2.5625l2.421875 0q0.71875 0 1.234375 -0.34375q0.515625 -0.359375 0.515625 -0.984375zm0.625 4.5625q0 -0.734375 -0.65625 -1.109375q-0.65625 -0.390625 -1.890625 -0.390625l-2.25 0l0 2.90625l3.09375 0q0.671875 0 1.1875 -0.375q0.515625 -0.375 0.515625 -1.03125z" fill-rule="nonzero"/><path fill="#d9d2e9" d="m106.66127 123.55249l47.93701 0l0 24.0l-47.93701 0z" fill-rule="evenodd"/><path stroke="#000000" stroke-width="2.0" stroke-linejoin="round" stroke-linecap="butt" d="m106.66127 123.55249l47.93701 0l0 24.0l-47.93701 0z" fill-rule="evenodd"/><path fill="#000000" d="m129.79462 124.502495l0.71875 0l-3.046875 19.015617l-4.84375 -9.96875l-1.921875 0.875l-0.34375 -0.625l2.953125 -1.46875l3.953125 8.03125l2.53125 -15.859367z" fill-rule="nonzero"/><path fill="#000000" d="m139.33368 132.65874l0 -0.78125l1.703125 0l0 4.34375l-1.703125 0l0 -1.765625q-1.390625 -0.875 -2.734375 -0.875q-0.890625 0 -1.671875 0.453125q-0.765625 0.453125 -1.234375 1.3125q-0.46875 0.859375 -0.46875 2.03125q0 1.75 0.90625 2.8125q0.90625 1.0625 2.515625 1.0625q0.796875 0 1.671875 -0.296875q0.890625 -0.3125 1.734375 -0.90625l1.046875 1.265625q-0.796875 0.75 -2.125 1.203125q-1.328125 0.453125 -2.296875 0.453125q-2.390625 0 -3.859375 -1.71875q-0.625 -0.703125 -0.984375 -1.796875q-0.34375 -1.09375 -0.34375 -2.09375q0 -1.5625 0.671875 -2.8125q0.671875 -1.25 1.828125 -1.953125q1.15625 -0.71875 2.59375 -0.71875q0.78125 0 1.5 0.21875q0.734375 0.203125 1.25 0.5625z" fill-rule="nonzero"/><path fill="#d9d2e9" d="m154.6087 123.55249l47.93701 0l0 24.0l-47.93701 0z" fill-rule="evenodd"/><path stroke="#000000" stroke-width="2.0" stroke-linejoin="round" stroke-linecap="butt" d="m154.6087 123.55249l47.93701 0l0 24.0l-47.93701 0z" fill-rule="evenodd"/><path fill="#000000" d="m177.74205 124.502495l0.71875 0l-3.046875 19.015617l-4.84375 -9.96875l-1.921875 0.875l-0.34375 -0.625l2.953125 -1.46875l3.953125 8.03125l2.53125 -15.859367z" fill-rule="nonzero"/><path fill="#000000" d="m188.96861 137.20561q0 2.75 -1.34375 4.15625q-1.34375 1.390625 -3.78125 1.390625l-4.890625 0l0 -1.734375l1.46875 0l0 -7.203125l-1.46875 0l0 -1.734375l5.375 0q1.484375 0 2.53125 0.671875q1.046875 0.65625 1.578125 1.8125q0.53125 1.15625 0.53125 2.640625zm-1.71875 0.078125q0 -1.65625 -0.78125 -2.5625q-0.78125 -0.90625 -2.140625 -0.90625l-2.1875 0l0 7.203125l2.0625 0q1.265625 0 2.15625 -0.875q0.890625 -0.875 0.890625 -2.859375z" fill-rule="nonzero"/><path fill="#d9d9d9" d="m22.73491 76.8727l24.0 0l0 23.04l-12.0 5.760002l-12.0 -5.760002z" fill-rule="evenodd"/><path stroke="#000000" stroke-width="2.0" stroke-linejoin="round" stroke-linecap="butt" d="m22.73491 76.8727l24.0 0l0 23.04l-12.0 5.760002l-12.0 -5.760002z" fill-rule="evenodd"/><path fill="#000000" d="m40.142715 80.48083l0.8125 0l-3.453125 21.53125l-5.484375 -11.296875l-2.1875 1.015625l-0.375 -0.71875l3.328125 -1.65625l4.46875 9.09375l2.890625 -17.96875z" fill-rule="nonzero"/><path fill="#000000" fill-opacity="0.0" d="m34.577427 52.207348c0 6.1663437 0.03937149 9.250004 0.078739166 12.332684c0.03937149 3.0826797 0.07874298 6.1643677 0.07874298 12.328735" fill-rule="evenodd"/><path stroke="#000000" stroke-width="2.0" stroke-linejoin="round" stroke-linecap="butt" d="m34.577427 52.207348c0 6.16634 0.03937149 9.250008 0.078739166 12.332684l0.004032135 0.32896423" fill-rule="evenodd"/><path fill="#000000" stroke="#000000" stroke-width="2.0" stroke-linecap="butt" d="m31.356798 64.889565l3.3599072 9.05545l3.2468948 -9.0965805z" fill-rule="evenodd"/><path fill="#000000" fill-opacity="0.0" d="m34.73491 105.67271l0 17.889763" fill-rule="evenodd"/><path stroke="#000000" stroke-width="2.0" stroke-linejoin="round" stroke-linecap="butt" d="m34.73491 105.67271l0 5.889763" fill-rule="evenodd"/><path fill="#000000" stroke="#000000" stroke-width="2.0" stroke-linecap="butt" d="m31.431444 111.56247l3.303465 9.076195l3.303463 -9.076195z" fill-rule="evenodd"/><path fill="#d9d9d9" d="m70.68241 76.8727l24.0 0l0 23.04l-12.0 5.760002l-12.0 -5.760002z" fill-rule="evenodd"/><path stroke="#000000" stroke-width="2.0" stroke-linejoin="round" stroke-linecap="butt" d="m70.68241 76.8727l24.0 0l0 23.04l-12.0 5.760002l-12.0 -5.760002z" fill-rule="evenodd"/><path fill="#000000" d="m88.09022 80.48083l0.8125 0l-3.453125 21.53125l-5.484375 -11.296875l-2.1875 1.015625l-0.375 -0.71875l3.328125 -1.65625l4.46875 9.09375l2.890625 -17.96875z" fill-rule="nonzero"/><path fill="#d9d9d9" d="m118.62992 76.8727l24.000008 0l0 23.04l-12.0 5.760002l-12.000008 -5.760002z" fill-rule="evenodd"/><path stroke="#000000" stroke-width="2.0" stroke-linejoin="round" stroke-linecap="butt" d="m118.62992 76.8727l24.000008 0l0 23.04l-12.0 5.760002l-12.000008 -5.760002z" fill-rule="evenodd"/><path fill="#000000" d="m136.03773 80.48083l0.8125 0l-3.453125 21.53125l-5.4843826 -11.296875l-2.1875 1.015625l-0.375 -0.71875l3.3281326 -1.65625l4.46875 9.09375l2.890625 -17.96875z" fill-rule="nonzero"/><path fill="#d9d9d9" d="m166.57742 76.8727l24.0 0l0 23.04l-12.0 5.760002l-12.0 -5.760002z" fill-rule="evenodd"/><path stroke="#000000" stroke-width="2.0" stroke-linejoin="round" stroke-linecap="butt" d="m166.57742 76.8727l24.0 0l0 23.04l-12.0 5.760002l-12.0 -5.760002z" fill-rule="evenodd"/><path fill="#000000" d="m183.98523 80.48083l0.8125 0l-3.453125 21.53125l-5.484375 -11.296875l-2.1875 1.015625l-0.375 -0.71875l3.328125 -1.65625l4.46875 9.09375l2.890625 -17.96875z" fill-rule="nonzero"/><path fill="#000000" fill-opacity="0.0" d="m82.52486 52.207348c0 6.1663437 0.039375305 9.250004 0.07874298 12.332684c0.039367676 3.0826797 0.07874298 6.1643677 0.07874298 12.328735" fill-rule="evenodd"/><path stroke="#000000" stroke-width="2.0" stroke-linejoin="round" stroke-linecap="butt" d="m82.524864 52.207348c0 6.16634 0.039367676 9.250008 0.07873535 12.332684l0.0040359497 0.32896423" fill-rule="evenodd"/><path fill="#000000" stroke="#000000" stroke-width="2.0" stroke-linecap="butt" d="m79.30423 64.889565l3.359909 9.05545l3.2468948 -9.0965805z" fill-rule="evenodd"/><path fill="#000000" fill-opacity="0.0" d="m130.47229 52.207348c0 6.1663437 0.039367676 9.250004 0.07873535 12.332684c0.039382935 3.0826797 0.07875061 6.1643677 0.07875061 12.328735" fill-rule="evenodd"/><path stroke="#000000" stroke-width="2.0" stroke-linejoin="round" stroke-linecap="butt" d="m130.47229 52.207348c0 6.16634 0.039382935 9.250008 0.07875061 12.332684l0.0040283203 0.32896423" fill-rule="evenodd"/><path fill="#000000" stroke="#000000" stroke-width="2.0" stroke-linecap="butt" d="m127.25166 64.889565l3.359909 9.05545l3.2469025 -9.0965805z" fill-rule="evenodd"/><path fill="#000000" fill-opacity="0.0" d="m178.41972 52.207348c0 6.1663437 0.039367676 9.250004 0.07873535 12.332684c0.039382935 3.0826797 0.07875061 6.1643677 0.07875061 12.328735" fill-rule="evenodd"/><path stroke="#000000" stroke-width="2.0" stroke-linejoin="round" stroke-linecap="butt" d="m178.41972 52.207348c0 6.16634 0.039367676 9.250008 0.07873535 12.332684l0.004043579 0.32896423" fill-rule="evenodd"/><path fill="#000000" stroke="#000000" stroke-width="2.0" stroke-linecap="butt" d="m175.1991 64.889565l3.359909 9.05545l3.2468872 -9.0965805z" fill-rule="evenodd"/><path fill="#000000" fill-opacity="0.0" d="m82.68241 105.67271l0 17.889763" fill-rule="evenodd"/><path stroke="#000000" stroke-width="2.0" stroke-linejoin="round" stroke-linecap="butt" d="m82.68241 105.67271l0 5.889763" fill-rule="evenodd"/><path fill="#000000" stroke="#000000" stroke-width="2.0" stroke-linecap="butt" d="m79.37895 111.56247l3.3034592 9.076195l3.3034668 -9.076195z" fill-rule="evenodd"/><path fill="#000000" fill-opacity="0.0" d="m130.62993 105.67271l0 17.889763" fill-rule="evenodd"/><path stroke="#000000" stroke-width="2.0" stroke-linejoin="round" stroke-linecap="butt" d="m130.62993 105.67271l0 5.889763" fill-rule="evenodd"/><path fill="#000000" stroke="#000000" stroke-width="2.0" stroke-linecap="butt" d="m127.326454 111.56247l3.3034744 9.076195l3.3034515 -9.076195z" fill-rule="evenodd"/><path fill="#000000" fill-opacity="0.0" d="m178.57742 105.67271l0 17.889763" fill-rule="evenodd"/><path stroke="#000000" stroke-width="2.0" stroke-linejoin="round" stroke-linecap="butt" d="m178.57742 105.67271l0 5.889763" fill-rule="evenodd"/><path fill="#000000" stroke="#000000" stroke-width="2.0" stroke-linecap="butt" d="m175.27396 111.56247l3.3034668 9.076195l3.3034668 -9.076195z" fill-rule="evenodd"/></g></svg>