<?xml version="1.0" encoding="UTF-8"?>
<!DOCTYPE svg PUBLIC "-//W3C//DTD SVG 1.1//EN" "http://www.w3.org/Graphics/SVG/1.1/DTD/svg11.dtd">
<svg width="160mm" height="90mm" viewBox="0 0 16000 9000" version="1.1" xmlns="http://www.w3.org/2000/svg" xmlns:xlink="http://www.w3.org/1999/xlink" stroke-width="28.222" stroke-linejoin="round" xml:space="preserve">
 <path fill="rgb(255,255,255)" stroke="none" d="M 7987,8986 L -13,8986 -13,-13 15986,-13 15986,8986 7987,8986 Z"/>
 <path fill="none" stroke="rgb(179,179,179)" stroke-linejoin="round" d="M 8169,7179 L 2945,7179 2945,2325 13394,2325 13394,7179 8169,7179 Z"/>
 <path fill="none" stroke="rgb(179,179,179)" stroke-linejoin="round" d="M 13394,7178 L 2945,7178"/>
 <path fill="none" stroke="rgb(179,179,179)" stroke-linejoin="round" d="M 13394,6207 L 2945,6207"/>
 <path fill="none" stroke="rgb(179,179,179)" stroke-linejoin="round" d="M 13394,5236 L 2945,5236"/>
 <path fill="none" stroke="rgb(179,179,179)" stroke-linejoin="round" d="M 13394,4266 L 2945,4266"/>
 <path fill="none" stroke="rgb(179,179,179)" stroke-linejoin="round" d="M 13394,3295 L 2945,3295"/>
 <path fill="none" stroke="rgb(179,179,179)" stroke-linejoin="round" d="M 13394,2324 L 2945,2324"/>
 <path fill="none" stroke="rgb(179,179,179)" stroke-linejoin="round" d="M 2945,7328 L 2945,7178"/>
 <path fill="none" stroke="rgb(179,179,179)" stroke-linejoin="round" d="M 2945,7328 L 2945,7178"/>
 <path fill="none" stroke="rgb(179,179,179)" stroke-linejoin="round" d="M 3990,7328 L 3990,7178"/>
 <path fill="none" stroke="rgb(179,179,179)" stroke-linejoin="round" d="M 3990,7328 L 3990,7178"/>
 <path fill="none" stroke="rgb(179,179,179)" stroke-linejoin="round" d="M 5035,7328 L 5035,7178"/>
 <path fill="none" stroke="rgb(179,179,179)" stroke-linejoin="round" d="M 5035,7328 L 5035,7178"/>
 <path fill="none" stroke="rgb(179,179,179)" stroke-linejoin="round" d="M 6080,7328 L 6080,7178"/>
 <path fill="none" stroke="rgb(179,179,179)" stroke-linejoin="round" d="M 6080,7328 L 6080,7178"/>
 <path fill="none" stroke="rgb(179,179,179)" stroke-linejoin="round" d="M 7125,7328 L 7125,7178"/>
 <path fill="none" stroke="rgb(179,179,179)" stroke-linejoin="round" d="M 7125,7328 L 7125,7178"/>
 <path fill="none" stroke="rgb(179,179,179)" stroke-linejoin="round" d="M 8169,7328 L 8169,7178"/>
 <path fill="none" stroke="rgb(179,179,179)" stroke-linejoin="round" d="M 8169,7328 L 8169,7178"/>
 <path fill="none" stroke="rgb(179,179,179)" stroke-linejoin="round" d="M 9214,7328 L 9214,7178"/>
 <path fill="none" stroke="rgb(179,179,179)" stroke-linejoin="round" d="M 9214,7328 L 9214,7178"/>
 <path fill="none" stroke="rgb(179,179,179)" stroke-linejoin="round" d="M 10259,7328 L 10259,7178"/>
 <path fill="none" stroke="rgb(179,179,179)" stroke-linejoin="round" d="M 10259,7328 L 10259,7178"/>
 <path fill="none" stroke="rgb(179,179,179)" stroke-linejoin="round" d="M 11304,7328 L 11304,7178"/>
 <path fill="none" stroke="rgb(179,179,179)" stroke-linejoin="round" d="M 11304,7328 L 11304,7178"/>
 <path fill="none" stroke="rgb(179,179,179)" stroke-linejoin="round" d="M 12349,7328 L 12349,7178"/>
 <path fill="none" stroke="rgb(179,179,179)" stroke-linejoin="round" d="M 12349,7328 L 12349,7178"/>
 <path fill="none" stroke="rgb(179,179,179)" stroke-linejoin="round" d="M 13394,7328 L 13394,7178"/>
 <path fill="none" stroke="rgb(179,179,179)" stroke-linejoin="round" d="M 13394,7328 L 13394,7178"/>
 <path fill="none" stroke="rgb(179,179,179)" stroke-linejoin="round" d="M 2945,7178 L 13394,7178"/>
 <path fill="none" stroke="rgb(179,179,179)" stroke-linejoin="round" d="M 2795,7178 L 2945,7178"/>
 <path fill="none" stroke="rgb(179,179,179)" stroke-linejoin="round" d="M 2795,7178 L 2945,7178"/>
 <path fill="none" stroke="rgb(179,179,179)" stroke-linejoin="round" d="M 2795,6207 L 2945,6207"/>
 <path fill="none" stroke="rgb(179,179,179)" stroke-linejoin="round" d="M 2795,6207 L 2945,6207"/>
 <path fill="none" stroke="rgb(179,179,179)" stroke-linejoin="round" d="M 2795,5236 L 2945,5236"/>
 <path fill="none" stroke="rgb(179,179,179)" stroke-linejoin="round" d="M 2795,5236 L 2945,5236"/>
 <path fill="none" stroke="rgb(179,179,179)" stroke-linejoin="round" d="M 2795,4266 L 2945,4266"/>
 <path fill="none" stroke="rgb(179,179,179)" stroke-linejoin="round" d="M 2795,4266 L 2945,4266"/>
 <path fill="none" stroke="rgb(179,179,179)" stroke-linejoin="round" d="M 2795,3295 L 2945,3295"/>
 <path fill="none" stroke="rgb(179,179,179)" stroke-linejoin="round" d="M 2795,3295 L 2945,3295"/>
 <path fill="none" stroke="rgb(179,179,179)" stroke-linejoin="round" d="M 2795,2324 L 2945,2324"/>
 <path fill="none" stroke="rgb(179,179,179)" stroke-linejoin="round" d="M 2795,2324 L 2945,2324"/>
 <path fill="none" stroke="rgb(179,179,179)" stroke-linejoin="round" d="M 2945,7178 L 2945,2323"/>
 <path fill="none" stroke="rgb(0,69,134)" stroke-width="80" stroke-linejoin="round" d="M 2945,6637 L 3990,6474 5035,6322 6080,6065 7125,5807 8169,5535 9214,5238 10259,4961 11304,4698 12349,4410 13394,4073"/>
 <path fill="none" stroke="rgb(255,66,14)" stroke-width="80" stroke-linejoin="round" d="M 2945,6490 L 3990,6301 5035,6083 6080,5800 7125,5558 8169,5247 9214,4964 10259,4656 11304,4378 12349,4086 13394,3794"/>
 <path fill="none" stroke="rgb(255,211,32)" stroke-width="80" stroke-linejoin="round" d="M 2945,6301 L 3990,6062 5035,5808 6080,5530 7125,5244 8169,5002 9214,4696 10259,4376 11304,4086 12349,3781 13394,3487"/>
 <path fill="none" stroke="rgb(87,157,28)" stroke-width="80" stroke-linejoin="round" d="M 2945,6059 L 3990,5825 5035,5549 6080,5247 7125,4942 8169,4699 9214,4414 10259,4070 11304,3828 12349,3491 13394,3217"/>
 <path fill="none" stroke="rgb(126,0,33)" stroke-width="80" stroke-linejoin="round" d="M 2945,5772 L 3990,5511 5035,5240 6080,4943 7125,4661 8169,4413 9214,4121 10259,3793 11304,3489 12349,3250 13394,2915"/>
 <path fill="none" stroke="rgb(131,202,255)" stroke-width="80" stroke-linejoin="round" d="M 2945,5524 L 3990,5271 5035,4944 6080,4649 7125,4361 8169,4071 9214,3778 10259,3489 11304,3241 12349,2913 13394,2621"/>
 <path fill="none" stroke="rgb(49,64,4)" stroke-width="80" stroke-linejoin="round" d="M 2945,5230 L 3990,4955 5035,4665 6080,4374 7125,4102 8169,3783 9214,3493 10259,3201 11304,2932 12349,2621 13394,2330"/>
 <text class="SVGTextShape"><tspan class="TextParagraph" font-family="Liberation Sans, sans-serif" font-size="353px" font-weight="400"><tspan class="TextPosition" x="2852" y="7746"><tspan fill="rgb(0,0,0)" stroke="none" style="white-space: pre">1</tspan></tspan></tspan></text>
 <text class="SVGTextShape"><tspan class="TextParagraph" font-family="Liberation Sans, sans-serif" font-size="353px" font-weight="400"><tspan class="TextPosition" x="3897" y="7746"><tspan fill="rgb(0,0,0)" stroke="none" style="white-space: pre">2</tspan></tspan></tspan></text>
 <text class="SVGTextShape"><tspan class="TextParagraph" font-family="Liberation Sans, sans-serif" font-size="353px" font-weight="400"><tspan class="TextPosition" x="4942" y="7746"><tspan fill="rgb(0,0,0)" stroke="none" style="white-space: pre">4</tspan></tspan></tspan></text>
 <text class="SVGTextShape"><tspan class="TextParagraph" font-family="Liberation Sans, sans-serif" font-size="353px" font-weight="400"><tspan class="TextPosition" x="5987" y="7746"><tspan fill="rgb(0,0,0)" stroke="none" style="white-space: pre">8</tspan></tspan></tspan></text>
 <text class="SVGTextShape"><tspan class="TextParagraph" font-family="Liberation Sans, sans-serif" font-size="353px" font-weight="400"><tspan class="TextPosition" x="6940" y="7746"><tspan fill="rgb(0,0,0)" stroke="none" style="white-space: pre">16</tspan></tspan></tspan></text>
 <text class="SVGTextShape"><tspan class="TextParagraph" font-family="Liberation Sans, sans-serif" font-size="353px" font-weight="400"><tspan class="TextPosition" x="7985" y="7746"><tspan fill="rgb(0,0,0)" stroke="none" style="white-space: pre">32</tspan></tspan></tspan></text>
 <text class="SVGTextShape"><tspan class="TextParagraph" font-family="Liberation Sans, sans-serif" font-size="353px" font-weight="400"><tspan class="TextPosition" x="9030" y="7746"><tspan fill="rgb(0,0,0)" stroke="none" style="white-space: pre">64</tspan></tspan></tspan></text>
 <text class="SVGTextShape"><tspan class="TextParagraph" font-family="Liberation Sans, sans-serif" font-size="353px" font-weight="400"><tspan class="TextPosition" x="9982" y="7746"><tspan fill="rgb(0,0,0)" stroke="none" style="white-space: pre">128</tspan></tspan></tspan></text>
 <text class="SVGTextShape"><tspan class="TextParagraph" font-family="Liberation Sans, sans-serif" font-size="353px" font-weight="400"><tspan class="TextPosition" x="11027" y="7746"><tspan fill="rgb(0,0,0)" stroke="none" style="white-space: pre">256</tspan></tspan></tspan></text>
 <text class="SVGTextShape"><tspan class="TextParagraph" font-family="Liberation Sans, sans-serif" font-size="353px" font-weight="400"><tspan class="TextPosition" x="12072" y="7746"><tspan fill="rgb(0,0,0)" stroke="none" style="white-space: pre">512</tspan></tspan></tspan></text>
 <text class="SVGTextShape"><tspan class="TextParagraph" font-family="Liberation Sans, sans-serif" font-size="353px" font-weight="400"><tspan class="TextPosition" x="13024" y="7746"><tspan fill="rgb(0,0,0)" stroke="none" style="white-space: pre">1024</tspan></tspan></tspan></text>
 <text class="SVGTextShape"><tspan class="TextParagraph" font-family="Liberation Sans, sans-serif" font-size="353px" font-weight="400"><tspan class="TextPosition" x="1319" y="7299"><tspan fill="rgb(0,0,0)" stroke="none" style="white-space: pre">1.00E-07</tspan></tspan></tspan></text>
 <text class="SVGTextShape"><tspan class="TextParagraph" font-family="Liberation Sans, sans-serif" font-size="353px" font-weight="400"><tspan class="TextPosition" x="1319" y="6328"><tspan fill="rgb(0,0,0)" stroke="none" style="white-space: pre">1.00E-06</tspan></tspan></tspan></text>
 <text class="SVGTextShape"><tspan class="TextParagraph" font-family="Liberation Sans, sans-serif" font-size="353px" font-weight="400"><tspan class="TextPosition" x="1319" y="5357"><tspan fill="rgb(0,0,0)" stroke="none" style="white-space: pre">1.00E-05</tspan></tspan></tspan></text>
 <text class="SVGTextShape"><tspan class="TextParagraph" font-family="Liberation Sans, sans-serif" font-size="353px" font-weight="400"><tspan class="TextPosition" x="1319" y="4386"><tspan fill="rgb(0,0,0)" stroke="none" style="white-space: pre">1.00E-04</tspan></tspan></tspan></text>
 <text class="SVGTextShape"><tspan class="TextParagraph" font-family="Liberation Sans, sans-serif" font-size="353px" font-weight="400"><tspan class="TextPosition" x="1319" y="3415"><tspan fill="rgb(0,0,0)" stroke="none" style="white-space: pre">1.00E-03</tspan></tspan></tspan></text>
 <text class="SVGTextShape"><tspan class="TextParagraph" font-family="Liberation Sans, sans-serif" font-size="353px" font-weight="400"><tspan class="TextPosition" x="1319" y="2444"><tspan fill="rgb(0,0,0)" stroke="none" style="white-space: pre">1.00E-02</tspan></tspan></tspan></text>
 <text class="SVGTextShape"><tspan class="TextParagraph" font-family="Liberation Sans, sans-serif" font-size="459px" font-weight="400"><tspan class="TextPosition" x="2841" y="838"><tspan fill="rgb(0,0,0)" stroke="none" style="white-space: pre">Execution Time of Example Program (Multi-Sample)</tspan></tspan></tspan></text>
 <text class="SVGTextShape"><tspan class="TextParagraph" font-family="Liberation Sans, sans-serif" font-size="388px" font-weight="400"><tspan class="TextPosition" x="4706" y="1748"><tspan fill="rgb(0,0,0)" stroke="none" style="white-space: pre">Trendlines for Constant Multiply Count</tspan></tspan></tspan></text>
 <path fill="none" stroke="rgb(0,69,134)" stroke-width="80" stroke-linejoin="round" d="M 14202,2992 L 15002,2992"/>
 <path fill="none" stroke="rgb(255,66,14)" stroke-width="80" stroke-linejoin="round" d="M 14202,3490 L 15002,3490"/>
 <path fill="none" stroke="rgb(255,211,32)" stroke-width="80" stroke-linejoin="round" d="M 14202,3988 L 15002,3988"/>
 <path fill="none" stroke="rgb(87,157,28)" stroke-width="80" stroke-linejoin="round" d="M 14202,4486 L 15002,4486"/>
 <path fill="none" stroke="rgb(126,0,33)" stroke-width="80" stroke-linejoin="round" d="M 14202,4983 L 15002,4983"/>
 <path fill="none" stroke="rgb(131,202,255)" stroke-width="80" stroke-linejoin="round" d="M 14202,5481 L 15002,5481"/>
 <path fill="none" stroke="rgb(49,64,4)" stroke-width="80" stroke-linejoin="round" d="M 14202,5979 L 15002,5979"/>
 <text class="SVGTextShape"><tspan class="TextParagraph" font-family="Liberation Sans, sans-serif" font-size="353px" font-weight="400"><tspan class="TextPosition" x="15102" y="3112"><tspan fill="rgb(0,0,0)" stroke="none" style="white-space: pre">10</tspan></tspan></tspan></text>
 <text class="SVGTextShape"><tspan class="TextParagraph" font-family="Liberation Sans, sans-serif" font-size="353px" font-weight="400"><tspan class="TextPosition" x="15102" y="3610"><tspan fill="rgb(0,0,0)" stroke="none" style="white-space: pre">20</tspan></tspan></tspan></text>
 <text class="SVGTextShape"><tspan class="TextParagraph" font-family="Liberation Sans, sans-serif" font-size="353px" font-weight="400"><tspan class="TextPosition" x="15102" y="4108"><tspan fill="rgb(0,0,0)" stroke="none" style="white-space: pre">40</tspan></tspan></tspan></text>
 <text class="SVGTextShape"><tspan class="TextParagraph" font-family="Liberation Sans, sans-serif" font-size="353px" font-weight="400"><tspan class="TextPosition" x="15102" y="4605"><tspan fill="rgb(0,0,0)" stroke="none" style="white-space: pre">80</tspan></tspan></tspan></text>
 <text class="SVGTextShape"><tspan class="TextParagraph" font-family="Liberation Sans, sans-serif" font-size="353px" font-weight="400"><tspan class="TextPosition" x="15102" y="5103"><tspan fill="rgb(0,0,0)" stroke="none" style="white-space: pre">160</tspan></tspan></tspan></text>
 <text class="SVGTextShape"><tspan class="TextParagraph" font-family="Liberation Sans, sans-serif" font-size="353px" font-weight="400"><tspan class="TextPosition" x="15102" y="5601"><tspan fill="rgb(0,0,0)" stroke="none" style="white-space: pre">320</tspan></tspan></tspan></text>
 <text class="SVGTextShape"><tspan class="TextParagraph" font-family="Liberation Sans, sans-serif" font-size="353px" font-weight="400"><tspan class="TextPosition" x="15102" y="6099"><tspan fill="rgb(0,0,0)" stroke="none" style="white-space: pre">640</tspan></tspan></tspan></text>
 <text class="SVGTextShape"><tspan class="TextParagraph" font-family="Liberation Sans, sans-serif" font-size="318px" font-weight="400"><tspan class="TextPosition" x="6774" y="8392"><tspan fill="rgb(0,0,0)" stroke="none" style="white-space: pre">Add Count</tspan></tspan></tspan></text>
 <text class="SVGTextShape" transform="rotate(-90 824 6482)"><tspan class="TextParagraph" font-family="Liberation Sans, sans-serif" font-size="318px" font-weight="400"><tspan class="TextPosition" x="824" y="6482"><tspan fill="rgb(0,0,0)" stroke="none" style="white-space: pre">Execution Time (sec)</tspan></tspan></tspan></text>
</svg>