<?xml version="1.0" encoding="UTF-8"?>
<!DOCTYPE svg PUBLIC "-//W3C//DTD SVG 1.1//EN" "http://www.w3.org/Graphics/SVG/1.1/DTD/svg11.dtd">
<svg width="160mm" height="90mm" viewBox="0 0 16000 9000" version="1.1" xmlns="http://www.w3.org/2000/svg" xmlns:xlink="http://www.w3.org/1999/xlink" stroke-width="28.222" stroke-linejoin="round" xml:space="preserve">
 <path fill="rgb(255,255,255)" stroke="none" d="M 7987,8986 L -13,8986 -13,-13 15986,-13 15986,8986 7987,8986 Z"/>
 <path fill="none" stroke="rgb(179,179,179)" stroke-linejoin="round" d="M 8169,7179 L 2945,7179 2945,2325 13394,2325 13394,7179 8169,7179 Z"/>
 <path fill="none" stroke="rgb(179,179,179)" stroke-linejoin="round" d="M 13394,7177 L 2945,7177"/>
 <path fill="none" stroke="rgb(179,179,179)" stroke-linejoin="round" d="M 13394,6368 L 2945,6368"/>
 <path fill="none" stroke="rgb(179,179,179)" stroke-linejoin="round" d="M 13394,5559 L 2945,5559"/>
 <path fill="none" stroke="rgb(179,179,179)" stroke-linejoin="round" d="M 13394,4750 L 2945,4750"/>
 <path fill="none" stroke="rgb(179,179,179)" stroke-linejoin="round" d="M 13394,3942 L 2945,3942"/>
 <path fill="none" stroke="rgb(179,179,179)" stroke-linejoin="round" d="M 13394,3133 L 2945,3133"/>
 <path fill="none" stroke="rgb(179,179,179)" stroke-linejoin="round" d="M 13394,2323 L 2945,2323"/>
 <path fill="none" stroke="rgb(179,179,179)" stroke-linejoin="round" d="M 2945,7327 L 2945,7177"/>
 <path fill="none" stroke="rgb(179,179,179)" stroke-linejoin="round" d="M 2945,7327 L 2945,7177"/>
 <path fill="none" stroke="rgb(179,179,179)" stroke-linejoin="round" d="M 3990,7327 L 3990,7177"/>
 <path fill="none" stroke="rgb(179,179,179)" stroke-linejoin="round" d="M 3990,7327 L 3990,7177"/>
 <path fill="none" stroke="rgb(179,179,179)" stroke-linejoin="round" d="M 5035,7327 L 5035,7177"/>
 <path fill="none" stroke="rgb(179,179,179)" stroke-linejoin="round" d="M 5035,7327 L 5035,7177"/>
 <path fill="none" stroke="rgb(179,179,179)" stroke-linejoin="round" d="M 6080,7327 L 6080,7177"/>
 <path fill="none" stroke="rgb(179,179,179)" stroke-linejoin="round" d="M 6080,7327 L 6080,7177"/>
 <path fill="none" stroke="rgb(179,179,179)" stroke-linejoin="round" d="M 7125,7327 L 7125,7177"/>
 <path fill="none" stroke="rgb(179,179,179)" stroke-linejoin="round" d="M 7125,7327 L 7125,7177"/>
 <path fill="none" stroke="rgb(179,179,179)" stroke-linejoin="round" d="M 8169,7327 L 8169,7177"/>
 <path fill="none" stroke="rgb(179,179,179)" stroke-linejoin="round" d="M 8169,7327 L 8169,7177"/>
 <path fill="none" stroke="rgb(179,179,179)" stroke-linejoin="round" d="M 9214,7327 L 9214,7177"/>
 <path fill="none" stroke="rgb(179,179,179)" stroke-linejoin="round" d="M 9214,7327 L 9214,7177"/>
 <path fill="none" stroke="rgb(179,179,179)" stroke-linejoin="round" d="M 10259,7327 L 10259,7177"/>
 <path fill="none" stroke="rgb(179,179,179)" stroke-linejoin="round" d="M 10259,7327 L 10259,7177"/>
 <path fill="none" stroke="rgb(179,179,179)" stroke-linejoin="round" d="M 11304,7327 L 11304,7177"/>
 <path fill="none" stroke="rgb(179,179,179)" stroke-linejoin="round" d="M 11304,7327 L 11304,7177"/>
 <path fill="none" stroke="rgb(179,179,179)" stroke-linejoin="round" d="M 12349,7327 L 12349,7177"/>
 <path fill="none" stroke="rgb(179,179,179)" stroke-linejoin="round" d="M 12349,7327 L 12349,7177"/>
 <path fill="none" stroke="rgb(179,179,179)" stroke-linejoin="round" d="M 13394,7327 L 13394,7177"/>
 <path fill="none" stroke="rgb(179,179,179)" stroke-linejoin="round" d="M 13394,7327 L 13394,7177"/>
 <path fill="none" stroke="rgb(179,179,179)" stroke-linejoin="round" d="M 2945,7177 L 13394,7177"/>
 <path fill="none" stroke="rgb(179,179,179)" stroke-linejoin="round" d="M 2795,7177 L 2945,7177"/>
 <path fill="none" stroke="rgb(179,179,179)" stroke-linejoin="round" d="M 2795,7177 L 2945,7177"/>
 <path fill="none" stroke="rgb(179,179,179)" stroke-linejoin="round" d="M 2795,6368 L 2945,6368"/>
 <path fill="none" stroke="rgb(179,179,179)" stroke-linejoin="round" d="M 2795,6368 L 2945,6368"/>
 <path fill="none" stroke="rgb(179,179,179)" stroke-linejoin="round" d="M 2795,5559 L 2945,5559"/>
 <path fill="none" stroke="rgb(179,179,179)" stroke-linejoin="round" d="M 2795,5559 L 2945,5559"/>
 <path fill="none" stroke="rgb(179,179,179)" stroke-linejoin="round" d="M 2795,4750 L 2945,4750"/>
 <path fill="none" stroke="rgb(179,179,179)" stroke-linejoin="round" d="M 2795,4750 L 2945,4750"/>
 <path fill="none" stroke="rgb(179,179,179)" stroke-linejoin="round" d="M 2795,3942 L 2945,3942"/>
 <path fill="none" stroke="rgb(179,179,179)" stroke-linejoin="round" d="M 2795,3942 L 2945,3942"/>
 <path fill="none" stroke="rgb(179,179,179)" stroke-linejoin="round" d="M 2795,3133 L 2945,3133"/>
 <path fill="none" stroke="rgb(179,179,179)" stroke-linejoin="round" d="M 2795,3133 L 2945,3133"/>
 <path fill="none" stroke="rgb(179,179,179)" stroke-linejoin="round" d="M 2795,2323 L 2945,2323"/>
 <path fill="none" stroke="rgb(179,179,179)" stroke-linejoin="round" d="M 2795,2323 L 2945,2323"/>
 <path fill="none" stroke="rgb(179,179,179)" stroke-linejoin="round" d="M 2945,7177 L 2945,2323"/>
 <path fill="none" stroke="rgb(0,69,134)" stroke-width="80" stroke-linejoin="round" d="M 2945,6304 L 3990,6263 5035,6479 6080,6143 7125,5775 8169,5607 9214,5305 10259,5324 11304,4941 12349,4869 13394,4336"/>
 <path fill="none" stroke="rgb(255,66,14)" stroke-width="80" stroke-linejoin="round" d="M 2945,6612 L 3990,6442 5035,6143 6080,6037 7125,5831 8169,5552 9214,5254 10259,4821 11304,4837 12349,4336 13394,4354"/>
 <path fill="none" stroke="rgb(255,211,32)" stroke-width="80" stroke-linejoin="round" d="M 2945,6442 L 3990,5994 5035,5772 6080,5653 7125,5303 8169,5063 9214,4870 10259,4563 11304,4356 12349,4089 13394,4096"/>
 <path fill="none" stroke="rgb(87,157,28)" stroke-width="80" stroke-linejoin="round" d="M 2945,6176 L 3990,5788 5035,5567 6080,5555 7125,5086 8169,4821 9214,4602 10259,4590 11304,4347 12349,4104 13394,3862"/>
 <path fill="none" stroke="rgb(126,0,33)" stroke-width="80" stroke-linejoin="round" d="M 2945,5770 L 3990,5530 5035,5316 6080,5320 7125,4820 8169,4836 9214,4321 10259,4108 11304,3864 12349,3852 13394,3371"/>
 <path fill="none" stroke="rgb(131,202,255)" stroke-width="80" stroke-linejoin="round" d="M 2945,5556 L 3990,5556 5035,5073 6080,5073 7125,4577 8169,4356 9214,4334 10259,4077 11304,3859 12349,3374 13394,3377"/>
 <path fill="none" stroke="rgb(49,64,4)" stroke-width="80" stroke-linejoin="round" d="M 2945,5301 L 3990,5080 5035,5073 6080,4586 7125,4323 8169,4365 9214,3856 10259,3616 11304,3374 12349,3130 13394,3014"/>
 <text class="SVGTextShape"><tspan class="TextParagraph" font-family="Liberation Sans, sans-serif" font-size="353px" font-weight="400"><tspan class="TextPosition" x="2852" y="7745"><tspan fill="rgb(0,0,0)" stroke="none" style="white-space: pre">1</tspan></tspan></tspan></text>
 <text class="SVGTextShape"><tspan class="TextParagraph" font-family="Liberation Sans, sans-serif" font-size="353px" font-weight="400"><tspan class="TextPosition" x="3897" y="7745"><tspan fill="rgb(0,0,0)" stroke="none" style="white-space: pre">2</tspan></tspan></tspan></text>
 <text class="SVGTextShape"><tspan class="TextParagraph" font-family="Liberation Sans, sans-serif" font-size="353px" font-weight="400"><tspan class="TextPosition" x="4942" y="7745"><tspan fill="rgb(0,0,0)" stroke="none" style="white-space: pre">4</tspan></tspan></tspan></text>
 <text class="SVGTextShape"><tspan class="TextParagraph" font-family="Liberation Sans, sans-serif" font-size="353px" font-weight="400"><tspan class="TextPosition" x="5987" y="7745"><tspan fill="rgb(0,0,0)" stroke="none" style="white-space: pre">8</tspan></tspan></tspan></text>
 <text class="SVGTextShape"><tspan class="TextParagraph" font-family="Liberation Sans, sans-serif" font-size="353px" font-weight="400"><tspan class="TextPosition" x="6940" y="7745"><tspan fill="rgb(0,0,0)" stroke="none" style="white-space: pre">16</tspan></tspan></tspan></text>
 <text class="SVGTextShape"><tspan class="TextParagraph" font-family="Liberation Sans, sans-serif" font-size="353px" font-weight="400"><tspan class="TextPosition" x="7985" y="7745"><tspan fill="rgb(0,0,0)" stroke="none" style="white-space: pre">32</tspan></tspan></tspan></text>
 <text class="SVGTextShape"><tspan class="TextParagraph" font-family="Liberation Sans, sans-serif" font-size="353px" font-weight="400"><tspan class="TextPosition" x="9030" y="7745"><tspan fill="rgb(0,0,0)" stroke="none" style="white-space: pre">64</tspan></tspan></tspan></text>
 <text class="SVGTextShape"><tspan class="TextParagraph" font-family="Liberation Sans, sans-serif" font-size="353px" font-weight="400"><tspan class="TextPosition" x="9982" y="7745"><tspan fill="rgb(0,0,0)" stroke="none" style="white-space: pre">128</tspan></tspan></tspan></text>
 <text class="SVGTextShape"><tspan class="TextParagraph" font-family="Liberation Sans, sans-serif" font-size="353px" font-weight="400"><tspan class="TextPosition" x="11027" y="7745"><tspan fill="rgb(0,0,0)" stroke="none" style="white-space: pre">256</tspan></tspan></tspan></text>
 <text class="SVGTextShape"><tspan class="TextParagraph" font-family="Liberation Sans, sans-serif" font-size="353px" font-weight="400"><tspan class="TextPosition" x="12072" y="7745"><tspan fill="rgb(0,0,0)" stroke="none" style="white-space: pre">512</tspan></tspan></tspan></text>
 <text class="SVGTextShape"><tspan class="TextParagraph" font-family="Liberation Sans, sans-serif" font-size="353px" font-weight="400"><tspan class="TextPosition" x="13024" y="7745"><tspan fill="rgb(0,0,0)" stroke="none" style="white-space: pre">1024</tspan></tspan></tspan></text>
 <text class="SVGTextShape"><tspan class="TextParagraph" font-family="Liberation Sans, sans-serif" font-size="353px" font-weight="400"><tspan class="TextPosition" x="1319" y="7298"><tspan fill="rgb(0,0,0)" stroke="none" style="white-space: pre">1.00E-07</tspan></tspan></tspan></text>
 <text class="SVGTextShape"><tspan class="TextParagraph" font-family="Liberation Sans, sans-serif" font-size="353px" font-weight="400"><tspan class="TextPosition" x="1319" y="6489"><tspan fill="rgb(0,0,0)" stroke="none" style="white-space: pre">1.00E-06</tspan></tspan></tspan></text>
 <text class="SVGTextShape"><tspan class="TextParagraph" font-family="Liberation Sans, sans-serif" font-size="353px" font-weight="400"><tspan class="TextPosition" x="1319" y="5680"><tspan fill="rgb(0,0,0)" stroke="none" style="white-space: pre">1.00E-05</tspan></tspan></tspan></text>
 <text class="SVGTextShape"><tspan class="TextParagraph" font-family="Liberation Sans, sans-serif" font-size="353px" font-weight="400"><tspan class="TextPosition" x="1319" y="4871"><tspan fill="rgb(0,0,0)" stroke="none" style="white-space: pre">1.00E-04</tspan></tspan></tspan></text>
 <text class="SVGTextShape"><tspan class="TextParagraph" font-family="Liberation Sans, sans-serif" font-size="353px" font-weight="400"><tspan class="TextPosition" x="1319" y="4062"><tspan fill="rgb(0,0,0)" stroke="none" style="white-space: pre">1.00E-03</tspan></tspan></tspan></text>
 <text class="SVGTextShape"><tspan class="TextParagraph" font-family="Liberation Sans, sans-serif" font-size="353px" font-weight="400"><tspan class="TextPosition" x="1319" y="3253"><tspan fill="rgb(0,0,0)" stroke="none" style="white-space: pre">1.00E-02</tspan></tspan></tspan></text>
 <text class="SVGTextShape"><tspan class="TextParagraph" font-family="Liberation Sans, sans-serif" font-size="353px" font-weight="400"><tspan class="TextPosition" x="1319" y="2443"><tspan fill="rgb(0,0,0)" stroke="none" style="white-space: pre">1.00E-01</tspan></tspan></tspan></text>
 <text class="SVGTextShape"><tspan class="TextParagraph" font-family="Liberation Sans, sans-serif" font-size="459px" font-weight="400"><tspan class="TextPosition" x="1967" y="838"><tspan fill="rgb(0,0,0)" stroke="none" style="white-space: pre">Execution Time of Example Program (One Sample per Point)</tspan></tspan></tspan></text>
 <text class="SVGTextShape"><tspan class="TextParagraph" font-family="Liberation Sans, sans-serif" font-size="388px" font-weight="400"><tspan class="TextPosition" x="4706" y="1748"><tspan fill="rgb(0,0,0)" stroke="none" style="white-space: pre">Trendlines for Constant Multiply Count</tspan></tspan></tspan></text>
 <path fill="none" stroke="rgb(0,69,134)" stroke-width="80" stroke-linejoin="round" d="M 14202,2992 L 15002,2992"/>
 <path fill="none" stroke="rgb(255,66,14)" stroke-width="80" stroke-linejoin="round" d="M 14202,3490 L 15002,3490"/>
 <path fill="none" stroke="rgb(255,211,32)" stroke-width="80" stroke-linejoin="round" d="M 14202,3988 L 15002,3988"/>
 <path fill="none" stroke="rgb(87,157,28)" stroke-width="80" stroke-linejoin="round" d="M 14202,4486 L 15002,4486"/>
 <path fill="none" stroke="rgb(126,0,33)" stroke-width="80" stroke-linejoin="round" d="M 14202,4983 L 15002,4983"/>
 <path fill="none" stroke="rgb(131,202,255)" stroke-width="80" stroke-linejoin="round" d="M 14202,5481 L 15002,5481"/>
 <path fill="none" stroke="rgb(49,64,4)" stroke-width="80" stroke-linejoin="round" d="M 14202,5979 L 15002,5979"/>
 <text class="SVGTextShape"><tspan class="TextParagraph" font-family="Liberation Sans, sans-serif" font-size="353px" font-weight="400"><tspan class="TextPosition" x="15102" y="3112"><tspan fill="rgb(0,0,0)" stroke="none" style="white-space: pre">10</tspan></tspan></tspan></text>
 <text class="SVGTextShape"><tspan class="TextParagraph" font-family="Liberation Sans, sans-serif" font-size="353px" font-weight="400"><tspan class="TextPosition" x="15102" y="3610"><tspan fill="rgb(0,0,0)" stroke="none" style="white-space: pre">20</tspan></tspan></tspan></text>
 <text class="SVGTextShape"><tspan class="TextParagraph" font-family="Liberation Sans, sans-serif" font-size="353px" font-weight="400"><tspan class="TextPosition" x="15102" y="4108"><tspan fill="rgb(0,0,0)" stroke="none" style="white-space: pre">40</tspan></tspan></tspan></text>
 <text class="SVGTextShape"><tspan class="TextParagraph" font-family="Liberation Sans, sans-serif" font-size="353px" font-weight="400"><tspan class="TextPosition" x="15102" y="4605"><tspan fill="rgb(0,0,0)" stroke="none" style="white-space: pre">80</tspan></tspan></tspan></text>
 <text class="SVGTextShape"><tspan class="TextParagraph" font-family="Liberation Sans, sans-serif" font-size="353px" font-weight="400"><tspan class="TextPosition" x="15102" y="5103"><tspan fill="rgb(0,0,0)" stroke="none" style="white-space: pre">160</tspan></tspan></tspan></text>
 <text class="SVGTextShape"><tspan class="TextParagraph" font-family="Liberation Sans, sans-serif" font-size="353px" font-weight="400"><tspan class="TextPosition" x="15102" y="5601"><tspan fill="rgb(0,0,0)" stroke="none" style="white-space: pre">320</tspan></tspan></tspan></text>
 <text class="SVGTextShape"><tspan class="TextParagraph" font-family="Liberation Sans, sans-serif" font-size="353px" font-weight="400"><tspan class="TextPosition" x="15102" y="6099"><tspan fill="rgb(0,0,0)" stroke="none" style="white-space: pre">640</tspan></tspan></tspan></text>
 <text class="SVGTextShape"><tspan class="TextParagraph" font-family="Liberation Sans, sans-serif" font-size="318px" font-weight="400"><tspan class="TextPosition" x="6774" y="8392"><tspan fill="rgb(0,0,0)" stroke="none" style="white-space: pre">Add Count</tspan></tspan></tspan></text>
 <text class="SVGTextShape" transform="rotate(-90 824 6482)"><tspan class="TextParagraph" font-family="Liberation Sans, sans-serif" font-size="318px" font-weight="400"><tspan class="TextPosition" x="824" y="6482"><tspan fill="rgb(0,0,0)" stroke="none" style="white-space: pre">Execution Time (sec)</tspan></tspan></tspan></text>
</svg>