<svg version="1.1" viewBox="0.0 0.0 906.5380577427821 130.59317585301838" fill="none" stroke="none" stroke-linecap="square" stroke-miterlimit="10" xmlns:xlink="http://www.w3.org/1999/xlink" xmlns="http://www.w3.org/2000/svg"><clipPath id="p.0"><path d="m0 0l906.5381 0l0 130.59317l-906.5381 0l0 -130.59317z" clip-rule="nonzero"/></clipPath><g clip-path="url(#p.0)"><path fill="#000000" fill-opacity="0.0" d="m0 0l906.5381 0l0 130.59317l-906.5381 0z" fill-rule="evenodd"/><path fill="#ffffff" d="m0 0l906.5512 0l0 128.31496l-906.5512 0z" fill-rule="evenodd"/><path stroke="#000000" stroke-width="1.0" stroke-linejoin="round" stroke-linecap="butt" d="m0 0l906.5512 0l0 128.31496l-906.5512 0z" fill-rule="evenodd"/><path fill="#cfe2f3" d="m243.52887 70.43438l0 0c0 -19.882248 16.117737 -35.999996 36.0 -35.999996l0 0c9.547791 0 18.704529 3.7928467 25.455841 10.544155c6.7513123 6.7513084 10.544159 15.908051 10.544159 25.455841l0 0c0 19.882256 -16.117737 36.0 -36.0 36.0l0 0c-19.882263 0 -36.0 -16.117744 -36.0 -36.0z" fill-rule="evenodd"/><path stroke="#000000" stroke-width="3.0" stroke-linejoin="round" stroke-linecap="butt" d="m243.52887 70.43438l0 0c0 -19.882248 16.117737 -35.999996 36.0 -35.999996l0 0c9.547791 0 18.704529 3.7928467 25.455841 10.544155c6.7513123 6.7513084 10.544159 15.908051 10.544159 25.455841l0 0c0 19.882256 -16.117737 36.0 -36.0 36.0l0 0c-19.882263 0 -36.0 -16.117744 -36.0 -36.0z" fill-rule="evenodd"/><path fill="#000000" d="m275.18832 80.034386l-3.65625 0l0 -13.78125q-2.0 1.875 -4.71875 2.765625l0 -3.3125q1.4375 -0.46875 3.109375 -1.7812538q1.671875 -1.3125 2.296875 -3.046875l2.96875 0l0 19.156254zm11.653046 -19.156254q2.78125 0 4.34375 1.96875q1.859375 2.3437538 1.859375 7.781254q0 5.40625 -1.875 7.78125q-1.546875 1.953125 -4.328125 1.953125q-2.78125 0 -4.484375 -2.140625q-1.703125 -2.140625 -1.703125 -7.640625q0 -5.390625 1.875 -7.750004q1.546875 -1.953125 4.3125 -1.953125zm0 3.03125q-0.65625 0 -1.1875 0.4218788q-0.515625 0.421875 -0.796875 1.515625q-0.375 1.421875 -0.375 4.78125q0 3.359375 0.328125 4.609375q0.34375 1.25 0.859375 1.671875q0.515625 0.421875 1.171875 0.421875q0.671875 0 1.1875 -0.421875q0.515625 -0.421875 0.8125 -1.515625q0.375 -1.40625 0.375 -4.765625q0 -3.359375 -0.34375 -4.609375q-0.34375 -1.265625 -0.859375 -1.6875q-0.5 -0.4218788 -1.171875 -0.4218788z" fill-rule="nonzero"/><path fill="#cfe2f3" d="m443.99606 70.90682l0 0c0 -19.882248 16.117737 -35.999996 36.0 -35.999996l0 0c9.547791 0 18.704529 3.7928429 25.455841 10.544155c6.751343 6.7513084 10.544128 15.908051 10.544128 25.455841l0 0c0 19.882256 -16.117706 36.0 -35.99997 36.0l0 0c-19.882263 0 -36.0 -16.117744 -36.0 -36.0z" fill-rule="evenodd"/><path stroke="#000000" stroke-width="3.0" stroke-linejoin="round" stroke-linecap="butt" d="m443.99606 70.90682l0 0c0 -19.882248 16.117737 -35.999996 36.0 -35.999996l0 0c9.547791 0 18.704529 3.7928429 25.455841 10.544155c6.751343 6.7513084 10.544128 15.908051 10.544128 25.455841l0 0c0 19.882256 -16.117706 36.0 -35.99997 36.0l0 0c-19.882263 0 -36.0 -16.117744 -36.0 -36.0z" fill-rule="evenodd"/><path fill="#000000" d="m475.65552 80.50682l-3.65625 0l0 -13.78125q-2.0 1.875 -4.71875 2.765625l0 -3.3125q1.4375 -0.46875 3.109375 -1.78125q1.671875 -1.3124962 2.296875 -3.0468712l2.96875 0l0 19.156246zm5.5280457 -4.90625l3.640625 -0.375q0.15625 1.234375 0.921875 1.953125q0.765625 0.71875 1.765625 0.71875q1.15625 0 1.9375 -0.921875q0.796875 -0.9375 0.796875 -2.8125q0 -1.75 -0.78125 -2.625q-0.78125 -0.890625 -2.046875 -0.890625q-1.578125 0 -2.828125 1.40625l-2.96875 -0.4375l1.875 -9.937496l9.671875 0l0 3.4374962l-6.890625 0l-0.578125 3.234375q1.21875 -0.609375 2.5 -0.609375q2.4375 0 4.125 1.765625q1.6875 1.765625 1.6875 4.59375q0 2.359375 -1.359375 4.203125q-1.859375 2.53125 -5.171875 2.53125q-2.640625 0 -4.3125 -1.421875q-1.65625 -1.421875 -1.984375 -3.8125z" fill-rule="nonzero"/><path fill="#000000" fill-opacity="0.0" d="m315.52887 70.43438l128.47244 0.47244263" fill-rule="evenodd"/><path stroke="#000000" stroke-width="4.0" stroke-linejoin="round" stroke-linecap="butt" d="m315.52887 70.43438l104.472595 0.38419342" fill-rule="evenodd"/><path fill="#000000" stroke="#000000" stroke-width="4.0" stroke-linecap="butt" d="m419.97717 77.42545l18.176575 -6.5401306l-18.12799 -6.6736374z" fill-rule="evenodd"/><path fill="#000000" fill-opacity="0.0" d="m342.5551 23.129921l68.37796 0l0 53.322838l-68.37796 0z" fill-rule="evenodd"/><path fill="#000000" d="m357.96136 56.119293l0 -5.203125l-5.25 0l0 -3.59375l5.25 0l0 -5.21875l3.5 0l0 5.21875l5.265625 0l0 3.59375l-5.265625 0l0 5.203125l-3.5 0zm11.1953125 -2.265625l3.828125 -0.390625q0.15625 1.296875 0.953125 2.0625q0.8125 0.75 1.875 0.75q1.203125 0 2.03125 -0.96875q0.84375 -0.984375 0.84375 -2.953125q0 -1.84375 -0.828125 -2.765625q-0.828125 -0.921875 -2.15625 -0.921875q-1.65625 0 -2.96875 1.453125l-3.125 -0.453125l1.96875 -10.421875l10.171875 0l0 3.59375l-7.25 0l-0.609375 3.40625q1.296875 -0.640625 2.625 -0.640625q2.5625 0 4.328125 1.859375q1.78125 1.859375 1.78125 4.8125q0 2.484375 -1.421875 4.421875q-1.96875 2.65625 -5.4375 2.65625q-2.765625 0 -4.515625 -1.484375q-1.75 -1.5 -2.09375 -4.015625z" fill-rule="nonzero"/><path fill="#cfe2f3" d="m644.4685 71.46326l0 0c0 -19.882252 16.117737 -36.000004 36.0 -36.000004l0 0c9.547791 0 18.704529 3.7928467 25.455872 10.544159c6.7512817 6.7513084 10.544128 15.908051 10.544128 25.455845l0 0c0 19.882248 -16.117737 36.0 -36.0 36.0l0 0c-19.882263 0 -36.0 -16.117752 -36.0 -36.0z" fill-rule="evenodd"/><path stroke="#000000" stroke-width="3.0" stroke-linejoin="round" stroke-linecap="butt" d="m644.4685 71.46326l0 0c0 -19.882252 16.117737 -36.000004 36.0 -36.000004l0 0c9.547791 0 18.704529 3.7928467 25.455872 10.544159c6.7512817 6.7513084 10.544128 15.908051 10.544128 25.455845l0 0c0 19.882248 -16.117737 36.0 -36.0 36.0l0 0c-19.882263 0 -36.0 -16.117752 -36.0 -36.0z" fill-rule="evenodd"/><path fill="#000000" d="m676.1279 81.063255l-3.65625 0l0 -13.78125q-2.0 1.875 -4.71875 2.765625l0 -3.3125q1.4375 -0.46875 3.109375 -1.78125q1.671875 -1.3125 2.296875 -3.046875l2.96875 0l0 19.15625zm5.465576 -15.421875l0 -3.40625l12.515625 0l0 2.65625q-1.546875 1.53125 -3.15625 4.390625q-1.59375 2.84375 -2.4375 6.046875q-0.84375 3.203125 -0.828125 5.734375l-3.515625 0q0.078125 -3.953125 1.625 -8.0625q1.546875 -4.125 4.125 -7.359375l-8.328125 0z" fill-rule="nonzero"/><path fill="#000000" fill-opacity="0.0" d="m515.99603 70.990814l128.47247 0.47244263" fill-rule="evenodd"/><path stroke="#000000" stroke-width="4.0" stroke-linejoin="round" stroke-linecap="butt" d="m515.99603 70.990814l104.47266 0.3841858" fill-rule="evenodd"/><path fill="#000000" stroke="#000000" stroke-width="4.0" stroke-linecap="butt" d="m620.4444 77.98188l18.176514 -6.5401306l-18.12793 -6.6736374z" fill-rule="evenodd"/><path fill="#000000" fill-opacity="0.0" d="m543.0276 23.686352l68.37793 0l0 53.322834l-68.37793 0z" fill-rule="evenodd"/><path fill="#000000" d="m558.43384 56.675724l0 -5.203125l-5.25 0l0 -3.59375l5.25 0l0 -5.21875l3.5 0l0 5.21875l5.265625 0l0 3.59375l-5.265625 0l0 5.203125l-3.5 0zm24.117188 -0.671875l0 3.5625l-13.46875 0q0.21875 -2.03125 1.3125 -3.828125q1.09375 -1.8125 4.3125 -4.8125q2.59375 -2.421875 3.1875 -3.28125q0.796875 -1.1875 0.796875 -2.359375q0 -1.28125 -0.703125 -1.96875q-0.6875 -0.6875 -1.890625 -0.6875q-1.203125 0 -1.921875 0.734375q-0.703125 0.71875 -0.8125 2.390625l-3.828125 -0.375q0.328125 -3.171875 2.125 -4.546875q1.8125 -1.390625 4.53125 -1.390625q2.96875 0 4.65625 1.609375q1.703125 1.59375 1.703125 3.96875q0 1.359375 -0.5 2.578125q-0.484375 1.21875 -1.53125 2.5625q-0.703125 0.890625 -2.515625 2.5625q-1.8125 1.65625 -2.296875 2.203125q-0.484375 0.546875 -0.796875 1.078125l7.640625 0z" fill-rule="nonzero"/></g></svg>