<svg version="1.1" viewBox="0.0 0.0 906.5380577427821 130.59317585301838" fill="none" stroke="none" stroke-linecap="square" stroke-miterlimit="10" xmlns:xlink="http://www.w3.org/1999/xlink" xmlns="http://www.w3.org/2000/svg"><clipPath id="p.0"><path d="m0 0l906.5381 0l0 130.59317l-906.5381 0l0 -130.59317z" clip-rule="nonzero"/></clipPath><g clip-path="url(#p.0)"><path fill="#000000" fill-opacity="0.0" d="m0 0l906.5381 0l0 130.59317l-906.5381 0z" fill-rule="evenodd"/><path fill="#ffffff" d="m0 0l906.5512 0l0 128.31496l-906.5512 0z" fill-rule="evenodd"/><path stroke="#000000" stroke-width="1.0" stroke-linejoin="round" stroke-linecap="butt" d="m0 0l906.5512 0l0 128.31496l-906.5512 0z" fill-rule="evenodd"/><path fill="#cfe2f3" d="m58.762466 47.304462l0 0c0 -19.882252 16.117752 -36.0 36.0 -36.0l0 0c9.547798 0 18.704536 3.7928467 25.455849 10.544156c6.7513046 6.7513103 10.544151 15.908051 10.544151 25.455845l0 0c0 19.882252 -16.117744 35.999996 -36.0 35.999996l0 0c-19.882248 0 -36.0 -16.117744 -36.0 -35.999996z" fill-rule="evenodd"/><path stroke="#000000" stroke-width="3.0" stroke-linejoin="round" stroke-linecap="butt" d="m58.762466 47.304462l0 0c0 -19.882252 16.117752 -36.0 36.0 -36.0l0 0c9.547798 0 18.704536 3.7928467 25.455849 10.544156c6.7513046 6.7513103 10.544151 15.908051 10.544151 25.455845l0 0c0 19.882252 -16.117744 35.999996 -36.0 35.999996l0 0c-19.882248 0 -36.0 -16.117744 -36.0 -35.999996z" fill-rule="evenodd"/><path fill="#000000" d="m90.421906 56.90446l-3.65625 0l0 -13.78125q-2.0 1.875 -4.71875 2.765625l0 -3.3125q1.4375 -0.46875 3.109375 -1.78125q1.671875 -1.3125 2.296875 -3.046875l2.96875 0l0 19.15625zm11.653061 -19.15625q2.78125 0 4.34375 1.96875q1.859375 2.34375 1.859375 7.78125q0 5.40625 -1.875 7.78125q-1.546875 1.953125 -4.328125 1.953125q-2.78125 0 -4.484375 -2.140625q-1.703125 -2.140625 -1.703125 -7.640625q0 -5.390625 1.875 -7.75q1.546875 -1.953125 4.3125 -1.953125zm0 3.03125q-0.65625 0 -1.1875 0.421875q-0.515625 0.421875 -0.796875 1.515625q-0.375 1.421875 -0.375 4.78125q0 3.359375 0.328125 4.609375q0.34375 1.25 0.859375 1.671875q0.515625 0.421875 1.171875 0.421875q0.671875 0 1.1875 -0.421875q0.515625 -0.421875 0.8125 -1.515625q0.375 -1.40625 0.375 -4.765625q0 -3.359375 -0.34375 -4.609375q-0.34375 -1.265625 -0.859375 -1.6875q-0.5 -0.421875 -1.171875 -0.421875z" fill-rule="nonzero"/><path fill="#cfe2f3" d="m202.16667 47.540684l0 0c0 -19.882252 16.117737 -36.0 36.0 -36.0l0 0c9.547791 0 18.704544 3.7928457 25.455826 10.544156c6.7513123 6.7513084 10.544159 15.908051 10.544159 25.455845l0 0c0 19.882252 -16.117737 35.999996 -35.999985 35.999996l0 0c-19.882263 0 -36.0 -16.117744 -36.0 -35.999996z" fill-rule="evenodd"/><path stroke="#000000" stroke-width="3.0" stroke-linejoin="round" stroke-linecap="butt" d="m202.16667 47.540684l0 0c0 -19.882252 16.117737 -36.0 36.0 -36.0l0 0c9.547791 0 18.704544 3.7928457 25.455826 10.544156c6.7513123 6.7513084 10.544159 15.908051 10.544159 25.455845l0 0c0 19.882252 -16.117737 35.999996 -35.999985 35.999996l0 0c-19.882263 0 -36.0 -16.117744 -36.0 -35.999996z" fill-rule="evenodd"/><path fill="#000000" d="m233.82611 57.140682l-3.65625 0l0 -13.78125q-2.0 1.875 -4.71875 2.765625l0 -3.3125q1.4375 -0.46875 3.109375 -1.78125q1.671875 -1.3125 2.296875 -3.046875l2.96875 0l0 19.15625zm5.528061 -4.90625l3.640625 -0.375q0.15625 1.234375 0.921875 1.953125q0.765625 0.71875 1.765625 0.71875q1.15625 0 1.9375 -0.921875q0.796875 -0.9375 0.796875 -2.8125q0 -1.75 -0.78125 -2.625q-0.78125 -0.890625 -2.046875 -0.890625q-1.578125 0 -2.828125 1.40625l-2.96875 -0.4375l1.875 -9.9375l9.671875 0l0 3.4375l-6.890625 0l-0.578125 3.234375q1.21875 -0.609375 2.5 -0.609375q2.4375 0 4.125 1.765625q1.6875 1.765625 1.6875 4.59375q0 2.359375 -1.359375 4.203125q-1.859375 2.53125 -5.171875 2.53125q-2.640625 0 -4.3125 -1.421875q-1.65625 -1.421875 -1.984375 -3.8125z" fill-rule="nonzero"/><path fill="#000000" fill-opacity="0.0" d="m130.76247 47.304462l71.40158 0.25196838" fill-rule="evenodd"/><path stroke="#000000" stroke-width="4.0" stroke-linejoin="round" stroke-linecap="butt" d="m130.76247 47.304462l47.40172 0.16727448" fill-rule="evenodd"/><path fill="#000000" stroke="#000000" stroke-width="4.0" stroke-linecap="butt" d="m178.14088 54.078625l18.175583 -6.5428314l-18.128967 -6.670944z" fill-rule="evenodd"/><path fill="#000000" fill-opacity="0.0" d="m133.78871 0l68.37796 0l0 53.322834l-68.37796 0z" fill-rule="evenodd"/><path fill="#000000" d="m149.19496 32.989372l0 -5.203125l-5.25 0l0 -3.59375l5.25 0l0 -5.21875l3.5 0l0 5.21875l5.265625 0l0 3.59375l-5.265625 0l0 5.203125l-3.5 0zm11.1953125 -2.265625l3.828125 -0.390625q0.15625 1.296875 0.953125 2.0625q0.8125 0.75 1.875 0.75q1.203125 0 2.03125 -0.96875q0.84375 -0.984375 0.84375 -2.953125q0 -1.84375 -0.828125 -2.765625q-0.828125 -0.921875 -2.15625 -0.921875q-1.65625 0 -2.96875 1.453125l-3.125 -0.453125l1.96875 -10.421875l10.171875 0l0 3.59375l-7.25 0l-0.609375 3.40625q1.296875 -0.640625 2.625 -0.640625q2.5625 0 4.328125 1.859375q1.78125 1.859375 1.78125 4.8125q0 2.484375 -1.421875 4.421875q-1.96875 2.65625 -5.4375 2.65625q-2.765625 0 -4.515625 -1.484375q-1.75 -1.5 -2.09375 -4.015625z" fill-rule="nonzero"/><path fill="#cfe2f3" d="m632.3727 47.540684l0 0c0 -19.882252 16.117798 -36.0 36.0 -36.0l0 0c9.547791 0 18.704529 3.7928457 25.455872 10.544156c6.7512817 6.7513084 10.544128 15.908051 10.544128 25.455845l0 0c0 19.882252 -16.117737 35.999996 -36.0 35.999996l0 0c-19.882202 0 -36.0 -16.117744 -36.0 -35.999996z" fill-rule="evenodd"/><path stroke="#000000" stroke-width="3.0" stroke-linejoin="round" stroke-linecap="butt" d="m632.3727 47.540684l0 0c0 -19.882252 16.117798 -36.0 36.0 -36.0l0 0c9.547791 0 18.704529 3.7928457 25.455872 10.544156c6.7512817 6.7513084 10.544128 15.908051 10.544128 25.455845l0 0c0 19.882252 -16.117737 35.999996 -36.0 35.999996l0 0c-19.882202 0 -36.0 -16.117744 -36.0 -35.999996z" fill-rule="evenodd"/><path fill="#000000" d="m664.03217 57.140682l-3.65625 0l0 -13.78125q-2.0 1.875 -4.71875 2.765625l0 -3.3125q1.4375 -0.46875 3.109375 -1.78125q1.671875 -1.3125 2.296875 -3.046875l2.96875 0l0 19.15625zm5.528015 -4.90625l3.640625 -0.375q0.15625 1.234375 0.921875 1.953125q0.765625 0.71875 1.765625 0.71875q1.15625 0 1.9375 -0.921875q0.796875 -0.9375 0.796875 -2.8125q0 -1.75 -0.78125 -2.625q-0.78125 -0.890625 -2.046875 -0.890625q-1.578125 0 -2.828125 1.40625l-2.96875 -0.4375l1.875 -9.9375l9.671875 0l0 3.4375l-6.890625 0l-0.578125 3.234375q1.21875 -0.609375 2.5 -0.609375q2.4375 0 4.125 1.765625q1.6875 1.765625 1.6875 4.59375q0 2.359375 -1.359375 4.203125q-1.859375 2.53125 -5.171875 2.53125q-2.640625 0 -4.3125 -1.421875q-1.65625 -1.421875 -1.984375 -3.8125z" fill-rule="nonzero"/><path fill="#cfe2f3" d="m775.7743 47.897636l0 0c0 -19.88225 16.117737 -36.0 36.0 -36.0l0 0c9.547791 0 18.704529 3.7928467 25.45581 10.544156c6.751343 6.7513103 10.544189 15.908052 10.544189 25.455843l0 0c0 19.882256 -16.117737 36.0 -36.0 36.0l0 0c-19.882263 0 -36.0 -16.117744 -36.0 -36.0z" fill-rule="evenodd"/><path stroke="#000000" stroke-width="3.0" stroke-linejoin="round" stroke-linecap="butt" d="m775.7743 47.897636l0 0c0 -19.88225 16.117737 -36.0 36.0 -36.0l0 0c9.547791 0 18.704529 3.7928467 25.45581 10.544156c6.751343 6.7513103 10.544189 15.908052 10.544189 25.455843l0 0c0 19.882256 -16.117737 36.0 -36.0 36.0l0 0c-19.882263 0 -36.0 -16.117744 -36.0 -36.0z" fill-rule="evenodd"/><path fill="#000000" d="m807.4337 57.49764l-3.65625 0l0 -13.78125q-2.0 1.875 -4.71875 2.765625l0 -3.3125q1.4375 -0.46875 3.109375 -1.78125q1.671875 -1.3125 2.296875 -3.046875l2.96875 0l0 19.15625zm5.465576 -15.421875l0 -3.40625l12.515625 0l0 2.65625q-1.546875 1.53125 -3.15625 4.390625q-1.59375 2.84375 -2.4375 6.046875q-0.84375 3.203125 -0.828125 5.734375l-3.515625 0q0.078125 -3.953125 1.625 -8.0625q1.546875 -4.125 4.125 -7.359375l-8.328125 0z" fill-rule="nonzero"/><path fill="#000000" fill-opacity="0.0" d="m704.3727 47.645668l71.40161 0.25196838" fill-rule="evenodd"/><path stroke="#000000" stroke-width="4.0" stroke-linejoin="round" stroke-linecap="butt" d="m704.3727 47.645668l47.401733 0.16727829" fill-rule="evenodd"/><path fill="#000000" stroke="#000000" stroke-width="4.0" stroke-linecap="butt" d="m751.7511 54.419834l18.175598 -6.5428314l-18.128967 -6.670948z" fill-rule="evenodd"/><path fill="#000000" fill-opacity="0.0" d="m707.3963 0.35695538l68.37799 0l0 53.322834l-68.37799 0z" fill-rule="evenodd"/><path fill="#000000" d="m722.80255 33.34633l0 -5.203127l-5.25 0l0 -3.59375l5.25 0l0 -5.21875l3.5 0l0 5.21875l5.265625 0l0 3.59375l-5.265625 0l0 5.203127l-3.5 0zm24.117188 -0.671875l0 3.5625l-13.46875 0q0.21875 -2.03125 1.3125 -3.828125q1.09375 -1.8125019 4.3125 -4.812502q2.59375 -2.421875 3.1875 -3.28125q0.796875 -1.1875 0.796875 -2.359375q0 -1.28125 -0.703125 -1.96875q-0.6875 -0.6875 -1.890625 -0.6875q-1.203125 0 -1.921875 0.734375q-0.703125 0.71875 -0.8125 2.390625l-3.828125 -0.375q0.328125 -3.171875 2.125 -4.546875q1.8125 -1.390625 4.53125 -1.390625q2.96875 0 4.65625 1.609375q1.703125 1.59375 1.703125 3.96875q0 1.359375 -0.5 2.578125q-0.484375 1.21875 -1.53125 2.5625q-0.703125 0.890625 -2.515625 2.5625q-1.8125 1.65625 -2.296875 2.203125q-0.484375 0.5468769 -0.796875 1.0781269l7.640625 0z" fill-rule="nonzero"/><path fill="#000000" fill-opacity="0.0" d="m274.16797 80.09974c0 4.861847 -3.9412842 8.803146 -8.803131 8.803146l-90.48819 0c-4.861847 0 -8.803162 3.941307 -8.803162 8.803154l0 0c0 -4.861847 -3.9412994 -8.803154 -8.803146 -8.803154l-90.48819 0l0 0c-4.861843 0 -8.803146 -3.9412994 -8.803146 -8.803146z" fill-rule="evenodd"/><path fill="#000000" fill-opacity="0.0" d="m274.16797 80.09974c0 4.861847 -3.9412842 8.803146 -8.803131 8.803146l-90.48819 0c-4.861847 0 -8.803162 3.941307 -8.803162 8.803154l0 0c0 -4.861847 -3.9412994 -8.803154 -8.803146 -8.803154l-90.48819 0l0 0c-4.861843 0 -8.803146 -3.9412994 -8.803146 -8.803146" fill-rule="evenodd"/><path stroke="#000000" stroke-width="3.0" stroke-linejoin="round" stroke-linecap="butt" d="m274.16797 80.09974c0 4.861847 -3.9412842 8.803146 -8.803131 8.803146l-90.48819 0c-4.861847 0 -8.803162 3.941307 -8.803162 8.803154l0 0c0 -4.861847 -3.9412994 -8.803154 -8.803146 -8.803154l-90.48819 0l0 0c-4.861843 0 -8.803146 -3.9412994 -8.803146 -8.803146" fill-rule="evenodd"/><path fill="#000000" fill-opacity="0.0" d="m848.5617 80.09974c0 4.861847 -3.9413452 8.803146 -8.803162 8.803146l-90.48822 0c-4.8618164 0 -8.803162 3.941307 -8.803162 8.803154l0 0c0 -4.861847 -3.9412842 -8.803154 -8.803101 -8.803154l-90.48822 0l0 0c-4.8618164 0 -8.803162 -3.9412994 -8.803162 -8.803146z" fill-rule="evenodd"/><path fill="#000000" fill-opacity="0.0" d="m848.5617 80.09974c0 4.861847 -3.9413452 8.803146 -8.803162 8.803146l-90.48822 0c-4.8618164 0 -8.803162 3.941307 -8.803162 8.803154l0 0c0 -4.861847 -3.9412842 -8.803154 -8.803101 -8.803154l-90.48822 0l0 0c-4.8618164 0 -8.803162 -3.9412994 -8.803162 -8.803146" fill-rule="evenodd"/><path stroke="#000000" stroke-width="3.0" stroke-linejoin="round" stroke-linecap="butt" d="m848.5617 80.09974c0 4.861847 -3.9413452 8.803146 -8.803162 8.803146l-90.48822 0c-4.8618164 0 -8.803162 3.941307 -8.803162 8.803154l0 0c0 -4.861847 -3.9412842 -8.803154 -8.803101 -8.803154l-90.48822 0l0 0c-4.8618164 0 -8.803162 -3.9412994 -8.803162 -8.803146" fill-rule="evenodd"/><path fill="#000000" fill-opacity="0.0" d="m90.62467 88.57743l154.70865 0l0 43.622047l-154.70865 0z" fill-rule="evenodd"/><path fill="#000000" d="m103.10905 116.77743l-3.421875 -14.3125l2.96875 0l2.15625 9.828125l2.609375 -9.828125l3.4375 0l2.515625 10.0l2.203125 -10.0l2.90625 0l-3.484375 14.3125l-3.0625 0l-2.84375 -10.703125l-2.84375 10.703125l-3.140625 0zm19.564453 -14.3125l0 5.265625q1.328125 -1.5625 3.171875 -1.5625q0.953125 0 1.703125 0.359375q0.7656174 0.34375 1.1562424 0.890625q0.390625 0.546875 0.53125 1.21875q0.140625 0.65625 0.140625 2.0625l0 6.078125l-2.7499924 0l0 -5.484375q0 -1.625 -0.15625 -2.0625q-0.15625 -0.4375 -0.5625 -0.6875q-0.390625 -0.265625 -0.984375 -0.265625q-0.671875 0 -1.21875 0.328125q-0.53125 0.328125 -0.78125 1.0q-0.25 0.671875 -0.25 1.96875l0 5.203125l-2.75 0l0 -14.3125l2.75 0zm11.529289 7.109375l-2.484375 -0.453125q0.421875 -1.5 1.4375 -2.21875q1.03125 -0.734375 3.046875 -0.734375q1.84375 0 2.734375 0.4375q0.90625 0.4375 1.265625 1.109375q0.375 0.65625 0.375 2.453125l-0.03125 3.203125q0 1.359375 0.125 2.015625q0.140625 0.640625 0.5 1.390625l-2.71875 0q-0.109375 -0.28125 -0.265625 -0.8125q-0.0625 -0.25 -0.09375 -0.328125q-0.703125 0.6875 -1.515625 1.03125q-0.796875 0.34375 -1.703125 0.34375q-1.59375 0 -2.515625 -0.859375q-0.921875 -0.875 -0.921875 -2.203125q0 -0.890625 0.40625 -1.578125q0.421875 -0.6875 1.171875 -1.046875q0.765625 -0.375 2.203125 -0.640625q1.921875 -0.359375 2.65625 -0.671875l0 -0.28125q0 -0.78125 -0.390625 -1.109375q-0.390625 -0.34375 -1.46875 -0.34375q-0.734375 0 -1.15625 0.28125q-0.40625 0.28125 -0.65625 1.015625zm3.671875 2.21875q-0.53125 0.171875 -1.671875 0.421875q-1.140625 0.25 -1.484375 0.484375q-0.546875 0.375 -0.546875 0.96875q0 0.5625 0.421875 0.984375q0.4375 0.421875 1.109375 0.421875q0.734375 0 1.40625 -0.484375q0.5 -0.375 0.65625 -0.90625q0.109375 -0.359375 0.109375 -1.34375l0 -0.546875zm10.154297 -5.390625l0 2.1875l-1.875 0l0 4.1875q0 1.265625 0.046875 1.484375q0.0625 0.203125 0.25 0.34375q0.203125 0.125 0.46875 0.125q0.375 0 1.109375 -0.265625l0.234375 2.140625q-0.96875 0.40625 -2.171875 0.40625q-0.75 0 -1.34375 -0.25q-0.59375 -0.25 -0.875 -0.640625q-0.265625 -0.40625 -0.375 -1.078125q-0.09375 -0.46875 -0.09375 -1.921875l0 -4.53125l-1.265625 0l0 -2.1875l1.265625 0l0 -2.0625l2.75 -1.59375l0 3.65625l1.875 0zm6.169922 0l2.921875 0l2.46875 7.359375l2.421875 -7.359375l2.84375 0l-3.65625 9.984375l-0.65625 1.8125q-0.359375 0.90625 -0.6875 1.375q-0.328125 0.484375 -0.75 0.78125q-0.421875 0.296875 -1.046875 0.453125q-0.625 0.171875 -1.40625 0.171875q-0.78125 0 -1.546875 -0.15625l-0.25 -2.15625q0.65625 0.125 1.171875 0.125q0.953125 0 1.40625 -0.5625q0.46875 -0.546875 0.703125 -1.421875l-3.9375 -10.40625zm11.779297 5.046875q0 -1.375 0.671875 -2.65625q0.6875 -1.28125 1.921875 -1.953125q1.234375 -0.671875 2.75 -0.671875q2.359375 0 3.859375 1.53125q1.5 1.53125 1.5 3.859375q0 2.359375 -1.515625 3.90625q-1.515625 1.546875 -3.828125 1.546875q-1.421875 0 -2.71875 -0.640625q-1.28125 -0.65625 -1.96875 -1.890625q-0.671875 -1.25 -0.671875 -3.03125zm2.8125 0.140625q0 1.546875 0.734375 2.375q0.734375 0.8125 1.8125 0.8125q1.078125 0 1.796875 -0.8125q0.734375 -0.828125 0.734375 -2.390625q0 -1.53125 -0.734375 -2.34375q-0.71875 -0.828125 -1.796875 -0.828125q-1.078125 0 -1.8125 0.828125q-0.734375 0.8125 -0.734375 2.359375zm16.873047 5.1875l0 -1.546875q-0.5625 0.828125 -1.5 1.3125q-0.921875 0.46875 -1.9375 0.46875q-1.046875 0 -1.875 -0.453125q-0.828125 -0.46875 -1.203125 -1.296875q-0.375 -0.828125 -0.375 -2.296875l0 -6.5625l2.75 0l0 4.765625q0 2.1875 0.140625 2.6875q0.15625 0.484375 0.546875 0.78125q0.40625 0.28125 1.03125 0.28125q0.703125 0 1.25 -0.375q0.5625 -0.390625 0.765625 -0.953125q0.203125 -0.578125 0.203125 -2.8125l0 -4.375l2.75 0l0 10.375l-2.546875 0zm9.9765625 -2.953125l2.75 -0.421875q0.1875 0.796875 0.71875 1.21875q0.53125 0.40625 1.5 0.40625q1.0625 0 1.609375 -0.390625q0.359375 -0.265625 0.359375 -0.734375q0 -0.3125 -0.203125 -0.515625q-0.203125 -0.1875 -0.90625 -0.359375q-3.328125 -0.734375 -4.21875 -1.34375q-1.234375 -0.828125 -1.234375 -2.328125q0 -1.34375 1.0625 -2.265625q1.078125 -0.921875 3.3125 -0.921875q2.125 0 3.15625 0.703125q1.046875 0.6875 1.4375 2.046875l-2.59375 0.46875q-0.171875 -0.59375 -0.640625 -0.921875q-0.453125 -0.328125 -1.3125 -0.328125q-1.078125 0 -1.546875 0.3125q-0.3125 0.21875 -0.3125 0.546875q0 0.296875 0.265625 0.5q0.375 0.28125 2.5625 0.78125q2.1875 0.5 3.0625 1.21875q0.859375 0.734375 0.859375 2.03125q0 1.4375 -1.1875 2.46875q-1.1875 1.015625 -3.53125 1.015625q-2.109375 0 -3.359375 -0.859375q-1.234375 -0.859375 -1.609375 -2.328125zm18.091797 -0.34375l2.734375 0.453125q-0.515625 1.5 -1.65625 2.296875q-1.140625 0.78125 -2.84375 0.78125q-2.71875 0 -4.015625 -1.765625q-1.015625 -1.421875 -1.015625 -3.578125q0 -2.578125 1.34375 -4.03125q1.34375 -1.46875 3.40625 -1.46875q2.3125 0 3.640625 1.53125q1.34375 1.53125 1.296875 4.6875l-6.875 0q0.03125 1.21875 0.65625 1.90625q0.640625 0.671875 1.578125 0.671875q0.65625 0 1.09375 -0.34375q0.4375 -0.359375 0.65625 -1.140625zm0.15625 -2.78125q-0.03125 -1.1875 -0.625 -1.796875q-0.578125 -0.625 -1.40625 -0.625q-0.90625 0 -1.484375 0.640625q-0.59375 0.65625 -0.578125 1.78125l4.09375 0zm10.966797 2.78125l2.734375 0.453125q-0.515625 1.5 -1.65625 2.296875q-1.140625 0.78125 -2.84375 0.78125q-2.71875 0 -4.015625 -1.765625q-1.015625 -1.421875 -1.015625 -3.578125q0 -2.578125 1.34375 -4.03125q1.34375 -1.46875 3.40625 -1.46875q2.3125 0 3.640625 1.53125q1.34375 1.53125 1.296875 4.6875l-6.875 0q0.03125 1.21875 0.65625 1.90625q0.640625 0.671875 1.578125 0.671875q0.65625 0 1.09375 -0.34375q0.4375 -0.359375 0.65625 -1.140625zm0.15625 -2.78125q-0.03125 -1.1875 -0.625 -1.796875q-0.578125 -0.625 -1.40625 -0.625q-0.90625 0 -1.484375 0.640625q-0.59375 0.65625 -0.578125 1.78125l4.09375 0z" fill-rule="nonzero"/><path fill="#000000" fill-opacity="0.0" d="m664.23096 86.97113l154.70868 0l0 43.62204l-154.70868 0z" fill-rule="evenodd"/><path fill="#000000" d="m676.71533 115.17113l-3.421875 -14.3125l2.96875 0l2.15625 9.828125l2.609375 -9.828125l3.4375 0l2.515625 10.0l2.203125 -10.0l2.90625 0l-3.484375 14.3125l-3.0625 0l-2.84375 -10.703125l-2.84375 10.703125l-3.140625 0zm19.564453 -14.3125l0 5.265625q1.328125 -1.5625 3.171875 -1.5625q0.953125 0 1.703125 0.359375q0.765625 0.34375 1.15625 0.890625q0.390625 0.546875 0.53125 1.21875q0.140625 0.65625 0.140625 2.0625l0 6.078125l-2.75 0l0 -5.484375q0 -1.625 -0.15625 -2.0625q-0.15625 -0.4375 -0.5625 -0.6875q-0.390625 -0.265625 -0.984375 -0.265625q-0.671875 0 -1.21875 0.328125q-0.53125 0.328125 -0.78125 1.0q-0.25 0.671875 -0.25 1.96875l0 5.203125l-2.75 0l0 -14.3125l2.75 0zm11.529297 7.109375l-2.484375 -0.453125q0.421875 -1.5 1.4375 -2.21875q1.03125 -0.734375 3.046875 -0.734375q1.84375 0 2.734375 0.4375q0.90625 0.4375 1.265625 1.109375q0.375 0.65625 0.375 2.453125l-0.03125 3.203125q0 1.359375 0.125 2.015625q0.140625 0.640625 0.5 1.390625l-2.71875 0q-0.109375 -0.28125 -0.265625 -0.8125q-0.0625 -0.25 -0.09375 -0.328125q-0.703125 0.6875 -1.515625 1.03125q-0.796875 0.34375 -1.703125 0.34375q-1.59375 0 -2.515625 -0.859375q-0.921875 -0.875 -0.921875 -2.203125q0 -0.890625 0.40625 -1.578125q0.421875 -0.6875 1.171875 -1.046875q0.765625 -0.375 2.203125 -0.640625q1.921875 -0.359375 2.65625 -0.671875l0 -0.28125q0 -0.78125 -0.390625 -1.109375q-0.390625 -0.34375 -1.46875 -0.34375q-0.734375 0 -1.15625 0.28125q-0.40625 0.28125 -0.65625 1.015625zm3.671875 2.21875q-0.53125 0.171875 -1.671875 0.421875q-1.140625 0.25 -1.484375 0.484375q-0.546875 0.375 -0.546875 0.96875q0 0.5625 0.421875 0.984375q0.4375 0.421875 1.109375 0.421875q0.734375 0 1.40625 -0.484375q0.5 -0.375 0.65625 -0.90625q0.109375 -0.359375 0.109375 -1.34375l0 -0.546875zm10.154297 -5.390625l0 2.1875l-1.875 0l0 4.1875q0 1.265625 0.046875 1.484375q0.0625 0.203125 0.25 0.34375q0.203125 0.125 0.46875 0.125q0.375 0 1.109375 -0.265625l0.234375 2.140625q-0.96875 0.40625 -2.171875 0.40625q-0.75 0 -1.34375 -0.25q-0.59375 -0.25 -0.875 -0.640625q-0.265625 -0.40625 -0.375 -1.078125q-0.09375 -0.46875 -0.09375 -1.921875l0 -4.53125l-1.265625 0l0 -2.1875l1.265625 0l0 -2.0625l2.75 -1.59375l0 3.65625l1.875 0zm6.169922 0l2.921875 0l2.46875 7.359375l2.421875 -7.359375l2.84375 0l-3.65625 9.984375l-0.65625 1.8125q-0.359375 0.90625 -0.6875 1.375q-0.328125 0.484375 -0.75 0.78125q-0.421875 0.296875 -1.046875 0.453125q-0.625 0.171875 -1.40625 0.171875q-0.78125 0 -1.546875 -0.15625l-0.25 -2.15625q0.65625 0.125 1.171875 0.125q0.953125 0 1.40625 -0.5625q0.46875 -0.546875 0.703125 -1.421875l-3.9375 -10.40625zm11.779297 5.046875q0 -1.375 0.671875 -2.65625q0.6875 -1.28125 1.921875 -1.953125q1.234375 -0.671875 2.75 -0.671875q2.359375 0 3.859375 1.53125q1.5 1.53125 1.5 3.859375q0 2.359375 -1.515625 3.90625q-1.515625 1.546875 -3.828125 1.546875q-1.421875 0 -2.71875 -0.640625q-1.28125 -0.65625 -1.96875 -1.890625q-0.671875 -1.25 -0.671875 -3.03125zm2.8125 0.140625q0 1.546875 0.734375 2.375q0.734375 0.8125 1.8125 0.8125q1.078125 0 1.796875 -0.8125q0.734375 -0.828125 0.734375 -2.390625q0 -1.53125 -0.734375 -2.34375q-0.71875 -0.828125 -1.796875 -0.828125q-1.078125 0 -1.8125 0.828125q-0.734375 0.8125 -0.734375 2.359375zm16.873047 5.1875l0 -1.546875q-0.5625 0.828125 -1.5 1.3125q-0.921875 0.46875 -1.9375 0.46875q-1.046875 0 -1.875 -0.453125q-0.828125 -0.46875 -1.203125 -1.296875q-0.375 -0.828125 -0.375 -2.296875l0 -6.5625l2.75 0l0 4.765625q0 2.1875 0.140625 2.6875q0.15625 0.484375 0.546875 0.78125q0.40625 0.28125 1.03125 0.28125q0.703125 0 1.25 -0.375q0.5625 -0.390625 0.765625 -0.953125q0.203125 -0.578125 0.203125 -2.8125l0 -4.375l2.75 0l0 10.375l-2.546875 0zm9.9765625 -2.953125l2.75 -0.421875q0.1875 0.796875 0.71875 1.21875q0.53125 0.40625 1.5 0.40625q1.0625 0 1.609375 -0.390625q0.359375 -0.265625 0.359375 -0.734375q0 -0.3125 -0.203125 -0.515625q-0.203125 -0.1875 -0.90625 -0.359375q-3.328125 -0.734375 -4.21875 -1.34375q-1.234375 -0.828125 -1.234375 -2.328125q0 -1.34375 1.0625 -2.265625q1.078125 -0.921875 3.3125 -0.921875q2.125 0 3.15625 0.703125q1.046875 0.6875 1.4375 2.046875l-2.59375 0.46875q-0.171875 -0.59375 -0.640625 -0.921875q-0.453125 -0.328125 -1.3125 -0.328125q-1.078125 0 -1.546875 0.3125q-0.3125 0.21875 -0.3125 0.546875q0 0.296875 0.265625 0.5q0.375 0.28125 2.5625 0.78125q2.1875 0.5 3.0625 1.21875q0.859375 0.734375 0.859375 2.03125q0 1.4375 -1.1875 2.46875q-1.1875 1.015625 -3.53125 1.015625q-2.109375 0 -3.359375 -0.859375q-1.234375 -0.859375 -1.609375 -2.328125zm18.091797 -0.34375l2.734375 0.453125q-0.515625 1.5 -1.65625 2.296875q-1.140625 0.78125 -2.84375 0.78125q-2.71875 0 -4.015625 -1.765625q-1.015625 -1.421875 -1.015625 -3.578125q0 -2.578125 1.34375 -4.03125q1.34375 -1.46875 3.40625 -1.46875q2.3125 0 3.640625 1.53125q1.34375 1.53125 1.296875 4.6875l-6.875 0q0.03125 1.21875 0.65625 1.90625q0.640625 0.671875 1.578125 0.671875q0.65625 0 1.09375 -0.34375q0.4375 -0.359375 0.65625 -1.140625zm0.15625 -2.78125q-0.03125 -1.1875 -0.625 -1.796875q-0.578125 -0.625 -1.40625 -0.625q-0.90625 0 -1.484375 0.640625q-0.59375 0.65625 -0.578125 1.78125l4.09375 0zm10.966797 2.78125l2.734375 0.453125q-0.515625 1.5 -1.65625 2.296875q-1.140625 0.78125 -2.84375 0.78125q-2.71875 0 -4.015625 -1.765625q-1.015625 -1.421875 -1.015625 -3.578125q0 -2.578125 1.34375 -4.03125q1.34375 -1.46875 3.40625 -1.46875q2.3125 0 3.640625 1.53125q1.34375 1.53125 1.296875 4.6875l-6.875 0q0.03125 1.21875 0.65625 1.90625q0.640625 0.671875 1.578125 0.671875q0.65625 0 1.09375 -0.34375q0.4375 -0.359375 0.65625 -1.140625zm0.15625 -2.78125q-0.03125 -1.1875 -0.625 -1.796875q-0.578125 -0.625 -1.40625 -0.625q-0.90625 0 -1.484375 0.640625q-0.59375 0.65625 -0.578125 1.78125l4.09375 0z" fill-rule="nonzero"/></g></svg>