<svg version="1.1" viewBox="0.0 0.0 315.61942257217845 128.31496062992127" fill="none" stroke="none" stroke-linecap="square" stroke-miterlimit="10" xmlns:xlink="http://www.w3.org/1999/xlink" xmlns="http://www.w3.org/2000/svg"><clipPath id="p.0"><path d="m0 0l315.61942 0l0 128.31496l-315.61942 0l0 -128.31496z" clip-rule="nonzero"/></clipPath><g clip-path="url(#p.0)"><path fill="#000000" fill-opacity="0.0" d="m0 0l315.61942 0l0 128.31496l-315.61942 0z" fill-rule="evenodd"/><path fill="#ffffff" d="m0 0l315.62204 0l0 128.31496l-315.62204 0z" fill-rule="evenodd"/><path stroke="#000000" stroke-width="1.0" stroke-linejoin="round" stroke-linecap="butt" d="m0 0l315.62204 0l0 128.31496l-315.62204 0z" fill-rule="evenodd"/><path fill="#cfe2f3" d="m21.574802 69.573494l0 0c0 -19.882256 16.117748 -36.000004 36.0 -36.000004l0 0c9.547794 0 18.704533 3.7928467 25.455845 10.544155c6.7513123 6.7513123 10.544159 15.908051 10.544159 25.455849l0 0c0 19.882248 -16.117752 36.0 -36.000004 36.0l0 0c-19.882252 0 -36.0 -16.117752 -36.0 -36.0z" fill-rule="evenodd"/><path stroke="#000000" stroke-width="3.0" stroke-linejoin="round" stroke-linecap="butt" d="m21.574802 69.573494l0 0c0 -19.882256 16.117748 -36.000004 36.0 -36.000004l0 0c9.547794 0 18.704533 3.7928467 25.455845 10.544155c6.7513123 6.7513123 10.544159 15.908051 10.544159 25.455849l0 0c0 19.882248 -16.117752 36.0 -36.000004 36.0l0 0c-19.882252 0 -36.0 -16.117752 -36.0 -36.0z" fill-rule="evenodd"/><path fill="#000000" d="m41.647503 81.57349l8.15625 -12.453125l-7.390625 -11.40625l5.625 0l4.796875 7.671875l4.671875 -7.671875l5.59375 0l-7.421875 11.59375l8.15625 12.265625l-5.8125 0l-5.296875 -8.25l-5.296875 8.25l-5.78125 0z" fill-rule="nonzero"/><path fill="#000000" d="m64.86148 89.07349l0 -9.546875l1.875 0l3.90625 6.375l0 -6.375l1.796875 0l0 9.546875l-1.9375 0l-3.84375 -6.21875l0 6.21875l-1.796875 0z" fill-rule="nonzero"/><path fill="#cfe2f3" d="m222.04199 70.04593l0 0c0 -19.882248 16.117752 -35.999996 36.0 -35.999996l0 0c9.547791 0 18.704529 3.7928467 25.455841 10.544155c6.7513123 6.7513084 10.544159 15.908051 10.544159 25.455841l0 0c0 19.882256 -16.117737 36.0 -36.0 36.0l0 0c-19.882248 0 -36.0 -16.117744 -36.0 -36.0z" fill-rule="evenodd"/><path stroke="#000000" stroke-width="3.0" stroke-linejoin="round" stroke-linecap="butt" d="m222.04199 70.04593l0 0c0 -19.882248 16.117752 -35.999996 36.0 -35.999996l0 0c9.547791 0 18.704529 3.7928467 25.455841 10.544155c6.7513123 6.7513084 10.544159 15.908051 10.544159 25.455841l0 0c0 19.882256 -16.117737 36.0 -36.0 36.0l0 0c-19.882248 0 -36.0 -16.117744 -36.0 -36.0z" fill-rule="evenodd"/><path fill="#000000" d="m234.51688 82.04593l8.15625 -12.453125l-7.390625 -11.40625l5.625 0l4.796875 7.671875l4.671875 -7.671875l5.59375 0l-7.421875 11.59375l8.15625 12.265625l-5.8125 0l-5.296875 -8.25l-5.296875 8.25l-5.78125 0z" fill-rule="nonzero"/><path fill="#000000" d="m257.73083 89.54593l0 -9.546875l1.875 0l3.90625 6.375l0 -6.375l1.796875 0l0 9.546875l-1.9375 0l-3.84375 -6.21875l0 6.21875l-1.796875 0zm11.6875 -1.375l0 -2.484375l-2.5 0l0 -1.703125l2.5 0l0 -2.484375l1.671875 0l0 2.484375l2.5 0l0 1.703125l-2.5 0l0 2.484375l-1.671875 0zm9.98642 1.375l-1.828125 0l0 -6.890625q-1.0 0.9375 -2.375 1.390625l0 -1.671875q0.71875 -0.234375 1.5625 -0.875q0.84375 -0.65625 1.15625 -1.53125l1.484375 0l0 9.578125z" fill-rule="nonzero"/><path fill="#000000" fill-opacity="0.0" d="m93.57481 69.573494l128.47244 0.472435" fill-rule="evenodd"/><path stroke="#000000" stroke-width="4.0" stroke-linejoin="round" stroke-linecap="butt" d="m93.57481 69.573494l104.4726 0.3841858" fill-rule="evenodd"/><path fill="#000000" stroke="#000000" stroke-width="4.0" stroke-linecap="butt" d="m198.02312 76.56456l18.17656 -6.5401306l-18.127975 -6.6736374z" fill-rule="evenodd"/><path fill="#000000" fill-opacity="0.0" d="m114.419945 12.37664l68.37795 0l0 59.779526l-68.37795 0z" fill-rule="evenodd"/><path fill="#000000" d="m129.8262 50.486015l0 -5.203125l-5.2500076 0l0 -3.59375l5.2500076 0l0 -5.21875l3.5 0l0 5.21875l5.265625 0l0 3.59375l-5.265625 0l0 5.203125l-3.5 0z" fill-rule="nonzero"/><path fill="#000000" d="m142.20901 29.517265l9.546875 0q2.828125 0 4.21875 0.234375q1.390625 0.234375 2.484375 0.984375q1.09375 0.75 1.828125 2.0q0.734375 1.25 0.734375 2.78125q0 1.6875 -0.90625 3.09375q-0.890625 1.390625 -2.4375 2.09375q2.171875 0.625 3.34375 2.15625q1.171875 1.53125 1.171875 3.59375q0 1.640625 -0.765625 3.171875q-0.75 1.53125 -2.0625 2.453125q-1.296875 0.921875 -3.21875 1.140625q-1.203125 0.125 -5.8125 0.15625l-8.125 0l0 -23.859375zm4.828125 3.96875l0 5.515625l3.15625 0q2.8125 0 3.484375 -0.078125q1.25 -0.140625 1.953125 -0.84375q0.703125 -0.71875 0.703125 -1.875q0 -1.109375 -0.609375 -1.796875q-0.609375 -0.6875 -1.8125 -0.84375q-0.71875 -0.078125 -4.109375 -0.078125l-2.765625 0zm0 9.484375l0 6.390625l4.453125 0q2.609375 0 3.296875 -0.15625q1.078125 -0.1875 1.75 -0.9375q0.671875 -0.765625 0.671875 -2.03125q0 -1.078125 -0.515625 -1.828125q-0.515625 -0.75 -1.5 -1.09375q-0.984375 -0.34375 -4.28125 -0.34375l-3.875 0z" fill-rule="nonzero"/><path fill="#000000" d="m164.8244 60.87664l0 -9.546875l1.875 0l3.90625 6.375l0 -6.375l1.796875 0l0 9.546875l-1.9375 0l-3.84375 -6.21875l0 6.21875l-1.796875 0z" fill-rule="nonzero"/></g></svg>